<svg width="37" height="67" viewBox="0 0 37 67" fill="none" xmlns="http://www.w3.org/2000/svg">
<path d="M34.7005 26.0301L33.7227 26.2396L34.7005 26.0301ZM7.65854 60.9357C7.38598 61.4159 7.55445 62.0263 8.03482 62.299L15.8629 66.7425C16.3433 67.0152 16.9536 66.8469 17.2262 66.3667C17.4987 65.8864 17.3303 65.2761 16.8499 65.0034L9.89162 61.0536L13.8397 54.097C14.1122 53.6167 13.9438 53.0064 13.4634 52.7337C12.983 52.461 12.3726 52.6293 12.1001 53.1095L7.65854 60.9357ZM0.250825 2.00008C0.340534 2.99603 0.340188 2.99606 0.339951 2.99608C0.340017 2.99608 0.339888 2.99609 0.340019 2.99608C0.340282 2.99606 0.340978 2.99599 0.342104 2.9959C0.344353 2.9957 0.348325 2.99537 0.353992 2.9949C0.365326 2.99397 0.383438 2.99252 0.408137 2.99068C0.457533 2.98699 0.533247 2.98173 0.633708 2.97585C0.834655 2.96409 1.13445 2.94988 1.52052 2.94088C2.29294 2.92288 3.40908 2.92581 4.76869 3.01076C7.49176 3.18088 11.1706 3.67874 15.0136 4.98323C22.6667 7.58111 30.9596 13.3606 33.7227 26.2396L35.6783 25.8206C32.7324 12.0896 23.8004 5.85412 15.656 3.08948C11.6001 1.7127 7.73704 1.19242 4.89282 1.01473C3.46879 0.925757 2.29497 0.922355 1.47333 0.941501C1.06237 0.951077 0.739118 0.966304 0.51627 0.979344C0.404835 0.985865 0.318468 0.991841 0.258755 0.996295C0.228898 0.998522 0.205702 1.00037 0.189363 1.00171C0.181194 1.00239 0.174738 1.00293 0.170021 1.00334C0.167663 1.00354 0.165741 1.00371 0.164256 1.00384C0.163512 1.00391 0.162727 1.00397 0.162354 1.00401C0.161679 1.00407 0.161115 1.00412 0.250825 2.00008ZM33.7227 26.2396C36.4677 39.0339 30.2218 47.5295 23.1494 52.9128C19.6061 55.6098 15.8778 57.502 13.0272 58.7208C11.604 59.3293 10.4052 59.7676 9.56518 60.0529C9.14532 60.1955 8.81552 60.2998 8.59266 60.3678C8.48123 60.4018 8.39658 60.4268 8.3408 60.443C8.31291 60.4511 8.29224 60.457 8.27906 60.4607C8.27247 60.4626 8.26776 60.4639 8.26494 60.4647C8.26354 60.4651 8.26261 60.4653 8.26216 60.4654C8.26193 60.4655 8.26196 60.4655 8.26184 60.4655C8.26199 60.4655 8.26226 60.4654 8.52833 61.4294C8.7944 62.3934 8.79491 62.3933 8.79554 62.3931C8.79591 62.393 8.79666 62.3928 8.7974 62.3926C8.79889 62.3922 8.80086 62.3916 8.80332 62.3909C8.80822 62.3896 8.81505 62.3876 8.82376 62.3852C8.84118 62.3803 8.86616 62.3731 8.89842 62.3638C8.96293 62.3451 9.0566 62.3174 9.17729 62.2806C9.41865 62.2069 9.76822 62.0963 10.209 61.9466C11.0902 61.6473 12.3374 61.191 13.814 60.5597C16.7627 59.299 20.6478 57.3307 24.3612 54.5042C31.8022 48.8403 38.6424 39.6362 35.6783 25.8206L33.7227 26.2396Z" fill="url(#paint0_linear_314_4216)"/>
<defs>
<linearGradient id="paint0_linear_314_4216" x1="18.9845" y1="-2.69142" x2="26.3626" y2="64.4437" gradientUnits="userSpaceOnUse">
<stop stop-color="#41A380" stop-opacity="0"/>
<stop offset="1" stop-color="#63D5AC"/>
</linearGradient>
</defs>
</svg>
