<svg width="273" height="219" viewBox="0 0 273 219" fill="none" xmlns="http://www.w3.org/2000/svg">
<path d="M178.481 1.04167C176.12 1.61082 174.962 2.21139 172.875 3.9354C169.757 6.5225 167.988 9.75695 166.941 14.7638C166.365 17.5765 165.886 19.569 165.023 22.507C163.939 26.2293 163.789 27.3466 163.932 30.5497C164.01 32.2148 163.966 33.8438 163.86 34.1861C163.755 34.5284 163.399 36.5569 163.086 38.6645C162.633 41.7896 162.585 42.6144 162.821 43.0625C162.971 43.3521 163.245 45.3611 163.403 47.5357C163.589 49.6875 163.862 52.2742 164.049 53.2707C164.592 56.2079 164.478 56.6499 162.845 57.7862C162.069 58.3203 161.092 58.8615 160.702 59.0028C160.315 59.1192 159.913 59.4101 159.82 59.6028C159.703 59.7934 159.438 59.9457 159.189 59.9236C158.965 59.9037 158.474 60.0611 158.126 60.3065C157.779 60.527 156.917 60.9026 156.245 61.1193C155.08 61.5183 154.778 61.5166 152.73 61.1087C147.793 60.1428 143.82 60.192 141.139 61.2603C139.448 61.9141 137.429 63.7195 136.423 65.4389C135.771 66.5618 135.445 66.8343 134.592 67.1103C133.999 67.2837 133.073 67.8045 132.508 68.2316C131.429 69.0654 130.066 71.13 129.979 72.1021C129.931 72.6504 129.854 72.6687 128.771 72.4218C128.107 72.2624 127.191 71.8293 126.723 71.4361C126.093 70.9028 125.315 70.6077 123.808 70.3232C122.698 70.099 121.159 69.6106 120.434 69.295C119.711 68.9545 118.22 68.4955 117.136 68.2486C116.051 68.0266 113.52 67.3999 111.483 66.8673C108.834 66.1548 106.389 65.6865 102.712 65.2344C98.7133 64.7287 97.4535 64.4912 96.8594 64.1119C96.0044 63.5586 94.7152 63.3688 94.4329 63.7206C94.1754 64.0745 90.3917 63.412 89.3124 62.8389C88.4984 62.3898 88.3217 62.3992 87.2918 62.6846C86.624 62.8514 85.4623 62.9241 84.341 62.8246C83.3193 62.7338 81.5141 62.6992 80.3319 62.7198C79.1475 62.7654 77.3855 62.8099 76.4275 62.8505C74.7901 62.9061 72.9113 63.4176 71.9208 64.1084C71.7081 64.2403 70.6467 64.5982 69.5918 64.8814C66.1964 65.7858 62.2013 68.0689 59.6992 70.5097C58.9013 71.293 58.1527 71.8044 57.6975 71.8393C56.8099 71.9364 56.1887 72.7103 55.5537 74.4878C55.2857 75.2428 54.7215 76.2227 54.3057 76.6631C52.066 78.9765 48.5103 83.3838 47.0812 85.6184C46.1804 86.9955 44.7276 89.7807 43.8484 91.7626C42.9421 93.7673 41.3066 96.9131 40.1893 98.7483L38.1579 102.11L34.4365 105.272L30.6902 108.431L26.3295 108.044C21.0468 107.575 18.3977 106.862 18.0399 105.801C17.7779 105.074 17.4584 104.995 16.5171 105.414C16.1505 105.583 15.1881 105.673 14.3658 105.6C10.7255 105.302 6.99068 106.352 4.94033 108.23C1.60375 111.3 1.20621 111.818 0.895146 113.624C0.608426 115.156 0.638344 115.385 1.1545 116.36C1.88664 117.731 5.19275 121.793 7.11048 123.672C14.3433 130.745 26.135 136.54 37.0715 138.391C38.1612 138.563 39.2964 138.789 39.5888 138.891C40.0057 139.003 40.5916 138.628 42.3031 137.172C43.4763 136.121 45.0068 134.724 45.6441 134.052C46.4442 133.244 47.0051 132.867 47.4037 132.902C47.7028 132.928 48.3545 132.66 48.8384 132.301C49.6186 131.717 49.7382 131.501 49.8084 130.427C49.8626 129.251 49.9213 129.156 50.7812 128.805C51.2768 128.598 52.0526 128.064 52.5182 127.628C53.1782 126.983 53.3338 126.645 53.3232 125.916C53.2966 125.085 53.4682 124.849 55.7422 122.714C60.8894 117.921 66.439 111.706 68.2108 108.723C68.5336 108.199 69.0873 107.62 69.4516 107.476C69.8159 107.333 70.198 106.99 70.2971 106.722C70.3962 106.455 71.5805 105.279 72.9166 104.091C74.2527 102.903 75.7443 101.378 76.2571 100.695C77.0837 99.5872 77.3257 99.4077 78.1568 99.381C78.6867 99.3527 79.5422 99.0518 80.0738 98.7222C81.2183 97.9948 82.4914 98.0827 84.0197 98.972C85.0924 99.62 86.0775 99.5567 87.9535 98.7937L88.9153 98.4269L91.7383 100.009C94.99 101.855 98.2456 103.375 100.442 104.098C101.566 104.449 102.375 104.948 103.49 105.976C104.35 106.756 105.382 107.576 105.786 107.838C106.214 108.102 106.568 108.36 106.616 108.389C106.845 108.636 104.863 110.872 103.992 111.347C102.646 112.082 98.8616 115.388 97.6757 116.866C97.1674 117.499 96.1016 119.037 95.3115 120.298C94.5214 121.56 93.2407 123.255 92.4633 124.09C89.0216 127.779 86.6098 131.183 84.8553 134.82C83.1594 138.363 80.1176 143.77 79.5185 144.295C78.673 145.049 77.4262 147.777 76.211 151.563C75.3175 154.272 74.8552 155.236 72.2663 159.503C70.6728 162.175 68.9172 165.26 68.369 166.342C67.8458 167.426 67.1211 168.517 66.7706 168.788C66.3116 169.149 66.0026 169.8 65.6699 171.001C65.2653 172.447 65.1141 172.736 64.4895 172.982C64.0709 173.17 63.6279 173.634 63.4093 174.117C63.2177 174.577 62.7028 175.285 62.2371 175.721C61.2244 176.661 58.8856 179.242 57.1731 181.275C55.3747 183.427 52.4905 186.211 48.629 189.536C46.8068 191.107 44.8378 192.917 44.2775 193.571C42.0926 196.115 40.2484 200.197 39.9917 203.089C39.8346 204.858 40.3144 207.941 41.0637 209.967C42.3027 213.267 44.8877 215.833 48.635 217.472C50.0631 218.076 50.8267 218.245 53.4453 218.452C56.2113 218.698 56.7661 218.671 58.466 218.194C61.8659 217.24 64.0486 215.851 68.0585 211.987C72.2832 207.965 80.0908 199.514 85.3912 193.277C86.2882 192.226 86.9394 191.681 87.4239 191.598C88.2118 191.493 89.3109 190.711 89.353 190.237C89.3685 190.063 90.6298 188.868 92.1264 187.569C96.2548 184.067 99.1944 180.66 100.527 177.814C100.962 176.873 101.382 176.383 101.907 176.128C102.797 175.73 103.813 174.463 103.884 173.666C103.911 173.366 104.563 172.244 105.362 171.159C106.993 168.917 108.708 165.728 109.304 163.822C109.682 162.674 109.906 162.418 111.346 161.466C114.576 159.315 117.526 156.362 118.762 154.035C119.006 153.554 119.803 152.494 120.528 151.679C121.895 150.142 123.198 148.198 123.831 146.722C124.113 146.094 124.604 145.66 125.841 145.016C126.737 144.543 127.78 144.108 128.163 144.042C128.548 143.95 129.104 143.623 129.412 143.273C130.047 142.626 135.437 140.467 136.26 140.54C137.605 140.659 142.149 137.847 143.835 135.836C144.567 134.947 146.582 134.874 147.841 135.69C148.599 136.209 148.723 136.22 149.878 135.946C150.675 135.74 151.655 135.727 152.822 135.881C154.036 136.064 154.942 136.044 155.841 135.822C157.102 135.482 157.152 135.486 158.818 136.237C161.114 137.245 163.801 137.534 165.315 136.889C166.41 136.434 168.176 134.933 168.767 133.93C169.036 133.451 169.24 133.419 170.809 133.559C171.781 133.645 172.916 133.871 173.327 134.058C173.93 134.338 174.254 134.367 174.98 134.105C175.471 133.947 176.689 133.804 177.693 133.818C179.725 133.848 181.968 133.193 183.261 132.202C183.693 131.864 184.583 130.888 185.265 129.993C185.945 129.124 186.685 128.436 186.884 128.454C188.03 128.556 189.364 127.393 189.468 126.221C189.503 125.823 190.686 124.948 192.691 123.87C193.037 123.649 195.115 122.025 197.283 120.233C199.451 118.441 201.688 116.73 202.265 116.455C202.844 116.154 203.934 115.472 204.662 114.909L206.008 113.898L209.786 114.057C211.861 114.166 215.5 114.188 217.867 114.122C222.247 114.008 223.69 114.161 226.99 115.183C229.068 115.82 235.932 116.58 239.051 116.53C257.235 116.235 268.005 109.781 272.073 96.7767C272.628 95.0424 272.657 94.7183 272.438 92.9403C271.741 86.6481 266.151 78.8915 257.931 72.7603C256.375 71.6173 255.242 70.5118 254.39 69.356C253.314 67.9038 251.392 66.075 250.544 65.7234C250.424 65.6625 250.844 64.3182 251.489 62.7173C255.033 53.9126 255.065 45.3488 251.559 36.4708C248.87 29.7003 245.192 25.3039 239.112 21.6489C235.06 19.204 229.965 17.4704 225.778 17.0987C220.82 16.6584 216.568 17.5873 211.491 20.1763C209.043 21.4412 208.133 21.7875 207.696 21.623C206.891 21.3506 204.152 18.5449 203.644 17.4699C203.412 16.9719 202.861 16.3954 202.405 16.154C201.927 15.8854 200.281 14.0561 198.36 11.6496C194.881 7.27093 193.401 5.8332 190.689 4.13529C187.908 2.35597 185.478 1.43681 182.499 1.04669C180.413 0.786067 179.611 0.765122 178.481 1.04167ZM186.125 4.05667C190.293 5.75827 192.301 7.469 196.936 13.2566C200.215 17.3412 201.076 18.6738 199.876 17.7634C199.545 17.533 199.065 17.5657 197.748 17.9763C195.735 18.5765 194.034 18.5008 193.494 17.7996C193.269 17.5033 193.017 16.0992 192.864 14.4276C192.517 10.7037 192.266 10.1288 192.018 12.6441C191.832 14.7379 191.629 15.3228 191.156 15.2808C190.981 15.2653 189.985 14.3227 188.932 13.174C185.518 9.47942 183.53 7.82074 182.384 7.71897C181.911 7.67693 182.061 7.96661 183.282 9.48193C184.842 11.4292 185.808 12.9972 186.525 14.8194C187.06 16.1482 186.968 16.3409 186.032 15.8558C183.678 14.642 178.923 13.8932 176.518 14.3831C174.37 14.8204 171.675 16.0382 169.92 17.4149L168.303 18.6531L168.681 16.3754C169.502 11.3736 171.174 8.10537 174.16 5.58198C176.114 3.94662 177.537 3.19369 179.244 2.91818C180.72 2.69753 184.212 3.25875 186.125 4.05667ZM231.656 20.4845C240.769 23.63 246.543 29.0414 249.717 37.4127C252.568 44.901 252.852 51.8851 250.668 58.9515C248.279 66.6277 242.953 73.993 237.47 77.1991C236.488 77.7903 236.556 77.5953 237.704 76.5416C238.226 76.0353 239.58 74.6482 240.717 73.4427C249.329 64.1333 252.843 53.693 250.763 43.7358C250.283 41.5076 250.122 41.3425 249.955 42.9356C249.78 44.6283 248.66 46.4884 246.567 48.5636C244.171 50.9385 244.169 50.9634 244.686 46.839C245.474 40.2264 244.323 34.522 240.945 28.4439C239.34 25.5882 238.05 23.7151 237.601 23.6753C237.028 23.6244 237.149 23.9617 238.63 26.2286C241.527 30.6561 242.986 34.3028 243.491 38.2415C243.891 41.3671 243.73 45.4477 243.101 48.281C242.511 50.9669 241.905 52.4204 242.398 49.9771C242.981 47.0896 243.279 42.0413 242.996 39.8557C242.348 34.6984 240.3 30.0448 237.086 26.3678C232 20.5653 225.747 18.5782 218.229 20.3726C215.278 21.0903 213.578 21.8438 210.694 23.7734C204.902 27.6304 199.777 33.0288 197.293 37.8076C196.711 38.987 196.524 39.6738 196.356 41.5682L196.15 43.8863L197.09 44.8992C197.619 45.4486 198.454 46.2262 198.976 46.574C201.054 48.0648 204.208 52.1383 207.783 57.9826C210.48 62.3924 212.597 65.1428 214.33 66.5528C218.123 69.6531 220.458 70.2371 225.649 69.4671C226.107 69.4072 226.052 69.4526 225.455 69.6759C222.108 70.8861 216.763 69.9845 213.997 67.7543C212.566 66.6223 212.009 65.8192 207.771 58.685C205.609 55.0262 200.818 49.3 198.191 47.2077C196.079 45.538 195.477 44.6807 195.113 42.8395C194.9 41.8409 194.972 41.5961 196.041 39.1787C197.416 36.1354 199.305 32.9619 201.169 30.6403C204.788 26.0878 212.962 20.8596 218.398 19.6088C222.651 18.655 227.198 18.933 231.656 20.4845ZM203.715 20.9179C204.725 21.9873 205.57 22.9416 205.611 23.0457C205.627 23.1476 204.858 23.6069 203.887 24.0734C202.943 24.5172 201.374 25.5083 200.431 26.2285C198.622 27.6506 198.318 27.6739 199.475 26.2442L200.205 25.3794L199.552 24.2412C198.679 22.7569 198.558 21.8668 199.177 21.1179C199.432 20.7888 199.617 20.4033 199.578 20.2742C199.505 19.9663 196.695 21.6261 195.683 22.5662C195.303 22.8842 194.902 23.1501 194.778 23.139C193.706 23.0439 200.554 18.9038 201.627 18.974C201.777 18.9872 202.703 19.8734 203.715 20.9179ZM186.242 18.864C189.132 20.2512 190.531 24.2945 190.48 31.098C190.47 32.0518 190.354 32.7952 190.255 32.7863C190.13 32.7753 189.457 32.4391 188.763 32.051C185.817 30.4328 181.519 29.6241 178.562 30.1153C177.72 30.2666 175.629 30.9099 173.861 31.582C172.094 32.2542 170.539 32.7944 170.414 32.7833C169.642 32.7148 169.347 26.9858 170.016 25.3872C171.441 22.0719 175.916 18.6255 179.724 17.8834C181.335 17.5492 184.532 18.034 186.242 18.864ZM227.79 22.7288C231.545 23.9918 234.755 26.3117 234.631 27.7075C234.602 28.0315 234.16 27.9169 231.563 26.9075C230.64 26.5492 228.748 26.0798 227.386 25.8584C225.105 25.5302 224.752 25.5491 222.979 25.9947C221.899 26.2756 220.831 26.432 220.516 26.3035C219.954 26.128 218.806 24.3429 218.596 23.3193C218.294 21.9108 220.655 21.3417 224.47 21.9316C225.435 22.0927 226.91 22.4498 227.79 22.7288ZM168.017 21.3157C167.702 22.3178 166.816 27.766 166.619 29.9844C166.511 31.2058 166.325 32.169 166.2 32.158C165.876 32.1292 165.931 28.1146 166.303 25.9116C166.64 23.8062 167.642 20.7297 167.991 20.7607C168.09 20.7696 168.118 21.0232 168.017 21.3157ZM214.569 25.675C215.594 27.1477 215.183 28.0911 212.38 30.5302C209.274 33.2691 207.164 35.8201 204.751 39.8013C203.518 41.8021 202.353 43.608 202.136 43.7897C201.132 44.6301 199.862 43.6631 199.784 41.9981C199.712 40.2583 203.275 33.5153 206.033 30.1677C207.581 28.2953 210.117 26.0334 211.461 25.3237C213.013 24.532 213.833 24.6299 214.569 25.675ZM194.572 23.4725C194.568 23.5224 194.351 23.7041 194.111 23.8586C193.684 24.1473 193.661 24.1201 194.02 23.7501C194.38 23.38 194.59 23.2731 194.572 23.4725ZM205.187 26.1232C203.183 27.7542 202.57 27.8756 202.884 26.5971C203.057 25.7834 205.516 24.3939 206.664 24.4708C207.04 24.479 206.649 24.9216 205.187 26.1232ZM188.941 33.7248C190.378 34.5056 190.721 35.1642 191.06 37.8572C191.23 39.053 191.4 40.2489 191.453 40.5048C191.54 40.9396 191.438 40.9557 190.058 40.6573C189.242 40.5095 188.171 40.4144 187.666 40.4449C186.905 40.5281 186.744 40.6394 186.779 41.0947C186.81 41.5999 186.955 41.663 188.423 41.8185C190.788 42.0536 191.774 42.5431 191.887 43.5329C191.924 43.9633 191.941 44.3416 191.914 44.3643C190.258 45.197 189.952 45.2452 188.4 44.9064C186.748 44.5588 183.731 44.5924 182.871 44.9432C182.609 45.0706 182.002 45.1172 181.553 45.0774C180.382 44.9734 178.413 45.3763 176.824 46.0141C175.238 46.6269 175.251 46.4773 176.837 44.4576C177.912 43.096 179.988 41.4966 180.88 41.3497C181.213 41.2788 181.427 41.122 181.393 40.9431C181.322 40.6102 180.976 40.5543 179.685 40.6658C179.003 40.7058 178.734 40.6316 178.654 40.3984C178.462 39.7282 177.688 39.9609 176.388 41.0263C175.683 41.6168 175.045 42.0124 174.952 41.9287C174.727 41.6324 176.319 39.2615 177.352 38.3735C177.894 37.9193 178.666 37.435 179.08 37.296C180.035 37.0039 179.831 36.7597 178.626 36.7532C177.446 36.7489 174.725 37.6881 173.364 38.5972C171.337 39.9246 172.003 38.9286 174.468 36.9116C177.771 34.2153 180.894 32.9853 184.751 32.8253C186.617 32.7397 187.406 32.9102 188.941 33.7248ZM165.773 38.9533C165.588 39.3388 165.337 39.618 165.187 39.6047C164.963 39.5848 165.24 37.5996 165.893 34.7685C166.147 33.6103 166.167 33.6624 166.142 35.9212C166.111 37.4006 165.985 38.545 165.773 38.9533ZM194.699 44.1091C194.843 44.4736 194.923 44.9831 194.899 45.2573C194.87 45.5814 195.308 46.0222 196.233 46.6319C199.628 48.8427 202.768 52.2366 206.182 57.3381C208.086 60.2203 210.94 65.4228 210.891 65.9711C210.855 66.3699 210.476 65.8338 209.33 63.7474C208.944 63.0097 208.042 61.573 207.38 60.5345C206.694 59.4938 205.553 57.6339 204.831 56.4393C202.969 53.3598 199.305 49.3667 199.219 50.3388C199.208 50.4634 200.05 51.4426 201.056 52.5619C202.865 54.5314 203.751 55.8661 203.694 56.5142C203.625 57.2869 202.709 56.5775 200.656 54.2347C198.125 51.3471 195.904 49.4918 192.679 47.6228C191.439 46.8846 190.364 46.2616 190.344 46.2095C190.064 45.9586 190.76 45.1914 191.48 45.0041C191.942 44.8944 192.732 44.4871 193.241 44.1304C193.752 43.7487 194.254 43.4667 194.331 43.4484C194.406 43.455 194.581 43.7469 194.699 44.1091ZM189.623 46.9745C190.185 47.4265 190.65 47.8446 190.644 47.9194C190.637 47.9941 189.967 48.1859 189.175 48.3416C187.463 48.667 185.893 49.3817 186.086 49.7506C186.277 50.1444 186.732 50.1094 188.052 49.6739C188.724 49.4572 189.899 49.235 190.705 49.2061L192.166 49.1599L194.269 50.9293C197.33 53.5123 199.046 55.3981 200.605 57.9232C203.041 61.8827 202.947 62.1004 200.193 58.8914C198.76 57.2067 197.187 55.4089 196.681 54.8867C194.908 53.0712 191.416 49.9726 191.067 49.9416C190.195 49.8642 190.84 50.8007 192.978 52.7491C195.419 54.9505 197.059 57.131 198.467 59.9441L199.274 61.5985L197.158 59.1245C194.699 56.2683 191.776 53.2704 191.427 53.2395C190.829 53.1864 191.164 54.221 191.979 54.9465C193.141 56.0043 198.624 62.42 198.892 63.0719C199.02 63.3344 198.412 62.8282 197.538 61.9216C196.664 61.015 195.488 59.8303 194.905 59.3264C194.324 58.7975 192.965 57.4207 191.862 56.2676C189.224 53.4458 188.051 52.5126 187.617 52.876C187.371 53.1054 187.405 53.2843 187.87 53.7024C189.956 55.6713 193.172 59.3233 194.352 61.0358C196.778 64.5422 200.581 71.487 200.253 71.7845C199.93 72.0322 196.465 69.7649 195.863 68.9076C194.613 67.1386 188.896 61.104 188.561 61.1999C187.841 61.3872 188.191 61.971 190.44 64.3563C191.702 65.6994 192.726 66.8957 192.715 67.0203C192.706 67.12 192.557 67.1067 192.418 66.9688C189.586 64.3559 187.367 62.4757 187.232 62.5893C187.148 62.6823 186.317 61.8549 185.407 60.7943C183.607 58.7252 182.985 58.3685 181.368 58.4762C179.876 58.5949 179.062 58.9999 176.479 60.9312C172.524 63.8961 170.424 65.7697 169.828 66.8222L169.259 67.8519L168.563 67.2123C167.957 66.6812 167.54 66.5688 165.696 66.4051C163.952 66.2502 163.522 66.2874 163.495 66.5865C163.475 66.8108 163.756 67.0368 164.198 67.1514C164.862 67.3108 164.969 67.5213 165.339 69.0112C165.855 71.1171 165.821 72.0687 165.261 70.7377C165.056 70.2171 164.5 69.414 164.041 68.9211C162.845 67.6844 159.651 65.4664 157.724 64.5417C156.808 64.1086 156.044 63.664 156.058 63.5144C156.069 63.3898 156.668 63.1415 157.39 62.9293L158.676 62.5913L160.882 63.4905C162.604 64.171 163.144 64.3194 163.415 64.0923C163.822 63.7516 163.518 63.4985 161.652 62.7299C160.15 62.1192 159.993 61.9043 160.776 61.5718C161.584 61.2416 167.231 61.8435 168.888 62.4177C169.86 62.7804 170.406 62.854 170.596 62.695C170.759 62.5587 170.775 62.3842 170.663 62.2236C170.184 61.6786 167.44 60.9074 165.222 60.7105C163.852 60.5888 162.914 60.405 162.927 60.2555C162.94 60.1059 163.024 60.0129 163.148 60.0239C163.248 60.0328 164.001 59.4716 164.815 58.7902C166.253 57.5864 166.355 57.5703 167.703 57.6648C168.949 57.7755 171.312 58.3119 172.429 58.7377C172.767 58.8933 172.855 58.7504 172.935 57.853C173.015 56.9557 173.191 56.6699 174.082 55.9702C175.162 55.1115 177.689 54.3812 180.861 54.0096C182.333 53.8388 182.358 53.841 182.277 53.0551C182.099 51.3812 181.89 51.1868 179.937 50.8376C178.949 50.6494 177.955 50.5359 177.721 50.6157C176.255 51.0131 179.716 47.954 181.863 46.9639C183.698 46.0968 184.771 45.8906 186.767 46.0427C188.362 46.1843 188.752 46.3194 189.623 46.9745ZM194.996 49.5367C197.235 51.1926 199.735 53.5752 201.386 55.631C202.853 57.4947 202.406 57.1536 199.027 53.9143C197.498 52.4721 195.526 50.6389 194.611 49.9046C192.672 48.2753 192.44 48.0537 192.789 48.0847C192.939 48.098 193.934 48.7642 194.996 49.5367ZM183.027 59.0255C183.75 59.0896 192.172 69.1828 194.196 72.4024L194.655 73.1717L193.268 74.6563C190.079 78.041 185.904 80.9362 182.217 82.2921C178.891 83.5543 179.417 83.8522 176.582 79.0032C175.207 76.6704 173.832 74.3375 173.55 73.8352L173.003 72.9324L175.892 70.6516C177.484 69.4112 178.922 68.2074 179.071 67.9443C179.505 67.3045 179.022 65.9553 177.522 63.6113L176.288 61.6679L177.213 60.8707C179.008 59.3218 181.246 58.4402 182.339 58.8638C182.534 58.9314 182.828 59.0078 183.027 59.0255ZM230.932 67.6751C230.292 68.0956 228.567 68.8469 228.293 68.8226C228.194 68.8137 228.807 68.4159 229.675 67.9655C231.203 67.1716 231.997 66.9909 230.932 67.6751ZM176.854 64.6323C178.258 66.9175 178.464 67.9909 177.578 68.6407C177.309 68.8429 176.182 69.371 175.082 69.8763C172.889 70.8121 171.967 71.5843 171.885 72.5066C171.836 73.0549 173.998 76.9901 176.898 81.6691C177.6 82.8117 178.158 83.8912 178.14 84.0906C178.122 84.29 178.281 84.4799 178.505 84.4999C179.378 84.5773 183.558 83.0391 185.881 81.7632C188.388 80.4031 192.675 77.0908 193.974 75.4727C194.367 75.0051 194.751 74.6373 194.826 74.6439C195.025 74.6616 195.296 77.5496 195.201 78.6214C195.144 79.2695 194.642 79.8279 192.089 81.9879C190.407 83.3961 188.304 85.0182 187.427 85.5683C184.871 87.2004 181.961 88.575 181.238 88.5108C180.391 88.4356 179.648 87.4653 176.88 82.7226C175.705 80.6839 173.523 76.973 172.039 74.4546C169.161 69.5264 169.102 69.3453 169.956 67.3611C170.328 66.5651 171.078 65.7524 172.79 64.2966C174.09 63.2313 175.246 62.3792 175.343 62.413C175.438 62.4717 176.129 63.4625 176.854 64.6323ZM227.698 69.0209C227.488 69.1279 227.202 69.2282 227.053 69.2149C226.928 69.2038 226.989 69.0836 227.2 68.9767C227.41 68.8698 227.72 68.7717 227.845 68.7828C227.994 68.796 227.908 68.914 227.698 69.0209ZM235.652 69.9533C235.612 70.4019 234.947 71.6743 234.747 71.6566C234.648 71.6478 234.514 71.46 234.432 71.2518C234.263 70.6087 233.223 70.7174 231.563 71.6C229.692 72.5895 228.542 73.9444 228.903 74.68C229.056 74.9447 229.156 75.23 229.149 75.3047C229.129 75.5291 226.422 75.1882 226.295 74.9257C225.89 74.111 228.935 71.2159 231.014 70.4208C232.753 69.7963 235.694 69.4797 235.652 69.9533ZM147.904 62.5644C147.9 62.6142 147.584 63.0635 147.191 63.531C146.797 63.9986 146.472 64.5475 146.457 64.722C146.441 64.8965 145.896 65.0993 145.21 65.1891C143.154 65.4336 141.588 66.0985 140.202 67.2818C138 69.1715 136.826 68.5396 138.311 66.2346C139.128 64.9506 140.677 63.631 141.953 63.1163C143.284 62.5561 147.944 62.1157 147.904 62.5644ZM155.198 63.8651C157.584 64.7051 158.199 65.1365 158.602 66.2525C159.053 67.3979 159.43 69.9436 159.21 70.1503C159.131 70.1935 158.748 69.9836 158.376 69.6491C157.561 68.9236 154.787 67.9236 151.513 67.1807L149.172 66.6714L149.313 65.6539C149.388 65.0828 149.738 64.2596 150.108 63.765L150.763 62.8936L152.494 63.198C153.457 63.384 154.663 63.6669 155.198 63.8651ZM256.33 74.1004C258.682 75.892 262.208 78.8931 262.213 79.1197C262.207 79.1944 261.081 79.1447 259.71 79.023C258.116 78.8815 257.135 78.8949 256.995 79.0583C256.88 79.2239 255.471 79.2496 253.247 79.1274L249.699 78.913L249.531 77.6922C249.335 75.9414 249.635 72.8528 250.062 72.5642C250.517 72.2528 251.203 72.163 252.725 72.273C253.948 72.3565 254.236 72.5077 256.33 74.1004ZM160.623 67.5373C160.915 71.0302 160.788 72.7523 160.257 72.5042C160.064 72.4117 160.038 71.8567 160.186 70.7644C160.387 69.3503 160.288 67.9096 159.926 66.6213C159.873 66.3654 159.952 66.3222 160.193 66.444C160.385 66.5365 160.592 67.0322 160.623 67.5373ZM233.549 73.8363C232.69 74.4635 230.88 75.3328 230.531 75.3018C230.132 75.2664 230.91 74.7074 232.36 73.9318C234.231 72.9423 234.863 72.8979 233.549 73.8363ZM163.145 70.2483C163.199 72.1875 162.809 74.3134 162.41 74.278C162.236 74.2626 162.244 73.8865 162.456 73.2018C162.822 71.9029 162.929 69.8523 162.66 68.924C162.507 68.3829 162.545 68.2355 162.763 68.3302C162.955 68.4227 163.111 69.2153 163.145 70.2483ZM169.714 71.7862C170.936 73.3015 177.17 83.703 177.132 84.1267C177.119 84.2763 176.936 84.3605 176.736 84.3428C176.512 84.3229 175.741 84.8071 175.008 85.4203C174.058 86.2153 173.613 86.4269 173.454 86.237C173.045 85.7485 173.097 86.5821 173.522 87.4489C173.761 87.8721 174.27 88.6458 174.703 89.1365C175.341 89.8714 175.398 90.0775 175.084 90.2254C174.873 90.3323 174.563 90.4304 174.414 90.4171C173.965 90.3773 171.472 92.7184 171.1 93.5144C170.915 93.8999 170.656 94.5552 170.519 94.9701C170.311 95.6049 170.257 95.6504 170.039 95.2793C169.289 94.1073 165.155 88.339 165.03 88.3279C164.956 88.3213 164.936 88.5456 164.986 88.8264C165.096 89.5648 164.806 89.4385 164.018 88.4139C162.824 86.8759 162.621 86.3303 162.752 84.8597C162.851 83.738 162.98 83.4229 163.425 83.2112C163.953 82.9314 165.375 80.7716 165.432 80.1235C165.452 79.8992 165.249 79.9313 164.769 80.2405C164.129 80.661 162.109 80.7831 162.142 80.4092C162.149 80.3344 162.861 79.6691 163.731 78.9173L165.307 77.575L165.84 78.9287C166.125 79.6825 166.888 80.9813 167.517 81.816C168.664 83.3246 170.836 85.1755 171.134 84.9256C171.215 84.8575 171.054 84.4161 170.767 83.9636C170.481 83.5111 170.07 82.7711 169.856 82.3502C169.492 81.6396 169.565 81.6711 170.577 82.7157C171.68 83.8687 172.324 84.2525 172.006 83.5962C171.919 83.4378 171.44 82.6164 170.933 81.8177C168.645 78.1728 168.041 76.7627 167.842 74.484C167.564 71.6707 167.693 70.2251 168.191 70.2693C168.39 70.287 169.083 70.9765 169.714 71.7862ZM164.366 71.4873C164.273 71.68 164.205 71.5986 164.23 71.3244C164.229 71.048 164.317 70.9051 164.383 71.0115C164.451 71.0929 164.456 71.3194 164.366 71.4873ZM197.632 74.7172C197.831 75.589 197.777 75.6345 196.665 75.7116C195.906 75.7699 195.786 75.7089 195.563 75.1113C195.281 74.3326 195.273 73.8545 195.559 74.0306C195.652 74.1143 195.955 74.091 196.24 73.9907C197.066 73.7374 197.45 73.9473 197.632 74.7172ZM138.036 69.049C138.025 69.1737 137.784 69.6296 137.517 70.0832C137.253 70.512 136.968 71.4664 136.903 72.1892C136.814 72.9099 136.711 73.5037 136.637 73.497C136.288 73.4661 135.947 72.7826 135.995 72.2342C136.04 71.7357 135.946 71.6521 135.514 71.7142C135.131 71.7807 134.941 71.6633 134.897 71.3077C134.844 71.0518 134.715 70.8142 134.59 70.8031C134.291 70.7766 132.848 72.608 132.27 73.7374L131.783 74.6991L131.874 73.6771C132.019 71.4792 133.189 69.8999 135.11 69.1912C136.407 68.7285 138.071 68.6502 138.036 69.049ZM141.21 69.5067C143.125 70.0033 148.121 72.0045 149.071 72.6164C149.57 72.937 149.544 74.3667 149.028 74.7982C148.54 75.2071 147.078 74.9768 146.253 74.3759C145.171 73.5513 143.63 73.0879 140.73 72.6546L138.129 72.2478L138.118 71.5183C138.09 70.9882 138.926 68.9271 139.15 68.947C139.175 68.9492 140.082 69.2055 141.21 69.5067ZM262.25 80.6805C262.688 80.845 263.257 80.9457 263.539 80.8704C264.488 80.6531 268.121 86.1257 269.629 90.0781C270.421 92.1834 270.451 92.4122 270.263 94.5309C270.119 96.151 269.847 97.2323 269.336 98.4681C268.382 100.72 266.234 104.272 265.191 105.26L264.366 106.066L265.349 103.767C266.016 102.193 266.419 100.772 266.649 99.3098C266.919 97.3994 266.902 97.0211 266.436 95.7737C265.766 93.9809 264.728 92.6577 263.009 91.3746C260.72 89.7143 258.676 88.9801 255.334 88.7085C251.572 88.3744 250.064 88.6677 248.097 90.1762C245.724 92.0005 244.448 94.7762 243.632 100.005C243.176 102.878 243.075 102.894 242.409 99.9211C241.854 97.4098 241.927 93.4721 242.547 91.0149C242.878 89.8384 242.944 89.0906 242.819 88.8032C242.63 88.3845 242.551 88.4277 242.009 89.1583C240.87 90.6651 240.628 91.6987 240.237 96.3869C239.963 99.7541 239.924 101.61 240.132 103.789C240.267 105.383 240.349 106.722 240.295 106.768C240.159 106.881 239.236 106.246 238.353 105.44C236.747 104.016 236.235 100.729 236.671 94.965L236.814 93.0684L236.355 94.2837C236.121 94.9412 235.648 96.5825 235.302 97.9335C234.689 100.316 234.06 101.742 233.587 101.7C232.59 101.612 233.138 96.0079 234.611 91.2901C235.59 88.1865 236.001 87.5196 238.086 85.8205C239.334 84.7757 239.569 84.671 239.814 85.0193C239.971 85.2342 240.667 85.5975 241.399 85.8383C242.499 86.1871 242.974 86.2043 244.555 85.9426C245.598 85.7841 247.086 85.7152 247.881 85.8109C248.926 85.9288 249.383 85.8689 249.505 85.6285C249.719 85.1953 251.339 85.3391 253.018 85.9404C253.726 86.1791 254.367 86.3114 254.428 86.1912C254.511 86.0981 254.032 85.5531 253.327 85.0132C252.646 84.4754 251.859 83.7272 251.566 83.3495L251.046 82.7004L252.188 81.9979C255.506 79.9813 259.317 79.4906 262.25 80.6805ZM86.4133 66.0735C87.1749 68.5277 86.9851 70.9477 85.7567 74.8833C84.924 77.4723 82.4928 80.246 80.8106 80.5237C80.3532 80.5836 80.0697 80.3826 79.4223 79.471C78.4387 78.1024 75.9262 75.5681 75.7092 75.7498C75.6278 75.8179 75.7757 76.1325 76.0459 76.4831C76.6795 77.2679 77.7185 80.2743 77.8072 81.5383C77.9097 82.9291 77.4264 83.5645 76.3549 83.4694C75.2336 83.3698 73.9798 81.6507 72.732 78.4499C72.197 77.1211 71.7373 76.0754 71.683 76.1208C71.6038 76.1641 71.8011 77.3372 72.1323 78.6981C72.8524 81.9023 72.9439 83.4178 72.3957 83.3691C71.5734 83.2961 69.0209 78.9494 68.1247 76.031C67.9901 75.5669 67.7426 75.2434 67.5842 75.3299C67.1385 75.5415 67.2949 78.8715 67.8709 81.4349C68.5406 84.3583 68.5119 84.6823 67.6968 84.8109C66.4221 85.0243 62.5397 83.7752 59.9548 82.3399C58.7576 81.6809 58.5056 81.4073 58.1251 80.3184C57.8587 79.6415 57.5835 79.0644 57.486 79.0306C57.1122 78.9974 57.1212 81.1588 57.479 82.2205C57.8413 83.2325 59.3509 84.899 60.9568 86.0464C61.7825 86.6473 61.7742 87.0234 61.0145 87.6594C60.5261 88.0682 60.2205 88.1164 59.1601 87.8967C56.4932 87.3836 53.1684 85.2293 52.6013 83.6968C52.4418 83.2304 52.2258 82.8344 52.1261 82.8255C51.8022 82.7968 52.0637 84.3776 52.5649 85.8038C53.7584 89.05 57.1369 90.8825 61.6233 90.703C64.3454 90.593 65.2397 90.4211 67.969 89.3822C70.309 88.4846 72.0344 88.2861 71.9791 88.9092C71.9459 89.2831 69.2028 90.1952 65.2459 91.2005C62.9346 91.774 62.2258 91.8367 60.3049 91.6913C58.1619 91.501 57.967 91.4335 56.0122 90.255C53.9351 89.0406 52.4233 87.399 51.5111 85.5093C50.9606 84.355 50.6915 84.5572 51.1628 85.7547C51.3905 86.3025 52.2062 87.5807 52.9738 88.5533C55.2039 91.4394 59.7569 93.9036 64.5944 94.8607L66.1487 95.1746L65.7108 95.8642C64.9545 97.0281 63.5436 98.2092 62.455 98.5898C59.8885 99.4925 57.8524 98.3822 53.977 93.9432L52.3151 92.0119L52.3362 93.4709C52.3602 95.1813 52.8925 97.3891 53.8102 99.7818C55.0148 102.903 55.1002 104.77 54.0854 106.866C53.2555 108.576 51.7572 110.176 49.9272 111.27C47.6719 112.627 46.4631 112.947 44.2205 112.748C41.8759 112.565 40.5159 112.042 38.5174 110.508C37.6712 109.855 36.8843 109.383 36.8007 109.476C36.7193 109.544 37.2056 110.291 37.9072 111.157C41.1225 115.11 44.1374 119.624 43.7847 119.919C43.5405 120.123 40.4654 118.268 37.8976 116.357C36.5547 115.358 35.0479 113.943 34.1192 112.805C33.2813 111.776 32.5232 110.981 32.444 111.024C32.1976 111.253 34.8991 115.337 36.3179 116.895C37.0943 117.767 38.6554 119.137 39.7623 119.964C41.788 121.475 42.9576 123.011 42.7057 123.868C42.4876 124.627 38.0441 120.364 36.458 117.862C36.1263 117.355 35.8062 117 35.752 117.045C35.6706 117.113 35.7653 118.026 35.9238 119.07C36.3459 121.67 36.1549 122.407 35.5529 120.419C34.8206 117.917 31.7568 110.561 31.6444 110.978C31.5431 111.27 32.6498 115.212 33.9287 119.195C34.1497 119.817 34.0594 119.985 33.1757 120.886C32.6242 121.44 31.7649 122.067 31.2671 122.3C29.3097 123.131 28.6501 121.791 28.5174 116.78C28.433 114.335 28.4352 114.311 28.1546 115.491C27.7284 117.463 26.6127 118.997 24.9206 119.952C23.7849 120.58 22.2018 120.59 21.1496 119.994C19.9546 119.311 18.8093 116.37 18.654 113.593C18.6368 112.938 18.4606 112.093 18.3172 111.729C17.9007 110.762 17.2388 108.317 17.3495 108.201C17.4287 108.158 17.7211 108.259 18.034 108.413C19.4488 109.167 22.6755 109.88 26.0395 110.179C31.2452 110.666 31.6278 110.6 32.8797 109.228C33.4378 108.6 33.96 108.093 34.0098 108.098C34.0845 108.104 34.5381 108.371 35.0619 108.694C35.5858 109.017 36.1141 109.29 36.2636 109.303C36.7121 109.343 36.5952 108.679 36.0005 108.023C35.3149 107.259 35.3187 106.933 36.0197 106.392C36.5579 105.988 36.6078 105.992 37.2451 106.451C37.6239 106.71 38.1295 106.956 38.3787 106.978C38.7525 107.012 38.7137 106.883 38.1937 106.233L37.5374 105.421L38.7151 104.32C40.2793 102.826 43.8184 96.91 45.6758 92.6786C46.4941 90.8168 47.8002 88.2698 48.5881 87.0334C50.9788 83.3015 55.9155 77.4844 56.4936 77.7618C56.6365 77.8498 57.3413 76.9829 58.0705 75.8418C60.6417 71.7742 63.5697 69.346 68.098 67.5625C70.7005 66.5374 71.3639 66.4205 71.0278 67.094C70.906 67.3344 70.7233 67.6951 70.6309 67.8878C70.5384 68.0806 71.0135 67.8213 71.71 67.3305C72.8656 66.4784 73.5899 66.2413 75.8746 65.9668C76.255 65.9252 76.6531 65.6842 76.75 65.4416C76.9548 64.8317 80.1161 64.5848 84.1844 64.8707L86.1075 64.9912L86.4133 66.0735ZM87.8308 65.9481C89.9906 68.7777 90.1748 73.4919 88.3456 78.2534C87.2079 81.1671 84.94 84.0809 82.904 85.2316C82.11 85.6887 81.0718 86.3502 80.6128 86.7114C79.5342 87.5451 77.9029 88.3801 77.4295 88.338C76.6819 88.2716 77.1382 87.659 78.1498 87.2966C78.9261 87.0389 79.5502 86.5165 80.5645 85.2751C82.0307 83.4709 82.5506 82.9895 83.8806 82.1529C85.4753 81.164 87.1938 77.6487 87.7689 74.2832C88.2565 71.3369 87.9756 69.1263 86.7039 65.3456C86.5079 64.7253 87.179 65.0863 87.8308 65.9481ZM92.6727 65.7248C94.2542 66.016 94.3721 66.1018 95.4869 67.4066C96.1249 68.1416 96.8725 69.3385 97.1638 70.0175C97.8833 71.8148 97.5048 76.0771 96.2869 79.6117C95.4969 82.0035 94.0364 85.4412 93.2646 86.7795C92.7319 87.6869 92.4146 87.5834 92.7274 86.6062C93.074 85.5316 93.9675 75.1852 93.8754 73.3934C93.8194 72.6096 93.6776 71.9439 93.553 71.9328C93.4035 71.9195 93.3698 72.017 93.4312 72.1732C93.6018 72.5149 92.6962 77.057 92.0031 79.2062C91.7197 80.1357 90.8266 81.9908 90.0321 83.302C88.5649 85.684 86.0235 88.8498 85.5501 88.8078C85.4255 88.7967 85.7294 87.9193 86.2233 86.8829C88.2978 82.4697 90.2071 75.9567 90.5524 72.0683C90.7449 69.8998 90.382 67.481 89.6726 66.1367C89.4998 65.8199 89.3791 65.4826 89.3857 65.4078C89.4012 65.2334 90.6449 65.3689 92.6727 65.7248ZM164.373 73.6735C164.211 74.3626 163.954 74.9929 163.823 75.0566C163.558 75.209 163.878 73.303 164.275 72.5092C164.611 71.8356 164.656 72.4676 164.373 73.6735ZM103.149 67.3835C106.98 67.799 111.464 68.7749 115.002 69.9432C115.881 70.2223 117.037 70.5007 117.56 70.5472C118.108 70.5959 119.135 70.9131 119.858 71.2537C120.99 71.8063 121.359 72.1658 122.439 73.8694C123.121 74.9599 123.743 75.8694 123.818 75.876C123.868 75.8804 123.919 75.3071 123.879 74.6253C123.841 73.9185 123.89 73.3702 123.989 73.379C124.463 73.421 125.734 74.6644 126.506 75.8635C127.438 77.2525 127.762 77.2813 127.408 75.8933C127.296 75.4563 127.231 75.0486 127.284 75.0281C127.449 74.8669 131.461 77.4841 132.223 78.2301C134.048 80.0251 136.373 82.9698 137.21 84.5766C141.308 92.452 143.337 95.8981 146.774 100.75C149.743 104.933 150.544 107.793 149.542 110.593C149.002 112.153 148.622 112.747 148.149 112.705C147.725 112.667 137.888 104.659 135.807 102.641C131.572 98.5716 127.774 93.2602 127.314 90.8076C127.234 90.298 127.293 88.2181 127.47 86.224C127.831 82.1611 127.866 79.5013 127.542 79.4725C127.417 79.4615 127.291 79.7517 127.233 80.1234C127.198 80.5222 127.051 81.0368 126.902 81.2999C126.722 81.6356 126.672 81.3548 126.765 80.3079C126.928 78.187 126.519 78.8291 125.769 81.9027C125.412 83.3784 124.93 84.8429 124.727 85.1515C124.348 85.7459 124.33 85.6689 124.161 83.8953C123.921 80.9348 122.27 75.4874 121.622 75.4298C121.473 75.4166 121.407 75.5866 121.462 75.8176C121.542 76.0508 121.654 76.7642 121.776 77.3779C122.175 79.9507 120.203 88.8698 119.256 88.7858C119.156 88.7769 118.94 88.1045 118.736 87.2825C118.302 85.3849 116.578 80.7601 114.951 77.0232C113.529 73.8068 113.551 73.834 113.389 73.9703C113.334 74.0157 113.624 74.9961 114.075 76.1415C115.744 80.5353 116.218 83.9689 115.681 88.3176C115.367 91.003 115.172 91.7895 114.633 92.7716C113.741 94.3255 113.223 94.7819 112.376 94.7067C111.18 94.6005 110.882 93.9963 109.52 88.9764C109.237 87.9213 108.879 87.1359 108.701 87.1703C108.547 87.2069 108.296 87.7625 108.141 88.3767C107.656 90.444 106.044 91.6323 103.976 91.4486C102.057 91.2783 100.309 89.4651 100.46 87.7701C100.562 86.6235 100.128 81.8872 99.5588 78.1185C99.2945 76.2863 98.977 73.9217 98.8751 72.8073C98.6235 70.5491 98.1239 68.8215 97.3309 67.5704C97.0445 67.1178 96.8103 66.6449 96.8169 66.5701C96.8258 66.4704 97.349 66.5168 98.0152 66.6513C98.6542 66.8086 100.961 67.139 103.149 67.3835ZM209.17 76.8721C207.744 77.6499 205.592 79.544 204.35 81.0917C202.287 83.6721 199.955 88.4392 199.009 92.0231C198.362 94.503 197.987 94.7711 198.34 92.4912C198.617 90.7824 199.453 87.5907 199.969 86.305C200.07 86.0126 200.029 85.9084 199.846 85.9927C199.688 86.0791 199.563 86.068 199.57 85.9933C199.618 85.4449 200.74 82.7057 201.343 81.5784C201.76 80.8367 202.107 80.0385 202.127 79.8142C202.2 78.9916 205.832 77.1284 208.182 76.6839C209.739 76.3951 209.936 76.4377 209.17 76.8721ZM218.61 78.0368C222.498 78.9347 226.008 79.8493 226.165 80.0642C226.233 80.1456 225.679 80.7245 224.918 81.3854C223.007 83.1 221.386 85.5185 219.91 88.8543C219.218 90.4258 218.133 92.7412 217.52 93.9931L216.362 96.277L214.705 96.5569C212.64 96.9012 210.022 96.6938 208.392 96.0969C207.687 95.8333 206.71 95.5205 206.196 95.3743C205.409 95.1789 205.201 94.9845 204.964 94.2601C204.396 92.4511 205.262 88.3577 207.184 83.9561C207.628 82.9153 207.959 82.0152 207.916 81.936C207.528 81.4996 204.393 85.693 202.586 89.0748C201.893 90.3699 201.119 91.7331 200.907 92.1414C200.469 92.831 200.469 92.831 200.727 91.6229C201.429 88.2435 203.353 84.1184 205.327 81.681C206.339 80.4645 208.43 78.6906 209.754 77.9288C210.387 77.5831 210.905 77.1266 210.925 76.9023C210.965 76.4537 212.775 76.7149 218.61 78.0368ZM151.367 75.3324C151.49 76.7753 151.202 77.7546 150.465 78.4178C149.836 78.99 149.205 79.0344 148.819 78.5731C148.637 78.356 148.749 77.9389 149.282 77.0315C149.724 76.292 150.033 75.3647 150.101 74.592C150.208 73.3956 150.208 73.3956 150.725 73.7932C151.076 74.0757 151.304 74.6234 151.367 75.3324ZM153.538 75.1987C154.585 76.4221 154.953 77.0828 155.162 78.1313C155.319 78.899 155.359 79.5809 155.274 79.6989C155.014 80.0778 154.404 79.8729 154.446 79.3993C154.552 78.2029 154.042 76.8764 152.889 75.4425C152.21 74.6034 151.676 73.8274 151.683 73.7527C151.723 73.304 152.31 73.7581 153.538 75.1987ZM231.763 81.7922C234.152 82.6073 236.563 83.4494 237.148 83.6521L238.193 84.0463L236.798 85.3293C234.092 87.8023 232.361 91.4671 230.773 98.0338C230.454 99.3621 230.151 100.516 230.072 100.559C230.017 100.605 229.324 100.493 228.54 100.272C227.731 100.05 226.265 99.8694 225.162 99.8469C222.877 99.8449 222.183 99.4567 221.691 97.9308C221.18 96.3279 221.938 91.7476 223.386 87.6054C224.055 85.7303 224.597 84.1456 224.602 84.0957C224.606 84.0459 224.423 84.1301 224.208 84.2869C223.941 84.4641 223.814 84.478 223.83 84.3035C223.854 84.0293 226.401 81.3664 226.849 81.1298C227.005 81.0683 227.075 80.8484 226.993 80.6402C226.865 80.1012 226.913 80.1306 231.763 81.7922ZM198.416 80.3137C197.945 81.1009 197.178 81.5352 196.86 81.1553C196.792 81.0739 197.185 80.6063 197.755 80.1294C198.299 79.6502 198.781 79.3161 198.827 79.3704C198.872 79.4246 198.685 79.8351 198.416 80.3137ZM153.055 78.0951C152.889 79.9645 152.402 80.9261 151.654 80.8597C150.932 80.7956 150.927 80.8454 151.668 79.5797C151.999 78.9559 152.314 77.9539 152.385 77.1563C152.523 75.8873 152.552 75.8396 152.839 76.2922C153.036 76.6112 153.119 77.3722 153.055 78.0951ZM134.962 75.3833C135.823 75.5853 136.651 75.8849 136.789 76.0228C136.927 76.1607 138.883 77.6155 141.147 79.2736C145.202 82.2464 145.248 82.3007 146.537 84.4751C149.962 90.3062 151.854 95.0213 152.752 99.8993C153.068 101.711 153.321 103.392 153.303 103.591C153.283 103.815 152.689 102.305 152.019 100.236C150.672 96.1724 149.312 92.811 148.044 90.4122C146.966 88.4072 143.288 84.0108 141.414 82.4879C139.821 81.1908 139.25 81.115 140.174 82.3025C143.706 86.937 144.67 88.5299 145.116 90.5793C145.404 91.861 145.531 94.3845 145.307 94.3646C145.207 94.3558 144.9 93.8512 144.605 93.222C143.04 89.9177 134.109 77.9202 132.038 76.3546C131.308 75.8124 130.727 75.2836 130.711 75.1816C130.726 75.0072 131.589 74.9079 132.739 74.9598C133.091 74.9659 134.078 75.1541 134.962 75.3833ZM194.228 81.0975C194.217 81.2221 194.954 81.6895 195.892 82.1497C196.806 82.6076 197.62 83.0567 197.684 83.188C197.75 83.2943 196.996 84.7096 196.001 86.3044C193.468 90.5011 193.196 91.306 192.732 96.8168C192.42 100.331 192.387 101.836 192.602 103.086C192.747 104.003 192.907 105.022 192.976 105.38C193.056 105.89 192.845 105.72 191.921 104.533C189.123 100.968 187.168 97.2523 186.528 94.2812L186.223 92.8976L185.782 94.1899C185.337 95.5321 184.969 100.8 185.232 101.803C185.54 102.861 184.883 101.772 184.032 99.7624L183.18 97.7524L183.794 96.7769C184.32 95.9443 184.37 95.6724 184.21 94.9296C184.1 94.4677 183.847 93.9177 183.661 93.7504C183.387 93.4497 183.321 93.6197 183.215 94.8162C183.071 96.4363 182.73 96.607 182.403 95.1963C182.298 94.6845 181.863 93.641 181.454 92.8761C180.505 91.1087 178.702 89.9186 177.042 89.9471C176.01 89.981 175.964 89.9267 174.985 88.5083L174.01 87.0401L175.548 85.8451C176.412 85.1681 177.212 84.6363 177.337 84.6474C177.437 84.6562 177.911 85.251 178.325 85.9661C179.311 87.5861 180.596 88.9563 181.169 89.0071C181.393 89.0271 182.113 88.8397 182.761 88.6209C183.41 88.3771 184.404 88.2141 184.954 88.2379C186.481 88.298 189.556 86.7622 192.335 84.5972C194.09 83.2206 194.641 82.6666 194.545 82.3315C194.374 81.7134 194.032 81.884 191.127 84.0629C189.835 85.0285 188.288 86.0468 187.664 86.2928L186.566 86.7731L188.043 85.6984C188.848 85.1167 190.499 83.781 191.692 82.7816C193.84 80.9374 194.268 80.6488 194.228 81.0975ZM198.99 84.0325C198.254 86.1025 198.208 86.9024 198.878 86.7106C199.392 86.5804 199.358 86.6779 198.337 88.8482C197.845 89.8597 197.005 91.9707 196.491 93.5078C195.204 97.2623 194.963 96.8641 195.41 91.8291C195.753 88.242 195.843 87.7978 196.553 86.3033C197.286 84.8359 199.443 81.7615 199.627 81.9537C199.647 82.0057 199.364 82.9352 198.99 84.0325ZM159.515 81.7084C160.821 83.1307 161.864 84.9567 162.343 86.6322C162.74 88.0995 163.774 89.4724 164.969 90.1563C165.495 90.4543 166.566 92.8104 166.502 93.5333C166.491 93.6579 165.907 92.8775 165.199 91.8097C164.49 90.7419 163.034 88.7536 161.996 87.4304C159.918 84.8091 157.602 80.6341 158.224 80.6894C158.424 80.7071 159.011 81.1612 159.515 81.7084ZM158.431 82.8934C158.808 83.7308 159.702 85.5436 160.434 86.9149C161.937 89.7867 162.336 90.9526 162.424 92.7943C162.508 94.9623 162.145 95.0809 160.984 93.169C160.412 92.264 159.811 91.1053 159.604 90.6096C159.169 89.5661 157.415 86.6971 155.763 84.3648C154.693 82.8379 154.504 82.1428 155.12 81.9965C155.914 81.8158 157.467 84.4156 158.136 87.0626C158.188 87.3185 158.322 87.5062 158.379 87.4359C158.46 87.3677 158.314 86.4754 158.08 85.4247C157.628 83.4501 157.386 81.3686 157.61 81.3885C157.685 81.3951 158.051 82.0808 158.431 82.8934ZM155.312 85.2041C155.501 85.6228 155.52 85.9762 155.395 85.9651C155.271 85.954 155.077 85.5852 154.963 85.1731C154.876 84.7383 154.83 84.4076 154.88 84.412C154.955 84.4187 155.126 84.7604 155.312 85.2041ZM154.471 85.6318C155.46 86.6492 157.966 91.2429 158.797 93.4772C159.298 94.9034 159.36 95.336 159.113 96.4195C158.974 97.1357 158.652 98.7902 158.38 100.148C157.903 102.693 157.678 103.251 157.513 102.282C157.187 100.293 154.824 95.5111 151.231 89.5898C150.488 88.3431 150.203 87.5893 150.252 87.0409C150.462 84.6729 152.818 83.8772 154.471 85.6318ZM178.97 91.4246C179.327 91.6572 179.746 92.0211 179.901 92.2609C180.146 92.6093 180.046 92.6004 179.029 92.1835C175.778 90.89 172.95 92.1964 171.958 95.4496C171.571 96.6965 171.539 96.7691 171.422 96.1055C171.138 94.4976 172.884 92.0901 174.97 91.2202C176.093 90.7421 178.043 90.8399 178.97 91.4246ZM83.3167 86.5244C83.1356 86.5836 82.964 86.8196 82.944 87.044C82.8356 88.2653 80.8267 89.3933 79.0575 89.2362L78.1106 89.1522L79.2895 88.6037C79.9435 88.31 80.7463 87.7532 81.083 87.356C81.6455 86.6775 83.2363 86.0148 83.511 86.3155C83.5791 86.3969 83.4706 86.4878 83.3167 86.5244ZM177.25 95.2412C177.598 95.8499 177.608 97.1571 177.245 98.1298C177.013 98.7624 176.358 98.7797 175.15 98.2453C174.45 97.9319 174.409 97.8278 174.506 96.731C174.637 95.2604 175.231 94.5092 176.203 94.5955C176.651 94.6353 177.032 94.8701 177.25 95.2412ZM179.426 99.0269C179.134 99.2019 178.747 99.3183 178.547 99.3006C178.348 99.2829 178.488 99.1195 178.909 98.9056C179.303 98.7145 179.628 98.4419 179.666 98.2946C179.678 98.1699 179.75 98.2015 179.809 98.3826C179.869 98.5637 179.69 98.8745 179.426 99.0269ZM179.578 100.422C178.676 101.246 174.818 101.708 174.882 100.985C174.931 100.437 175.838 100.115 177.086 100.201C177.786 100.238 178.696 100.168 179.111 100.029C180.068 99.712 180.234 99.8271 179.578 100.422ZM180.693 102.003C180.791 103.168 180.22 104.222 179.218 104.761L178.535 105.103L178.841 104.477C179.27 103.61 179.15 103.549 178.075 104.057C177.577 104.289 176.654 104.509 176.024 104.528C175.066 104.569 174.796 104.494 174.388 104.006C173.911 103.436 173.819 102.775 174.212 102.307C174.325 102.166 175.213 102.069 176.216 102.083C177.545 102.101 178.311 101.968 179.15 101.565C179.781 101.244 180.354 101.019 180.456 101.002C180.53 101.009 180.64 101.471 180.693 102.003ZM166.574 100.926C167.038 101.645 167.092 103.584 166.643 103.544C166.294 103.513 164.125 100.507 164.297 100.271C164.38 100.178 164.813 100.116 165.286 100.158C165.884 100.211 166.242 100.419 166.574 100.926ZM170.695 103.452C170.567 104.32 170.345 105.129 170.207 105.268C170.069 105.406 169.836 106.616 169.689 107.985C169.413 110.247 169.434 110.575 169.961 112.004C170.487 113.432 170.494 113.634 170.118 114.756C169.402 116.878 169.674 120.042 170.676 121.488C170.832 121.703 171.01 122.246 171.047 122.677C171.157 123.415 171.047 123.531 169.886 124.156C169.198 124.547 168.366 124.875 168.06 124.924C167.727 124.995 167.465 125.122 167.454 125.247C167.403 125.82 169.773 125.427 170.664 124.728C171.15 124.344 171.329 124.31 171.38 124.59C172.039 127.061 172.973 130.686 173.069 131.021C173.187 131.383 172.907 131.434 171.224 131.435C170.146 131.415 168.9 131.304 168.483 131.192C167.798 130.98 167.708 130.871 167.774 130.124C167.825 129.55 167.606 128.903 167.079 128.052C166.063 126.48 165.655 125.137 165.903 124.33C166.15 123.523 165.863 119.679 165.451 118.386C165.171 117.583 165.176 116.955 165.449 115.572C165.649 114.46 165.712 113.184 165.599 112.194C165.449 110.774 165.475 110.475 165.909 109.835C166.173 109.406 166.422 108.574 166.476 107.976C166.544 107.203 166.734 106.768 167.084 106.498C167.595 106.116 167.62 106.118 167.71 107.081C167.84 108.449 167.146 116.552 166.752 117.874C166.303 119.542 166.917 118.843 167.588 116.943C168.327 114.848 168.603 111.732 168.322 108.391C168.122 105.836 168.142 105.612 168.589 104.823C168.855 104.369 169.202 103.571 169.326 103.029C169.555 102.145 169.799 101.94 170.655 101.916C170.807 101.904 170.826 102.534 170.695 103.452ZM164.883 104.695C165.04 104.909 164.913 104.923 164.501 104.761C164.158 104.655 163.741 104.543 163.592 104.53C163.418 104.514 163.279 104.376 163.292 104.227C163.321 103.903 164.545 104.263 164.883 104.695ZM179.695 107.592C179.755 109.18 179.434 110.534 178.774 111.455C178.399 111.999 178.221 112.034 177.457 111.865C175.907 111.502 175.14 110.806 175.156 109.777C175.15 108.998 175.328 108.687 176.176 107.908C177.134 107.013 178.661 106.219 179.366 106.207C179.542 106.197 179.668 106.761 179.695 107.592ZM164.898 106.228C165.998 107.13 166.172 107.999 165.543 109.426C164.61 111.453 164.26 122.752 165.051 124.581C165.199 124.896 165.298 125.482 165.26 125.906C165.25 126.307 165.583 127.643 165.98 128.834C166.723 130.935 166.749 131.49 166.165 132.694C165.765 133.513 166.498 133.176 167.056 132.271C167.374 131.796 167.621 131.567 167.628 131.769C167.608 131.993 167.283 132.542 166.89 133.01C166.298 133.736 166.061 133.865 165.496 133.715C165.127 133.632 164.341 133.436 163.749 133.309C162.272 132.976 160.924 132.028 160.63 131.097C160.3 130.013 160.996 128.391 162.607 126.65L163.943 125.186L163.265 124.623C162.355 123.839 161.374 121.868 160.899 119.866C160.488 117.996 160.517 113.426 160.991 111.484L161.296 110.305L162.381 110.527C162.975 110.63 163.476 110.649 163.487 110.525C163.513 110.225 162.679 109.724 162.081 109.671C161.458 109.616 161.459 109.315 162.063 107.886C163.154 105.219 163.446 105.044 164.898 106.228ZM129.72 103.03C130.157 103.194 130.631 103.512 130.788 103.727C130.918 103.965 132.011 104.665 133.185 105.297C135.271 106.412 137.635 108.078 138.624 109.096C142.231 112.883 142.461 113.406 142.278 116.882C142.126 120.008 141.633 121.321 139.769 123.643C136.947 127.135 133.391 128.151 130.312 126.345C129.668 125.962 127.819 124.441 126.242 122.969C124.667 121.473 122.427 119.541 121.275 118.659C120.098 117.776 118.668 116.619 118.083 116.14C115.161 113.695 113.563 113.026 109.872 112.723L107.079 112.5L107.572 111.765C108.439 110.486 111.812 107.846 113.889 106.799C117.358 105.072 122.571 103.777 126.727 103.643C127.61 103.596 127.972 103.477 128.105 103.112C128.328 102.579 128.555 102.574 129.72 103.03ZM204.516 112.308C204.51 112.383 204.101 112.749 203.642 113.11C202.782 113.737 199.586 114.659 199.031 114.409C198.861 114.344 199.564 113.778 200.575 113.139C202.115 112.196 202.582 112.036 203.481 112.091C204.054 112.142 204.523 112.234 204.516 112.308ZM179.469 114.38C179.484 115.06 179.777 116.568 180.126 117.73C180.475 118.891 180.72 120.094 180.695 120.368C180.671 120.642 180.863 121.589 181.139 122.442C181.711 124.201 181.906 126.253 181.482 126.216C181.083 126.18 179.893 124.316 179.342 122.886C178.594 120.835 177.781 116.416 177.905 115.02C178.018 113.749 178.63 112.799 179.187 113.024C179.333 113.087 179.454 113.701 179.469 114.38ZM196.389 118.42C194.406 120.103 192.012 121.9 191.059 122.444C190.109 122.962 188.806 123.776 188.139 124.219C187.472 124.662 188.24 123.927 189.82 122.535C191.423 121.17 193.232 119.471 193.896 118.776C194.536 118.08 195.664 116.974 196.373 116.333C197.599 115.262 197.782 115.177 198.854 115.272L200 115.374L196.389 118.42ZM35.6156 108.115C36.2242 108.897 36.0703 108.934 35.0702 108.318C34.6914 108.058 34.4417 107.759 34.5275 107.641C34.8099 107.29 35.0524 107.386 35.6156 108.115ZM113.441 114.673C115.397 115.274 116.293 115.931 117.94 118.037C119.407 119.9 121.05 122.609 120.833 122.791C120.779 122.836 120.375 122.574 119.957 122.185C117.586 120.04 111.88 117.549 107.507 116.734C105.135 116.297 105.149 116.7 107.493 117.461C113.057 119.286 117.808 123.2 118.796 126.78C119.024 127.604 119.186 128.322 119.132 128.367C119.103 128.415 118.592 127.666 117.999 126.709C116.137 123.63 112.255 120.396 109.704 119.717C108.623 119.445 105.167 119.616 105.138 119.94C105.129 120.04 105.773 120.147 106.577 120.143C108.359 120.151 110.42 120.987 112.559 122.634C118.582 127.213 118.303 134.599 111.865 141.765C108.774 145.184 104.356 147.982 101.729 148.151C100.515 148.244 98.1171 147.252 96.4702 146.001C93.0606 143.387 91.2057 137.972 92.3184 133.925C93.3166 130.321 96.7615 124.899 99.5942 122.412C101.798 120.498 100.465 120.806 97.4662 122.902C95.7791 124.083 93.1214 126.862 92.0672 128.552C91.1847 130.006 90.0735 132.621 90.2529 132.863C90.3233 132.919 90.7142 132.477 91.1477 131.837C92.1842 130.346 94.4432 127.532 94.5927 127.545C94.6675 127.552 94.5185 127.815 94.2633 128.144C92.5374 130.327 89.9684 134.37 88.6308 136.989C87.8391 138.552 87.7649 138.822 87.4313 142.862C87.0241 147.448 87.1072 148.209 88.4885 151.322C89.3441 153.282 92.0366 156.334 93.8031 157.371C98.6308 160.136 103.891 159.447 109.411 155.264C111 154.049 112.575 153.284 112.825 153.583C112.893 153.664 112.728 154.102 112.485 154.583C111.878 155.76 109.562 157.237 106.624 158.358C103.608 159.522 101.946 159.852 99.339 159.796C95.7037 159.725 93.0197 158.557 90.3438 155.883C88.5213 154.063 87.1601 151.857 85.976 148.787C84.8555 145.849 84.577 145.874 84.5833 148.915C84.5542 151.223 85.2122 153.995 86.2473 156.197C87.371 158.533 90.182 161.948 92.5688 163.918C94.8149 165.776 94.76 165.545 93.7895 168.272L93.4562 169.197L92.0514 168.897C89.0446 168.253 83.9317 165.588 80.3566 162.859C79.6533 162.294 79.032 161.938 78.9462 162.056C78.6909 162.385 79.9155 165.282 80.9765 166.909C82.4148 169.096 84.6781 171.609 87.0831 173.656L89.116 175.369L88.5524 176.625C87.1411 179.791 86.4102 180.103 85.4682 177.984C84.8445 176.522 84.5588 176.346 84.4725 177.318C84.3043 179.213 81.9688 181.191 80.1248 181.027C78.3556 180.87 75.6909 178.071 73.4197 173.95C72.4034 172.101 72.2877 171.991 72.0214 172.444C71.8409 172.78 71.7302 174.026 71.716 175.884L71.7107 178.773L72.7496 180.649C73.3134 181.653 74.3196 183.049 74.962 183.734L76.1355 184.944L75.2766 184.717C73.7084 184.276 72.4021 183.431 71.979 182.54C71.5741 181.725 70.8955 177.771 70.7203 175.218C70.5756 173.17 70.3127 174.152 70.0798 177.623C69.9311 180.147 69.77 181.113 69.5706 181.095C69.4211 181.082 69.2744 181.32 69.2728 181.621C69.2662 182.826 69.2097 182.897 68.1765 182.654C67.5103 182.52 66.8934 182.113 66.2964 181.483C64.5531 179.619 63.64 179.438 65.2609 181.265C66.1758 182.276 68.3915 185.889 68.3561 186.288C68.3451 186.413 67.7941 186.112 67.1318 185.652C63.7317 183.214 63.0567 183.18 65.7319 185.578C68.3801 187.998 70.5731 190.454 70.9895 191.421C71.1718 191.914 71.2631 192.299 71.1635 192.29C70.7648 192.255 64.4629 187.424 63.3327 186.294C62.7108 185.661 62.1005 185.18 62.0169 185.273C61.9355 185.341 62.2562 185.972 62.7695 186.696C63.2851 187.395 64.0898 188.798 64.6037 189.798C65.2224 191.034 65.8719 191.921 66.6661 192.594C67.7913 193.498 69.2567 195.663 69.224 196.313C69.1494 197.437 66.7405 195.716 61.5212 190.856C61.2194 190.578 60.9563 190.429 60.9453 190.554C60.9209 190.828 63.5515 195.709 64.3124 196.757C64.91 197.664 64.925 198.343 64.3182 199.521C63.1406 201.752 60.0359 203.059 57.5362 202.36C55.3063 201.735 53.4617 200.164 51.6779 197.343C50.5326 195.533 49.8498 193.89 49.9228 193.067C49.9648 192.594 50.0756 192.478 50.3635 192.629C51.0142 192.938 55.4155 188.907 57.8052 185.753C60.134 182.719 60.4363 182.143 59.8266 181.938C59.4822 181.857 59.5497 181.662 60.2817 180.773C61.4677 179.295 64.5507 176.253 64.6011 176.534C64.6149 176.661 64.698 177.422 64.8039 178.21C64.9978 179.986 65.3854 180.146 65.5293 178.525C65.5868 177.877 65.9173 176.701 66.2395 175.9L66.8458 174.447L66.894 175.883C66.9229 176.69 67.0398 177.353 67.1395 177.362C67.2391 177.371 67.4639 176.537 67.6294 175.521C67.8198 174.508 68.2538 173.014 68.6009 172.216C68.9481 171.418 69.2066 170.486 69.1357 170.153C69.0299 169.365 70.8232 165.856 74.1457 160.398L76.676 156.227L76.6002 157.928C76.5179 159.705 76.9581 160.121 77.1086 158.426C77.3233 156.008 79.0124 151.41 80.9192 148.037C81.5758 146.864 81.8349 146.209 81.7098 145.921C81.5597 145.632 82.182 144.28 83.7499 141.329C84.984 139.027 86.3444 136.435 86.7729 135.568C88.1914 132.604 90.4653 129.339 93.2515 126.245C94.7835 124.547 96.5138 122.315 97.13 121.314C98.4073 119.091 100.066 117.103 102.078 115.372C103.412 114.21 103.62 114.128 104.433 114.3C105.247 114.473 105.338 114.582 105.375 115.288L105.381 116.068L105.679 115.265C105.818 114.825 106.055 114.419 106.214 114.333C107.211 113.843 111.338 114.034 113.441 114.673ZM16.9465 109.346C17.1044 110.114 17.1919 110.825 17.1355 110.896C17.0768 110.991 16.1459 111.009 15.0678 110.988C12.3135 110.894 9.87162 111.808 7.56103 113.789L5.84954 115.245L5.25699 114.564C4.93691 114.209 4.46452 113.589 4.24854 113.193L3.83263 112.503L4.90124 111.216C7.24388 108.309 10.4034 107.233 15.0521 107.771L16.6446 107.938L16.9465 109.346ZM183.756 128.603C181.893 130.925 180.884 131.539 178.529 131.757C177.743 131.838 176.545 131.757 175.879 131.622C174.623 131.335 174.398 131.038 173.865 129.132L173.677 128.412L174.431 129.258C175.412 130.375 177.708 131.106 179.118 130.779C180.476 130.473 181.636 129.571 182.41 128.208C183.121 126.989 183.872 126.453 184.846 126.515C185.344 126.559 185.252 126.752 183.756 128.603ZM16.0481 112.959C16.0697 113.564 16.1218 113.544 13.6355 113.826C12.9494 113.915 11.2744 114.395 9.94827 114.905C7.73727 115.764 6.79758 115.881 6.85291 115.258C6.87725 114.984 9.02842 113.668 10.3047 113.153C11.8684 112.513 13.9876 112.123 15.0297 112.266C15.8476 112.389 16.0381 112.506 16.0481 112.959ZM4.0433 115.788C4.01674 116.087 3.69944 115.983 3.25919 115.567C3.0255 115.371 2.86377 114.929 2.89254 114.605C2.94566 114.007 2.94566 114.007 3.50222 114.81C3.79075 115.238 4.02723 115.686 4.0433 115.788ZM57.7387 184.24C55.442 187.478 51.3485 191.435 50.4016 191.351C49.978 191.314 50.2333 190.985 51.9016 189.449C53.0206 188.443 54.8877 186.65 56.072 185.474C57.2292 184.32 58.2192 183.353 58.2691 183.357C58.3189 183.362 58.0819 183.768 57.7387 184.24ZM49.5652 195.397C50.2869 197.169 52.1322 200.147 53.5194 201.777C54.0892 202.431 54.555 203.125 54.5373 203.325C54.4886 203.873 51.8586 206.906 50.4228 208.084C48.8536 209.352 47.2407 210.264 46.6177 210.209C45.9698 210.151 44.3012 207.164 43.8237 205.187C43.1591 202.49 43.8034 199.759 45.6621 197.211C46.2086 196.43 46.6443 195.766 46.574 195.709C46.4173 195.494 44.7363 197.455 44.0209 198.723C41.9358 202.407 42.2596 206.681 44.9244 210.611C45.9467 212.109 46.1406 212.754 45.6677 212.988C45.2989 213.182 43.4659 210.632 42.9214 209.127C42.3975 207.673 41.8878 204.362 42.0007 203.091C42.2823 200.202 44.4504 196.149 47.1763 193.451L48.9099 191.746L48.9371 192.854C48.9588 193.459 49.2329 194.614 49.5652 195.397ZM56.882 205.769C57.361 206.314 57.7381 206.875 57.7293 206.975C57.7204 207.074 56.819 208.175 55.7571 209.387C54.1143 211.201 53.6259 211.61 52.8064 211.788C51.6042 212.033 50.6252 211.745 50.3339 211.066C50.17 210.65 50.4274 210.296 51.779 208.933C52.6876 208.034 53.9351 206.713 54.5746 206.016C55.2141 205.319 55.7927 204.743 55.8675 204.749C55.9671 204.758 56.403 205.224 56.882 205.769ZM60.3636 209.269L61.0104 209.904L60.2646 210.667C58.6123 212.304 56.3017 213.154 55.8763 212.287C55.749 212.024 59.2206 208.564 59.5446 208.593C59.642 208.627 60.0186 208.911 60.3636 209.269Z" fill="#A2D9C6"/>
</svg>
