<svg width="273" height="214" viewBox="0 0 273 214" fill="none" xmlns="http://www.w3.org/2000/svg">
<path d="M178.06 0.778867C175.7 1.3311 174.543 1.91638 172.46 3.59889C169.348 6.12377 167.585 9.2845 166.548 14.1805C165.977 16.931 165.503 18.8793 164.645 21.7517C163.569 25.3911 163.421 26.4838 163.57 29.6176C163.651 31.2466 163.61 32.8401 163.505 33.1748C163.4 33.5095 163.048 35.4931 162.74 37.5544C162.293 40.6107 162.246 41.4175 162.483 41.8563C162.634 42.1399 162.912 44.1058 163.074 46.2334C163.264 48.3389 163.542 50.8699 163.731 51.845C164.28 54.7195 164.166 55.1517 162.536 56.2601C161.761 56.7811 160.785 57.3087 160.396 57.4462C160.009 57.5593 159.607 57.843 159.515 58.0314C159.398 58.2176 159.134 58.3661 158.885 58.344C158.66 58.3241 158.17 58.4771 157.822 58.7165C157.476 58.9316 156.615 59.2974 155.943 59.508C154.779 59.8961 154.478 59.8939 152.429 59.4908C147.491 58.5364 143.519 58.5769 140.84 59.6168C139.151 60.2531 137.136 62.0154 136.133 63.6955C135.483 64.7927 135.158 65.0587 134.305 65.327C133.713 65.4956 132.789 66.0033 132.224 66.42C131.147 67.2336 129.788 69.2506 129.703 70.2014C129.656 70.7378 129.579 70.7555 128.496 70.5119C127.831 70.3546 126.915 69.9293 126.447 69.5437C125.815 69.0207 125.037 68.7305 123.53 68.4493C122.42 68.2278 120.88 67.7471 120.154 67.437C119.43 67.1024 117.939 66.6505 116.855 66.4069C115.77 66.1876 113.238 65.5697 111.2 65.0447C108.55 64.3426 106.104 63.8798 102.427 63.4304C98.4285 62.928 97.1685 62.6932 96.5737 62.321C95.7177 61.7781 94.4285 61.5899 94.1468 61.9335C93.8901 62.2793 90.1057 61.6239 89.0255 61.0611C88.2108 60.6202 88.0342 60.629 87.005 60.9063C86.3376 61.0681 85.1762 61.137 84.0549 61.0375C83.0333 60.9468 81.2283 60.9094 80.0464 60.9273C78.8622 60.9696 77.1006 61.0098 76.1429 61.0476C74.5059 61.0988 72.6284 61.5956 71.6393 62.2695C71.427 62.3981 70.3664 62.7462 69.3123 63.0212C65.9192 63.8994 61.9292 66.1252 59.4322 68.5081C58.636 69.2728 57.8885 69.7716 57.4335 69.805C56.5462 69.8982 55.9265 70.654 55.2951 72.3917C55.0286 73.1298 54.4664 74.0873 54.0515 74.5174C51.8167 76.7762 48.27 81.0808 46.8456 83.2641C45.9475 84.6095 44.5004 87.3314 43.6252 89.2686C42.7229 91.2279 41.0937 94.3022 39.9802 96.0954L37.9556 99.3803L34.2409 102.466L30.5013 105.549L26.1406 105.162C20.8579 104.693 18.2079 103.991 17.8481 102.952C17.5848 102.24 17.2652 102.163 16.3248 102.571C15.9587 102.735 14.9966 102.821 14.1743 102.748C10.5341 102.45 6.80187 103.47 4.7555 105.303C1.42541 108.3 1.02894 108.805 0.721411 110.572C0.437696 112.07 0.468051 112.294 0.986 113.249C1.72066 114.592 5.03404 118.572 6.95506 120.414C14.2003 127.347 26.0012 133.039 36.9393 134.87C38.0292 135.041 39.1646 135.264 39.4572 135.364C39.8743 135.475 40.4593 135.109 42.1677 133.688C43.3387 132.662 44.8662 131.299 45.5021 130.642C46.3005 129.853 46.8606 129.485 47.2592 129.521C47.5583 129.547 48.2094 129.286 48.6925 128.935C49.4714 128.366 49.5906 128.155 49.6587 127.105C49.7106 125.954 49.7691 125.861 50.6282 125.52C51.1233 125.318 51.8979 124.797 52.3627 124.371C53.0213 123.742 53.1762 123.412 53.1642 122.698C53.136 121.885 53.3071 121.654 55.5767 119.57C60.7137 114.891 66.2504 108.822 68.016 105.907C68.3378 105.395 68.8902 104.83 69.2543 104.69C69.6183 104.55 69.9996 104.216 70.0982 103.954C70.1967 103.693 71.3786 102.544 72.7122 101.385C74.0457 100.226 75.5342 98.7361 76.0455 98.0689C76.8698 96.9872 77.1114 96.8121 77.9424 96.7876C78.4721 96.7609 79.3269 96.4682 79.8578 96.1468C81.0007 95.4374 82.2737 95.5258 83.8035 96.3988C84.8772 97.0347 85.862 96.9747 87.7362 96.232L88.6972 95.875L91.5228 97.4282C94.7775 99.2406 98.0354 100.734 100.233 101.445C101.357 101.791 102.168 102.28 103.284 103.288C104.145 104.053 105.179 104.857 105.583 105.114C106.012 105.374 106.366 105.626 106.414 105.655C106.643 105.897 104.666 108.08 103.796 108.543C102.452 109.259 98.6745 112.487 97.4916 113.93C96.9846 114.548 95.922 116.051 95.1344 117.284C94.3469 118.516 93.0697 120.172 92.2941 120.987C88.8601 124.59 86.4552 127.914 84.708 131.47C83.0193 134.932 79.9885 140.216 79.3905 140.728C78.5466 141.464 77.3053 144.13 76.0976 147.832C75.2095 150.48 74.7491 151.422 72.1688 155.592C70.5808 158.203 68.8314 161.217 68.2855 162.275C67.7644 163.334 67.0419 164.4 66.692 164.664C66.2338 165.016 65.9261 165.653 65.5958 166.827C65.194 168.241 65.0434 168.523 64.4194 168.762C64.0012 168.946 63.5593 169.399 63.3415 169.871C63.1509 170.321 62.6374 171.012 62.1727 171.438C61.162 172.355 58.8286 174.876 57.1202 176.862C55.3263 178.963 52.448 181.681 48.5936 184.926C46.7747 186.46 44.8095 188.227 44.2506 188.865C42.071 191.35 40.235 195.34 39.9839 198.168C39.8302 199.899 40.3159 202.915 41.069 204.899C42.3141 208.13 44.9037 210.645 48.6534 212.256C50.0825 212.849 50.8463 213.015 53.4649 213.223C56.2308 213.469 56.7855 213.444 58.4842 212.981C61.8817 212.054 64.0613 210.699 68.063 206.927C72.2793 203.001 80.0692 194.748 85.3567 188.657C86.2515 187.631 86.9015 187.099 87.3858 187.019C88.1734 186.917 89.2708 186.154 89.3119 185.691C89.3271 185.52 90.5859 184.354 92.0798 183.086C96.2007 179.668 99.1331 176.341 100.46 173.559C100.893 172.64 101.313 172.161 101.837 171.912C102.725 171.524 103.739 170.288 103.808 169.507C103.834 169.215 104.484 168.118 105.282 167.058C106.908 164.868 108.616 161.752 109.208 159.888C109.584 158.766 109.807 158.516 111.246 157.587C114.471 155.49 117.414 152.606 118.646 150.332C118.889 149.862 119.684 148.827 120.407 148.031C121.771 146.53 123.07 144.631 123.7 143.188C123.981 142.574 124.471 142.15 125.707 141.523C126.602 141.062 127.644 140.638 128.026 140.574C128.411 140.485 128.967 140.166 129.273 139.825C129.907 139.193 135.292 137.091 136.115 137.164C137.46 137.284 141.998 134.541 143.679 132.577C144.41 131.708 146.425 131.642 147.685 132.442C148.443 132.951 148.568 132.962 149.722 132.696C150.518 132.497 151.498 132.485 152.665 132.638C153.88 132.82 154.785 132.802 155.683 132.587C156.943 132.256 156.993 132.261 158.661 132.998C160.959 133.989 163.646 134.276 165.158 133.649C166.252 133.206 168.015 131.74 168.604 130.761C168.871 130.293 169.075 130.262 170.645 130.401C171.617 130.487 172.752 130.711 173.163 130.895C173.766 131.17 174.09 131.199 174.816 130.944C175.307 130.791 176.525 130.653 177.528 130.668C179.559 130.701 181.801 130.065 183.092 129.098C183.523 128.768 184.411 127.815 185.092 126.941C185.77 126.093 186.508 125.421 186.707 125.439C187.853 125.54 189.185 124.405 189.286 123.26C189.321 122.869 190.502 122.016 192.504 120.965C192.849 120.75 194.924 119.165 197.088 117.416C199.253 115.667 201.486 113.998 202.062 113.73C202.64 113.437 203.729 112.772 204.456 112.222L205.799 111.236L209.577 111.399C211.652 111.51 215.291 111.538 217.657 111.478C222.036 111.375 223.479 111.528 226.781 112.533C228.86 113.16 235.724 113.917 238.842 113.875C257.023 113.621 267.778 107.327 271.82 94.614C272.372 92.9184 272.4 92.6015 272.178 90.8617C271.469 84.7049 265.865 77.1061 257.634 71.0923C256.076 69.9711 254.942 68.8875 254.088 67.7551C253.009 66.3324 251.083 64.5397 250.235 64.1941C250.115 64.1342 250.533 62.8199 251.174 61.2551C254.701 52.6486 254.716 44.2709 251.193 35.5791C248.492 28.9505 244.806 24.6425 238.72 21.0553C234.664 18.6557 229.566 16.9499 225.38 16.5782C220.421 16.1379 216.172 17.0384 211.101 19.5614C208.656 20.794 207.747 21.1311 207.309 20.9693C206.504 20.7013 203.76 17.9513 203.25 16.8986C203.017 16.4111 202.465 15.846 202.009 15.6089C201.53 15.3452 199.881 13.5525 197.955 11.1946C194.469 6.90441 192.986 5.49505 190.271 3.82881C187.488 2.0828 185.057 1.17893 182.077 0.791528C179.991 0.532548 179.189 0.510509 178.06 0.778867ZM185.708 3.7431C189.879 5.41576 191.89 7.09319 196.535 12.764C199.821 16.7662 200.685 18.0714 199.483 17.1784C199.152 16.9524 198.672 16.9835 197.356 17.3827C195.345 17.9659 193.644 17.8886 193.102 17.2016C192.877 16.9113 192.622 15.5372 192.466 13.9016C192.111 10.2581 191.86 9.69515 191.616 12.1553C191.435 14.2032 191.233 14.775 190.76 14.733C190.585 14.7175 189.587 13.7935 188.532 12.6678C185.111 9.04683 183.121 7.42037 181.975 7.3186C181.501 7.27656 181.652 7.56022 182.876 9.04497C184.44 10.953 185.409 12.4887 186.129 14.2727C186.667 15.5736 186.575 15.762 185.637 15.2857C183.282 14.0937 178.526 13.3519 176.123 13.8266C173.976 14.2503 171.284 15.4364 169.532 16.7798L167.918 17.9879L168.291 15.7605C169.102 10.8689 170.767 7.67496 173.748 5.21218C175.698 3.61612 177.12 2.8823 178.826 2.61607C180.302 2.40307 183.794 2.95883 185.708 3.7431ZM231.263 19.9017C240.381 22.9965 246.164 28.3015 249.354 36.4969C252.219 43.828 252.516 50.6609 250.346 57.5695C247.972 65.0743 242.662 72.2693 237.185 75.3951C236.205 75.9715 236.272 75.7809 237.418 74.7524C237.939 74.258 239.29 72.9037 240.424 71.7266C249.017 62.6362 252.51 52.4295 250.412 42.6847C249.927 40.5039 249.766 40.3421 249.602 41.9002C249.43 43.5559 248.315 45.3734 246.226 47.3994C243.835 49.7181 243.833 49.7425 244.342 45.7087C245.117 39.2414 243.955 33.6586 240.566 27.7062C238.955 24.9094 237.662 23.0745 237.213 23.0347C236.64 22.9838 236.761 23.314 238.247 25.5345C241.152 29.8714 242.618 33.4417 243.13 37.2957C243.536 40.3542 243.383 44.3458 242.76 47.1163C242.175 49.7427 241.572 51.1635 242.06 48.7742C242.638 45.9505 242.925 41.0125 242.638 38.8738C241.981 33.8274 239.924 29.271 236.703 25.6678C231.607 19.9815 225.352 18.0255 217.839 19.7664C214.889 20.4628 213.191 21.1967 210.311 23.0788C204.527 26.8408 199.413 32.112 196.939 36.7822C196.36 37.9347 196.174 38.6063 196.01 40.4592L195.809 42.7265L196.75 43.7193C197.28 44.2577 198.117 45.02 198.639 45.3613C200.719 46.8237 203.881 50.8148 207.466 56.539C210.172 60.8581 212.293 63.5528 214.029 64.9355C217.828 67.9757 220.162 68.5516 225.352 67.8083C225.809 67.7506 225.755 67.795 225.158 68.0123C221.814 69.1896 216.468 68.2973 213.699 66.1102C212.265 65.0001 211.707 64.2134 207.455 57.226C205.287 53.6426 200.486 48.0316 197.855 45.9797C195.741 44.3422 195.137 43.5023 194.77 41.7005C194.555 40.7231 194.626 40.4838 195.69 38.121C197.059 35.1465 198.942 32.0456 200.801 29.778C204.41 25.3315 212.573 20.2327 218.005 19.0195C222.256 18.0947 226.802 18.3754 231.263 19.9017ZM203.328 20.2718C204.34 21.32 205.186 22.2551 205.227 22.3571C205.243 22.4568 204.475 22.9046 203.506 23.3591C202.563 23.7915 200.995 24.758 200.054 25.4607C198.248 26.8484 197.945 26.8706 199.098 25.4742L199.826 24.6296L199.172 23.5149C198.296 22.0612 198.173 21.1902 198.79 20.4587C199.045 20.1373 199.229 19.7605 199.19 19.6342C199.116 19.3328 196.31 20.9511 195.3 21.8688C194.921 22.1792 194.521 22.4385 194.396 22.4275C193.325 22.3324 200.163 18.2954 201.236 18.3661C201.386 18.3794 202.313 19.248 203.328 20.2718ZM185.853 18.2289C188.746 19.5915 190.153 23.5496 190.114 30.2052C190.107 31.1383 189.992 31.8652 189.892 31.8564C189.768 31.8453 189.094 31.5152 188.399 31.1341C185.451 29.5455 181.152 28.7461 178.197 29.2208C177.355 29.3672 175.265 29.9926 173.499 30.6467C171.734 31.3007 170.18 31.8262 170.055 31.8152C169.283 31.7466 168.977 26.1416 169.643 24.579C171.061 21.3385 175.529 17.9756 179.334 17.257C180.945 16.9331 184.143 17.4136 185.853 18.2289ZM227.402 22.0899C231.159 23.3326 234.373 25.6083 234.252 26.9735C234.223 27.2905 233.781 27.1775 231.182 26.185C230.259 25.8328 228.366 25.3698 227.005 25.1506C224.723 24.8252 224.37 24.843 222.598 25.2755C221.519 25.5482 220.451 25.6991 220.136 25.5728C219.574 25.4 218.423 23.6516 218.21 22.6498C217.906 21.2713 220.265 20.7191 224.081 21.3036C225.047 21.463 226.522 21.8152 227.402 22.0899ZM167.636 20.5921C167.323 21.5718 166.448 26.9 166.256 29.0698C166.15 30.2644 165.966 31.2063 165.841 31.1953C165.517 31.1665 165.564 27.2392 165.931 25.0849C166.265 23.0259 167.26 20.0182 167.609 20.0491C167.709 20.058 167.737 20.3062 167.636 20.5921ZM214.189 24.9465C215.216 26.3892 214.808 27.3113 212.01 29.692C208.909 32.3654 206.804 34.8569 204.4 38.7469C203.171 40.7019 202.01 42.4662 201.793 42.6436C200.791 43.4637 199.519 42.5154 199.438 40.8864C199.363 39.1843 202.912 32.5946 205.663 29.3251C207.207 27.4964 209.738 25.2886 211.081 24.5969C212.631 23.8253 213.451 23.9227 214.189 24.9465ZM194.192 22.7533C194.187 22.8021 193.971 22.9794 193.731 23.1302C193.304 23.4117 193.282 23.3851 193.64 23.0238C193.999 22.6625 194.209 22.5583 194.192 22.7533ZM204.809 25.3669C202.809 26.9585 202.196 27.0761 202.508 25.8261C202.679 25.0304 205.135 23.6758 206.283 23.7532C206.659 23.762 206.269 24.1942 204.809 25.3669ZM188.58 32.7719C190.019 33.5386 190.364 34.1835 190.708 36.8186C190.88 37.9888 191.052 39.159 191.105 39.4094C191.193 39.8349 191.091 39.8505 189.711 39.5559C188.895 39.4098 187.824 39.3146 187.319 39.3435C186.558 39.4234 186.398 39.532 186.434 39.9775C186.465 40.4718 186.61 40.5338 188.078 40.6887C190.444 40.9233 191.431 41.404 191.545 42.3726C191.583 42.7937 191.601 43.1638 191.574 43.1859C189.919 43.9974 189.614 44.044 188.061 43.7095C186.409 43.3663 183.393 43.3933 182.534 43.7348C182.272 43.8589 181.665 43.9034 181.217 43.8635C180.045 43.7596 178.077 44.1499 176.49 44.7707C174.905 45.3672 174.918 45.2209 176.499 43.2481C177.572 41.9182 179.644 40.3576 180.536 40.2156C180.868 40.1468 181.083 39.9939 181.048 39.8188C180.977 39.493 180.63 39.4377 179.34 39.5442C178.658 39.582 178.388 39.5089 178.308 39.2807C178.115 38.6247 177.342 38.8508 176.044 39.8905C175.34 40.4668 174.703 40.8526 174.61 40.7706C174.384 40.4803 175.971 38.164 177.003 37.2973C177.544 36.8539 178.315 36.3817 178.728 36.2465C179.683 35.9626 179.478 35.7233 178.273 35.7146C177.093 35.7081 174.375 36.6217 173.016 37.5084C170.992 38.8031 171.656 37.83 174.116 35.8615C177.414 33.2303 180.534 32.033 184.39 31.8839C186.255 31.8038 187.044 31.9721 188.58 32.7719ZM165.427 37.8421C165.242 38.2189 164.992 38.4915 164.843 38.4783C164.618 38.4583 164.891 36.5168 165.539 33.7485C165.79 32.6159 165.811 32.6669 165.79 34.8766C165.762 36.3238 165.638 37.4431 165.427 37.8421ZM194.358 42.9417C194.502 43.2985 194.583 43.7972 194.56 44.0653C194.532 44.3823 194.97 44.8144 195.897 45.4127C199.295 47.5819 202.441 50.9081 205.865 55.9053C207.774 58.7286 210.637 63.8235 210.589 64.3598C210.555 64.7499 210.174 64.2247 209.025 62.1814C208.637 61.459 207.732 60.0518 207.069 59.0346C206.381 58.0152 205.237 56.1936 204.512 55.0235C202.645 52.0074 198.974 48.0939 198.889 49.0447C198.879 49.1666 199.723 50.1262 200.73 51.2231C202.543 53.1532 203.431 54.4607 203.375 55.0946C203.308 55.8503 202.39 55.1546 200.334 52.8588C197.797 50.0289 195.573 48.2097 192.345 46.3751C191.104 45.6505 190.028 45.039 190.007 44.988C189.728 44.7421 190.422 43.9929 191.142 43.811C191.603 43.7045 192.392 43.3077 192.9 42.9597C193.41 42.5872 193.912 42.3123 193.989 42.2946C194.063 42.3012 194.239 42.5871 194.358 42.9417ZM189.288 45.7351C189.851 46.1782 190.317 46.5882 190.311 46.6613C190.304 46.7345 189.635 46.9207 188.843 47.0716C187.132 47.3866 185.563 48.0827 185.757 48.444C185.949 48.8296 186.404 48.7962 187.723 48.3727C188.394 48.1621 189.569 47.9469 190.375 47.9202L191.835 47.8778L193.942 49.6129C197.007 52.1456 198.726 53.9938 200.29 56.467C202.733 60.3451 202.639 60.5579 199.879 57.4134C198.444 55.7625 196.867 54.0007 196.36 53.4888C194.584 51.7094 191.087 48.6714 190.738 48.6404C189.866 48.563 190.513 49.4804 192.654 51.3906C195.099 53.5489 196.743 55.6851 198.156 58.4398L198.966 60.0598L196.846 57.6355C194.382 54.8367 191.453 51.8983 191.104 51.8673C190.506 51.8142 190.843 52.827 191.659 53.5383C192.823 54.5754 198.317 60.8622 198.587 61.5005C198.715 61.7575 198.106 61.2612 197.231 60.3726C196.355 59.484 195.177 58.3228 194.593 57.8287C194.012 57.3101 192.65 55.9606 191.544 54.8305C188.902 52.0649 187.727 51.1498 187.294 51.5044C187.048 51.7283 187.083 51.9034 187.549 52.3134C189.638 54.2434 192.861 57.8223 194.043 59.4998C196.476 62.9347 200.292 69.736 199.965 70.0264C199.642 70.268 196.173 68.0434 195.569 67.2035C194.317 65.4706 188.588 59.5561 188.254 59.6492C187.534 59.8311 187.885 60.4029 190.139 62.7407C191.403 64.057 192.429 65.2293 192.419 65.3512C192.41 65.4487 192.26 65.4354 192.122 65.3002C189.285 62.7386 187.063 60.895 186.928 61.0058C186.844 61.0967 186.012 60.2857 185.1 59.2464C183.296 57.2187 182.674 56.8686 181.057 56.9708C179.566 57.0841 178.752 57.4787 176.174 59.363C172.225 62.2559 170.129 64.0847 169.535 65.1132L168.969 66.1195L168.271 65.4924C167.664 64.9716 167.247 64.8609 165.403 64.6972C163.659 64.5423 163.229 64.5778 163.203 64.8704C163.183 65.0898 163.465 65.3114 163.907 65.4243C164.571 65.5816 164.678 65.7877 165.051 67.246C165.571 69.3071 165.539 70.2379 164.977 68.9348C164.771 68.4251 164.213 67.6384 163.753 67.1553C162.555 65.9432 159.358 63.7672 157.429 62.8589C156.512 62.4335 155.748 61.997 155.761 61.8507C155.771 61.7288 156.37 61.4871 157.092 61.2809L158.377 60.9527L160.584 61.8367C162.308 62.5057 162.847 62.6519 163.118 62.4302C163.524 62.0977 163.22 61.8495 161.353 61.0941C159.849 60.4937 159.692 60.2831 160.474 59.9595C161.281 59.638 166.929 60.2377 168.587 60.8026C169.56 61.1593 170.106 61.2323 170.295 61.0771C170.458 60.9441 170.473 60.7735 170.361 60.6161C169.881 60.0821 167.136 59.3223 164.918 59.1254C163.548 59.0037 162.609 58.8221 162.622 58.6759C162.635 58.5296 162.719 58.4387 162.843 58.4498C162.943 58.4586 163.695 57.9111 164.507 57.246C165.943 56.0712 166.045 56.0556 167.392 56.1507C168.638 56.2614 171.002 56.7907 172.12 57.2094C172.459 57.3623 172.546 57.2226 172.624 56.3449C172.702 55.4673 172.878 55.188 173.767 54.5052C174.846 53.6673 177.37 52.9577 180.541 52.6004C182.013 52.4361 182.037 52.4383 181.955 51.6693C181.774 50.0315 181.565 49.8409 179.611 49.4954C178.623 49.3094 177.629 49.1966 177.396 49.2742C175.93 49.66 179.385 46.6741 181.53 45.7097C183.363 44.865 184.435 44.6653 186.431 44.818C188.026 44.9596 188.416 45.0925 189.288 45.7351ZM194.665 48.2519C196.907 49.8761 199.412 52.2118 201.066 54.2261C202.537 56.0521 202.089 55.7175 198.704 52.5421C197.172 51.1283 195.197 49.3312 194.282 48.6111C192.339 47.0134 192.107 46.7962 192.456 46.8272C192.605 46.8405 193.602 47.4941 194.665 48.2519ZM182.717 57.5114C183.44 57.5755 191.879 67.4656 193.91 70.6191L194.37 71.3726L192.986 72.8223C189.804 76.1273 185.636 78.9515 181.952 80.2708C178.628 81.4992 179.155 81.7916 176.312 77.0425C174.932 74.7577 173.553 72.4729 173.27 71.9809L172.721 71.0967L175.606 68.8711C177.195 67.6607 178.63 66.4859 178.779 66.2287C179.211 65.6037 178.725 64.2828 177.222 61.987L175.984 60.0833L176.907 59.3053C178.699 57.7935 180.935 56.9354 182.028 57.3519C182.223 57.4184 182.518 57.4937 182.717 57.5114ZM230.63 66.0655C229.991 66.4756 228.268 67.2073 227.994 67.1829C227.895 67.1741 228.507 66.7861 229.374 66.3471C230.9 65.5734 231.694 65.3982 230.63 66.0655ZM176.555 62.9844C177.964 65.2227 178.172 66.2732 177.287 66.9072C177.018 67.1045 175.893 67.6188 174.794 68.111C172.604 69.0223 171.683 69.776 171.603 70.678C171.555 71.2144 173.724 75.0682 176.633 79.6511C177.337 80.7702 177.896 81.8273 177.879 82.0223C177.861 82.2174 178.021 82.4035 178.245 82.4234C179.117 82.5009 183.293 81.0042 185.614 79.7605C188.118 78.4347 192.398 75.2027 193.693 73.6222C194.086 73.1656 194.469 72.8065 194.544 72.8132C194.743 72.8309 195.02 75.6566 194.927 76.705C194.87 77.3388 194.37 77.8841 191.822 79.9922C190.143 81.3666 188.043 82.9494 187.167 83.4859C184.615 85.0776 181.708 86.4167 180.985 86.3525C180.138 86.2773 179.394 85.3266 176.617 80.6817C175.438 78.685 173.249 75.0505 171.76 72.584C168.873 67.7573 168.814 67.58 169.664 65.6406C170.035 64.8626 170.783 64.0691 172.491 62.6482C173.789 61.6085 174.943 60.7772 175.041 60.8104C175.136 60.8681 175.828 61.8387 176.555 62.9844ZM227.399 67.3758C227.189 67.48 226.904 67.5776 226.755 67.5643C226.63 67.5533 226.691 67.4358 226.901 67.3316C227.111 67.2274 227.421 67.132 227.546 67.1431C227.695 67.1564 227.61 67.2716 227.399 67.3758ZM235.354 68.3032C235.315 68.742 234.652 69.9855 234.453 69.9678C234.353 69.959 234.219 69.775 234.136 69.5711C233.966 68.9417 232.927 69.0461 231.268 69.9063C229.4 70.8706 228.252 72.194 228.615 72.9142C228.768 73.1735 228.869 73.4527 228.863 73.5259C228.843 73.7453 226.136 73.4066 226.008 73.1495C225.601 72.3517 228.64 69.5255 230.718 68.7516C232.455 68.1441 235.395 67.84 235.354 68.3032ZM147.607 60.9056C147.603 60.9544 147.287 61.3933 146.895 61.8499C146.503 62.3065 146.179 62.8429 146.164 63.0136C146.149 63.1842 145.604 63.3816 144.918 63.4681C142.863 63.7033 141.299 64.3508 139.915 65.5057C137.717 67.35 136.542 66.7296 138.022 64.4776C138.837 63.223 140.383 61.9351 141.658 61.434C142.987 60.8886 147.646 60.4668 147.607 60.9056ZM154.901 62.1921C157.289 63.0185 157.905 63.4417 158.31 64.5343C158.763 65.6556 159.145 68.1467 158.926 68.3484C158.847 68.3906 158.463 68.1845 158.09 67.8566C157.275 67.1452 154.499 66.1616 151.224 65.4285L148.882 64.9258L149.021 63.9307C149.096 63.3721 149.443 62.5676 149.813 62.0844L150.466 61.2332L152.197 61.5343C153.16 61.7181 154.366 61.9972 154.901 62.1921ZM256.036 72.4001C258.392 74.1573 261.923 77.1 261.928 77.3217C261.922 77.3948 260.796 77.344 259.425 77.2223C257.831 77.0807 256.85 77.092 256.71 77.2516C256.596 77.4134 255.187 77.4357 252.963 77.312L249.416 77.0953L249.246 75.9008C249.046 74.1876 249.34 71.1667 249.766 70.8852C250.22 70.5815 250.906 70.4949 252.428 70.6055C253.651 70.6895 253.94 70.838 256.036 72.4001ZM160.333 65.795C160.632 69.2125 160.508 70.897 159.977 70.6532C159.784 70.5624 159.757 70.0194 159.902 68.9511C160.1 67.5681 159.999 66.1586 159.634 64.8975C159.581 64.6471 159.66 64.605 159.9 64.7246C160.093 64.8155 160.301 65.3008 160.333 65.795ZM233.259 72.0979C232.401 72.7097 230.593 73.5566 230.244 73.5257C229.845 73.4903 230.622 72.9449 232.07 72.1889C233.939 71.2245 234.571 71.1823 233.259 72.0979ZM162.86 68.452C162.917 70.3491 162.532 72.4281 162.133 72.3927C161.959 72.3772 161.966 72.0093 162.176 71.34C162.54 70.07 162.643 68.0642 162.372 67.1555C162.218 66.6258 162.256 66.4818 162.474 66.5748C162.667 66.6657 162.824 67.4414 162.86 68.452ZM169.43 69.9691C170.655 71.4539 176.908 81.6413 176.871 82.0557C176.858 82.202 176.675 82.2841 176.476 82.2664C176.252 82.2465 175.481 82.7186 174.75 83.3172C173.802 84.093 173.357 84.2992 173.198 84.1131C172.788 83.6344 172.841 84.45 173.268 85.2988C173.508 85.7132 174.018 86.4711 174.452 86.952C175.092 87.6722 175.149 87.8738 174.835 88.018C174.625 88.1221 174.315 88.2175 174.165 88.2042C173.717 88.1644 171.229 90.4498 170.858 91.2278C170.674 91.6046 170.416 92.2452 170.28 92.6508C170.074 93.2714 170.02 93.3157 169.801 92.9523C169.049 91.8043 164.904 86.1534 164.78 86.1423C164.705 86.1357 164.686 86.3551 164.737 86.6299C164.848 87.3524 164.558 87.2283 163.768 86.2245C162.571 84.7176 162.367 84.1835 162.495 82.7451C162.592 81.648 162.72 81.3399 163.165 81.1337C163.692 80.861 165.11 78.7509 165.166 78.117C165.185 77.8976 164.982 77.9286 164.503 78.2301C163.864 78.6402 161.844 78.7558 161.877 78.3901C161.883 78.317 162.594 77.6675 163.463 76.9337L165.036 75.6236L165.571 76.9489C165.857 77.6869 166.623 78.959 167.254 79.7767C168.403 81.2548 170.578 83.0696 170.876 82.8257C170.957 82.7592 170.794 82.3271 170.507 81.8839C170.22 81.4407 169.807 80.716 169.593 80.3038C169.228 79.6079 169.3 79.6389 170.314 80.6627C171.42 81.7929 172.064 82.1695 171.745 81.5269C171.658 81.3717 171.177 80.5673 170.669 79.785C168.374 76.2149 167.768 74.8342 167.564 72.6046C167.281 69.852 167.407 68.438 167.905 68.4822C168.104 68.4999 168.798 69.1758 169.43 69.9691ZM164.083 69.6663C163.991 69.8547 163.922 69.775 163.946 69.5068C163.945 69.2364 164.033 69.0968 164.099 69.2009C164.167 69.2807 164.173 69.5023 164.083 69.6663ZM197.35 72.8903C197.55 73.7435 197.496 73.7879 196.385 73.8612C195.626 73.9167 195.506 73.8569 195.282 73.2718C194.998 72.5095 194.989 72.0418 195.275 72.2146C195.368 72.2966 195.672 72.2744 195.956 72.1769C196.782 71.9307 197.166 72.1368 197.35 72.8903ZM137.753 67.2303C137.742 67.3522 137.502 67.7977 137.236 68.241C136.973 68.6599 136.689 69.5931 136.626 70.3001C136.539 71.0049 136.437 71.5856 136.362 71.5789C136.013 71.548 135.671 70.8787 135.719 70.3423C135.762 69.8547 135.669 69.7727 135.236 69.8326C134.854 69.897 134.663 69.7818 134.619 69.4338C134.566 69.1834 134.436 68.9507 134.311 68.9396C134.012 68.9131 132.572 70.7019 131.997 71.8057L131.512 72.7455L131.601 71.7459C131.741 69.5961 132.908 68.0533 134.828 67.3637C136.123 66.9136 137.787 66.8402 137.753 67.2303ZM140.927 67.6842C142.843 68.1737 147.842 70.141 148.793 70.7414C149.292 71.0561 149.269 72.4546 148.754 72.8757C148.267 73.2748 146.805 73.0467 145.978 72.4573C144.895 71.6485 143.353 71.1922 140.453 70.7627L137.852 70.3597L137.84 69.6461C137.81 69.1275 138.642 67.1127 138.867 67.1326C138.891 67.1348 139.798 67.3873 140.927 67.6842ZM261.968 78.8487C262.406 79.0104 262.975 79.1101 263.258 79.0369C264.206 78.8262 267.848 84.1869 269.363 88.0563C270.16 90.1174 270.19 90.3412 270.006 92.4135C269.865 93.9982 269.596 95.0554 269.087 96.2634C268.138 98.4643 265.996 101.935 264.956 102.9L264.133 103.687L265.111 101.439C265.775 99.9009 266.175 98.5112 266.402 97.0816C266.668 95.2132 266.651 94.8431 266.182 93.622C265.509 91.8668 264.469 90.5704 262.747 89.3118C260.456 87.6832 258.41 86.961 255.069 86.6889C251.306 86.3548 249.799 86.6387 247.835 88.1107C245.467 89.8907 244.196 92.6037 243.391 97.7169C242.94 100.527 242.839 100.543 242.168 97.6329C241.607 95.175 241.673 91.3231 242.288 88.9205C242.616 87.7702 242.681 87.0388 242.556 86.7573C242.366 86.3474 242.287 86.3895 241.746 87.1032C240.611 88.575 240.371 89.5857 239.989 94.1713C239.721 97.4648 239.686 99.28 239.898 101.412C240.036 102.972 240.121 104.282 240.067 104.326C239.931 104.437 239.007 103.815 238.123 103.024C236.514 101.628 235.996 98.4117 236.421 92.7734L236.561 90.9183L236.103 92.1063C235.871 92.7491 235.402 94.3538 235.058 95.6747C234.45 98.0042 233.824 99.3983 233.35 99.3563C232.353 99.2678 232.89 93.7868 234.355 89.1744C235.327 86.1401 235.737 85.4885 237.818 83.8303C239.064 82.8106 239.299 82.7086 239.545 83.0499C239.702 83.2604 240.398 83.6172 241.131 83.8542C242.23 84.1975 242.706 84.2152 244.286 83.9623C245.329 83.8092 246.816 83.7447 247.612 83.8399C248.656 83.9572 249.113 83.8995 249.235 83.6645C249.448 83.2412 251.068 83.385 252.748 83.9765C253.455 84.2113 254.097 84.342 254.158 84.2245C254.241 84.1336 253.761 83.5996 253.055 83.07C252.373 82.5426 251.584 81.8091 251.291 81.439L250.769 80.803L251.91 80.118C255.224 78.1516 259.033 77.6789 261.968 78.8487ZM86.1332 64.2198C86.8993 66.6221 86.7143 68.9892 85.4936 72.8369C84.6662 75.3681 82.2407 78.0768 80.5593 78.3452C80.1021 78.4029 79.8182 78.2057 79.1692 77.3126C78.1832 75.9719 75.6662 73.4878 75.4496 73.6652C75.3683 73.7317 75.5168 74.0397 75.7877 74.3832C76.4226 75.1522 77.4672 78.0953 77.5584 79.332C77.6636 80.6928 77.1815 81.3134 76.11 81.2183C74.9887 81.1187 73.7318 79.4345 72.4781 76.3008C71.9406 74.9999 71.479 73.9761 71.4248 74.0204C71.3457 74.0625 71.5452 75.2106 71.879 76.5425C72.6051 79.6785 72.6995 81.1612 72.1513 81.1125C71.329 81.0395 68.7686 76.7824 67.8669 73.9257C67.7314 73.4713 67.4833 73.1544 67.3252 73.2387C66.8799 73.4449 67.0427 76.7028 67.6236 79.2116C68.2988 82.0728 68.2707 82.3897 67.456 82.514C66.1819 82.7203 62.2979 81.4908 59.7106 80.0817C58.5123 79.4347 58.2598 79.1665 57.8773 78.1006C57.6097 77.4379 57.3333 76.8728 57.2358 76.8396C56.8621 76.8064 56.8752 78.9207 57.235 79.9601C57.5991 80.9508 59.1117 82.584 60.7196 83.7096C61.5462 84.299 61.5387 84.6669 60.7804 85.2876C60.2929 85.6866 59.9874 85.7332 58.9267 85.5162C56.2593 85.0091 52.931 82.8952 52.361 81.3949C52.2006 80.9383 51.9839 80.5505 51.8842 80.5417C51.5602 80.5129 51.8247 82.0598 52.3286 83.456C53.5282 86.6341 56.9097 88.4332 61.3949 88.2662C64.1164 88.1639 65.0102 87.9975 67.737 86.9864C70.0749 86.1128 71.7996 85.922 71.7455 86.5315C71.713 86.8972 68.9721 87.7841 65.0178 88.7599C62.7081 89.3166 61.9996 89.3765 60.0787 89.2305C57.9357 89.0403 57.7407 88.9738 55.784 87.8172C53.7048 86.6252 52.1901 85.0164 51.2745 83.1659C50.7218 82.0356 50.4532 82.2329 50.9267 83.4053C51.1554 83.9416 51.9734 85.1937 52.7427 86.1466C54.978 88.9743 59.535 91.3937 64.3735 92.3394L65.9282 92.6494L65.4917 93.3232C64.7378 94.4603 63.3294 95.613 62.2417 95.9833C59.6774 96.8614 57.6395 95.7713 53.7562 91.4213L52.0908 89.5288L52.1148 90.9561C52.142 92.6294 52.6785 94.7902 53.6007 97.1327C54.8111 100.189 54.9001 102.015 53.8895 104.063C53.063 105.734 51.5681 107.297 49.7405 108.363C47.4882 109.687 46.2803 109.997 44.0376 109.798C41.6931 109.615 40.3324 109.101 38.3312 107.596C37.4839 106.956 36.6962 106.493 36.6128 106.584C36.5316 106.65 37.0192 107.381 37.7224 108.23C40.9447 112.104 43.9678 116.525 43.6157 116.813C43.372 117.012 40.2939 115.191 37.7228 113.317C36.3782 112.337 34.869 110.95 33.9382 109.835C33.0985 108.827 32.339 108.047 32.2599 108.089C32.014 108.313 34.7228 112.313 36.1444 113.84C36.9223 114.695 38.4858 116.038 39.5942 116.849C41.6224 118.331 42.7948 119.836 42.5446 120.674C42.328 121.416 37.877 117.237 36.2864 114.786C35.9537 114.29 35.633 113.942 35.5789 113.986C35.4976 114.053 35.5941 114.946 35.7545 115.968C36.1816 118.512 35.9921 119.232 35.3863 117.286C34.6494 114.837 31.5719 107.635 31.4603 108.043C31.3596 108.329 32.4737 112.187 33.76 116.085C33.9822 116.695 33.8923 116.859 33.0105 117.739C32.4601 118.28 31.6022 118.892 31.1049 119.118C29.1494 119.927 28.4874 118.615 28.345 113.712C28.2559 111.321 28.2581 111.297 27.9798 112.451C27.5574 114.38 26.4449 115.878 24.7549 116.809C23.6207 117.421 22.0378 117.428 20.9847 116.843C19.7886 116.172 18.6378 113.293 18.4772 110.576C18.4587 109.935 18.2809 109.109 18.1368 108.752C17.7185 107.805 17.052 105.412 17.1625 105.299C17.2416 105.257 17.5341 105.356 17.8473 105.507C19.2633 106.247 22.4908 106.951 25.8548 107.25C31.0605 107.737 31.443 107.673 32.692 106.334C33.2488 105.72 33.7699 105.225 33.8197 105.23C33.8945 105.236 34.3484 105.498 34.8728 105.815C35.3972 106.132 35.9259 106.4 36.0755 106.413C36.524 106.453 36.4058 105.803 35.8099 105.161C35.123 104.412 35.1262 104.093 35.826 103.565C36.3633 103.17 36.4132 103.175 37.0513 103.625C37.4306 103.879 37.9365 104.121 38.1857 104.143C38.5595 104.176 38.5205 104.05 37.9993 103.414L37.3416 102.618L38.517 101.543C40.078 100.085 43.605 94.3041 45.454 90.1681C46.2686 88.3484 47.5695 85.8593 48.3549 84.6513C50.738 81.0051 55.6626 75.3239 56.2412 75.5964C56.3842 75.6828 57.0872 74.8361 57.8141 73.7211C60.377 69.7469 63.2998 67.3772 67.8239 65.6411C70.424 64.6433 71.087 64.5302 70.7523 65.1885C70.631 65.4235 70.449 65.7759 70.3569 65.9643C70.2648 66.1527 70.7394 65.8999 71.4348 65.4211C72.5886 64.5898 73.3123 64.3592 75.5961 64.0951C75.9763 64.0552 76.3739 63.8202 76.4703 63.583C76.6739 62.9868 79.8342 62.7514 83.9023 63.0388L85.8254 63.1604L86.1332 64.2198ZM87.5502 64.0999C89.7151 66.8721 89.9084 71.4843 88.0887 76.1388C86.9568 78.987 84.6949 81.8331 82.6615 82.9548C81.8685 83.4004 80.8317 84.0455 80.3735 84.398C79.2967 85.2116 77.6673 86.0252 77.1939 85.9832C76.4463 85.9168 76.9013 85.3183 77.9121 84.9658C78.6877 84.7152 79.3107 84.2054 80.3224 82.9929C81.7849 81.2307 82.3038 80.7607 83.6319 79.9449C85.2244 78.9806 86.9359 75.545 87.5044 72.2537C87.9862 69.3724 87.7011 67.2093 86.4224 63.5083C86.2251 62.9011 86.8969 63.2556 87.5502 64.0999ZM92.3908 63.8908C93.9726 64.1787 94.0907 64.2629 95.2078 65.5415C95.8471 66.2617 96.5969 67.434 96.8894 68.0989C97.6122 69.8585 97.2421 74.0275 96.0312 77.4829C95.2459 79.8212 93.7923 83.1814 93.0232 84.4891C92.4924 85.3757 92.175 85.2738 92.4858 84.3185C92.8302 83.268 93.7036 73.1481 93.6081 71.395C93.5507 70.6282 93.4076 69.9766 93.283 69.9656C93.1335 69.9523 93.0999 70.0476 93.1617 70.2005C93.3329 70.5352 92.4362 74.9768 91.7474 77.078C91.4658 77.9867 90.5765 79.7998 89.7846 81.0809C88.3223 83.4083 85.7874 86.5004 85.3139 86.4584C85.1894 86.4473 85.4915 85.5896 85.9833 84.5766C88.049 80.2634 89.9454 73.8956 90.2831 70.0924C90.4714 67.9713 90.1039 65.6044 89.392 64.288C89.2186 63.9777 89.0973 63.6475 89.1038 63.5744C89.1189 63.4037 90.3627 63.5387 92.3908 63.8908ZM164.094 71.8051C163.934 72.4789 163.678 73.095 163.547 73.1571C163.282 73.3057 163.599 71.4417 163.994 70.6659C164.329 70.0076 164.374 70.626 164.094 71.8051ZM102.868 65.5336C106.699 65.9475 111.185 66.9109 114.724 68.0606C115.604 68.3353 116.76 68.6099 117.283 68.6564C117.832 68.7051 118.859 69.0174 119.582 69.352C120.715 69.8948 121.085 70.2471 122.168 71.9158C122.851 72.984 123.475 73.8748 123.55 73.8815C123.6 73.8859 123.65 73.3252 123.609 72.6581C123.569 71.9666 123.617 71.4302 123.717 71.4391C124.19 71.4811 125.463 72.6999 126.238 73.8744C127.172 75.2351 127.496 75.2638 127.139 73.9053C127.027 73.4776 126.962 73.0786 127.014 73.0587C127.178 72.9013 131.195 75.4694 131.959 76.2006C133.786 77.9601 136.117 80.8454 136.957 82.4188C141.069 90.131 143.105 93.5061 146.551 98.2595C149.527 102.357 150.333 105.156 149.337 107.893C148.8 109.418 148.422 109.999 147.948 109.957C147.525 109.919 137.674 102.066 135.589 100.088C131.347 96.0988 127.54 90.8955 127.075 88.4953C126.993 87.9966 127.048 85.9621 127.222 84.0117C127.574 80.0378 127.605 77.4358 127.281 77.4071C127.156 77.396 127.03 77.6797 126.973 78.0432C126.938 78.4332 126.793 78.9364 126.645 79.1935C126.465 79.5215 126.414 79.2467 126.505 78.2228C126.664 76.1483 126.257 76.7756 125.513 79.781C125.159 81.2239 124.68 82.6557 124.477 82.9571C124.099 83.5379 124.081 83.4625 123.908 81.7272C123.663 78.8305 122.002 73.4983 121.354 73.4408C121.205 73.4275 121.14 73.5937 121.195 73.8198C121.275 74.0481 121.389 74.7462 121.511 75.3468C121.916 77.8644 119.961 86.586 119.014 86.5019C118.914 86.493 118.697 85.8348 118.492 85.0303C118.054 83.1731 116.321 78.6455 114.687 74.9866C113.259 71.8374 113.282 71.864 113.119 71.997C113.065 72.0414 113.356 73.001 113.809 74.1224C115.487 78.424 115.967 81.7838 115.439 86.037C115.13 88.6634 114.936 89.4325 114.399 90.3922C113.511 91.9106 112.994 92.3561 112.147 92.2809C110.951 92.1747 110.652 91.583 109.28 86.6696C108.995 85.6369 108.636 84.8679 108.457 84.9011C108.303 84.9366 108.054 85.4797 107.901 86.0803C107.42 88.1017 105.81 89.261 103.742 89.0774C101.823 88.9071 100.072 87.1298 100.219 85.472C100.319 84.3506 99.8763 79.7163 99.2996 76.0285C99.0319 74.2355 98.7099 71.9217 98.6058 70.8313C98.3499 68.6217 97.8471 66.9307 97.0517 65.7052C96.7646 65.262 96.5295 64.7988 96.536 64.7257C96.5446 64.6282 97.0679 64.6746 97.7342 64.8075C98.3734 64.9625 100.68 65.2902 102.868 65.5336ZM208.889 75.0206C207.466 75.7788 205.318 77.6275 204.078 79.1393C202.021 81.6595 199.699 86.3186 198.76 89.8227C198.118 92.2475 197.743 92.509 198.091 90.2794C198.365 88.6082 199.195 85.4875 199.708 84.2308C199.809 83.9449 199.768 83.8429 199.585 83.925C199.427 84.0092 199.302 83.9982 199.308 83.925C199.356 83.3887 200.473 80.7112 201.073 79.6096C201.489 78.8848 201.834 78.1046 201.854 77.8852C201.925 77.0806 205.552 75.2649 207.901 74.8346C209.458 74.5551 209.655 74.5971 208.889 75.0206ZM218.33 76.1782C222.22 77.0642 225.731 77.9656 225.888 78.1762C225.956 78.2559 225.404 78.8212 224.643 79.4663C222.737 81.1399 221.12 83.5027 219.651 86.7631C218.962 88.2992 217.882 90.5622 217.271 91.7857L216.118 94.0177L214.462 94.2884C212.398 94.6211 209.779 94.4132 208.149 93.8261C207.443 93.5669 206.466 93.259 205.952 93.115C205.165 92.9223 204.956 92.7318 204.718 92.0226C204.146 90.2518 205.004 86.249 206.918 81.9469C207.36 80.9295 207.689 80.0496 207.646 79.972C207.257 79.5443 204.131 83.6406 202.33 86.9454C201.64 88.211 200.869 89.5431 200.658 89.9421C200.221 90.6159 200.221 90.6159 200.477 89.4346C201.172 86.13 203.087 82.0982 205.057 79.7175C206.066 78.5294 208.154 76.7982 209.475 76.0555C210.108 75.7185 210.625 75.273 210.644 75.0535C210.683 74.6147 212.494 74.8737 218.33 76.1782ZM151.093 73.4029C151.219 74.8146 150.933 75.7721 150.198 76.4194C149.57 76.978 148.939 77.0202 148.552 76.5682C148.37 76.3554 148.481 75.9476 149.012 75.061C149.453 74.3384 149.76 73.4319 149.827 72.6761C149.931 71.5059 149.931 71.5059 150.448 71.8959C150.801 72.1729 151.029 72.7092 151.093 73.4029ZM153.264 73.2762C154.313 74.4751 154.683 75.1222 154.893 76.1483C155.052 76.8996 155.094 77.5667 155.008 77.682C154.749 78.0521 154.139 77.8505 154.18 77.3873C154.284 76.2171 153.772 74.9184 152.615 73.5134C151.935 72.6913 151.4 71.9312 151.406 71.858C151.445 71.4192 152.033 71.8646 153.264 73.2762ZM231.488 79.8774C233.878 80.6793 236.291 81.5079 236.876 81.7072L237.922 82.0949L236.53 83.3474C233.829 85.7614 232.104 89.3432 230.53 95.7641C230.214 97.0629 229.912 98.1911 229.833 98.2332C229.779 98.2775 229.086 98.1668 228.301 97.9497C227.492 97.7304 226.026 97.5512 224.923 97.527C222.638 97.5207 221.944 97.1396 221.449 95.6459C220.935 94.0768 221.684 89.5975 223.124 85.5481C223.789 83.7151 224.328 82.1658 224.333 82.117C224.337 82.0682 224.154 82.1503 223.939 82.3032C223.673 82.4762 223.546 82.4895 223.561 82.3188C223.585 82.0506 226.126 79.4505 226.574 79.2199C226.73 79.1601 226.799 78.9451 226.717 78.7412C226.588 78.2137 226.636 78.2425 231.488 79.8774ZM198.144 78.3667C197.674 79.1358 196.908 79.5592 196.59 79.187C196.522 79.1072 196.914 78.6506 197.482 78.185C198.026 77.7173 198.507 77.3915 198.553 77.4446C198.598 77.4978 198.412 77.899 198.144 78.3667ZM152.787 76.1087C152.624 77.9372 152.139 78.877 151.392 78.8106C150.669 78.7465 150.665 78.7952 151.402 77.5584C151.733 76.9489 152.046 75.9692 152.115 75.1891C152.25 73.9479 152.28 73.9014 152.567 74.3446C152.765 74.657 152.85 75.4017 152.787 76.1087ZM134.692 73.4209C135.553 73.6203 136.381 73.9149 136.519 74.0501C136.658 74.1853 138.616 75.6123 140.883 77.2387C144.943 80.1547 144.989 80.2079 146.282 82.3376C149.718 88.0485 151.618 92.6648 152.525 97.4386C152.845 99.2116 153.101 100.856 153.084 101.051C153.064 101.27 152.467 99.7923 151.793 97.7667C150.439 93.7886 149.073 90.4976 147.8 88.1485C146.719 86.185 143.032 81.8771 141.156 80.3836C139.561 79.1117 138.99 79.0364 139.916 80.1998C143.456 84.7405 144.423 86.3007 144.873 88.3063C145.163 89.5607 145.295 92.0297 145.071 92.0098C144.972 92.0009 144.664 91.5067 144.367 90.8906C142.796 87.6551 133.844 75.9011 131.77 74.3656C131.039 73.8338 130.457 73.3152 130.44 73.2155C130.456 73.0448 131.318 72.9494 132.469 73.0024C132.82 73.009 133.808 73.195 134.692 73.4209ZM193.958 79.1253C193.947 79.2472 194.685 79.7059 195.625 80.1579C196.539 80.6076 197.354 81.0486 197.418 81.1771C197.484 81.2812 196.733 82.6643 195.741 84.2226C193.217 88.3231 192.946 89.11 192.493 94.5001C192.188 97.9377 192.157 99.4093 192.375 100.633C192.522 101.53 192.684 102.528 192.753 102.878C192.835 103.376 192.624 103.21 191.697 102.047C188.893 98.5543 186.931 94.9155 186.285 92.0077L185.978 90.6536L185.539 91.917C185.096 93.2291 184.739 98.3821 185.004 99.3639C185.314 100.399 184.655 99.3329 183.8 97.365L182.945 95.397L183.557 94.4439C184.081 93.6304 184.13 93.3645 183.968 92.6375C183.858 92.1854 183.604 91.6469 183.418 91.4829C183.143 91.1882 183.078 91.3544 182.974 92.5247C182.833 94.1094 182.492 94.2756 182.162 92.8949C182.056 92.394 181.619 91.3724 181.209 90.6233C180.257 88.8926 178.452 87.7248 176.793 87.7495C175.76 87.7807 175.715 87.7275 174.733 86.338L173.756 84.8998L175.291 83.7337C176.153 83.0732 176.953 82.5544 177.077 82.5655C177.177 82.5743 177.652 83.1571 178.067 83.8574C179.057 85.4441 180.344 86.787 180.917 86.8379C181.141 86.8578 181.861 86.676 182.507 86.4631C183.156 86.2259 184.15 86.0684 184.7 86.0927C186.227 86.1545 189.298 84.658 192.072 82.5454C193.824 81.202 194.374 80.6612 194.278 80.3332C194.106 79.7281 193.764 79.8944 190.863 82.0203C189.574 82.9624 188.029 83.9556 187.405 84.1951L186.309 84.6629L187.783 83.6143C188.587 83.0468 190.235 81.7434 191.427 80.768C193.57 78.968 193.997 78.6865 193.958 79.1253ZM198.725 82.0058C197.993 84.0294 197.949 84.8118 198.618 84.6255C199.132 84.4991 199.098 84.5944 198.081 86.7156C197.592 87.7041 196.755 89.7676 196.245 91.2704C194.965 94.9408 194.723 94.5508 195.161 89.626C195.497 86.1175 195.586 85.6831 196.293 84.2225C197.024 82.7884 199.174 79.785 199.358 79.9733C199.379 80.0243 199.097 80.933 198.725 82.0058ZM159.253 79.656C160.561 81.0499 161.607 82.8383 162.09 84.4783C162.49 85.9144 163.525 87.2595 164.721 87.9309C165.248 88.2234 166.324 90.5304 166.261 91.2374C166.25 91.3593 165.665 90.5948 164.955 89.5488C164.244 88.5028 162.784 86.5549 161.744 85.2585C159.662 82.6901 157.337 78.6014 157.96 78.6567C158.16 78.6744 158.748 79.1198 159.253 79.656ZM158.171 80.8131C158.55 81.6331 159.447 83.4082 160.182 84.7512C161.69 87.5635 162.091 88.7048 162.182 90.5066C162.27 92.6276 161.908 92.743 160.744 90.8703C160.169 89.9839 159.567 88.8493 159.359 88.3639C158.922 87.3423 157.162 84.5322 155.507 82.2475C154.434 80.7516 154.243 80.0713 154.859 79.9293C155.653 79.7541 157.21 82.3004 157.884 84.8912C157.937 85.1416 158.071 85.3255 158.128 85.2568C158.209 85.1903 158.06 84.3171 157.825 83.2888C157.369 81.3562 157.123 79.3195 157.347 79.3394C157.422 79.346 157.789 80.0175 158.171 80.8131ZM155.057 83.0676C155.247 83.4776 155.266 83.8233 155.142 83.8123C155.017 83.8012 154.823 83.44 154.708 83.0366C154.621 82.6111 154.574 82.2875 154.624 82.292C154.698 82.2986 154.87 82.6332 155.057 83.0676ZM154.216 83.4844C155.208 84.4816 157.722 88.9803 158.557 91.1677C159.061 92.5639 159.124 92.9872 158.879 94.0466C158.742 94.747 158.422 96.365 158.154 97.6926C157.682 100.182 157.457 100.727 157.29 99.7783C156.961 97.8324 154.589 93.1497 150.985 87.3501C150.24 86.1291 149.954 85.3911 150.001 84.8547C150.207 82.5387 152.561 81.7648 154.216 83.4844ZM178.723 89.1986C179.08 89.4269 179.5 89.7836 179.655 90.0185C179.901 90.3598 179.801 90.351 178.783 89.9411C175.531 88.6694 172.705 89.9421 171.72 93.1226C171.335 94.3417 171.304 94.4126 171.186 93.7632C170.898 92.1897 172.639 89.8379 174.723 88.9909C175.845 88.5253 177.795 88.6248 178.723 89.1986ZM83.0765 84.2203C82.8956 84.2779 82.7245 84.5085 82.705 84.7279C82.5989 85.9225 80.5926 87.0221 78.8234 86.865L77.8765 86.7809L79.0541 86.2466C79.7073 85.9606 80.509 85.4175 80.8448 85.0296C81.406 84.3668 82.9952 83.7216 83.2704 84.0164C83.3387 84.0961 83.2304 84.1848 83.0765 84.2203ZM177.011 92.929C177.36 93.5251 177.372 94.8039 177.011 95.7548C176.78 96.3732 176.126 96.3888 174.917 95.8637C174.216 95.5557 174.175 95.4538 174.27 94.3811C174.398 92.9427 174.99 92.209 175.962 92.2953C176.411 92.3351 176.792 92.5655 177.011 92.929ZM179.193 96.6365C178.902 96.8072 178.515 96.9203 178.316 96.9026C178.116 96.8849 178.256 96.7253 178.676 96.5169C179.07 96.3307 179.395 96.0647 179.433 95.9206C179.443 95.7987 179.516 95.8297 179.576 96.007C179.635 96.1843 179.457 96.488 179.193 96.6365ZM179.348 98.0017C178.448 98.8064 174.591 99.2503 174.654 98.5433C174.702 98.0069 175.608 97.6943 176.856 97.7805C177.556 97.8181 178.466 97.7514 178.88 97.6162C179.837 97.308 180.003 97.421 179.348 98.0017ZM180.466 99.5508C180.566 100.69 179.998 101.721 178.996 102.246L178.314 102.579L178.619 101.967C179.046 101.12 178.926 101.06 177.852 101.555C177.355 101.781 176.432 101.994 175.803 102.012C174.845 102.049 174.575 101.976 174.166 101.498C173.688 100.939 173.595 100.292 173.987 99.8355C174.099 99.698 174.987 99.6048 175.99 99.6202C177.319 99.6399 178.084 99.5112 178.923 99.1188C179.553 98.8062 180.125 98.5867 180.227 98.5712C180.302 98.5778 180.412 99.0299 180.466 99.5508ZM166.348 98.4692C166.812 99.1739 166.87 101.071 166.421 101.031C166.073 101 163.898 98.0551 164.069 97.8246C164.152 97.7337 164.585 97.6738 165.058 97.7159C165.656 97.769 166.015 97.9728 166.348 98.4692ZM170.472 100.949C170.347 101.797 170.126 102.589 169.988 102.724C169.851 102.859 169.62 104.043 169.476 105.381C169.204 107.593 169.226 107.915 169.755 109.313C170.284 110.712 170.291 110.909 169.917 112.006C169.206 114.08 169.483 117.177 170.488 118.593C170.645 118.803 170.824 119.335 170.862 119.756C170.973 120.479 170.863 120.592 169.704 121.201C169.017 121.583 168.185 121.902 167.879 121.949C167.547 122.017 167.285 122.142 167.274 122.263C167.224 122.824 169.593 122.445 170.483 121.762C170.968 121.387 171.147 121.354 171.198 121.629C171.862 124.047 172.803 127.595 172.899 127.923C173.018 128.278 172.738 128.326 171.055 128.324C169.977 128.302 168.731 128.192 168.314 128.081C167.63 127.873 167.539 127.766 167.604 127.035C167.653 126.474 167.433 125.841 166.905 125.007C165.886 123.467 165.475 122.153 165.721 121.364C165.967 120.575 165.673 116.814 165.258 115.548C164.976 114.762 164.981 114.148 165.251 112.796C165.448 111.707 165.509 110.46 165.394 109.491C165.241 108.101 165.267 107.809 165.699 107.184C165.963 106.765 166.211 105.952 166.263 105.366C166.33 104.611 166.518 104.185 166.868 103.921C167.378 103.549 167.403 103.551 167.495 104.493C167.628 105.832 166.949 113.757 166.558 115.049C166.112 116.681 166.725 115.998 167.392 114.141C168.127 112.093 168.397 109.045 168.11 105.776C167.905 103.276 167.924 103.057 168.369 102.285C168.635 101.842 168.98 101.062 169.103 100.532C169.33 99.6678 169.574 99.4683 170.43 99.446C170.582 99.4349 170.602 100.051 170.472 100.949ZM164.664 102.153C164.821 102.364 164.695 102.377 164.282 102.217C163.939 102.113 163.522 102.002 163.373 101.989C163.198 101.974 163.06 101.839 163.073 101.692C163.101 101.375 164.325 101.73 164.664 102.153ZM179.479 105.016C179.542 106.57 179.223 107.893 178.566 108.793C178.192 109.325 178.013 109.358 177.25 109.192C175.699 108.833 174.931 108.151 174.945 107.145C174.937 106.382 175.115 106.079 175.961 105.318C176.918 104.445 178.443 103.671 179.147 103.66C179.324 103.651 179.451 104.203 179.479 105.016ZM164.682 103.653C165.784 104.538 165.959 105.389 165.333 106.783C164.404 108.764 164.075 119.817 164.871 121.608C165.019 121.916 165.119 122.49 165.082 122.904C165.072 123.297 165.408 124.604 165.807 125.77C166.554 127.826 166.581 128.369 165.999 129.546C165.602 130.347 166.334 130.018 166.89 129.134C167.207 128.671 167.453 128.447 167.461 128.644C167.441 128.864 167.117 129.4 166.725 129.857C166.135 130.566 165.898 130.692 165.333 130.544C164.964 130.462 164.177 130.269 163.586 130.143C162.108 129.815 160.759 128.885 160.463 127.974C160.13 126.912 160.824 125.327 162.431 123.627L163.764 122.197L163.084 121.646C162.173 120.877 161.189 118.947 160.71 116.987C160.295 115.157 160.315 110.686 160.785 108.787L161.088 107.634L162.174 107.854C162.768 107.956 163.268 107.975 163.279 107.854C163.305 107.561 162.47 107.069 161.872 107.016C161.249 106.961 161.25 106.666 161.851 105.27C162.936 102.663 163.228 102.492 164.682 103.653ZM129.504 100.456C129.941 100.618 130.416 100.931 130.573 101.141C130.703 101.374 131.797 102.061 132.973 102.681C135.061 103.776 137.427 105.411 138.418 106.408C142.032 110.12 142.263 110.632 142.086 114.032C141.94 117.09 141.45 118.373 139.591 120.641C136.776 124.052 133.223 125.039 130.141 123.267C129.496 122.89 127.644 121.399 126.065 119.956C124.487 118.489 122.244 116.594 121.09 115.73C119.911 114.864 118.48 113.729 117.894 113.26C114.968 110.862 113.368 110.204 109.678 109.901L106.885 109.678L107.376 108.959C108.24 107.709 111.609 105.133 113.683 104.114C117.148 102.431 122.358 101.173 126.512 101.051C127.395 101.006 127.757 100.891 127.889 100.534C128.111 100.013 128.338 100.009 129.504 100.456ZM204.305 109.678C204.299 109.751 203.89 110.108 203.432 110.46C202.574 111.072 199.38 111.968 198.825 111.722C198.654 111.658 199.356 111.106 200.366 110.483C201.904 109.563 202.37 109.408 203.27 109.463C203.843 109.514 204.312 109.605 204.305 109.678ZM179.266 111.656C179.282 112.321 179.578 113.797 179.929 114.934C180.28 116.071 180.528 117.248 180.504 117.516C180.48 117.784 180.674 118.711 180.951 119.546C181.527 121.268 181.725 123.276 181.302 123.239C180.903 123.203 179.709 121.377 179.155 119.977C178.404 117.969 177.583 113.645 177.704 112.28C177.814 111.036 178.424 110.107 178.982 110.329C179.127 110.391 179.25 110.992 179.266 111.656ZM196.191 115.641C194.212 117.284 191.821 119.037 190.87 119.567C189.921 120.072 188.62 120.866 187.954 121.298C187.287 121.731 188.054 121.012 189.632 119.654C191.232 118.321 193.036 116.663 193.699 115.985C194.337 115.304 195.463 114.225 196.171 113.6C197.395 112.553 197.578 112.471 198.649 112.567L199.795 112.668L196.191 115.641ZM35.4253 105.249C36.0353 106.016 35.8815 106.052 34.8804 105.447C34.5012 105.192 34.2509 104.9 34.3365 104.784C34.6181 104.441 34.8608 104.536 35.4253 105.249ZM113.25 111.815C115.207 112.407 116.104 113.052 117.754 115.115C119.225 116.941 120.873 119.593 120.656 119.771C120.602 119.815 120.198 119.558 119.78 119.177C117.405 117.074 111.695 114.626 107.321 113.82C104.949 113.388 104.964 113.782 107.308 114.531C112.875 116.328 117.632 120.166 118.627 123.67C118.857 124.476 119.021 125.179 118.967 125.223C118.937 125.27 118.425 124.536 117.83 123.599C115.963 120.583 112.075 117.412 109.523 116.743C108.442 116.475 104.987 116.635 104.959 116.952C104.95 117.049 105.594 117.156 106.397 117.153C108.18 117.164 110.241 117.986 112.383 119.601C118.414 124.093 118.149 131.318 111.726 138.316C108.642 141.654 104.231 144.383 101.605 144.543C100.391 144.632 97.9916 143.657 96.3425 142.43C92.9285 139.866 91.0635 134.565 92.1682 130.609C93.1592 127.084 96.5931 121.787 99.4205 119.36C101.621 117.491 100.288 117.79 97.2939 119.834C95.6093 120.987 92.9574 123.7 91.9066 125.351C91.0271 126.772 89.9211 129.328 90.101 129.565C90.1714 129.62 90.5614 129.188 90.9936 128.563C92.0271 127.107 94.2803 124.358 94.4298 124.371C94.5045 124.378 94.3561 124.635 94.1016 124.957C92.3802 127.089 89.8195 131.039 88.4871 133.599C87.6985 135.126 87.6249 135.39 87.2991 139.342C86.9009 143.827 86.9854 144.572 88.3724 147.619C89.2318 149.539 91.9297 152.53 93.6979 153.547C98.53 156.261 103.788 155.598 109.299 151.517C110.886 150.331 112.459 149.586 112.709 149.878C112.777 149.958 112.614 150.386 112.371 150.856C111.767 152.006 109.454 153.447 106.519 154.538C103.505 155.671 101.844 155.99 99.2375 155.931C95.6027 155.854 92.9168 154.706 90.2363 152.085C88.4106 150.301 87.0453 148.14 85.8555 145.135C84.7296 142.259 84.4512 142.283 84.4633 145.257C84.4386 147.516 85.1019 150.228 86.1411 152.385C87.2691 154.672 90.0862 158.018 92.4764 159.95C94.7257 161.772 94.6704 161.546 93.7053 164.212L93.3739 165.116L91.9687 164.82C88.9611 164.184 83.844 161.567 80.2643 158.891C79.56 158.337 78.9381 157.987 78.8525 158.102C78.5979 158.423 79.8279 161.26 80.8919 162.853C82.3341 164.996 84.6019 167.458 87.0104 169.466L89.0463 171.145L88.4852 172.373C87.0803 175.468 86.3501 175.771 85.4041 173.697C84.7778 172.265 84.4918 172.092 84.4073 173.043C84.2428 174.896 81.9115 176.827 80.0676 176.663C78.2984 176.506 75.6287 173.763 73.3499 169.727C72.3303 167.917 72.2143 167.808 71.949 168.251C71.7691 168.579 71.6609 169.798 71.6502 171.616L71.6505 174.442L72.6929 176.279C73.2585 177.263 74.2673 178.63 74.9109 179.301L76.0865 180.487L75.2273 180.263C73.6585 179.829 72.3508 179 71.926 178.127C71.5197 177.329 70.8335 173.46 70.6535 170.962C70.5049 168.959 70.2438 169.918 70.0177 173.314C69.8738 175.783 69.7147 176.727 69.5153 176.709C69.3658 176.696 69.2196 176.929 69.2185 177.223C69.2143 178.403 69.158 178.471 68.1244 178.232C67.4581 178.099 66.8405 177.7 66.2424 177.082C64.4958 175.256 63.5825 175.077 65.2067 176.867C66.1233 177.858 68.3457 181.397 68.311 181.787C68.3002 181.909 67.7488 181.614 67.0857 181.162C63.6814 178.771 63.0065 178.736 65.6859 181.087C68.3383 183.46 70.5356 185.867 70.9539 186.813C71.137 187.296 71.2292 187.673 71.1295 187.664C70.7308 187.629 64.4207 182.891 63.2884 181.783C62.6654 181.163 62.0543 180.691 61.9709 180.782C61.8897 180.848 62.2115 181.467 62.7262 182.176C63.243 182.86 64.0503 184.234 64.5661 185.214C65.187 186.424 65.8382 187.293 66.6334 187.953C67.7602 188.839 69.2295 190.96 69.1982 191.596C69.1257 192.696 66.7139 191.007 61.4861 186.243C61.1838 185.97 60.9205 185.824 60.9097 185.946C60.8859 186.214 63.5254 190.994 64.2882 192.02C64.8874 192.909 64.9037 193.574 64.2993 194.724C63.1262 196.905 60.0246 198.178 57.524 197.489C55.2933 196.873 53.4459 195.333 51.657 192.57C50.5084 190.797 49.8225 189.188 49.8939 188.383C49.9351 187.92 50.0456 187.807 50.3338 187.956C50.9849 188.259 55.3777 184.324 57.7609 181.243C60.0834 178.28 60.3846 177.717 59.7746 177.515C59.4301 177.436 59.4972 177.245 60.2274 176.376C61.4103 174.933 64.4869 171.963 64.5378 172.237C64.5519 172.362 64.6365 173.106 64.7438 173.878C64.9411 175.615 65.329 175.772 65.4697 174.188C65.526 173.554 65.8541 172.403 66.1748 171.621L66.7781 170.2L66.8291 171.605C66.8595 172.394 66.9777 173.044 67.0774 173.053C67.177 173.062 67.4001 172.246 67.5636 171.253C67.7521 170.262 68.1831 168.802 68.5287 168.021C68.8742 167.241 69.1309 166.33 69.0593 166.004C68.952 165.233 70.7382 161.804 74.0497 156.471L76.5715 152.395L76.499 154.06C76.4201 155.797 76.8611 156.205 77.0083 154.547C77.2182 152.182 78.8982 147.687 80.7981 144.391C81.4524 143.245 81.7102 142.605 81.5845 142.323C81.4339 142.04 82.0535 140.719 83.6155 137.835C84.8449 135.585 86.2 133.052 86.6268 132.205C88.0393 129.308 90.3065 126.119 93.0863 123.097C94.6148 121.439 96.3404 119.258 96.9546 118.281C98.2274 116.108 99.8816 114.167 101.89 112.478C103.221 111.343 103.429 111.263 104.243 111.433C105.057 111.604 105.148 111.71 105.187 112.402L105.194 113.164L105.49 112.379C105.629 111.949 105.865 111.553 106.023 111.468C107.02 110.992 111.146 111.186 113.25 111.815ZM16.7618 106.418C16.9211 107.17 17.01 107.865 16.9537 107.934C16.8952 108.027 15.9645 108.043 14.8866 108.021C12.1326 107.924 9.69284 108.813 7.38647 110.746L5.67808 112.167L5.08432 111.5C4.76361 111.152 4.29011 110.545 4.0734 110.157L3.65623 109.481L4.72218 108.224C7.0588 105.385 10.2157 104.338 14.8646 104.874L16.4572 105.04L16.7618 106.418ZM183.58 125.579C181.721 127.846 180.714 128.445 178.36 128.654C177.574 128.731 176.376 128.649 175.71 128.517C174.454 128.233 174.229 127.943 173.691 126.077L173.503 125.372L174.258 126.201C175.24 127.295 177.537 128.015 178.947 127.698C180.304 127.401 181.462 126.521 182.234 125.189C182.942 123.999 183.692 123.475 184.666 123.537C185.164 123.582 185.072 123.77 183.58 125.579ZM15.8705 109.951C15.8933 110.543 15.9453 110.523 13.46 110.794C12.7742 110.88 11.1004 111.346 9.77545 111.843C7.56649 112.679 6.62719 112.792 6.68131 112.182C6.70512 111.914 8.85338 110.63 10.1285 110.129C11.6907 109.506 13.8087 109.129 14.8509 109.271C15.6689 109.393 15.8596 109.508 15.8705 109.951ZM3.8732 112.695C3.84722 112.987 3.52978 112.885 3.0888 112.478C2.85477 112.285 2.69222 111.853 2.72036 111.536C2.77231 110.951 2.77231 110.951 3.33033 111.737C3.61963 112.156 3.85694 112.595 3.8732 112.695ZM57.6914 179.763C55.4014 182.926 51.3163 186.79 50.3694 186.706C49.9458 186.668 50.2004 186.347 51.8654 184.848C52.9823 183.866 54.8456 182.115 56.0274 180.967C57.1822 179.841 58.1702 178.896 58.2201 178.901C58.2699 178.905 58.0337 179.302 57.6914 179.763ZM49.541 190.662C50.2659 192.397 52.1166 195.313 53.5067 196.911C54.0777 197.552 54.5448 198.232 54.5274 198.427C54.4798 198.963 51.8561 201.925 50.4229 203.075C48.8564 204.312 47.2455 205.201 46.6225 205.146C45.9746 205.088 44.3005 202.163 43.8193 200.228C43.1495 197.589 43.7885 194.918 45.642 192.429C46.1869 191.666 46.6212 191.017 46.5508 190.961C46.3937 190.751 44.7168 192.666 44.004 193.905C41.9264 197.505 42.2583 201.687 44.9303 205.536C45.9553 207.003 46.1504 207.635 45.678 207.863C45.3097 208.052 43.472 205.554 42.9248 204.08C42.3981 202.658 41.8821 199.417 41.9925 198.174C42.2685 195.348 44.4285 191.387 47.1486 188.754L48.8787 187.089L48.908 188.173C48.9308 188.765 49.2072 189.895 49.541 190.662ZM56.8764 200.822C57.3564 201.357 57.7346 201.906 57.7259 202.004C57.7173 202.101 56.8182 203.176 55.7587 204.36C54.1197 206.131 53.6322 206.53 52.8132 206.703C51.6117 206.94 50.6323 206.657 50.3397 205.992C50.175 205.584 50.4317 205.238 51.7804 203.908C52.6872 203.031 53.9319 201.74 54.5699 201.06C55.208 200.379 55.7854 199.816 55.8601 199.823C55.9598 199.832 56.3965 200.288 56.8764 200.822ZM60.3642 204.253L61.0121 204.875L60.2679 205.62C58.6191 207.218 56.3105 208.046 55.8835 207.197C55.7557 206.94 59.2201 203.561 59.544 203.59C59.6415 203.623 60.0186 203.903 60.3642 204.253Z" fill="url(#paint0_linear_289_11447)"/>
<defs>
<linearGradient id="paint0_linear_289_11447" x1="-0.0915203" y1="118.918" x2="270.68" y2="140.535" gradientUnits="userSpaceOnUse">
<stop stop-color="#41A380"/>
<stop offset="1" stop-color="#63D5AC"/>
</linearGradient>
</defs>
</svg>
