<svg width="375" height="238" viewBox="0 0 375 238" fill="none" xmlns="http://www.w3.org/2000/svg">
<g filter="url(#filter0_bd_314_3992)">
<rect x="20" y="29" width="335" height="122" rx="12" fill="#232424"/>
<rect x="20.5" y="29.5" width="334" height="121" rx="11.5" stroke="#2C4B40"/>
</g>
<mask id="mask0_314_3992" style="mask-type:alpha" maskUnits="userSpaceOnUse" x="20" y="29" width="335" height="122">
<rect x="20.5" y="29.5" width="334" height="121" rx="11.5" fill="#232424" stroke="#2C4B40"/>
</mask>
<g mask="url(#mask0_314_3992)">
<path d="M425.607 -1.98107C425.643 -1.32289 425.667 -0.661636 425.679 0.00248718L425.179 0.0115929C425.185 0.340355 425.188 0.66983 425.188 1C425.188 1.33017 425.185 1.65965 425.179 1.98841L425.679 1.99752C425.667 2.66164 425.643 3.32289 425.607 3.98106L425.108 3.95375C425.072 4.61224 425.024 5.2676 424.964 5.91965L425.462 5.96529C425.401 6.62752 425.328 7.28636 425.244 7.94161L424.748 7.87764C424.664 8.53023 424.568 9.17922 424.46 9.82439L424.953 9.90667C424.844 10.5618 424.723 11.213 424.59 11.8601L424.1 11.7596C423.968 12.4046 423.824 13.0455 423.668 13.6821L424.154 13.8007C423.997 14.4458 423.827 15.0864 423.647 15.7224L423.166 15.5858C422.986 16.2182 422.795 16.8459 422.593 17.4688L423.069 17.6231C422.864 18.2545 422.648 18.881 422.421 19.5024L421.951 19.3306C421.725 19.9481 421.488 20.5604 421.24 21.1675L421.703 21.3565C421.452 21.9706 421.19 22.5793 420.918 23.1822L420.462 22.9763C420.192 23.5749 419.91 24.1679 419.618 24.755L420.066 24.9775C419.771 25.5715 419.465 26.1595 419.149 26.7413L418.71 26.5025C418.396 27.0798 418.072 27.6509 417.738 28.2156L418.168 28.4702C417.83 29.0407 417.482 29.6047 417.125 30.162L416.704 29.8919C416.349 30.4446 415.985 30.9906 415.61 31.5297L416.021 31.8149C415.643 32.3593 415.255 32.8968 414.858 33.4271L414.458 33.1273C414.064 33.6529 413.661 34.1713 413.249 34.6824L413.638 34.9963C413.222 35.512 412.797 36.0202 412.363 36.5208L411.985 36.1932C411.555 36.6892 411.116 37.1775 410.668 37.6581L411.034 37.999C410.582 38.4835 410.122 38.9601 409.653 39.4286L409.3 39.075C408.835 39.5389 408.363 39.9948 407.882 40.4424L408.222 40.8084C407.738 41.2596 407.245 41.7025 406.744 42.1368L406.416 41.759C405.92 42.189 405.416 42.6105 404.905 43.0233L405.219 43.4124C404.704 43.828 404.181 44.2349 403.65 44.6328L403.35 44.2329C402.826 44.6266 402.293 45.0115 401.754 45.3872L402.04 45.7975C401.497 46.1759 400.946 46.5452 400.389 46.905L400.118 46.485C399.567 46.8409 399.009 47.1875 398.444 47.5247L398.7 47.954C398.132 48.2931 397.558 48.6226 396.977 48.9424L396.735 48.5044C396.161 48.8206 395.58 49.1271 394.993 49.4238L395.219 49.87C394.628 50.1686 394.031 50.4573 393.429 50.7358L393.219 50.282C392.624 50.5571 392.023 50.8222 391.416 51.0772L391.61 51.5381C391.001 51.7943 390.386 52.0403 389.766 52.2759L389.588 51.8084C388.975 52.0412 388.357 52.2636 387.734 52.4756L387.895 52.949C387.269 53.1621 386.637 53.3647 386.001 53.5567L385.857 53.078C385.23 53.2671 384.598 53.4457 383.962 53.6136L384.09 54.0971C383.451 54.2657 382.808 54.4237 382.16 54.5707L382.049 54.0831C381.41 54.2282 380.767 54.3626 380.12 54.4861L380.213 54.9773C379.564 55.1011 378.911 55.2141 378.254 55.316L378.178 54.8219C377.531 54.9221 376.881 55.0116 376.227 55.09L376.287 55.5864C375.631 55.6651 374.972 55.7328 374.309 55.7893L374.267 55.2911C373.614 55.3467 372.957 55.3914 372.298 55.425L372.324 55.9243C371.665 55.9578 371.004 55.9803 370.34 55.9916L370.332 55.4916C370.003 55.4972 369.673 55.5 369.343 55.5C369.012 55.5 368.683 55.4972 368.354 55.4916L368.345 55.9916C367.681 55.9803 367.02 55.9578 366.362 55.9243L366.387 55.425C365.728 55.3914 365.072 55.3467 364.418 55.2911L364.376 55.7893C363.713 55.7328 363.054 55.6651 362.398 55.5864L362.458 55.09C361.804 55.0116 361.154 54.9221 360.508 54.8219L360.431 55.316C359.774 55.2141 359.121 55.1011 358.472 54.9773L358.566 54.4861C357.918 54.3626 357.275 54.2282 356.636 54.0831L356.525 54.5707C355.878 54.4237 355.234 54.2657 354.596 54.0971L354.723 53.6136C354.087 53.4457 353.455 53.2671 352.829 53.078L352.684 53.5567C352.048 53.3647 351.416 53.1621 350.79 52.949L350.951 52.4756C350.328 52.2636 349.71 52.0412 349.097 51.8084L348.92 52.2759C348.299 52.0403 347.684 51.7943 347.075 51.5381L347.269 51.0772C346.662 50.8222 346.061 50.5571 345.466 50.282L345.256 50.7358C344.654 50.4573 344.057 50.1686 343.466 49.87L343.692 49.4238C343.105 49.1271 342.524 48.8206 341.95 48.5044L341.709 48.9424C341.128 48.6226 340.553 48.2931 339.985 47.954L340.241 47.5247C339.677 47.1875 339.119 46.8409 338.567 46.485L338.296 46.905C337.739 46.5452 337.189 46.1759 336.645 45.7975L336.931 45.3872C336.392 45.0115 335.86 44.6266 335.335 44.2329L335.035 44.6328C334.505 44.2349 333.982 43.8281 333.467 43.4124L333.781 43.0233C333.269 42.6105 332.765 42.189 332.269 41.759L331.942 42.1368C331.441 41.7025 330.948 41.2596 330.463 40.8084L330.804 40.4424C330.323 39.9948 329.85 39.5389 329.386 39.075L329.032 39.4286C328.563 38.9601 328.103 38.4835 327.652 37.999L328.017 37.6581C327.57 37.1775 327.13 36.6892 326.7 36.1932L326.322 36.5208C325.888 36.0202 325.463 35.512 325.047 34.9963L325.436 34.6824C325.024 34.1713 324.621 33.6529 324.227 33.1273L323.827 33.4271C323.43 32.8968 323.042 32.3593 322.664 31.8149L323.075 31.5297C322.701 30.9906 322.336 30.4446 321.981 29.8919L321.561 30.162C321.203 29.6047 320.855 29.0407 320.517 28.4702L320.948 28.2156C320.614 27.6509 320.29 27.0798 319.976 26.5026L319.536 26.7413C319.22 26.1595 318.914 25.5715 318.619 24.9776L319.067 24.755C318.775 24.1679 318.494 23.5749 318.223 22.9763L317.767 23.1823C317.495 22.5793 317.233 21.9706 316.982 21.3565L317.445 21.1675C317.197 20.5605 316.96 19.9481 316.734 19.3306L316.265 19.5024C316.037 18.881 315.821 18.2545 315.616 17.6231L316.092 17.4688C315.89 16.8459 315.699 16.2182 315.519 15.5859L315.038 15.7224C314.858 15.0864 314.689 14.4458 314.531 13.8007L315.017 13.6821C314.861 13.0455 314.717 12.4046 314.585 11.7596L314.095 11.8601C313.963 11.213 313.841 10.5618 313.732 9.90667L314.225 9.8244C314.118 9.17922 314.022 8.53023 313.937 7.87764L313.442 7.94162C313.357 7.28636 313.284 6.62752 313.224 5.9653L313.721 5.91965C313.662 5.26761 313.614 4.61224 313.578 3.95375L313.078 3.98107C313.042 3.32289 313.018 2.66164 313.006 1.99752L313.506 1.98841C313.5 1.65965 313.497 1.33017 313.497 1C313.497 0.66983 313.5 0.340351 313.506 0.0115891L313.006 0.00247955C313.018 -0.66164 313.042 -1.32289 313.078 -1.98106L313.578 -1.95375C313.614 -2.61224 313.662 -3.2676 313.721 -3.91965L313.224 -3.96529C313.284 -4.62752 313.357 -5.28636 313.442 -5.94162L313.937 -5.87764C314.022 -6.53023 314.118 -7.17922 314.225 -7.82439L313.732 -7.90667C313.841 -8.56176 313.963 -9.21297 314.095 -9.86008L314.585 -9.75959C314.717 -10.4046 314.861 -11.0455 315.017 -11.6821L314.531 -11.8007C314.689 -12.4458 314.858 -13.0864 315.038 -13.7224L315.519 -13.5858C315.699 -14.2182 315.89 -14.8459 316.092 -15.4688L315.616 -15.6231C315.821 -16.2545 316.037 -16.881 316.265 -17.5024L316.734 -17.3306C316.96 -17.9481 317.197 -18.5604 317.445 -19.1675L316.982 -19.3565C317.233 -19.9706 317.495 -20.5793 317.767 -21.1822L318.223 -20.9763C318.494 -21.5749 318.775 -22.1679 319.067 -22.755L318.619 -22.9775C318.914 -23.5715 319.22 -24.1595 319.536 -24.7413L319.976 -24.5025C320.29 -25.0798 320.614 -25.6509 320.948 -26.2156L320.517 -26.4702C320.855 -27.0407 321.203 -27.6047 321.561 -28.162L321.981 -27.8919C322.336 -28.4446 322.701 -28.9906 323.075 -29.5297L322.664 -29.8149C323.042 -30.3593 323.43 -30.8968 323.827 -31.4271L324.227 -31.1273C324.621 -31.6529 325.024 -32.1713 325.436 -32.6824L325.047 -32.9963C325.463 -33.512 325.888 -34.0202 326.322 -34.5208L326.7 -34.1932C327.13 -34.6892 327.57 -35.1775 328.017 -35.6581L327.652 -35.999C328.103 -36.4835 328.563 -36.9601 329.032 -37.4286L329.386 -37.075C329.85 -37.5389 330.323 -37.9948 330.804 -38.4424L330.463 -38.8084C330.948 -39.2596 331.441 -39.7025 331.942 -40.1368L332.269 -39.759C332.765 -40.189 333.269 -40.6105 333.781 -41.0233L333.467 -41.4124C333.982 -41.828 334.505 -42.2349 335.035 -42.6328L335.335 -42.2329C335.86 -42.6266 336.392 -43.0115 336.931 -43.3872L336.645 -43.7975C337.189 -44.1759 337.739 -44.5452 338.296 -44.905L338.567 -44.485C339.119 -44.8409 339.677 -45.1875 340.241 -45.5247L339.985 -45.954C340.553 -46.2931 341.128 -46.6226 341.709 -46.9424L341.95 -46.5044C342.524 -46.8206 343.105 -47.1271 343.692 -47.4238L343.466 -47.87C344.057 -48.1686 344.654 -48.4573 345.256 -48.7358L345.466 -48.282C346.061 -48.5571 346.662 -48.8222 347.269 -49.0772L347.075 -49.5381C347.684 -49.7943 348.299 -50.0403 348.92 -50.2759L349.097 -49.8084C349.71 -50.0412 350.328 -50.2636 350.951 -50.4756L350.79 -50.949C351.416 -51.1621 352.048 -51.3647 352.684 -51.5567L352.829 -51.078C353.455 -51.2671 354.087 -51.4457 354.723 -51.6136L354.596 -52.0971C355.234 -52.2657 355.878 -52.4236 356.525 -52.5707L356.636 -52.0831C357.275 -52.2282 357.918 -52.3626 358.566 -52.4861L358.472 -52.9773C359.121 -53.1011 359.774 -53.2141 360.431 -53.316L360.508 -52.8219C361.154 -52.9221 361.804 -53.0116 362.458 -53.09L362.398 -53.5864C363.054 -53.6651 363.713 -53.7328 364.376 -53.7893L364.418 -53.2911C365.072 -53.3467 365.728 -53.3914 366.387 -53.425L366.362 -53.9243C367.02 -53.9578 367.681 -53.9803 368.345 -53.9916L368.354 -53.4916C368.683 -53.4972 369.012 -53.5 369.343 -53.5C369.673 -53.5 370.003 -53.4972 370.332 -53.4916L370.34 -53.9916C371.004 -53.9803 371.665 -53.9578 372.324 -53.9243L372.298 -53.425C372.957 -53.3915 373.614 -53.3467 374.267 -53.2911L374.309 -53.7893C374.972 -53.7328 375.631 -53.6651 376.287 -53.5864L376.227 -53.09C376.881 -53.0116 377.531 -52.9221 378.178 -52.8219L378.254 -53.316C378.911 -53.2141 379.564 -53.1011 380.213 -52.9773L380.12 -52.4861C380.767 -52.3626 381.41 -52.2282 382.049 -52.0831L382.16 -52.5707C382.808 -52.4237 383.451 -52.2657 384.09 -52.0971L383.962 -51.6136C384.598 -51.4457 385.23 -51.2671 385.857 -51.078L386.001 -51.5567C386.637 -51.3647 387.269 -51.1621 387.895 -50.949L387.734 -50.4756C388.357 -50.2636 388.975 -50.0412 389.588 -49.8084L389.766 -50.2759C390.386 -50.0403 391.001 -49.7943 391.61 -49.5381L391.416 -49.0772C392.023 -48.8222 392.624 -48.5571 393.219 -48.282L393.429 -48.7358C394.031 -48.4573 394.628 -48.1686 395.219 -47.87L394.993 -47.4238C395.58 -47.1271 396.161 -46.8206 396.735 -46.5044L396.977 -46.9424C397.558 -46.6226 398.132 -46.2931 398.7 -45.954L398.444 -45.5247C399.009 -45.1875 399.567 -44.8409 400.118 -44.485L400.389 -44.905C400.946 -44.5452 401.497 -44.1759 402.04 -43.7975L401.754 -43.3872C402.293 -43.0115 402.826 -42.6266 403.35 -42.2329L403.65 -42.6328C404.181 -42.2349 404.704 -41.8281 405.219 -41.4124L404.905 -41.0233C405.416 -40.6105 405.92 -40.189 406.416 -39.759L406.744 -40.1368C407.245 -39.7025 407.738 -39.2596 408.222 -38.8084L407.882 -38.4424C408.363 -37.9948 408.835 -37.5389 409.3 -37.075L409.653 -37.4286C410.122 -36.9601 410.582 -36.4835 411.034 -35.999L410.668 -35.6581C411.116 -35.1775 411.555 -34.6892 411.985 -34.1932L412.363 -34.5208C412.797 -34.0203 413.222 -33.512 413.638 -32.9963L413.249 -32.6824C413.661 -32.1713 414.064 -31.6529 414.458 -31.1274L414.858 -31.4271C415.255 -30.8968 415.643 -30.3593 416.021 -29.8149L415.61 -29.5297C415.985 -28.9906 416.349 -28.4446 416.704 -27.8919L417.125 -28.162C417.482 -27.6047 417.83 -27.0407 418.168 -26.4702L417.738 -26.2156C418.072 -25.6509 418.396 -25.0798 418.71 -24.5026L419.149 -24.7413C419.465 -24.1595 419.771 -23.5715 420.066 -22.9776L419.618 -22.755C419.91 -22.1679 420.192 -21.5749 420.462 -20.9763L420.918 -21.1823C421.19 -20.5793 421.452 -19.9706 421.703 -19.3565L421.24 -19.1675C421.488 -18.5605 421.725 -17.9481 421.951 -17.3306L422.421 -17.5024C422.648 -16.881 422.864 -16.2545 423.069 -15.6231L422.593 -15.4688C422.795 -14.8459 422.986 -14.2182 423.166 -13.5859L423.647 -13.7224C423.827 -13.0864 423.997 -12.4458 424.154 -11.8007L423.668 -11.6821C423.824 -11.0455 423.968 -10.4046 424.1 -9.7596L424.59 -9.86009C424.723 -9.21298 424.844 -8.56177 424.953 -7.90667L424.46 -7.8244C424.568 -7.17922 424.664 -6.53023 424.748 -5.87764L425.244 -5.94162C425.328 -5.28636 425.401 -4.62752 425.462 -3.9653L424.964 -3.91965C425.024 -3.26761 425.072 -2.61224 425.108 -1.95375L425.607 -1.98107Z" stroke="#EBEBEB" stroke-dasharray="2 2"/>
<ellipse cx="19.9999" cy="23.5" rx="36.8807" ry="37.5" fill="url(#paint0_linear_314_3992)"/>
<g filter="url(#filter1_f_314_3992)">
<ellipse cx="191.086" cy="191" rx="56.3456" ry="55" fill="#49AF8B" fill-opacity="0.45"/>
</g>
<g filter="url(#filter2_f_314_3992)">
<ellipse cx="48.6852" cy="210" rx="32.7829" ry="32" fill="#2C4B40"/>
</g>
</g>
<defs>
<filter id="filter0_bd_314_3992" x="-38" y="0" width="451" height="238" filterUnits="userSpaceOnUse" color-interpolation-filters="sRGB">
<feFlood flood-opacity="0" result="BackgroundImageFix"/>
<feGaussianBlur in="BackgroundImage" stdDeviation="8"/>
<feComposite in2="SourceAlpha" operator="in" result="effect1_backgroundBlur_314_3992"/>
<feColorMatrix in="SourceAlpha" type="matrix" values="0 0 0 0 0 0 0 0 0 0 0 0 0 0 0 0 0 0 127 0" result="hardAlpha"/>
<feOffset dy="29"/>
<feGaussianBlur stdDeviation="29"/>
<feComposite in2="hardAlpha" operator="out"/>
<feColorMatrix type="matrix" values="0 0 0 0 0.17625 0 0 0 0 0.45 0 0 0 0 0.35145 0 0 0 0.15 0"/>
<feBlend mode="normal" in2="effect1_backgroundBlur_314_3992" result="effect2_dropShadow_314_3992"/>
<feBlend mode="normal" in="SourceGraphic" in2="effect2_dropShadow_314_3992" result="shape"/>
</filter>
<filter id="filter1_f_314_3992" x="11.7402" y="13" width="358.691" height="356" filterUnits="userSpaceOnUse" color-interpolation-filters="sRGB">
<feFlood flood-opacity="0" result="BackgroundImageFix"/>
<feBlend mode="normal" in="SourceGraphic" in2="BackgroundImageFix" result="shape"/>
<feGaussianBlur stdDeviation="61.5" result="effect1_foregroundBlur_314_3992"/>
</filter>
<filter id="filter2_f_314_3992" x="-107.098" y="55" width="311.565" height="310" filterUnits="userSpaceOnUse" color-interpolation-filters="sRGB">
<feFlood flood-opacity="0" result="BackgroundImageFix"/>
<feBlend mode="normal" in="SourceGraphic" in2="BackgroundImageFix" result="shape"/>
<feGaussianBlur stdDeviation="61.5" result="effect1_foregroundBlur_314_3992"/>
</filter>
<linearGradient id="paint0_linear_314_3992" x1="-16.8809" y1="16" x2="57.6016" y2="16.54" gradientUnits="userSpaceOnUse">
<stop stop-color="#41A380"/>
<stop offset="1" stop-color="#63D5AC"/>
</linearGradient>
</defs>
</svg>
