<svg width="335" height="122" viewBox="0 0 335 122" fill="none" xmlns="http://www.w3.org/2000/svg">
<mask id="mask0_314_3994" style="mask-type:alpha" maskUnits="userSpaceOnUse" x="0" y="0" width="335" height="122">
<rect x="0.5" y="0.5" width="334" height="121" rx="11.5" fill="#232424" stroke="#2C4B40"/>
</mask>
<g mask="url(#mask0_314_3994)">
<path d="M405.607 -30.9811C405.643 -30.3229 405.667 -29.6616 405.679 -28.9975L405.179 -28.9884C405.185 -28.6596 405.188 -28.3302 405.188 -28C405.188 -27.6698 405.185 -27.3404 405.179 -27.0116L405.679 -27.0025C405.667 -26.3384 405.643 -25.6771 405.607 -25.0189L405.108 -25.0463C405.072 -24.3878 405.024 -23.7324 404.964 -23.0803L405.462 -23.0347C405.401 -22.3725 405.328 -21.7136 405.244 -21.0584L404.748 -21.1224C404.664 -20.4698 404.568 -19.8208 404.46 -19.1756L404.953 -19.0933C404.844 -18.4382 404.723 -17.787 404.59 -17.1399L404.1 -17.2404C403.968 -16.5954 403.824 -15.9545 403.668 -15.3179L404.154 -15.1993C403.997 -14.5542 403.827 -13.9136 403.647 -13.2776L403.166 -13.4142C402.986 -12.7818 402.795 -12.1541 402.593 -11.5312L403.069 -11.3769C402.864 -10.7455 402.648 -10.119 402.421 -9.49764L401.951 -9.66945C401.725 -9.05193 401.488 -8.43955 401.24 -7.83254L401.703 -7.6435C401.452 -7.0294 401.19 -6.42074 400.918 -5.81776L400.462 -6.02373C400.192 -5.4251 399.91 -4.83211 399.618 -4.245L400.066 -4.02245C399.771 -3.42848 399.465 -2.84048 399.149 -2.25868L398.71 -2.49747C398.396 -1.92023 398.072 -1.34914 397.738 -0.784439L398.168 -0.529808C397.83 0.0406723 397.482 0.604691 397.125 1.16199L396.704 0.891899C396.349 1.44456 395.985 1.99059 395.61 2.52973L396.021 2.81486C395.643 3.35931 395.255 3.8968 394.858 4.42709L394.458 4.12734C394.064 4.6529 393.661 5.17133 393.249 5.68239L393.638 5.9963C393.222 6.51199 392.797 7.02023 392.363 7.52081L391.985 7.19318C391.555 7.68916 391.116 8.17754 390.668 8.65807L391.034 8.99897C390.582 9.48351 390.122 9.96014 389.653 10.4286L389.3 10.075C388.835 10.5389 388.363 10.9948 387.882 11.4424L388.222 11.8084C387.738 12.2596 387.245 12.7025 386.744 13.1368L386.416 12.759C385.92 13.189 385.416 13.6105 384.905 14.0233L385.219 14.4124C384.704 14.828 384.181 15.2349 383.65 15.6328L383.35 15.2329C382.826 15.6266 382.293 16.0115 381.754 16.3872L382.04 16.7975C381.497 17.1759 380.946 17.5452 380.389 17.905L380.118 17.485C379.567 17.8409 379.009 18.1875 378.444 18.5247L378.7 18.954C378.132 19.2931 377.558 19.6226 376.977 19.9424L376.735 19.5044C376.161 19.8206 375.58 20.1271 374.993 20.4238L375.219 20.87C374.628 21.1686 374.031 21.4573 373.429 21.7358L373.219 21.282C372.624 21.5571 372.023 21.8222 371.416 22.0772L371.61 22.5381C371.001 22.7943 370.386 23.0403 369.766 23.2759L369.588 22.8084C368.975 23.0412 368.357 23.2636 367.734 23.4756L367.895 23.949C367.269 24.1621 366.637 24.3647 366.001 24.5567L365.857 24.078C365.23 24.2671 364.598 24.4457 363.962 24.6136L364.09 25.0971C363.451 25.2657 362.808 25.4237 362.16 25.5707L362.049 25.0831C361.41 25.2282 360.767 25.3626 360.12 25.4861L360.213 25.9773C359.564 26.1011 358.911 26.2141 358.254 26.316L358.178 25.8219C357.531 25.9221 356.881 26.0116 356.227 26.09L356.287 26.5864C355.631 26.6651 354.972 26.7328 354.309 26.7893L354.267 26.2911C353.614 26.3467 352.957 26.3914 352.298 26.425L352.324 26.9243C351.665 26.9578 351.004 26.9803 350.34 26.9916L350.332 26.4916C350.003 26.4972 349.673 26.5 349.343 26.5C349.012 26.5 348.683 26.4972 348.354 26.4916L348.345 26.9916C347.681 26.9803 347.02 26.9578 346.362 26.9243L346.387 26.425C345.728 26.3914 345.072 26.3467 344.418 26.2911L344.376 26.7893C343.713 26.7328 343.054 26.6651 342.398 26.5864L342.458 26.09C341.804 26.0116 341.154 25.9221 340.508 25.8219L340.431 26.316C339.774 26.2141 339.121 26.1011 338.472 25.9773L338.566 25.4861C337.918 25.3626 337.275 25.2282 336.636 25.0831L336.525 25.5707C335.878 25.4237 335.234 25.2657 334.596 25.0971L334.723 24.6136C334.087 24.4457 333.455 24.2671 332.829 24.078L332.684 24.5567C332.048 24.3647 331.416 24.1621 330.79 23.949L330.951 23.4756C330.328 23.2636 329.71 23.0412 329.097 22.8084L328.92 23.2759C328.299 23.0403 327.684 22.7943 327.075 22.5381L327.269 22.0772C326.662 21.8222 326.061 21.5571 325.466 21.282L325.256 21.7358C324.654 21.4573 324.057 21.1686 323.466 20.87L323.692 20.4238C323.105 20.1271 322.524 19.8206 321.95 19.5044L321.709 19.9424C321.128 19.6226 320.553 19.2931 319.985 18.954L320.241 18.5247C319.677 18.1875 319.119 17.8409 318.567 17.485L318.296 17.905C317.739 17.5452 317.189 17.1759 316.645 16.7975L316.931 16.3872C316.392 16.0115 315.86 15.6266 315.335 15.2329L315.035 15.6328C314.505 15.2349 313.982 14.8281 313.467 14.4124L313.781 14.0233C313.269 13.6105 312.765 13.189 312.269 12.759L311.942 13.1368C311.441 12.7025 310.948 12.2596 310.463 11.8084L310.804 11.4424C310.323 10.9948 309.85 10.5389 309.386 10.075L309.032 10.4286C308.563 9.96014 308.103 9.48351 307.652 8.99898L308.017 8.65809C307.57 8.17754 307.13 7.68916 306.7 7.19319L306.322 7.52082C305.888 7.02025 305.463 6.51201 305.047 5.99632L305.436 5.6824C305.024 5.17134 304.621 4.65291 304.227 4.12735L303.827 4.42709C303.43 3.8968 303.042 3.35932 302.664 2.81487L303.075 2.52974C302.701 1.9906 302.336 1.44458 301.981 0.891914L301.561 1.162C301.203 0.604698 300.855 0.0406952 300.517 -0.529785L300.948 -0.784424C300.614 -1.34912 300.29 -1.92021 299.976 -2.49744L299.536 -2.25866C299.22 -2.84046 298.914 -3.42846 298.619 -4.02243L299.067 -4.24498C298.775 -4.83209 298.494 -5.42508 298.223 -6.0237L297.767 -5.81774C297.495 -6.42072 297.233 -7.02937 296.982 -7.64348L297.445 -7.83252C297.197 -8.43953 296.96 -9.05191 296.734 -9.66943L296.265 -9.49763C296.037 -10.119 295.821 -10.7455 295.616 -11.3769L296.092 -11.5312C295.89 -12.1541 295.699 -12.7818 295.519 -13.4141L295.038 -13.2776C294.858 -13.9136 294.689 -14.5542 294.531 -15.1993L295.017 -15.3179C294.861 -15.9545 294.717 -16.5954 294.585 -17.2404L294.095 -17.1399C293.963 -17.787 293.841 -18.4382 293.732 -19.0933L294.225 -19.1756C294.118 -19.8208 294.022 -20.4698 293.937 -21.1224L293.442 -21.0584C293.357 -21.7136 293.284 -22.3725 293.224 -23.0347L293.721 -23.0803C293.662 -23.7324 293.614 -24.3878 293.578 -25.0462L293.078 -25.0189C293.042 -25.6771 293.018 -26.3384 293.006 -27.0025L293.506 -27.0116C293.5 -27.3404 293.497 -27.6698 293.497 -28C293.497 -28.3302 293.5 -28.6596 293.506 -28.9884L293.006 -28.9975C293.018 -29.6616 293.042 -30.3229 293.078 -30.9811L293.578 -30.9537C293.614 -31.6122 293.662 -32.2676 293.721 -32.9197L293.224 -32.9653C293.284 -33.6275 293.357 -34.2864 293.442 -34.9416L293.937 -34.8776C294.022 -35.5302 294.118 -36.1792 294.225 -36.8244L293.732 -36.9067C293.841 -37.5618 293.963 -38.213 294.095 -38.8601L294.585 -38.7596C294.717 -39.4046 294.861 -40.0455 295.017 -40.6821L294.531 -40.8007C294.689 -41.4458 294.858 -42.0864 295.038 -42.7224L295.519 -42.5858C295.699 -43.2182 295.89 -43.8459 296.092 -44.4688L295.616 -44.6231C295.821 -45.2545 296.037 -45.881 296.265 -46.5024L296.734 -46.3306C296.96 -46.9481 297.197 -47.5604 297.445 -48.1675L296.982 -48.3565C297.233 -48.9706 297.495 -49.5793 297.767 -50.1822L298.223 -49.9763C298.494 -50.5749 298.775 -51.1679 299.067 -51.755L298.619 -51.9776C298.914 -52.5715 299.22 -53.1595 299.536 -53.7413L299.976 -53.5025C300.29 -54.0798 300.614 -54.6509 300.948 -55.2156L300.517 -55.4702C300.855 -56.0407 301.203 -56.6047 301.561 -57.162L301.981 -56.8919C302.336 -57.4446 302.701 -57.9906 303.075 -58.5297L302.664 -58.8149C303.042 -59.3593 303.43 -59.8968 303.827 -60.4271L304.227 -60.1273C304.621 -60.6529 305.024 -61.1713 305.436 -61.6824L305.047 -61.9963C305.463 -62.512 305.888 -63.0202 306.322 -63.5208L306.7 -63.1932C307.13 -63.6892 307.57 -64.1775 308.017 -64.6581L307.652 -64.999C308.103 -65.4835 308.563 -65.9601 309.032 -66.4286L309.386 -66.075C309.85 -66.5389 310.323 -66.9948 310.804 -67.4424L310.463 -67.8084C310.948 -68.2596 311.441 -68.7025 311.942 -69.1368L312.269 -68.759C312.765 -69.189 313.269 -69.6105 313.781 -70.0233L313.467 -70.4124C313.982 -70.828 314.505 -71.2349 315.035 -71.6328L315.335 -71.2329C315.86 -71.6266 316.392 -72.0115 316.931 -72.3872L316.645 -72.7975C317.189 -73.1759 317.739 -73.5452 318.296 -73.905L318.567 -73.485C319.119 -73.8409 319.677 -74.1875 320.241 -74.5247L319.985 -74.954C320.553 -75.2931 321.128 -75.6226 321.709 -75.9424L321.95 -75.5044C322.524 -75.8206 323.105 -76.1271 323.692 -76.4238L323.466 -76.87C324.057 -77.1686 324.654 -77.4573 325.256 -77.7358L325.466 -77.282C326.061 -77.5571 326.662 -77.8222 327.269 -78.0772L327.075 -78.5381C327.684 -78.7943 328.299 -79.0403 328.92 -79.2759L329.097 -78.8084C329.71 -79.0412 330.328 -79.2636 330.951 -79.4756L330.79 -79.949C331.416 -80.1621 332.048 -80.3647 332.684 -80.5567L332.829 -80.078C333.455 -80.2671 334.087 -80.4457 334.723 -80.6136L334.596 -81.0971C335.234 -81.2657 335.878 -81.4236 336.525 -81.5707L336.636 -81.0831C337.275 -81.2282 337.918 -81.3626 338.566 -81.4861L338.472 -81.9773C339.121 -82.1011 339.774 -82.2141 340.431 -82.316L340.508 -81.8219C341.154 -81.9221 341.804 -82.0116 342.458 -82.09L342.398 -82.5864C343.054 -82.6651 343.713 -82.7328 344.376 -82.7893L344.418 -82.2911C345.072 -82.3467 345.728 -82.3914 346.387 -82.425L346.362 -82.9243C347.02 -82.9578 347.681 -82.9803 348.345 -82.9916L348.354 -82.4916C348.683 -82.4972 349.012 -82.5 349.343 -82.5C349.673 -82.5 350.003 -82.4972 350.332 -82.4916L350.34 -82.9916C351.004 -82.9803 351.665 -82.9578 352.324 -82.9243L352.298 -82.425C352.957 -82.3915 353.614 -82.3467 354.267 -82.2911L354.309 -82.7893C354.972 -82.7328 355.631 -82.6651 356.287 -82.5864L356.227 -82.09C356.881 -82.0116 357.531 -81.9221 358.178 -81.8219L358.254 -82.316C358.911 -82.2141 359.564 -82.1011 360.213 -81.9773L360.12 -81.4861C360.767 -81.3626 361.41 -81.2282 362.049 -81.0831L362.16 -81.5707C362.808 -81.4237 363.451 -81.2657 364.09 -81.0971L363.962 -80.6136C364.598 -80.4457 365.23 -80.2671 365.857 -80.078L366.001 -80.5567C366.637 -80.3647 367.269 -80.1621 367.895 -79.949L367.734 -79.4756C368.357 -79.2636 368.975 -79.0412 369.588 -78.8084L369.766 -79.2759C370.386 -79.0403 371.001 -78.7943 371.61 -78.5381L371.416 -78.0772C372.023 -77.8222 372.624 -77.5571 373.219 -77.282L373.429 -77.7358C374.031 -77.4573 374.628 -77.1686 375.219 -76.87L374.993 -76.4238C375.58 -76.1271 376.161 -75.8206 376.735 -75.5044L376.977 -75.9424C377.558 -75.6226 378.132 -75.2931 378.7 -74.954L378.444 -74.5247C379.009 -74.1875 379.567 -73.8409 380.118 -73.485L380.389 -73.905C380.946 -73.5452 381.497 -73.1759 382.04 -72.7975L381.754 -72.3872C382.293 -72.0115 382.826 -71.6266 383.35 -71.2329L383.65 -71.6328C384.181 -71.2349 384.704 -70.8281 385.219 -70.4124L384.905 -70.0233C385.416 -69.6105 385.92 -69.189 386.416 -68.759L386.744 -69.1368C387.245 -68.7025 387.738 -68.2596 388.222 -67.8084L387.882 -67.4424C388.363 -66.9948 388.835 -66.5389 389.3 -66.075L389.653 -66.4286C390.122 -65.9601 390.582 -65.4835 391.034 -64.999L390.668 -64.6581C391.116 -64.1775 391.555 -63.6892 391.985 -63.1932L392.363 -63.5208C392.797 -63.0203 393.222 -62.512 393.638 -61.9963L393.249 -61.6824C393.661 -61.1713 394.064 -60.6529 394.458 -60.1274L394.858 -60.4271C395.255 -59.8968 395.643 -59.3593 396.021 -58.8149L395.61 -58.5297C395.985 -57.9906 396.349 -57.4446 396.704 -56.8919L397.125 -57.162C397.482 -56.6047 397.83 -56.0407 398.168 -55.4702L397.738 -55.2156C398.072 -54.6509 398.396 -54.0798 398.71 -53.5026L399.149 -53.7413C399.465 -53.1595 399.771 -52.5715 400.066 -51.9776L399.618 -51.755C399.91 -51.1679 400.192 -50.5749 400.462 -49.9763L400.918 -50.1823C401.19 -49.5793 401.452 -48.9706 401.703 -48.3565L401.24 -48.1675C401.488 -47.5605 401.725 -46.9481 401.951 -46.3306L402.421 -46.5024C402.648 -45.881 402.864 -45.2545 403.069 -44.6231L402.593 -44.4688C402.795 -43.8459 402.986 -43.2182 403.166 -42.5859L403.647 -42.7224C403.827 -42.0864 403.997 -41.4458 404.154 -40.8007L403.668 -40.6821C403.824 -40.0455 403.968 -39.4046 404.1 -38.7596L404.59 -38.8601C404.723 -38.213 404.844 -37.5618 404.953 -36.9067L404.46 -36.8244C404.568 -36.1792 404.664 -35.5302 404.748 -34.8776L405.244 -34.9416C405.328 -34.2864 405.401 -33.6275 405.462 -32.9653L404.964 -32.9197C405.024 -32.2676 405.072 -31.6122 405.108 -30.9538L405.607 -30.9811Z" stroke="#EBEBEB" stroke-dasharray="2 2"/>
<ellipse cx="-0.000125885" cy="-5.5" rx="36.8807" ry="37.5" fill="url(#paint0_linear_314_3994)"/>
</g>
<defs>
<linearGradient id="paint0_linear_314_3994" x1="-36.8809" y1="-13" x2="37.6016" y2="-12.46" gradientUnits="userSpaceOnUse">
<stop stop-color="#41A380"/>
<stop offset="1" stop-color="#63D5AC"/>
</linearGradient>
</defs>
</svg>
