<svg width="375" height="1027" viewBox="0 0 375 1027" fill="none" xmlns="http://www.w3.org/2000/svg">
<path d="M167.622 12.6682C104.42 48.2842 64.182 32.4358 24.7377 38.9364C-29.3887 66.7892 -7.28678 130.586 -17.601 174.351C-27.9153 218.116 -35.5189 286.426 -31.4597 326.124C-27.4005 365.823 -51.5314 415.826 -59.1242 474.049C-66.7171 532.272 -21.07 612.34 -31.5258 664.028C-41.9816 715.716 -170.512 800.49 -160.498 907.3C-150.485 1014.11 23.4779 1025.3 150.277 1015.37C258.873 1006.87 304.388 1051.07 442.035 1003.37C543.093 968.349 471.52 776.722 431.553 745.748C391.585 714.774 410.501 667.597 436.021 639.954C461.542 612.311 421.651 490.004 416.611 471.902C411.571 453.8 369.682 385.161 399.311 294.189C428.939 203.217 371.545 105.648 353.707 70.0263C335.87 34.4044 230.825 -22.9478 167.622 12.6682Z" fill="#232424" stroke="#2C4B40"/>
</svg>
