<svg width="657" height="1025" viewBox="0 0 657 1025" fill="none" xmlns="http://www.w3.org/2000/svg">
<path d="M329.642 12.65C266.44 48.2133 226.202 32.3868 186.758 38.8771C132.632 66.6886 154.736 130.394 144.423 174.096C134.109 217.798 126.507 286.009 130.567 325.651C134.627 365.293 110.498 415.223 102.906 473.362C95.3147 531.502 140.964 611.455 130.509 663.069C120.054 714.682 -8.47358 799.331 1.54203 905.988C11.5576 1012.64 185.521 1023.82 312.32 1013.91C420.916 1005.42 466.432 1049.56 604.077 1001.93C705.134 966.965 633.557 775.612 593.589 744.682C553.62 713.752 572.536 666.642 598.055 639.04C623.575 611.437 583.682 489.305 578.641 471.229C573.6 453.153 531.71 384.612 561.337 293.771C590.963 202.931 533.566 105.501 515.728 69.9299C497.89 34.3588 392.844 -22.9134 329.642 12.65Z" fill="#E2F9F2" stroke="#77DBB7"/>
</svg>
