<svg width="1537" height="879" viewBox="0 0 1537 879" fill="none" xmlns="http://www.w3.org/2000/svg">
<path d="M1148.63 38.0158C1041.83 54.4158 869.8 26.1825 797.134 10.0158C790.634 8.59499 643.134 -6.98413 551.134 26.5159C459.134 60.0159 408.634 3.51579 193.134 1.01579C-22.3663 -1.48421 36.6337 293.516 5.63372 442.016C-25.3663 590.516 106.134 697.516 193.134 700.016C280.134 702.516 325.134 752.516 489.634 838.516C654.134 924.516 923.134 851.016 1007.63 804.016C1092.13 757.016 1320.63 791.016 1454.13 774.516C1587.63 758.016 1527.13 620.516 1487.13 494.516C1447.13 368.516 1543.63 207.516 1487.13 121.516C1430.63 35.5158 1282.13 17.5158 1148.63 38.0158Z" fill="#232424" stroke="#2C4B40"/>
</svg>
