<?xml version="1.0" encoding="utf-8"?>
<!-- Generator: Adobe Illustrator 24.0.1, SVG Export Plug-In . SVG Version: 6.00 Build 0)  -->
<svg version="1.1" id="Слой_1" xmlns="http://www.w3.org/2000/svg" x="0px" y="0px"
	 viewBox="0 0 1630 879" style="enable-background:new 0 0 1630 879;" xml:space="preserve">
<style type="text/css">
	.st0{fill:#232424;stroke:#2C4B40;}
	.st1{fill:url(#SVGID_1_);}
	.st2{fill-rule:evenodd;clip-rule:evenodd;fill:#318265;}
	.st3{fill:#99ECC4;}
	.st4{opacity:0.2;}
	.st5{fill:none;stroke:#202020;stroke-linecap:round;stroke-dasharray:11,11;}
	.st6{fill:none;stroke:#000000;stroke-linecap:round;stroke-opacity:0.2;stroke-dasharray:11,11;}
	.st7{fill:url(#SVGID_2_);}
	.st8{fill:url(#SVGID_3_);}
	.st9{fill:url(#SVGID_4_);}
	.st10{fill:url(#SVGID_5_);}
	.st11{fill:url(#SVGID_6_);}
	.st12{fill:url(#SVGID_7_);}
	.st13{fill:url(#SVGID_8_);}
	.st14{fill:url(#SVGID_9_);}
	.st15{fill:url(#SVGID_10_);}
	.st16{fill:url(#SVGID_11_);}
	.st17{fill:url(#SVGID_12_);}
	.st18{fill:url(#SVGID_13_);}
	.st19{fill:url(#SVGID_14_);}
	.st20{fill:url(#SVGID_15_);}
	.st21{fill:url(#SVGID_16_);}
	.st22{fill:url(#SVGID_17_);}
	.st23{fill:url(#SVGID_18_);}
	.st24{fill:url(#SVGID_19_);}
	.st25{fill:url(#SVGID_20_);}
	.st26{fill:url(#SVGID_21_);}
	.st27{fill:url(#SVGID_22_);}
	.st28{fill:url(#SVGID_23_);}
	.st29{fill:url(#SVGID_24_);}
	.st30{fill:url(#SVGID_25_);}
	.st31{fill:url(#SVGID_26_);}
	.st32{fill:url(#SVGID_27_);}
	.st33{fill:url(#SVGID_28_);}
	.st34{fill:url(#SVGID_29_);}
	.st35{fill:url(#SVGID_30_);}
	.st36{fill:url(#SVGID_31_);}
	.st37{fill:url(#SVGID_32_);}
	.st38{fill:url(#SVGID_33_);}
	.st39{fill:url(#SVGID_34_);}
	.st40{fill:url(#SVGID_35_);}
	.st41{fill:url(#SVGID_36_);}
	.st42{fill:url(#SVGID_37_);}
	.st43{fill:url(#SVGID_38_);}
	.st44{fill:url(#SVGID_39_);}
	.st45{fill:url(#SVGID_40_);}
	.st46{fill:url(#SVGID_41_);}
	.st47{fill:url(#SVGID_42_);}
	.st48{fill:url(#SVGID_43_);}
	.st49{fill:url(#SVGID_44_);}
	.st50{fill:url(#SVGID_45_);}
	.st51{fill:url(#SVGID_46_);}
	.st52{fill:url(#SVGID_47_);}
	.st53{fill:url(#SVGID_48_);}
	.st54{fill:url(#SVGID_49_);}
	.st55{fill:url(#SVGID_50_);}
	.st56{fill:url(#SVGID_51_);}
	.st57{fill:url(#SVGID_52_);}
	.st58{fill:url(#SVGID_53_);}
	.st59{fill:url(#SVGID_54_);}
	.st60{fill:url(#SVGID_55_);}
	.st61{fill:url(#SVGID_56_);}
	.st62{fill:url(#SVGID_57_);}
	.st63{fill:url(#SVGID_58_);}
	.st64{fill:url(#SVGID_59_);}
	.st65{fill:url(#SVGID_60_);}
	.st66{fill:url(#SVGID_61_);}
	.st67{fill:url(#SVGID_62_);}
	.st68{fill:url(#SVGID_63_);}
	.st69{fill:url(#SVGID_64_);}
	.st70{fill:url(#SVGID_65_);}
	.st71{fill:url(#SVGID_66_);}
	.st72{fill:url(#SVGID_67_);}
	.st73{fill:url(#SVGID_68_);}
	.st74{fill:url(#SVGID_69_);}
	.st75{fill:url(#SVGID_70_);}
	.st76{fill:url(#SVGID_71_);}
</style>
<path class="st0" d="M1240.6,38c-106.8,16.4-278.8-11.8-351.5-28c-6.5-1.4-154-17-246,16.5S500.6,3.5,285.1,1
	C69.6-1.5,128.6,293.5,97.6,442c-31,148.5,100.5,255.5,187.5,258s132,52.5,296.5,138.5s433.5,12.5,518-34.5s313-13,446.5-29.5
	s73-154,33-280s56.5-287,0-373C1522.6,35.5,1374.1,17.5,1240.6,38z"/>
<linearGradient id="SVGID_1_" gradientUnits="userSpaceOnUse" x1="73.7772" y1="831.2486" x2="297.947" y2="829.5956" gradientTransform="matrix(0.9829 -0.1842 -0.1842 -0.9829 139.3375 992.8489)">
	<stop  offset="0" style="stop-color:#41A380"/>
	<stop  offset="1" style="stop-color:#63D5AC"/>
</linearGradient>
<circle class="st1" cx="168" cy="142.6" r="111"/>
<path class="st2" d="M59.7,167.5l1.4,7.3l0.4-0.3c-1.3,1.5-2.6,3-3.8,4.5c-9.5,11.6-15.9,22-19.2,30.4c-3.3,8.7-2.7,14-0.7,17
	c2,3,6.8,5.5,16.1,5.6c9.1,0.1,21.1-2.2,35.3-6.7c28.4-9.2,64.4-27.3,101-52.3s66.6-51.9,85.5-75c9.5-11.6,15.9-21.9,19.2-30.4
	c3.3-8.7,2.7-14,0.7-17c-2-3-6.8-5.5-16.1-5.6c-9.1-0.1-21.1,2.2-35.3,6.7c-3,1-6.1,2-9.3,3.2l-0.1-0.3l-5.4-4.1
	c35.5-13.6,62.6-15.9,71.1-3.4c14.9,21.8-33,80.3-107,130.8c-73.9,50.4-145.9,73.7-160.8,51.9C24.7,217.8,35.7,194.5,59.7,167.5z"/>
<circle class="st3" cx="117.8" cy="170.8" r="15.5"/>
<circle class="st3" cx="100.8" cy="112.9" r="6.5"/>
<circle class="st3" cx="134.3" cy="123" r="4.5"/>
<g class="st4">
	<circle class="st5" cx="675.3" cy="618.3" r="109.5"/>
	<circle class="st6" cx="675.3" cy="618.3" r="109.5"/>
</g>
<g class="st4">
	
		<linearGradient id="SVGID_2_" gradientUnits="userSpaceOnUse" x1="655.8806" y1="804.3605" x2="677.4086" y2="734.8579" gradientTransform="matrix(1 0 0 -1 0 880)">
		<stop  offset="0" style="stop-color:#41A380"/>
		<stop  offset="1" style="stop-color:#63D5AC"/>
	</linearGradient>
	<path class="st7" d="M699.4,92.6c-0.6-1.1-1.4-1.4-3.3-1.6c-0.6,0-1.1-0.1-1.2-0.2c-0.1-0.1-0.5-0.5-0.9-1.1
		c-1.8-2.6-4.4-5.3-6.8-7.1l-0.9-0.7l-0.2-1.1c-0.4-2.2-1-3.2-2.5-3.9c-0.5-0.2-1.3-0.5-1.8-0.6c-1.7-0.4-2.3-0.6-3.7-1.3
		c-0.8-0.4-1.6-0.7-2-0.8c-0.4-0.1-1.9-0.2-3.4-0.3c-2.6-0.2-2.8-0.2-3.5,0c-0.8,0.2-1.2,0.6-1.8,1.4l-0.3,0.4l-1.3,0
		c-2.6,0-5.7,0.5-7.8,1.1l-1.1,0.3l-0.8-0.5c-1.5-0.9-2.1-0.8-4,0.4c-2.5,1.7-3.7,2.3-6.7,3.3c-1,0.3-2,0.7-2.2,0.9
		c-1.5,0.9-2.2,2.3-2.4,5.1c-0.1,0.7-0.1,1.4-0.1,1.5c0,0.1-0.3,0.6-0.8,1.1c-1.2,1.4-2.2,3-3.1,4.7l-0.8,1.6l-0.7,0.2
		c-2.1,0.5-3.1,1.3-3.7,3.2c-0.4,1.4-2.4,13.6-2.4,14.6c0,0.8,0.4,1.5,1.3,2.5c1.5,1.7,2.7,2.7,3.7,3.1l0.6,0.2l0.5,1.5
		c1.5,4.3,3.8,8.1,7,11.6c1.8,1.9,3,3.1,5.1,4.6l1.2,0.9l0.4,1.2c0.3,1,0.4,1.4,0.7,1.7c0.7,0.9,0.5,0.9,10.4,3.3
		c3.6,0.9,4.4,0.9,6.6,0.3c1.3-0.4,1.5-0.5,2.2-1l0.7-0.5l1-0.1c1.2-0.1,2.7-0.3,3.9-0.6l1-0.2l0.9,0.6c1,0.7,1.9,1.1,2.4,1.2
		c0.7,0.1,1.6-0.2,4.6-1.9c1.5-0.9,3.2-1.8,3.8-2.2c1.6-0.9,2.7-1.6,3-2c0.6-0.7,0.8-1.5,0.8-3.8c0-0.7,0.1-1,0.2-1.2
		c2.6-2.9,3.8-4.6,5.4-7.5c1.9-3.6,3.2-7.8,3.7-11.9c0.1-0.5,0.1-1,0.2-1.1c0.1-0.1,0.6-0.6,1.1-1c0.8-0.6,1.1-1,1.3-1.4
		c0.3-0.6,0.4-1.5,0.3-2.4c-0.1-0.6-0.8-3.7-1.4-5.8c-0.2-0.8-0.4-1.9-0.5-2.5C701,97.6,699.8,93.3,699.4,92.6z M700.8,99.1
		c0.1,0.4,0.5,2.1,0.9,3.8c1.5,5.9,1.5,6.4,0.1,7.6c-1.3,1.2-1.8,1.7-2.2,2.4c-0.4,0.7-0.5,1.1-0.1,0.5c0.1-0.2,0.3-0.3,0.3-0.3
		c0.2,0-0.5,3.7-0.9,5.3c-1,3.6-2.6,7-4.9,10.3c-1.2,1.7-1.7,2.1-4.5,3.7c-1.9,1.1-3.7,1.8-5.7,2.4c-2.9,0.9-4.7,1.1-8,1
		c-2.8-0.1-3.1,0-5.6,1c-1.5,0.6-2,0.8-2.6,0.8c-0.8,0.1-1.7,0-2.4-0.3c-0.6-0.2-2-1.3-2.6-1.9c-0.8-0.8-2.3-2.1-3-2.6
		c-1-0.7-1.9-0.9-3.6-1c-1.6,0-1.9-0.2-2.7-1c-0.8-0.9-1.3-1-2.8-0.5c-1.8,0.5-3.2,0.5-4.7,0.1c-3-0.9-4.9-3.6-6.2-8.6
		c-0.9-3.4-1-6-0.5-9.9c0.3-2.3,0.2-2.7-0.7-4c-1-1.3-1.4-1.9-1.8-3c-0.9-2.1-1.4-6.3-1.2-8.3l0.1-0.7l0.7-0.3
		c0.8-0.3,1.3-0.6,1.6-1c0.3-0.4,0.1-0.4-0.4-0.1c-0.2,0.2-0.4,0.2-0.4,0.2c-0.1-0.3,2.1-3.8,3.2-5.3l0.5-0.6l0.1,0.4
		c0.1,0.2,0.1,0.3,0.2,0.3c0.2-0.1,0.2-0.5,0.3-2c0.2-3.2,0.6-4.7,1.7-5.5c0.5-0.3,0.8-0.5,2.4-1.1c3.2-1.1,4.8-1.9,6.8-3.4
		c1.2-0.9,1.9-1.2,2.6-1c0.2,0.1,0.8,0.4,1.4,0.7c1,0.7,1.9,1,2.1,0.7c0.1-0.1,0-0.2-0.1-0.2c-0.1,0-0.3-0.1-0.5-0.2l-0.3-0.1
		l0.6-0.2c2-0.6,5.6-1.1,8.1-1.1l0.7,0l-0.4,0.8c-0.4,0.8-0.5,1-0.2,1c0.2,0,0.5-0.5,1.4-1.8c1.2-1.8,1.5-1.9,5-1.7
		c3.3,0.2,3.9,0.4,5.6,1.2c1.4,0.7,1.7,0.8,3.7,1.2c0.6,0.1,1.4,0.4,1.8,0.6c1.2,0.6,1.7,1.4,2.1,3.5c0.2,0.7,0.4,1.6,0.5,1.9
		c0.2,0.5,0.2,0.5,0.2,0.2c0-0.2,0-0.4,0.1-0.4c0.2-0.1,2.9,2.3,4.3,3.9c1.5,1.6,3.1,3.6,3.1,3.9c0,0.1-0.3-0.1-0.6-0.3
		c-0.5-0.4-0.9-0.4-0.8-0.2c0,0,0.2,0.3,0.5,0.5c0.6,0.5,1.8,0.9,3,0.9c1.3,0.1,1.6,0.1,2.1,0.4c0.4,0.2,0.6,0.5,0.9,1
		C699.2,93.2,700.6,98.3,700.8,99.1z"/>
	
		<linearGradient id="SVGID_3_" gradientUnits="userSpaceOnUse" x1="696.7958" y1="786.3073" x2="702.3538" y2="770.8524" gradientTransform="matrix(1 0 0 -1 0 880)">
		<stop  offset="0" style="stop-color:#41A380"/>
		<stop  offset="1" style="stop-color:#63D5AC"/>
	</linearGradient>
	<path class="st8" d="M698.1,93.3c-0.5-0.1-0.6,3.8-0.3,6.6c0.1,0.6,0.4,1.8,0.8,3.1c0.7,2.3,1.4,3.8,2.3,5.2c0.9,1.3,1.3,1.3,0.6,0
		c-0.3-0.6-0.4-0.8-0.4-1.1c0-0.5-0.1-2.6-0.3-3.6c-0.4-2.5-1.2-5-2.3-7.2c-0.6-1.1-0.6-1.1-0.5-1.6
		C698.3,93.9,698.2,93.3,698.1,93.3z"/>
	
		<linearGradient id="SVGID_4_" gradientUnits="userSpaceOnUse" x1="694.9708" y1="785.6911" x2="696.2249" y2="781.8679" gradientTransform="matrix(1 0 0 -1 0 880)">
		<stop  offset="0" style="stop-color:#41A380"/>
		<stop  offset="1" style="stop-color:#63D5AC"/>
	</linearGradient>
	<path class="st9" d="M695.5,94.1c-0.1,0-0.2,1-0.2,2.2c0.1,1.5,0.1,2,0.3,1.9c0.1-0.1,0.1,0,0.1-2.2
		C695.7,94.3,695.7,94.1,695.5,94.1z"/>
	
		<linearGradient id="SVGID_5_" gradientUnits="userSpaceOnUse" x1="694.1736" y1="786.3356" x2="695.3737" y2="782.6938" gradientTransform="matrix(1 0 0 -1 0 880)">
		<stop  offset="0" style="stop-color:#41A380"/>
		<stop  offset="1" style="stop-color:#63D5AC"/>
	</linearGradient>
	<path class="st10" d="M694.7,93.5c-0.3,0.5-0.3,2-0.1,3.2c0.2,1.1,0.4,0.9,0.3-0.3c0-0.5-0.1-1.4-0.1-2
		C694.8,93.7,694.8,93.4,694.7,93.5z"/>
	
		<linearGradient id="SVGID_6_" gradientUnits="userSpaceOnUse" x1="695.36" y1="774.149" x2="695.955" y2="772.2271" gradientTransform="matrix(1 0 0 -1 0 880)">
		<stop  offset="0" style="stop-color:#41A380"/>
		<stop  offset="1" style="stop-color:#63D5AC"/>
	</linearGradient>
	<path class="st11" d="M696.5,106.2c-0.2-0.3-0.8-0.4-1.2-0.3c-0.3,0.1-0.7,0.7-0.7,1.1c0,0.2,0.1,0.4,0.3,0.6
		C695.7,108.4,697.2,107.2,696.5,106.2z"/>
	
		<linearGradient id="SVGID_7_" gradientUnits="userSpaceOnUse" x1="691.785" y1="779.9682" x2="693.0259" y2="775.9422" gradientTransform="matrix(1 0 0 -1 0 880)">
		<stop  offset="0" style="stop-color:#41A380"/>
		<stop  offset="1" style="stop-color:#63D5AC"/>
	</linearGradient>
	<path class="st12" d="M694.2,99.3c-0.2,0-0.2,0-0.1,0.7c0,1-0.5,1.7-2.2,3.3c-2,1.9-1.7,1.9,0.5-0.1c1.4-1.2,1.8-1.8,2-2.8
		C694.5,100,694.4,99.4,694.2,99.3z"/>
	
		<linearGradient id="SVGID_8_" gradientUnits="userSpaceOnUse" x1="686.9363" y1="779.3694" x2="688.3933" y2="774.5924" gradientTransform="matrix(1 0 0 -1 0 880)">
		<stop  offset="0" style="stop-color:#41A380"/>
		<stop  offset="1" style="stop-color:#63D5AC"/>
	</linearGradient>
	<path class="st13" d="M693.1,99.6c0,0-0.2,0.3-0.3,0.6c-0.3,0.9-0.7,1.3-1.8,2.3c-0.5,0.5-1.3,1.2-1.7,1.6
		c-0.7,0.6-0.9,0.8-1.3,0.9c-1.1,0.3-3.6-0.5-5.8-1.9c-1.3-0.8-1.5-0.9-0.8-0.2c1.3,1.2,3.7,2.4,5.5,2.6c0.5,0.1,0.8,0,1.3-0.1
		c0.6-0.2,0.7-0.3,1.5-1c0.5-0.5,1.2-1.1,1.6-1.4c1.2-1,1.9-2.1,1.9-2.9C693.2,99.8,693.1,99.6,693.1,99.6z"/>
	
		<linearGradient id="SVGID_9_" gradientUnits="userSpaceOnUse" x1="683.2949" y1="786.3114" x2="686.4048" y2="776.2264" gradientTransform="matrix(1 0 0 -1 0 880)">
		<stop  offset="0" style="stop-color:#41A380"/>
		<stop  offset="1" style="stop-color:#63D5AC"/>
	</linearGradient>
	<path class="st14" d="M690.7,96.8c-0.6-0.7-1-1-1.9-1.5c-1-0.5-1.9-0.7-4.2-1.1c-2.1-0.3-2.6-0.3-3.6,0.3c-0.7,0.4-2.2,1.7-2.7,2.3
		c-0.5,0.7-0.4,1.6,0.3,2.5c1,1.3,4.1,3.4,5.9,3.9c1.6,0.5,2.7,0.4,3.9-0.2c1.9-1.1,2.9-2.3,3.1-3.6
		C691.6,98.6,691.2,97.5,690.7,96.8z M689.2,100.3c-0.1,0.3-0.3,1-0.5,1.5c-0.4,0.8-0.5,0.9-0.9,1.1c-1.2,0.5-2.9,0.2-5.1-1
		c-1.8-1-3.7-2.6-4.1-3.5c-0.2-0.5-0.2-1.1,0-1.3c0.2-0.2,1.2-0.6,2.2-0.8c1.1-0.2,1.5-0.2,2.6,0.2c0.4,0.1,1.3,0.4,2.1,0.5
		C688.3,97.6,689.5,98.6,689.2,100.3z"/>
	
		<linearGradient id="SVGID_10_" gradientUnits="userSpaceOnUse" x1="675.4252" y1="806.7843" x2="678.2092" y2="797.7321" gradientTransform="matrix(1 0 0 -1 0 880)">
		<stop  offset="0" style="stop-color:#41A380"/>
		<stop  offset="1" style="stop-color:#63D5AC"/>
	</linearGradient>
	<path class="st15" d="M684.1,79c0,0-0.1,0.2-0.1,0.4c0,0.2-0.1,0.5-0.2,0.6c-0.2,0.2-0.2,0.2-0.9-0.3c-1.9-1.3-2.4-1.5-4.3-1.9
		c-1.1-0.2-2.1-0.5-2.8-0.9c-1-0.5-2.8-1-3.9-1c-0.7,0-0.9-0.1-1.5-0.5c-0.5-0.3-0.8-0.4-0.9-0.3c-0.1,0.1-0.1,0.1-0.1,0.2
		c0.1,0.2,2.2,1.5,4,2.5c3,1.7,4.9,2.3,7.8,2.7c1.7,0.2,2.3,0.2,2.7,0c0.5-0.2,0.7-0.7,0.6-1.2C684.2,79.2,684.1,79,684.1,79z"/>
	
		<linearGradient id="SVGID_11_" gradientUnits="userSpaceOnUse" x1="693.9301" y1="763.9277" x2="694.5571" y2="761.8957" gradientTransform="matrix(1 0 0 -1 0 880)">
		<stop  offset="0" style="stop-color:#41A380"/>
		<stop  offset="1" style="stop-color:#63D5AC"/>
	</linearGradient>
	<path class="st16" d="M695.1,116.3c-0.2-0.2-0.4-0.3-0.5-0.3c-0.3,0-0.9,0.2-1.2,0.5c-0.4,0.4-0.5,0.7-0.4,1.2
		c0.4,1,2.1,0.7,2.4-0.5C695.5,116.6,695.5,116.6,695.1,116.3z"/>
	
		<linearGradient id="SVGID_12_" gradientUnits="userSpaceOnUse" x1="680.8121" y1="798.0132" x2="681.5771" y2="795.5051" gradientTransform="matrix(1 0 0 -1 0 880)">
		<stop  offset="0" style="stop-color:#41A380"/>
		<stop  offset="1" style="stop-color:#63D5AC"/>
	</linearGradient>
	<path class="st17" d="M683.6,83.5c-0.7,0.1-1.5,0.1-1.9,0.1c-0.9,0-2.6-0.3-3.3-0.5c-0.6-0.2-0.8-0.2-0.4,0
		c0.5,0.3,1.6,0.6,2.5,0.8c1.4,0.2,3.6,0,4.1-0.3C684.7,83.4,684.5,83.4,683.6,83.5z"/>
	
		<linearGradient id="SVGID_13_" gradientUnits="userSpaceOnUse" x1="678.3172" y1="801.0421" x2="679.7772" y2="796.2705" gradientTransform="matrix(1 0 0 -1 0 880)">
		<stop  offset="0" style="stop-color:#41A380"/>
		<stop  offset="1" style="stop-color:#63D5AC"/>
	</linearGradient>
	<path class="st18" d="M683.7,82.2c-2.1,0.2-4.1-0.1-7.4-1.1c-2.9-0.9-2.9-0.9-2.2-0.5c2,1.1,5.9,2.1,8.1,2c1.2-0.1,2.2-0.2,2.2-0.4
		C684.3,82.2,684,82.2,683.7,82.2z"/>
	
		<linearGradient id="SVGID_14_" gradientUnits="userSpaceOnUse" x1="681.4818" y1="787.2208" x2="682.2327" y2="784.7496" gradientTransform="matrix(1 0 0 -1 0 880)">
		<stop  offset="0" style="stop-color:#41A380"/>
		<stop  offset="1" style="stop-color:#63D5AC"/>
	</linearGradient>
	<path class="st19" d="M686.7,93.6c-0.2,0-1.1-0.3-1.9-0.5c-0.8-0.2-1.8-0.4-2.2-0.4c-0.6,0-0.8,0-2.1,0.4c-1.4,0.5-1.7,0.6-2.6,1.3
		c-0.5,0.4-1.1,1.1-0.9,1.2c0.1,0,0.3-0.1,0.5-0.4c0.7-0.7,1.3-1,2.5-1.6c0.9-0.4,1.3-0.5,1.8-0.6c0.9-0.1,1.2-0.1,2.7,0.3
		c0.7,0.2,1.4,0.3,1.5,0.3c0.1,0,0.4,0,0.6,0.1C687.2,93.9,687.2,93.7,686.7,93.6z"/>
	
		<linearGradient id="SVGID_15_" gradientUnits="userSpaceOnUse" x1="694.0593" y1="758.0748" x2="695.1562" y2="754.5828" gradientTransform="matrix(1 0 0 -1 0 880)">
		<stop  offset="0" style="stop-color:#41A380"/>
		<stop  offset="1" style="stop-color:#63D5AC"/>
	</linearGradient>
	<path class="st20" d="M695.1,121.9c-0.1,0.2-0.3,1.2-0.6,2.1c-0.3,0.9-0.5,1.7-0.5,1.7c0.1,0,0.6-1.1,0.8-1.8
		c0.3-0.8,0.5-2.2,0.5-2.4C695.2,121.5,695.1,121.7,695.1,121.9z"/>
	
		<linearGradient id="SVGID_16_" gradientUnits="userSpaceOnUse" x1="693.4036" y1="758.9314" x2="694.5616" y2="755.2764" gradientTransform="matrix(1 0 0 -1 0 880)">
		<stop  offset="0" style="stop-color:#41A380"/>
		<stop  offset="1" style="stop-color:#63D5AC"/>
	</linearGradient>
	<path class="st21" d="M694.4,120.8c0,0-0.1,0.5-0.2,1c-0.1,0.6-0.3,1.5-0.4,2.1c-0.4,1.6-0.1,1.4,0.4-0.3
		C694.4,122.5,694.6,120.7,694.4,120.8z"/>
	
		<linearGradient id="SVGID_17_" gradientUnits="userSpaceOnUse" x1="680.6902" y1="788.1784" x2="681.0543" y2="786.979" gradientTransform="matrix(1 0 0 -1 0 880)">
		<stop  offset="0" style="stop-color:#41A380"/>
		<stop  offset="1" style="stop-color:#63D5AC"/>
	</linearGradient>
	<path class="st22" d="M683.7,91.7c-0.3-0.1-0.8-0.2-1.1-0.2c-0.7,0-2.8,0.5-3.7,1c-0.7,0.3-1.4,0.8-1.3,0.9c0,0,0.5-0.1,1-0.4
		c2.4-1,3.8-1.3,5.2-1C684.5,92.2,684.5,91.9,683.7,91.7z"/>
	
		<linearGradient id="SVGID_18_" gradientUnits="userSpaceOnUse" x1="687.8928" y1="767.1658" x2="688.4638" y2="765.3328" gradientTransform="matrix(1 0 0 -1 0 880)">
		<stop  offset="0" style="stop-color:#41A380"/>
		<stop  offset="1" style="stop-color:#63D5AC"/>
	</linearGradient>
	<path class="st23" d="M688.5,112.9c-0.2-0.1-0.4-0.2-0.5-0.1c-0.2,0.1-0.5,0.5-0.6,0.7c-0.1,0.3,0.2,0.9,0.5,1.1
		c0.6,0.4,1.3-0.2,1.1-1C688.8,113.2,688.7,113.1,688.5,112.9z"/>
	
		<linearGradient id="SVGID_19_" gradientUnits="userSpaceOnUse" x1="685.5753" y1="758.3251" x2="687.5052" y2="752.0401" gradientTransform="matrix(1 0 0 -1 0 880)">
		<stop  offset="0" style="stop-color:#41A380"/>
		<stop  offset="1" style="stop-color:#63D5AC"/>
	</linearGradient>
	<path class="st24" d="M690.3,120.3c-0.3,0.2-0.2,1.4,0,2.6c0.2,0.8,0.2,1.2,0.2,1.4c-0.2,0.5-1.9,2.1-3.1,3.1
		c-0.6,0.4-1.3,0.7-1.8,0.6c-0.2,0-0.8-0.3-1.3-0.5c-1-0.5-1.8-0.7-2.1-0.5c-0.4,0.2-0.2,0.3,0.4,0.4c0.3,0,1,0.3,1.5,0.5
		c1.3,0.6,1.8,0.7,2.6,0.3c0.6-0.2,0.8-0.4,1.8-1.2c1.3-1.1,2.3-2.2,2.4-2.6c0.1-0.2,0-0.5-0.2-1.4c-0.2-0.8-0.3-1.3-0.3-1.8
		C690.4,120.2,690.4,120.2,690.3,120.3z"/>
	
		<linearGradient id="SVGID_20_" gradientUnits="userSpaceOnUse" x1="676.6646" y1="794.5675" x2="677.3306" y2="792.3993" gradientTransform="matrix(1 0 0 -1 0 880)">
		<stop  offset="0" style="stop-color:#41A380"/>
		<stop  offset="1" style="stop-color:#63D5AC"/>
	</linearGradient>
	<path class="st25" d="M678.3,85.7c-0.4-0.3-1.1-0.3-2-0.1c-0.6,0.1-0.7,0.2-0.9,0.5c-0.2,0.3-0.2,0.4,0,0.7c0.2,0.5,0.7,0.9,1.1,1
		c0.4,0.1,1.7-0.3,2-0.7C678.9,86.6,678.8,86,678.3,85.7z"/>
	
		<linearGradient id="SVGID_21_" gradientUnits="userSpaceOnUse" x1="687.2183" y1="756.2844" x2="688.1143" y2="753.3614" gradientTransform="matrix(1 0 0 -1 0 880)">
		<stop  offset="0" style="stop-color:#41A380"/>
		<stop  offset="1" style="stop-color:#63D5AC"/>
	</linearGradient>
	<path class="st26" d="M689.5,123.1c-0.6,0-2,0.8-3,1.9c-0.7,0.7-1.2,1.5-1.1,1.9c0.1,0.5,0.5,0.5,1.4,0.2c1.8-0.7,3.3-2.5,3-3.6
		C689.8,123.2,689.7,123.1,689.5,123.1z"/>
	
		<linearGradient id="SVGID_22_" gradientUnits="userSpaceOnUse" x1="690.0641" y1="751.0449" x2="690.5822" y2="749.3699" gradientTransform="matrix(1 0 0 -1 0 880)">
		<stop  offset="0" style="stop-color:#41A380"/>
		<stop  offset="1" style="stop-color:#63D5AC"/>
	</linearGradient>
	<path class="st27" d="M690.6,128.9c-0.2,0-0.5,0-0.6,0.1c-0.7,0.5-0.8,1.2-0.2,1.6c0.4,0.2,0.9,0.1,1.2-0.4
		c0.2-0.3,0.2-0.4,0.1-0.8C691.1,129,691,128.9,690.6,128.9z"/>
	
		<linearGradient id="SVGID_23_" gradientUnits="userSpaceOnUse" x1="681.1006" y1="770.0668" x2="681.9527" y2="767.3018" gradientTransform="matrix(1 0 0 -1 0 880)">
		<stop  offset="0" style="stop-color:#41A380"/>
		<stop  offset="1" style="stop-color:#63D5AC"/>
	</linearGradient>
	<path class="st28" d="M683,110.7c-0.4-0.4-1-0.6-2.1-0.5c-0.4,0-0.8,0-0.9,0.1c-0.2,0.1-0.4,0.5-0.4,1c0,1.1,1.3,1.7,2.7,1.3
		c0.7-0.2,0.9-0.4,1-0.9C683.4,111.1,683.4,111.1,683,110.7z"/>
	
		<linearGradient id="SVGID_24_" gradientUnits="userSpaceOnUse" x1="682.1481" y1="762.3516" x2="682.3571" y2="761.6626" gradientTransform="matrix(1 0 0 -1 0 880)">
		<stop  offset="0" style="stop-color:#41A380"/>
		<stop  offset="1" style="stop-color:#63D5AC"/>
	</linearGradient>
	<path class="st29" d="M684.1,117.1c-0.1,0-0.5,0.1-1.1,0.2c-1,0.3-1.8,0.7-2.4,1.3c-0.3,0.3-0.3,0.3-0.1,0.2c0.2-0.1,0.6-0.3,1-0.5
		c0.4-0.2,1.1-0.6,1.7-0.8C683.8,117.3,684.2,117.2,684.1,117.1z"/>
	
		<linearGradient id="SVGID_25_" gradientUnits="userSpaceOnUse" x1="682.4523" y1="761.5525" x2="682.6323" y2="760.9585" gradientTransform="matrix(1 0 0 -1 0 880)">
		<stop  offset="0" style="stop-color:#41A380"/>
		<stop  offset="1" style="stop-color:#63D5AC"/>
	</linearGradient>
	<path class="st30" d="M683.2,118.2c-0.6,0.2-1.7,0.9-1.8,1.1c0,0.1,0,0.1,0.1,0c0.1-0.1,0.5-0.3,1-0.5
		C683.7,118.2,683.9,118,683.2,118.2z"/>
	
		<linearGradient id="SVGID_26_" gradientUnits="userSpaceOnUse" x1="670.1887" y1="801.1377" x2="670.7266" y2="799.4038" gradientTransform="matrix(1 0 0 -1 0 880)">
		<stop  offset="0" style="stop-color:#41A380"/>
		<stop  offset="1" style="stop-color:#63D5AC"/>
	</linearGradient>
	<path class="st31" d="M670.7,79.2c-0.2,0.4-0.4,1-0.6,1.2c-0.3,0.4-0.3,0.5-0.1,0.4c0.4-0.2,0.9-1,1-1.5
		C671.1,78.4,671,78.4,670.7,79.2z"/>
	
		<linearGradient id="SVGID_27_" gradientUnits="userSpaceOnUse" x1="683.3052" y1="756.5418" x2="683.7182" y2="755.1998" gradientTransform="matrix(1 0 0 -1 0 880)">
		<stop  offset="0" style="stop-color:#41A380"/>
		<stop  offset="1" style="stop-color:#63D5AC"/>
	</linearGradient>
	<path class="st32" d="M684.2,124.1c-0.4-0.3-1.1-0.6-1.5-0.5c-0.4,0.1-0.3,0.3,0.4,0.4c0.3,0.1,0.8,0.3,1,0.4
		C684.7,124.7,684.7,124.5,684.2,124.1z"/>
	
		<linearGradient id="SVGID_28_" gradientUnits="userSpaceOnUse" x1="668.6481" y1="801.6111" x2="669.0191" y2="800.3936" gradientTransform="matrix(1 0 0 -1 0 880)">
		<stop  offset="0" style="stop-color:#41A380"/>
		<stop  offset="1" style="stop-color:#63D5AC"/>
	</linearGradient>
	<path class="st33" d="M670.1,78c0,0-0.4,0.3-0.7,0.7c-0.4,0.4-0.9,0.7-1.3,0.9c-0.8,0.4-0.8,0.5,0.1,0.3c0.7-0.2,1.5-0.8,1.9-1.4
		C670.2,78.2,670.3,77.8,670.1,78z"/>
	
		<linearGradient id="SVGID_29_" gradientUnits="userSpaceOnUse" x1="682.9007" y1="755.2885" x2="683.2347" y2="754.1945" gradientTransform="matrix(1 0 0 -1 0 880)">
		<stop  offset="0" style="stop-color:#41A380"/>
		<stop  offset="1" style="stop-color:#63D5AC"/>
	</linearGradient>
	<path class="st34" d="M684,125.2c-0.7-0.3-1.7-0.4-2.1-0.2c-0.3,0.2-0.1,0.3,0.5,0.2c0.4,0,0.9,0,1.3,0.1
		C684.5,125.5,684.6,125.5,684,125.2z"/>
	
		<linearGradient id="SVGID_30_" gradientUnits="userSpaceOnUse" x1="672.743" y1="788.5507" x2="673.235" y2="786.9561" gradientTransform="matrix(1 0 0 -1 0 880)">
		<stop  offset="0" style="stop-color:#41A380"/>
		<stop  offset="1" style="stop-color:#63D5AC"/>
	</linearGradient>
	<path class="st35" d="M673.8,91.9c-0.3-0.4-0.7-0.6-1.1-0.4c-0.7,0.2-0.9,1.1-0.3,1.5C673.2,93.4,674.3,92.5,673.8,91.9z"/>
	
		<linearGradient id="SVGID_31_" gradientUnits="userSpaceOnUse" x1="674.8171" y1="778.0661" x2="675.376" y2="776.2471" gradientTransform="matrix(1 0 0 -1 0 880)">
		<stop  offset="0" style="stop-color:#41A380"/>
		<stop  offset="1" style="stop-color:#63D5AC"/>
	</linearGradient>
	<path class="st36" d="M676.2,102.2c-0.4-0.3-1-0.3-1.7-0.2c-0.5,0.1-0.7,0.2-0.8,0.4c-0.2,0.3,0,0.8,0.3,1c0.8,0.5,2.2,0.3,2.5-0.2
		C676.7,102.9,676.5,102.4,676.2,102.2z"/>
	
		<linearGradient id="SVGID_32_" gradientUnits="userSpaceOnUse" x1="669.1575" y1="794.1805" x2="670.4075" y2="790.1853" gradientTransform="matrix(1 0 0 -1 0 880)">
		<stop  offset="0" style="stop-color:#41A380"/>
		<stop  offset="1" style="stop-color:#63D5AC"/>
	</linearGradient>
	<path class="st37" d="M670.6,85.4c0,0-0.2,0.6-0.4,1.3c-0.2,0.7-0.6,1.8-0.8,2.3c-0.2,0.6-0.4,1.1-0.4,1.1c0.1,0.2,0.7-0.9,1.1-2
		C670.5,87,670.8,85.3,670.6,85.4z"/>
	
		<linearGradient id="SVGID_33_" gradientUnits="userSpaceOnUse" x1="665.3554" y1="795.0011" x2="667.2285" y2="788.9297" gradientTransform="matrix(1 0 0 -1 0 880)">
		<stop  offset="0" style="stop-color:#41A380"/>
		<stop  offset="1" style="stop-color:#63D5AC"/>
	</linearGradient>
	<path class="st38" d="M668.8,84.3c-0.2-0.1-0.4-0.2-0.5-0.1c0,0.1,0,0.2,0.2,0.2c0.3,0.2,0.5,1,0.4,1.6c-0.2,1.2-1.5,3.9-2.2,4.6
		c-0.4,0.4-1.2,0.6-2.4,0.6c-1.1,0-1.3,0.1-0.4,0.3c0.9,0.2,1.8,0.1,2.4-0.1c0.7-0.3,1-0.7,1.9-2.3c1-2,1.4-3.2,1.1-4
		C669.2,84.6,669.1,84.4,668.8,84.3z"/>
	
		<linearGradient id="SVGID_34_" gradientUnits="userSpaceOnUse" x1="671.3673" y1="782.3987" x2="671.8333" y2="780.896" gradientTransform="matrix(1 0 0 -1 0 880)">
		<stop  offset="0" style="stop-color:#41A380"/>
		<stop  offset="1" style="stop-color:#63D5AC"/>
	</linearGradient>
	<path class="st39" d="M671.9,97.6c-0.6-0.2-1.2,0.3-1,1c0.2,0.6,1.1,0.7,1.4,0.2C672.5,98.4,672.2,97.7,671.9,97.6z"/>
	
		<linearGradient id="SVGID_35_" gradientUnits="userSpaceOnUse" x1="662.4653" y1="795.1945" x2="664.0712" y2="789.9567" gradientTransform="matrix(1 0 0 -1 0 880)">
		<stop  offset="0" style="stop-color:#41A380"/>
		<stop  offset="1" style="stop-color:#63D5AC"/>
	</linearGradient>
	<path class="st40" d="M667.2,85.5c-0.7-0.7-2.9-0.9-5.2-0.4c-2.3,0.4-3.7,1.4-3.4,2.4c0.2,0.5,1,1.3,2.1,1.8c1.9,1,4.2,0.9,5.4-0.3
		c0.9-0.9,1.6-2.4,1.4-3C667.5,85.8,667.3,85.6,667.2,85.5z M666,88.5c-0.1,0.5-0.5,0.8-1.6,1c-1.7,0.4-3.5-0.2-5-1.6
		c-0.7-0.6-0.6-0.7,0.8-1.1c2.2-0.7,4.7-0.5,5.4,0.3C665.9,87.4,666.1,88,666,88.5z"/>
	
		<linearGradient id="SVGID_36_" gradientUnits="userSpaceOnUse" x1="677.5728" y1="755.084" x2="678.0578" y2="753.511" gradientTransform="matrix(1 0 0 -1 0 880)">
		<stop  offset="0" style="stop-color:#41A380"/>
		<stop  offset="1" style="stop-color:#63D5AC"/>
	</linearGradient>
	<path class="st41" d="M678.5,125.1c-0.3-0.2-0.9-0.2-1.2,0c-0.1,0.1-0.3,0.3-0.4,0.4c-0.3,0.6,0.2,1.3,0.8,1.1
		c0.5-0.2,1.1-0.9,1-1.2C678.7,125.3,678.6,125.2,678.5,125.1z"/>
	
		<linearGradient id="SVGID_37_" gradientUnits="userSpaceOnUse" x1="673.9111" y1="767.8961" x2="675.1521" y2="764.0881" gradientTransform="matrix(1 0 0 -1 0 880)">
		<stop  offset="0" style="stop-color:#41A380"/>
		<stop  offset="1" style="stop-color:#63D5AC"/>
	</linearGradient>
	<path class="st42" d="M674.5,111.9c0,0,0,0.2,0,0.5c0,0.2,0,1.2-0.1,2c-0.1,1.6,0,2,0.1,1.4C674.9,114.9,674.8,111.8,674.5,111.9z"
		/>
	
		<linearGradient id="SVGID_38_" gradientUnits="userSpaceOnUse" x1="668.7892" y1="770.1678" x2="674.2362" y2="753.0978" gradientTransform="matrix(1 0 0 -1 0 880)">
		<stop  offset="0" style="stop-color:#41A380"/>
		<stop  offset="1" style="stop-color:#63D5AC"/>
	</linearGradient>
	<path class="st43" d="M673,108.9c-0.4-0.6-0.4-0.3-0.1,1.2c0.3,1.2,0.3,2.3,0,4.3c-0.3,2.6-0.3,3.1,0.1,5.8c0.3,2,0.2,3.6-0.5,4.9
		c-0.5,0.9-1.2,1.8-1.9,2.3c-0.3,0.2-0.5,0.4-0.5,0.5c0,0.1,0.1,0.1,0.7-0.3c1.3-0.8,2.2-2,2.6-3.4c0.4-1.2,0.4-2.3,0-4.5
		c-0.4-2.3-0.4-3-0.1-5.2c0.1-1,0.2-2.2,0.2-2.7C673.5,111,673.2,109.3,673,108.9z"/>
	
		<linearGradient id="SVGID_39_" gradientUnits="userSpaceOnUse" x1="666.4315" y1="777.7261" x2="667.0984" y2="775.5381" gradientTransform="matrix(1 0 0 -1 0 880)">
		<stop  offset="0" style="stop-color:#41A380"/>
		<stop  offset="1" style="stop-color:#63D5AC"/>
	</linearGradient>
	<path class="st44" d="M669.3,103.4c-1.5-0.6-4.4-0.8-5.4-0.4c-0.3,0.1-0.2,0.1,0.4,0.1c1.9,0,2.7,0,4,0.3c0.8,0.1,1.5,0.2,1.5,0.2
		C669.8,103.6,669.6,103.5,669.3,103.4z"/>
	
		<linearGradient id="SVGID_40_" gradientUnits="userSpaceOnUse" x1="661.3798" y1="771.9106" x2="667.2788" y2="752.9156" gradientTransform="matrix(1 0 0 -1 0 880)">
		<stop  offset="0" style="stop-color:#41A380"/>
		<stop  offset="1" style="stop-color:#63D5AC"/>
	</linearGradient>
	<path class="st45" d="M671.2,109c-0.6-0.9-1.9-1.6-3.5-1.9c-1.6-0.3-3.2-0.1-4.5,0.6c-1.2,0.6-1.9,1.1-3.4,2.8
		c-0.5,0.6-1.4,1.4-1.9,1.9c-1.9,1.7-2.1,2-2.4,2.5c-0.5,1-0.7,3.3-0.2,4.3c0.2,0.5,1.8,2.1,5.4,5.4c2,1.9,2.6,2.3,3.4,2.6
		c2.3,0.7,5.6-0.8,6.7-2.9c0.5-0.9,0.6-1.7,0.6-4.6c0-1.4,0-2.9,0.1-3.3C671.7,112.5,671.6,109.6,671.2,109z M667.2,113.8
		c-0.1,1.3-0.1,1.4,0.2,2.5c0.2,0.6,0.5,1.6,0.8,2.2c0.3,0.9,0.4,1.3,0.5,1.9c0.2,1.8-0.6,3.7-1.9,5c-0.6,0.6-1.7,1.2-2,1.2
		c-0.7,0-1.8-0.7-4-2.8c-0.7-0.7-1.9-1.8-2.8-2.6c-0.8-0.8-1.7-1.6-1.9-1.8l-0.4-0.4l0.1-0.7c0.2-1,0.7-1.9,1.3-2.5
		c0.3-0.3,0.9-0.7,1.7-1.1c1.6-0.8,2-1.1,3.1-2.5c1.8-2.1,2.6-2.7,3.7-2.5c0.8,0.1,1.2,0.6,1.5,1.7
		C667.3,112.3,667.3,112.6,667.2,113.8z"/>
	
		<linearGradient id="SVGID_41_" gradientUnits="userSpaceOnUse" x1="658.5516" y1="796.4623" x2="659.3997" y2="793.6754" gradientTransform="matrix(1 0 0 -1 0 880)">
		<stop  offset="0" style="stop-color:#41A380"/>
		<stop  offset="1" style="stop-color:#63D5AC"/>
	</linearGradient>
	<path class="st46" d="M662.5,82.9c-1.6,0-2.8,0.3-4.6,0.8c-1.6,0.5-1.7,0.6-2.1,1c-0.9,0.8-1.2,2.1-0.7,2.7
		c0.2,0.2,0.2,0.2,0.2-0.3c-0.1-1,0.4-1.8,1.3-2.4c0.5-0.3,0.9-0.5,2.4-0.8c1-0.3,2.3-0.6,3-0.7C663.4,83,663.6,82.9,662.5,82.9z"/>
	
		<linearGradient id="SVGID_42_" gradientUnits="userSpaceOnUse" x1="660.2759" y1="800.737" x2="660.7749" y2="799.1105" gradientTransform="matrix(1 0 0 -1 0 880)">
		<stop  offset="0" style="stop-color:#41A380"/>
		<stop  offset="1" style="stop-color:#63D5AC"/>
	</linearGradient>
	<path class="st47" d="M661.6,79.3c-0.3-0.2-0.7-0.3-1.4-0.1c-0.8,0.2-1.1,0.6-1,1.1c0.2,0.5,0.8,0.8,1.6,0.5c0.8-0.2,1.1-0.6,1-1.1
		C661.8,79.6,661.7,79.4,661.6,79.3z"/>
	
		<linearGradient id="SVGID_43_" gradientUnits="userSpaceOnUse" x1="674.5216" y1="750.0716" x2="675.2046" y2="747.8426" gradientTransform="matrix(1 0 0 -1 0 880)">
		<stop  offset="0" style="stop-color:#41A380"/>
		<stop  offset="1" style="stop-color:#63D5AC"/>
	</linearGradient>
	<path class="st48" d="M676.2,129.7c-1.2-0.4-3.4,1-3.1,1.9c0.2,0.6,0.7,0.8,1.6,0.6c1.4-0.3,2.2-1.1,1.9-2
		C676.5,129.9,676.4,129.8,676.2,129.7z"/>
	
		<linearGradient id="SVGID_44_" gradientUnits="userSpaceOnUse" x1="659.3845" y1="795.464" x2="659.7585" y2="794.2309" gradientTransform="matrix(1 0 0 -1 0 880)">
		<stop  offset="0" style="stop-color:#41A380"/>
		<stop  offset="1" style="stop-color:#63D5AC"/>
	</linearGradient>
	<path class="st49" d="M662,84.1c-0.3,0-1.1,0.1-1.7,0.2c-2,0.4-3.3,1.2-3.5,2c-0.1,0.5,0.1,0.5,0.4,0c0.1-0.2,0.4-0.5,0.5-0.6
		c0.4-0.3,2.7-1.1,3.9-1.3c0.6-0.1,1-0.2,1-0.2C662.6,84.1,662.3,84.1,662,84.1z"/>
	
		<linearGradient id="SVGID_45_" gradientUnits="userSpaceOnUse" x1="666.0214" y1="776.6009" x2="666.4094" y2="775.3319" gradientTransform="matrix(1 0 0 -1 0 880)">
		<stop  offset="0" style="stop-color:#41A380"/>
		<stop  offset="1" style="stop-color:#63D5AC"/>
	</linearGradient>
	<path class="st50" d="M667.7,104.1c-0.8-0.2-1.8-0.3-2.9-0.2c-0.6,0.1-0.1,0.2,0.7,0.2c0.4,0,1.1,0,1.4,0.1
		c0.8,0.1,1.1,0.1,1.1,0.1C668,104.2,667.8,104.1,667.7,104.1z"/>
	
		<linearGradient id="SVGID_46_" gradientUnits="userSpaceOnUse" x1="663.635" y1="782.3938" x2="664.386" y2="779.9593" gradientTransform="matrix(1 0 0 -1 0 880)">
		<stop  offset="0" style="stop-color:#41A380"/>
		<stop  offset="1" style="stop-color:#63D5AC"/>
	</linearGradient>
	<path class="st51" d="M665.3,98.3c-0.4-0.7-0.9-0.9-1.5-0.7c-1.2,0.4-1.6,1.3-0.9,2c0.5,0.5,0.9,0.6,1.6,0.4
		c0.6-0.1,0.7-0.2,0.9-0.5C665.6,99,665.6,98.7,665.3,98.3z"/>
	
		<linearGradient id="SVGID_47_" gradientUnits="userSpaceOnUse" x1="658.7336" y1="773.0906" x2="660.5596" y2="767.1066" gradientTransform="matrix(1 0 0 -1 0 880)">
		<stop  offset="0" style="stop-color:#41A380"/>
		<stop  offset="1" style="stop-color:#63D5AC"/>
	</linearGradient>
	<path class="st52" d="M666.1,105.2c-0.6,0-2.2,0.2-3.3,0.5c-2.5,0.6-3.8,1.6-5.3,3.9c-0.9,1.4-1.3,1.8-2.5,2.6
		c-1.3,0.8-1.9,1.4-1.9,2.2c-0.1,0.7,0.2,0.9,0.3,0.2c0.1-0.7,0.7-1.3,2.2-2.3c0.9-0.6,1.4-1.1,2.3-2.6c1-1.6,1.6-2.2,2.9-2.9
		c0.8-0.4,2.7-1,3.9-1.2C665.6,105.5,666.5,105.2,666.1,105.2z"/>
	
		<linearGradient id="SVGID_48_" gradientUnits="userSpaceOnUse" x1="655.8804" y1="799.6564" x2="656.5354" y2="797.5177" gradientTransform="matrix(1 0 0 -1 0 880)">
		<stop  offset="0" style="stop-color:#41A380"/>
		<stop  offset="1" style="stop-color:#63D5AC"/>
	</linearGradient>
	<path class="st53" d="M657.8,79.8c-0.1,0-0.4,0.3-0.7,0.7c-0.6,0.8-1.4,1.6-2.1,2.2c-0.2,0.2-0.4,0.3-0.3,0.3
		c0.2,0,1.3-0.7,1.9-1.3C657.1,81.1,658,79.8,657.8,79.8z"/>
	
		<linearGradient id="SVGID_49_" gradientUnits="userSpaceOnUse" x1="652.9695" y1="799.0697" x2="653.6785" y2="796.7394" gradientTransform="matrix(1 0 0 -1 0 880)">
		<stop  offset="0" style="stop-color:#41A380"/>
		<stop  offset="1" style="stop-color:#63D5AC"/>
	</linearGradient>
	<path class="st54" d="M656.3,80.1c-1.4,1.7-2.9,2.7-5.2,3.5c-1.2,0.4-1.4,0.6-0.8,0.5c1.3-0.1,3.5-1.3,4.8-2.5
		c0.5-0.5,1.2-1.4,1.3-1.7C656.6,79.8,656.5,79.8,656.3,80.1z"/>
	
		<linearGradient id="SVGID_50_" gradientUnits="userSpaceOnUse" x1="659.355" y1="786.4547" x2="659.7531" y2="785.1696" gradientTransform="matrix(1 0 0 -1 0 880)">
		<stop  offset="0" style="stop-color:#41A380"/>
		<stop  offset="1" style="stop-color:#63D5AC"/>
	</linearGradient>
	<path class="st55" d="M660,93.7c-0.5-0.4-1.3-0.1-1.2,0.4c0,0.1,0.3,0.3,0.5,0.5c0.6,0.3,0.9,0.2,1-0.4
		C660.3,93.9,660.3,94,660,93.7z"/>
	
		<linearGradient id="SVGID_51_" gradientUnits="userSpaceOnUse" x1="648.3002" y1="800.5333" x2="649.4122" y2="796.8743" gradientTransform="matrix(1 0 0 -1 0 880)">
		<stop  offset="0" style="stop-color:#41A380"/>
		<stop  offset="1" style="stop-color:#63D5AC"/>
	</linearGradient>
	<path class="st56" d="M654.5,77.8c-0.3-0.1-0.5-0.1-0.4,0c0,0,0.1,0.1,0.1,0.2c0.1,0,0.2,0.2,0.2,0.3l0.1,0.2l-1.3,0.4
		c-2.9,0.8-6.9,3-8.6,4.6c-0.4,0.4-0.5,0.5-1.2,0.6c-0.6,0.1-0.7,0.2-0.6,0.3c0.3,0.5,4.7-0.5,6.9-1.4c1.6-0.7,3.8-2.2,4.7-3.1
		C655.1,79.1,655.1,78.1,654.5,77.8z"/>
	
		<linearGradient id="SVGID_52_" gradientUnits="userSpaceOnUse" x1="662.2463" y1="755.9088" x2="664.0312" y2="750.1167" gradientTransform="matrix(1 0 0 -1 0 880)">
		<stop  offset="0" style="stop-color:#41A380"/>
		<stop  offset="1" style="stop-color:#63D5AC"/>
	</linearGradient>
	<path class="st57" d="M667.2,128.6c-0.2,0-0.6,0.1-0.9,0.1c-1.9,0.3-3.1-0.1-5.4-2c-1.2-1-2.1-1.6-2.2-1.6c-0.1,0,0.2,0.3,0.5,0.7
		c1.7,1.7,3.7,3,4.9,3.3c0.9,0.2,1.8,0.1,2.6-0.1C667.6,128.8,667.8,128.5,667.2,128.6z"/>
	
		<linearGradient id="SVGID_53_" gradientUnits="userSpaceOnUse" x1="665.8389" y1="749.5051" x2="666.5489" y2="747.1941" gradientTransform="matrix(1 0 0 -1 0 880)">
		<stop  offset="0" style="stop-color:#41A380"/>
		<stop  offset="1" style="stop-color:#63D5AC"/>
	</linearGradient>
	<path class="st58" d="M667.5,131c-0.5-0.3-1.5-0.4-2.4-0.3c-0.9,0.2-1,0.4-0.8,1c0.2,0.5,0.7,0.9,1.3,1c0.9,0.2,2.3-0.3,2.3-0.8
		C668,131.4,667.9,131.2,667.5,131z"/>
	
		<linearGradient id="SVGID_54_" gradientUnits="userSpaceOnUse" x1="653.0974" y1="782.1886" x2="656.0374" y2="772.8036" gradientTransform="matrix(1 0 0 -1 0 880)">
		<stop  offset="0" style="stop-color:#41A380"/>
		<stop  offset="1" style="stop-color:#63D5AC"/>
	</linearGradient>
	<path class="st59" d="M656.4,96.8c-0.1,0-0.5,1.4-0.7,2.8c-0.2,1.1-0.2,1.7-0.1,2.5c0.1,0.6,0.1,1.3,0,1.6
		c-0.1,1.2-0.8,2.2-2.3,3.6c-0.6,0.6-0.8,0.8-0.6,0.7c0.9-0.5,2.1-1.7,2.7-2.8c0.5-0.9,0.6-1.8,0.5-3c-0.1-0.7,0-1.5,0.2-2.9
		C656.5,97.5,656.5,96.8,656.4,96.8z"/>
	
		<linearGradient id="SVGID_55_" gradientUnits="userSpaceOnUse" x1="649.3036" y1="785.5558" x2="653.5276" y2="772.0333" gradientTransform="matrix(1 0 0 -1 0 880)">
		<stop  offset="0" style="stop-color:#41A380"/>
		<stop  offset="1" style="stop-color:#63D5AC"/>
	</linearGradient>
	<path class="st60" d="M654.7,93.8c-0.3-0.4-0.6-0.8-0.8-0.7c-0.1,0-0.1,0.1,0.2,0.5c0.4,0.5,0.6,1.4,0.6,2.1c0,0.3-0.1,1.2-0.3,2.2
		c-0.2,1.3-0.3,2.1-0.2,3.3c0.1,2,0,2.7-0.5,3.6c-0.5,0.9-1.4,1.7-3.5,3.3c-1,0.7-1.8,1.3-1.8,1.4c-0.2,0.3,1.4-0.6,3.4-2
		c1.7-1.2,2.6-2.4,2.9-3.9c0.1-0.5,0.1-1.6,0.1-2.5c0-1.2,0-2,0.2-3.1C655.2,95.8,655.2,94.6,654.7,93.8z"/>
	
		<linearGradient id="SVGID_56_" gradientUnits="userSpaceOnUse" x1="645.058" y1="788.9184" x2="650.175" y2="772.559" gradientTransform="matrix(1 0 0 -1 0 880)">
		<stop  offset="0" style="stop-color:#41A380"/>
		<stop  offset="1" style="stop-color:#63D5AC"/>
	</linearGradient>
	<path class="st61" d="M652.5,93.9c-0.4-0.8-1.4-1.9-2-2.3c-1-0.6-3.7-1.1-4.4-0.9c-0.5,0.1-0.7,0.3-1.3,1.2c-0.3,0.4-1,1.1-1.5,1.7
		c-1.7,1.6-1.9,2.2-1.5,4.1c0.5,2.2,0.7,3.3,0.8,4.8c0.2,2.1,0.3,2.5,0.6,3.2c0.4,0.8,0.9,1.3,1.8,1.8c0.9,0.5,2.1,0.7,2.6,0.6
		c0.4-0.1,1.6-1,2.5-1.8c1.6-1.4,2.2-2.7,2.7-5.9c0.3-2.1,0.4-3.3,0.3-4.3C653,95.4,652.7,94.4,652.5,93.9z M652.6,97.6
		c0,1.2-0.5,4.2-0.8,5.2c-0.1,0.5-0.4,1.1-0.7,1.5c-0.7,1.1-3.2,3.2-3.9,3.3c-0.5,0-2-0.5-2.5-0.8c-0.2-0.2-0.6-0.5-0.8-0.7
		c-0.5-0.6-0.9-1.8-1-3.5l-0.1-1.2l0.5-1c0.3-0.7,0.7-1.2,1-1.5c0.6-0.5,0.8-1,1-2.4c0.2-0.9,0.5-1.6,1.1-2.1
		c0.2-0.2,0.6-0.4,1.1-0.5c0.6-0.2,0.8-0.2,1.4-0.1c1.4,0.3,3,1.4,3.6,2.7C652.6,96.7,652.6,97.1,652.6,97.6z"/>
	
		<linearGradient id="SVGID_57_" gradientUnits="userSpaceOnUse" x1="645.2813" y1="790.5635" x2="646.2623" y2="787.3433" gradientTransform="matrix(1 0 0 -1 0 880)">
		<stop  offset="0" style="stop-color:#41A380"/>
		<stop  offset="1" style="stop-color:#63D5AC"/>
	</linearGradient>
	<path class="st62" d="M650.3,90c-2-0.9-4.2-1-5.6-0.3c-1,0.5-1.4,1-2.2,2.5c-0.4,0.8-0.8,1.5-0.9,1.5c-0.2,0.1-0.2,0.3,0,0.3
		c0.3-0.1,0.8-0.7,1.4-1.8c0.4-0.7,0.8-1.3,1.1-1.6c0.4-0.4,0.6-0.5,1.5-0.8c0.9-0.3,1.2-0.3,1.9-0.2c0.5,0,1.4,0.2,2,0.4
		c0.6,0.2,1.2,0.3,1.2,0.2C650.8,90.2,650.6,90.1,650.3,90z"/>
	
		<linearGradient id="SVGID_58_" gradientUnits="userSpaceOnUse" x1="659.1781" y1="754.9495" x2="660.7531" y2="749.9155" gradientTransform="matrix(1 0 0 -1 0 880)">
		<stop  offset="0" style="stop-color:#41A380"/>
		<stop  offset="1" style="stop-color:#63D5AC"/>
	</linearGradient>
	<path class="st63" d="M661.9,129c-1-0.7-2.2-1.5-3.3-2.6c-0.6-0.5-1.1-0.9-1.1-0.9c-0.1,0.2,1.8,2,2.7,2.6c0.9,0.6,2.4,1.4,2.4,1.3
		C662.5,129.5,662.2,129.3,661.9,129z"/>
	
		<linearGradient id="SVGID_59_" gradientUnits="userSpaceOnUse" x1="654.4442" y1="758.3772" x2="655.1012" y2="756.2622" gradientTransform="matrix(1 0 0 -1 0 880)">
		<stop  offset="0" style="stop-color:#41A380"/>
		<stop  offset="1" style="stop-color:#63D5AC"/>
	</linearGradient>
	<path class="st64" d="M655.1,121.8c-0.5-0.3-0.6-0.3-0.9-0.1c-0.4,0.1-0.4,0.2-0.5,0.6c-0.2,1.3,1.4,2,2,1
		C656,122.6,655.8,122.2,655.1,121.8z"/>
	
		<linearGradient id="SVGID_60_" gradientUnits="userSpaceOnUse" x1="655.4754" y1="753.0624" x2="656.4514" y2="749.9454" gradientTransform="matrix(1 0 0 -1 0 880)">
		<stop  offset="0" style="stop-color:#41A380"/>
		<stop  offset="1" style="stop-color:#63D5AC"/>
	</linearGradient>
	<path class="st65" d="M656.8,129c-0.3-0.2-1-0.7-1.5-1.1c-0.5-0.4-0.9-0.7-0.9-0.6c-0.1,0.2,2.8,2.5,3.1,2.5
		C657.6,129.7,657.4,129.4,656.8,129z"/>
	
		<linearGradient id="SVGID_61_" gradientUnits="userSpaceOnUse" x1="654.9406" y1="751.9459" x2="655.6386" y2="749.7279" gradientTransform="matrix(1 0 0 -1 0 880)">
		<stop  offset="0" style="stop-color:#41A380"/>
		<stop  offset="1" style="stop-color:#63D5AC"/>
	</linearGradient>
	<path class="st66" d="M655.3,129.1c-0.9-0.8-1.3-1.1-0.8-0.5c0.6,0.7,1.9,1.7,1.8,1.4C656.3,129.9,655.8,129.5,655.3,129.1z"/>
	
		<linearGradient id="SVGID_62_" gradientUnits="userSpaceOnUse" x1="649.8962" y1="766.8054" x2="650.5582" y2="764.6733" gradientTransform="matrix(1 0 0 -1 0 880)">
		<stop  offset="0" style="stop-color:#41A380"/>
		<stop  offset="1" style="stop-color:#63D5AC"/>
	</linearGradient>
	<path class="st67" d="M650.6,113.3c-0.3-0.1-0.6-0.2-0.7-0.1c-0.8,0.3-1.1,1.3-0.4,1.8c0.4,0.3,0.9,0.4,1.3,0.2
		c0.3-0.1,0.4-0.2,0.4-0.5c0-0.2,0-0.6-0.1-0.8C651.1,113.6,651,113.5,650.6,113.3z"/>
	
		<linearGradient id="SVGID_63_" gradientUnits="userSpaceOnUse" x1="643.5762" y1="766.0948" x2="648.3332" y2="750.9738" gradientTransform="matrix(1 0 0 -1 0 880)">
		<stop  offset="0" style="stop-color:#41A380"/>
		<stop  offset="1" style="stop-color:#63D5AC"/>
	</linearGradient>
	<path class="st68" d="M650.7,120.2c-0.8-1.7-1.4-2.6-2.6-3.7c-1.7-1.6-3.7-2.5-5.1-2.3c-1.3,0.1-2.3,1.7-2.3,3.5
		c0,1.1,0.3,3.9,0.6,5.4c0.6,2.8,1.9,5,3.4,5.8c0.9,0.5,2.1,0.5,3.9-0.1c1.3-0.4,1.6-0.6,2.1-1.3c0.3-0.5,0.7-2.7,0.7-4
		C651.4,122.5,651,120.8,650.7,120.2z M648.7,125.6c0.1,1,0,2.2-0.3,2.7c-0.2,0.3-0.2,0.3-1.1,0.4c-1.9,0.3-3-0.3-4.2-2.2
		c-0.4-0.6-0.5-1-1-2.5c-0.5-1.5-0.6-2.1-0.8-3.7c-0.1-1-0.2-2.2-0.2-2.6l0-0.7l0.4-0.1c1-0.3,3.1,0.5,4.2,1.5
		c0.6,0.6,1.4,1.7,1.8,2.6C648,122,648.6,124.5,648.7,125.6z"/>
	
		<linearGradient id="SVGID_64_" gradientUnits="userSpaceOnUse" x1="642.162" y1="772.3912" x2="642.959" y2="769.8472" gradientTransform="matrix(1 0 0 -1 0 880)">
		<stop  offset="0" style="stop-color:#41A380"/>
		<stop  offset="1" style="stop-color:#63D5AC"/>
	</linearGradient>
	<path class="st69" d="M643,107.4c-0.2-0.1-0.5,0.1-0.8,0.5c-0.7,1-0.7,1.3-0.1,1.9c0.6,0.6,1.1,0.4,1.3-0.4
		C643.4,108.8,643.2,107.5,643,107.4z"/>
	
		<linearGradient id="SVGID_65_" gradientUnits="userSpaceOnUse" x1="638.581" y1="781.1793" x2="640.625" y2="774.7711" gradientTransform="matrix(1 0 0 -1 0 880)">
		<stop  offset="0" style="stop-color:#41A380"/>
		<stop  offset="1" style="stop-color:#63D5AC"/>
	</linearGradient>
	<path class="st70" d="M640,98.4c0,0.1,0,0.6,0,1.3c0.1,2.1,0.2,3.3,0.1,3.7c0,0.2-0.3,0.7-0.6,1.3s-0.5,1-0.5,1
		c0.1,0.1,1-1,1.2-1.5c0.4-0.8,0.4-1.5,0.2-3.7C640.4,99.1,640.2,98.2,640,98.4z"/>
	
		<linearGradient id="SVGID_66_" gradientUnits="userSpaceOnUse" x1="640.3799" y1="776.0343" x2="641.6108" y2="772.2073" gradientTransform="matrix(1 0 0 -1 0 880)">
		<stop  offset="0" style="stop-color:#41A380"/>
		<stop  offset="1" style="stop-color:#63D5AC"/>
	</linearGradient>
	<path class="st71" d="M641.2,103.9c-0.2-0.2-0.2,0-0.1,0.6c0.2,1,0.2,1.7-0.1,2.6c-0.3,0.9-0.2,1.1,0.1,0.7
		c0.5-0.6,0.7-2.2,0.4-3.3C641.3,104.2,641.2,103.9,641.2,103.9z"/>
</g>
<g>
	
		<linearGradient id="SVGID_67_" gradientUnits="userSpaceOnUse" x1="1474.6478" y1="27.9978" x2="1475.8579" y2="27.8917" gradientTransform="matrix(1 0 0 -1 0 880)">
		<stop  offset="0" style="stop-color:#41A380"/>
		<stop  offset="1" style="stop-color:#63D5AC"/>
	</linearGradient>
	<path class="st72" d="M1475.3,849.5c-0.8,1.7-1.2,6.5-0.5,5.9c0.6-0.5,1.6-6.6,1.1-6.6C1475.8,848.7,1475.5,849.1,1475.3,849.5z"/>
	
		<linearGradient id="SVGID_68_" gradientUnits="userSpaceOnUse" x1="1472.4674" y1="34.0852" x2="1479.1273" y2="33.5592" gradientTransform="matrix(1 0 0 -1 0 880)">
		<stop  offset="0" style="stop-color:#41A380"/>
		<stop  offset="1" style="stop-color:#63D5AC"/>
	</linearGradient>
	<path class="st73" d="M1477.8,844c-1.4,0.3-3.7,1.7-4.7,3c-0.6,0.7-1,1.3-0.9,1.4c0.1,0.1,4.8-2.8,7-4.3
		C1479.5,843.9,1478.7,843.9,1477.8,844z"/>
	
		<linearGradient id="SVGID_69_" gradientUnits="userSpaceOnUse" x1="1351.667" y1="158.2809" x2="1622.437" y2="136.665" gradientTransform="matrix(1 0 0 -1 0 880)">
		<stop  offset="0" style="stop-color:#41A380"/>
		<stop  offset="1" style="stop-color:#63D5AC"/>
	</linearGradient>
	<path class="st74" d="M1528.1,624.8c-2.4,0.6-3.5,1.1-5.6,2.8c-3.1,2.5-4.9,5.7-5.9,10.6c-0.6,2.8-1.1,4.7-1.9,7.6
		c-1.1,3.6-1.2,4.7-1.1,7.9c0.1,1.6,0,3.2-0.1,3.6c-0.1,0.3-0.5,2.3-0.8,4.4c-0.4,3.1-0.5,3.9-0.3,4.3c0.2,0.3,0.4,2.2,0.6,4.4
		c0.2,2.1,0.5,4.6,0.7,5.6c0.6,2.9,0.4,3.3-1.2,4.4c-0.8,0.5-1.8,1-2.1,1.2c-0.4,0.1-0.8,0.4-0.9,0.6c-0.1,0.2-0.4,0.3-0.6,0.3
		c-0.2,0-0.7,0.1-1.1,0.4c-0.3,0.2-1.2,0.6-1.9,0.8c-1.2,0.4-1.5,0.4-3.5,0c-4.9-1-8.9-0.9-11.6,0.1c-1.7,0.6-3.7,2.4-4.7,4.1
		c-0.7,1.1-1,1.4-1.8,1.6c-0.6,0.2-1.5,0.7-2.1,1.1c-1.1,0.8-2.4,2.8-2.5,3.8c0,0.5-0.1,0.6-1.2,0.3c-0.7-0.2-1.6-0.6-2.1-1
		c-0.6-0.5-1.4-0.8-2.9-1.1c-1.1-0.2-2.7-0.7-3.4-1c-0.7-0.3-2.2-0.8-3.3-1c-1.1-0.2-3.6-0.8-5.7-1.4c-2.6-0.7-5.1-1.2-8.8-1.6
		c-4-0.5-5.3-0.7-5.9-1.1c-0.8-0.5-2.1-0.7-2.4-0.4c-0.3,0.3-4-0.3-5.1-0.9c-0.8-0.4-1-0.4-2-0.2c-0.7,0.2-1.8,0.2-2.9,0.1
		c-1-0.1-2.8-0.1-4-0.1c-1.2,0-3,0.1-3.9,0.1c-1.6,0.1-3.5,0.5-4.5,1.2c-0.2,0.1-1.3,0.5-2.3,0.8c-3.4,0.9-7.4,3.1-9.9,5.5
		c-0.8,0.8-1.5,1.3-2,1.3c-0.9,0.1-1.5,0.8-2.1,2.6c-0.3,0.7-0.8,1.7-1.2,2.1c-2.2,2.3-5.8,6.6-7.2,8.7c-0.9,1.3-2.3,4.1-3.2,6
		c-0.9,2-2.5,5-3.7,6.8l-2,3.3l-3.7,3.1l-3.7,3.1l-4.4-0.4c-5.3-0.5-7.9-1.2-8.3-2.2c-0.3-0.7-0.6-0.8-1.5-0.4
		c-0.4,0.2-1.3,0.3-2.1,0.2c-3.6-0.3-7.4,0.7-9.4,2.6c-3.3,3-3.7,3.5-4,5.3c-0.3,1.5-0.2,1.7,0.3,2.7c0.7,1.3,4.1,5.3,6,7.2
		c7.2,6.9,19,12.6,30,14.5c1.1,0.2,2.2,0.4,2.5,0.5c0.4,0.1,1-0.3,2.7-1.7c1.2-1,2.7-2.4,3.3-3c0.8-0.8,1.4-1.2,1.8-1.1
		c0.3,0,0.9-0.2,1.4-0.6c0.8-0.6,0.9-0.8,1-1.8c0-1.2,0.1-1.2,1-1.6c0.5-0.2,1.3-0.7,1.7-1.1c0.7-0.6,0.8-1,0.8-1.7
		c0-0.8,0.1-1,2.4-3.1c5.1-4.7,10.7-10.7,12.4-13.7c0.3-0.5,0.9-1.1,1.2-1.2c0.4-0.1,0.7-0.5,0.8-0.7c0.1-0.3,1.3-1.4,2.6-2.6
		c1.3-1.2,2.8-2.6,3.3-3.3c0.8-1.1,1.1-1.3,1.9-1.3c0.5,0,1.4-0.3,1.9-0.6c1.1-0.7,2.4-0.6,3.9,0.3c1.1,0.6,2.1,0.6,3.9-0.2l1-0.4
		l2.8,1.6c3.3,1.8,6.5,3.3,8.7,4c1.1,0.3,1.9,0.8,3.1,1.8c0.9,0.8,1.9,1.6,2.3,1.8c0.4,0.3,0.8,0.5,0.8,0.5c0.2,0.2-1.7,2.4-2.6,2.9
		c-1.4,0.7-5.1,3.9-6.3,5.4c-0.5,0.6-1.6,2.1-2.3,3.4c-0.8,1.2-2.1,2.9-2.8,3.7c-3.4,3.6-5.8,6.9-7.6,10.5c-1.7,3.5-4.7,8.7-5.3,9.3
		c-0.8,0.7-2.1,3.4-3.3,7.1c-0.9,2.6-1.3,3.6-3.9,7.8c-1.6,2.6-3.3,5.6-3.9,6.7c-0.5,1.1-1.2,2.1-1.6,2.4c-0.5,0.4-0.8,1-1.1,2.2
		c-0.4,1.4-0.6,1.7-1.2,1.9c-0.4,0.2-0.9,0.6-1.1,1.1c-0.2,0.5-0.7,1.1-1.2,1.6c-1,0.9-3.3,3.4-5.1,5.4c-1.8,2.1-4.7,4.8-8.5,8.1
		c-1.8,1.5-3.8,3.3-4.3,3.9c-2.2,2.5-4,6.5-4.3,9.3c-0.2,1.7,0.3,4.7,1.1,6.7c1.2,3.2,3.8,5.7,7.6,7.4c1.4,0.6,2.2,0.8,4.8,1
		c2.8,0.2,3.3,0.2,5-0.2c3.4-0.9,5.6-2.3,9.6-6.1c4.2-3.9,12-12.2,17.3-18.3c0.9-1,1.5-1.6,2-1.6c0.8-0.1,1.9-0.9,1.9-1.3
		c0-0.2,1.3-1.3,2.8-2.6c4.1-3.4,7.1-6.7,8.4-9.5c0.4-0.9,0.9-1.4,1.4-1.6c0.9-0.4,1.9-1.6,2-2.4c0-0.3,0.7-1.4,1.5-2.5
		c1.6-2.2,3.3-5.3,3.9-7.2c0.4-1.1,0.6-1.4,2-2.3c3.2-2.1,6.2-5,7.4-7.3c0.2-0.5,1-1.5,1.8-2.3c1.4-1.5,2.7-3.4,3.3-4.8
		c0.3-0.6,0.8-1,2-1.7c0.9-0.5,1.9-0.9,2.3-0.9c0.4-0.1,0.9-0.4,1.2-0.7c0.6-0.6,6-2.7,6.8-2.7c1.3,0.1,5.9-2.6,7.6-4.6
		c0.7-0.9,2.8-0.9,4-0.1c0.8,0.5,0.9,0.5,2,0.3c0.8-0.2,1.8-0.2,3-0.1c1.2,0.2,2.1,0.2,3-0.1c1.3-0.3,1.3-0.3,3,0.4
		c2.3,1,5,1.3,6.5,0.7c1.1-0.4,2.9-1.9,3.4-2.9c0.3-0.5,0.5-0.5,2.1-0.4c1,0.1,2.1,0.3,2.5,0.5c0.6,0.3,0.9,0.3,1.7,0
		c0.5-0.2,1.7-0.3,2.7-0.3c2,0,4.3-0.6,5.6-1.6c0.4-0.3,1.3-1.3,2-2.2c0.7-0.8,1.4-1.5,1.6-1.5c1.1,0.1,2.5-1,2.6-2.2
		c0-0.4,1.2-1.2,3.2-2.3c0.3-0.2,2.4-1.8,4.6-3.5c2.2-1.7,4.4-3.4,5-3.7c0.6-0.3,1.7-1,2.4-1.5l1.3-1l3.8,0.2
		c2.1,0.1,5.7,0.1,8.1,0.1c4.4-0.1,5.8,0,9.1,1.1c2.1,0.6,8.9,1.4,12.1,1.3c18.2-0.3,28.9-6.5,33-19.3c0.6-1.7,0.6-2,0.4-3.8
		c-0.7-6.2-6.3-13.8-14.5-19.8c-1.6-1.1-2.7-2.2-3.6-3.3c-1.1-1.4-3-3.2-3.8-3.6c-0.1-0.1,0.3-1.4,0.9-2.9c3.5-8.6,3.5-17,0-25.7
		c-2.7-6.6-6.4-10.9-12.5-14.5c-4.1-2.4-9.2-4.1-13.3-4.5c-5-0.4-9.2,0.5-14.3,3c-2.4,1.2-3.3,1.6-3.8,1.4c-0.8-0.3-3.6-3-4.1-4.1
		c-0.2-0.5-0.8-1.1-1.2-1.3c-0.5-0.3-2.1-2.1-4.1-4.4c-3.5-4.3-5-5.7-7.7-7.4c-2.8-1.7-5.2-2.7-8.2-3
		C1530,624.5,1529.2,624.5,1528.1,624.8z M1535.7,627.7c4.2,1.7,6.2,3.3,10.8,9c3.3,4,4.1,5.3,2.9,4.4c-0.3-0.2-0.8-0.2-2.1,0.2
		c-2,0.6-3.7,0.5-4.3-0.2c-0.2-0.3-0.5-1.7-0.6-3.3c-0.4-3.6-0.6-4.2-0.8-1.7c-0.2,2-0.4,2.6-0.9,2.6c-0.2,0-1.2-0.9-2.2-2.1
		c-3.4-3.6-5.4-5.2-6.6-5.3c-0.5,0-0.3,0.2,0.9,1.7c1.6,1.9,2.5,3.4,3.2,5.2c0.5,1.3,0.4,1.5-0.5,1c-2.4-1.2-7.1-1.9-9.5-1.5
		c-2.1,0.4-4.8,1.6-6.6,3l-1.6,1.2l0.4-2.2c0.8-4.9,2.5-8.1,5.5-10.5c1.9-1.6,3.4-2.3,5.1-2.6C1530.3,626.4,1533.8,627,1535.7,627.7
		z M1581.3,643.9c9.1,3.1,14.9,8.4,18.1,16.6c2.9,7.3,3.2,14.2,1,21.1c-2.4,7.5-7.7,14.7-13.2,17.8c-1,0.6-0.9,0.4,0.2-0.6
		c0.5-0.5,1.9-1.8,3-3c8.6-9.1,12.1-19.3,10-29c-0.5-2.2-0.6-2.3-0.8-0.8c-0.2,1.7-1.3,3.5-3.4,5.5c-2.4,2.3-2.4,2.3-1.9-1.7
		c0.8-6.5-0.4-12-3.8-18c-1.6-2.8-2.9-4.6-3.4-4.7c-0.6-0.1-0.4,0.3,1,2.5c2.9,4.3,4.4,7.9,4.9,11.8c0.4,3.1,0.2,7-0.4,9.8
		c-0.6,2.6-1.2,4-0.7,1.7c0.6-2.8,0.9-7.8,0.6-9.9c-0.7-5-2.7-9.6-5.9-13.2c-5.1-5.7-11.3-7.6-18.9-5.9c-2.9,0.7-4.7,1.4-7.5,3.3
		c-5.8,3.8-10.9,9-13.4,13.7c-0.6,1.2-0.8,1.8-0.9,3.7l-0.2,2.3l0.9,1c0.5,0.5,1.4,1.3,1.9,1.6c2.1,1.5,5.2,5.5,8.8,11.2
		c2.7,4.3,4.8,7,6.6,8.4c3.8,3,6.1,3.6,11.3,2.9c0.5-0.1,0.4,0-0.2,0.2c-3.3,1.2-8.7,0.3-11.5-1.9c-1.4-1.1-2-1.9-6.2-8.9
		c-2.2-3.6-7-9.2-9.6-11.2c-2.1-1.6-2.7-2.5-3.1-4.3c-0.2-1-0.1-1.2,0.9-3.6c1.4-3,3.2-6.1,5.1-8.3c3.6-4.4,11.8-9.5,17.2-10.8
		C1572.3,642.1,1576.8,642.4,1581.3,643.9z M1553.3,644.3c1,1,1.9,2,1.9,2.1c0,0.1-0.8,0.5-1.7,1c-0.9,0.4-2.5,1.4-3.4,2.1
		c-1.8,1.4-2.1,1.4-1,0l0.7-0.8l-0.7-1.1c-0.9-1.5-1-2.3-0.4-3.1c0.3-0.3,0.4-0.7,0.4-0.8c-0.1-0.3-2.9,1.3-3.9,2.2
		c-0.4,0.3-0.8,0.6-0.9,0.6c-1.1-0.1,5.8-4.1,6.8-4.1C1551.4,642.4,1552.3,643.2,1553.3,644.3z M1535.8,642.2
		c2.9,1.4,4.3,5.3,4.3,12c0,0.9-0.1,1.7-0.2,1.7c-0.1,0-0.8-0.3-1.5-0.7c-3-1.6-7.2-2.4-10.2-1.9c-0.8,0.1-2.9,0.8-4.7,1.4
		s-3.3,1.2-3.4,1.2c-0.8-0.1-1.1-5.7-0.4-7.2c1.4-3.2,5.9-6.6,9.7-7.3C1530.9,640.9,1534.1,641.4,1535.8,642.2z M1577.4,646.1
		c3.8,1.2,7,3.5,6.8,4.9c0,0.3-0.5,0.2-3.1-0.8c-0.9-0.4-2.8-0.8-4.2-1c-2.3-0.3-2.6-0.3-4.4,0.1c-1.1,0.3-2.2,0.4-2.5,0.3
		c-0.6-0.2-1.7-1.9-1.9-2.9c-0.3-1.4,2.1-1.9,5.9-1.3C1575.1,645.5,1576.5,645.8,1577.4,646.1z M1517.6,644.6
		c-0.3,1-1.2,6.3-1.4,8.5c-0.1,1.2-0.3,2.1-0.4,2.1c-0.3,0-0.3-4,0.1-6.1c0.3-2.1,1.3-5.1,1.7-5
		C1517.7,644.1,1517.7,644.3,1517.6,644.6z M1564.2,648.9c1,1.4,0.6,2.4-2.2,4.7c-3.1,2.7-5.2,5.2-7.6,9.1c-1.2,2-2.4,3.7-2.6,3.9
		c-1,0.8-2.3-0.1-2.4-1.8c-0.1-1.7,3.5-8.3,6.2-11.6c1.5-1.8,4.1-4,5.4-4.7C1562.6,647.8,1563.4,647.9,1564.2,648.9z M1544.2,646.8
		c0,0-0.2,0.2-0.5,0.4c-0.4,0.3-0.4,0.3-0.1-0.1C1544,646.7,1544.2,646.6,1544.2,646.8z M1554.8,649.4c-2,1.6-2.6,1.7-2.3,0.5
		c0.2-0.8,2.6-2.2,3.8-2.1C1556.7,647.8,1556.3,648.2,1554.8,649.4z M1538.6,656.8c1.4,0.8,1.8,1.4,2.1,4c0.2,1.2,0.3,2.3,0.4,2.6
		c0.1,0.4,0,0.4-1.4,0.1c-0.8-0.1-1.9-0.2-2.4-0.2c-0.8,0.1-0.9,0.2-0.9,0.6c0,0.5,0.2,0.6,1.6,0.7c2.4,0.2,3.4,0.7,3.5,1.7
		c0,0.4,0,0.8,0,0.8c-1.6,0.8-2,0.9-3.5,0.5c-1.7-0.3-4.7-0.3-5.5,0c-0.3,0.1-0.9,0.2-1.3,0.1c-1.2-0.1-3.1,0.3-4.7,0.9
		c-1.6,0.6-1.6,0.4,0-1.5c1.1-1.3,3.2-2.9,4-3c0.3-0.1,0.5-0.2,0.5-0.4c-0.1-0.3-0.4-0.4-1.7-0.3c-0.7,0-0.9,0-1-0.3
		c-0.2-0.7-1-0.4-2.3,0.6c-0.7,0.6-1.4,1-1.4,0.9c-0.2-0.3,1.4-2.6,2.4-3.5c0.6-0.4,1.3-0.9,1.7-1.1c1-0.3,0.8-0.5-0.5-0.5
		c-1.2,0-3.9,0.9-5.2,1.8c-2,1.3-1.4,0.3,1.1-1.6c3.3-2.6,6.4-3.8,10.3-4C1536.3,655.8,1537.1,656,1538.6,656.8z M1515.4,661.8
		c-0.2,0.4-0.4,0.7-0.6,0.6c-0.2,0,0.1-2,0.7-4.7c0.2-1.1,0.3-1.1,0.2,1.1C1515.8,660.3,1515.6,661.4,1515.4,661.8z M1544.4,666.9
		c0.1,0.4,0.2,0.9,0.2,1.1c0,0.3,0.4,0.7,1.3,1.3c3.4,2.2,6.5,5.5,10,10.5c1.9,2.8,4.8,7.9,4.7,8.5c0,0.4-0.4-0.1-1.6-2.2
		c-0.4-0.7-1.3-2.1-2-3.1c-0.7-1-1.8-2.8-2.6-4c-1.9-3-5.5-6.9-5.6-6c0,0.1,0.8,1.1,1.8,2.2c1.8,1.9,2.7,3.2,2.7,3.9
		c-0.1,0.8-1,0.1-3.1-2.2c-2.5-2.8-4.8-4.6-8-6.5c-1.2-0.7-2.3-1.3-2.3-1.4c-0.3-0.2,0.4-1,1.1-1.2c0.5-0.1,1.2-0.5,1.8-0.9
		c0.5-0.4,1-0.6,1.1-0.7C1544.1,666.3,1544.2,666.6,1544.4,666.9z M1539.3,669.7c0.6,0.4,1,0.9,1,0.9c0,0.1-0.7,0.3-1.5,0.4
		c-1.7,0.3-3.3,1-3.1,1.4c0.2,0.4,0.7,0.4,2-0.1c0.7-0.2,1.8-0.4,2.7-0.5l1.5,0l2.1,1.7c3.1,2.5,4.8,4.4,6.4,6.9
		c2.4,3.9,2.3,4.1-0.4,0.9c-1.4-1.7-3-3.4-3.5-3.9c-1.8-1.8-5.3-4.8-5.6-4.8c-0.9-0.1-0.2,0.8,1.9,2.8c2.4,2.2,4.1,4.3,5.5,7
		l0.8,1.6l-2.1-2.4c-2.5-2.8-5.4-5.7-5.7-5.8c-0.6-0.1-0.3,1,0.6,1.7c1.2,1,6.7,7.3,6.9,8c0.1,0.3-0.5-0.2-1.4-1.1
		c-0.9-0.9-2-2-2.6-2.5c-0.6-0.5-1.9-1.9-3-3c-2.7-2.8-3.8-3.7-4.3-3.3c-0.2,0.2-0.2,0.4,0.3,0.8c2.1,1.9,5.3,5.5,6.5,7.2
		c2.4,3.4,6.2,10.2,5.9,10.5c-0.3,0.2-3.8-2-4.4-2.8c-1.2-1.7-7-7.6-7.3-7.6c-0.7,0.2-0.4,0.8,1.9,3.1c1.3,1.3,2.3,2.5,2.3,2.6
		c0,0.1-0.2,0.1-0.3,0c-2.8-2.6-5.1-4.4-5.2-4.3c-0.1,0.1-0.9-0.7-1.8-1.8c-1.8-2-2.4-2.4-4-2.3c-1.5,0.1-2.3,0.5-4.9,2.4
		c-3.9,2.9-6,4.7-6.6,5.8l-0.6,1l-0.7-0.6c-0.6-0.5-1-0.6-2.9-0.8c-1.7-0.2-2.2-0.1-2.2,0.2c0,0.2,0.3,0.4,0.7,0.6
		c0.7,0.2,0.8,0.4,1.1,1.8c0.5,2.1,0.5,3-0.1,1.7c-0.2-0.5-0.8-1.3-1.2-1.8c-1.2-1.2-4.4-3.4-6.3-4.3c-0.9-0.4-1.7-0.9-1.7-1
		c0-0.1,0.6-0.4,1.3-0.6l1.3-0.3l2.2,0.9c1.7,0.7,2.3,0.8,2.5,0.6c0.4-0.3,0.1-0.6-1.8-1.3c-1.5-0.6-1.7-0.8-0.9-1.1
		c0.8-0.3,6.5,0.3,8.1,0.8c1,0.4,1.5,0.4,1.7,0.3c0.2-0.1,0.2-0.3,0.1-0.5c-0.5-0.5-3.2-1.3-5.4-1.5c-1.4-0.1-2.3-0.3-2.3-0.5
		c0-0.1,0.1-0.2,0.2-0.2c0.1,0,0.9-0.5,1.7-1.2c1.4-1.2,1.5-1.2,2.9-1.1c1.2,0.1,3.6,0.6,4.7,1.1c0.3,0.2,0.4,0,0.5-0.9
		c0.1-0.9,0.2-1.2,1.1-1.8c1.1-0.8,3.6-1.5,6.8-1.9c1.5-0.2,1.5-0.2,1.4-0.9c-0.2-1.6-0.4-1.8-2.3-2.2c-1-0.2-2-0.3-2.2-0.2
		c-1.5,0.4,2-2.6,4.1-3.6c1.8-0.8,2.9-1,4.9-0.9C1538,669,1538.4,669.1,1539.3,669.7z M1544.7,672.3c2.2,1.6,4.7,4,6.4,6
		c1.5,1.8,1,1.5-2.4-1.7c-1.5-1.4-3.5-3.2-4.4-3.9c-1.9-1.6-2.2-1.8-1.8-1.8C1542.6,670.8,1543.6,671.5,1544.7,672.3z M1532.7,681.5
		c0.7,0.1,9.2,10,11.2,13.1l0.5,0.8l-1.4,1.5c-3.2,3.3-7.3,6.1-11,7.4c-3.3,1.2-2.8,1.5-5.6-3.2c-1.4-2.3-2.8-4.6-3-5.1l-0.6-0.9
		l2.9-2.2c1.6-1.2,3-2.4,3.2-2.6c0.4-0.6-0.1-1.9-1.6-4.2l-1.2-1.9l0.9-0.8c1.8-1.5,4-2.4,5.1-2
		C1532.2,681.4,1532.5,681.5,1532.7,681.5z M1580.6,690.1c-0.6,0.4-2.4,1.1-2.6,1.1c-0.1,0,0.5-0.4,1.4-0.8
		C1580.9,689.6,1581.7,689.4,1580.6,690.1z M1526.6,687c1.4,2.2,1.6,3.3,0.7,3.9c-0.3,0.2-1.4,0.7-2.5,1.2c-2.2,0.9-3.1,1.7-3.2,2.6
		c0,0.5,2.1,4.4,5,9c0.7,1.1,1.3,2.2,1.2,2.4c0,0.2,0.1,0.4,0.4,0.4c0.9,0.1,5-1.4,7.4-2.7c2.5-1.3,6.8-4.6,8.1-6.1
		c0.4-0.5,0.8-0.8,0.9-0.8c0.2,0,0.5,2.8,0.4,3.9c-0.1,0.6-0.6,1.2-3.1,3.3c-1.7,1.4-3.8,3-4.6,3.5c-2.6,1.6-5.5,2.9-6.2,2.9
		c-0.8-0.1-1.6-1-4.4-5.7c-1.2-2-3.4-5.6-4.9-8.1c-2.9-4.8-2.9-5-2.1-6.9c0.4-0.8,1.1-1.6,2.8-3c1.3-1,2.4-1.9,2.6-1.8
		C1525.1,684.9,1525.8,685.8,1526.6,687z M1577.4,691.4c-0.2,0.1-0.5,0.2-0.6,0.2c-0.1,0-0.1-0.1,0.1-0.2c0.2-0.1,0.5-0.2,0.7-0.2
		C1577.7,691.2,1577.6,691.3,1577.4,691.4z M1585.3,692.3c0,0.4-0.7,1.7-0.9,1.7c-0.1,0-0.2-0.2-0.3-0.4c-0.2-0.6-1.2-0.5-2.9,0.3
		c-1.9,1-3,2.3-2.7,3c0.2,0.3,0.2,0.5,0.2,0.6c0,0.2-2.7-0.1-2.8-0.4c-0.4-0.8,2.6-3.6,4.7-4.4
		C1582.5,692.1,1585.4,691.8,1585.3,692.3z M1497.6,684.9c0,0-0.3,0.5-0.7,0.9c-0.4,0.5-0.7,1-0.7,1.2c0,0.2-0.6,0.4-1.2,0.5
		c-2.1,0.2-3.6,0.9-5,2c-2.2,1.8-3.4,1.2-1.9-1c0.8-1.3,2.4-2.5,3.6-3C1493,684.9,1497.7,684.5,1497.6,684.9z M1504.9,686.2
		c2.4,0.8,3,1.2,3.4,2.3c0.4,1.1,0.8,3.6,0.6,3.8c-0.1,0-0.5-0.2-0.8-0.5c-0.8-0.7-3.6-1.7-6.9-2.4l-2.3-0.5l0.1-1
		c0.1-0.6,0.4-1.4,0.8-1.8l0.7-0.9l1.7,0.3C1503.2,685.7,1504.4,686,1504.9,686.2z M1606,696.4c2.3,1.8,5.9,4.7,5.9,4.9
		c0,0.1-1.1,0-2.5-0.1c-1.6-0.1-2.6-0.1-2.7,0c-0.1,0.2-1.5,0.2-3.8,0.1l-3.5-0.2l-0.2-1.2c-0.2-1.7,0.1-4.7,0.5-5
		c0.4-0.3,1.1-0.4,2.7-0.3C1603.7,694.7,1603.9,694.8,1606,696.4z M1510.3,689.8c0.3,3.4,0.2,5.1-0.3,4.9c-0.2-0.1-0.2-0.6-0.1-1.7
		c0.2-1.4,0.1-2.8-0.3-4.1c-0.1-0.3,0-0.3,0.3-0.2C1510.1,688.8,1510.3,689.3,1510.3,689.8z M1583.3,696.1c-0.9,0.6-2.7,1.5-3,1.4
		c-0.4,0,0.4-0.6,1.8-1.3C1583.9,695.2,1584.6,695.2,1583.3,696.1z M1512.9,692.5c0.1,1.9-0.3,4-0.7,3.9c-0.2,0-0.2-0.4,0.1-1.1
		c0.4-1.3,0.5-3.3,0.2-4.2c-0.2-0.5-0.1-0.7,0.1-0.6C1512.7,690.7,1512.8,691.4,1512.9,692.5z M1519.4,694
		c1.2,1.5,7.5,11.7,7.4,12.1c0,0.1-0.2,0.2-0.4,0.2c-0.2,0-1,0.5-1.7,1c-0.9,0.8-1.4,1-1.6,0.8c-0.4-0.5-0.4,0.3,0.1,1.2
		c0.2,0.4,0.8,1.2,1.2,1.7c0.6,0.7,0.7,0.9,0.4,1.1c-0.2,0.1-0.5,0.2-0.7,0.2c-0.5,0-2.9,2.2-3.3,3c-0.2,0.4-0.4,1-0.6,1.4
		c-0.2,0.6-0.3,0.7-0.5,0.3c-0.8-1.1-4.9-6.8-5-6.8c-0.1,0-0.1,0.2,0,0.5c0.1,0.7-0.2,0.6-1-0.4c-1.2-1.5-1.4-2-1.3-3.5
		c0.1-1.1,0.2-1.4,0.7-1.6c0.5-0.3,1.9-2.4,2-3c0-0.2-0.2-0.2-0.7,0.1c-0.6,0.4-2.7,0.5-2.6,0.2c0-0.1,0.7-0.7,1.6-1.5l1.6-1.3
		l0.5,1.3c0.3,0.7,1.1,2,1.7,2.8c1.2,1.5,3.3,3.3,3.6,3c0.1-0.1-0.1-0.5-0.4-0.9s-0.7-1.2-0.9-1.6c-0.4-0.7-0.3-0.7,0.7,0.4
		c1.1,1.1,1.8,1.5,1.4,0.9c-0.1-0.2-0.6-1-1.1-1.7c-2.3-3.6-2.9-5-3.1-7.2c-0.3-2.8-0.2-4.2,0.3-4.1
		C1518.1,692.5,1518.8,693.2,1519.4,694z M1514.1,693.7c-0.1,0.2-0.2,0.1-0.1-0.2c0-0.3,0.1-0.4,0.2-0.3
		C1514.2,693.3,1514.2,693.5,1514.1,693.7z M1547.3,696.9c0.2,0.9,0.2,0.9-1,1c-0.8,0.1-0.9,0-1.1-0.6c-0.3-0.8-0.3-1.2,0-1.1
		c0.1,0.1,0.4,0.1,0.7,0C1546.8,695.9,1547.2,696.1,1547.3,696.9z M1487.8,691.2c0,0.1-0.2,0.6-0.5,1c-0.3,0.4-0.6,1.4-0.6,2.1
		c-0.1,0.7-0.2,1.3-0.3,1.3c-0.3,0-0.7-0.7-0.6-1.2c0-0.5,0-0.6-0.5-0.5c-0.4,0.1-0.6-0.1-0.6-0.4c-0.1-0.2-0.2-0.5-0.3-0.5
		c-0.3,0-1.7,1.8-2.3,2.9l-0.5,0.9l0.1-1c0.1-2.2,1.3-3.7,3.2-4.4C1486.1,690.9,1487.8,690.8,1487.8,691.2z M1490.9,691.7
		c1.9,0.5,6.9,2.5,7.9,3.1c0.5,0.3,0.5,1.7,0,2.1c-0.5,0.4-1.9,0.2-2.8-0.4c-1.1-0.8-2.6-1.3-5.5-1.7l-2.6-0.4l0-0.7
		c0-0.5,0.8-2.5,1-2.5C1488.9,691.1,1489.8,691.4,1490.9,691.7z M1612,702.8c0.4,0.2,1,0.3,1.3,0.2c0.9-0.2,4.6,5.1,6.1,9
		c0.8,2.1,0.8,2.3,0.7,4.4c-0.1,1.6-0.4,2.6-0.9,3.8c-0.9,2.2-3.1,5.7-4.1,6.6l-0.8,0.8l1-2.2c0.7-1.5,1.1-2.9,1.3-4.4
		c0.3-1.9,0.2-2.2-0.2-3.5c-0.7-1.8-1.7-3.1-3.4-4.3c-2.3-1.6-4.3-2.4-7.7-2.6c-3.8-0.3-5.3,0-7.2,1.4c-2.4,1.8-3.6,4.5-4.4,9.6
		c-0.5,2.8-0.6,2.8-1.2-0.1c-0.6-2.5-0.5-6.3,0.1-8.7c0.3-1.2,0.4-1.9,0.3-2.2c-0.2-0.4-0.3-0.4-0.8,0.3c-1.1,1.5-1.4,2.5-1.8,7.1
		c-0.3,3.3-0.3,5.1-0.1,7.2c0.1,1.6,0.2,2.9,0.2,2.9c-0.1,0.1-1.1-0.5-1.9-1.3c-1.6-1.4-2.1-4.6-1.7-10.2l0.1-1.9l-0.5,1.2
		c-0.2,0.6-0.7,2.2-1,3.6c-0.6,2.3-1.2,3.7-1.7,3.7c-1-0.1-0.5-5.6,1-10.2c1-3,1.4-3.7,3.5-5.3c1.2-1,1.5-1.1,1.7-0.8
		c0.1,0.2,0.8,0.6,1.6,0.8c1.1,0.3,1.6,0.4,3.2,0.1c1-0.2,2.5-0.2,3.3-0.1c1.1,0.1,1.5,0.1,1.6-0.2c0.2-0.4,1.8-0.3,3.5,0.3
		c0.7,0.2,1.3,0.4,1.4,0.2c0.1-0.1-0.4-0.6-1.1-1.2c-0.7-0.5-1.5-1.3-1.8-1.6l-0.5-0.6l1.1-0.7C1605.2,702.2,1609,701.7,1612,702.8z
		 M1436.1,688.2c0.8,2.4,0.6,4.8-0.6,8.6c-0.8,2.5-3.2,5.2-4.9,5.5c-0.5,0.1-0.7-0.1-1.4-1c-1-1.3-3.5-3.8-3.7-3.6
		c-0.1,0.1,0.1,0.4,0.3,0.7c0.6,0.8,1.7,3.7,1.8,4.9c0.1,1.4-0.4,2-1.5,1.9c-1.1-0.1-2.4-1.8-3.6-4.9c-0.5-1.3-1-2.3-1-2.3
		c-0.1,0,0.1,1.2,0.4,2.5c0.7,3.1,0.8,4.6,0.3,4.6c-0.8-0.1-3.4-4.3-4.3-7.2c-0.1-0.5-0.4-0.8-0.5-0.7c-0.4,0.2-0.3,3.5,0.3,6
		c0.7,2.9,0.7,3.2-0.2,3.3c-1.3,0.2-5.2-1-7.8-2.4c-1.2-0.6-1.4-0.9-1.8-2c-0.3-0.7-0.6-1.2-0.6-1.3c-0.4,0-0.4,2.1,0,3.1
		c0.4,1,1.9,2.6,3.5,3.8c0.8,0.6,0.8,1,0.1,1.6c-0.5,0.4-0.8,0.4-1.8,0.2c-2.7-0.5-6-2.6-6.6-4.1c-0.2-0.5-0.4-0.8-0.5-0.9
		c-0.3,0-0.1,1.5,0.4,2.9c1.2,3.2,4.6,5,9.1,4.8c2.7-0.1,3.6-0.3,6.3-1.3c2.3-0.9,4.1-1.1,4-0.5c0,0.4-2.8,1.3-6.7,2.2
		c-2.3,0.6-3,0.6-4.9,0.5c-2.1-0.2-2.3-0.3-4.3-1.4c-2.1-1.2-3.6-2.8-4.5-4.7c-0.6-1.1-0.8-0.9-0.3,0.2c0.2,0.5,1,1.8,1.8,2.7
		c2.2,2.8,6.8,5.2,11.6,6.2l1.6,0.3l-0.4,0.7c-0.8,1.1-2.2,2.3-3.2,2.7c-2.6,0.9-4.6-0.2-8.5-4.6l-1.7-1.9l0,1.4
		c0,1.7,0.6,3.8,1.5,6.2c1.2,3.1,1.3,4.9,0.3,6.9c-0.8,1.7-2.3,3.2-4.2,4.3c-2.2,1.3-3.5,1.6-5.7,1.4c-2.4-0.2-3.7-0.7-5.7-2.2
		c-0.8-0.6-1.6-1.1-1.7-1c-0.1,0.1,0.4,0.8,1.1,1.6c3.2,3.9,6.2,8.3,5.9,8.6c-0.2,0.2-3.3-1.6-5.9-3.5c-1.3-1-2.8-2.4-3.8-3.5
		c-0.8-1-1.6-1.8-1.7-1.7c-0.2,0.2,2.5,4.2,3.9,5.8c0.8,0.9,2.3,2.2,3.4,3c2,1.5,3.2,3,3,3.8c-0.2,0.7-4.7-3.4-6.3-5.9
		c-0.3-0.5-0.7-0.8-0.7-0.8c-0.1,0.1,0,1,0.2,2c0.4,2.5,0.2,3.3-0.4,1.3c-0.7-2.4-3.8-9.7-3.9-9.2c-0.1,0.3,1,4.1,2.3,8
		c0.2,0.6,0.1,0.8-0.8,1.7c-0.6,0.5-1.4,1.2-1.9,1.4c-2,0.8-2.6-0.5-2.8-5.4c-0.1-2.4-0.1-2.4-0.4-1.3c-0.4,1.9-1.5,3.4-3.2,4.4
		c-1.1,0.6-2.7,0.6-3.8,0c-1.2-0.7-2.3-3.5-2.5-6.3c0-0.6-0.2-1.5-0.3-1.8c-0.4-0.9-1.1-3.3-1-3.5c0.1,0,0.4,0.1,0.7,0.2
		c1.4,0.7,4.6,1.4,8,1.7c5.2,0.5,5.6,0.4,6.8-0.9c0.6-0.6,1.1-1.1,1.1-1.1c0.1,0,0.5,0.3,1.1,0.6c0.5,0.3,1.1,0.6,1.2,0.6
		c0.4,0,0.3-0.6-0.3-1.3c-0.7-0.7-0.7-1.1,0-1.6c0.5-0.4,0.6-0.4,1.2,0.1c0.4,0.3,0.9,0.5,1.1,0.5c0.4,0,0.3-0.1-0.2-0.7l-0.7-0.8
		l1.2-1.1c1.6-1.5,5.1-7.2,6.9-11.4c0.8-1.8,2.1-4.3,2.9-5.5c2.4-3.6,7.3-9.3,7.9-9.1c0.2,0.1,0.8-0.8,1.6-1.9c2.6-4,5.5-6.3,10-8.1
		c2.6-1,3.3-1.1,2.9-0.5c-0.1,0.2-0.3,0.6-0.4,0.8c-0.1,0.2,0.4-0.1,1.1-0.5c1.2-0.8,1.9-1.1,4.2-1.3c0.4,0,0.8-0.3,0.9-0.5
		c0.2-0.6,3.4-0.8,7.4-0.5l1.9,0.1L1436.1,688.2z M1437.6,688.1c2.2,2.8,2.4,7.4,0.5,12c-1.1,2.8-3.4,5.7-5.4,6.8
		c-0.8,0.4-1.8,1.1-2.3,1.4c-1.1,0.8-2.7,1.6-3.2,1.6c-0.7-0.1-0.3-0.7,0.7-1c0.8-0.3,1.4-0.8,2.4-2c1.5-1.8,2-2.2,3.3-3
		c1.6-1,3.3-4.4,3.9-7.7c0.5-2.9,0.2-5-1.1-8.7C1436.2,686.9,1436.9,687.3,1437.6,688.1z M1442.4,687.9c1.6,0.3,1.7,0.4,2.8,1.7
		c0.6,0.7,1.4,1.9,1.7,2.6c0.7,1.8,0.3,5.9-0.9,9.4c-0.8,2.3-2.2,5.7-3,7c-0.5,0.9-0.8,0.8-0.5-0.2c0.3-1.1,1.2-11.2,1.1-12.9
		c-0.1-0.8-0.2-1.4-0.3-1.4c-0.2,0-0.2,0.1-0.1,0.2c0.2,0.3-0.7,4.8-1.4,6.9c-0.3,0.9-1.2,2.7-2,4c-1.5,2.3-4,5.4-4.5,5.4
		c-0.1,0,0.2-0.9,0.7-1.9c2.1-4.3,4-10.7,4.3-14.5c0.2-2.1-0.2-4.5-0.9-5.8c-0.2-0.3-0.3-0.6-0.3-0.7
		C1439.1,687.4,1440.4,687.5,1442.4,687.9z M1514.1,695.8c-0.2,0.7-0.4,1.3-0.5,1.4c-0.3,0.1,0-1.7,0.4-2.5
		C1514.3,694,1514.4,694.6,1514.1,695.8z M1452.9,689.5c3.8,0.4,8.3,1.4,11.9,2.5c0.9,0.3,2,0.5,2.6,0.6c0.5,0,1.6,0.4,2.3,0.7
		c1.1,0.5,1.5,0.9,2.6,2.6c0.7,1.1,1.3,2,1.4,2c0,0,0.1-0.6,0.1-1.2c0-0.7,0-1.2,0.1-1.2c0.5,0,1.7,1.3,2.5,2.4
		c0.9,1.4,1.3,1.4,0.9,0c-0.1-0.4-0.2-0.8-0.1-0.8c0.2-0.2,4.2,2.4,4.9,3.1c1.8,1.8,4.2,4.6,5,6.2c4.1,7.7,6.2,11.1,9.6,15.8
		c3,4.1,3.8,6.9,2.8,9.6c-0.5,1.5-0.9,2.1-1.4,2.1c-0.4,0-10.3-7.9-12.4-9.9c-4.2-4-8-9.2-8.5-11.6c-0.1-0.5,0-2.5,0.1-4.5
		c0.4-4,0.4-6.6,0.1-6.6c-0.1,0-0.2,0.3-0.3,0.6c0,0.4-0.2,0.9-0.3,1.2c-0.2,0.3-0.2,0.1-0.1-1c0.2-2.1-0.2-1.4-1,1.6
		c-0.3,1.4-0.8,2.9-1,3.2c-0.4,0.6-0.4,0.5-0.6-1.2c-0.2-2.9-1.9-8.2-2.6-8.3c-0.2,0-0.2,0.2-0.2,0.4c0.1,0.2,0.2,0.9,0.3,1.5
		c0.4,2.5-1.6,11.2-2.5,11.2c-0.1,0-0.3-0.7-0.5-1.5c-0.4-1.9-2.2-6.4-3.8-10c-1.4-3.1-1.4-3.1-1.6-3c-0.1,0,0.2,1,0.7,2.1
		c1.7,4.3,2.2,7.7,1.6,11.9c-0.3,2.6-0.5,3.4-1,4.4c-0.9,1.5-1.4,2-2.2,1.9c-1.2-0.1-1.5-0.7-2.9-5.6c-0.3-1-0.6-1.8-0.8-1.8
		c-0.2,0-0.4,0.6-0.6,1.2c-0.5,2-2.1,3.2-4.2,3c-1.9-0.2-3.7-1.9-3.5-3.6c0.1-1.1-0.3-5.8-0.9-9.4c-0.3-1.8-0.6-4.1-0.7-5.2
		c-0.3-2.2-0.8-3.9-1.6-5.1c-0.3-0.4-0.5-0.9-0.5-1c0-0.1,0.5-0.1,1.2,0.1C1448.4,689,1450.7,689.3,1452.9,689.5z M1558.9,699
		c-1.4,0.8-3.6,2.6-4.8,4.1c-2.1,2.5-4.4,7.2-5.3,10.7c-0.6,2.4-1,2.7-0.7,0.5c0.3-1.7,1.1-4.8,1.6-6c0.1-0.3,0.1-0.4-0.1-0.3
		c-0.2,0.1-0.3,0.1-0.3,0c0-0.5,1.2-3.2,1.8-4.3c0.4-0.7,0.8-1.5,0.8-1.7c0.1-0.8,3.7-2.6,6.1-3
		C1559.5,698.6,1559.7,698.6,1558.9,699z M1568.3,700.2c3.9,0.9,7.4,1.8,7.6,2c0.1,0.1-0.5,0.6-1.2,1.3c-1.9,1.7-3.5,4-5,7.3
		c-0.7,1.5-1.8,3.8-2.4,5l-1.2,2.2l-1.7,0.3c-2.1,0.3-4.7,0.1-6.3-0.5c-0.7-0.3-1.7-0.6-2.2-0.7c-0.8-0.2-1-0.4-1.2-1.1
		c-0.6-1.8,0.3-5.8,2.2-10.1c0.4-1,0.8-1.9,0.7-2c-0.4-0.4-3.5,3.7-5.3,7c-0.7,1.3-1.5,2.6-1.7,3c-0.4,0.7-0.4,0.7-0.2-0.5
		c0.7-3.3,2.6-7.3,4.6-9.7c1-1.2,3.1-2.9,4.4-3.7c0.6-0.3,1.2-0.8,1.2-1C1560.7,698.6,1562.5,698.9,1568.3,700.2z M1501.1,697.4
		c0.1,1.4-0.2,2.4-0.9,3c-0.6,0.6-1.3,0.6-1.6,0.1c-0.2-0.2-0.1-0.6,0.5-1.5c0.4-0.7,0.8-1.6,0.8-2.4c0.1-1.2,0.1-1.2,0.6-0.8
		C1500.8,696.2,1501,696.7,1501.1,697.4z M1503.3,697.3c1,1.2,1.4,1.8,1.6,2.9c0.2,0.8,0.2,1.4,0.1,1.5c-0.3,0.4-0.9,0.2-0.8-0.3
		c0.1-1.2-0.4-2.5-1.6-3.9c-0.7-0.8-1.2-1.6-1.2-1.7C1501.4,695.4,1502,695.9,1503.3,697.3z M1581.5,703.9c2.4,0.8,4.8,1.6,5.4,1.8
		l1,0.4l-1.4,1.3c-2.7,2.4-4.4,6-6,12.4c-0.3,1.3-0.6,2.4-0.7,2.5c0,0-0.7-0.1-1.5-0.3c-0.8-0.2-2.3-0.4-3.4-0.4
		c-2.3,0-3-0.4-3.5-1.9c-0.5-1.6,0.2-6,1.7-10.1c0.7-1.8,1.2-3.4,1.2-3.4c0,0-0.2,0-0.4,0.2c-0.3,0.2-0.4,0.2-0.4,0
		c0-0.3,2.6-2.9,3-3.1c0.2-0.1,0.2-0.3,0.2-0.5C1576.6,702.2,1576.6,702.2,1581.5,703.9z M1548.2,702.4c-0.5,0.8-1.2,1.2-1.6,0.8
		c-0.1-0.1,0.3-0.5,0.9-1c0.6-0.5,1-0.8,1.1-0.7C1548.6,701.5,1548.4,701.9,1548.2,702.4z M1502.8,700.1c-0.2,1.8-0.7,2.8-1.4,2.7
		c-0.7-0.1-0.7,0,0-1.3c0.3-0.6,0.7-1.6,0.7-2.4c0.1-1.2,0.2-1.3,0.4-0.8C1502.8,698.7,1502.8,699.4,1502.8,700.1z M1484.7,697.4
		c0.9,0.2,1.7,0.5,1.8,0.6c0.1,0.1,2.1,1.6,4.4,3.2c4.1,2.9,4.1,3,5.4,5.1c3.4,5.7,5.3,10.3,6.2,15.1c0.3,1.8,0.6,3.4,0.5,3.6
		c0,0.2-0.6-1.3-1.3-3.3c-1.4-4-2.7-7.3-4-9.6c-1.1-2-4.8-6.3-6.6-7.8c-1.6-1.3-2.2-1.3-1.2-0.2c3.5,4.5,4.5,6.1,4.9,8.1
		c0.3,1.3,0.4,3.7,0.2,3.7c-0.1,0-0.4-0.5-0.7-1.1c-1.6-3.2-10.5-15-12.6-16.5c-0.7-0.5-1.3-1-1.3-1.1c0-0.2,0.9-0.3,2-0.2
		C1482.8,697,1483.8,697.2,1484.7,697.4z M1544,703.1c0,0.1,0.7,0.6,1.7,1c0.9,0.5,1.7,0.9,1.8,1c0.1,0.1-0.7,1.5-1.7,3
		c-2.5,4.1-2.8,4.9-3.2,10.3c-0.3,3.4-0.3,4.9-0.1,6.1c0.1,0.9,0.3,1.9,0.4,2.2c0.1,0.5-0.1,0.3-1.1-0.8c-2.8-3.5-4.8-7.1-5.4-10
		l-0.3-1.4l-0.4,1.3c-0.4,1.3-0.8,6.5-0.5,7.4c0.3,1-0.3,0-1.2-2l-0.9-2l0.6-1c0.5-0.8,0.6-1.1,0.4-1.8c-0.1-0.5-0.4-1-0.5-1.2
		c-0.3-0.3-0.3-0.1-0.5,1c-0.1,1.6-0.5,1.8-0.8,0.4c-0.1-0.5-0.5-1.5-1-2.3c-0.9-1.7-2.8-2.9-4.4-2.9c-1,0-1.1,0-2.1-1.4l-1-1.4
		l1.5-1.2c0.9-0.7,1.7-1.2,1.8-1.2c0.1,0,0.6,0.6,1,1.3c1,1.6,2.3,2.9,2.9,3c0.2,0,0.9-0.2,1.6-0.4c0.7-0.2,1.6-0.4,2.2-0.4
		c1.5,0.1,4.6-1.4,7.4-3.5c1.8-1.3,2.3-1.9,2.2-2.2c-0.2-0.6-0.5-0.4-3.4,1.7c-1.3,0.9-2.8,1.9-3.4,2.2l-1.1,0.5l1.5-1
		c0.8-0.6,2.5-1.9,3.7-2.8C1543.6,703,1544,702.7,1544,703.1z M1548.7,706c-0.7,2-0.8,2.8-0.1,2.6c0.5-0.1,0.5,0-0.5,2.1
		c-0.5,1-1.3,3.1-1.8,4.6c-1.3,3.7-1.5,3.3-1.1-1.6c0.3-3.5,0.4-3.9,1.1-5.4c0.7-1.4,2.9-4.4,3.1-4.2
		C1549.4,704,1549.1,704.9,1548.7,706z M1509.2,703.7c1.3,1.4,2.4,3.2,2.8,4.8c0.4,1.4,1.4,2.8,2.6,3.5c0.5,0.3,1.6,2.6,1.5,3.3
		c0,0.1-0.6-0.6-1.3-1.7c-0.7-1-2.2-3-3.2-4.3c-2.1-2.6-4.4-6.7-3.8-6.6C1508.2,702.7,1508.8,703.1,1509.2,703.7z M1508.2,704.8
		c0.4,0.8,1.3,2.6,2,3.9c1.5,2.8,1.9,4,2,5.8c0.1,2.1-0.3,2.2-1.4,0.4c-0.6-0.9-1.2-2-1.4-2.5c-0.4-1-2.2-3.8-3.8-6.1
		c-1.1-1.5-1.3-2.2-0.7-2.3c0.8-0.2,2.3,2.4,3,5c0.1,0.3,0.2,0.4,0.2,0.4c0.1-0.1-0.1-0.9-0.3-2c-0.5-1.9-0.7-4-0.5-3.9
		C1507.4,703.3,1507.8,704,1508.2,704.8z M1505.1,707.1c0.2,0.4,0.2,0.8,0.1,0.7c-0.1,0-0.3-0.4-0.4-0.8c-0.1-0.4-0.1-0.7-0.1-0.7
		C1504.7,706.3,1504.9,706.6,1505.1,707.1z M1504.2,707.5c1,1,3.5,5.5,4.3,7.7c0.5,1.4,0.6,1.8,0.3,2.9c-0.1,0.7-0.5,2.3-0.7,3.6
		c-0.5,2.5-0.7,3-0.9,2.1c-0.3-1.9-2.7-6.6-6.3-12.4c-0.8-1.2-1-2-1-2.5C1500.2,706.5,1502.6,705.8,1504.2,707.5z M1528.7,713.2
		c0.4,0.2,0.8,0.6,0.9,0.8c0.2,0.3,0.1,0.3-0.9-0.1c-3.2-1.3-6.1,0-7.1,3.2c-0.4,1.2-0.4,1.3-0.5,0.6c-0.3-1.6,1.5-3.9,3.5-4.8
		C1525.8,712.5,1527.8,712.6,1528.7,713.2z M1433.1,708.2c-0.2,0.1-0.3,0.3-0.4,0.5c-0.1,1.2-2.1,2.3-3.9,2.1l-0.9-0.1l1.2-0.5
		c0.6-0.3,1.4-0.8,1.8-1.2c0.6-0.7,2.2-1.3,2.4-1C1433.3,708.1,1433.2,708.2,1433.1,708.2z M1527,716.9c0.3,0.6,0.4,1.9,0,2.8
		c-0.2,0.6-0.9,0.6-2.1,0.1c-0.7-0.3-0.7-0.4-0.7-1.5c0.1-1.4,0.7-2.2,1.7-2.1C1526.4,716.3,1526.8,716.6,1527,716.9z M1529.2,720.6
		c-0.3,0.2-0.7,0.3-0.9,0.3c-0.2,0-0.1-0.2,0.4-0.4c0.4-0.2,0.7-0.5,0.8-0.6c0-0.1,0.1-0.1,0.1,0.1
		C1529.6,720.2,1529.5,720.5,1529.2,720.6z M1529.3,722c-0.9,0.8-4.8,1.2-4.7,0.5c0-0.5,1-0.8,2.2-0.8c0.7,0,1.6,0,2-0.2
		C1529.8,721.3,1530,721.4,1529.3,722z M1530.5,723.5c0.1,1.1-0.5,2.2-1.5,2.7l-0.7,0.3l0.3-0.6c0.4-0.8,0.3-0.9-0.8-0.4
		c-0.5,0.2-1.4,0.4-2,0.5c-1,0-1.2,0-1.6-0.5c-0.5-0.6-0.6-1.2-0.2-1.7c0.1-0.1,1-0.2,2-0.2c1.3,0,2.1-0.1,2.9-0.5
		c0.6-0.3,1.2-0.5,1.3-0.5C1530.3,722.6,1530.4,723,1530.5,723.5z M1516.3,722.5c0.5,0.7,0.5,2.6,0.1,2.6c-0.4,0-2.5-3-2.4-3.2
		c0.1-0.1,0.5-0.2,1-0.1C1515.7,721.8,1516,722,1516.3,722.5z M1520.5,724.9c-0.1,0.8-0.3,1.6-0.5,1.8c-0.1,0.1-0.4,1.3-0.5,2.7
		c-0.3,2.2-0.2,2.5,0.3,3.9c0.5,1.4,0.5,1.6,0.2,2.7c-0.7,2.1-0.4,5.2,0.6,6.6c0.2,0.2,0.3,0.7,0.4,1.2c0.1,0.7,0,0.8-1.2,1.4
		c-0.7,0.4-1.5,0.7-1.8,0.7c-0.3,0.1-0.6,0.2-0.6,0.3c-0.1,0.6,2.3,0.2,3.2-0.5c0.5-0.4,0.7-0.4,0.7-0.1c0.7,2.4,1.6,6,1.7,6.3
		c0.1,0.4-0.2,0.4-1.8,0.4c-1.1,0-2.3-0.1-2.7-0.2c-0.7-0.2-0.8-0.3-0.7-1c0.1-0.6-0.2-1.2-0.7-2c-1-1.5-1.4-2.9-1.2-3.6
		c0.2-0.8,0-4.5-0.5-5.8c-0.3-0.8-0.3-1.4,0-2.8c0.2-1.1,0.3-2.3,0.2-3.3c-0.2-1.4-0.1-1.7,0.3-2.3c0.3-0.4,0.5-1.2,0.6-1.8
		c0.1-0.8,0.3-1.2,0.6-1.4c0.5-0.4,0.5-0.4,0.6,0.6c0.1,1.3-0.6,9.3-0.9,10.6c-0.5,1.6,0.2,0.9,0.8-0.9c0.7-2,1-5.1,0.7-8.4
		c-0.2-2.5-0.2-2.7,0.3-3.5c0.3-0.4,0.6-1.2,0.7-1.8c0.2-0.9,0.5-1.1,1.3-1.1C1520.6,723.4,1520.6,724,1520.5,724.9z M1514.7,726.2
		c0.1,0.2,0,0.2-0.4,0.1c-0.3-0.1-0.8-0.2-0.9-0.2c-0.2,0-0.3-0.1-0.3-0.3C1513.1,725.4,1514.3,725.7,1514.7,726.2z M1529.5,729
		c0.1,1.6-0.3,2.9-0.9,3.8c-0.4,0.5-0.6,0.6-1.3,0.4c-1.6-0.4-2.3-1-2.3-2c0-0.8,0.2-1.1,1-1.8c1-0.9,2.5-1.6,3.2-1.7
		C1529.3,727.7,1529.4,728.2,1529.5,729z M1514.7,727.7c1.1,0.9,1.3,1.7,0.6,3.1c-0.9,2-1.2,13-0.5,14.8c0.2,0.3,0.2,0.9,0.2,1.3
		c0,0.4,0.3,1.7,0.7,2.9c0.7,2.1,0.8,2.6,0.2,3.8c-0.4,0.8,0.3,0.5,0.9-0.4c0.3-0.5,0.6-0.7,0.6-0.5c0,0.2-0.3,0.8-0.7,1.2
		c-0.6,0.7-0.8,0.8-1.4,0.7c-0.4-0.1-1.1-0.3-1.7-0.4c-1.5-0.3-2.8-1.3-3.1-2.2c-0.3-1.1,0.4-2.6,2-4.3l1.3-1.4l-0.7-0.6
		c-0.9-0.8-1.9-2.7-2.4-4.7c-0.4-1.8-0.4-6.3,0.1-8.2l0.3-1.2l1.1,0.2c0.6,0.1,1.1,0.1,1.1,0c0-0.3-0.8-0.8-1.4-0.8
		c-0.6-0.1-0.6-0.4,0-1.7C1512.9,726.7,1513.2,726.5,1514.7,727.7z M1479.5,724.5c0.4,0.2,0.9,0.5,1.1,0.7c0.1,0.2,1.2,0.9,2.4,1.5
		c2.1,1.1,4.5,2.7,5.5,3.7c3.6,3.7,3.8,4.2,3.7,7.6c-0.2,3.1-0.6,4.3-2.5,6.6c-2.8,3.4-6.4,4.4-9.4,2.6c-0.6-0.4-2.5-1.9-4.1-3.3
		c-1.6-1.5-3.8-3.4-5-4.2c-1.2-0.9-2.6-2-3.2-2.5c-2.9-2.4-4.5-3.1-8.2-3.4l-2.8-0.2l0.5-0.7c0.9-1.2,4.2-3.8,6.3-4.8
		c3.5-1.7,8.7-2.9,12.8-3.1c0.9,0,1.2-0.2,1.4-0.5C1478.1,724,1478.3,724,1479.5,724.5z M1554.3,733.7c0,0.1-0.4,0.4-0.9,0.8
		c-0.9,0.6-4.1,1.5-4.6,1.3c-0.2-0.1,0.5-0.6,1.5-1.2c1.5-0.9,2-1.1,2.9-1C1553.8,733.5,1554.3,733.6,1554.3,733.7z M1529.3,735.7
		c0,0.7,0.3,2.1,0.7,3.3c0.3,1.1,0.6,2.3,0.6,2.6c0,0.3,0.2,1.2,0.4,2c0.6,1.7,0.8,3.7,0.4,3.7c-0.4,0-1.6-1.9-2.1-3.3
		c-0.8-2-1.6-6.3-1.5-7.7c0.1-1.2,0.7-2.2,1.3-2C1529.1,734.4,1529.2,735,1529.3,735.7z M1546.2,739.6c-2,1.6-4.4,3.4-5.3,3.9
		c-0.9,0.5-2.2,1.3-2.9,1.7c-0.7,0.4,0.1-0.3,1.7-1.6c1.6-1.3,3.4-3,4.1-3.7c0.6-0.7,1.8-1.8,2.5-2.4c1.2-1,1.4-1.1,2.5-1l1.2,0.1
		L1546.2,739.6z M1385.4,729.2c0.6,0.8,0.4,0.8-0.6,0.2c-0.4-0.3-0.6-0.5-0.5-0.7C1384.6,728.4,1384.9,728.5,1385.4,729.2z
		 M1463.2,735.8c2,0.6,2.9,1.2,4.5,3.3c1.5,1.8,3.1,4.5,2.9,4.7c-0.1,0-0.5-0.2-0.9-0.6c-2.4-2.1-8.1-4.6-12.5-5.4
		c-2.4-0.4-2.4,0,0,0.7c5.6,1.8,10.3,5.6,11.3,9.1c0.2,0.8,0.4,1.5,0.3,1.6c0,0-0.5-0.7-1.1-1.6c-1.9-3-5.8-6.2-8.3-6.9
		c-1.1-0.3-4.5-0.1-4.6,0.2c0,0.1,0.6,0.2,1.4,0.2c1.8,0,3.8,0.8,6,2.4c6,4.5,5.8,11.7-0.7,18.7c-3.1,3.3-7.5,6.1-10.1,6.2
		c-1.2,0.1-3.6-0.9-5.3-2.1c-3.4-2.6-5.3-7.9-4.2-11.8c1-3.5,4.4-8.8,7.2-11.2c2.2-1.9,0.9-1.6-2.1,0.5c-1.7,1.2-4.3,3.9-5.4,5.5
		c-0.9,1.4-2,4-1.8,4.2c0.1,0.1,0.5-0.4,0.9-1c1-1.5,3.3-4.2,3.4-4.2c0.1,0-0.1,0.3-0.3,0.6c-1.7,2.1-4.3,6.1-5.6,8.6
		c-0.8,1.5-0.9,1.8-1.2,5.7c-0.4,4.5-0.3,5.2,1.1,8.3c0.9,1.9,3.6,4.9,5.3,5.9c4.8,2.7,10.1,2.1,15.6-2c1.6-1.2,3.2-1.9,3.4-1.6
		c0.1,0.1-0.1,0.5-0.3,1c-0.6,1.2-2.9,2.6-5.8,3.7c-3,1.1-4.7,1.5-7.3,1.4c-3.6-0.1-6.3-1.2-9-3.8c-1.8-1.8-3.2-3.9-4.4-6.9
		c-1.1-2.9-1.4-2.9-1.4,0.1c0,2.3,0.6,5,1.7,7.1c1.1,2.3,3.9,5.6,6.3,7.6c2.2,1.8,2.2,1.6,1.2,4.3l-0.3,0.9l-1.4-0.3
		c-3-0.6-8.1-3.3-11.7-5.9c-0.7-0.6-1.3-0.9-1.4-0.8c-0.2,0.3,1,3.2,2,4.8c1.4,2.1,3.7,4.6,6.1,6.6l2,1.7l-0.6,1.2
		c-1.4,3.1-2.1,3.4-3.1,1.3c-0.6-1.4-0.9-1.6-1-0.7c-0.2,1.9-2.5,3.8-4.3,3.6c-1.8-0.2-4.4-2.9-6.7-6.9c-1-1.8-1.1-1.9-1.4-1.5
		c-0.2,0.3-0.3,1.5-0.3,3.4v2.8l1,1.8c0.6,1,1.6,2.4,2.2,3l1.2,1.2l-0.9-0.2c-1.6-0.4-2.9-1.3-3.3-2.1c-0.4-0.8-1.1-4.7-1.3-7.2
		c-0.1-2-0.4-1-0.6,2.4c-0.2,2.5-0.3,3.4-0.5,3.4c-0.2,0-0.3,0.2-0.3,0.5c0,1.2-0.1,1.2-1.1,1c-0.7-0.1-1.3-0.5-1.9-1.2
		c-1.7-1.8-2.7-2-1-0.2c0.9,1,3.1,4.5,3.1,4.9c0,0.1-0.6-0.2-1.2-0.6c-3.4-2.4-4.1-2.4-1.4-0.1c2.7,2.4,4.9,4.8,5.3,5.7
		c0.2,0.5,0.3,0.9,0.2,0.9c-0.4,0-6.7-4.8-7.8-5.9c-0.6-0.6-1.2-1.1-1.3-1c-0.1,0.1,0.2,0.7,0.8,1.4c0.5,0.7,1.3,2.1,1.8,3
		c0.6,1.2,1.3,2.1,2.1,2.7c1.1,0.9,2.6,3,2.6,3.6c-0.1,1.1-2.5-0.6-7.7-5.4c-0.3-0.3-0.6-0.4-0.6-0.3c0,0.3,2.6,5,3.4,6.1
		c0.6,0.9,0.6,1.6,0,2.7c-1.2,2.2-4.3,3.5-6.8,2.8c-2.2-0.6-4.1-2.2-5.9-4.9c-1.2-1.8-1.8-3.4-1.8-4.2c0-0.5,0.2-0.6,0.4-0.4
		c0.7,0.3,5.1-3.6,7.4-6.7c2.3-3,2.6-3.5,2-3.7c-0.3-0.1-0.3-0.3,0.4-1.1c1.2-1.4,4.3-4.4,4.3-4.1c0,0.1,0.1,0.9,0.2,1.6
		c0.2,1.7,0.6,1.9,0.7,0.3c0.1-0.6,0.4-1.8,0.7-2.6l0.6-1.4l0,1.4c0,0.8,0.2,1.4,0.2,1.4c0.1,0,0.3-0.8,0.5-1.8c0.2-1,0.6-2.5,1-3.2
		c0.3-0.8,0.6-1.7,0.5-2c-0.1-0.8,1.7-4.2,5-9.5l2.5-4.1l-0.1,1.7c-0.1,1.7,0.4,2.1,0.5,0.5c0.2-2.4,1.9-6.9,3.8-10.2
		c0.6-1.1,0.9-1.8,0.8-2.1c-0.2-0.3,0.5-1.6,2-4.5c1.2-2.2,2.6-4.8,3-5.6c1.4-2.9,3.7-6.1,6.5-9.1c1.5-1.7,3.2-3.8,3.9-4.8
		c1.3-2.2,2.9-4.1,4.9-5.8c1.3-1.1,1.5-1.2,2.3-1c0.8,0.2,0.9,0.3,0.9,1l0,0.8l0.3-0.8c0.1-0.4,0.4-0.8,0.5-0.9
		C1457,735,1461.2,735.2,1463.2,735.8z M1366.8,730.4c0.2,0.8,0.2,1.4,0.2,1.5c0,0.1-1,0.1-2.1,0.1c-2.8-0.1-5.2,0.8-7.5,2.7
		l-1.7,1.4l-0.6-0.7c-0.3-0.3-0.8-1-1-1.3l-0.4-0.7l1.1-1.3c2.3-2.8,5.5-3.9,10.2-3.4l1.6,0.2L1366.8,730.4z M1533.6,749.6
		c-1.9,2.3-2.9,2.9-5.2,3.1c-0.8,0.1-2,0-2.7-0.1c-1.3-0.3-1.5-0.6-2-2.4l-0.2-0.7l0.8,0.8c1,1.1,3.3,1.8,4.7,1.5
		c1.4-0.3,2.5-1.2,3.3-2.5c0.7-1.2,1.5-1.7,2.4-1.7C1535.2,747.6,1535.1,747.8,1533.6,749.6z M1365.9,734c0,0.6,0.1,0.6-2.4,0.8
		c-0.7,0.1-2.4,0.6-3.7,1c-2.2,0.8-3.2,0.9-3.1,0.3c0-0.3,2.2-1.6,3.4-2.1c1.6-0.6,3.7-1,4.7-0.9
		C1365.7,733.4,1365.9,733.5,1365.9,734z M1353.9,736.7c0,0.3-0.3,0.2-0.8-0.2c-0.2-0.2-0.4-0.6-0.4-0.9c0.1-0.6,0.1-0.6,0.6,0.2
		C1353.6,736.2,1353.9,736.6,1353.9,736.7z M1407.7,803.8c-2.3,3.2-6.4,7-7.3,6.9c-0.4,0-0.2-0.4,1.5-1.9c1.1-1,3-2.7,4.2-3.9
		c1.2-1.1,2.1-2.1,2.2-2.1C1408.3,802.9,1408,803.3,1407.7,803.8z M1399.5,814.7c0.7,1.7,2.6,4.7,4,6.2c0.6,0.6,1,1.3,1,1.5
		c-0.1,0.5-2.7,3.5-4.1,4.6c-1.6,1.2-3.2,2.1-3.8,2.1c-0.6-0.1-2.3-3-2.8-4.9c-0.7-2.6,0-5.3,1.8-7.8c0.5-0.8,1-1.4,0.9-1.5
		c-0.2-0.2-1.8,1.7-2.6,2.9c-2.1,3.6-1.7,7.8,0.9,11.6c1,1.5,1.2,2.1,0.8,2.3c-0.4,0.2-2.2-2.3-2.8-3.8c-0.5-1.4-1.1-4.7-0.9-5.9
		c0.3-2.8,2.4-6.8,5.2-9.4l1.7-1.7l0,1.1C1398.9,812.8,1399.2,813.9,1399.5,814.7z M1406.9,824.8c0.5,0.5,0.9,1.1,0.8,1.2
		c0,0.1-0.9,1.2-2,2.4c-1.6,1.8-2.1,2.2-2.9,2.3c-1.2,0.2-2.2,0-2.5-0.7c-0.2-0.4,0.1-0.8,1.4-2.1c0.9-0.9,2.2-2.2,2.8-2.8
		c0.6-0.7,1.2-1.2,1.3-1.2C1406,823.8,1406.4,824.3,1406.9,824.8z M1410.4,828.3l0.6,0.6l-0.7,0.7c-1.7,1.6-4,2.4-4.4,1.6
		c-0.1-0.3,3.3-3.6,3.7-3.6C1409.6,827.6,1410,827.9,1410.4,828.3z"/>
	
		<linearGradient id="SVGID_70_" gradientUnits="userSpaceOnUse" x1="1494.1903" y1="259.3969" x2="1497.4103" y2="259.1579" gradientTransform="matrix(1 0 0 -1 0 880)">
		<stop  offset="0" style="stop-color:#41A380"/>
		<stop  offset="1" style="stop-color:#63D5AC"/>
	</linearGradient>
	<path class="st75" d="M1494.4,619.9c-0.5,0.4-0.1,0.8,1.1,1.3c1,0.4,1.4,0.5,1.7,0.3c0.4-0.3,0-0.8-1.2-1.3
		C1495.1,619.8,1494.7,619.7,1494.4,619.9z"/>
	
		<linearGradient id="SVGID_71_" gradientUnits="userSpaceOnUse" x1="1492.338" y1="265.2534" x2="1500.308" y2="264.5945" gradientTransform="matrix(1 0 0 -1 0 880)">
		<stop  offset="0" style="stop-color:#41A380"/>
		<stop  offset="1" style="stop-color:#63D5AC"/>
	</linearGradient>
	<path class="st76" d="M1493.5,610.8c-0.8,0.6-0.9,0.9-0.9,1.3c0.2,1.3,4.2,7.6,5,7.9c0.7,0.3,1.6-0.3,2.1-1.2
		c0.3-0.6,0.3-0.9,0.1-1.6c-0.7-1.9-4.3-7.1-5-7.2C1494.6,610,1494,610.4,1493.5,610.8z M1496.4,613.5c1.6,2.3,2.7,4.2,2.7,4.5
		c0,0.1-0.2,0.3-0.4,0.6c-0.6,0.6-0.8,0.3-3.1-3.4c-1.8-2.9-1.9-3.1-1.5-3.5c0.3-0.2,0.6-0.4,0.7-0.4
		C1494.8,611.3,1495.5,612.3,1496.4,613.5z"/>
</g>
</svg>
