<?xml version="1.0" encoding="utf-8"?>
<!-- Generator: Adobe Illustrator 24.0.1, SVG Export Plug-In . SVG Version: 6.00 Build 0)  -->
<svg version="1.1" id="Слой_1" xmlns="http://www.w3.org/2000/svg" xmlns:xlink="http://www.w3.org/1999/xlink" x="0px" y="0px"
	 viewBox="0 0 1630 879" style="enable-background:new 0 0 1630 879;" xml:space="preserve">
<style type="text/css">
	.st0{fill:#E2F9F2;stroke:#77DBB7;}
	.st1{fill:url(#SVGID_1_);}
	.st2{fill-rule:evenodd;clip-rule:evenodd;fill:#318265;}
	.st3{fill:#99ECC4;}
	.st4{opacity:0.2;}
	.st5{fill:none;stroke:#202020;stroke-linecap:round;stroke-dasharray:11,11;}
	.st6{fill:none;stroke:#000000;stroke-linecap:round;stroke-opacity:0.2;stroke-dasharray:11,11;}
	.st7{fill:url(#SVGID_2_);}
	.st8{fill:url(#SVGID_3_);}
	.st9{fill:url(#SVGID_4_);}
	.st10{fill:url(#SVGID_5_);}
	.st11{fill:url(#SVGID_6_);}
	.st12{fill:url(#SVGID_7_);}
	.st13{fill:url(#SVGID_8_);}
	.st14{fill:url(#SVGID_9_);}
	.st15{fill:url(#SVGID_10_);}
	.st16{fill:url(#SVGID_11_);}
	.st17{fill:url(#SVGID_12_);}
	.st18{fill:url(#SVGID_13_);}
	.st19{fill:url(#SVGID_14_);}
	.st20{fill:url(#SVGID_15_);}
	.st21{fill:url(#SVGID_16_);}
	.st22{fill:url(#SVGID_17_);}
	.st23{fill:url(#SVGID_18_);}
	.st24{fill:url(#SVGID_19_);}
	.st25{fill:url(#SVGID_20_);}
	.st26{fill:url(#SVGID_21_);}
	.st27{fill:url(#SVGID_22_);}
	.st28{fill:url(#SVGID_23_);}
	.st29{fill:url(#SVGID_24_);}
	.st30{fill:url(#SVGID_25_);}
	.st31{fill:url(#SVGID_26_);}
	.st32{fill:url(#SVGID_27_);}
	.st33{fill:url(#SVGID_28_);}
	.st34{fill:url(#SVGID_29_);}
	.st35{fill:url(#SVGID_30_);}
	.st36{fill:url(#SVGID_31_);}
	.st37{fill:url(#SVGID_32_);}
	.st38{fill:url(#SVGID_33_);}
	.st39{fill:url(#SVGID_34_);}
	.st40{fill:url(#SVGID_35_);}
	.st41{fill:url(#SVGID_36_);}
	.st42{fill:url(#SVGID_37_);}
	.st43{fill:url(#SVGID_38_);}
	.st44{fill:url(#SVGID_39_);}
	.st45{fill:url(#SVGID_40_);}
	.st46{fill:url(#SVGID_41_);}
	.st47{fill:url(#SVGID_42_);}
	.st48{fill:url(#SVGID_43_);}
	.st49{fill:url(#SVGID_44_);}
	.st50{fill:url(#SVGID_45_);}
	.st51{fill:url(#SVGID_46_);}
	.st52{fill:url(#SVGID_47_);}
	.st53{fill:url(#SVGID_48_);}
	.st54{fill:url(#SVGID_49_);}
	.st55{fill:url(#SVGID_50_);}
	.st56{fill:url(#SVGID_51_);}
	.st57{fill:url(#SVGID_52_);}
	.st58{fill:url(#SVGID_53_);}
	.st59{fill:url(#SVGID_54_);}
	.st60{fill:url(#SVGID_55_);}
	.st61{fill:url(#SVGID_56_);}
	.st62{fill:url(#SVGID_57_);}
	.st63{fill:url(#SVGID_58_);}
	.st64{fill:url(#SVGID_59_);}
	.st65{fill:url(#SVGID_60_);}
	.st66{fill:url(#SVGID_61_);}
	.st67{fill:url(#SVGID_62_);}
	.st68{fill:url(#SVGID_63_);}
	.st69{fill:url(#SVGID_64_);}
	.st70{fill:url(#SVGID_65_);}
	.st71{fill:url(#SVGID_66_);}
</style>
<path class="st0" d="M1240.6,38c-106.8,16.4-278.8-11.8-351.5-28c-6.5-1.4-154-17-246,16.5S500.6,3.5,285.1,1S128.6,293.5,97.6,442
	s100.5,255.5,187.5,258s132,52.5,296.5,138.5s433.5,12.5,518-34.5s313-13,446.5-29.5s73-154,33-280s56.5-287,0-373
	S1374.1,17.5,1240.6,38z"/>
<linearGradient id="SVGID_1_" gradientUnits="userSpaceOnUse" x1="58.759" y1="74.2347" x2="279.3965" y2="34.5597" gradientTransform="matrix(1 0 0 1 0 88)">
	<stop  offset="0" style="stop-color:#41A380"/>
	<stop  offset="1" style="stop-color:#63D5AC"/>
</linearGradient>
<path class="st1" d="M188.4,251.7c60.3-11.3,99.9-69.3,88.6-129.6s-69.3-99.9-129.5-88.6S47.6,102.8,58.9,163
	C70.1,223.3,128.2,263,188.4,251.7z"/>
<path class="st2" d="M59.7,167.5l1.4,7.3l0.4-0.3c-1.3,1.5-2.6,3-3.8,4.5c-9.5,11.6-15.9,22-19.2,30.4c-3.3,8.7-2.7,14-0.7,17
	s6.8,5.5,16.1,5.6c9.1,0.1,21.1-2.2,35.3-6.7c28.4-9.2,64.4-27.3,101-52.3s66.6-51.9,85.5-75c9.5-11.6,15.9-21.9,19.2-30.4
	c3.3-8.7,2.7-14,0.7-17s-6.8-5.5-16.1-5.6c-9.1-0.1-21.1,2.2-35.3,6.7c-3,1-6.1,2-9.3,3.2l-0.1-0.3l-5.4-4.1
	c35.5-13.6,62.6-15.9,71.1-3.4c14.9,21.8-33,80.3-107,130.8c-73.9,50.4-145.9,73.7-160.8,51.9C24.7,217.8,35.7,194.5,59.7,167.5z"/>
<path class="st3" d="M120.7,186.1c8.4-1.6,14-9.7,12.4-18.1c-1.6-8.4-9.7-14-18.1-12.4s-14,9.7-12.4,18.1
	C104.1,182.1,112.2,187.6,120.7,186.1z"/>
<path class="st3" d="M102,119.3c3.5-0.7,5.9-4.1,5.2-7.6c-0.7-3.5-4.1-5.9-7.6-5.2c-3.5,0.7-5.9,4.1-5.2,7.6
	C95.1,117.7,98.5,120,102,119.3z"/>
<path class="st3" d="M135.1,127.4c2.4-0.5,4.1-2.8,3.6-5.3c-0.5-2.4-2.8-4.1-5.3-3.6c-2.4,0.5-4.1,2.8-3.6,5.3
	C130.3,126.2,132.6,127.8,135.1,127.4z"/>
<g class="st4">
	<path class="st5" d="M675.3,727.8c60.5,0,109.5-49,109.5-109.5s-49-109.5-109.5-109.5s-109.5,49-109.5,109.5
		S614.8,727.8,675.3,727.8z"/>
	<path class="st6" d="M675.3,727.8c60.5,0,109.5-49,109.5-109.5s-49-109.5-109.5-109.5s-109.5,49-109.5,109.5
		S614.8,727.8,675.3,727.8z"/>
</g>
<g class="st4">
	
		<linearGradient id="SVGID_2_" gradientUnits="userSpaceOnUse" x1="655.8517" y1="-12.3521" x2="677.3797" y2="57.1511" gradientTransform="matrix(1 0 0 1 0 88)">
		<stop  offset="0" style="stop-color:#41A380"/>
		<stop  offset="1" style="stop-color:#63D5AC"/>
	</linearGradient>
	<path class="st7" d="M699.4,92.6c-0.6-1.1-1.4-1.4-3.3-1.6c-0.6,0-1.1-0.1-1.2-0.2c-0.1-0.1-0.5-0.5-0.9-1.1
		c-1.8-2.6-4.4-5.3-6.8-7.1l-0.9-0.7l-0.2-1.1c-0.4-2.2-1-3.2-2.5-3.9c-0.5-0.2-1.3-0.5-1.8-0.6c-1.7-0.4-2.3-0.6-3.7-1.3
		c-0.8-0.4-1.6-0.7-2-0.8c-0.4-0.1-1.9-0.2-3.4-0.3c-2.6-0.2-2.8-0.2-3.5,0c-0.8,0.2-1.2,0.6-1.8,1.4l-0.3,0.4h-1.3
		c-2.6,0-5.7,0.5-7.8,1.1l-1.1,0.3l-0.8-0.5c-1.5-0.9-2.1-0.8-4,0.4c-2.5,1.7-3.7,2.3-6.7,3.3c-1,0.3-2,0.7-2.2,0.9
		c-1.5,0.9-2.2,2.3-2.4,5.1c-0.1,0.7-0.1,1.4-0.1,1.5s-0.3,0.6-0.8,1.1c-1.2,1.4-2.2,3-3.1,4.7l-0.8,1.6l-0.7,0.2
		c-2.1,0.5-3.1,1.3-3.7,3.2c-0.4,1.4-2.4,13.6-2.4,14.6c0,0.8,0.4,1.5,1.3,2.5c1.5,1.7,2.7,2.7,3.7,3.1l0.6,0.2l0.5,1.5
		c1.5,4.3,3.8,8.1,7,11.6c1.8,1.9,3,3.1,5.1,4.6l1.2,0.9l0.4,1.2c0.3,1,0.4,1.4,0.7,1.7c0.7,0.9,0.5,0.9,10.4,3.3
		c3.6,0.9,4.4,0.9,6.6,0.3c1.3-0.4,1.5-0.5,2.2-1l0.7-0.5l1-0.1c1.2-0.1,2.7-0.3,3.9-0.6l1-0.2l0.9,0.6c1,0.7,1.9,1.1,2.4,1.2
		c0.7,0.1,1.6-0.2,4.6-1.9c1.5-0.9,3.2-1.8,3.8-2.2c1.6-0.9,2.7-1.6,3-2c0.6-0.7,0.8-1.5,0.8-3.8c0-0.7,0.1-1,0.2-1.2
		c2.6-2.9,3.8-4.6,5.4-7.5c1.9-3.6,3.2-7.8,3.7-11.9c0.1-0.5,0.1-1,0.2-1.1c0.1-0.1,0.6-0.6,1.1-1c0.8-0.6,1.1-1,1.3-1.4
		c0.3-0.6,0.4-1.5,0.3-2.4c-0.1-0.6-0.8-3.7-1.4-5.8c-0.2-0.8-0.4-1.9-0.5-2.5C701,97.6,699.8,93.3,699.4,92.6z M700.8,99.1
		c0.1,0.4,0.5,2.1,0.9,3.8c1.5,5.9,1.5,6.4,0.1,7.6c-1.3,1.2-1.8,1.7-2.2,2.4c-0.4,0.7-0.5,1.1-0.1,0.5c0.1-0.2,0.3-0.3,0.3-0.3
		c0.2,0-0.5,3.7-0.9,5.3c-1,3.6-2.6,7-4.9,10.3c-1.2,1.7-1.7,2.1-4.5,3.7c-1.9,1.1-3.7,1.8-5.7,2.4c-2.9,0.9-4.7,1.1-8,1
		c-2.8-0.1-3.1,0-5.6,1c-1.5,0.6-2,0.8-2.6,0.8c-0.8,0.1-1.7,0-2.4-0.3c-0.6-0.2-2-1.3-2.6-1.9c-0.8-0.8-2.3-2.1-3-2.6
		c-1-0.7-1.9-0.9-3.6-1c-1.6,0-1.9-0.2-2.7-1c-0.8-0.9-1.3-1-2.8-0.5c-1.8,0.5-3.2,0.5-4.7,0.1c-3-0.9-4.9-3.6-6.2-8.6
		c-0.9-3.4-1-6-0.5-9.9c0.3-2.3,0.2-2.7-0.7-4c-1-1.3-1.4-1.9-1.8-3c-0.9-2.1-1.4-6.3-1.2-8.3l0.1-0.7l0.7-0.3
		c0.8-0.3,1.3-0.6,1.6-1s0.1-0.4-0.4-0.1c-0.2,0.2-0.4,0.2-0.4,0.2c-0.1-0.3,2.1-3.8,3.2-5.3l0.5-0.6l0.1,0.4
		c0.1,0.2,0.1,0.3,0.2,0.3c0.2-0.1,0.2-0.5,0.3-2c0.2-3.2,0.6-4.7,1.7-5.5c0.5-0.3,0.8-0.5,2.4-1.1c3.2-1.1,4.8-1.9,6.8-3.4
		c1.2-0.9,1.9-1.2,2.6-1c0.2,0.1,0.8,0.4,1.4,0.7c1,0.7,1.9,1,2.1,0.7c0.1-0.1,0-0.2-0.1-0.2s-0.3-0.1-0.5-0.2l-0.3-0.1l0.6-0.2
		c2-0.6,5.6-1.1,8.1-1.1h0.7l-0.4,0.8c-0.4,0.8-0.5,1-0.2,1c0.2,0,0.5-0.5,1.4-1.8c1.2-1.8,1.5-1.9,5-1.7c3.3,0.2,3.9,0.4,5.6,1.2
		c1.4,0.7,1.7,0.8,3.7,1.2c0.6,0.1,1.4,0.4,1.8,0.6c1.2,0.6,1.7,1.4,2.1,3.5c0.2,0.7,0.4,1.6,0.5,1.9c0.2,0.5,0.2,0.5,0.2,0.2
		c0-0.2,0-0.4,0.1-0.4c0.2-0.1,2.9,2.3,4.3,3.9c1.5,1.6,3.1,3.6,3.1,3.9c0,0.1-0.3-0.1-0.6-0.3c-0.5-0.4-0.9-0.4-0.8-0.2
		c0,0,0.2,0.3,0.5,0.5c0.6,0.5,1.8,0.9,3,0.9c1.3,0.1,1.6,0.1,2.1,0.4c0.4,0.2,0.6,0.5,0.9,1C699.2,93.2,700.6,98.3,700.8,99.1z"/>
	
		<linearGradient id="SVGID_3_" gradientUnits="userSpaceOnUse" x1="696.7479" y1="5.7099" x2="702.3059" y2="21.1648" gradientTransform="matrix(1 0 0 1 0 88)">
		<stop  offset="0" style="stop-color:#41A380"/>
		<stop  offset="1" style="stop-color:#63D5AC"/>
	</linearGradient>
	<path class="st8" d="M698.1,93.3c-0.5-0.1-0.6,3.8-0.3,6.6c0.1,0.6,0.4,1.8,0.8,3.1c0.7,2.3,1.4,3.8,2.3,5.2c0.9,1.3,1.3,1.3,0.6,0
		c-0.3-0.6-0.4-0.8-0.4-1.1c0-0.5-0.1-2.6-0.3-3.6c-0.4-2.5-1.2-5-2.3-7.2c-0.6-1.1-0.6-1.1-0.5-1.6
		C698.3,93.9,698.2,93.3,698.1,93.3z"/>
	
		<linearGradient id="SVGID_4_" gradientUnits="userSpaceOnUse" x1="694.9464" y1="6.316" x2="696.2004" y2="10.1392" gradientTransform="matrix(1 0 0 1 0 88)">
		<stop  offset="0" style="stop-color:#41A380"/>
		<stop  offset="1" style="stop-color:#63D5AC"/>
	</linearGradient>
	<path class="st9" d="M695.5,94.1c-0.1,0-0.2,1-0.2,2.2c0.1,1.5,0.1,2,0.3,1.9c0.1-0.1,0.1,0,0.1-2.2
		C695.7,94.3,695.7,94.1,695.5,94.1z"/>
	
		<linearGradient id="SVGID_5_" gradientUnits="userSpaceOnUse" x1="694.1813" y1="5.6618" x2="695.3814" y2="9.3037" gradientTransform="matrix(1 0 0 1 0 88)">
		<stop  offset="0" style="stop-color:#41A380"/>
		<stop  offset="1" style="stop-color:#63D5AC"/>
	</linearGradient>
	<path class="st10" d="M694.7,93.5c-0.3,0.5-0.3,2-0.1,3.2c0.2,1.1,0.4,0.9,0.3-0.3c0-0.5-0.1-1.4-0.1-2
		C694.8,93.7,694.8,93.4,694.7,93.5z"/>
	
		<linearGradient id="SVGID_6_" gradientUnits="userSpaceOnUse" x1="695.3329" y1="17.8594" x2="695.9279" y2="19.7813" gradientTransform="matrix(1 0 0 1 0 88)">
		<stop  offset="0" style="stop-color:#41A380"/>
		<stop  offset="1" style="stop-color:#63D5AC"/>
	</linearGradient>
	<path class="st11" d="M696.5,106.2c-0.2-0.3-0.8-0.4-1.2-0.3c-0.3,0.1-0.7,0.7-0.7,1.1c0,0.2,0.1,0.4,0.3,0.6
		C695.7,108.4,697.2,107.2,696.5,106.2z"/>
	
		<linearGradient id="SVGID_7_" gradientUnits="userSpaceOnUse" x1="691.8145" y1="12.0217" x2="693.0554" y2="16.0477" gradientTransform="matrix(1 0 0 1 0 88)">
		<stop  offset="0" style="stop-color:#41A380"/>
		<stop  offset="1" style="stop-color:#63D5AC"/>
	</linearGradient>
	<path class="st12" d="M694.2,99.3c-0.2,0-0.2,0-0.1,0.7c0,1-0.5,1.7-2.2,3.3c-2,1.9-1.7,1.9,0.5-0.1c1.4-1.2,1.8-1.8,2-2.8
		C694.5,100,694.4,99.4,694.2,99.3z"/>
	
		<linearGradient id="SVGID_8_" gradientUnits="userSpaceOnUse" x1="686.934" y1="12.6265" x2="688.3911" y2="17.4034" gradientTransform="matrix(1 0 0 1 0 88)">
		<stop  offset="0" style="stop-color:#41A380"/>
		<stop  offset="1" style="stop-color:#63D5AC"/>
	</linearGradient>
	<path class="st13" d="M693.1,99.6c0,0-0.2,0.3-0.3,0.6c-0.3,0.9-0.7,1.3-1.8,2.3c-0.5,0.5-1.3,1.2-1.7,1.6
		c-0.7,0.6-0.9,0.8-1.3,0.9c-1.1,0.3-3.6-0.5-5.8-1.9c-1.3-0.8-1.5-0.9-0.8-0.2c1.3,1.2,3.7,2.4,5.5,2.6c0.5,0.1,0.8,0,1.3-0.1
		c0.6-0.2,0.7-0.3,1.5-1c0.5-0.5,1.2-1.1,1.6-1.4c1.2-1,1.9-2.1,1.9-2.9C693.2,99.8,693.1,99.6,693.1,99.6z"/>
	
		<linearGradient id="SVGID_9_" gradientUnits="userSpaceOnUse" x1="683.3087" y1="5.6837" x2="686.4186" y2="15.7683" gradientTransform="matrix(1 0 0 1 0 88)">
		<stop  offset="0" style="stop-color:#41A380"/>
		<stop  offset="1" style="stop-color:#63D5AC"/>
	</linearGradient>
	<path class="st14" d="M690.7,96.8c-0.6-0.7-1-1-1.9-1.5c-1-0.5-1.9-0.7-4.2-1.1c-2.1-0.3-2.6-0.3-3.6,0.3c-0.7,0.4-2.2,1.7-2.7,2.3
		c-0.5,0.7-0.4,1.6,0.3,2.5c1,1.3,4.1,3.4,5.9,3.9c1.6,0.5,2.7,0.4,3.9-0.2c1.9-1.1,2.9-2.3,3.1-3.6
		C691.6,98.6,691.2,97.5,690.7,96.8z M689.2,100.3c-0.1,0.3-0.3,1-0.5,1.5c-0.4,0.8-0.5,0.9-0.9,1.1c-1.2,0.5-2.9,0.2-5.1-1
		c-1.8-1-3.7-2.6-4.1-3.5c-0.2-0.5-0.2-1.1,0-1.3c0.2-0.2,1.2-0.6,2.2-0.8c1.1-0.2,1.5-0.2,2.6,0.2c0.4,0.1,1.3,0.4,2.1,0.5
		C688.3,97.6,689.5,98.6,689.2,100.3z"/>
	
		<linearGradient id="SVGID_10_" gradientUnits="userSpaceOnUse" x1="675.6704" y1="-14.8603" x2="678.4545" y2="-5.8082" gradientTransform="matrix(1 0 0 1 0 88)">
		<stop  offset="0" style="stop-color:#41A380"/>
		<stop  offset="1" style="stop-color:#63D5AC"/>
	</linearGradient>
	<path class="st15" d="M684.1,79c0,0-0.1,0.2-0.1,0.4c0,0.2-0.1,0.5-0.2,0.6c-0.2,0.2-0.2,0.2-0.9-0.3c-1.9-1.3-2.4-1.5-4.3-1.9
		c-1.1-0.2-2.1-0.5-2.8-0.9c-1-0.5-2.8-1-3.9-1c-0.7,0-0.9-0.1-1.5-0.5c-0.5-0.3-0.8-0.4-0.9-0.3c-0.1,0.1-0.1,0.1-0.1,0.2
		c0.1,0.2,2.2,1.5,4,2.5c3,1.7,4.9,2.3,7.8,2.7c1.7,0.2,2.3,0.2,2.7,0c0.5-0.2,0.7-0.7,0.6-1.2C684.2,79.2,684.1,79,684.1,79z"/>
	
		<linearGradient id="SVGID_11_" gradientUnits="userSpaceOnUse" x1="693.8848" y1="28.0863" x2="694.512" y2="30.1192" gradientTransform="matrix(1 0 0 1 0 88)">
		<stop  offset="0" style="stop-color:#41A380"/>
		<stop  offset="1" style="stop-color:#63D5AC"/>
	</linearGradient>
	<path class="st16" d="M695.1,116.3c-0.2-0.2-0.4-0.3-0.5-0.3c-0.3,0-0.9,0.2-1.2,0.5c-0.4,0.4-0.5,0.7-0.4,1.2
		c0.4,1,2.1,0.7,2.4-0.5C695.5,116.6,695.5,116.6,695.1,116.3z"/>
	
		<linearGradient id="SVGID_12_" gradientUnits="userSpaceOnUse" x1="680.8244" y1="-6.0183" x2="681.5894" y2="-3.51" gradientTransform="matrix(1 0 0 1 0 88)">
		<stop  offset="0" style="stop-color:#41A380"/>
		<stop  offset="1" style="stop-color:#63D5AC"/>
	</linearGradient>
	<path class="st17" d="M683.6,83.5c-0.7,0.1-1.5,0.1-1.9,0.1c-0.9,0-2.6-0.3-3.3-0.5c-0.6-0.2-0.8-0.2-0.4,0
		c0.5,0.3,1.6,0.6,2.5,0.8c1.4,0.2,3.6,0,4.1-0.3C684.7,83.4,684.5,83.4,683.6,83.5z"/>
	
		<linearGradient id="SVGID_13_" gradientUnits="userSpaceOnUse" x1="678.3449" y1="-9.0515" x2="679.8049" y2="-4.2799" gradientTransform="matrix(1 0 0 1 0 88)">
		<stop  offset="0" style="stop-color:#41A380"/>
		<stop  offset="1" style="stop-color:#63D5AC"/>
	</linearGradient>
	<path class="st18" d="M683.7,82.2c-2.1,0.2-4.1-0.1-7.4-1.1c-2.9-0.9-2.9-0.9-2.2-0.5c2,1.1,5.9,2.1,8.1,2c1.2-0.1,2.2-0.2,2.2-0.4
		C684.3,82.2,684,82.2,683.7,82.2z"/>
	
		<linearGradient id="SVGID_14_" gradientUnits="userSpaceOnUse" x1="681.4468" y1="4.7898" x2="682.1977" y2="7.2609" gradientTransform="matrix(1 0 0 1 0 88)">
		<stop  offset="0" style="stop-color:#41A380"/>
		<stop  offset="1" style="stop-color:#63D5AC"/>
	</linearGradient>
	<path class="st19" d="M686.7,93.6c-0.2,0-1.1-0.3-1.9-0.5c-0.8-0.2-1.8-0.4-2.2-0.4c-0.6,0-0.8,0-2.1,0.4c-1.4,0.5-1.7,0.6-2.6,1.3
		c-0.5,0.4-1.1,1.1-0.9,1.2c0.1,0,0.3-0.1,0.5-0.4c0.7-0.7,1.3-1,2.5-1.6c0.9-0.4,1.3-0.5,1.8-0.6c0.9-0.1,1.2-0.1,2.7,0.3
		c0.7,0.2,1.4,0.3,1.5,0.3s0.4,0,0.6,0.1C687.2,93.9,687.2,93.7,686.7,93.6z"/>
	
		<linearGradient id="SVGID_15_" gradientUnits="userSpaceOnUse" x1="694.1181" y1="33.9067" x2="695.215" y2="37.3987" gradientTransform="matrix(1 0 0 1 0 88)">
		<stop  offset="0" style="stop-color:#41A380"/>
		<stop  offset="1" style="stop-color:#63D5AC"/>
	</linearGradient>
	<path class="st20" d="M695.1,121.9c-0.1,0.2-0.3,1.2-0.6,2.1s-0.5,1.7-0.5,1.7c0.1,0,0.6-1.1,0.8-1.8c0.3-0.8,0.5-2.2,0.5-2.4
		C695.2,121.5,695.1,121.7,695.1,121.9z"/>
	
		<linearGradient id="SVGID_16_" gradientUnits="userSpaceOnUse" x1="693.452" y1="33.0533" x2="694.6099" y2="36.7083" gradientTransform="matrix(1 0 0 1 0 88)">
		<stop  offset="0" style="stop-color:#41A380"/>
		<stop  offset="1" style="stop-color:#63D5AC"/>
	</linearGradient>
	<path class="st21" d="M694.4,120.8c0,0-0.1,0.5-0.2,1c-0.1,0.6-0.3,1.5-0.4,2.1c-0.4,1.6-0.1,1.4,0.4-0.3
		C694.4,122.5,694.6,120.7,694.4,120.8z"/>
	
		<linearGradient id="SVGID_17_" gradientUnits="userSpaceOnUse" x1="680.6878" y1="3.8216" x2="681.0519" y2="5.021" gradientTransform="matrix(1 0 0 1 0 88)">
		<stop  offset="0" style="stop-color:#41A380"/>
		<stop  offset="1" style="stop-color:#63D5AC"/>
	</linearGradient>
	<path class="st22" d="M683.7,91.7c-0.3-0.1-0.8-0.2-1.1-0.2c-0.7,0-2.8,0.5-3.7,1c-0.7,0.3-1.4,0.8-1.3,0.9c0,0,0.5-0.1,1-0.4
		c2.4-1,3.8-1.3,5.2-1C684.5,92.2,684.5,91.9,683.7,91.7z"/>
	
		<linearGradient id="SVGID_18_" gradientUnits="userSpaceOnUse" x1="687.9248" y1="24.8243" x2="688.4958" y2="26.6572" gradientTransform="matrix(1 0 0 1 0 88)">
		<stop  offset="0" style="stop-color:#41A380"/>
		<stop  offset="1" style="stop-color:#63D5AC"/>
	</linearGradient>
	<path class="st23" d="M688.5,112.9c-0.2-0.1-0.4-0.2-0.5-0.1c-0.2,0.1-0.5,0.5-0.6,0.7c-0.1,0.3,0.2,0.9,0.5,1.1
		c0.6,0.4,1.3-0.2,1.1-1C688.8,113.2,688.7,113.1,688.5,112.9z"/>
	
		<linearGradient id="SVGID_19_" gradientUnits="userSpaceOnUse" x1="685.5537" y1="33.6802" x2="687.4837" y2="39.9652" gradientTransform="matrix(1 0 0 1 0 88)">
		<stop  offset="0" style="stop-color:#41A380"/>
		<stop  offset="1" style="stop-color:#63D5AC"/>
	</linearGradient>
	<path class="st24" d="M690.3,120.3c-0.3,0.2-0.2,1.4,0,2.6c0.2,0.8,0.2,1.2,0.2,1.4c-0.2,0.5-1.9,2.1-3.1,3.1
		c-0.6,0.4-1.3,0.7-1.8,0.6c-0.2,0-0.8-0.3-1.3-0.5c-1-0.5-1.8-0.7-2.1-0.5c-0.4,0.2-0.2,0.3,0.4,0.4c0.3,0,1,0.3,1.5,0.5
		c1.3,0.6,1.8,0.7,2.6,0.3c0.6-0.2,0.8-0.4,1.8-1.2c1.3-1.1,2.3-2.2,2.4-2.6c0.1-0.2,0-0.5-0.2-1.4c-0.2-0.8-0.3-1.3-0.3-1.8
		C690.4,120.2,690.4,120.2,690.3,120.3z"/>
	
		<linearGradient id="SVGID_20_" gradientUnits="userSpaceOnUse" x1="676.6948" y1="-2.5774" x2="677.3608" y2="-0.4092" gradientTransform="matrix(1 0 0 1 0 88)">
		<stop  offset="0" style="stop-color:#41A380"/>
		<stop  offset="1" style="stop-color:#63D5AC"/>
	</linearGradient>
	<path class="st25" d="M678.3,85.7c-0.4-0.3-1.1-0.3-2-0.1c-0.6,0.1-0.7,0.2-0.9,0.5s-0.2,0.4,0,0.7c0.2,0.5,0.7,0.9,1.1,1
		c0.4,0.1,1.7-0.3,2-0.7C678.9,86.6,678.8,86,678.3,85.7z"/>
	
		<linearGradient id="SVGID_21_" gradientUnits="userSpaceOnUse" x1="687.1672" y1="35.7304" x2="688.0632" y2="38.6532" gradientTransform="matrix(1 0 0 1 0 88)">
		<stop  offset="0" style="stop-color:#41A380"/>
		<stop  offset="1" style="stop-color:#63D5AC"/>
	</linearGradient>
	<path class="st26" d="M689.5,123.1c-0.6,0-2,0.8-3,1.9c-0.7,0.7-1.2,1.5-1.1,1.9c0.1,0.5,0.5,0.5,1.4,0.2c1.8-0.7,3.3-2.5,3-3.6
		C689.8,123.2,689.7,123.1,689.5,123.1z"/>
	
		<linearGradient id="SVGID_22_" gradientUnits="userSpaceOnUse" x1="690.0455" y1="40.9614" x2="690.5637" y2="42.6365" gradientTransform="matrix(1 0 0 1 0 88)">
		<stop  offset="0" style="stop-color:#41A380"/>
		<stop  offset="1" style="stop-color:#63D5AC"/>
	</linearGradient>
	<path class="st27" d="M690.6,128.9c-0.2,0-0.5,0-0.6,0.1c-0.7,0.5-0.8,1.2-0.2,1.6c0.4,0.2,0.9,0.1,1.2-0.4
		c0.2-0.3,0.2-0.4,0.1-0.8C691.1,129,691,128.9,690.6,128.9z"/>
	
		<linearGradient id="SVGID_23_" gradientUnits="userSpaceOnUse" x1="681.0486" y1="21.9483" x2="681.9014" y2="24.7155" gradientTransform="matrix(1 0 0 1 0 88)">
		<stop  offset="0" style="stop-color:#41A380"/>
		<stop  offset="1" style="stop-color:#63D5AC"/>
	</linearGradient>
	<path class="st28" d="M683,110.7c-0.4-0.4-1-0.6-2.1-0.5c-0.4,0-0.8,0-0.9,0.1c-0.2,0.1-0.4,0.5-0.4,1c0,1.1,1.3,1.7,2.7,1.3
		c0.7-0.2,0.9-0.4,1-0.9C683.4,111.1,683.4,111.1,683,110.7z"/>
	
		<linearGradient id="SVGID_24_" gradientUnits="userSpaceOnUse" x1="682.1346" y1="29.651" x2="682.3438" y2="30.3402" gradientTransform="matrix(1 0 0 1 0 88)">
		<stop  offset="0" style="stop-color:#41A380"/>
		<stop  offset="1" style="stop-color:#63D5AC"/>
	</linearGradient>
	<path class="st29" d="M684.1,117.1c-0.1,0-0.5,0.1-1.1,0.2c-1,0.3-1.8,0.7-2.4,1.3c-0.3,0.3-0.3,0.3-0.1,0.2c0.2-0.1,0.6-0.3,1-0.5
		s1.1-0.6,1.7-0.8C683.8,117.3,684.2,117.2,684.1,117.1z"/>
	
		<linearGradient id="SVGID_25_" gradientUnits="userSpaceOnUse" x1="682.4136" y1="30.4592" x2="682.5936" y2="31.0532" gradientTransform="matrix(1 0 0 1 0 88)">
		<stop  offset="0" style="stop-color:#41A380"/>
		<stop  offset="1" style="stop-color:#63D5AC"/>
	</linearGradient>
	<path class="st30" d="M683.2,118.2c-0.6,0.2-1.7,0.9-1.8,1.1c0,0.1,0,0.1,0.1,0s0.5-0.3,1-0.5C683.7,118.2,683.9,118,683.2,118.2z"
		/>
	
		<linearGradient id="SVGID_26_" gradientUnits="userSpaceOnUse" x1="670.1746" y1="-9.1344" x2="670.7125" y2="-7.4005" gradientTransform="matrix(1 0 0 1 0 88)">
		<stop  offset="0" style="stop-color:#41A380"/>
		<stop  offset="1" style="stop-color:#63D5AC"/>
	</linearGradient>
	<path class="st31" d="M670.7,79.2c-0.2,0.4-0.4,1-0.6,1.2c-0.3,0.4-0.3,0.5-0.1,0.4c0.4-0.2,0.9-1,1-1.5
		C671.1,78.4,671,78.4,670.7,79.2z"/>
	
		<linearGradient id="SVGID_27_" gradientUnits="userSpaceOnUse" x1="683.3088" y1="35.4567" x2="683.7219" y2="36.7987" gradientTransform="matrix(1 0 0 1 0 88)">
		<stop  offset="0" style="stop-color:#41A380"/>
		<stop  offset="1" style="stop-color:#63D5AC"/>
	</linearGradient>
	<path class="st32" d="M684.2,124.1c-0.4-0.3-1.1-0.6-1.5-0.5s-0.3,0.3,0.4,0.4c0.3,0.1,0.8,0.3,1,0.4
		C684.7,124.7,684.7,124.5,684.2,124.1z"/>
	
		<linearGradient id="SVGID_28_" gradientUnits="userSpaceOnUse" x1="668.6802" y1="-9.6214" x2="669.0513" y2="-8.4038" gradientTransform="matrix(1 0 0 1 0 88)">
		<stop  offset="0" style="stop-color:#41A380"/>
		<stop  offset="1" style="stop-color:#63D5AC"/>
	</linearGradient>
	<path class="st33" d="M670.1,78c0,0-0.4,0.3-0.7,0.7c-0.4,0.4-0.9,0.7-1.3,0.9c-0.8,0.4-0.8,0.5,0.1,0.3c0.7-0.2,1.5-0.8,1.9-1.4
		C670.2,78.2,670.3,77.8,670.1,78z"/>
	
		<linearGradient id="SVGID_29_" gradientUnits="userSpaceOnUse" x1="682.8962" y1="36.7118" x2="683.2302" y2="37.8058" gradientTransform="matrix(1 0 0 1 0 88)">
		<stop  offset="0" style="stop-color:#41A380"/>
		<stop  offset="1" style="stop-color:#63D5AC"/>
	</linearGradient>
	<path class="st34" d="M684,125.2c-0.7-0.3-1.7-0.4-2.1-0.2c-0.3,0.2-0.1,0.3,0.5,0.2c0.4,0,0.9,0,1.3,0.1
		C684.5,125.5,684.6,125.5,684,125.2z"/>
	
		<linearGradient id="SVGID_30_" gradientUnits="userSpaceOnUse" x1="672.721" y1="3.4559" x2="673.213" y2="5.0506" gradientTransform="matrix(1 0 0 1 0 88)">
		<stop  offset="0" style="stop-color:#41A380"/>
		<stop  offset="1" style="stop-color:#63D5AC"/>
	</linearGradient>
	<path class="st35" d="M673.8,91.9c-0.3-0.4-0.7-0.6-1.1-0.4c-0.7,0.2-0.9,1.1-0.3,1.5C673.2,93.4,674.3,92.5,673.8,91.9z"/>
	
		<linearGradient id="SVGID_31_" gradientUnits="userSpaceOnUse" x1="674.8325" y1="13.9292" x2="675.3914" y2="15.7482" gradientTransform="matrix(1 0 0 1 0 88)">
		<stop  offset="0" style="stop-color:#41A380"/>
		<stop  offset="1" style="stop-color:#63D5AC"/>
	</linearGradient>
	<path class="st36" d="M676.2,102.2c-0.4-0.3-1-0.3-1.7-0.2c-0.5,0.1-0.7,0.2-0.8,0.4c-0.2,0.3,0,0.8,0.3,1c0.8,0.5,2.2,0.3,2.5-0.2
		C676.7,102.9,676.5,102.4,676.2,102.2z"/>
	
		<linearGradient id="SVGID_32_" gradientUnits="userSpaceOnUse" x1="669.2104" y1="-2.1973" x2="670.4604" y2="1.798" gradientTransform="matrix(1 0 0 1 0 88)">
		<stop  offset="0" style="stop-color:#41A380"/>
		<stop  offset="1" style="stop-color:#63D5AC"/>
	</linearGradient>
	<path class="st37" d="M670.6,85.4c0,0-0.2,0.6-0.4,1.3c-0.2,0.7-0.6,1.8-0.8,2.3c-0.2,0.6-0.4,1.1-0.4,1.1c0.1,0.2,0.7-0.9,1.1-2
		C670.5,87,670.8,85.3,670.6,85.4z"/>
	
		<linearGradient id="SVGID_33_" gradientUnits="userSpaceOnUse" x1="665.3406" y1="-2.9967" x2="667.2137" y2="3.0747" gradientTransform="matrix(1 0 0 1 0 88)">
		<stop  offset="0" style="stop-color:#41A380"/>
		<stop  offset="1" style="stop-color:#63D5AC"/>
	</linearGradient>
	<path class="st38" d="M668.8,84.3c-0.2-0.1-0.4-0.2-0.5-0.1c0,0.1,0,0.2,0.2,0.2c0.3,0.2,0.5,1,0.4,1.6c-0.2,1.2-1.5,3.9-2.2,4.6
		c-0.4,0.4-1.2,0.6-2.4,0.6c-1.1,0-1.3,0.1-0.4,0.3c0.9,0.2,1.8,0.1,2.4-0.1c0.7-0.3,1-0.7,1.9-2.3c1-2,1.4-3.2,1.1-4
		C669.2,84.6,669.1,84.4,668.8,84.3z"/>
	
		<linearGradient id="SVGID_34_" gradientUnits="userSpaceOnUse" x1="671.3643" y1="9.6007" x2="671.8303" y2="11.1036" gradientTransform="matrix(1 0 0 1 0 88)">
		<stop  offset="0" style="stop-color:#41A380"/>
		<stop  offset="1" style="stop-color:#63D5AC"/>
	</linearGradient>
	<path class="st39" d="M671.9,97.6c-0.6-0.2-1.2,0.3-1,1c0.2,0.6,1.1,0.7,1.4,0.2C672.5,98.4,672.2,97.7,671.9,97.6z"/>
	
		<linearGradient id="SVGID_35_" gradientUnits="userSpaceOnUse" x1="662.4615" y1="-3.1942" x2="664.0674" y2="2.0436" gradientTransform="matrix(1 0 0 1 0 88)">
		<stop  offset="0" style="stop-color:#41A380"/>
		<stop  offset="1" style="stop-color:#63D5AC"/>
	</linearGradient>
	<path class="st40" d="M667.2,85.5c-0.7-0.7-2.9-0.9-5.2-0.4c-2.3,0.4-3.7,1.4-3.4,2.4c0.2,0.5,1,1.3,2.1,1.8c1.9,1,4.2,0.9,5.4-0.3
		c0.9-0.9,1.6-2.4,1.4-3C667.5,85.8,667.3,85.6,667.2,85.5z M666,88.5c-0.1,0.5-0.5,0.8-1.6,1c-1.7,0.4-3.5-0.2-5-1.6
		c-0.7-0.6-0.6-0.7,0.8-1.1c2.2-0.7,4.7-0.5,5.4,0.3C665.9,87.4,666.1,88,666,88.5z"/>
	
		<linearGradient id="SVGID_36_" gradientUnits="userSpaceOnUse" x1="677.5222" y1="36.9316" x2="678.0072" y2="38.5046" gradientTransform="matrix(1 0 0 1 0 88)">
		<stop  offset="0" style="stop-color:#41A380"/>
		<stop  offset="1" style="stop-color:#63D5AC"/>
	</linearGradient>
	<path class="st41" d="M678.5,125.1c-0.3-0.2-0.9-0.2-1.2,0c-0.1,0.1-0.3,0.3-0.4,0.4c-0.3,0.6,0.2,1.3,0.8,1.1
		c0.5-0.2,1.1-0.9,1-1.2C678.7,125.3,678.6,125.2,678.5,125.1z"/>
	
		<linearGradient id="SVGID_37_" gradientUnits="userSpaceOnUse" x1="673.879" y1="24.1143" x2="675.1201" y2="27.9224" gradientTransform="matrix(1 0 0 1 0 88)">
		<stop  offset="0" style="stop-color:#41A380"/>
		<stop  offset="1" style="stop-color:#63D5AC"/>
	</linearGradient>
	<path class="st42" d="M674.5,111.9c0,0,0,0.2,0,0.5c0,0.2,0,1.2-0.1,2c-0.1,1.6,0,2,0.1,1.4C674.9,114.9,674.8,111.8,674.5,111.9z"
		/>
	
		<linearGradient id="SVGID_38_" gradientUnits="userSpaceOnUse" x1="668.8171" y1="21.8233" x2="674.2641" y2="38.8933" gradientTransform="matrix(1 0 0 1 0 88)">
		<stop  offset="0" style="stop-color:#41A380"/>
		<stop  offset="1" style="stop-color:#63D5AC"/>
	</linearGradient>
	<path class="st43" d="M673,108.9c-0.4-0.6-0.4-0.3-0.1,1.2c0.3,1.2,0.3,2.3,0,4.3c-0.3,2.6-0.3,3.1,0.1,5.8c0.3,2,0.2,3.6-0.5,4.9
		c-0.5,0.9-1.2,1.8-1.9,2.3c-0.3,0.2-0.5,0.4-0.5,0.5c0,0.1,0.1,0.1,0.7-0.3c1.3-0.8,2.2-2,2.6-3.4c0.4-1.2,0.4-2.3,0-4.5
		c-0.4-2.3-0.4-3-0.1-5.2c0.1-1,0.2-2.2,0.2-2.7C673.5,111,673.2,109.3,673,108.9z"/>
	
		<linearGradient id="SVGID_39_" gradientUnits="userSpaceOnUse" x1="666.4428" y1="14.2702" x2="667.1098" y2="16.4582" gradientTransform="matrix(1 0 0 1 0 88)">
		<stop  offset="0" style="stop-color:#41A380"/>
		<stop  offset="1" style="stop-color:#63D5AC"/>
	</linearGradient>
	<path class="st44" d="M669.3,103.4c-1.5-0.6-4.4-0.8-5.4-0.4c-0.3,0.1-0.2,0.1,0.4,0.1c1.9,0,2.7,0,4,0.3c0.8,0.1,1.5,0.2,1.5,0.2
		S669.6,103.5,669.3,103.4z"/>
	
		<linearGradient id="SVGID_40_" gradientUnits="userSpaceOnUse" x1="661.3871" y1="20.0871" x2="667.2861" y2="39.0821" gradientTransform="matrix(1 0 0 1 0 88)">
		<stop  offset="0" style="stop-color:#41A380"/>
		<stop  offset="1" style="stop-color:#63D5AC"/>
	</linearGradient>
	<path class="st45" d="M671.2,109c-0.6-0.9-1.9-1.6-3.5-1.9s-3.2-0.1-4.5,0.6c-1.2,0.6-1.9,1.1-3.4,2.8c-0.5,0.6-1.4,1.4-1.9,1.9
		c-1.9,1.7-2.1,2-2.4,2.5c-0.5,1-0.7,3.3-0.2,4.3c0.2,0.5,1.8,2.1,5.4,5.4c2,1.9,2.6,2.3,3.4,2.6c2.3,0.7,5.6-0.8,6.7-2.9
		c0.5-0.9,0.6-1.7,0.6-4.6c0-1.4,0-2.9,0.1-3.3C671.7,112.5,671.6,109.6,671.2,109z M667.2,113.8c-0.1,1.3-0.1,1.4,0.2,2.5
		c0.2,0.6,0.5,1.6,0.8,2.2c0.3,0.9,0.4,1.3,0.5,1.9c0.2,1.8-0.6,3.7-1.9,5c-0.6,0.6-1.7,1.2-2,1.2c-0.7,0-1.8-0.7-4-2.8
		c-0.7-0.7-1.9-1.8-2.8-2.6c-0.8-0.8-1.7-1.6-1.9-1.8l-0.4-0.4l0.1-0.7c0.2-1,0.7-1.9,1.3-2.5c0.3-0.3,0.9-0.7,1.7-1.1
		c1.6-0.8,2-1.1,3.1-2.5c1.8-2.1,2.6-2.7,3.7-2.5c0.8,0.1,1.2,0.6,1.5,1.7C667.3,112.3,667.3,112.6,667.2,113.8z"/>
	
		<linearGradient id="SVGID_41_" gradientUnits="userSpaceOnUse" x1="658.6102" y1="-4.4804" x2="659.4581" y2="-1.6935" gradientTransform="matrix(1 0 0 1 0 88)">
		<stop  offset="0" style="stop-color:#41A380"/>
		<stop  offset="1" style="stop-color:#63D5AC"/>
	</linearGradient>
	<path class="st46" d="M662.5,82.9c-1.6,0-2.8,0.3-4.6,0.8c-1.6,0.5-1.7,0.6-2.1,1c-0.9,0.8-1.2,2.1-0.7,2.7
		c0.2,0.2,0.2,0.2,0.2-0.3c-0.1-1,0.4-1.8,1.3-2.4c0.5-0.3,0.9-0.5,2.4-0.8c1-0.3,2.3-0.6,3-0.7C663.4,83,663.6,82.9,662.5,82.9z"/>
	
		<linearGradient id="SVGID_42_" gradientUnits="userSpaceOnUse" x1="660.2787" y1="-8.7383" x2="660.7778" y2="-7.1118" gradientTransform="matrix(1 0 0 1 0 88)">
		<stop  offset="0" style="stop-color:#41A380"/>
		<stop  offset="1" style="stop-color:#63D5AC"/>
	</linearGradient>
	<path class="st47" d="M661.6,79.3c-0.3-0.2-0.7-0.3-1.4-0.1c-0.8,0.2-1.1,0.6-1,1.1c0.2,0.5,0.8,0.8,1.6,0.5c0.8-0.2,1.1-0.6,1-1.1
		C661.8,79.6,661.7,79.4,661.6,79.3z"/>
	
		<linearGradient id="SVGID_43_" gradientUnits="userSpaceOnUse" x1="674.5495" y1="41.9189" x2="675.2325" y2="44.1478" gradientTransform="matrix(1 0 0 1 0 88)">
		<stop  offset="0" style="stop-color:#41A380"/>
		<stop  offset="1" style="stop-color:#63D5AC"/>
	</linearGradient>
	<path class="st48" d="M676.2,129.7c-1.2-0.4-3.4,1-3.1,1.9c0.2,0.6,0.7,0.8,1.6,0.6c1.4-0.3,2.2-1.1,1.9-2
		C676.5,129.9,676.4,129.8,676.2,129.7z"/>
	
		<linearGradient id="SVGID_44_" gradientUnits="userSpaceOnUse" x1="659.4257" y1="-3.4766" x2="659.7997" y2="-2.2435" gradientTransform="matrix(1 0 0 1 0 88)">
		<stop  offset="0" style="stop-color:#41A380"/>
		<stop  offset="1" style="stop-color:#63D5AC"/>
	</linearGradient>
	<path class="st49" d="M662,84.1c-0.3,0-1.1,0.1-1.7,0.2c-2,0.4-3.3,1.2-3.5,2c-0.1,0.5,0.1,0.5,0.4,0c0.1-0.2,0.4-0.5,0.5-0.6
		c0.4-0.3,2.7-1.1,3.9-1.3c0.6-0.1,1-0.2,1-0.2C662.6,84.1,662.3,84.1,662,84.1z"/>
	
		<linearGradient id="SVGID_45_" gradientUnits="userSpaceOnUse" x1="666.0392" y1="15.3926" x2="666.4272" y2="16.6617" gradientTransform="matrix(1 0 0 1 0 88)">
		<stop  offset="0" style="stop-color:#41A380"/>
		<stop  offset="1" style="stop-color:#63D5AC"/>
	</linearGradient>
	<path class="st50" d="M667.7,104.1c-0.8-0.2-1.8-0.3-2.9-0.2c-0.6,0.1-0.1,0.2,0.7,0.2c0.4,0,1.1,0,1.4,0.1
		c0.8,0.1,1.1,0.1,1.1,0.1C668,104.2,667.8,104.1,667.7,104.1z"/>
	
		<linearGradient id="SVGID_46_" gradientUnits="userSpaceOnUse" x1="663.6492" y1="9.6009" x2="664.4001" y2="12.035" gradientTransform="matrix(1 0 0 1 0 88)">
		<stop  offset="0" style="stop-color:#41A380"/>
		<stop  offset="1" style="stop-color:#63D5AC"/>
	</linearGradient>
	<path class="st51" d="M665.3,98.3c-0.4-0.7-0.9-0.9-1.5-0.7c-1.2,0.4-1.6,1.3-0.9,2c0.5,0.5,0.9,0.6,1.6,0.4
		c0.6-0.1,0.7-0.2,0.9-0.5C665.6,99,665.6,98.7,665.3,98.3z"/>
	
		<linearGradient id="SVGID_47_" gradientUnits="userSpaceOnUse" x1="658.6953" y1="18.9271" x2="660.5213" y2="24.911" gradientTransform="matrix(1 0 0 1 0 88)">
		<stop  offset="0" style="stop-color:#41A380"/>
		<stop  offset="1" style="stop-color:#63D5AC"/>
	</linearGradient>
	<path class="st52" d="M666.1,105.2c-0.6,0-2.2,0.2-3.3,0.5c-2.5,0.6-3.8,1.6-5.3,3.9c-0.9,1.4-1.3,1.8-2.5,2.6
		c-1.3,0.8-1.9,1.4-1.9,2.2c-0.1,0.7,0.2,0.9,0.3,0.2c0.1-0.7,0.7-1.3,2.2-2.3c0.9-0.6,1.4-1.1,2.3-2.6c1-1.6,1.6-2.2,2.9-2.9
		c0.8-0.4,2.7-1,3.9-1.2C665.6,105.5,666.5,105.2,666.1,105.2z"/>
	
		<linearGradient id="SVGID_48_" gradientUnits="userSpaceOnUse" x1="655.921" y1="-7.6689" x2="656.576" y2="-5.5303" gradientTransform="matrix(1 0 0 1 0 88)">
		<stop  offset="0" style="stop-color:#41A380"/>
		<stop  offset="1" style="stop-color:#63D5AC"/>
	</linearGradient>
	<path class="st53" d="M657.8,79.8c-0.1,0-0.4,0.3-0.7,0.7c-0.6,0.8-1.4,1.6-2.1,2.2c-0.2,0.2-0.4,0.3-0.3,0.3
		c0.2,0,1.3-0.7,1.9-1.3C657.1,81.1,658,79.8,657.8,79.8z"/>
	
		<linearGradient id="SVGID_49_" gradientUnits="userSpaceOnUse" x1="652.928" y1="-7.0578" x2="653.6371" y2="-4.7275" gradientTransform="matrix(1 0 0 1 0 88)">
		<stop  offset="0" style="stop-color:#41A380"/>
		<stop  offset="1" style="stop-color:#63D5AC"/>
	</linearGradient>
	<path class="st54" d="M656.3,80.1c-1.4,1.7-2.9,2.7-5.2,3.5c-1.2,0.4-1.4,0.6-0.8,0.5c1.3-0.1,3.5-1.3,4.8-2.5
		c0.5-0.5,1.2-1.4,1.3-1.7C656.6,79.8,656.5,79.8,656.3,80.1z"/>
	
		<linearGradient id="SVGID_50_" gradientUnits="userSpaceOnUse" x1="659.3832" y1="5.5356" x2="659.7813" y2="6.8208" gradientTransform="matrix(1 0 0 1 0 88)">
		<stop  offset="0" style="stop-color:#41A380"/>
		<stop  offset="1" style="stop-color:#63D5AC"/>
	</linearGradient>
	<path class="st55" d="M660,93.7c-0.5-0.4-1.3-0.1-1.2,0.4c0,0.1,0.3,0.3,0.5,0.5c0.6,0.3,0.9,0.2,1-0.4
		C660.3,93.9,660.3,94,660,93.7z"/>
	
		<linearGradient id="SVGID_51_" gradientUnits="userSpaceOnUse" x1="648.27" y1="-8.5249" x2="649.382" y2="-4.866" gradientTransform="matrix(1 0 0 1 0 88)">
		<stop  offset="0" style="stop-color:#41A380"/>
		<stop  offset="1" style="stop-color:#63D5AC"/>
	</linearGradient>
	<path class="st56" d="M654.5,77.8c-0.3-0.1-0.5-0.1-0.4,0c0,0,0.1,0.1,0.1,0.2c0.1,0,0.2,0.2,0.2,0.3l0.1,0.2l-1.3,0.4
		c-2.9,0.8-6.9,3-8.6,4.6c-0.4,0.4-0.5,0.5-1.2,0.6c-0.6,0.1-0.7,0.2-0.6,0.3c0.3,0.5,4.7-0.5,6.9-1.4c1.6-0.7,3.8-2.2,4.7-3.1
		C655.1,79.1,655.1,78.1,654.5,77.8z"/>
	
		<linearGradient id="SVGID_52_" gradientUnits="userSpaceOnUse" x1="662.2529" y1="36.0882" x2="664.0378" y2="41.8803" gradientTransform="matrix(1 0 0 1 0 88)">
		<stop  offset="0" style="stop-color:#41A380"/>
		<stop  offset="1" style="stop-color:#63D5AC"/>
	</linearGradient>
	<path class="st57" d="M667.2,128.6c-0.2,0-0.6,0.1-0.9,0.1c-1.9,0.3-3.1-0.1-5.4-2c-1.2-1-2.1-1.6-2.2-1.6c-0.1,0,0.2,0.3,0.5,0.7
		c1.7,1.7,3.7,3,4.9,3.3c0.9,0.2,1.8,0.1,2.6-0.1C667.6,128.8,667.8,128.5,667.2,128.6z"/>
	
		<linearGradient id="SVGID_53_" gradientUnits="userSpaceOnUse" x1="665.7855" y1="42.5103" x2="666.4955" y2="44.8213" gradientTransform="matrix(1 0 0 1 0 88)">
		<stop  offset="0" style="stop-color:#41A380"/>
		<stop  offset="1" style="stop-color:#63D5AC"/>
	</linearGradient>
	<path class="st58" d="M667.5,131c-0.5-0.3-1.5-0.4-2.4-0.3c-0.9,0.2-1,0.4-0.8,1c0.2,0.5,0.7,0.9,1.3,1c0.9,0.2,2.3-0.3,2.3-0.8
		C668,131.4,667.9,131.2,667.5,131z"/>
	
		<linearGradient id="SVGID_54_" gradientUnits="userSpaceOnUse" x1="653.0844" y1="9.815" x2="656.0244" y2="19.2005" gradientTransform="matrix(1 0 0 1 0 88)">
		<stop  offset="0" style="stop-color:#41A380"/>
		<stop  offset="1" style="stop-color:#63D5AC"/>
	</linearGradient>
	<path class="st59" d="M656.4,96.8c-0.1,0-0.5,1.4-0.7,2.8c-0.2,1.1-0.2,1.7-0.1,2.5c0.1,0.6,0.1,1.3,0,1.6
		c-0.1,1.2-0.8,2.2-2.3,3.6c-0.6,0.6-0.8,0.8-0.6,0.7c0.9-0.5,2.1-1.7,2.7-2.8c0.5-0.9,0.6-1.8,0.5-3c-0.1-0.7,0-1.5,0.2-2.9
		C656.5,97.5,656.5,96.8,656.4,96.8z"/>
	
		<linearGradient id="SVGID_55_" gradientUnits="userSpaceOnUse" x1="649.3204" y1="6.4387" x2="653.5444" y2="19.9614" gradientTransform="matrix(1 0 0 1 0 88)">
		<stop  offset="0" style="stop-color:#41A380"/>
		<stop  offset="1" style="stop-color:#63D5AC"/>
	</linearGradient>
	<path class="st60" d="M654.7,93.8c-0.3-0.4-0.6-0.8-0.8-0.7c-0.1,0-0.1,0.1,0.2,0.5c0.4,0.5,0.6,1.4,0.6,2.1c0,0.3-0.1,1.2-0.3,2.2
		c-0.2,1.3-0.3,2.1-0.2,3.3c0.1,2,0,2.7-0.5,3.6s-1.4,1.7-3.5,3.3c-1,0.7-1.8,1.3-1.8,1.4c-0.2,0.3,1.4-0.6,3.4-2
		c1.7-1.2,2.6-2.4,2.9-3.9c0.1-0.5,0.1-1.6,0.1-2.5c0-1.2,0-2,0.2-3.1C655.2,95.8,655.2,94.6,654.7,93.8z"/>
	
		<linearGradient id="SVGID_56_" gradientUnits="userSpaceOnUse" x1="645.1112" y1="3.0645" x2="650.2281" y2="19.4244" gradientTransform="matrix(1 0 0 1 0 88)">
		<stop  offset="0" style="stop-color:#41A380"/>
		<stop  offset="1" style="stop-color:#63D5AC"/>
	</linearGradient>
	<path class="st61" d="M652.5,93.9c-0.4-0.8-1.4-1.9-2-2.3c-1-0.6-3.7-1.1-4.4-0.9c-0.5,0.1-0.7,0.3-1.3,1.2c-0.3,0.4-1,1.1-1.5,1.7
		c-1.7,1.6-1.9,2.2-1.5,4.1c0.5,2.2,0.7,3.3,0.8,4.8c0.2,2.1,0.3,2.5,0.6,3.2c0.4,0.8,0.9,1.3,1.8,1.8c0.9,0.5,2.1,0.7,2.6,0.6
		c0.4-0.1,1.6-1,2.5-1.8c1.6-1.4,2.2-2.7,2.7-5.9c0.3-2.1,0.4-3.3,0.3-4.3C653,95.4,652.7,94.4,652.5,93.9z M652.6,97.6
		c0,1.2-0.5,4.2-0.8,5.2c-0.1,0.5-0.4,1.1-0.7,1.5c-0.7,1.1-3.2,3.2-3.9,3.3c-0.5,0-2-0.5-2.5-0.8c-0.2-0.2-0.6-0.5-0.8-0.7
		c-0.5-0.6-0.9-1.8-1-3.5l-0.1-1.2l0.5-1c0.3-0.7,0.7-1.2,1-1.5c0.6-0.5,0.8-1,1-2.4c0.2-0.9,0.5-1.6,1.1-2.1
		c0.2-0.2,0.6-0.4,1.1-0.5c0.6-0.2,0.8-0.2,1.4-0.1c1.4,0.3,3,1.4,3.6,2.7C652.6,96.7,652.6,97.1,652.6,97.6z"/>
	
		<linearGradient id="SVGID_57_" gradientUnits="userSpaceOnUse" x1="645.2914" y1="1.4326" x2="646.2726" y2="4.6528" gradientTransform="matrix(1 0 0 1 0 88)">
		<stop  offset="0" style="stop-color:#41A380"/>
		<stop  offset="1" style="stop-color:#63D5AC"/>
	</linearGradient>
	<path class="st62" d="M650.3,90c-2-0.9-4.2-1-5.6-0.3c-1,0.5-1.4,1-2.2,2.5c-0.4,0.8-0.8,1.5-0.9,1.5c-0.2,0.1-0.2,0.3,0,0.3
		c0.3-0.1,0.8-0.7,1.4-1.8c0.4-0.7,0.8-1.3,1.1-1.6c0.4-0.4,0.6-0.5,1.5-0.8s1.2-0.3,1.9-0.2c0.5,0,1.4,0.2,2,0.4
		c0.6,0.2,1.2,0.3,1.2,0.2C650.8,90.2,650.6,90.1,650.3,90z"/>
	
		<linearGradient id="SVGID_58_" gradientUnits="userSpaceOnUse" x1="659.282" y1="37.0169" x2="660.8571" y2="42.051" gradientTransform="matrix(1 0 0 1 0 88)">
		<stop  offset="0" style="stop-color:#41A380"/>
		<stop  offset="1" style="stop-color:#63D5AC"/>
	</linearGradient>
	<path class="st63" d="M661.9,129c-1-0.7-2.2-1.5-3.3-2.6c-0.6-0.5-1.1-0.9-1.1-0.9c-0.1,0.2,1.8,2,2.7,2.6s2.4,1.4,2.4,1.3
		C662.5,129.5,662.2,129.3,661.9,129z"/>
	
		<linearGradient id="SVGID_59_" gradientUnits="userSpaceOnUse" x1="654.4344" y1="33.6249" x2="655.0914" y2="35.7399" gradientTransform="matrix(1 0 0 1 0 88)">
		<stop  offset="0" style="stop-color:#41A380"/>
		<stop  offset="1" style="stop-color:#63D5AC"/>
	</linearGradient>
	<path class="st64" d="M655.1,121.8c-0.5-0.3-0.6-0.3-0.9-0.1c-0.4,0.1-0.4,0.2-0.5,0.6c-0.2,1.3,1.4,2,2,1
		C656,122.6,655.8,122.2,655.1,121.8z"/>
	
		<linearGradient id="SVGID_60_" gradientUnits="userSpaceOnUse" x1="655.4672" y1="38.9391" x2="656.4432" y2="42.0561" gradientTransform="matrix(1 0 0 1 0 88)">
		<stop  offset="0" style="stop-color:#41A380"/>
		<stop  offset="1" style="stop-color:#63D5AC"/>
	</linearGradient>
	<path class="st65" d="M656.8,129c-0.3-0.2-1-0.7-1.5-1.1s-0.9-0.7-0.9-0.6c-0.1,0.2,2.8,2.5,3.1,2.5
		C657.6,129.7,657.4,129.4,656.8,129z"/>
	
		<linearGradient id="SVGID_61_" gradientUnits="userSpaceOnUse" x1="654.9469" y1="40.0521" x2="655.6449" y2="42.2701" gradientTransform="matrix(1 0 0 1 0 88)">
		<stop  offset="0" style="stop-color:#41A380"/>
		<stop  offset="1" style="stop-color:#63D5AC"/>
	</linearGradient>
	<path class="st66" d="M655.3,129.1c-0.9-0.8-1.3-1.1-0.8-0.5c0.6,0.7,1.9,1.7,1.8,1.4C656.3,129.9,655.8,129.5,655.3,129.1z"/>
	
		<linearGradient id="SVGID_62_" gradientUnits="userSpaceOnUse" x1="649.8323" y1="25.2144" x2="650.4943" y2="27.3466" gradientTransform="matrix(1 0 0 1 0 88)">
		<stop  offset="0" style="stop-color:#41A380"/>
		<stop  offset="1" style="stop-color:#63D5AC"/>
	</linearGradient>
	<path class="st67" d="M650.6,113.3c-0.3-0.1-0.6-0.2-0.7-0.1c-0.8,0.3-1.1,1.3-0.4,1.8c0.4,0.3,0.9,0.4,1.3,0.2
		c0.3-0.1,0.4-0.2,0.4-0.5c0-0.2,0-0.6-0.1-0.8C651.1,113.6,651,113.5,650.6,113.3z"/>
	
		<linearGradient id="SVGID_63_" gradientUnits="userSpaceOnUse" x1="643.5515" y1="25.913" x2="648.3085" y2="41.034" gradientTransform="matrix(1 0 0 1 0 88)">
		<stop  offset="0" style="stop-color:#41A380"/>
		<stop  offset="1" style="stop-color:#63D5AC"/>
	</linearGradient>
	<path class="st68" d="M650.7,120.2c-0.8-1.7-1.4-2.6-2.6-3.7c-1.7-1.6-3.7-2.5-5.1-2.3c-1.3,0.1-2.3,1.7-2.3,3.5
		c0,1.1,0.3,3.9,0.6,5.4c0.6,2.8,1.9,5,3.4,5.8c0.9,0.5,2.1,0.5,3.9-0.1c1.3-0.4,1.6-0.6,2.1-1.3c0.3-0.5,0.7-2.7,0.7-4
		C651.4,122.5,651,120.8,650.7,120.2z M648.7,125.6c0.1,1,0,2.2-0.3,2.7c-0.2,0.3-0.2,0.3-1.1,0.4c-1.9,0.3-3-0.3-4.2-2.2
		c-0.4-0.6-0.5-1-1-2.5s-0.6-2.1-0.8-3.7c-0.1-1-0.2-2.2-0.2-2.6V117l0.4-0.1c1-0.3,3.1,0.5,4.2,1.5c0.6,0.6,1.4,1.7,1.8,2.6
		C648,122,648.6,124.5,648.7,125.6z"/>
	
		<linearGradient id="SVGID_64_" gradientUnits="userSpaceOnUse" x1="642.1566" y1="19.6105" x2="642.9536" y2="22.1544" gradientTransform="matrix(1 0 0 1 0 88)">
		<stop  offset="0" style="stop-color:#41A380"/>
		<stop  offset="1" style="stop-color:#63D5AC"/>
	</linearGradient>
	<path class="st69" d="M643,107.4c-0.2-0.1-0.5,0.1-0.8,0.5c-0.7,1-0.7,1.3-0.1,1.9c0.6,0.6,1.1,0.4,1.3-0.4
		C643.4,108.8,643.2,107.5,643,107.4z"/>
	
		<linearGradient id="SVGID_65_" gradientUnits="userSpaceOnUse" x1="638.5475" y1="10.8311" x2="640.5915" y2="17.2396" gradientTransform="matrix(1 0 0 1 0 88)">
		<stop  offset="0" style="stop-color:#41A380"/>
		<stop  offset="1" style="stop-color:#63D5AC"/>
	</linearGradient>
	<path class="st70" d="M640,98.4c0,0.1,0,0.6,0,1.3c0.1,2.1,0.2,3.3,0.1,3.7c0,0.2-0.3,0.7-0.6,1.3s-0.5,1-0.5,1
		c0.1,0.1,1-1,1.2-1.5c0.4-0.8,0.4-1.5,0.2-3.7C640.4,99.1,640.2,98.2,640,98.4z"/>
	
		<linearGradient id="SVGID_66_" gradientUnits="userSpaceOnUse" x1="640.4318" y1="15.948" x2="641.6627" y2="19.775" gradientTransform="matrix(1 0 0 1 0 88)">
		<stop  offset="0" style="stop-color:#41A380"/>
		<stop  offset="1" style="stop-color:#63D5AC"/>
	</linearGradient>
	<path class="st71" d="M641.2,103.9c-0.2-0.2-0.2,0-0.1,0.6c0.2,1,0.2,1.7-0.1,2.6s-0.2,1.1,0.1,0.7c0.5-0.6,0.7-2.2,0.4-3.3
		C641.3,104.2,641.2,103.9,641.2,103.9z"/>
</g>
</svg>
