<svg width="1920" height="3010" viewBox="0 0 1920 3010" fill="none" xmlns="http://www.w3.org/2000/svg">
<circle opacity="0.4" r="5.8148" transform="matrix(1 0 0 -1 1805.81 428.815)" fill="#318265"/>
<circle r="7.10698" transform="matrix(1 0 0 -1 1914.42 707.1)" fill="url(#paint0_linear_255_5965)"/>
<ellipse rx="14.8601" ry="14.214" transform="matrix(1 0 0 -1 1768.86 763.214)" fill="url(#paint1_linear_255_5965)"/>
<ellipse rx="2.58436" ry="1.93827" transform="matrix(1 0 0 -1 1800.06 470.631)" fill="#D9D9D9"/>
<circle r="4.52262" transform="matrix(1 0 0 -1 1557.78 1746.01)" fill="#99ECC4"/>
<circle opacity="0.2" r="29.074" transform="matrix(1 0 0 -1 1791.07 1712.07)" fill="#45A985"/>
<circle r="7.10698" transform="matrix(1 0 0 -1 1815.11 2670.11)" fill="#318265"/>
<circle r="5.8148" transform="matrix(1 0 0 -1 1732.22 578.878)" fill="#318265"/>
<circle r="9" transform="matrix(1 0 0 -1 1678 301.8)" fill="#318265"/>
<g opacity="0.2">
<circle r="135.5" transform="matrix(1 0 0 -1 1707.5 2140.5)" fill="#99ECC4"/>
<circle r="17.1761" transform="matrix(1 0 0 -1 1665.51 2067.98)" fill="#5EAB8A"/>
<circle opacity="0.4" r="24.8099" transform="matrix(1 0 0 -1 1642.61 2144.32)" fill="#318265"/>
<circle opacity="0.4" r="9.54229" transform="matrix(1 0 0 -1 1718.95 2148.13)" fill="#318265"/>
</g>
<circle cx="1572" cy="2341.71" r="3.23045" fill="#99ECC4"/>
<circle cx="1531.94" cy="2385.64" r="1.93827" fill="#318265"/>
<g filter="url(#filter0_d_255_5965)">
<circle cx="1786.62" cy="1393.92" r="32.918" fill="url(#paint2_linear_255_5965)"/>
<g filter="url(#filter1_f_255_5965)">
<path fill-rule="evenodd" clip-rule="evenodd" d="M1847.89 1381.77C1848.1 1382.46 1848.02 1383.29 1847.55 1384.31C1847.08 1385.34 1846.23 1386.49 1844.99 1387.75C1842.5 1390.28 1838.57 1393.07 1833.47 1395.97C1823.29 1401.75 1808.59 1407.8 1791.81 1412.74C1775.02 1417.67 1759.39 1420.53 1747.69 1421.18C1741.84 1421.51 1737.02 1421.28 1733.57 1420.5C1731.84 1420.12 1730.5 1419.6 1729.54 1419C1728.6 1418.39 1728.08 1417.73 1727.88 1417.04C1727.68 1416.35 1727.75 1415.52 1728.22 1414.5C1728.7 1413.47 1729.55 1412.32 1730.79 1411.06C1733.28 1408.53 1737.2 1405.74 1742.3 1402.84C1745.85 1400.83 1749.94 1398.78 1754.48 1396.76V1395.67C1736.57 1403.59 1725.35 1411.96 1726.92 1417.32C1729.24 1425.22 1758.42 1423.59 1792.09 1413.7C1825.76 1403.8 1851.17 1389.38 1848.85 1381.49C1847.32 1376.25 1833.96 1375.2 1815.32 1377.98L1815.88 1378.91C1820.28 1378.26 1824.38 1377.83 1828.08 1377.63C1833.94 1377.3 1838.75 1377.53 1842.21 1378.31C1843.94 1378.69 1845.28 1379.21 1846.23 1379.81C1847.18 1380.42 1847.69 1381.08 1847.89 1381.77Z" fill="#5CCAA2"/>
</g>
<path fill-rule="evenodd" clip-rule="evenodd" d="M1846.16 1380.5C1846.28 1380.9 1846.27 1381.48 1845.87 1382.34C1845.46 1383.23 1844.7 1384.29 1843.5 1385.5C1841.1 1387.93 1837.27 1390.68 1832.2 1393.55C1822.1 1399.28 1807.48 1405.31 1790.75 1410.23C1774.02 1415.15 1758.46 1417.99 1746.86 1418.63C1741.05 1418.96 1736.34 1418.72 1733.01 1417.98C1731.34 1417.61 1730.13 1417.13 1729.31 1416.6C1728.5 1416.09 1728.18 1415.61 1728.07 1415.21C1727.95 1414.82 1727.96 1414.24 1728.36 1413.37C1728.76 1412.49 1729.53 1411.42 1730.73 1410.21C1733.12 1407.78 1736.95 1405.04 1742.02 1402.16C1746.18 1399.8 1751.1 1397.39 1756.62 1395.03L1753.7 1395.85V1394.12C1735.79 1402.04 1724.57 1410.42 1726.15 1415.78C1728.47 1423.67 1757.64 1422.04 1791.31 1412.15C1824.98 1402.25 1850.4 1387.83 1848.08 1379.94C1846.54 1374.7 1833.18 1373.65 1814.53 1376.43L1815.59 1378.3C1819.84 1377.68 1823.79 1377.28 1827.36 1377.08C1833.18 1376.75 1837.89 1376.99 1841.22 1377.73C1842.88 1378.11 1844.1 1378.59 1844.92 1379.11C1845.72 1379.62 1846.04 1380.11 1846.16 1380.5Z" fill="#318265"/>
<circle cx="1836.19" cy="1392.37" r="8.13269" fill="#99ECC4"/>
<circle cx="1740.15" cy="1420.25" r="12.0054" fill="url(#paint3_linear_255_5965)"/>
<circle cx="1822.25" cy="1376.88" r="3.48544" fill="#3FA782"/>
</g>
<g opacity="0.7">
<path d="M1802.15 43.2719C1798.94 37.0466 1791.28 34.606 1785.06 37.8208C1778.83 41.0355 1776.39 48.6881 1779.61 54.9134L1801.04 96.4144L1823.58 84.7729L1802.15 43.2719Z" fill="#72E8BD"/>
<rect width="2.30656" height="20.1824" rx="1.15328" transform="matrix(-0.888524 0.45883 0.45883 0.888524 1822.26 82.2112)" fill="#72E8BD"/>
<rect width="2.30656" height="37.4816" rx="1.15328" transform="matrix(-0.888524 0.45883 0.45883 0.888524 1813.93 76.1301)" fill="#72E8BD"/>
<rect width="2.30656" height="22.4889" rx="1.15328" transform="matrix(-0.888524 0.45883 0.45883 0.888524 1805.86 70.5613)" fill="#72E8BD"/>
<rect width="2.30656" height="6.91967" rx="1.15328" transform="matrix(-0.888524 0.45883 0.45883 0.888524 1817.24 92.5928)" fill="#72E8BD"/>
<rect width="2.30656" height="23.0656" rx="1.15328" transform="matrix(-0.888524 0.45883 0.45883 0.888524 1821.47 100.791)" fill="#72E8BD"/>
<rect width="2.30656" height="4.61312" rx="1.15328" transform="matrix(-0.888524 0.45883 0.45883 0.888524 1819.49 107.006)" fill="#72E8BD"/>
<rect width="2.30656" height="23.0656" rx="1.15328" transform="matrix(-0.888524 0.45883 0.45883 0.888524 1807.85 84.4622)" fill="#72E8BD"/>
<rect width="2.30656" height="20.759" rx="1.15328" transform="matrix(-0.888524 0.45883 0.45883 0.888524 1805.6 90.1653)" fill="#72E8BD"/>
<rect width="2.30656" height="10.9562" rx="1.15328" transform="matrix(-0.888524 0.45883 0.45883 0.888524 1815.92 110.147)" fill="#72E8BD"/>
<rect width="2.30656" height="5.7664" rx="1.15328" transform="matrix(-0.888524 0.45883 0.45883 0.888524 1808.12 105.091)" fill="#72E8BD"/>
<rect width="2.30656" height="15.5693" rx="1.15328" transform="matrix(-0.888524 0.45883 0.45883 0.888524 1800.44 90.2327)" fill="#72E8BD"/>
<rect width="2.30656" height="36.3283" rx="1.15328" transform="matrix(-0.888524 0.45883 0.45883 0.888524 1816.51 76.0964)" fill="white"/>
<rect width="2.30656" height="31.7152" rx="1.15328" transform="matrix(-0.888524 0.45883 0.45883 0.888524 1812.94 79.2378)" fill="white"/>
<rect width="2.30656" height="26.5254" rx="1.15328" transform="matrix(-0.888524 0.45883 0.45883 0.888524 1802.49 69.0579)" fill="white"/>
<rect width="2.30656" height="16.1459" rx="1.15328" transform="matrix(-0.888524 0.45883 0.45883 0.888524 1804.74 83.4712)" fill="white"/>
<rect width="2.30656" height="11.5328" rx="1.15328" transform="matrix(-0.888524 0.45883 0.45883 0.888524 1803.81 91.7361)" fill="white"/>
<circle r="10.9562" transform="matrix(-0.888524 0.45883 0.45883 0.888524 1791.14 49.6051)" fill="url(#paint4_linear_255_5965)"/>
</g>
<path opacity="0.7" d="M1914.6 1346.21C2049.16 1566.09 2094.96 1639.69 2101.05 1649C2117.77 1414.83 2149.85 938.267 2144.38 905.421C2138.91 872.576 2113.21 391.455 2101.05 155C2070.83 160.322 1991.23 184.652 1914.6 239.394C1818.81 307.821 1878.68 375.679 1885.52 539.334C1892.36 702.99 1860.43 680.181 1764.65 852.96C1668.86 1025.74 1746.4 1071.36 1914.6 1346.21Z" fill="#232424" stroke="#77DBB7"/>
<circle opacity="0.2" cx="1791" cy="3015" r="289.75" stroke="black" stroke-width="0.5" stroke-linecap="round" stroke-dasharray="11 11"/>
<g opacity="0.8" filter="url(#filter2_f_255_5965)">
<circle cx="2005.5" cy="0.5" r="180.5" fill="#1EADCD" fill-opacity="0.5"/>
</g>
<ellipse cx="1530" cy="819.5" rx="56" ry="56.5" fill="url(#paint5_linear_255_5965)"/>
<ellipse opacity="0.5" cx="1510" cy="718.5" rx="11" ry="11.5" fill="url(#paint6_linear_255_5965)"/>
<path opacity="0.1" d="M1859.46 319.269C1859.95 316.168 1860.53 313.089 1861.21 310.037C1861.48 310.097 1861.75 309.928 1861.81 309.659C1862.19 307.974 1862.6 306.296 1863.05 304.628C1863.55 302.724 1864.13 300.853 1864.77 299.017C1864.86 298.756 1864.72 298.472 1864.46 298.381C1865.67 294.958 1867.11 291.653 1868.74 288.466C1868.99 288.592 1869.29 288.496 1869.41 288.252C1871.22 284.769 1873.26 281.426 1875.5 278.222C1875.66 277.996 1875.6 277.685 1875.38 277.526C1877.46 274.584 1879.7 271.759 1882.08 269.051C1882.28 269.233 1882.6 269.214 1882.78 269.007C1885.38 266.076 1888.13 263.281 1891.01 260.621C1891.22 260.433 1891.23 260.118 1891.04 259.915C1893.7 257.477 1896.46 255.154 1899.3 252.942C1899.47 253.16 1899.78 253.199 1900 253.03C1903.12 250.616 1906.32 248.336 1909.57 246.189C1909.8 246.037 1909.87 245.727 1909.71 245.497C1912.76 243.501 1915.84 241.621 1918.94 239.854C1919.07 240.093 1919.38 240.177 1919.62 240.041C1923.09 238.07 1926.58 236.242 1930.03 234.553C1930.28 234.432 1930.38 234.133 1930.26 233.885C1933.59 232.269 1936.88 230.782 1940.11 229.423C1940.22 229.678 1940.51 229.798 1940.76 229.691C1944.55 228.106 1948.24 226.698 1951.76 225.464C1952.02 225.373 1952.16 225.088 1952.07 224.827C1955.7 223.563 1959.16 222.484 1962.37 221.587C1962.44 221.853 1962.72 222.008 1962.98 221.935C1964.77 221.441 1966.47 221.005 1968.08 220.625L1968.24 225.349C1968.25 225.625 1968.48 225.841 1968.76 225.832C1968.86 229.07 1968.97 232.328 1969.08 235.605C1968.81 235.615 1968.59 235.846 1968.6 236.122L1968.96 247.037C1968.97 247.313 1969.2 247.529 1969.48 247.52C1969.59 250.853 1969.7 254.204 1969.81 257.575C1969.53 257.584 1969.32 257.815 1969.33 258.091L1969.7 269.281C1969.7 269.557 1969.94 269.774 1970.21 269.764C1970.32 272.996 1970.43 276.244 1970.53 279.508C1970.26 279.517 1970.04 279.749 1970.05 280.025L1970.41 290.873C1970.42 291.149 1970.65 291.365 1970.92 291.356C1971.03 294.661 1971.14 297.982 1971.25 301.319C1970.98 301.328 1970.76 301.559 1970.77 301.835L1971.14 312.909C1971.14 313.185 1971.38 313.401 1971.65 313.392C1971.76 316.737 1971.87 320.097 1971.98 323.471C1971.71 323.48 1971.49 323.711 1971.5 323.987L1971.86 334.77C1971.86 335.046 1972.1 335.263 1972.37 335.254C1972.48 338.534 1972.59 341.827 1972.7 345.133C1972.42 345.142 1972.2 345.373 1972.21 345.649L1972.57 356.62C1972.58 356.896 1972.81 357.113 1973.09 357.104C1973.2 360.445 1973.31 363.799 1973.42 367.166C1973.15 367.175 1972.93 367.406 1972.94 367.682L1973.3 378.739C1973.31 379.015 1973.54 379.231 1973.82 379.222C1973.92 382.481 1974.03 385.75 1974.14 389.03C1973.86 389.04 1973.65 389.271 1973.66 389.547L1974.01 400.432C1974.02 400.708 1974.25 400.924 1974.53 400.915C1974.64 404.225 1974.75 407.546 1974.86 410.877C1974.58 410.886 1974.36 411.117 1974.37 411.393L1974.73 422.427C1974.74 422.703 1974.97 422.92 1975.25 422.91C1975.36 426.266 1975.47 429.631 1975.58 433.006C1975.3 433.015 1975.09 433.246 1975.1 433.522L1975.45 444.34C1975.46 444.616 1975.69 444.832 1975.97 444.823C1976.07 448.108 1976.18 451.402 1976.29 454.705C1976.01 454.714 1975.8 454.945 1975.81 455.221L1976.16 466.163C1976.17 466.439 1976.4 466.656 1976.68 466.647C1976.79 469.973 1976.9 473.307 1977.01 476.649C1976.73 476.658 1976.51 476.889 1976.52 477.165L1976.88 488.225C1976.89 488.501 1977.12 488.718 1977.4 488.709C1977.51 492.008 1977.62 495.314 1977.72 498.627C1977.45 498.636 1977.23 498.867 1977.24 499.143L1977.59 510.017C1977.6 510.293 1977.83 510.51 1978.11 510.501C1978.22 513.802 1978.33 517.11 1978.43 520.425C1978.16 520.434 1977.94 520.665 1977.95 520.941L1978.31 531.912C1978.32 532.188 1978.55 532.405 1978.82 532.396C1978.93 535.729 1979.04 539.068 1979.15 542.414C1978.87 542.423 1978.66 542.654 1978.67 542.93L1979.02 553.952C1979.03 554.228 1979.26 554.445 1979.54 554.436C1979.65 557.72 1979.75 561.01 1979.86 564.305C1979.59 564.314 1979.37 564.545 1979.38 564.821L1979.73 575.729C1979.74 576.005 1979.97 576.222 1980.25 576.213C1980.36 579.523 1980.46 582.839 1980.57 586.16C1980.29 586.169 1980.08 586.4 1980.09 586.676L1980.44 597.658C1980.45 597.934 1980.68 598.151 1980.96 598.142C1981.07 601.476 1981.18 604.815 1981.28 608.159C1981.01 608.168 1980.79 608.399 1980.8 608.675L1981.16 619.627C1981.16 619.903 1981.4 620.119 1981.67 620.11C1981.78 623.406 1981.88 626.706 1981.99 630.011C1981.72 630.02 1981.5 630.251 1981.51 630.527L1981.86 641.456C1981.87 641.732 1982.1 641.948 1982.38 641.939C1982.48 645.255 1982.59 648.574 1982.7 651.896C1982.42 651.905 1982.21 652.136 1982.22 652.412L1982.57 663.395C1982.58 663.671 1982.81 663.887 1983.09 663.878C1983.19 667.211 1983.3 670.547 1983.41 673.886C1983.13 673.895 1982.92 674.126 1982.93 674.402L1983.28 685.324C1983.29 685.6 1983.52 685.817 1983.79 685.808C1983.9 689.112 1984.01 692.42 1984.11 695.73C1983.84 695.739 1983.62 695.97 1983.63 696.246L1983.98 707.187C1983.99 707.463 1984.22 707.68 1984.5 707.671C1984.61 710.988 1984.71 714.308 1984.82 717.63C1984.54 717.639 1984.33 717.87 1984.34 718.146L1984.69 729.122C1984.7 729.398 1984.93 729.615 1985.2 729.606C1985.31 732.933 1985.42 736.262 1985.53 739.594C1985.25 739.603 1985.03 739.833 1985.04 740.109L1985.39 751.035C1985.4 751.311 1985.63 751.527 1985.91 751.518C1986.02 754.829 1986.12 758.142 1986.23 761.456C1985.95 761.465 1985.74 761.696 1985.74 761.972L1986.1 772.92C1986.1 773.196 1986.34 773.413 1986.61 773.404C1986.72 776.722 1986.82 780.041 1986.93 783.361C1986.65 783.37 1986.44 783.601 1986.45 783.877L1986.8 794.842C1986.81 795.118 1987.04 795.335 1987.31 795.326C1987.42 798.647 1987.53 801.969 1987.63 805.291C1987.36 805.3 1987.14 805.531 1987.15 805.807L1987.5 816.753C1987.51 817.029 1987.74 817.245 1988.01 817.236C1988.12 820.552 1988.23 823.869 1988.33 827.186C1988.06 827.195 1987.84 827.426 1987.85 827.702L1988.2 838.653C1988.21 838.929 1988.44 839.146 1988.71 839.137C1988.82 842.454 1988.93 845.772 1989.03 849.089C1988.76 849.098 1988.54 849.329 1988.55 849.605L1988.9 860.556C1988.91 860.832 1989.14 861.049 1989.41 861.04C1989.52 864.359 1989.62 867.678 1989.73 870.996C1989.45 871.005 1989.24 871.236 1989.25 871.512L1989.6 882.475C1989.6 882.751 1989.84 882.968 1990.11 882.959C1990.22 886.28 1990.32 889.599 1990.43 892.918C1990.15 892.927 1989.94 893.158 1989.94 893.434L1990.29 904.386C1990.3 904.662 1990.53 904.878 1990.81 904.87C1990.91 908.185 1991.02 911.5 1991.12 914.814C1990.85 914.823 1990.63 915.054 1990.64 915.33L1990.99 926.264C1991 926.54 1991.23 926.757 1991.5 926.748C1991.61 930.07 1991.71 933.39 1991.82 936.709C1991.54 936.718 1991.33 936.949 1991.33 937.225L1991.68 948.203C1991.69 948.479 1991.92 948.695 1992.2 948.687C1992.3 952.01 1992.41 955.332 1992.51 958.652C1992.24 958.661 1992.02 958.891 1992.03 959.167L1992.37 970.117C1992.38 970.393 1992.61 970.609 1992.89 970.601C1992.99 973.914 1993.1 977.225 1993.2 980.534C1992.93 980.543 1992.71 980.774 1992.72 981.05L1993.06 991.964C1993.07 992.24 1993.3 992.457 1993.58 992.448C1993.68 995.779 1993.79 999.106 1993.89 1002.43C1993.62 1002.44 1993.4 1002.67 1993.41 1002.95L1993.76 1013.94C1993.77 1014.21 1994 1014.43 1994.27 1014.42C1994.38 1017.75 1994.48 1021.07 1994.59 1024.39C1994.31 1024.4 1994.09 1024.63 1994.1 1024.9L1994.45 1035.84C1994.45 1036.12 1994.68 1036.34 1994.96 1036.33C1995.06 1039.64 1995.17 1042.94 1995.27 1046.25C1995 1046.25 1994.78 1046.49 1994.79 1046.76L1995.13 1057.65C1995.14 1057.93 1995.37 1058.14 1995.64 1058.14C1995.75 1061.48 1995.85 1064.83 1995.96 1068.16C1995.68 1068.17 1995.47 1068.4 1995.47 1068.68L1995.82 1079.67C1995.83 1079.95 1996.06 1080.17 1996.33 1080.16C1996.44 1083.48 1996.54 1086.8 1996.65 1090.12C1996.37 1090.13 1996.15 1090.36 1996.16 1090.64L1996.5 1101.56C1996.51 1101.84 1996.74 1102.06 1997.02 1102.05C1997.12 1105.35 1997.22 1108.65 1997.33 1111.94C1997.05 1111.95 1996.83 1112.18 1996.84 1112.46L1997.18 1123.39C1997.19 1123.67 1997.42 1123.88 1997.7 1123.87C1997.8 1127.23 1997.91 1130.57 1998.01 1133.91C1997.73 1133.92 1997.52 1134.15 1997.53 1134.42L1997.87 1145.42C1997.88 1145.69 1998.11 1145.91 1998.38 1145.9C1998.48 1149.22 1998.59 1152.54 1998.69 1155.85C1998.41 1155.86 1998.2 1156.09 1998.21 1156.36L1998.54 1167.27C1998.55 1167.54 1998.78 1167.76 1999.06 1167.75C1999.16 1171.04 1999.26 1174.33 1999.36 1177.61C1999.09 1177.62 1998.87 1177.85 1998.88 1178.12L1999.22 1189.15C1999.23 1189.43 1999.46 1189.65 1999.74 1189.64C1999.84 1192.99 1999.94 1196.33 2000.04 1199.67C1999.77 1199.68 1999.55 1199.91 1999.56 1200.18L1999.9 1211.16C1999.91 1211.43 2000.14 1211.65 2000.41 1211.64C2000.51 1214.95 2000.62 1218.26 2000.72 1221.56C2000.44 1221.57 2000.22 1221.8 2000.23 1222.07L2000.57 1232.93C2000.58 1233.21 2000.81 1233.42 2001.08 1233.42C2001.18 1236.74 2001.29 1240.05 2001.39 1243.35C2001.11 1243.36 2000.89 1243.59 2000.9 1243.87L2001.24 1254.94C2001.25 1255.22 2001.48 1255.43 2001.76 1255.42C2001.86 1258.77 2001.96 1262.1 2002.06 1265.42C2001.78 1265.43 2001.57 1265.66 2001.58 1265.94L2001.91 1276.87C2001.92 1277.15 2002.15 1277.36 2002.42 1277.36C2002.52 1280.65 2002.62 1283.94 2002.72 1287.21C2002.45 1287.22 2002.23 1287.45 2002.24 1287.73L2002.57 1298.59C2002.58 1298.86 2002.81 1299.08 2003.08 1299.07C2003.19 1302.45 2003.29 1305.82 2003.39 1309.18C2003.11 1309.19 2002.9 1309.42 2002.91 1309.7L2003.24 1320.72C2003.25 1321 2003.48 1321.21 2003.75 1321.21C2003.85 1324.53 2003.95 1327.84 2004.05 1331.15C2003.78 1331.15 2003.56 1331.38 2003.57 1331.66C2003.68 1335.29 2003.79 1338.91 2003.89 1342.51C2003.9 1342.79 2004.13 1343 2004.41 1342.99C2004.51 1346.28 2004.61 1349.56 2004.7 1352.82C2004.43 1352.83 2004.21 1353.06 2004.22 1353.34C2004.33 1357.07 2004.44 1360.78 2004.55 1364.47C2004.56 1364.75 2004.79 1364.97 2005.07 1364.96C2005.17 1368.32 2005.27 1371.66 2005.37 1374.99C2005.09 1375 2004.87 1375.23 2004.88 1375.51C2004.99 1379.17 2005.1 1382.81 2005.21 1386.44C2005.22 1386.71 2005.45 1386.93 2005.72 1386.92C2005.82 1390.21 2005.92 1393.48 2006.01 1396.74C2005.74 1396.75 2005.52 1396.98 2005.53 1397.26L2005.69 1402.83L2005.85 1408.14C2005.86 1408.41 2006.09 1408.63 2006.37 1408.62C2006.47 1412.02 2006.57 1415.41 2006.67 1418.77C2006.39 1418.78 2006.17 1419.01 2006.18 1419.28C2006.29 1422.98 2006.4 1426.65 2006.5 1430.3C2006.51 1430.58 2006.74 1430.79 2007.02 1430.79C2007.12 1434.1 2007.21 1437.39 2007.31 1440.67C2007.03 1440.68 2006.82 1440.91 2006.82 1441.19C2006.93 1444.79 2007.03 1448.38 2007.14 1451.94C2007.15 1452.21 2007.38 1452.43 2007.65 1452.42C2007.75 1455.8 2007.85 1459.16 2007.95 1462.5C2007.67 1462.51 2007.45 1462.74 2007.46 1463.01C2007.57 1466.74 2007.68 1470.45 2007.78 1474.12C2007.79 1474.4 2008.02 1474.61 2008.3 1474.61C2008.39 1477.94 2008.49 1481.26 2008.58 1484.55C2008.31 1484.56 2008.09 1484.79 2008.1 1485.06C2008.2 1488.69 2008.31 1492.28 2008.41 1495.84C2008.42 1496.12 2008.65 1496.34 2008.92 1496.33C2009.02 1499.66 2009.11 1502.96 2009.2 1506.24C2008.93 1506.25 2008.71 1506.48 2008.72 1506.75L2008.86 1511.85L2009.04 1517.93C2009.04 1518.21 2009.27 1518.43 2009.55 1518.42C2009.65 1521.77 2009.74 1525.1 2009.83 1528.4C2009.56 1528.41 2009.34 1528.64 2009.35 1528.91C2009.45 1532.54 2009.55 1536.13 2009.65 1539.68C2009.66 1539.96 2009.89 1540.18 2010.16 1540.17C2010.26 1543.5 2010.35 1546.79 2010.44 1550.06C2010.16 1550.06 2009.95 1550.29 2009.95 1550.57C2010.06 1554.35 2010.16 1558.09 2010.26 1561.78C2010.27 1562.06 2010.5 1562.28 2010.78 1562.27C2010.87 1565.62 2010.96 1568.94 2011.05 1572.22C2010.77 1572.23 2010.56 1572.46 2010.56 1572.73L2010.73 1578.84L2010.86 1583.42C2010.86 1583.69 2011.09 1583.91 2011.37 1583.91C2011.46 1587.31 2011.55 1590.68 2011.64 1594C2011.37 1594.01 2011.15 1594.24 2011.16 1594.52C2011.26 1598.29 2011.36 1602 2011.45 1605.65C2011.46 1605.93 2011.69 1606.15 2011.97 1606.14C2012.05 1609.45 2012.14 1612.72 2012.22 1615.93C2011.95 1615.94 2011.73 1616.17 2011.74 1616.45C2011.83 1620.11 2011.93 1623.71 2012.02 1627.25C2012.02 1627.52 2012.25 1627.74 2012.53 1627.73C2012.62 1631.22 2012.71 1634.65 2012.79 1638.02C2012.52 1638.03 2012.3 1638.26 2012.31 1638.53C2012.4 1642.22 2012.49 1645.82 2012.58 1649.35C2012.58 1649.63 2012.81 1649.85 2013.09 1649.84C2013.17 1653.17 2013.25 1656.44 2013.33 1659.63C2013.05 1659.63 2012.84 1659.86 2012.84 1660.14C2012.94 1664.01 2013.03 1667.78 2013.11 1671.43C2013.12 1671.71 2013.35 1671.93 2013.62 1671.92C2013.7 1675.22 2013.78 1678.44 2013.85 1681.56C2013.57 1681.56 2013.35 1681.79 2013.36 1682.07C2013.45 1685.95 2013.53 1689.69 2013.61 1693.29C2013.61 1693.56 2013.84 1693.78 2014.12 1693.78C2014.19 1697.2 2014.26 1700.49 2014.32 1703.64C2014.05 1703.65 2013.83 1703.88 2013.83 1704.15C2013.91 1708.05 2013.98 1711.74 2014.05 1715.2C2014.05 1715.47 2014.28 1715.69 2014.55 1715.69C2014.62 1719.16 2014.67 1722.41 2014.72 1725.42C2014.44 1725.43 2014.22 1725.65 2014.22 1725.93C2014.29 1730.17 2014.33 1733.94 2014.36 1737.22C2014.37 1737.5 2014.59 1737.72 2014.87 1737.72C2014.9 1741.85 2014.91 1745.18 2014.88 1747.67C2014.61 1747.66 2014.38 1747.88 2014.38 1748.16C2014.35 1749.83 2014.32 1751.06 2014.27 1751.86C2014.26 1751.93 2014.26 1752 2014.25 1752.06C2014.22 1752.03 2014.18 1752 2014.15 1751.97C2013.4 1751.32 2012.3 1750.37 2010.89 1749.06C2010.68 1748.87 2010.37 1748.88 2010.18 1749.09C2008.31 1747.35 2005.96 1745.06 2003.25 1742.18C2003.45 1741.99 2003.46 1741.67 2003.28 1741.47C2001.11 1739.15 1998.73 1736.46 1996.19 1733.37C1996.02 1733.16 1995.7 1733.13 1995.49 1733.3C1993.56 1730.94 1991.55 1728.36 1989.49 1725.55C1989.71 1725.39 1989.76 1725.07 1989.59 1724.85C1987.6 1722.12 1985.55 1719.16 1983.47 1715.99C1983.32 1715.76 1983.01 1715.69 1982.78 1715.84C1981.07 1713.22 1979.35 1710.44 1977.63 1707.51C1977.87 1707.37 1977.95 1707.07 1977.81 1706.83C1976.06 1703.85 1974.31 1700.7 1972.58 1697.39C1972.45 1697.15 1972.15 1697.05 1971.9 1697.18C1970.44 1694.38 1968.99 1691.45 1967.55 1688.41C1967.8 1688.3 1967.91 1688 1967.79 1687.75C1966.31 1684.59 1964.85 1681.31 1963.42 1677.89C1963.31 1677.63 1963.02 1677.51 1962.76 1677.62C1961.54 1674.69 1960.34 1671.65 1959.17 1668.52C1959.43 1668.43 1959.56 1668.14 1959.46 1667.88C1958.24 1664.59 1957.04 1661.2 1955.89 1657.69C1955.8 1657.43 1955.52 1657.29 1955.26 1657.37C1954.26 1654.33 1953.3 1651.21 1952.37 1648C1952.63 1647.93 1952.79 1647.65 1952.71 1647.38C1951.74 1644.01 1950.8 1640.55 1949.91 1636.99C1949.84 1636.73 1949.57 1636.56 1949.3 1636.63C1948.53 1633.52 1947.79 1630.35 1947.08 1627.1C1947.35 1627.04 1947.52 1626.77 1947.46 1626.5C1946.72 1623.06 1946.02 1619.53 1945.37 1615.93C1945.32 1615.66 1945.06 1615.48 1944.78 1615.53C1944.21 1612.37 1943.68 1609.15 1943.18 1605.86C1943.45 1605.82 1943.64 1605.57 1943.6 1605.29C1943.08 1601.8 1942.59 1598.24 1942.16 1594.61C1942.12 1594.33 1941.88 1594.14 1941.6 1594.17C1941.22 1590.98 1940.88 1587.73 1940.57 1584.43C1940.84 1584.4 1941.05 1584.16 1941.02 1583.88C1940.86 1582.09 1940.7 1580.29 1940.56 1578.46C1940.42 1576.65 1940.27 1574.85 1940.12 1573.06C1940.09 1572.78 1939.85 1572.58 1939.57 1572.61C1939.28 1569.33 1938.97 1566.09 1938.62 1562.87C1938.9 1562.84 1939.1 1562.6 1939.07 1562.32C1938.68 1558.72 1938.26 1555.15 1937.81 1551.61C1937.77 1551.33 1937.52 1551.14 1937.25 1551.17C1936.83 1547.92 1936.38 1544.69 1935.91 1541.49C1936.18 1541.45 1936.37 1541.19 1936.33 1540.92C1935.79 1537.34 1935.22 1533.79 1934.62 1530.27C1934.58 1529.99 1934.32 1529.81 1934.04 1529.86C1933.49 1526.63 1932.91 1523.42 1932.29 1520.23C1932.57 1520.18 1932.74 1519.92 1932.69 1519.65C1932.01 1516.1 1931.29 1512.58 1930.53 1509.08C1930.47 1508.81 1930.21 1508.64 1929.94 1508.69C1929.25 1505.49 1928.52 1502.32 1927.77 1499.16C1928.04 1499.09 1928.21 1498.82 1928.15 1498.55C1927.31 1495.04 1926.44 1491.55 1925.53 1488.08C1925.46 1487.82 1925.19 1487.66 1924.92 1487.73C1924.09 1484.57 1923.23 1481.42 1922.35 1478.29C1922.61 1478.22 1922.77 1477.94 1922.69 1477.67C1921.71 1474.21 1920.69 1470.76 1919.63 1467.33C1919.55 1467.06 1919.27 1466.92 1919.01 1467C1918.05 1463.88 1917.06 1460.77 1916.04 1457.68C1916.3 1457.59 1916.45 1457.31 1916.36 1457.05C1915.23 1453.63 1914.07 1450.22 1912.88 1446.83C1912.79 1446.57 1912.5 1446.44 1912.24 1446.53C1911.16 1443.45 1910.05 1440.39 1908.91 1437.33C1909.17 1437.24 1909.3 1436.95 1909.2 1436.69C1907.94 1433.32 1906.65 1429.97 1905.33 1426.62C1905.23 1426.36 1904.94 1426.24 1904.68 1426.34C1903.49 1423.31 1902.26 1420.29 1901.01 1417.27C1901.27 1417.17 1901.39 1416.87 1901.28 1416.62C1899.91 1413.3 1898.5 1409.99 1897.07 1406.69C1896.96 1406.43 1896.66 1406.32 1896.41 1406.43C1895.11 1403.44 1893.79 1400.46 1892.44 1397.48C1892.7 1397.37 1892.81 1397.07 1892.69 1396.82C1891.21 1393.56 1889.71 1390.29 1888.17 1387.03C1888.06 1386.78 1887.76 1386.67 1887.51 1386.79C1886.12 1383.85 1884.72 1380.91 1883.29 1377.96C1883.54 1377.84 1883.64 1377.54 1883.52 1377.29C1881.96 1374.07 1880.36 1370.85 1878.75 1367.62C1878.62 1367.37 1878.32 1367.27 1878.08 1367.4C1876.62 1364.5 1875.14 1361.59 1873.65 1358.68C1873.89 1358.55 1873.99 1358.25 1873.86 1358C1872.23 1354.82 1870.57 1351.64 1868.88 1348.44C1868.75 1348.19 1868.45 1348.1 1868.21 1348.23C1866.69 1345.36 1865.16 1342.48 1863.61 1339.6C1863.85 1339.47 1863.94 1339.16 1863.81 1338.92C1862.12 1335.77 1860.4 1332.61 1858.66 1329.44C1858.53 1329.2 1858.22 1329.11 1857.98 1329.24C1856.42 1326.4 1854.85 1323.55 1853.25 1320.68C1853.49 1320.55 1853.58 1320.24 1853.44 1320C1851.71 1316.88 1849.95 1313.75 1848.17 1310.6C1848.04 1310.36 1847.73 1310.27 1847.49 1310.41C1845.9 1307.58 1844.29 1304.75 1842.66 1301.9C1842.9 1301.77 1842.99 1301.46 1842.85 1301.22C1841.08 1298.12 1839.29 1295 1837.49 1291.87C1837.35 1291.63 1837.05 1291.55 1836.81 1291.69C1835.19 1288.88 1833.56 1286.06 1831.91 1283.22C1832.15 1283.08 1832.23 1282.78 1832.1 1282.54C1830.3 1279.45 1828.5 1276.35 1826.67 1273.22C1826.54 1272.99 1826.23 1272.9 1825.99 1273.04C1824.36 1270.25 1822.71 1267.43 1821.05 1264.6C1821.29 1264.46 1821.37 1264.16 1821.23 1263.92C1820.32 1262.37 1819.41 1260.81 1818.49 1259.25C1817.56 1257.65 1816.62 1256.05 1815.68 1254.44C1815.54 1254.21 1815.24 1254.13 1815 1254.27C1813.29 1251.35 1811.59 1248.42 1809.88 1245.48C1810.12 1245.35 1810.2 1245.04 1810.06 1244.8C1808.2 1241.59 1806.33 1238.37 1804.47 1235.14C1804.33 1234.9 1804.02 1234.82 1803.78 1234.96C1802.1 1232.03 1800.41 1229.09 1798.72 1226.14C1798.96 1226.01 1799.04 1225.7 1798.91 1225.46C1797.06 1222.24 1795.22 1219 1793.38 1215.76C1793.25 1215.52 1792.94 1215.44 1792.7 1215.57C1791.03 1212.63 1789.37 1209.68 1787.71 1206.72C1787.95 1206.59 1788.03 1206.28 1787.9 1206.04C1786.08 1202.8 1784.27 1199.55 1782.46 1196.3C1782.32 1196.06 1782.02 1195.97 1781.78 1196.1C1780.14 1193.14 1778.5 1190.18 1776.87 1187.21C1777.11 1187.08 1777.2 1186.77 1777.06 1186.53C1775.27 1183.27 1773.49 1180 1771.72 1176.73C1771.59 1176.49 1771.28 1176.4 1771.04 1176.53C1769.43 1173.55 1767.82 1170.57 1766.22 1167.58C1766.47 1167.45 1766.56 1167.15 1766.43 1166.91C1764.67 1163.62 1762.93 1160.33 1761.2 1157.05C1761.07 1156.8 1760.76 1156.71 1760.52 1156.84C1758.94 1153.84 1757.37 1150.83 1755.81 1147.83C1756.06 1147.71 1756.15 1147.4 1756.03 1147.16C1754.31 1143.85 1752.61 1140.54 1750.93 1137.24C1750.8 1136.99 1750.5 1136.89 1750.26 1137.02C1748.72 1133.99 1747.19 1130.97 1745.68 1127.95C1745.93 1127.82 1746.03 1127.52 1745.91 1127.28C1744.24 1123.94 1742.59 1120.6 1740.96 1117.27C1740.84 1117.03 1740.54 1116.92 1740.29 1117.04C1738.8 1113.99 1737.32 1110.94 1735.87 1107.89C1736.12 1107.77 1736.22 1107.47 1736.1 1107.23C1734.49 1103.85 1732.9 1100.49 1731.34 1097.13C1731.23 1096.88 1730.93 1096.77 1730.68 1096.89C1729.24 1093.8 1727.83 1090.72 1726.44 1087.65C1726.69 1087.54 1726.8 1087.24 1726.69 1086.99C1725.14 1083.58 1723.63 1080.18 1722.15 1076.8C1722.03 1076.54 1721.74 1076.43 1721.49 1076.54C1720.12 1073.41 1718.78 1070.3 1717.47 1067.2C1717.72 1067.1 1717.84 1066.8 1717.73 1066.55C1716.27 1063.09 1714.85 1059.66 1713.46 1056.24C1713.35 1055.99 1713.06 1055.86 1712.81 1055.97C1711.52 1052.8 1710.27 1049.65 1709.06 1046.52C1709.31 1046.42 1709.44 1046.13 1709.34 1045.88C1707.98 1042.37 1706.67 1038.89 1705.4 1035.44C1705.3 1035.18 1705.01 1035.05 1704.76 1035.15C1703.58 1031.93 1702.44 1028.74 1701.34 1025.57C1701.6 1025.48 1701.74 1025.2 1701.65 1024.94C1700.42 1021.38 1699.25 1017.85 1698.13 1014.36C1698.04 1014.1 1697.76 1013.95 1697.5 1014.04C1696.45 1010.77 1695.46 1007.53 1694.52 1004.33C1694.78 1004.25 1694.93 1003.97 1694.85 1003.71C1693.79 1000.09 1692.8 996.514 1691.88 992.981C1691.81 992.714 1691.53 992.554 1691.27 992.624C1690.4 989.292 1689.59 986 1688.85 982.75C1689.12 982.689 1689.29 982.421 1689.23 982.152C1688.4 978.451 1687.64 974.805 1686.98 971.22C1686.93 970.949 1686.67 970.769 1686.4 970.819C1685.78 967.418 1685.24 964.071 1684.78 960.782C1685.06 960.744 1685.25 960.493 1685.21 960.219C1684.7 956.459 1684.3 952.776 1684.01 949.174C1683.99 948.899 1683.75 948.694 1683.48 948.715C1683.21 945.25 1683.05 941.861 1683.01 938.55C1683.29 938.547 1683.51 938.321 1683.51 938.046C1683.49 936.176 1683.51 934.332 1683.56 932.515C1683.62 930.616 1683.73 928.726 1683.9 926.848C1683.92 926.573 1683.72 926.331 1683.44 926.307C1683.76 922.844 1684.25 919.416 1684.9 916.021C1685.17 916.074 1685.43 915.897 1685.48 915.627C1686.21 911.922 1687.13 908.255 1688.23 904.624C1688.31 904.36 1688.16 904.081 1687.9 904.001C1688.91 900.708 1690.07 897.444 1691.37 894.207C1691.62 894.31 1691.91 894.186 1692.02 893.93C1693.42 890.452 1694.99 887.004 1696.7 883.584C1696.82 883.337 1696.72 883.037 1696.47 882.914C1698.02 879.848 1699.68 876.806 1701.44 873.783C1701.68 873.923 1701.98 873.843 1702.12 873.605C1704.02 870.375 1706.04 867.169 1708.17 863.982C1708.32 863.752 1708.26 863.442 1708.03 863.289C1709.94 860.436 1711.94 857.601 1714.02 854.78C1714.24 854.944 1714.56 854.897 1714.72 854.675C1716.95 851.662 1719.27 848.666 1721.67 845.683C1721.84 845.468 1721.81 845.153 1721.59 844.98C1723.75 842.306 1725.97 839.643 1728.25 836.99C1728.46 837.17 1728.78 837.146 1728.96 836.937C1731.41 834.084 1733.93 831.242 1736.51 828.409C1736.69 828.205 1736.68 827.889 1736.47 827.703C1738.79 825.161 1741.15 822.626 1743.55 820.097C1743.75 820.288 1744.07 820.28 1744.26 820.079C1746.86 817.345 1749.5 814.617 1752.18 811.894C1752.37 811.697 1752.37 811.381 1752.17 811.187C1754.59 808.728 1757.04 806.273 1759.52 803.821C1759.71 804.017 1760.03 804.018 1760.22 803.824C1762.91 801.161 1765.62 798.502 1768.35 795.844C1768.55 795.651 1768.56 795.334 1768.36 795.136C1770.84 792.726 1773.33 790.318 1775.83 787.909C1776.03 788.107 1776.34 788.113 1776.54 787.922C1779.27 785.291 1782.02 782.66 1784.76 780.026C1784.96 779.835 1784.97 779.519 1784.78 779.319C1787.28 776.921 1789.78 774.52 1792.28 772.117C1792.47 772.316 1792.78 772.322 1792.98 772.13C1795.72 769.494 1798.46 766.853 1801.18 764.207C1801.38 764.014 1801.38 763.698 1801.19 763.5C1803.68 761.078 1806.15 758.652 1808.62 756.22C1808.81 756.417 1809.13 756.418 1809.32 756.224C1812.03 753.543 1814.72 750.855 1817.38 748.157C1817.58 747.96 1817.58 747.644 1817.38 747.45C1819.82 744.972 1822.24 742.487 1824.62 739.993C1824.82 740.184 1825.14 740.177 1825.33 739.977C1827.97 737.214 1830.57 734.44 1833.12 731.653C1833.31 731.449 1833.3 731.133 1833.09 730.946C1833.09 730.946 1833.09 730.946 1833.09 730.946C1835.45 728.373 1837.76 725.788 1840.03 723.191C1840.03 723.192 1840.03 723.192 1840.03 723.192C1840.24 723.373 1840.55 723.351 1840.74 723.143C1841.99 721.707 1843.22 720.267 1844.45 718.823C1845.62 717.434 1846.76 716.03 1847.87 714.611C1848.04 714.393 1848 714.079 1847.78 713.909C1847.78 713.909 1847.78 713.908 1847.78 713.908C1849.79 711.312 1851.7 708.666 1853.49 705.976C1853.49 705.976 1853.49 705.977 1853.49 705.977C1853.72 706.129 1854.03 706.066 1854.19 705.836C1856.19 702.809 1858.06 699.727 1859.81 696.596C1859.95 696.355 1859.86 696.051 1859.62 695.916C1859.62 695.916 1859.62 695.916 1859.62 695.916C1861.21 693.051 1862.69 690.145 1864.08 687.205C1864.08 687.205 1864.08 687.205 1864.08 687.205C1864.33 687.322 1864.62 687.214 1864.74 686.964C1866.27 683.687 1867.68 680.368 1868.98 677.014C1869.08 676.756 1868.95 676.467 1868.69 676.367C1868.69 676.367 1868.69 676.367 1868.69 676.367C1869.86 673.317 1870.93 670.238 1871.92 667.135C1871.92 667.135 1871.92 667.136 1871.92 667.136C1872.19 667.219 1872.47 667.072 1872.55 666.809C1873.64 663.367 1874.62 659.896 1875.5 656.405C1875.56 656.137 1875.4 655.865 1875.13 655.798C1875.13 655.797 1875.13 655.797 1875.13 655.797C1875.92 652.63 1876.63 649.446 1877.27 646.249C1877.27 646.249 1877.27 646.25 1877.27 646.25C1877.54 646.303 1877.8 646.126 1877.86 645.855C1878.55 642.316 1879.16 638.762 1879.68 635.203C1879.72 634.93 1879.53 634.676 1879.25 634.636C1879.25 634.636 1879.25 634.636 1879.25 634.636C1879.72 631.402 1880.12 628.163 1880.46 624.924C1880.46 624.924 1880.46 624.924 1880.46 624.924C1880.73 624.952 1880.98 624.753 1881.01 624.478C1881.37 620.884 1881.66 617.291 1881.89 613.708C1881.91 613.433 1881.7 613.195 1881.42 613.178C1881.42 613.178 1881.42 613.178 1881.42 613.178C1881.62 609.911 1881.76 606.652 1881.86 603.407C1881.86 603.407 1881.86 603.407 1881.86 603.407C1882.14 603.414 1882.37 603.197 1882.37 602.921C1882.47 599.299 1882.51 595.696 1882.5 592.118C1882.5 591.842 1882.27 591.619 1882 591.62C1882 591.62 1882 591.62 1882 591.62C1881.98 588.333 1881.92 585.068 1881.83 581.832C1881.83 581.832 1881.83 581.832 1881.83 581.832C1882.1 581.824 1882.32 581.593 1882.31 581.317C1882.2 577.686 1882.04 574.092 1881.85 570.543C1881.83 570.267 1881.6 570.056 1881.32 570.071C1881.32 570.071 1881.32 570.071 1881.32 570.071C1881.14 566.769 1880.92 563.506 1880.69 560.29C1880.96 560.269 1881.17 560.029 1881.15 559.754C1880.88 556.107 1880.58 552.522 1880.26 549.008C1880.24 548.733 1879.99 548.53 1879.72 548.555C1879.42 545.236 1879.1 541.981 1878.78 538.8C1879.05 538.772 1879.25 538.527 1879.22 538.252C1878.85 534.581 1878.47 531.009 1878.1 527.551C1878.07 527.277 1877.83 527.078 1877.55 527.107C1877.49 526.549 1877.43 525.994 1877.38 525.442C1877.08 522.665 1876.79 519.965 1876.52 517.349C1876.79 517.321 1876.99 517.075 1876.96 516.8C1876.57 513.035 1876.22 509.449 1875.92 506.065C1875.9 505.79 1875.66 505.586 1875.38 505.61C1875.08 502.136 1874.85 498.877 1874.71 495.856C1874.99 495.844 1875.2 495.611 1875.19 495.335C1875.11 493.458 1875.06 491.678 1875.06 490C1875.06 488.312 1875.02 486.577 1874.94 484.796C1874.93 484.52 1874.69 484.306 1874.42 484.319C1874.42 484.319 1874.42 484.319 1874.42 484.319C1874.27 481.323 1874.02 478.198 1873.68 474.955C1873.68 474.955 1873.68 474.955 1873.68 474.955C1873.95 474.925 1874.15 474.679 1874.12 474.404C1873.77 471.075 1873.32 467.624 1872.81 464.067C1872.77 463.794 1872.51 463.604 1872.24 463.644C1872.24 463.644 1872.24 463.644 1872.24 463.644C1871.8 460.623 1871.31 457.524 1870.78 454.355C1870.78 454.355 1870.78 454.355 1870.79 454.355C1871.06 454.31 1871.24 454.052 1871.2 453.78C1870.64 450.434 1870.04 447.012 1869.43 443.524C1869.38 443.252 1869.12 443.07 1868.85 443.119C1868.34 440.255 1867.81 437.346 1867.28 434.397C1867.25 434.219 1867.22 434.04 1867.19 433.861C1867.46 433.812 1867.64 433.552 1867.59 433.28C1866.98 429.913 1866.37 426.496 1865.76 423.037C1865.71 422.765 1865.45 422.583 1865.18 422.631C1864.64 419.577 1864.11 416.489 1863.59 413.374C1863.86 413.328 1864.04 413.07 1864 412.798C1863.43 409.407 1862.88 405.983 1862.35 402.534C1862.31 402.261 1862.06 402.074 1861.78 402.115C1861.32 399.031 1860.87 395.926 1860.45 392.805C1860.72 392.769 1860.92 392.517 1860.88 392.244C1860.42 388.823 1860 385.384 1859.63 381.934C1859.6 381.659 1859.35 381.461 1859.08 381.491C1858.74 378.379 1858.44 375.258 1858.19 372.131C1858.46 372.109 1858.67 371.868 1858.65 371.593C1858.37 368.142 1858.15 364.686 1857.99 361.231C1857.98 360.955 1857.75 360.742 1857.47 360.754C1857.33 357.619 1857.25 354.485 1857.23 351.356C1857.5 351.354 1857.73 351.129 1857.72 350.853C1857.71 347.386 1857.76 343.926 1857.9 340.479C1857.91 340.203 1857.7 339.971 1857.42 339.959C1857.56 336.82 1857.77 333.693 1858.05 330.581C1858.33 330.606 1858.57 330.405 1858.6 330.13C1858.92 326.677 1859.34 323.245 1859.87 319.84C1859.92 319.567 1859.73 319.312 1859.46 319.269Z" stroke="black" stroke-linecap="round" stroke-dasharray="11 11"/>
<g filter="url(#filter3_f_255_5965)">
<circle cx="1934" cy="1774" r="200" fill="#0BC8A4" fill-opacity="0.48"/>
</g>
<path d="M156 648C152 556.8 25 501.333 -38 485V915.5C1.16667 912.833 85 903.5 107 887.5C134.5 867.5 161 762 156 648Z" fill="#232424"/>
<path opacity="0.7" d="M86.5 1562C28.5 1326 -25.6667 1280.67 -45.5 1287.5L-79 1300.5V3070.5H190C174.5 2993.67 143.5 2836.9 143.5 2824.5C143.5 2809 177.5 2749.5 172 2679.5C166.5 2609.5 143.5 2555.5 143.5 2459.5C143.5 2363.5 208.5 2268.5 242 2211.5C275.5 2154.5 255 2058.5 208.5 1973.5C162 1888.5 159 1857 86.5 1562Z" fill="#232424" stroke="#AFF6DD"/>
<circle opacity="0.5" cx="196.5" cy="1748.5" r="28.5" transform="rotate(-180 196.5 1748.5)" fill="#C8EBE1"/>
<circle opacity="0.5" cx="69.5" cy="1205.5" r="11.5" transform="rotate(-180 69.5 1205.5)" fill="#C8EBE1"/>
<circle cx="237.629" cy="400" r="9" transform="rotate(-180 237.629 400)" fill="#318265"/>
<g opacity="0.6">
<path d="M136.974 1045.4C132.57 1053.03 135.184 1062.78 142.811 1067.19C150.439 1071.59 160.193 1068.98 164.597 1061.35L193.956 1010.5L166.333 994.551L136.974 1045.4Z" fill="#72E8BD"/>
<rect width="2.89966" height="25.372" rx="1.44983" transform="matrix(0.866025 0.5 0.5 -0.866025 164.521 997.69)" fill="#72E8BD"/>
<rect width="2.89966" height="47.1194" rx="1.44983" transform="matrix(0.866025 0.5 0.5 -0.866025 163.744 1010.63)" fill="#72E8BD"/>
<rect width="2.89966" height="28.2717" rx="1.44983" transform="matrix(0.866025 0.5 0.5 -0.866025 163.33 1022.95)" fill="#72E8BD"/>
<rect width="2.89966" height="8.69897" rx="1.44983" transform="matrix(0.866025 0.5 0.5 -0.866025 178.916 995.956)" fill="#72E8BD"/>
<rect width="2.89966" height="28.9966" rx="1.44983" transform="matrix(0.866025 0.5 0.5 -0.866025 184.715 985.911)" fill="#72E8BD"/>
<rect width="2.89966" height="5.79931" rx="1.44983" transform="matrix(0.866025 0.5 0.5 -0.866025 192.637 983.788)" fill="#72E8BD"/>
<rect width="2.89966" height="28.9966" rx="1.44983" transform="matrix(0.866025 0.5 0.5 -0.866025 176.688 1011.41)" fill="#72E8BD"/>
<rect width="2.89966" height="26.0969" rx="1.44983" transform="matrix(0.866025 0.5 0.5 -0.866025 184.248 1009.92)" fill="#72E8BD"/>
<rect width="2.89966" height="13.7734" rx="1.44983" transform="matrix(0.866025 0.5 0.5 -0.866025 198.383 985.432)" fill="#72E8BD"/>
<rect width="2.89966" height="7.24914" rx="1.44983" transform="matrix(0.866025 0.5 0.5 -0.866025 198.332 997.121)" fill="#72E8BD"/>
<rect width="2.89966" height="19.5727" rx="1.44983" transform="matrix(0.866025 0.5 0.5 -0.866025 187.82 1015.33)" fill="#72E8BD"/>
<rect width="2.89966" height="45.6696" rx="1.44983" transform="matrix(0.866025 0.5 0.5 -0.866025 161.957 1007.93)" fill="white"/>
<rect width="2.89966" height="39.8703" rx="1.44983" transform="matrix(0.866025 0.5 0.5 -0.866025 167.705 1009.57)" fill="white"/>
<rect width="2.89966" height="33.3461" rx="1.44983" transform="matrix(0.866025 0.5 0.5 -0.866025 164.029 1027.54)" fill="white"/>
<rect width="2.89966" height="20.2976" rx="1.44983" transform="matrix(0.866025 0.5 0.5 -0.866025 177.75 1015.37)" fill="white"/>
<rect width="2.89966" height="14.4983" rx="1.44983" transform="matrix(0.866025 0.5 0.5 -0.866025 187.121 1010.74)" fill="white"/>
<circle r="13.7734" transform="matrix(0.866025 0.5 0.5 -0.866025 151.149 1052.75)" fill="url(#paint7_linear_255_5965)"/>
</g>
<circle cx="66.9738" cy="1490" r="30.0437" transform="rotate(28.3952 66.9738 1490)" fill="#99ECC4"/>
<path fill-rule="evenodd" clip-rule="evenodd" d="M94.709 1499.26C95.2545 1499.29 95.7885 1499.31 96.3106 1499.32C100.368 1499.42 103.653 1499.21 105.961 1498.7C107.117 1498.44 107.971 1498.12 108.543 1497.77C109.113 1497.42 109.31 1497.1 109.365 1496.86C109.42 1496.61 109.38 1496.24 109.017 1495.68C108.653 1495.11 108.021 1494.46 107.088 1493.73C105.227 1492.27 102.357 1490.66 98.6511 1489C91.2554 1485.69 80.7284 1482.29 68.8289 1479.59C56.9294 1476.89 45.9646 1475.42 37.8661 1475.22C33.8085 1475.11 30.5235 1475.33 28.2159 1475.84C27.0594 1476.1 26.206 1476.42 25.634 1476.77C25.0641 1477.12 24.8667 1477.44 24.8117 1477.68C24.7567 1477.92 24.7965 1478.3 25.1597 1478.86C25.5241 1479.42 26.1562 1480.08 27.0887 1480.81C28.9493 1482.27 31.8202 1483.88 35.5257 1485.54C35.9656 1485.73 36.4165 1485.93 36.8781 1486.13L36.7584 1487.16C28.289 1483.58 23.2563 1480.02 23.8365 1477.46C24.9199 1472.68 45.1626 1473.2 69.05 1478.62C92.9374 1484.03 111.424 1492.3 110.34 1497.08C109.758 1499.64 103.644 1500.68 94.4056 1500.25L94.709 1499.26Z" fill="#318265"/>
<g filter="url(#filter4_f_255_5965)">
<circle cx="199" cy="-97" r="265" fill="#0BC8A4" fill-opacity="0.34"/>
</g>
<g filter="url(#filter5_f_255_5965)">
<circle cx="142" cy="2755" r="324" fill="#0BC8A4" fill-opacity="0.15"/>
</g>
<g filter="url(#filter6_f_255_5965)">
<circle cx="-28" cy="2413" r="170" fill="#0B6DC8" fill-opacity="0.24"/>
</g>
<circle opacity="0.1" cx="-63.5" cy="35.5" r="206" stroke="black" stroke-linecap="round" stroke-dasharray="11 11"/>
<circle opacity="0.2" cx="524" cy="1834" r="25.5" transform="rotate(-180 524 1834)" stroke="#41A380" stroke-width="5"/>
<g filter="url(#filter7_f_255_5965)">
<circle cx="10" cy="1072" r="189" fill="#0BC8A4" fill-opacity="0.44"/>
</g>
<circle opacity="0.1" cy="2887" r="244.5" stroke="black" stroke-linecap="round" stroke-dasharray="11 11"/>
<circle cx="178" cy="2100" r="17" fill="#A6E4D5"/>
<ellipse cx="151.5" cy="2195" rx="5.5" ry="6" fill="#A6E4D5"/>
<circle cx="196" cy="2163" r="12" fill="#A6E4D5"/>
<defs>
<filter id="filter0_d_255_5965" x="1706" y="1356" width="163" height="111.258" filterUnits="userSpaceOnUse" color-interpolation-filters="sRGB">
<feFlood flood-opacity="0" result="BackgroundImageFix"/>
<feColorMatrix in="SourceAlpha" type="matrix" values="0 0 0 0 0 0 0 0 0 0 0 0 0 0 0 0 0 0 127 0" result="hardAlpha"/>
<feOffset dy="15"/>
<feGaussianBlur stdDeviation="10"/>
<feComposite in2="hardAlpha" operator="out"/>
<feColorMatrix type="matrix" values="0 0 0 0 0.0666667 0 0 0 0 0.329412 0 0 0 0 0.270588 0 0 0 1 0"/>
<feBlend mode="normal" in2="BackgroundImageFix" result="effect1_dropShadow_255_5965"/>
<feBlend mode="normal" in="SourceGraphic" in2="effect1_dropShadow_255_5965" result="shape"/>
</filter>
<filter id="filter1_f_255_5965" x="1724.78" y="1374.49" width="126.225" height="49.8407" filterUnits="userSpaceOnUse" color-interpolation-filters="sRGB">
<feFlood flood-opacity="0" result="BackgroundImageFix"/>
<feBlend mode="normal" in="SourceGraphic" in2="BackgroundImageFix" result="shape"/>
<feGaussianBlur stdDeviation="1" result="effect1_foregroundBlur_255_5965"/>
</filter>
<filter id="filter2_f_255_5965" x="1530" y="-475" width="951" height="951" filterUnits="userSpaceOnUse" color-interpolation-filters="sRGB">
<feFlood flood-opacity="0" result="BackgroundImageFix"/>
<feBlend mode="normal" in="SourceGraphic" in2="BackgroundImageFix" result="shape"/>
<feGaussianBlur stdDeviation="147.5" result="effect1_foregroundBlur_255_5965"/>
</filter>
<filter id="filter3_f_255_5965" x="1052" y="892" width="1764" height="1764" filterUnits="userSpaceOnUse" color-interpolation-filters="sRGB">
<feFlood flood-opacity="0" result="BackgroundImageFix"/>
<feBlend mode="normal" in="SourceGraphic" in2="BackgroundImageFix" result="shape"/>
<feGaussianBlur stdDeviation="341" result="effect1_foregroundBlur_255_5965"/>
</filter>
<filter id="filter4_f_255_5965" x="-748" y="-1044" width="1894" height="1894" filterUnits="userSpaceOnUse" color-interpolation-filters="sRGB">
<feFlood flood-opacity="0" result="BackgroundImageFix"/>
<feBlend mode="normal" in="SourceGraphic" in2="BackgroundImageFix" result="shape"/>
<feGaussianBlur stdDeviation="341" result="effect1_foregroundBlur_255_5965"/>
</filter>
<filter id="filter5_f_255_5965" x="-864" y="1749" width="2012" height="2012" filterUnits="userSpaceOnUse" color-interpolation-filters="sRGB">
<feFlood flood-opacity="0" result="BackgroundImageFix"/>
<feBlend mode="normal" in="SourceGraphic" in2="BackgroundImageFix" result="shape"/>
<feGaussianBlur stdDeviation="341" result="effect1_foregroundBlur_255_5965"/>
</filter>
<filter id="filter6_f_255_5965" x="-824" y="1617" width="1592" height="1592" filterUnits="userSpaceOnUse" color-interpolation-filters="sRGB">
<feFlood flood-opacity="0" result="BackgroundImageFix"/>
<feBlend mode="normal" in="SourceGraphic" in2="BackgroundImageFix" result="shape"/>
<feGaussianBlur stdDeviation="313" result="effect1_foregroundBlur_255_5965"/>
</filter>
<filter id="filter7_f_255_5965" x="-861" y="201" width="1742" height="1742" filterUnits="userSpaceOnUse" color-interpolation-filters="sRGB">
<feFlood flood-opacity="0" result="BackgroundImageFix"/>
<feBlend mode="normal" in="SourceGraphic" in2="BackgroundImageFix" result="shape"/>
<feGaussianBlur stdDeviation="341" result="effect1_foregroundBlur_255_5965"/>
</filter>
<linearGradient id="paint0_linear_255_5965" x1="1.80154e-08" y1="5.68559" x2="14.3529" y2="5.79138" gradientUnits="userSpaceOnUse">
<stop stop-color="#41A380"/>
<stop offset="1" stop-color="#63D5AC"/>
</linearGradient>
<linearGradient id="paint1_linear_255_5965" x1="3.76686e-08" y1="11.3712" x2="30.0104" y2="11.6024" gradientUnits="userSpaceOnUse">
<stop stop-color="#41A380"/>
<stop offset="1" stop-color="#63D5AC"/>
</linearGradient>
<linearGradient id="paint2_linear_255_5965" x1="1753.7" y1="1387.33" x2="1820.18" y2="1387.82" gradientUnits="userSpaceOnUse">
<stop stop-color="#41A380"/>
<stop offset="1" stop-color="#63D5AC"/>
</linearGradient>
<linearGradient id="paint3_linear_255_5965" x1="1744.8" y1="1407.09" x2="1741.5" y2="1430.24" gradientUnits="userSpaceOnUse">
<stop stop-color="#41A380"/>
<stop offset="1" stop-color="#63D5AC"/>
</linearGradient>
<linearGradient id="paint4_linear_255_5965" x1="15.1972" y1="-1.06027" x2="12.1859" y2="20.0678" gradientUnits="userSpaceOnUse">
<stop stop-color="#41A380"/>
<stop offset="1" stop-color="#63D5AC"/>
</linearGradient>
<linearGradient id="paint5_linear_255_5965" x1="1474" y1="808.2" x2="1587.09" y2="809.026" gradientUnits="userSpaceOnUse">
<stop stop-color="#41A380"/>
<stop offset="1" stop-color="#63D5AC"/>
</linearGradient>
<linearGradient id="paint6_linear_255_5965" x1="1499" y1="716.2" x2="1521.22" y2="716.357" gradientUnits="userSpaceOnUse">
<stop stop-color="#41A380"/>
<stop offset="1" stop-color="#63D5AC"/>
</linearGradient>
<linearGradient id="paint7_linear_255_5965" x1="19.105" y1="-1.33291" x2="15.3194" y2="25.2279" gradientUnits="userSpaceOnUse">
<stop stop-color="#41A380"/>
<stop offset="1" stop-color="#63D5AC"/>
</linearGradient>
</defs>
</svg>
