<svg width="25" height="21" viewBox="0 0 25 21" fill="none" xmlns="http://www.w3.org/2000/svg">
<path d="M10.7619 0C5.13582 0 0.571289 4.56453 0.571289 10.1906C0.571289 15.8166 5.13582 20.3812 10.7619 20.3812C11.4541 20.3812 12.1264 20.2993 12.7787 20.1688C13.3736 20.275 14.0349 20.3812 14.7249 20.3812C20.3509 20.3812 24.9154 15.8166 24.9154 10.1906C24.9154 4.56453 20.3509 0 14.7249 0C14.0725 0 13.4179 0.0574999 12.7787 0.212304C12.1264 0.0818259 11.4541 0 10.7619 0ZM10.7619 1.13229C11.3523 1.13229 11.9207 1.18536 12.478 1.29151C12.5753 1.3468 12.6859 1.37113 12.7964 1.36228C16.8236 2.28448 19.8202 5.87595 19.8202 10.1906C19.8202 14.5163 16.8059 18.1099 12.7611 19.0189C12.6682 19.0211 12.5775 19.0454 12.4957 19.0896C11.9317 19.198 11.359 19.2489 10.7619 19.2489C5.74619 19.2489 1.70358 15.2063 1.70358 10.1906C1.70358 5.1749 5.74619 1.13229 10.7619 1.13229ZM15.5033 1.18536C20.1497 1.58343 23.7832 5.44028 23.7832 10.1906C23.7832 14.9409 20.1497 18.7977 15.5033 19.1958C18.7432 17.4885 20.9524 14.1071 20.9524 10.1906C20.9524 6.27402 18.7432 2.89264 15.5033 1.18536ZM10.1957 3.963V5.20144C9.28901 5.31423 7.64808 6.10815 7.64808 8.03216C7.64808 11.6546 12.9203 9.79029 12.9203 12.5082C12.9203 13.4149 12.5178 14.2597 10.7619 14.2597C9.00594 14.2597 8.49729 12.9085 8.49729 12.1721H7.36501C7.53529 14.6069 9.23372 15.1687 10.1957 15.3389V16.4181H11.328V15.3389C12.1772 15.2814 14.1587 14.6666 14.1587 12.4021C14.1587 10.5334 12.6239 10.0181 11.1511 9.67751C9.9613 9.39444 8.88652 9.11579 8.88652 7.926C8.88652 7.41736 9.11651 6.28065 10.8149 6.28065C12.0047 6.28065 12.5731 7.01929 12.7434 7.926H13.8757C13.5351 6.68093 12.9689 5.55528 11.328 5.27221V3.963H10.1957Z" fill="white"/>
</svg>
