<?xml version="1.0" encoding="utf-8"?>
<!-- Generator: Adobe Illustrator 24.0.1, SVG Export Plug-In . SVG Version: 6.00 Build 0)  -->
<svg version="1.1" id="Слой_1" xmlns="http://www.w3.org/2000/svg" xmlns:xlink="http://www.w3.org/1999/xlink" x="0px" y="0px"
	 viewBox="0 0 26 26" style="enable-background:new 0 0 26 26;" xml:space="preserve">
<style type="text/css">
	.st0{fill:#41A380;stroke:#41A380;stroke-width:0.5;}
	.st1{fill:#FFFFFF;}
</style>
<circle class="st0" cx="13" cy="13" r="12.8"/>
<path class="st1" d="M19.3,13.9c-0.2-0.1-0.4-0.1-0.5,0c-1,0.9-2.3,1.4-3.6,1.4c-3,0-5.4-2.4-5.4-5.4c0-1.3,0.5-2.6,1.4-3.6
	c0.1-0.1,0.1-0.3,0-0.5c-0.1-0.2-0.3-0.2-0.5-0.2c-3,0.9-5.2,3.7-5.2,6.8c0,3.9,3.2,7.1,7.1,7.1c3.2,0,6-2.1,6.8-5.2
	C19.5,14.2,19.5,14,19.3,13.9z"/>
<path class="st1" d="M12.3,11.1l1.1,0.6l0.5,1.1c0.1,0.2,0.2,0.3,0.4,0.3c0.2,0,0.3-0.1,0.4-0.3l0.6-1.1l1.1-0.6
	c0.2-0.1,0.3-0.2,0.3-0.4c0-0.2-0.1-0.3-0.3-0.4l-1.1-0.6l-0.6-1.1c-0.2-0.3-0.7-0.3-0.8,0l-0.5,1.1l-1.1,0.6
	c-0.2,0.1-0.3,0.2-0.3,0.4C12.1,10.8,12.2,11,12.3,11.1z"/>
<path class="st1" d="M17,7.7h0.3V8c0,0.2,0.1,0.3,0.3,0.3C17.8,8.4,18,8.2,18,8V7.7h0.3c0.2,0,0.3-0.1,0.3-0.3
	c0-0.2-0.1-0.3-0.3-0.3H18V6.8c0-0.2-0.1-0.3-0.3-0.3c-0.2,0-0.3,0.1-0.3,0.3v0.3H17c-0.2,0-0.3,0.1-0.3,0.3
	C16.7,7.6,16.9,7.7,17,7.7L17,7.7z"/>
</svg>
