<svg width="72" height="26" viewBox="0 0 72 26" fill="none" xmlns="http://www.w3.org/2000/svg">
<circle cx="13" cy="13" r="12.75" fill="#41A380" stroke="#41A380" stroke-width="0.5"/>
<path d="M19.3028 13.878C19.1443 13.7802 18.9398 13.7982 18.8026 13.9236C17.8034 14.8299 16.511 15.3292 15.1641 15.3292C12.1745 15.3292 9.74215 12.8968 9.74215 9.90713C9.74215 8.56005 10.2415 7.26771 11.1477 6.26856C11.2727 6.13083 11.2915 5.92679 11.1933 5.76835C11.0951 5.61032 10.9029 5.537 10.7253 5.58716C7.69046 6.44656 5.57129 9.25208 5.57129 12.4096C5.57129 16.3194 8.75196 19.5001 12.6616 19.5001C15.819 19.5001 18.6246 17.3809 19.4839 14.346C19.5348 14.1667 19.4608 13.9761 19.3028 13.878Z" fill="white"/>
<path d="M12.328 11.0855L13.4279 11.6374L13.9774 12.7423C14.0558 12.9003 14.2168 13 14.3927 13C14.5687 13 14.7291 12.9003 14.8081 12.7423L15.3581 11.6374L16.4576 11.0855C16.6149 11.0062 16.7141 10.845 16.7141 10.6683C16.7141 10.4916 16.6149 10.3303 16.4576 10.2511L15.3581 9.69904L14.8081 8.59423C14.6502 8.27816 14.1344 8.27816 13.9774 8.59423L13.4279 9.69904L12.328 10.2511C12.1707 10.3299 12.0713 10.4916 12.0713 10.6683C12.0713 10.845 12.1707 11.0067 12.328 11.0855Z" fill="white"/>
<path d="M17.0238 7.73807H17.3334V8.04761C17.3334 8.21866 17.4718 8.35714 17.6429 8.35714C17.8139 8.35714 17.9524 8.21866 17.9524 8.04761V7.73807H18.262C18.433 7.73807 18.5715 7.59966 18.5715 7.42853C18.5715 7.25748 18.433 7.11907 18.262 7.11907H17.9524V6.80954C17.9524 6.6384 17.8139 6.5 17.6429 6.5C17.4718 6.5 17.3334 6.6384 17.3334 6.80954V7.11907H17.0238C16.8528 7.11907 16.7144 7.25748 16.7144 7.42853C16.7144 7.59966 16.8528 7.73807 17.0238 7.73807V7.73807Z" fill="white"/>
<path d="M34.1539 12V2.9H37.8589C38.8295 2.9 39.6789 3.095 40.4069 3.485C41.1435 3.86633 41.7155 4.39933 42.1229 5.084C42.5302 5.76867 42.7339 6.55733 42.7339 7.45C42.7339 8.34267 42.5302 9.13133 42.1229 9.816C41.7155 10.5007 41.1435 11.038 40.4069 11.428C39.6789 11.8093 38.8295 12 37.8589 12H34.1539ZM35.1159 11.168H37.8069C38.6129 11.168 39.3105 11.012 39.8999 10.7C40.4979 10.3793 40.9615 9.94167 41.2909 9.387C41.6202 8.82367 41.7849 8.178 41.7849 7.45C41.7849 6.71333 41.6202 6.06767 41.2909 5.513C40.9615 4.95833 40.4979 4.525 39.8999 4.213C39.3105 3.89233 38.6129 3.732 37.8069 3.732H35.1159V11.168ZM48.9761 12V10.492L48.9371 10.245V7.723C48.9371 7.14233 48.7724 6.696 48.4431 6.384C48.1224 6.072 47.6414 5.916 47.0001 5.916C46.5581 5.916 46.1378 5.98967 45.7391 6.137C45.3404 6.28433 45.0024 6.47933 44.7251 6.722L44.3091 6.033C44.6558 5.73833 45.0718 5.513 45.5571 5.357C46.0424 5.19233 46.5538 5.11 47.0911 5.11C47.9751 5.11 48.6554 5.331 49.1321 5.773C49.6174 6.20633 49.8601 6.86933 49.8601 7.762V12H48.9761ZM46.6231 12.065C46.1118 12.065 45.6654 11.9827 45.2841 11.818C44.9114 11.6447 44.6254 11.4107 44.4261 11.116C44.2268 10.8127 44.1271 10.466 44.1271 10.076C44.1271 9.72067 44.2094 9.4 44.3741 9.114C44.5474 8.81933 44.8248 8.58533 45.2061 8.412C45.5961 8.23 46.1161 8.139 46.7661 8.139H49.1191V8.828H46.7921C46.1334 8.828 45.6741 8.945 45.4141 9.179C45.1628 9.413 45.0371 9.70333 45.0371 10.05C45.0371 10.44 45.1888 10.752 45.4921 10.986C45.7954 11.22 46.2201 11.337 46.7661 11.337C47.2861 11.337 47.7324 11.22 48.1051 10.986C48.4864 10.7433 48.7638 10.3967 48.9371 9.946L49.1451 10.583C48.9718 11.0337 48.6684 11.3933 48.2351 11.662C47.8104 11.9307 47.2731 12.065 46.6231 12.065ZM52.3671 12V5.175H53.2511V7.034L53.1601 6.709C53.3507 6.189 53.6714 5.79467 54.1221 5.526C54.5727 5.24867 55.1317 5.11 55.7991 5.11V6.007C55.7644 6.007 55.7297 6.007 55.6951 6.007C55.6604 5.99833 55.6257 5.994 55.5911 5.994C54.8717 5.994 54.3084 6.215 53.9011 6.657C53.4937 7.09033 53.2901 7.71 53.2901 8.516V12H52.3671ZM58.2113 10.232L58.2373 9.049L62.4883 5.175H63.6193L60.6163 8.048L60.0963 8.49L58.2113 10.232ZM57.4833 12V2.354H58.4063V12H57.4833ZM62.7743 12L59.9273 8.451L60.5253 7.736L63.9053 12H62.7743ZM42.4869 17.11C43.0415 17.11 43.5225 17.2183 43.9299 17.435C44.3459 17.643 44.6665 17.9637 44.8919 18.397C45.1259 18.8303 45.2429 19.3763 45.2429 20.035V24H44.3199V20.126C44.3199 19.4067 44.1465 18.865 43.7999 18.501C43.4619 18.1283 42.9809 17.942 42.3569 17.942C41.8889 17.942 41.4815 18.0417 41.1349 18.241C40.7969 18.4317 40.5325 18.7133 40.3419 19.086C40.1599 19.45 40.0689 19.892 40.0689 20.412V24H39.1459V20.126C39.1459 19.4067 38.9725 18.865 38.6259 18.501C38.2792 18.1283 37.7939 17.942 37.1699 17.942C36.7105 17.942 36.3075 18.0417 35.9609 18.241C35.6142 18.4317 35.3455 18.7133 35.1549 19.086C34.9729 19.45 34.8819 19.892 34.8819 20.412V24H33.9589V17.175H34.8429V19.021L34.6999 18.696C34.9079 18.202 35.2415 17.8163 35.7009 17.539C36.1689 17.253 36.7192 17.11 37.3519 17.11C38.0192 17.11 38.5869 17.279 39.0549 17.617C39.5229 17.9463 39.8262 18.4447 39.9649 19.112L39.6009 18.969C39.8002 18.4143 40.1512 17.968 40.6539 17.63C41.1652 17.2833 41.7762 17.11 42.4869 17.11ZM50.528 24.065C49.8693 24.065 49.2757 23.9177 48.747 23.623C48.227 23.3197 47.8153 22.908 47.512 22.388C47.2087 21.8593 47.057 21.257 47.057 20.581C47.057 19.8963 47.2087 19.294 47.512 18.774C47.8153 18.254 48.227 17.8467 48.747 17.552C49.267 17.2573 49.8607 17.11 50.528 17.11C51.204 17.11 51.802 17.2573 52.322 17.552C52.8507 17.8467 53.2623 18.254 53.557 18.774C53.8603 19.294 54.012 19.8963 54.012 20.581C54.012 21.257 53.8603 21.8593 53.557 22.388C53.2623 22.908 52.8507 23.3197 52.322 23.623C51.7933 23.9177 51.1953 24.065 50.528 24.065ZM50.528 23.246C51.022 23.246 51.4597 23.1377 51.841 22.921C52.2223 22.6957 52.5213 22.3837 52.738 21.985C52.9633 21.5777 53.076 21.1097 53.076 20.581C53.076 20.0437 52.9633 19.5757 52.738 19.177C52.5213 18.7783 52.2223 18.4707 51.841 18.254C51.4597 18.0287 51.0263 17.916 50.541 17.916C50.0557 17.916 49.6223 18.0287 49.241 18.254C48.8597 18.4707 48.5563 18.7783 48.331 19.177C48.1057 19.5757 47.993 20.0437 47.993 20.581C47.993 21.1097 48.1057 21.5777 48.331 21.985C48.5563 22.3837 48.8597 22.6957 49.241 22.921C49.6223 23.1377 50.0513 23.246 50.528 23.246ZM58.6134 24.065C57.9634 24.065 57.3784 23.9177 56.8584 23.623C56.347 23.3283 55.944 22.921 55.6494 22.401C55.3547 21.8723 55.2074 21.2657 55.2074 20.581C55.2074 19.8877 55.3547 19.281 55.6494 18.761C55.944 18.241 56.347 17.838 56.8584 17.552C57.3784 17.2573 57.9634 17.11 58.6134 17.11C59.2114 17.11 59.7444 17.2443 60.2124 17.513C60.689 17.7817 61.066 18.176 61.3434 18.696C61.6294 19.2073 61.7724 19.8357 61.7724 20.581C61.7724 21.3177 61.6337 21.946 61.3564 22.466C61.079 22.986 60.702 23.3847 60.2254 23.662C59.7574 23.9307 59.22 24.065 58.6134 24.065ZM58.6784 23.246C59.1637 23.246 59.597 23.1377 59.9784 22.921C60.3684 22.6957 60.6717 22.3837 60.8884 21.985C61.1137 21.5777 61.2264 21.1097 61.2264 20.581C61.2264 20.0437 61.1137 19.5757 60.8884 19.177C60.6717 18.7783 60.3684 18.4707 59.9784 18.254C59.597 18.0287 59.1637 17.916 58.6784 17.916C58.2017 17.916 57.7727 18.0287 57.3914 18.254C57.01 18.4707 56.7067 18.7783 56.4814 19.177C56.256 19.5757 56.1434 20.0437 56.1434 20.581C56.1434 21.1097 56.256 21.5777 56.4814 21.985C56.7067 22.3837 57.01 22.6957 57.3914 22.921C57.7727 23.1377 58.2017 23.246 58.6784 23.246ZM61.2524 24V21.946L61.3434 20.568L61.2134 19.19V14.354H62.1364V24H61.2524ZM67.6059 24.065C66.8953 24.065 66.2713 23.9177 65.7339 23.623C65.1966 23.3197 64.7763 22.908 64.4729 22.388C64.1696 21.8593 64.0179 21.257 64.0179 20.581C64.0179 19.905 64.1609 19.307 64.4469 18.787C64.7416 18.267 65.1403 17.8597 65.6429 17.565C66.1543 17.2617 66.7263 17.11 67.3589 17.11C68.0003 17.11 68.5679 17.2573 69.0619 17.552C69.5646 17.838 69.9589 18.2453 70.2449 18.774C70.5309 19.294 70.6739 19.8963 70.6739 20.581C70.6739 20.6243 70.6696 20.672 70.6609 20.724C70.6609 20.7673 70.6609 20.815 70.6609 20.867H64.7199V20.178H70.1669L69.8029 20.451C69.8029 19.957 69.6946 19.5193 69.4779 19.138C69.2699 18.748 68.9839 18.4447 68.6199 18.228C68.2559 18.0113 67.8356 17.903 67.3589 17.903C66.8909 17.903 66.4706 18.0113 66.0979 18.228C65.7253 18.4447 65.4349 18.748 65.2269 19.138C65.0189 19.528 64.9149 19.9743 64.9149 20.477V20.62C64.9149 21.14 65.0276 21.5993 65.2529 21.998C65.4869 22.388 65.8076 22.6957 66.2149 22.921C66.6309 23.1377 67.1033 23.246 67.6319 23.246C68.0479 23.246 68.4336 23.1723 68.7889 23.025C69.1529 22.8777 69.4649 22.6523 69.7249 22.349L70.2449 22.947C69.9416 23.311 69.5603 23.5883 69.1009 23.779C68.6503 23.9697 68.1519 24.065 67.6059 24.065Z" fill="#202020"/>
</svg>
