<svg width="25" height="19" viewBox="0 0 25 19" fill="none" xmlns="http://www.w3.org/2000/svg">
<path d="M20.6735 2.1767C19.1519 1.47852 17.5201 0.964101 15.814 0.669449C15.7829 0.66376 15.7519 0.677982 15.7359 0.70638C15.526 1.07965 15.2936 1.56655 15.1308 1.94929C13.2958 1.67455 11.4701 1.67455 9.67275 1.94929C9.50992 1.55807 9.26904 1.07965 9.05822 0.70638C9.04223 0.678915 9.01118 0.664693 8.98012 0.669449C7.27497 0.963121 5.64322 1.47754 4.12059 2.1767C4.10739 2.18239 4.09611 2.19185 4.0886 2.20416C0.993522 6.82817 0.145612 11.3385 0.561547 15.793C0.563412 15.8147 0.575676 15.8356 0.592602 15.8488C2.63465 17.3485 4.61276 18.2589 6.55408 18.8623C6.58514 18.8718 6.61806 18.8605 6.63783 18.8349C7.09704 18.2078 7.5064 17.5465 7.85738 16.8511C7.87808 16.8104 7.85831 16.7621 7.81597 16.746C7.16665 16.4997 6.5484 16.1993 5.95364 15.8583C5.90659 15.8309 5.90281 15.7636 5.94613 15.7314C6.07128 15.6376 6.19648 15.54 6.31599 15.4415C6.33763 15.4235 6.36775 15.4197 6.39317 15.431C10.3003 17.2149 14.5303 17.2149 18.3914 15.431C18.4168 15.4187 18.4469 15.4225 18.4695 15.4405C18.5891 15.539 18.7142 15.6375 18.8403 15.7313C18.8836 15.7635 18.8807 15.8308 18.8337 15.8583C18.239 16.206 17.6207 16.4996 16.9705 16.745C16.9281 16.7611 16.9093 16.8104 16.93 16.8511C17.2886 17.5455 17.6979 18.2067 18.1486 18.8339C18.1675 18.8604 18.2013 18.8718 18.2324 18.8623C20.1831 18.2589 22.1612 17.3484 24.2033 15.8488C24.2212 15.8355 24.2325 15.8156 24.2343 15.7938C24.7322 10.644 23.4006 6.17065 20.7045 2.20505C20.698 2.19185 20.6867 2.18239 20.6735 2.1767ZM8.44094 13.0807C7.26462 13.0807 6.29534 12.0007 6.29534 10.6744C6.29534 9.34807 7.24578 8.26814 8.44094 8.26814C9.64543 8.26814 10.6053 9.35759 10.5865 10.6744C10.5865 12.0007 9.63601 13.0807 8.44094 13.0807ZM16.3739 13.0807C15.1976 13.0807 14.2283 12.0007 14.2283 10.6744C14.2283 9.34807 15.1788 8.26814 16.3739 8.26814C17.5784 8.26814 18.5383 9.35759 18.5195 10.6744C18.5195 12.0007 17.5785 13.0807 16.3739 13.0807Z" fill="#8E498C"/>
</svg>
