<svg width="31" height="31" viewBox="0 0 31 31" fill="none" xmlns="http://www.w3.org/2000/svg">
<path d="M15.6612 18.0703C17.3305 18.0703 18.6837 16.7264 18.6837 15.0687C18.6837 13.411 17.3305 12.0671 15.6612 12.0671C13.9919 12.0671 12.6387 13.411 12.6387 15.0687C12.6387 16.7264 13.9919 18.0703 15.6612 18.0703Z" fill="#BBBBBB"/>
<path d="M15.6614 0.060791C7.31496 0.060791 0.548828 6.78006 0.548828 15.0687C0.548828 23.3573 7.31496 30.0766 15.6614 30.0766C24.0078 30.0766 30.7739 23.3573 30.7739 15.0687C30.7739 6.78006 24.0078 0.060791 15.6614 0.060791ZM24.9984 18.8831C24.9259 20.3099 24.5221 21.7169 23.4751 22.7457C22.4178 23.7842 20.9943 24.1712 19.5437 24.2425H11.7792C10.3283 24.1712 8.90498 23.7845 7.84777 22.7457C6.80065 21.7169 6.39696 20.3099 6.32442 18.8831V11.2543C6.39696 9.82744 6.80071 8.42042 7.84777 7.3916C8.90498 6.35306 10.3285 5.96609 11.7792 5.89484H19.5436C20.9944 5.96609 22.4178 6.35288 23.475 7.3916C24.5221 8.42042 24.9258 9.82744 24.9983 11.2543L24.9984 18.8831Z" fill="#BBBBBB"/>
<path d="M19.4209 7.60348C17.5475 7.55177 13.7976 7.55177 11.9242 7.60348C10.9492 7.63042 9.84397 7.8747 9.14933 8.62144C8.42751 9.39766 8.15475 10.3355 8.12708 11.3846C8.07846 13.2259 8.12708 18.7527 8.12708 18.7527C8.15876 19.8017 8.42751 20.7396 9.14933 21.5158C9.84397 22.2628 10.9492 22.5069 11.9242 22.5338C13.7976 22.5855 17.5475 22.5855 19.4209 22.5338C20.3959 22.5069 21.5011 22.2626 22.1958 21.5158C22.9176 20.7396 23.1904 19.8018 23.218 18.7527V11.3846C23.1904 10.3355 22.9176 9.39766 22.1958 8.62144C21.5009 7.87445 20.3957 7.63042 19.4209 7.60348ZM15.6723 19.9731C14.7085 19.9731 13.7664 19.6855 12.9651 19.1466C12.1637 18.6076 11.5391 17.8417 11.1703 16.9455C10.8015 16.0493 10.705 15.0632 10.893 14.1118C11.081 13.1605 11.5451 12.2866 12.2266 11.6007C12.9081 10.9148 13.7764 10.4476 14.7217 10.2584C15.6669 10.0692 16.6467 10.1663 17.5371 10.5375C18.4275 10.9087 19.1886 11.5373 19.724 12.3439C20.2594 13.1504 20.5452 14.0986 20.5452 15.0686C20.5452 16.3694 20.0318 17.6169 19.118 18.5366C18.2041 19.4564 16.9647 19.9731 15.6723 19.9731ZM20.566 11.1765C20.3732 11.1765 20.1848 11.1189 20.0246 11.0111C19.8643 10.9033 19.7395 10.7501 19.6657 10.5708C19.592 10.3916 19.5727 10.1944 19.6104 10.0041C19.648 9.81386 19.7408 9.63911 19.8771 9.50195C20.0135 9.36479 20.1871 9.2714 20.3762 9.23357C20.5652 9.19574 20.7611 9.21518 20.9392 9.28943C21.1173 9.36368 21.2695 9.4894 21.3766 9.6507C21.4836 9.812 21.5408 10.0016 21.5408 10.1956C21.5408 10.3245 21.5156 10.452 21.4666 10.5711C21.4176 10.6901 21.3458 10.7982 21.2552 10.8893C21.1647 10.9804 21.0573 11.0526 20.939 11.1019C20.8207 11.1512 20.694 11.1766 20.566 11.1765Z" fill="#BBBBBB"/>
</svg>
