<?xml version="1.0" encoding="utf-8"?>
<!-- Generator: Adobe Illustrator 24.0.1, SVG Export Plug-In . SVG Version: 6.00 Build 0)  -->
<svg version="1.1" id="Слой_1" xmlns="http://www.w3.org/2000/svg" xmlns:xlink="http://www.w3.org/1999/xlink" x="0px" y="0px"
	 viewBox="0 0 26.3 26.2" style="enable-background:new 0 0 26.3 26.2;" xml:space="preserve">
<style type="text/css">
	.st0{fill:#FFFFFF;stroke:#41A380;stroke-width:0.5;}
	.st1{fill:#41A380;}
</style>
<circle class="st0" cx="13.3" cy="13" r="12.8"/>
<path class="st1" d="M13.3,9.6c-1.9,0-3.4,1.5-3.4,3.4c0,1.9,1.5,3.4,3.4,3.4c1.9,0,3.4-1.5,3.4-3.4C16.7,11.1,15.2,9.6,13.3,9.6z"
	/>
<path class="st1" d="M13.3,8.6c-0.4,0-0.7-0.3-0.7-0.7V6.9c0-0.4,0.3-0.7,0.7-0.7S14,6.6,14,6.9V8C14,8.4,13.7,8.6,13.3,8.6z"/>
<path class="st1" d="M13.3,17.4c-0.4,0-0.7,0.3-0.7,0.7v1.1c0,0.4,0.3,0.7,0.7,0.7s0.7-0.3,0.7-0.7V18C14,17.7,13.7,17.4,13.3,17.4z
	"/>
<path class="st1" d="M16.4,9.9c-0.3-0.3-0.3-0.7,0-0.9l0.7-0.7c0.3-0.3,0.7-0.3,0.9,0c0.3,0.3,0.3,0.7,0,0.9l-0.7,0.7
	C17.1,10.2,16.7,10.2,16.4,9.9z"/>
<path class="st1" d="M10.3,16.1c-0.3-0.3-0.7-0.3-0.9,0l-0.7,0.7c-0.3,0.3-0.3,0.7,0,0.9c0.3,0.3,0.7,0.3,0.9,0l0.7-0.7
	C10.5,16.8,10.5,16.3,10.3,16.1z"/>
<path class="st1" d="M17.7,13c0-0.4,0.3-0.7,0.7-0.7h1.1c0.4,0,0.7,0.3,0.7,0.7c0,0.4-0.3,0.7-0.7,0.7h-1.1
	C18,13.7,17.7,13.4,17.7,13z"/>
<path class="st1" d="M9,13c0-0.4-0.3-0.7-0.7-0.7H7.3c-0.4,0-0.7,0.3-0.7,0.7c0,0.4,0.3,0.7,0.7,0.7h1.1C8.7,13.7,9,13.4,9,13z"/>
<path class="st1" d="M16.4,16.1c0.3-0.3,0.7-0.3,0.9,0l0.7,0.7c0.3,0.3,0.3,0.7,0,0.9c-0.3,0.3-0.7,0.3-0.9,0L16.4,17
	C16.2,16.8,16.2,16.3,16.4,16.1z"/>
<path class="st1" d="M10.3,9.9c0.3-0.3,0.3-0.7,0-0.9L9.5,8.2C9.3,8,8.8,8,8.6,8.2c-0.3,0.3-0.3,0.7,0,0.9l0.7,0.7
	C9.6,10.2,10,10.2,10.3,9.9z"/>
</svg>
