<svg width="70" height="27" viewBox="0 0 70 27" fill="none" xmlns="http://www.w3.org/2000/svg">
<circle cx="13.3379" cy="13.7668" r="12.75" fill="white" stroke="#41A380" stroke-width="0.5"/>
<path d="M13.3371 10.3987C11.4798 10.3987 9.96875 11.91 9.96875 13.7674C9.96875 15.6247 11.4798 17.136 13.3371 17.136C15.1942 17.136 16.7055 15.625 16.7055 13.7674C16.7055 11.9097 15.1942 10.3987 13.3371 10.3987Z" fill="#41A380"/>
<path d="M13.3369 9.40842C12.9739 9.40842 12.6797 9.1142 12.6797 8.75148V7.69996C12.6797 7.33695 12.9739 7.04272 13.3369 7.04272C13.6999 7.04272 13.9942 7.33695 13.9942 7.69996V8.75148C13.9942 9.1142 13.6996 9.40842 13.3369 9.40842Z" fill="#41A380"/>
<path d="M13.3369 18.1252C12.9739 18.1252 12.6797 18.4195 12.6797 18.7825V19.8337C12.6797 20.197 12.9739 20.4912 13.3369 20.4912C13.6999 20.4912 13.9942 20.197 13.9942 19.8337V18.7825C13.9942 18.4195 13.6996 18.1252 13.3369 18.1252Z" fill="#41A380"/>
<path d="M16.4189 10.6851C16.1625 10.4284 16.1625 10.0124 16.4189 9.75573L17.1625 9.01213C17.4189 8.75572 17.8352 8.75572 18.0919 9.01213C18.3486 9.26883 18.3486 9.68515 18.0919 9.94155L17.3483 10.6851C17.0919 10.9419 16.6759 10.9419 16.4189 10.6851Z" fill="#41A380"/>
<path d="M10.2561 16.8492C9.99936 16.5922 9.58334 16.5922 9.32664 16.8492L8.58304 17.5925C8.32664 17.8489 8.32634 18.2656 8.58304 18.522C8.83974 18.7784 9.25606 18.7784 9.51246 18.522L10.2561 17.7781C10.5128 17.5217 10.5128 17.1053 10.2561 16.8492Z" fill="#41A380"/>
<path d="M17.6953 13.7669C17.6953 13.4038 17.9895 13.1096 18.3526 13.1096H19.4041C19.7671 13.1096 20.0613 13.4038 20.0613 13.7669C20.0613 14.1299 19.7671 14.4238 19.4041 14.4238H18.3526C17.9895 14.4238 17.6953 14.1299 17.6953 13.7669Z" fill="#41A380"/>
<path d="M8.97898 13.7669C8.97898 13.4038 8.68476 13.1096 8.32174 13.1096H7.27052C6.9075 13.1096 6.61328 13.4038 6.61328 13.7669C6.61328 14.1299 6.9075 14.4238 7.27052 14.4238H8.32204C8.68476 14.4238 8.97898 14.1299 8.97898 13.7669Z" fill="#41A380"/>
<path d="M16.4191 16.849C16.6758 16.5926 17.0921 16.5926 17.3485 16.849L18.0921 17.5926C18.3488 17.8487 18.3488 18.2654 18.0921 18.5218C17.8354 18.7782 17.4194 18.7782 17.1627 18.5218L16.4191 17.7782C16.1624 17.5215 16.1624 17.1054 16.4191 16.849Z" fill="#41A380"/>
<path d="M10.2562 10.6851C10.5129 10.4284 10.5129 10.0124 10.2562 9.75565L9.51257 9.01235C9.25587 8.75565 8.83985 8.75565 8.58315 9.01235C8.32645 9.26875 8.32645 9.68507 8.58315 9.94148L9.32675 10.6851C9.58345 10.9421 9.99947 10.9421 10.2562 10.6851Z" fill="#41A380"/>
<path d="M32.8199 12.5525V3.45249H33.7819V11.7205H38.8779V12.5525H32.8199ZM40.2802 12.5525V5.72749H41.2032V12.5525H40.2802ZM40.7482 4.21949C40.5575 4.21949 40.3972 4.15449 40.2672 4.02449C40.1372 3.89449 40.0722 3.73849 40.0722 3.55649C40.0722 3.37449 40.1372 3.22282 40.2672 3.10149C40.3972 2.97149 40.5575 2.90649 40.7482 2.90649C40.9388 2.90649 41.0992 2.96716 41.2292 3.08849C41.3592 3.20982 41.4242 3.36149 41.4242 3.54349C41.4242 3.73416 41.3592 3.89449 41.2292 4.02449C41.1078 4.15449 40.9475 4.21949 40.7482 4.21949ZM46.6834 15.1395C46.0594 15.1395 45.4614 15.0485 44.8894 14.8665C44.3174 14.6845 43.8537 14.4245 43.4984 14.0865L43.9664 13.3845C44.287 13.6705 44.6814 13.8958 45.1494 14.0605C45.626 14.2338 46.1287 14.3205 46.6574 14.3205C47.524 14.3205 48.161 14.1168 48.5684 13.7095C48.9757 13.3108 49.1794 12.6868 49.1794 11.8375V10.1345L49.3094 8.96449L49.2184 7.79449V5.72749H50.1024V11.7205C50.1024 12.8992 49.812 13.7615 49.2314 14.3075C48.6594 14.8622 47.81 15.1395 46.6834 15.1395ZM46.5144 12.2925C45.8644 12.2925 45.2794 12.1538 44.7594 11.8765C44.2394 11.5905 43.8277 11.1962 43.5244 10.6935C43.2297 10.1908 43.0824 9.61449 43.0824 8.96449C43.0824 8.31449 43.2297 7.74249 43.5244 7.24849C43.8277 6.74582 44.2394 6.35582 44.7594 6.07849C45.2794 5.80116 45.8644 5.66249 46.5144 5.66249C47.121 5.66249 47.667 5.78816 48.1524 6.03949C48.6377 6.29082 49.0234 6.66349 49.3094 7.15749C49.5954 7.65149 49.7384 8.25382 49.7384 8.96449C49.7384 9.67516 49.5954 10.2775 49.3094 10.7715C49.0234 11.2655 48.6377 11.6425 48.1524 11.9025C47.667 12.1625 47.121 12.2925 46.5144 12.2925ZM46.6054 11.4735C47.108 11.4735 47.5544 11.3695 47.9444 11.1615C48.3344 10.9448 48.642 10.6502 48.8674 10.2775C49.0927 9.89616 49.2054 9.45849 49.2054 8.96449C49.2054 8.47049 49.0927 8.03716 48.8674 7.66449C48.642 7.29182 48.3344 7.00149 47.9444 6.79349C47.5544 6.57682 47.108 6.46849 46.6054 6.46849C46.1114 6.46849 45.665 6.57682 45.2664 6.79349C44.8764 7.00149 44.5687 7.29182 44.3434 7.66449C44.1267 8.03716 44.0184 8.47049 44.0184 8.96449C44.0184 9.45849 44.1267 9.89616 44.3434 10.2775C44.5687 10.6502 44.8764 10.9448 45.2664 11.1615C45.665 11.3695 46.1114 11.4735 46.6054 11.4735ZM56.1548 5.66249C56.7095 5.66249 57.1948 5.77082 57.6108 5.98749C58.0355 6.19549 58.3648 6.51616 58.5988 6.94949C58.8415 7.38282 58.9628 7.92882 58.9628 8.58749V12.5525H58.0398V8.67849C58.0398 7.95916 57.8578 7.41749 57.4938 7.05349C57.1385 6.68082 56.6358 6.49449 55.9858 6.49449C55.5005 6.49449 55.0758 6.59416 54.7118 6.79349C54.3565 6.98416 54.0791 7.26582 53.8798 7.63849C53.6891 8.00249 53.5938 8.44449 53.5938 8.96449V12.5525H52.6708V2.90649H53.5938V7.59949L53.4118 7.24849C53.6285 6.75449 53.9751 6.36882 54.4518 6.09149C54.9285 5.80549 55.4961 5.66249 56.1548 5.66249ZM63.6139 12.6175C62.9726 12.6175 62.4786 12.4442 62.1319 12.0975C61.7853 11.7508 61.6119 11.2612 61.6119 10.6285V4.21949H62.5349V10.5765C62.5349 10.9752 62.6346 11.2828 62.8339 11.4995C63.0419 11.7162 63.3366 11.8245 63.7179 11.8245C64.1253 11.8245 64.4633 11.7075 64.7319 11.4735L65.0569 12.1365C64.8749 12.3012 64.6539 12.4225 64.3939 12.5005C64.1426 12.5785 63.8826 12.6175 63.6139 12.6175ZM60.3899 6.49449V5.72749H64.6149V6.49449H60.3899ZM41.1529 17.6625C41.7076 17.6625 42.1886 17.7708 42.5959 17.9875C43.0119 18.1955 43.3326 18.5162 43.5579 18.9495C43.7919 19.3828 43.9089 19.9288 43.9089 20.5875V24.5525H42.9859V20.6785C42.9859 19.9592 42.8126 19.4175 42.4659 19.0535C42.1279 18.6808 41.6469 18.4945 41.0229 18.4945C40.5549 18.4945 40.1476 18.5942 39.8009 18.7935C39.4629 18.9842 39.1986 19.2658 39.0079 19.6385C38.8259 20.0025 38.7349 20.4445 38.7349 20.9645V24.5525H37.8119V20.6785C37.8119 19.9592 37.6386 19.4175 37.2919 19.0535C36.9452 18.6808 36.4599 18.4945 35.8359 18.4945C35.3766 18.4945 34.9736 18.5942 34.6269 18.7935C34.2802 18.9842 34.0116 19.2658 33.8209 19.6385C33.6389 20.0025 33.5479 20.4445 33.5479 20.9645V24.5525H32.6249V17.7275H33.5089V19.5735L33.3659 19.2485C33.5739 18.7545 33.9076 18.3688 34.3669 18.0915C34.8349 17.8055 35.3852 17.6625 36.0179 17.6625C36.6852 17.6625 37.2529 17.8315 37.7209 18.1695C38.1889 18.4988 38.4922 18.9972 38.6309 19.6645L38.2669 19.5215C38.4662 18.9668 38.8172 18.5205 39.3199 18.1825C39.8312 17.8358 40.4422 17.6625 41.1529 17.6625ZM49.194 24.6175C48.5353 24.6175 47.9417 24.4702 47.413 24.1755C46.893 23.8722 46.4813 23.4605 46.178 22.9405C45.8747 22.4118 45.723 21.8095 45.723 21.1335C45.723 20.4488 45.8747 19.8465 46.178 19.3265C46.4813 18.8065 46.893 18.3992 47.413 18.1045C47.933 17.8098 48.5267 17.6625 49.194 17.6625C49.87 17.6625 50.468 17.8098 50.988 18.1045C51.5167 18.3992 51.9283 18.8065 52.223 19.3265C52.5263 19.8465 52.678 20.4488 52.678 21.1335C52.678 21.8095 52.5263 22.4118 52.223 22.9405C51.9283 23.4605 51.5167 23.8722 50.988 24.1755C50.4593 24.4702 49.8613 24.6175 49.194 24.6175ZM49.194 23.7985C49.688 23.7985 50.1257 23.6902 50.507 23.4735C50.8883 23.2482 51.1873 22.9362 51.404 22.5375C51.6293 22.1302 51.742 21.6622 51.742 21.1335C51.742 20.5962 51.6293 20.1282 51.404 19.7295C51.1873 19.3308 50.8883 19.0232 50.507 18.8065C50.1257 18.5812 49.6923 18.4685 49.207 18.4685C48.7217 18.4685 48.2883 18.5812 47.907 18.8065C47.5257 19.0232 47.2223 19.3308 46.997 19.7295C46.7717 20.1282 46.659 20.5962 46.659 21.1335C46.659 21.6622 46.7717 22.1302 46.997 22.5375C47.2223 22.9362 47.5257 23.2482 47.907 23.4735C48.2883 23.6902 48.7173 23.7985 49.194 23.7985ZM57.2794 24.6175C56.6294 24.6175 56.0444 24.4702 55.5244 24.1755C55.0131 23.8808 54.6101 23.4735 54.3154 22.9535C54.0207 22.4248 53.8734 21.8182 53.8734 21.1335C53.8734 20.4402 54.0207 19.8335 54.3154 19.3135C54.6101 18.7935 55.0131 18.3905 55.5244 18.1045C56.0444 17.8098 56.6294 17.6625 57.2794 17.6625C57.8774 17.6625 58.4104 17.7968 58.8784 18.0655C59.3551 18.3342 59.7321 18.7285 60.0094 19.2485C60.2954 19.7598 60.4384 20.3882 60.4384 21.1335C60.4384 21.8702 60.2997 22.4985 60.0224 23.0185C59.7451 23.5385 59.3681 23.9372 58.8914 24.2145C58.4234 24.4832 57.8861 24.6175 57.2794 24.6175ZM57.3444 23.7985C57.8297 23.7985 58.2631 23.6902 58.6444 23.4735C59.0344 23.2482 59.3377 22.9362 59.5544 22.5375C59.7797 22.1302 59.8924 21.6622 59.8924 21.1335C59.8924 20.5962 59.7797 20.1282 59.5544 19.7295C59.3377 19.3308 59.0344 19.0232 58.6444 18.8065C58.2631 18.5812 57.8297 18.4685 57.3444 18.4685C56.8677 18.4685 56.4387 18.5812 56.0574 18.8065C55.6761 19.0232 55.3727 19.3308 55.1474 19.7295C54.9221 20.1282 54.8094 20.5962 54.8094 21.1335C54.8094 21.6622 54.9221 22.1302 55.1474 22.5375C55.3727 22.9362 55.6761 23.2482 56.0574 23.4735C56.4387 23.6902 56.8677 23.7985 57.3444 23.7985ZM59.9184 24.5525V22.4985L60.0094 21.1205L59.8794 19.7425V14.9065H60.8024V24.5525H59.9184ZM66.2719 24.6175C65.5613 24.6175 64.9373 24.4702 64.3999 24.1755C63.8626 23.8722 63.4423 23.4605 63.1389 22.9405C62.8356 22.4118 62.6839 21.8095 62.6839 21.1335C62.6839 20.4575 62.8269 19.8595 63.1129 19.3395C63.4076 18.8195 63.8063 18.4122 64.3089 18.1175C64.8203 17.8142 65.3923 17.6625 66.0249 17.6625C66.6663 17.6625 67.2339 17.8098 67.7279 18.1045C68.2306 18.3905 68.6249 18.7978 68.9109 19.3265C69.1969 19.8465 69.3399 20.4488 69.3399 21.1335C69.3399 21.1768 69.3356 21.2245 69.3269 21.2765C69.3269 21.3198 69.3269 21.3675 69.3269 21.4195H63.3859V20.7305H68.8329L68.4689 21.0035C68.4689 20.5095 68.3606 20.0718 68.1439 19.6905C67.9359 19.3005 67.6499 18.9972 67.2859 18.7805C66.9219 18.5638 66.5016 18.4555 66.0249 18.4555C65.5569 18.4555 65.1366 18.5638 64.7639 18.7805C64.3913 18.9972 64.1009 19.3005 63.8929 19.6905C63.6849 20.0805 63.5809 20.5268 63.5809 21.0295V21.1725C63.5809 21.6925 63.6936 22.1518 63.9189 22.5505C64.1529 22.9405 64.4736 23.2482 64.8809 23.4735C65.2969 23.6902 65.7693 23.7985 66.2979 23.7985C66.7139 23.7985 67.0996 23.7248 67.4549 23.5775C67.8189 23.4302 68.1309 23.2048 68.3909 22.9015L68.9109 23.4995C68.6076 23.8635 68.2263 24.1408 67.7669 24.3315C67.3163 24.5222 66.8179 24.6175 66.2719 24.6175Z" fill="white"/>
</svg>
