<svg width="30" height="30" viewBox="0 0 30 30" fill="none" xmlns="http://www.w3.org/2000/svg">
<path d="M15.0589 0.060791C7.05722 0.060791 0.568359 6.71918 0.568359 14.9299C0.568359 23.1407 7.05722 29.799 15.0589 29.799C23.0606 29.799 29.5494 23.1407 29.5494 14.9299C29.5494 6.71918 23.0606 0.060791 15.0589 0.060791ZM10.8481 22.5387H7.31901V11.6439H10.8481V22.5387ZM9.08367 10.1563H9.06068C7.87642 10.1563 7.1105 9.31974 7.1105 8.27425C7.1105 7.20517 7.89986 6.39179 9.10711 6.39179C10.3144 6.39179 11.0573 7.20517 11.0803 8.27425C11.0803 9.31974 10.3144 10.1563 9.08367 10.1563ZM23.5733 22.5387H20.0447V16.7103C20.0447 15.2455 19.5337 14.2465 18.2568 14.2465C17.2819 14.2465 16.7013 14.9204 16.4461 15.5709C16.3528 15.8037 16.33 16.129 16.33 16.4546V22.5387H12.8012C12.8012 22.5387 12.8474 12.6661 12.8012 11.6439H16.33V13.1865C16.799 12.4442 17.6381 11.3882 19.5105 11.3882C21.8323 11.3882 23.5733 12.9454 23.5733 16.2917V22.5387Z" fill="#BBBBBB"/>
</svg>
