<svg width="160" height="47" viewBox="0 0 160 47" fill="none" xmlns="http://www.w3.org/2000/svg">
<g clip-path="url(#clip0_732_498)">
<path d="M67.0371 18.7812V18.3209C67.0371 14.2292 67.0371 10.0546 67.0371 5.96279C67.0371 5.50253 67.0555 5.46801 67.5133 5.4496C68.7485 5.4496 69.94 5.43809 71.1937 5.43809C73.6297 5.43809 75.9069 5.4588 78.4809 5.4588C83.3115 5.4588 88.1536 5.44269 92.9911 5.43579C93.5523 5.43579 93.6489 5.53245 93.6489 6.08477C93.6489 7.49088 93.6489 8.65074 93.6489 10.0592C93.6489 10.2893 93.5753 10.3998 93.366 10.3998H85.8119C81.1884 10.3998 77.8714 10.379 73.5193 10.379C72.8292 10.379 72.3461 10.3951 71.7596 10.379C71.4858 10.3652 71.4007 10.455 71.3984 10.738C71.3731 15.6261 71.3363 20.4842 71.3018 25.3745C71.3018 25.7795 71.3018 26.3364 71.3018 26.7392C71.3018 26.9693 71.1983 27.0936 70.9545 27.0936H67.4649C67.3333 27.0971 67.2031 27.0661 67.0872 27.0035C66.9714 26.9409 66.874 26.8489 66.8048 26.7369C65.0428 24.1249 63.2808 21.361 61.5141 18.749C60.3272 16.9931 59.138 15.2533 57.9487 13.4996C57.8659 13.3823 57.813 13.3408 57.813 13.472C57.813 13.4881 57.813 13.5687 57.813 13.6515C57.7785 17.9435 57.7463 22.2056 57.7164 26.4975C57.7164 26.9578 57.6704 27.0591 57.2126 27.0614C56.2028 27.0614 54.986 27.0614 53.8565 27.0614C53.431 27.0614 53.3965 26.9118 53.3965 26.4814C53.4195 22.3114 53.4417 18.1414 53.4632 13.9714C53.4632 11.3893 53.4632 8.60702 53.4632 6.02493C53.4632 5.49793 53.4632 5.49332 54.0084 5.47261C55.1861 5.47261 56.2212 5.47261 57.4933 5.47261C57.8038 5.4588 57.9878 5.65672 58.1626 5.91217C59.7728 8.25261 61.383 10.5816 62.9932 12.9174C64.2722 14.7792 65.5419 16.6479 66.8186 18.5119C66.8531 18.5787 66.9244 18.6408 67.0371 18.7812Z" fill="#41A380"/>
<path d="M117.544 27.1027C117.045 27.1027 113.949 27.1027 112.003 27.1027C111.894 27.1097 111.786 27.0862 111.69 27.035C111.594 26.9838 111.514 26.9068 111.46 26.8127C109.691 24.203 109.159 23.393 107.381 20.7879C107.345 20.7303 107.296 20.6797 107.223 20.5853C107.004 20.8937 106.799 21.1768 106.602 21.4645C104.856 23.9959 95.926 37.1894 94.5343 39.2353C94.2169 39.6956 93.9386 40.1236 93.6142 40.5931C93.4785 40.7634 92.6941 40.722 92.3721 40.722C91.3991 40.722 89.0735 40.7104 88.1028 40.7104C87.7278 40.7104 87.6082 40.4389 87.8198 40.1282C89.0344 38.3424 93.0346 32.3635 94.2491 30.5777C95.9766 28.0462 102.408 18.5855 103.91 16.4038C104.002 16.3136 104.055 16.192 104.06 16.0637C104.064 15.9354 104.02 15.8101 103.936 15.7134C102.082 13.0186 100.255 10.3076 98.4149 7.59896C98.0492 7.05815 97.5983 6.38156 97.2487 5.82694C97.0738 5.54848 97.129 5.45642 97.458 5.44722C99.0268 5.44722 100.49 5.43341 102.249 5.43341C102.831 5.39659 103.117 5.60141 103.413 6.04096C104.61 7.81528 105.838 9.56659 107.057 11.334C107.114 11.4099 107.174 11.4829 107.239 11.5526C107.494 11.1867 107.736 10.8461 107.973 10.5032C109.07 8.91762 110.222 7.23075 111.329 5.65434C111.377 5.59447 111.437 5.54532 111.505 5.51004C111.573 5.47477 111.648 5.45415 111.724 5.44952H113.178H116.969C117.351 5.44952 117.406 5.55768 117.199 5.89137C116.704 6.64161 116.028 7.63808 115.524 8.38141C114.213 10.3222 112.9 12.2607 111.584 14.1969C111.209 14.7492 110.841 15.3061 110.455 15.8469C110.4 15.9053 110.37 15.9822 110.37 16.0621C110.37 16.142 110.4 16.2189 110.455 16.2773C113.169 20.1895 114.885 22.6796 117.585 26.5941C117.792 26.8772 118.004 27.1027 117.544 27.1027Z" fill="#41A380"/>
<path d="M140.041 12.8552C140.041 14.8596 140.009 16.8641 140.041 18.8685C140.087 21.1008 139.351 23.0109 137.936 24.7162C136.416 26.5573 134.559 27.8092 132.238 28.3178C128.698 29.0956 125.616 28.2303 123.09 25.5907C122.132 24.5941 121.451 23.3645 121.114 22.0236C120.939 21.2033 120.862 20.3652 120.884 19.5267C120.857 16.9147 120.884 14.3027 120.884 11.7022C120.884 9.79899 120.884 7.89579 120.884 5.99489C120.884 5.69112 120.992 5.58066 121.294 5.58296C122.761 5.59523 124.228 5.59523 125.694 5.58296C125.97 5.58296 126.067 5.69572 126.067 5.96498C126.067 9.74222 126.067 13.5179 126.067 17.2921C126.062 17.9097 126.117 18.5263 126.232 19.1332C126.476 20.3414 127.222 21.232 128.254 21.851C130.143 22.9833 132.209 22.8268 133.713 21.3286C134.361 20.7332 134.748 19.9065 134.792 19.0273C134.815 18.399 134.87 17.7731 134.872 17.1471C134.872 13.3914 134.872 9.63253 134.872 5.87062C134.872 5.55994 134.987 5.47479 135.286 5.4771C136.763 5.48937 138.241 5.48937 139.719 5.4771C140.016 5.4771 140.043 5.63819 140.043 5.86372C140.043 8.19266 140.043 10.5208 140.043 12.8482L140.041 12.8552Z" fill="#41A380"/>
<path d="M143.417 27.082C143.155 27.082 143.065 27.0152 143.063 26.7506C143.049 25.3053 143.017 24.2421 142.994 22.7992C142.994 22.4494 143.042 22.4011 143.394 22.4057C146.196 22.4586 153.242 22.4931 154.093 22.4057C154.37 22.3581 154.632 22.2455 154.858 22.0771C155.083 21.9087 155.266 21.6893 155.39 21.4368C155.783 20.5646 155.204 19.0918 153.78 18.9053C152.146 18.7081 150.503 18.6059 148.857 18.5993C146.15 18.5486 143.847 16.8365 143.107 14.3326C142.46 12.1187 142.877 10.0982 144.211 8.2341C145.003 7.05201 146.176 6.17664 147.535 5.75327C148.133 5.58159 148.753 5.49635 149.375 5.50012C152.338 5.50012 155.303 5.55075 158.265 5.58527C158.751 5.58527 158.852 5.69803 158.85 6.1629C158.85 7.378 158.799 8.79332 158.799 10.0084C158.799 10.2731 158.703 10.3904 158.429 10.3881C157.067 10.3881 151.496 10.3651 149.734 10.3651C149.464 10.3732 149.202 10.4622 148.983 10.6206C148.764 10.779 148.598 10.9994 148.505 11.2534C148.388 11.526 148.349 11.8261 148.392 12.1197C148.436 12.4134 148.562 12.6889 148.754 12.915C148.948 13.155 149.189 13.3524 149.462 13.495C149.736 13.6375 150.036 13.7221 150.343 13.7435C151.388 13.8631 152.432 13.9529 153.476 14.0565C155.036 14.2129 156.547 14.5167 157.847 15.4372C158.378 15.8091 158.828 16.2847 159.17 16.8352C159.513 17.3857 159.74 17.9999 159.839 18.6407C160.041 19.664 160.051 20.7159 159.869 21.7429C159.34 24.608 157.483 27.0359 154.403 27.0774C152.593 27.1027 145.267 27.0705 143.417 27.082Z" fill="#41A380"/>
<path d="M77.781 27.0912C77.5072 27.0912 77.4658 26.9854 77.4658 26.7621C77.4658 24.4424 77.4658 22.1242 77.4658 19.8075C77.4658 17.9342 77.4658 16.0633 77.4658 14.19C77.4658 13.8931 77.5371 13.7896 77.8546 13.7896C82.8922 13.7896 87.9313 13.7896 92.972 13.7896C93.5171 13.7896 93.6091 13.8816 93.6137 14.4178C93.6137 15.6329 93.5746 17.0068 93.5815 18.2219C93.5815 18.3232 93.5815 18.4244 93.5815 18.5234C93.593 18.7903 93.4872 18.9399 93.2066 18.9399C92.3095 18.9399 85.5996 18.9192 82.837 18.9192C82.6069 18.9192 82.5632 18.9698 82.5609 19.2115C82.5494 20.132 82.5793 21.018 82.5609 21.9478C82.5609 22.1779 82.6897 22.1618 82.837 22.1618H84.7186L92.9766 22.1457C93.5378 22.1457 93.6275 22.2377 93.6321 22.7946C93.6321 23.999 93.6398 25.2034 93.6551 26.4077C93.6551 26.4584 93.6551 26.509 93.6551 26.5596C93.6367 27.0866 93.6367 27.0889 93.1031 27.0958L77.781 27.0912Z" fill="#41A380"/>
<path d="M144.052 38.4C143.928 38.5496 143.822 38.6854 143.707 38.8074C143.443 39.0812 143.376 39.4402 143.27 39.7831C143.224 39.9395 143.168 40.0932 143.105 40.2434C143.083 40.2965 143.044 40.341 142.995 40.3705C142.945 40.3999 142.888 40.4126 142.831 40.4068H142.732C142.449 40.4068 142.311 40.2986 142.325 40.011C142.341 39.6082 142.389 39.2078 142.424 38.8327C142.129 39.0168 141.819 39.2285 141.504 39.4172C140.972 39.7347 140.391 39.961 139.785 40.0869C139.675 40.1151 139.571 40.1618 139.477 40.225C138.901 40.5527 138.264 40.7572 137.605 40.8256C137.168 40.8832 136.726 40.9269 136.287 40.9476C135.943 40.9549 135.599 40.9449 135.256 40.9177C135.192 40.9123 135.132 40.8817 135.09 40.8325C135.008 40.7516 134.945 40.6535 134.905 40.5453C134.866 40.4371 134.85 40.3214 134.86 40.2066C134.893 39.9626 134.86 39.7095 134.883 39.4632C134.894 39.158 134.934 38.8545 135.001 38.5565C135.21 37.8109 135.461 37.0722 135.691 36.3357C135.763 36.1391 135.845 35.9462 135.937 35.7581C136.188 35.1874 136.432 34.6074 136.694 34.0482C136.873 33.6593 137.071 33.275 137.273 32.8976C137.452 32.5171 137.531 32.0974 137.503 31.6778C137.502 31.4201 137.524 31.1628 137.57 30.9092C137.589 30.793 137.64 30.6842 137.716 30.5948C137.793 30.5055 137.893 30.4391 138.005 30.4029C138.447 30.2579 138.888 30.1083 139.341 29.9979C139.592 29.9619 139.843 29.9389 140.096 29.9288C140.42 29.8828 140.738 29.8023 141.062 29.7585C141.386 29.7148 141.752 29.701 142.104 29.6573C142.599 29.5951 143.093 29.5192 143.588 29.4502C143.806 29.4179 144.02 29.3305 144.241 29.4847C144.388 29.5882 144.425 29.632 144.287 29.7378C143.991 29.988 143.674 30.2113 143.339 30.4052C142.578 30.7814 141.775 31.068 140.947 31.259C140.6 31.3465 140.257 31.4408 139.903 31.5237C139.83 31.532 139.764 31.5661 139.715 31.6198C139.666 31.6736 139.638 31.7432 139.636 31.8159C139.606 32.1381 139.562 32.458 139.512 32.7779C139.484 32.9141 139.442 33.0468 139.385 33.1737C139.256 33.4844 139.116 33.7928 138.96 34.1541C139.213 34.1173 139.42 34.085 139.629 34.0597C140.126 33.9999 140.62 33.9355 141.117 33.8871C141.342 33.8687 141.568 33.8687 141.793 33.8871C141.987 33.8986 142.046 33.9976 141.987 34.184C141.915 34.4532 141.745 34.6857 141.511 34.8353C141.329 34.948 141.131 35.0332 140.94 35.1344C140.726 35.2328 140.519 35.3467 140.321 35.475C139.845 35.8225 139.282 35.9353 138.741 36.1033C138.548 36.1654 138.359 36.2414 138.168 36.315C138.142 36.3312 138.122 36.3566 138.113 36.3864C138.046 36.5751 137.989 36.7661 137.92 36.9525C137.851 37.1389 137.791 37.2816 137.717 37.4427C137.545 37.8178 137.365 38.1906 137.191 38.5657C137.18 38.6059 137.172 38.6466 137.165 38.6877L137.805 38.782C138.384 38.8741 138.934 38.7222 139.489 38.5795C140.043 38.4368 140.639 38.2435 141.244 38.2573L142.394 38.2919H142.525C142.567 38.0576 142.593 37.8208 142.603 37.5831C142.575 37.4428 142.524 37.3083 142.451 37.1849C142.424 37.1205 142.389 37.0607 142.359 36.9985C142.293 36.865 142.329 36.8006 142.472 36.7684C142.594 36.7462 142.714 36.7146 142.831 36.674C142.89 36.6507 142.941 36.613 142.982 36.5643C143.022 36.5156 143.049 36.4576 143.061 36.3956C143.178 35.9836 143.307 35.574 143.443 35.1667C143.599 34.6926 143.779 34.2254 143.933 33.749C144.025 33.466 144.078 33.1691 144.163 32.8814C144.198 32.6923 144.28 32.5148 144.4 32.3647C144.521 32.2146 144.676 32.0965 144.853 32.0207C144.952 31.9802 145.058 31.9584 145.166 31.9563C145.396 31.9563 145.626 31.9885 145.856 31.9977C145.927 31.9984 145.995 32.0208 146.053 32.062C146.111 32.1032 146.154 32.1611 146.178 32.2279C146.279 32.5063 146.343 32.794 146.146 33.0609C145.838 33.5292 145.587 34.032 145.398 34.5591C145.204 34.9554 145.058 35.3733 144.963 35.8041L144.943 35.9307L144.986 35.9652C145.025 35.902 145.07 35.8426 145.12 35.788C145.267 35.6545 145.416 35.5234 145.58 35.4037C145.789 35.2449 146.021 35.1137 146.217 34.9434C146.843 34.3888 147.475 33.8388 147.894 33.1024C148.147 32.6536 148.467 32.2348 148.584 31.7216C148.625 31.4845 148.642 31.244 148.637 31.0036C148.629 30.9258 148.594 30.8532 148.538 30.7987C148.425 30.7028 148.292 30.6325 148.149 30.5927C148.006 30.553 147.856 30.5448 147.71 30.5686C147.167 30.6048 146.636 30.7439 146.146 30.9782C145.962 31.0374 145.774 31.0843 145.584 31.1186C145.329 31.1728 145.08 31.2498 144.839 31.3488C144.501 31.5161 144.175 31.7068 143.864 31.9195C143.645 32.0645 143.454 32.2509 143.25 32.4166C143.137 32.5063 143.02 32.6306 142.865 32.5293C142.587 32.3613 142.495 32.1979 142.543 31.977C142.642 31.6215 142.831 31.2979 143.093 31.0381C143.34 30.7589 143.615 30.506 143.914 30.2832C144.192 30.0821 144.491 29.9108 144.805 29.7723C145.222 29.5741 145.654 29.4087 146.097 29.2776C146.799 29.0711 147.541 29.0436 148.257 29.1975C148.972 29.3515 149.637 29.682 150.192 30.159C150.546 30.4498 150.856 30.7909 151.112 31.1716C151.254 31.3783 151.347 31.6145 151.384 31.8624C151.422 32.1104 151.402 32.3635 151.328 32.603C151.212 33.015 150.943 33.3672 150.576 33.5879C150.201 33.8434 149.849 34.1311 149.465 34.3704C149.117 34.5858 148.755 34.7772 148.381 34.9434C147.531 35.329 146.804 35.9413 146.279 36.7132C146.049 37.056 145.75 37.3667 145.478 37.6958C146.143 38.0548 146.785 38.4276 147.452 38.7521C147.908 38.9692 148.378 39.1538 148.86 39.3044C149.135 39.3849 149.42 39.4245 149.706 39.4218C150.396 39.4218 151.087 39.385 151.777 39.3735C152.715 39.3574 153.592 39.0467 154.477 38.7866C154.716 38.6937 154.939 38.564 155.137 38.4023C155.191 38.3608 155.23 38.3029 155.248 38.2373C155.267 38.1718 155.263 38.1021 155.239 38.0387C155.173 37.8028 155.024 37.5985 154.82 37.4634C154.174 36.987 153.525 36.5152 152.885 36.0251C152.506 35.7464 152.177 35.4037 151.915 35.0125C151.583 34.497 151.579 33.9378 151.698 33.3509C151.942 32.1818 152.646 31.328 153.559 30.6261C154.001 30.2986 154.481 30.0251 154.988 29.8115C155.324 29.6311 155.685 29.5031 156.06 29.4318C156.494 29.3857 156.922 29.3558 157.318 29.632C157.594 29.8253 157.909 29.9588 158.204 30.1268C158.459 30.2823 158.656 30.5165 158.767 30.7941C158.825 30.9207 158.866 31.0542 158.914 31.1854C159.022 31.4776 158.765 32.0576 158.289 32.0346C157.948 32.0161 157.599 31.9701 157.267 31.9425C157.183 31.9332 157.097 31.9379 157.014 31.9563C156.087 32.1615 155.21 32.547 154.431 33.0909C154.078 33.337 153.756 33.6244 153.472 33.947C153.387 34.0386 153.323 34.1472 153.283 34.2655C153.243 34.3838 153.228 34.5092 153.24 34.6335C153.252 34.7578 153.29 34.8781 153.352 34.9867C153.414 35.0952 153.498 35.1895 153.598 35.2633C154.091 35.6776 154.622 36.0481 155.149 36.414C155.443 36.6234 155.765 36.7891 156.069 36.987C156.168 37.0486 156.256 37.1264 156.329 37.2171C156.648 37.5973 156.899 38.0303 157.07 38.4967C157.165 38.8002 157.144 39.1286 157.01 39.4172C156.983 39.4824 156.942 39.5406 156.89 39.5875C156.534 39.8591 156.216 40.1928 155.763 40.3239C155.186 40.5114 154.593 40.6439 153.992 40.7198C153.038 40.8233 152.079 40.8786 151.119 40.8855C150.386 40.9027 149.653 40.8387 148.934 40.6944C148.227 40.5265 147.535 40.3101 146.84 40.1053C146.762 40.0823 146.711 39.9741 146.636 39.9258C146.525 39.8586 146.41 39.7971 146.293 39.7417C145.57 39.3863 144.878 38.9722 144.223 38.5036C144.168 38.4663 144.111 38.4318 144.052 38.4Z" fill="white"/>
<path d="M121.489 32.3382C121.387 32.4464 121.291 32.5601 121.202 32.6788C120.59 33.5833 119.987 34.4969 119.361 35.4013C119.108 35.7695 118.83 36.1193 118.572 36.4829C118.436 36.6701 118.316 36.8679 118.211 37.0744C117.804 37.9144 117.114 38.2688 116.21 38.2941C116.008 38.3122 115.805 38.2877 115.613 38.2223C115.421 38.1569 115.245 38.052 115.097 37.9144C114.941 37.772 114.821 37.5941 114.749 37.3958C114.676 37.1975 114.653 36.9846 114.68 36.7752C114.707 36.4481 114.761 36.124 114.844 35.8063C115.066 35.1067 115.313 34.4163 115.584 33.7351C115.775 33.245 116.019 32.7732 116.226 32.2899C116.362 31.9746 116.491 31.6524 116.599 31.328C116.656 31.1508 116.661 30.9574 116.702 30.7733C116.722 30.6657 116.762 30.5629 116.821 30.471C116.881 30.3791 116.957 30.2999 117.047 30.2378C117.137 30.1758 117.239 30.1322 117.346 30.1095C117.453 30.0869 117.563 30.0857 117.671 30.106C117.727 30.1212 117.782 30.1445 117.832 30.175C118.062 30.2993 118.259 30.4442 118.487 30.5524C118.947 30.7664 119.044 31.5305 118.867 31.8987C118.637 32.3589 118.439 32.8192 118.177 33.2634C117.718 34.0303 117.307 34.825 116.946 35.6429C116.889 35.7649 116.84 35.8892 116.79 36.0135C116.787 36.0341 116.787 36.0549 116.79 36.0756C116.879 36.1061 116.976 36.1082 117.067 36.0814C117.158 36.0546 117.239 36.0003 117.298 35.926C117.672 35.5378 118.042 35.1443 118.409 34.7454C119.05 34.0428 119.689 33.3393 120.325 32.6351C120.585 32.3474 120.836 32.0483 121.093 31.756C121.211 31.6225 121.323 31.4913 121.45 31.3579C121.843 30.9229 122.23 30.4811 122.632 30.053C122.762 29.901 122.92 29.7761 123.098 29.6856C123.276 29.5952 123.471 29.5409 123.67 29.526C123.775 29.5206 123.881 29.5406 123.977 29.5844C124.074 29.6281 124.158 29.6944 124.224 29.7775C124.289 29.8607 124.334 29.9583 124.354 30.0623C124.374 30.1663 124.369 30.2736 124.339 30.3752C124.196 30.7871 124.015 31.183 123.835 31.5811C123.541 32.2393 123.217 32.8859 122.938 33.551C122.591 34.3841 122.195 35.1965 121.926 36.0641C121.76 36.6026 121.51 37.1135 121.317 37.6451C121.015 38.4782 120.732 39.3182 120.436 40.1535C120.348 40.3998 120.286 40.6713 120.038 40.8186C119.944 40.8694 119.843 40.9036 119.739 40.9199C119.538 40.9567 119.334 40.9774 119.134 41.005C119.028 41.0266 118.921 41.0404 118.814 41.0465C118.236 41.0465 117.664 41.0649 117.082 41.0096C116.583 40.9397 116.087 40.8437 115.598 40.722C115 40.5977 114.404 40.4665 113.806 40.3376C113.737 40.3238 113.641 40.3376 113.608 40.2847C113.455 40.0932 113.316 39.8909 113.192 39.6795C113.141 39.592 113.305 39.4631 113.468 39.4493L113.951 39.4171L116.905 39.2468C117.397 39.2169 117.891 39.1939 118.381 39.1479C118.428 39.1346 118.472 39.1109 118.508 39.0787C118.545 39.0464 118.574 39.0064 118.593 38.9615C118.97 37.9074 119.536 36.9455 120.01 35.9375C120.229 35.4772 120.38 34.9733 120.585 34.5015C120.769 34.0711 120.983 33.6546 121.188 33.2335C121.289 33.0263 121.399 32.8215 121.496 32.6121C121.523 32.5375 121.542 32.4604 121.553 32.382L121.489 32.3382Z" fill="white"/>
<path d="M101.115 39.3757C101.115 38.8993 101.115 38.4943 101.115 38.0892C101.143 36.5364 101.387 34.9951 101.84 33.5096C102.024 32.8721 102.176 32.2208 102.319 31.5696C102.34 31.3784 102.34 31.1854 102.319 30.9942C102.319 30.7342 102.42 30.6191 102.677 30.626C103.293 30.6395 103.889 30.8438 104.384 31.2106C104.498 31.2989 104.582 31.4208 104.623 31.559C104.664 31.6973 104.661 31.8451 104.614 31.9815C104.449 32.7202 104.278 33.459 104.087 34.1908C103.989 34.5682 103.825 34.9295 103.717 35.3069C103.487 36.094 103.273 36.8879 103.068 37.6819C102.993 37.9834 102.963 38.2963 102.912 38.6024C102.903 38.6394 102.903 38.6782 102.912 38.7152C102.928 38.7687 102.96 38.8161 103.004 38.851C103.025 38.8648 103.101 38.8187 103.128 38.7819C103.308 38.5403 103.476 38.2871 103.657 38.0478C103.95 37.6025 104.209 37.1355 104.43 36.6509C104.843 35.8563 105.304 35.0878 105.81 34.3496C106.337 33.581 106.799 32.7696 107.191 31.924C107.34 31.6202 107.524 31.3325 107.669 31.0264C107.899 30.5662 108.085 30.1059 108.295 29.6457C108.349 29.5286 108.411 29.4155 108.481 29.3074C108.507 29.2539 108.548 29.2089 108.598 29.1774C108.648 29.1459 108.707 29.1292 108.766 29.1292C108.826 29.1292 108.884 29.1459 108.934 29.1774C108.985 29.2089 109.025 29.2539 109.051 29.3074C109.142 29.4476 109.196 29.608 109.209 29.7742C109.222 29.9404 109.194 30.1073 109.127 30.2601C108.688 31.5419 108.17 32.7916 107.607 34.0251C107.209 34.8996 106.705 35.7281 106.24 36.5703C105.813 37.3459 105.371 38.1122 104.936 38.8832C104.851 39.0328 104.764 39.1824 104.676 39.3319C104.499 39.6403 104.304 39.9395 104.152 40.2525C104.051 40.4968 103.869 40.6988 103.636 40.8245C103.404 40.9503 103.135 40.9921 102.875 40.9429C102.599 40.9153 102.321 40.883 102.047 40.8301C101.882 40.7996 101.728 40.7285 101.597 40.6232C101.467 40.518 101.364 40.3818 101.3 40.2272C101.155 39.9679 101.091 39.6715 101.115 39.3757Z" fill="white"/>
<path d="M136.365 31.2452C135.857 30.4953 135.136 29.915 134.295 29.579C133.98 29.4616 133.641 29.3489 133.303 29.4662C133.053 29.5738 132.811 29.6991 132.579 29.8414C132.112 30.1061 131.694 30.4477 131.341 30.8516C130.8 31.4693 130.347 32.1594 129.996 32.9021C129.579 33.7559 129.25 34.6511 128.88 35.5279C128.844 35.6042 128.793 35.6717 128.728 35.7259C128.617 35.8064 128.49 35.8641 128.357 35.8957C128.223 35.9273 128.084 35.9321 127.948 35.91C127.916 35.9128 127.883 35.909 127.852 35.8989C127.821 35.8888 127.792 35.8725 127.767 35.851C127.743 35.8295 127.722 35.8033 127.708 35.7739C127.694 35.7445 127.686 35.7125 127.684 35.6798C127.678 35.6155 127.678 35.5508 127.684 35.4865C127.725 35.0953 127.773 34.7041 127.806 34.3128C127.866 33.6316 127.92 32.9489 127.969 32.2647C128.024 31.4638 128.075 30.6537 128.112 29.8598C128.114 29.794 128.102 29.7286 128.078 29.6676C128.053 29.6065 128.016 29.5513 127.969 29.5054C127.771 29.3597 127.553 29.2427 127.323 29.1579C127.215 29.1255 127.099 29.1338 126.996 29.1813C126.894 29.2288 126.813 29.3122 126.768 29.4156C126.701 29.5504 126.644 29.6895 126.596 29.8322C126.426 30.3901 126.201 30.9298 125.924 31.4431C125.333 32.4649 124.774 33.5143 124.22 34.5476C123.716 35.5072 123.256 36.4876 122.766 37.4541C122.609 37.7625 122.49 38.1123 122.122 38.2458C121.952 38.3079 121.772 38.3379 121.602 38.4C121.511 38.4259 121.431 38.4789 121.372 38.5519C121.344 38.5933 121.388 38.7015 121.427 38.7636C121.495 38.8676 121.572 38.9654 121.657 39.0559C121.832 39.2538 121.836 39.286 121.71 39.5161C121.611 39.7071 121.512 39.8982 121.42 40.0938C121.296 40.3607 121.33 40.6438 121.514 40.7566C121.736 40.8964 121.966 41.0209 122.205 41.1294C122.547 41.2813 122.761 41.1846 122.879 40.8325C123.012 40.4298 123.109 40.0178 123.256 39.6151C123.315 39.4171 123.425 39.2378 123.574 39.0946C123.723 38.9515 123.907 38.8493 124.107 38.7981C124.705 38.6531 125.186 38.3056 125.689 37.9881C125.754 37.9409 125.824 37.9 125.896 37.8661C126.025 37.8132 126.087 37.8661 126.08 37.9927C126.076 38.2513 126.056 38.5095 126.021 38.7659C125.952 39.1617 125.864 39.5576 125.765 39.9465C125.727 40.0659 125.727 40.1941 125.764 40.3139C125.801 40.4337 125.873 40.5392 125.972 40.6162C126.244 40.8463 126.522 41.0764 126.814 41.272C126.94 41.3445 127.077 41.3951 127.219 41.4216C127.243 41.4314 127.269 41.4354 127.295 41.4334C127.321 41.4314 127.346 41.4234 127.369 41.41C127.391 41.3966 127.41 41.3782 127.424 41.3563C127.438 41.3343 127.446 41.3094 127.449 41.2836C127.493 41.0534 127.53 40.8049 127.55 40.5655C127.592 39.9525 127.592 39.3375 127.55 38.7245C127.493 38.1862 127.567 37.6421 127.767 37.1389C127.937 36.7522 128.266 36.5267 128.615 36.2713C128.612 36.3069 128.607 36.3422 128.599 36.3771C128.351 37.2746 128.07 38.1653 128.056 39.1111C128.033 39.3087 128.066 39.5088 128.151 39.6887C128.341 40.013 128.634 40.2642 128.983 40.4021C129.327 40.555 129.68 40.6835 130.042 40.7865C130.253 40.8451 130.476 40.8451 130.688 40.7865C130.873 40.6994 131.032 40.5643 131.148 40.3952C131.437 40.0253 131.655 39.6047 131.79 39.1548C131.888 38.8401 132.055 38.551 132.277 38.3079C132.332 38.2603 132.392 38.22 132.457 38.1883L132.51 38.2251C132.482 38.377 132.448 38.5266 132.429 38.6854C132.383 39.0536 132.333 39.4218 132.305 39.7923C132.284 40.0489 132.284 40.3067 132.305 40.5632C132.353 41.134 132.899 41.4608 133.356 41.5597C133.491 41.5927 133.631 41.5873 133.763 41.5442C133.894 41.5011 134.011 41.4219 134.099 41.3158C134.221 41.1869 134.18 41.0534 134.007 41.0304C133.909 41.0239 133.817 40.9801 133.749 40.9078C133.682 40.8354 133.645 40.7402 133.646 40.6415C133.595 40.3552 133.575 40.0644 133.586 39.7739C133.656 39.0832 133.825 38.4064 134.09 37.7648C134.32 37.1711 134.61 36.5958 134.858 36.0066C135.022 35.62 135.167 35.2265 135.318 34.8329C135.357 34.7386 135.357 34.6327 135.318 34.5384C135.283 34.4671 135.224 34.4105 135.151 34.3785C135.078 34.3465 134.997 34.3412 134.92 34.3635C134.46 34.5154 134 34.6488 133.563 34.8237C133.348 34.9195 133.141 35.0335 132.945 35.1643C132.714 35.2955 132.505 35.4336 132.287 35.5671C132.143 35.6405 132.005 35.7252 131.875 35.8202C131.818 35.8616 131.774 35.9171 131.745 35.9811C131.717 36.0451 131.705 36.1154 131.712 36.1851C131.719 36.2548 131.744 36.3215 131.785 36.3786C131.826 36.4357 131.88 36.4812 131.944 36.5106C132.047 36.5675 132.155 36.6152 132.266 36.6533C132.422 36.7108 132.459 36.7753 132.358 36.9133C132.128 37.2125 131.923 37.5163 131.668 37.7947C131.327 38.186 130.978 38.5611 130.607 38.9316C130.445 39.1055 130.263 39.26 130.065 39.3919C129.908 39.4908 129.835 39.431 129.848 39.2446C129.892 38.8718 129.947 38.4989 130.023 38.133C130.083 37.85 130.189 37.5761 130.267 37.2954C130.465 36.5704 130.633 35.8363 131.005 35.1689C131.288 34.6603 131.539 34.1356 131.808 33.6201C132.038 33.1599 132.28 32.6996 132.537 32.2531C132.806 31.7703 133.179 31.353 133.628 31.0311C133.97 30.801 134.168 30.8217 134.467 31.0749C134.84 31.3925 135.187 31.7423 135.548 32.0736C135.623 32.144 135.705 32.2051 135.795 32.2554C135.851 32.2847 135.916 32.2928 135.979 32.2785C136.084 32.2531 136.183 32.2021 136.264 32.13C136.346 32.0578 136.408 31.9667 136.447 31.8647C136.485 31.7626 136.497 31.6528 136.483 31.5447C136.469 31.4367 136.428 31.3338 136.365 31.2452ZM126.297 34.1586C126.267 34.6787 126.242 35.2034 126.207 35.7235C126.191 35.9537 126.17 36.1838 126.136 36.3978C126.126 36.4703 126.091 36.5369 126.036 36.5858C125.982 36.6347 125.912 36.6627 125.839 36.6648C125.625 36.697 125.42 36.7845 125.206 36.8282C124.992 36.8719 124.813 36.8788 124.581 36.9064C125.163 35.6637 125.731 34.4555 126.292 33.2496L126.347 33.2634C126.331 33.5626 126.313 33.8595 126.297 34.1586Z" fill="white"/>
<path d="M114.576 32.2486C114.536 32.1208 114.477 31.9997 114.401 31.8896C114.084 31.4517 113.695 31.0705 113.251 30.7619C112.772 30.351 112.193 30.0746 111.572 29.961C111.344 29.9092 111.105 29.9436 110.9 30.0577C110.745 30.1448 110.596 30.2425 110.454 30.35C110.169 30.5916 109.865 30.8217 109.736 31.2038C109.57 31.7059 109.325 32.1782 109.009 32.603C108.341 33.5207 107.804 34.5277 107.415 35.5947C107.169 36.2462 107.066 36.9433 107.114 37.6383C107.126 37.8201 107.165 37.9996 107.174 38.1814C107.224 38.7352 107.391 39.2722 107.661 39.7578C107.927 40.2382 108.358 40.6055 108.874 40.7911C109.257 40.984 109.688 41.0587 110.114 41.0059C110.539 40.953 110.94 40.775 111.264 40.4942C111.798 40.0786 112.256 39.5742 112.619 39.003C112.883 38.5726 113.104 38.1169 113.366 37.6843C113.761 37.0653 114.088 36.4056 114.341 35.7167C114.571 35.0769 114.834 34.4463 114.802 33.8871C114.808 33.3328 114.732 32.7806 114.576 32.2486ZM113.454 33.9907C113.431 34.2965 113.383 34.5998 113.309 34.8974C113.161 35.3577 112.964 35.7995 112.775 36.246C112.583 36.7338 112.309 37.1852 111.965 37.5807C111.59 37.995 111.172 38.3701 110.765 38.7544C110.417 39.06 110.035 39.3241 109.626 39.5415C109.384 39.6795 109.239 39.6036 109.166 39.3274C108.98 38.5144 109.02 37.6658 109.283 36.8742C109.57 35.8418 109.972 34.8446 110.479 33.9009C110.686 33.512 110.891 33.1208 111.107 32.7341C111.302 32.3551 111.564 32.0144 111.88 31.7285C112.003 31.6058 112.154 31.5162 112.321 31.468C112.487 31.4197 112.663 31.4143 112.832 31.4523C112.942 31.4893 113.042 31.5496 113.127 31.6291C113.211 31.7085 113.277 31.8052 113.32 31.9126C113.46 32.1818 113.624 32.4534 113.562 32.7848H113.612C113.562 33.1921 113.511 33.5994 113.454 33.9907Z" fill="white"/>
<path d="M48.2825 5.80859H42.7504C42.7279 5.80895 42.7058 5.81454 42.6858 5.82493C42.6658 5.83531 42.6486 5.85021 42.6353 5.86843L39.3345 10.5332L39.2493 10.6529L30.4324 23.0524C30.4182 23.0729 30.3987 23.0892 30.376 23.0995C30.3532 23.1097 30.3282 23.1137 30.3034 23.1108C30.2786 23.108 30.2551 23.0985 30.2353 23.0834C30.2155 23.0682 30.2001 23.048 30.1909 23.0248L23.6167 7.07663C23.6068 7.05364 23.591 7.03371 23.5709 7.01889C23.5508 7.00407 23.5271 6.99489 23.5022 6.99231C23.4774 6.98973 23.4523 6.99384 23.4295 7.00421C23.4068 7.01458 23.3872 7.03084 23.3729 7.05131L20.5297 11.1132C20.5159 11.1326 20.5073 11.1554 20.5049 11.1792C20.5025 11.203 20.5063 11.227 20.5159 11.2489L29.878 33.1392C29.8881 33.162 29.9041 33.1817 29.9244 33.1963C29.9446 33.2109 29.9684 33.2198 29.9932 33.2222C30.018 33.2245 30.0431 33.2202 30.0657 33.2097C30.0883 33.1991 30.1077 33.1827 30.1219 33.1622L42.2075 15.2118C44.1992 19.4234 44.623 24.208 43.4025 28.7044C42.182 33.2007 39.3974 37.1136 35.5498 39.7387C31.7023 42.3638 27.0445 43.5288 22.4149 43.0239C17.7852 42.519 13.4877 40.3775 10.2958 36.9847L8.01855 40.2503C12.0822 44.2532 17.4632 46.6394 23.1568 46.9634C28.8504 47.2873 34.4672 45.5268 38.9582 42.0106C43.4492 38.4945 46.5074 33.463 47.5617 27.856C48.616 22.2489 47.5942 16.4497 44.6872 11.5412L48.3998 6.01801C48.4117 5.99701 48.418 5.9733 48.418 5.94917C48.4181 5.92504 48.4119 5.90131 48.4001 5.88026C48.3883 5.85921 48.3713 5.84156 48.3507 5.82901C48.3301 5.81645 48.3066 5.80942 48.2825 5.80859Z" fill="white"/>
<path d="M9.10367 35.6177L18.3393 22.6106C18.3538 22.5902 18.3735 22.574 18.3964 22.5638C18.4192 22.5536 18.4444 22.5497 18.4693 22.5526C18.4942 22.5554 18.5178 22.5648 18.5379 22.5799C18.5579 22.5949 18.5735 22.6151 18.5831 22.6382L25.6978 39.3527C25.7077 39.3761 25.7237 39.3963 25.7442 39.4113C25.7646 39.4263 25.7888 39.4355 25.814 39.4378C25.8393 39.4402 25.8647 39.4357 25.8876 39.4247C25.9104 39.4138 25.9299 39.3969 25.944 39.3757L28.6698 35.3277C28.6805 35.3071 28.686 35.2842 28.686 35.261C28.686 35.2377 28.6805 35.2148 28.6698 35.1942L19.2962 13.2465C19.2863 13.2235 19.2705 13.2036 19.2504 13.1887C19.2303 13.1739 19.2065 13.1647 19.1817 13.1621C19.1568 13.1596 19.1317 13.1637 19.109 13.174C19.0863 13.1844 19.0667 13.2007 19.0523 13.2211L6.47446 31.1853C4.68251 27.0363 4.38195 22.3945 5.62387 18.0489C6.86578 13.7033 9.57352 9.922 13.2869 7.34778C17.0002 4.77355 21.49 3.56523 25.9931 3.9282C30.4962 4.29117 34.7347 6.20303 37.9882 9.33881L40.2884 6.13536C36.1782 2.37773 30.8669 0.203915 25.3027 0.00201561C19.7385 -0.199883 14.2838 1.58328 9.91224 5.03315C5.54073 8.48301 2.53708 13.375 1.43755 18.8357C0.338023 24.2964 1.2142 29.9703 3.90965 34.8444L0.0244952 40.3975C0.00640242 40.4177 -0.00534466 40.4428 -0.00928005 40.4696C-0.0132154 40.4965 -0.00916487 40.5239 0.00236619 40.5484C0.0138972 40.573 0.0323981 40.5936 0.0555601 40.6077C0.0787221 40.6217 0.105519 40.6287 0.132608 40.6276L5.26681 40.9084C5.29033 40.9098 5.31382 40.9053 5.33513 40.8952C5.35644 40.8852 5.37487 40.8699 5.38873 40.8509L6.75739 38.9224L9.10367 35.6177Z" fill="white"/>
</g>
<defs>
<clipPath id="clip0_732_498">
<rect width="160" height="47" fill="white"/>
</clipPath>
</defs>
</svg>
