<svg width="140" height="139" viewBox="0 0 140 139" fill="none" xmlns="http://www.w3.org/2000/svg">
<path d="M119.797 42.8137C118.863 41.1647 117.718 40.6033 114.829 40.3838C113.951 40.313 113.129 40.2083 113.02 40.1238C112.895 40.044 112.321 39.3105 111.714 38.4694C108.892 34.5187 104.929 30.4085 101.304 27.6403L99.9945 26.6419L99.7055 25.0163C99.1137 21.719 98.1099 20.1749 95.8264 19.0673C95.1341 18.7221 93.8947 18.2902 93.0454 18.0931C90.5238 17.4772 89.511 17.128 87.394 16.071C86.2098 15.488 84.9364 14.9992 84.3492 14.891C83.7867 14.8088 81.4521 14.5899 79.1515 14.4279C75.2407 14.1641 74.9048 14.1647 73.8267 14.4901C72.5746 14.8512 71.9498 15.3421 71.0795 16.5786L70.6552 17.1769L68.6645 17.2068C64.7094 17.2418 59.9063 17.9191 56.7491 18.8719L55.0396 19.3879L53.7643 18.6142C51.4788 17.2217 50.5037 17.3313 47.5929 19.2677C43.7787 21.8295 41.8788 22.7723 37.4282 24.2835C35.9529 24.7959 34.4191 25.3931 34.0405 25.6418C31.7145 27.0658 30.7376 29.1742 30.4358 33.4633C30.3573 34.5952 30.271 35.6456 30.2713 35.8134C30.2515 35.9705 29.7411 36.7291 29.1136 37.4894C27.3464 39.6516 25.7706 42.0582 24.4139 44.6338L23.1694 47.0245L22.0373 47.2822C18.7951 48.0089 17.2655 49.3437 16.4053 52.1725C15.7751 54.2602 12.6624 72.8983 12.6678 74.4751C12.6943 75.6762 13.2568 76.8162 14.5918 78.3443C16.8636 80.9163 18.7471 82.4804 20.3119 83.0996L21.1521 83.4337L21.9567 85.7097C24.2373 92.2083 27.7588 98.0301 32.617 103.381C35.3254 106.342 37.22 108.054 40.3635 110.396L42.162 111.734L42.7026 113.637C43.147 115.165 43.3604 115.705 43.7912 116.297C44.8287 117.73 44.5512 117.646 59.7148 121.398C65.2728 122.777 66.4624 122.821 69.7535 121.811C71.771 121.202 72.0959 121.053 73.0732 120.339L74.1645 119.556L75.6635 119.456C77.5199 119.316 79.7736 118.988 81.6789 118.564L83.1329 118.26L84.4716 119.132C86.0648 120.179 87.3538 120.831 88.1737 120.987C89.2819 121.206 90.6523 120.625 95.2415 118.014C97.5337 116.701 100.146 115.224 101.051 114.716C103.565 113.302 105.194 112.239 105.646 111.734C106.625 110.632 106.889 109.394 106.881 105.971C106.886 104.928 106.962 104.401 107.167 104.188C111.122 99.754 113.04 97.0926 115.353 92.7844C118.294 87.3294 120.286 80.9014 120.996 74.6251C121.085 73.8596 121.224 73.0956 121.3 72.9045C121.397 72.7242 122.171 72.0036 123.036 71.306C124.209 70.3475 124.718 69.8076 125.051 69.1865C125.54 68.3001 125.712 66.9216 125.514 65.4868C125.39 64.517 124.287 59.8625 123.443 56.675C123.13 55.5268 122.758 53.7921 122.613 52.8114C122.24 50.4053 120.412 43.9043 119.797 42.8137ZM121.827 52.7128C121.931 53.3363 122.533 55.9421 123.161 58.5233C125.383 67.5582 125.386 68.3466 123.256 70.1984C121.22 71.9715 120.439 72.7783 119.84 73.7988C119.203 74.864 119.126 75.4416 119.751 74.5643C119.916 74.3299 120.14 74.1278 120.242 74.1306C120.481 74.1425 119.506 79.7094 118.812 82.253C117.298 87.8147 114.891 92.9239 111.372 97.9657C109.54 100.584 108.826 101.169 104.456 103.613C101.538 105.249 98.7867 106.432 95.7527 107.348C91.3019 108.691 88.6461 109.023 83.4905 108.866C79.2193 108.744 78.6925 108.836 74.9075 110.382C72.6162 111.308 71.8662 111.551 70.9774 111.669C69.7311 111.826 68.4228 111.667 67.322 111.193C66.437 110.822 64.2591 109.23 63.4042 108.346C62.199 107.081 59.9251 105.114 58.8223 104.355C57.2399 103.288 55.9174 102.915 53.3951 102.853C51.0206 102.781 50.5473 102.604 49.3128 101.298C48.0736 99.9758 47.3046 99.8217 45.0822 100.476C42.367 101.278 40.2084 101.308 37.8978 100.612C33.3829 99.2377 30.3677 95.0934 28.3767 87.5502C27.0101 82.3542 26.804 78.3863 27.5996 72.5041C28.0782 68.9677 27.9679 68.3797 26.4735 66.3791C24.9698 64.3477 24.4015 63.411 23.7365 61.7646C22.4298 58.5487 21.5284 52.2215 21.9291 49.0948L22.0615 48.0305L23.1733 47.5942C24.4345 47.0961 25.1549 46.6435 25.5732 46.0807C25.976 45.5225 25.6724 45.463 25.0214 45.9786C24.7244 46.2193 24.4611 46.3492 24.4333 46.2568C24.2986 45.8105 27.6356 40.3871 29.3874 38.2296L30.1317 37.2996L30.2989 37.8537C30.3872 38.1461 30.5231 38.3737 30.6155 38.3458C30.8773 38.2668 30.9903 37.5275 31.1117 35.2575C31.3574 30.448 32.0812 28.1138 33.7726 26.8141C34.459 26.3047 35.0626 26.0218 37.4018 25.1982C42.3066 23.466 44.7177 22.2681 47.8606 20.0433C49.7415 18.7032 50.8379 18.2716 51.8397 18.473C52.1834 18.554 53.1209 19.0434 53.9352 19.5701C55.5237 20.6019 56.854 21.0568 57.0799 20.636C57.1767 20.4557 57.1381 20.3834 56.9208 20.3314C56.7589 20.2963 56.4213 20.1799 56.17 20.071L55.7075 19.8748L56.6269 19.5805C59.6562 18.6494 65.1434 17.9001 69.0322 17.8682L70.1724 17.86L69.507 19.0515C68.8477 20.2076 68.7389 20.6267 69.1393 20.5058C69.3857 20.4314 69.8778 19.7792 71.203 17.7672C73.0494 14.9766 73.4344 14.8604 78.8338 15.2122C83.9327 15.5708 84.8636 15.76 87.383 16.9811C89.466 17.9812 90.0056 18.1542 93.0481 18.8815C93.9529 19.0954 95.1923 19.5274 95.8137 19.8604C97.7087 20.8501 98.3791 21.9575 99.0448 25.1654C99.2868 26.3013 99.6261 27.5926 99.7963 28.0451C100.095 28.8114 100.119 28.8375 100.088 28.3432C100.081 28.043 100.135 27.7749 100.212 27.7517C100.535 27.6541 104.573 31.2884 106.854 33.7233C109.184 36.2105 111.63 39.2502 111.614 39.6414C111.611 39.743 111.199 39.5482 110.684 39.2335C109.85 38.6961 109.32 38.5539 109.417 38.8771C109.436 38.9386 109.752 39.263 110.115 39.5733C111.023 40.357 112.824 40.9218 114.633 41.014C116.574 41.0997 117.02 41.1835 117.769 41.6626C118.345 42.0095 118.655 42.3693 119.209 43.2598C119.481 43.7151 121.639 51.4767 121.827 52.7128Z" fill="url(#paint0_linear_289_7684)"/>
<path d="M117.823 43.8461C117.06 43.6565 116.83 49.6871 117.437 53.8697C117.564 54.738 118.04 56.5926 118.63 58.5472C119.709 62.0668 120.703 64.3024 122.216 66.5324C123.574 68.524 124.239 68.5582 123.172 66.5799C122.654 65.6446 122.541 65.3261 122.584 64.9103C122.644 64.2203 122.399 60.9023 122.167 59.4106C121.595 55.6206 120.349 51.7147 118.649 48.3656C117.807 46.6887 117.807 46.6887 117.901 45.8878C118.02 44.7773 117.989 43.8966 117.823 43.8461Z" fill="url(#paint1_linear_289_7684)"/>
<path d="M113.842 45.1315C113.626 45.1966 113.533 46.6689 113.608 48.4765C113.713 50.8292 113.824 51.5851 114.058 51.4138C114.281 51.2624 114.273 51.3487 114.187 47.9996C114.118 45.4344 114.073 45.0618 113.842 45.1315Z" fill="url(#paint2_linear_289_7684)"/>
<path d="M112.582 44.1856C112.124 44.8948 112.047 47.2017 112.415 49.0889C112.74 50.7205 113.034 50.4135 112.857 48.603C112.797 47.8486 112.74 46.489 112.751 45.5789C112.754 44.4194 112.715 44.0114 112.582 44.1856Z" fill="url(#paint3_linear_289_7684)"/>
<path d="M115.353 63.4992C115.115 63.1008 114.099 62.8533 113.483 63.0392C112.96 63.1972 112.385 64.076 112.439 64.6472C112.468 64.9074 112.65 65.2889 112.852 65.5134C114.114 66.9123 116.36 65.1096 115.353 63.4992Z" fill="url(#paint4_linear_289_7684)"/>
<path d="M111.878 53.0454C111.641 52.9827 111.618 53.0736 111.659 54.1022C111.694 55.5527 110.885 56.7707 108.26 59.2085C105.138 62.1154 105.644 62.0637 109.057 59.1193C111.123 57.3369 111.814 56.3393 112.092 54.8113C112.22 54.0673 112.1 53.1128 111.878 53.0454Z" fill="url(#paint5_linear_289_7684)"/>
<path d="M110.141 53.4693C110.08 53.4879 109.879 53.9348 109.681 54.448C109.179 55.7916 108.634 56.4933 106.994 57.9623C106.211 58.6521 105.014 59.7522 104.344 60.374C103.351 61.3121 102.992 61.5715 102.34 61.7513C100.622 62.2365 96.8665 60.9854 93.4797 58.7835C91.5612 57.549 91.1265 57.4451 92.2513 58.4994C94.2031 60.3451 97.9482 62.1198 100.696 62.4827C101.416 62.5845 101.976 62.5496 102.654 62.3451C103.506 62.1048 103.729 61.9535 104.923 60.7872C105.651 60.0806 106.717 59.1038 107.296 58.627C109.11 57.1222 110.18 55.4895 110.233 54.1636C110.245 53.757 110.203 53.4507 110.141 53.4693Z" fill="url(#paint6_linear_289_7684)"/>
<path d="M106.417 49.203C105.503 48.0683 104.931 47.6197 103.566 46.9401C102.086 46.2114 100.591 45.823 97.1357 45.2874C93.9996 44.8067 93.1122 44.873 91.5926 45.6842C90.4811 46.2884 88.1913 48.2221 87.5286 49.1442C86.7228 50.2605 86.8634 51.5614 87.9425 52.9653C89.497 54.9981 94.1902 58.1323 96.9093 58.9572C99.4219 59.7102 101.043 59.624 102.827 58.6321C105.698 57.0099 107.309 55.1637 107.606 53.1429C107.794 51.9276 107.292 50.2654 106.417 49.203ZM104.135 54.5598C104.054 55.0712 103.689 56.0882 103.316 56.8557C102.737 58.0548 102.552 58.2785 101.995 58.5474C100.226 59.3668 97.5486 58.8483 94.2117 57.0343C91.4407 55.5366 88.5712 53.0442 87.9498 51.6533C87.6405 50.9071 87.6454 50.0324 87.993 49.6253C88.3084 49.2782 89.8098 48.7411 91.2793 48.4319C92.9428 48.0978 93.5623 48.1459 95.2581 48.8095C95.8424 49.0194 97.2974 49.3863 98.5026 49.5934C102.816 50.3569 104.598 51.9181 104.135 54.5598Z" fill="url(#paint7_linear_289_7684)"/>
<path d="M96.3201 22.0415C96.2431 22.0648 96.1587 22.3421 96.1145 22.6409C96.0702 22.9397 95.906 23.342 95.7691 23.5008C95.5214 23.7938 95.4305 23.7709 94.3632 23.0184C91.5052 21.0095 90.7513 20.6829 87.8046 20.1618C86.1185 19.8646 84.5801 19.3886 83.4515 18.8225C81.8771 18.0047 79.2045 17.3336 77.4649 17.3045C76.4526 17.291 76.1397 17.2007 75.0988 16.5913C74.3478 16.1631 73.8144 15.9547 73.6943 16.0581C73.5851 16.1414 73.5205 16.2616 73.5438 16.3386C73.6227 16.6002 76.8767 18.6407 79.657 20.1692C84.2907 22.7168 87.1272 23.7078 91.5778 24.3124C94.1175 24.6542 95.079 24.6662 95.7148 24.3232C96.443 23.9523 96.7995 23.2402 96.5904 22.5477C96.5022 22.2552 96.3817 22.0229 96.3201 22.0415Z" fill="url(#paint8_linear_289_7684)"/>
<path d="M113.178 78.899C112.885 78.6516 112.52 78.4428 112.363 78.4231C111.849 78.3933 111.026 78.7259 110.592 79.1255C109.932 79.7781 109.791 80.2572 110.046 80.9358C110.643 82.4684 113.227 81.957 113.664 80.23C113.859 79.4828 113.84 79.4213 113.178 78.899Z" fill="url(#paint9_linear_289_7684)"/>
<path d="M95.5884 28.8616C94.5778 28.9651 93.2683 29.0245 92.6581 29.0071C91.3561 28.9803 88.7577 28.5555 87.6232 28.1926C86.6752 27.8911 86.4302 27.9146 86.9808 28.2354C87.7256 28.6991 89.4105 29.2149 90.8298 29.4078C93.0289 29.7348 96.3905 29.4591 97.1138 28.9049C97.3324 28.7382 96.9611 28.7327 95.5884 28.8616Z" fill="url(#paint10_linear_289_7684)"/>
<path d="M95.7731 26.9085C92.598 27.2455 89.5482 26.7723 84.4891 25.2095C80.0805 23.8533 80.0959 23.8487 81.1168 24.4473C84.1808 26.1925 90.1073 27.6782 93.4551 27.5242C95.3255 27.4298 96.8135 27.1822 96.7485 26.9668C96.7252 26.8898 96.2784 26.8568 95.7731 26.9085Z" fill="url(#paint11_linear_289_7684)"/>
<path d="M100.34 44.2698C99.9855 44.2088 98.6923 43.8771 97.4607 43.5268C96.2291 43.1764 94.7418 42.8697 94.1316 42.8523C93.1455 42.8141 92.8436 42.8716 90.9879 43.5157C88.9213 44.2402 88.4563 44.4813 87.0265 45.5341C86.2154 46.1315 85.3849 47.2218 85.6301 47.366C85.7257 47.4044 86.1044 47.1557 86.4659 46.7947C87.5538 45.778 88.4189 45.2482 90.2342 44.4148C91.5846 43.8225 92.1498 43.6352 92.9771 43.5366C94.3204 43.3663 94.7364 43.4086 97.1316 43.9955C98.2075 44.2753 99.2139 44.4921 99.3511 44.5011C99.4929 44.5254 99.9043 44.5524 100.254 44.5979C101.091 44.698 101.166 44.3899 100.34 44.2698Z" fill="url(#paint12_linear_289_7684)"/>
<path d="M113.135 87.4931C113.038 87.8412 112.624 89.3095 112.206 90.7624C111.767 92.2045 111.464 93.3707 111.495 93.3614C111.649 93.315 112.341 91.7122 112.666 90.6737C113.051 89.4997 113.459 87.3446 113.371 87.0522C113.339 86.9445 113.231 87.1449 113.135 87.4931Z" fill="url(#paint13_linear_289_7684)"/>
<path d="M112.069 85.7997C112.022 85.8137 111.865 86.5161 111.723 87.3818C111.576 88.2321 111.281 89.6478 111.077 90.532C110.475 93.0477 110.929 92.6588 111.662 90.0197C112.099 88.4605 112.361 85.7114 112.069 85.7997Z" fill="url(#paint14_linear_289_7684)"/>
<path d="M95.7596 41.3374C95.2694 41.2167 94.5097 41.0933 94.0366 41.085C92.9273 41.084 89.7483 41.9091 88.3657 42.5615C87.3387 43.0561 86.2428 43.8235 86.4232 43.9201C86.4787 43.937 87.1471 43.7017 87.9201 43.3676C91.6495 41.8054 93.7474 41.4073 95.8312 41.8531C97.075 42.1326 97.0112 41.6985 95.7596 41.3374Z" fill="url(#paint15_linear_289_7684)"/>
<path d="M103.077 73.8207C102.811 73.6657 102.468 73.5847 102.314 73.6312C102.021 73.7195 101.48 74.3195 101.363 74.657C101.234 75.0653 101.625 75.9715 102.074 76.2894C103.032 76.9575 104.135 75.9361 103.764 74.7049C103.624 74.2432 103.453 74.0094 103.077 73.8207Z" fill="url(#paint16_linear_289_7684)"/>
<path d="M105.838 85.0272C105.422 85.3205 105.456 87.1575 105.893 88.9399C106.175 90.0973 106.267 90.7916 106.179 91.0028C105.884 91.6962 103.321 94.2834 101.462 95.7512C100.608 96.4288 99.4469 96.8128 98.6363 96.6881C98.2972 96.6225 97.3754 96.2962 96.5921 95.9281C95.0303 95.2073 93.9035 94.926 93.4339 95.1517C92.8719 95.4053 93.0942 95.6405 94.0326 95.7435C94.535 95.7933 95.5986 96.144 96.3926 96.4921C98.4124 97.3938 99.112 97.4848 100.382 97.0174C101.231 96.711 101.677 96.4083 103.056 95.1862C105.009 93.4718 106.538 91.8013 106.765 91.1618C106.892 90.8043 106.835 90.3348 106.452 88.9558C106.122 87.6952 105.991 86.9286 106.029 86.1617C106.075 84.922 106.061 84.8759 105.838 85.0272Z" fill="url(#paint17_linear_289_7684)"/>
<path d="M87.5287 32.218C86.9349 31.8095 85.827 31.7577 84.4238 32.0637C83.4458 32.2749 83.2856 32.3568 82.9781 32.7855C82.6906 33.2249 82.6877 33.3265 82.9366 33.8727C83.3121 34.6157 83.977 35.2043 84.5889 35.3387C85.247 35.4591 87.132 34.8566 87.6766 34.3228C88.4044 33.6162 88.3477 32.7601 87.5287 32.218Z" fill="url(#paint18_linear_289_7684)"/>
<path d="M104.705 89.2981C103.827 89.2273 101.702 90.5402 100.068 92.1416C99.0621 93.1505 98.3013 94.4716 98.4546 94.9795C98.6776 95.7182 99.2 95.7788 100.589 95.2588C103.382 94.2142 105.639 91.5014 105.123 89.7931C105.035 89.5007 104.877 89.3132 104.705 89.2981Z" fill="url(#paint19_linear_289_7684)"/>
<path d="M106.321 98.214C105.945 98.1931 105.537 98.2324 105.397 98.325C104.27 99.1017 104.152 100.212 105.149 100.734C105.815 101.104 106.596 100.851 107.054 100.142C107.357 99.698 107.378 99.4901 107.211 98.9361C107.021 98.3051 106.976 98.2682 106.321 98.214Z" fill="url(#paint20_linear_289_7684)"/>
<path d="M94.7466 70.4408C94.134 69.8029 93.24 69.569 91.5791 69.6337C90.932 69.6611 90.305 69.6992 90.2126 69.7271C89.8738 69.8293 89.599 70.5336 89.6093 71.2357C89.6594 72.8494 91.6669 73.8219 93.7245 73.2345C94.7919 72.9292 95.1057 72.6329 95.2355 71.8381C95.3438 71.0834 95.3438 71.0834 94.7466 70.4408Z" fill="url(#paint21_linear_289_7684)"/>
<path d="M96.4279 80.2438C96.3431 80.1854 95.6053 80.3577 94.7891 80.6041C93.249 81.0689 92.0296 81.7056 91.1095 82.5542C90.6079 83.0079 90.6018 83.0433 91.0144 82.8516C91.2669 82.7418 91.949 82.3848 92.5386 82.0557C93.1236 81.7112 94.2784 81.1948 95.0915 80.8822C95.9199 80.565 96.5081 80.2867 96.4279 80.2438Z" fill="url(#paint22_linear_289_7684)"/>
<path d="M95.0732 81.8784C94.2061 82.1233 92.4651 83.2029 92.384 83.5464C92.3441 83.6928 92.395 83.6943 92.5612 83.5769C92.6812 83.4735 93.3586 83.1012 94.056 82.7395C95.7712 81.8525 96.0789 81.5917 95.0732 81.8784Z" fill="url(#paint23_linear_289_7684)"/>
<path d="M75.893 22.2796C75.6412 22.893 75.2403 23.736 74.999 24.1615C74.5979 24.8367 74.5856 24.9075 74.8966 24.7129C75.4508 24.3777 76.2301 23.1182 76.3692 22.3542C76.5816 21.165 76.3689 21.1285 75.893 22.2796Z" fill="url(#paint24_linear_289_7684)"/>
<path d="M96.5586 90.8667C95.9831 90.3519 94.8178 89.9984 94.2787 90.1611C93.6473 90.3516 93.8248 90.55 94.896 90.8144C95.4108 90.9612 96.1415 91.2109 96.4977 91.3888C97.2301 91.7555 97.2528 91.4968 96.5586 90.8667Z" fill="url(#paint25_linear_289_7684)"/>
<path d="M75.0045 20.4489C74.9368 20.503 74.4506 20.952 73.9013 21.4704C73.2782 22.0782 72.5409 22.5862 71.865 22.9078C70.6317 23.4983 70.6859 23.7338 71.9642 23.348C73.0731 23.0133 74.2582 22.1519 74.8024 21.2824C75.139 20.7274 75.2707 20.2175 75.0045 20.4489Z" fill="url(#paint26_linear_289_7684)"/>
<path d="M96.2603 92.5521C95.2565 92.0658 93.6169 91.9226 93.0875 92.2839C92.6149 92.6112 92.8662 92.7201 93.846 92.6259C94.3821 92.5648 95.2651 92.6509 95.8261 92.7839C96.9528 93.0651 97.113 92.9832 96.2603 92.5521Z" fill="url(#paint27_linear_289_7684)"/>
<path d="M80.6645 41.7116C80.1937 41.0981 79.5847 40.8621 78.9841 41.0434C77.9214 41.3641 77.6816 42.7966 78.5869 43.3462C79.6972 44.0186 81.4255 42.6742 80.6645 41.7116Z" fill="url(#paint28_linear_289_7684)"/>
<path d="M84.2717 57.4487C83.6009 57.0634 82.7888 56.9895 81.729 57.2086C80.9096 57.3887 80.6925 57.5046 80.5111 57.7945C80.2283 58.2492 80.4359 58.9926 80.917 59.2504C82.1229 59.9611 84.2859 59.7785 84.7269 58.9569C85.0065 58.4359 84.8021 57.7588 84.2717 57.4487Z" fill="url(#paint29_linear_289_7684)"/>
<path d="M75.7662 31.7717C75.7354 31.781 75.4193 32.6824 75.0974 33.7871C74.7554 34.881 74.18 36.482 73.8038 37.3512C73.4429 38.2157 73.1606 39.0062 73.1885 39.0985C73.2953 39.4525 74.3142 37.6505 74.8989 36.0803C75.5465 34.2729 76.0896 31.6741 75.7662 31.7717Z" fill="url(#paint30_linear_289_7684)"/>
<path d="M72.9969 30.0552C72.6668 29.8526 72.3493 29.7469 72.3063 29.8271C72.2679 29.9226 72.3806 30.0733 72.5656 30.1854C73.0961 30.4955 73.3829 31.6683 73.1903 32.7004C72.8894 34.4872 70.8232 38.721 69.7709 39.7439C69.2001 40.3024 67.8986 40.6112 66.1282 40.5914C64.4241 40.5684 64.1393 40.7383 65.4909 40.9853C66.8579 41.2276 68.1983 41.1589 69.1607 40.7844C70.2001 40.3868 70.7646 39.6959 72.0675 37.2204C73.6716 34.1839 74.182 32.3675 73.7918 31.0747C73.6386 30.5668 73.4518 30.3377 72.9969 30.0552Z" fill="url(#paint31_linear_289_7684)"/>
<path d="M77.7479 50.4171C76.7952 50.1002 75.9259 50.9502 76.2186 51.9198C76.5065 52.874 77.8457 53.0239 78.3082 52.1623C78.6201 51.5812 78.2874 50.5901 77.7479 50.4171Z" fill="url(#paint32_linear_289_7684)"/>
<path d="M70.5718 31.8782C69.5548 30.7914 66.2094 30.5082 62.622 31.2047C59.0653 31.8919 56.9352 33.408 57.395 34.9316C57.6319 35.7165 58.9478 36.8474 60.6317 37.7497C63.5229 39.3119 67.1218 39.0989 68.9249 37.2785C70.2619 35.9179 71.357 33.5891 71.0876 32.6965C71.0179 32.4656 70.7786 32.1181 70.5718 31.8782ZM68.8005 36.4765C68.723 37.2219 67.9857 37.7299 66.4085 38.0716C63.8424 38.6446 61.0585 37.772 58.7227 35.656C57.6612 34.7001 57.735 34.6107 59.999 33.9274C63.4226 32.9109 67.2071 33.1456 68.2737 34.4525C68.6225 34.8846 68.8596 35.8373 68.8005 36.4765Z" fill="url(#paint33_linear_289_7684)"/>
<path d="M87.8254 92.3273C87.432 92.0262 86.4813 91.9941 86.0103 92.2706C85.824 92.3772 85.5717 92.6549 85.438 92.88C84.9093 93.7448 85.7661 94.9135 86.6901 94.6346C87.4756 94.3976 88.3676 93.2887 88.205 92.7501C88.1772 92.6577 88.0043 92.4748 87.8254 92.3273Z" fill="url(#paint34_linear_289_7684)"/>
<path d="M81.7726 72.2742C81.7418 72.2835 81.7223 72.6085 81.7413 73.0057C81.7558 73.3876 81.7255 74.7905 81.6612 76.1364C81.5461 78.5388 81.6055 79.1254 81.8707 78.2225C82.2555 76.8806 82.1884 72.1487 81.7726 72.2742Z" fill="url(#paint35_linear_289_7684)"/>
<path d="M79.3697 67.7099C78.8045 66.8394 78.7805 67.3168 79.2568 69.5071C79.6709 71.3804 79.6641 73.028 79.2603 76.0885C78.7299 80.01 78.745 80.8954 79.4335 84.9023C79.9664 87.9488 79.7095 90.3268 78.6264 92.4168C77.9365 93.7501 76.7922 95.1366 75.6949 95.9547C75.2578 96.2882 74.9224 96.6245 74.941 96.686C74.9967 96.8707 75.0845 96.8274 76.0528 96.2497C78.0263 95.0496 79.4011 93.2577 80.0926 90.9836C80.6539 89.1686 80.6714 87.5009 80.1487 84.0988C79.6089 80.5842 79.5996 79.4956 80.0108 76.181C80.1965 74.6809 80.3202 72.8636 80.3006 72.1306C80.2417 70.8219 79.7048 68.2636 79.3697 67.7099Z" fill="url(#paint36_linear_289_7684)"/>
<path d="M73.7661 59.2757C71.4921 58.3667 67.0528 58.0778 65.5838 58.7226C65.1973 58.8897 65.2729 58.9172 66.1434 58.9064C69.0446 58.8871 70.2126 58.9712 72.2177 59.3232C73.4383 59.5257 74.4415 59.6763 74.4631 59.6362C74.4846 59.5962 74.1685 59.4397 73.7661 59.2757Z" fill="url(#paint37_linear_289_7684)"/>
<path d="M76.6514 67.7751C75.6694 66.3588 73.6756 65.2645 71.3608 64.8885C68.8688 64.482 66.5041 64.7758 64.4101 65.7437C62.6148 66.5878 61.5715 67.4736 59.1856 70.0912C58.3919 70.9688 57.1134 72.2447 56.3455 72.9298C53.3835 75.587 53.0635 75.9186 52.6393 76.6847C51.8126 78.1768 51.6115 81.7974 52.2884 83.2052C52.6238 83.9267 55.0325 86.3399 60.5483 91.4758C63.6402 94.3712 64.5071 95.0163 65.748 95.3975C69.2393 96.4427 74.3715 94.2389 75.9553 91.0238C76.6681 89.5996 76.8096 88.3983 76.814 84.0143C76.8308 81.843 76.866 79.5655 76.9298 78.9417C77.4543 73.1077 77.3555 68.7717 76.6514 67.7751ZM70.5454 75.1594C70.3944 77.22 70.4054 77.3678 70.8591 78.9268C71.1285 79.8194 71.6346 81.3291 72.0042 82.2754C72.524 83.6634 72.6851 84.2529 72.7635 85.2367C73.0034 88.0358 71.8921 90.9235 69.8318 92.8383C68.8902 93.727 67.3 94.6939 66.7346 94.7135C65.593 94.7726 64.0568 93.6914 60.6145 90.4147C59.5345 89.3974 57.6413 87.6347 56.4024 86.4805C55.1481 85.331 53.8551 84.1092 53.5495 83.7649L52.957 83.1377L53.1679 81.9994C53.4493 80.5375 54.1929 79.104 55.113 78.2554C55.5731 77.8311 56.5583 77.1979 57.7253 76.6106C60.1224 75.3666 60.7473 74.8757 62.5115 72.8152C65.2032 69.6519 66.547 68.7594 68.1113 69.0429C69.3365 69.2608 69.957 69.9803 70.3708 71.6857C70.6591 72.8078 70.6737 73.3575 70.5454 75.1594Z" fill="url(#paint38_linear_289_7684)"/>
<path d="M63.3657 27.9913C60.993 28.0357 59.0182 28.3966 56.2801 29.2902C53.8761 30.0661 53.7113 30.1327 53.0051 30.7992C51.6772 32.0228 51.1793 33.9362 51.9356 34.8834C52.2351 35.2632 52.2459 35.2431 52.1891 34.3871C52.096 32.8535 52.7614 31.662 54.2115 30.7877C54.9627 30.3259 55.6156 30.0953 57.8566 29.5029C59.349 29.1028 61.3976 28.6524 62.4096 28.4981C64.7048 28.1412 65.0867 27.9588 63.3657 27.9913Z" fill="url(#paint39_linear_289_7684)"/>
<path d="M62.0115 22.5563C61.5487 22.1922 60.8984 22.1534 59.9128 22.4509C58.6961 22.8181 58.1869 23.358 58.4006 24.0659C58.6514 24.897 59.6241 25.2247 60.8254 24.8622C61.9804 24.5136 62.5481 23.8889 62.339 23.1963C62.2554 22.9193 62.1009 22.6301 62.0115 22.5563Z" fill="url(#paint40_linear_289_7684)"/>
<path d="M84.2859 99.4744C82.4392 98.9235 79.088 100.959 79.5153 102.375C79.8033 103.329 80.5078 103.604 82.022 103.331C84.1246 102.949 85.3476 101.656 84.9342 100.286C84.767 99.7323 84.6342 99.5708 84.2859 99.4744Z" fill="url(#paint41_linear_289_7684)"/>
<path d="M62.6322 29.791C62.1284 29.7919 60.953 29.9619 59.9857 30.1531C56.8835 30.7872 54.8714 31.915 54.6067 33.1535C54.4383 33.8761 54.7433 33.8847 55.1552 33.1895C55.3381 32.8488 55.6965 32.4216 55.9057 32.2241C56.4797 31.7319 60.0094 30.5658 61.8656 30.2574C62.7097 30.1034 63.4321 29.9358 63.4644 29.8757C63.5013 29.8309 63.116 29.7793 62.6322 29.791Z" fill="url(#paint42_linear_289_7684)"/>
<path d="M71.3137 60.2841C70.042 59.9123 68.5442 59.7934 66.8157 59.9121C65.8667 59.997 66.6543 60.2127 67.8299 60.2105C68.4971 60.1938 69.4724 60.2521 70.0149 60.3234C71.2924 60.492 71.7547 60.5204 71.7361 60.4588C71.7268 60.4281 71.5357 60.3514 71.3137 60.2841Z" fill="url(#paint43_linear_289_7684)"/>
<path d="M67.6814 51.423C67.0651 50.3832 66.362 50.058 65.3918 50.3509C63.5129 50.918 62.8724 52.3035 63.9695 53.4333C64.6716 54.1449 65.2774 54.3147 66.3433 54.0602C67.2551 53.8522 67.369 53.7842 67.6795 53.2539C68.0698 52.5987 68.0598 52.0644 67.6814 51.423Z" fill="url(#paint44_linear_289_7684)"/>
<path d="M68.9297 62.0118C68.0298 61.9812 65.6329 62.3352 63.9464 62.7602C60.0759 63.7437 58.0997 65.2133 55.8446 68.7653C54.4688 70.9437 53.8658 71.5623 52.0678 72.6759C50.0527 73.9054 49.2375 74.8231 49.116 76.0352C48.9974 77.1457 49.3754 77.4514 49.5387 76.3778C49.708 75.2688 50.6204 74.3386 52.9464 72.9145C54.2887 72.0728 55.0824 71.1951 56.4951 68.972C58.0415 66.5238 58.9169 65.6383 60.9183 64.5305C62.0714 63.897 65.0083 62.9938 66.8029 62.7041C68.1785 62.4736 69.5398 62.0292 68.9297 62.0118Z" fill="url(#paint45_linear_289_7684)"/>
<path d="M56.1919 23.2048C56.101 23.1819 55.6179 23.6971 55.1258 24.3494C54.2047 25.5845 53.0308 26.7616 51.855 27.6539C51.4903 27.9486 51.2749 28.1816 51.3566 28.1737C51.7325 28.1946 53.3733 27.0613 54.2426 26.2112C55.1904 25.287 56.4848 23.2844 56.1919 23.2048Z" fill="url(#paint46_linear_289_7684)"/>
<path d="M53.9756 23.6552C51.7623 26.2879 49.5397 27.8319 46.0994 29.0717C44.3146 29.7279 43.9252 29.9966 44.8896 29.907C46.8137 29.7125 50.2687 27.9645 52.2598 26.1546C53.0691 25.4401 54.1594 23.986 54.2743 23.5315C54.3386 23.2434 54.3078 23.2527 53.9756 23.6552Z" fill="url(#paint47_linear_289_7684)"/>
<path d="M59.5319 44.5133C58.7191 43.9359 57.4841 44.4094 57.721 45.1942C57.7813 45.3943 58.1084 45.6986 58.4492 45.8812C59.2958 46.3478 59.7639 46.1729 59.9306 45.3333C60.0162 44.8374 60.0409 44.8635 59.5319 44.5133Z" fill="url(#paint48_linear_289_7684)"/>
<path d="M51.1583 20.2237C50.7065 20.0075 50.4523 20.0002 50.5173 20.2157C50.5359 20.2772 50.6346 20.3818 50.7395 20.4509C50.8397 20.5046 51.0018 20.7075 51.093 20.8983L51.2507 21.2537L49.2393 21.8272C44.8469 23.0857 38.6809 26.374 36.0914 28.818C35.416 29.4752 35.2559 29.5571 34.2885 29.7483C33.4444 29.9023 33.2689 29.9889 33.3816 30.1396C33.8803 30.8455 40.6129 29.4348 43.8926 27.9412C46.3469 26.831 49.761 24.558 51.0424 23.1805C52.0193 22.13 52.0711 20.6871 51.1583 20.2237Z" fill="url(#paint49_linear_289_7684)"/>
<path d="M70.6208 97.7381C70.268 97.7942 69.6442 97.8985 69.1944 97.9671C66.2538 98.4684 64.4054 97.8005 60.8852 94.9336C58.9862 93.3742 57.7045 92.468 57.5351 92.5192C57.4427 92.5471 57.8209 93.0206 58.3702 93.5601C60.9918 96.1776 63.993 98.16 65.8856 98.5292C67.2465 98.8069 68.6377 98.7396 69.9006 98.3585C71.1019 97.9959 71.5558 97.607 70.6208 97.7381Z" fill="url(#paint50_linear_289_7684)"/>
<path d="M71.0654 101.382C70.2712 100.866 68.724 100.695 67.464 100.974C66.0963 101.286 65.9164 101.525 66.3014 102.467C66.6539 103.301 67.3157 103.823 68.2713 104.039C69.6615 104.358 71.8267 103.57 71.8039 102.771C71.7829 102.089 71.5944 101.743 71.0654 101.382Z" fill="url(#paint51_linear_289_7684)"/>
<path d="M54.098 49.2259C53.8978 49.2864 53.4001 51.3676 53.0412 53.5749C52.7694 55.2354 52.7169 56.1748 52.8342 57.3988C52.9156 58.281 52.9357 59.3496 52.8824 59.7855C52.6632 61.5645 51.644 63.1986 49.4038 65.3524C48.4514 66.2612 48.1561 66.619 48.5025 66.4304C49.9282 65.6979 51.7528 63.8374 52.6087 62.219C53.3293 60.8764 53.563 59.4793 53.4138 57.5933C53.3182 56.4971 53.4028 55.3297 53.734 53.1979C54.1965 50.2205 54.2828 49.1702 54.098 49.2259Z" fill="url(#paint52_linear_289_7684)"/>
<path d="M51.4883 44.5896C51.0899 43.9375 50.499 43.4273 50.2372 43.5064C50.0678 43.5575 50.125 43.6913 50.4709 44.225C51.0222 45.0494 51.4309 46.4037 51.4185 47.3646C51.4221 47.7665 51.2317 49.2513 51.0027 50.6638C50.6866 52.6231 50.5913 53.8105 50.648 55.7244C50.7341 58.7378 50.5755 59.8268 49.8287 61.194C49.0557 62.5859 47.7264 63.8603 44.4712 66.2701C42.969 67.3616 41.7255 68.3078 41.704 68.3479C41.4412 68.8134 43.8488 67.3815 46.8918 65.2709C49.5346 63.4489 50.9077 61.54 51.2896 59.2418C51.401 58.5533 51.4648 56.8716 51.4335 55.4874C51.3706 53.6088 51.4552 52.4415 51.7532 50.7563C52.3017 47.6186 52.2205 45.8463 51.4883 44.5896Z" fill="url(#paint53_linear_289_7684)"/>
<path d="M48.0825 44.8285C47.4813 43.6162 45.9488 41.879 44.9974 41.3434C43.4954 40.4869 39.3511 39.6723 38.2515 40.0378C37.4969 40.2656 37.2507 40.5078 36.2758 41.8431C35.873 42.4013 34.8223 43.5412 33.9283 44.3651C31.2772 46.8277 30.9579 47.6629 31.6156 50.6213C32.3399 53.9122 32.612 55.5932 32.8482 57.9903C33.1673 61.2188 33.2915 61.853 33.7875 62.8284C34.404 64.036 35.1863 64.7906 36.5541 65.5365C37.9218 66.2823 39.7174 66.6639 40.5952 66.399C41.2575 66.1991 43.1014 64.9038 44.4801 63.6816C46.8621 61.5522 47.7913 59.5086 48.5669 54.6735C49.0983 51.4234 49.2051 49.6616 49.0071 48.059C48.8684 47.0429 48.4333 45.5455 48.0825 44.8285ZM48.2725 50.4133C48.2212 52.1919 47.4869 56.8298 47.0085 58.4183C46.8 59.1193 46.327 60.1688 45.9843 60.7593C44.9006 62.5136 41.1597 65.7081 40.0628 65.8041C39.3541 65.85 36.9987 65.1168 36.3108 64.6192C35.9669 64.3704 35.4515 63.8878 35.146 63.5434C34.382 62.6825 33.8369 60.7649 33.6498 58.2522L33.5007 56.3661L34.2719 54.8571C34.8004 53.8244 35.3155 53.0813 35.8648 52.5629C36.7541 51.7235 37.032 51.0855 37.3987 48.9598C37.6309 47.6135 38.2394 46.456 39.0165 45.8016C39.2981 45.5655 39.9787 45.2593 40.6255 45.0641C41.5496 44.7852 41.9116 44.7599 42.8332 44.9184C45.0155 45.3008 47.3816 47.0719 48.2627 48.9889C48.2967 49.0458 48.2884 49.6864 48.2725 50.4133Z" fill="url(#paint54_linear_289_7684)"/>
<path d="M44.8013 38.8002C41.747 37.4215 38.3431 37.223 36.297 38.2939C34.819 39.0758 34.1715 39.8254 32.9177 42.1853C32.3031 43.3783 31.6468 44.4328 31.4959 44.5455C31.1896 44.7554 31.1654 45.065 31.4426 44.9813C31.8893 44.8465 32.6767 43.8365 33.5618 42.2595C34.1304 41.2483 34.8469 40.2261 35.2654 39.8311C35.924 39.2293 36.1411 39.1134 37.6041 38.6719C39.0518 38.2349 39.363 38.2082 40.5357 38.3076C41.2461 38.3787 42.6331 38.6317 43.6134 38.8732C44.5737 39.1039 45.3936 39.2595 45.4305 39.2148C45.4474 39.1593 45.1728 38.9735 44.8013 38.8002Z" fill="url(#paint55_linear_289_7684)"/>
<path d="M62.4083 98.4201C60.8445 97.4144 59.0768 96.0672 57.3149 94.5167C56.4016 93.7177 55.6457 93.1062 55.6088 93.151C55.4736 93.4269 58.3651 96.2148 59.7378 97.1439C61.0811 98.0314 63.4665 99.3097 63.4062 99.1096C63.3969 99.0788 62.948 98.7609 62.4083 98.4201Z" fill="url(#paint56_linear_289_7684)"/>
<path d="M52.1302 87.4168C51.4086 87.0301 51.2514 87.0104 50.6955 87.2286C50.1396 87.4467 50.0504 87.5408 49.9633 88.0876C49.6426 90.0315 52.0819 91.2096 52.9746 89.5464C53.4479 88.6648 53.1726 87.9754 52.1302 87.4168Z" fill="url(#paint57_linear_289_7684)"/>
<path d="M54.7366 98.385C54.2384 98.0148 53.2173 97.2483 52.4506 96.6569C51.6886 96.0808 51.0548 95.6509 51.0225 95.711C50.8396 96.0516 55.2514 99.5897 55.6981 99.4549C55.9137 99.3899 55.5541 98.9779 54.7366 98.385Z" fill="url(#paint58_linear_289_7684)"/>
<path d="M52.4384 98.4572C51.0252 97.171 50.3791 96.8118 51.1462 97.739C52.0214 98.8014 54.0467 100.39 53.8935 99.882C53.8702 99.805 53.2222 99.161 52.4384 98.4572Z" fill="url(#paint59_linear_289_7684)"/>
<path d="M45.2796 74.4054C44.8926 74.2367 44.4117 74.1467 44.1961 74.2118C42.9178 74.5976 42.5859 76.2259 43.6332 76.9677C44.227 77.3762 44.9713 77.5041 45.649 77.2996C46.1418 77.1509 46.2156 77.0614 46.2718 76.5239C46.2914 76.199 46.2459 75.6586 46.1437 75.32C45.9951 74.8275 45.847 74.6707 45.2796 74.4054Z" fill="url(#paint60_linear_289_7684)"/>
<path d="M45.3903 84.8502C44.2186 82.2485 43.2119 80.8059 41.4423 79.1739C38.8148 76.7596 35.7959 75.3871 33.6053 75.6452C31.6551 75.8644 30.0593 78.2603 30.0356 81.0213C30.0195 82.6382 30.5358 86.9658 31.0199 89.2378C31.9012 93.4384 33.8691 96.841 36.1622 98.1471C37.5192 98.913 39.3111 98.8927 42.1649 98.0482C44.1408 97.4686 44.6689 97.1581 45.4269 96.1065C45.9574 95.3587 46.5347 91.9268 46.444 89.956C46.3709 88.4332 45.8355 85.8241 45.3903 84.8502ZM42.3056 93.1697C42.4528 94.7708 42.2304 96.4836 41.7908 97.2543C41.5127 97.7245 41.4819 97.7338 40.1786 97.9256C37.3366 98.3636 35.5725 97.4183 33.7625 94.5391C33.1788 93.607 32.9514 93.0207 32.2561 90.6614C31.5455 88.3067 31.3716 87.4524 31.046 84.9815C30.8479 83.3789 30.6851 81.6145 30.6858 81.0602L30.6998 80.0485L31.3405 79.8887C32.93 79.4761 36.118 80.6297 37.7673 82.1973C38.6931 83.0933 39.8851 84.8158 40.4926 86.1605C41.182 87.6652 42.1675 91.4314 42.3056 93.1697Z" fill="url(#paint61_linear_289_7684)"/>
<path d="M33.6511 65.4389C33.3457 65.2623 32.8947 65.5496 32.4073 66.2173C31.337 67.6821 31.3055 68.2458 32.2066 69.1157C33.1277 69.9963 33.93 69.7038 34.1346 68.433C34.2874 67.5473 33.9671 65.5953 33.6511 65.4389Z" fill="url(#paint62_linear_289_7684)"/>
<path d="M29.0986 51.6329C29.0402 51.7177 29.04 52.6077 29.1123 53.627C29.3111 56.791 29.3618 58.7404 29.2762 59.2364C29.2227 59.5044 28.7956 60.3722 28.3145 61.1723C27.8334 61.9723 27.4985 62.6444 27.5787 62.6873C27.7591 62.784 29.0973 61.2047 29.4444 60.4618C30.0235 59.2627 30.0805 58.1709 29.7673 54.7391C29.5778 52.6637 29.2986 51.4046 29.0986 51.6329Z" fill="url(#paint63_linear_289_7684)"/>
<path d="M30.8158 59.9976C30.5164 59.6178 30.446 59.9413 30.6169 60.8972C30.9134 62.4365 30.8795 63.4375 30.461 64.8904C30.064 66.3032 30.1214 66.6049 30.6382 65.9787C31.4657 64.9901 31.7473 62.6382 31.2241 61.0162C31.0801 60.5391 30.8899 60.076 30.8158 59.9976Z" fill="url(#paint64_linear_289_7684)"/>
<defs>
<linearGradient id="paint0_linear_289_7684" x1="42.8892" y1="20.0555" x2="75.7531" y2="126.161" gradientUnits="userSpaceOnUse">
<stop stop-color="#41A380"/>
<stop offset="1" stop-color="#63D5AC"/>
</linearGradient>
<linearGradient id="paint1_linear_289_7684" x1="115.838" y1="44.4241" x2="124.321" y2="68.019" gradientUnits="userSpaceOnUse">
<stop stop-color="#41A380"/>
<stop offset="1" stop-color="#63D5AC"/>
</linearGradient>
<linearGradient id="paint2_linear_289_7684" x1="112.885" y1="45.4202" x2="114.8" y2="51.2569" gradientUnits="userSpaceOnUse">
<stop stop-color="#41A380"/>
<stop offset="1" stop-color="#63D5AC"/>
</linearGradient>
<linearGradient id="paint3_linear_289_7684" x1="111.683" y1="44.433" x2="113.514" y2="49.9928" gradientUnits="userSpaceOnUse">
<stop stop-color="#41A380"/>
<stop offset="1" stop-color="#63D5AC"/>
</linearGradient>
<linearGradient id="paint4_linear_289_7684" x1="113.291" y1="63.0971" x2="114.199" y2="66.03" gradientUnits="userSpaceOnUse">
<stop stop-color="#41A380"/>
<stop offset="1" stop-color="#63D5AC"/>
</linearGradient>
<linearGradient id="paint5_linear_289_7684" x1="107.387" y1="54.3517" x2="109.282" y2="60.497" gradientUnits="userSpaceOnUse">
<stop stop-color="#41A380"/>
<stop offset="1" stop-color="#63D5AC"/>
</linearGradient>
<linearGradient id="paint6_linear_289_7684" x1="98.9057" y1="55.5926" x2="101.13" y2="62.8844" gradientUnits="userSpaceOnUse">
<stop stop-color="#41A380"/>
<stop offset="1" stop-color="#63D5AC"/>
</linearGradient>
<linearGradient id="paint7_linear_289_7684" x1="93.3372" y1="45.0064" x2="98.0853" y2="60.402" gradientUnits="userSpaceOnUse">
<stop stop-color="#41A380"/>
<stop offset="1" stop-color="#63D5AC"/>
</linearGradient>
<linearGradient id="paint8_linear_289_7684" x1="81.2386" y1="13.7733" x2="85.4881" y2="27.5926" gradientUnits="userSpaceOnUse">
<stop stop-color="#41A380"/>
<stop offset="1" stop-color="#63D5AC"/>
</linearGradient>
<linearGradient id="paint9_linear_289_7684" x1="111.03" y1="78.7263" x2="111.987" y2="81.8286" gradientUnits="userSpaceOnUse">
<stop stop-color="#41A380"/>
<stop offset="1" stop-color="#63D5AC"/>
</linearGradient>
<linearGradient id="paint10_linear_289_7684" x1="90.4376" y1="26.8611" x2="91.6058" y2="30.6902" gradientUnits="userSpaceOnUse">
<stop stop-color="#41A380"/>
<stop offset="1" stop-color="#63D5AC"/>
</linearGradient>
<linearGradient id="paint11_linear_289_7684" x1="86.1712" y1="22.3778" x2="88.3999" y2="29.6623" gradientUnits="userSpaceOnUse">
<stop stop-color="#41A380"/>
<stop offset="1" stop-color="#63D5AC"/>
</linearGradient>
<linearGradient id="paint12_linear_289_7684" x1="90.9124" y1="43.4996" x2="92.0587" y2="47.2722" gradientUnits="userSpaceOnUse">
<stop stop-color="#41A380"/>
<stop offset="1" stop-color="#63D5AC"/>
</linearGradient>
<linearGradient id="paint13_linear_289_7684" x1="111.281" y1="87.6455" x2="112.956" y2="92.9765" gradientUnits="userSpaceOnUse">
<stop stop-color="#41A380"/>
<stop offset="1" stop-color="#63D5AC"/>
</linearGradient>
<linearGradient id="paint14_linear_289_7684" x1="110.336" y1="86.3226" x2="112.104" y2="91.9014" gradientUnits="userSpaceOnUse">
<stop stop-color="#41A380"/>
<stop offset="1" stop-color="#63D5AC"/>
</linearGradient>
<linearGradient id="paint15_linear_289_7684" x1="90.1803" y1="41.8955" x2="90.7356" y2="43.7265" gradientUnits="userSpaceOnUse">
<stop stop-color="#41A380"/>
<stop offset="1" stop-color="#63D5AC"/>
</linearGradient>
<linearGradient id="paint16_linear_289_7684" x1="101.959" y1="73.7382" x2="102.831" y2="76.5364" gradientUnits="userSpaceOnUse">
<stop stop-color="#41A380"/>
<stop offset="1" stop-color="#63D5AC"/>
</linearGradient>
<linearGradient id="paint17_linear_289_7684" x1="97.1831" y1="87.613" x2="100.129" y2="97.2085" gradientUnits="userSpaceOnUse">
<stop stop-color="#41A380"/>
<stop offset="1" stop-color="#63D5AC"/>
</linearGradient>
<linearGradient id="paint18_linear_289_7684" x1="84.5361" y1="31.9909" x2="85.5525" y2="35.301" gradientUnits="userSpaceOnUse">
<stop stop-color="#41A380"/>
<stop offset="1" stop-color="#63D5AC"/>
</linearGradient>
<linearGradient id="paint19_linear_289_7684" x1="100.399" y1="90.5107" x2="101.767" y2="94.9734" gradientUnits="userSpaceOnUse">
<stop stop-color="#41A380"/>
<stop offset="1" stop-color="#63D5AC"/>
</linearGradient>
<linearGradient id="paint20_linear_289_7684" x1="105.221" y1="98.3632" x2="106.012" y2="100.92" gradientUnits="userSpaceOnUse">
<stop stop-color="#41A380"/>
<stop offset="1" stop-color="#63D5AC"/>
</linearGradient>
<linearGradient id="paint21_linear_289_7684" x1="91.2902" y1="69.4018" x2="92.591" y2="73.6223" gradientUnits="userSpaceOnUse">
<stop stop-color="#41A380"/>
<stop offset="1" stop-color="#63D5AC"/>
</linearGradient>
<linearGradient id="paint22_linear_289_7684" x1="92.8029" y1="81.2035" x2="93.122" y2="82.2557" gradientUnits="userSpaceOnUse">
<stop stop-color="#41A380"/>
<stop offset="1" stop-color="#63D5AC"/>
</linearGradient>
<linearGradient id="paint23_linear_289_7684" x1="93.5157" y1="82.3481" x2="93.7909" y2="83.2538" gradientUnits="userSpaceOnUse">
<stop stop-color="#41A380"/>
<stop offset="1" stop-color="#63D5AC"/>
</linearGradient>
<linearGradient id="paint24_linear_289_7684" x1="74.9024" y1="21.8836" x2="75.7235" y2="24.5305" gradientUnits="userSpaceOnUse">
<stop stop-color="#41A380"/>
<stop offset="1" stop-color="#63D5AC"/>
</linearGradient>
<linearGradient id="paint25_linear_289_7684" x1="94.9144" y1="89.9692" x2="95.5458" y2="92.0182" gradientUnits="userSpaceOnUse">
<stop stop-color="#41A380"/>
<stop offset="1" stop-color="#63D5AC"/>
</linearGradient>
<linearGradient id="paint26_linear_289_7684" x1="72.3273" y1="21.2281" x2="72.8943" y2="23.087" gradientUnits="userSpaceOnUse">
<stop stop-color="#41A380"/>
<stop offset="1" stop-color="#63D5AC"/>
</linearGradient>
<linearGradient id="paint27_linear_289_7684" x1="94.1995" y1="91.9107" x2="94.7098" y2="93.5806" gradientUnits="userSpaceOnUse">
<stop stop-color="#41A380"/>
<stop offset="1" stop-color="#63D5AC"/>
</linearGradient>
<linearGradient id="paint28_linear_289_7684" x1="78.7798" y1="41.105" x2="79.5321" y2="43.5396" gradientUnits="userSpaceOnUse">
<stop stop-color="#41A380"/>
<stop offset="1" stop-color="#63D5AC"/>
</linearGradient>
<linearGradient id="paint29_linear_289_7684" x1="81.801" y1="57.1595" x2="82.6536" y2="59.9353" gradientUnits="userSpaceOnUse">
<stop stop-color="#41A380"/>
<stop offset="1" stop-color="#63D5AC"/>
</linearGradient>
<linearGradient id="paint30_linear_289_7684" x1="73.1539" y1="32.5601" x2="75.0618" y2="38.6593" gradientUnits="userSpaceOnUse">
<stop stop-color="#41A380"/>
<stop offset="1" stop-color="#63D5AC"/>
</linearGradient>
<linearGradient id="paint31_linear_289_7684" x1="66.6835" y1="31.5112" x2="69.5431" y2="40.78" gradientUnits="userSpaceOnUse">
<stop stop-color="#41A380"/>
<stop offset="1" stop-color="#63D5AC"/>
</linearGradient>
<linearGradient id="paint32_linear_289_7684" x1="76.7305" y1="50.4809" x2="77.4423" y2="52.775" gradientUnits="userSpaceOnUse">
<stop stop-color="#41A380"/>
<stop offset="1" stop-color="#63D5AC"/>
</linearGradient>
<linearGradient id="paint33_linear_289_7684" x1="62.0425" y1="31.289" x2="64.4946" y2="39.2852" gradientUnits="userSpaceOnUse">
<stop stop-color="#41A380"/>
<stop offset="1" stop-color="#63D5AC"/>
</linearGradient>
<linearGradient id="paint34_linear_289_7684" x1="86.1241" y1="92.2052" x2="86.8649" y2="94.6073" gradientUnits="userSpaceOnUse">
<stop stop-color="#41A380"/>
<stop offset="1" stop-color="#63D5AC"/>
</linearGradient>
<linearGradient id="paint35_linear_289_7684" x1="80.693" y1="72.6001" x2="82.5883" y2="78.4131" gradientUnits="userSpaceOnUse">
<stop stop-color="#41A380"/>
<stop offset="1" stop-color="#63D5AC"/>
</linearGradient>
<linearGradient id="paint36_linear_289_7684" x1="72.0005" y1="69.4097" x2="80.3162" y2="95.4696" gradientUnits="userSpaceOnUse">
<stop stop-color="#41A380"/>
<stop offset="1" stop-color="#63D5AC"/>
</linearGradient>
<linearGradient id="paint37_linear_289_7684" x1="68.5895" y1="57.7985" x2="69.6086" y2="61.1386" gradientUnits="userSpaceOnUse">
<stop stop-color="#41A380"/>
<stop offset="1" stop-color="#63D5AC"/>
</linearGradient>
<linearGradient id="paint38_linear_289_7684" x1="59.0888" y1="67.2376" x2="68.0931" y2="96.2363" gradientUnits="userSpaceOnUse">
<stop stop-color="#41A380"/>
<stop offset="1" stop-color="#63D5AC"/>
</linearGradient>
<linearGradient id="paint39_linear_289_7684" x1="56.0249" y1="29.3562" x2="57.3197" y2="33.6109" gradientUnits="userSpaceOnUse">
<stop stop-color="#41A380"/>
<stop offset="1" stop-color="#63D5AC"/>
</linearGradient>
<linearGradient id="paint40_linear_289_7684" x1="59.6202" y1="22.5392" x2="60.3824" y2="25.0222" gradientUnits="userSpaceOnUse">
<stop stop-color="#41A380"/>
<stop offset="1" stop-color="#63D5AC"/>
</linearGradient>
<linearGradient id="paint41_linear_289_7684" x1="81.2001" y1="99.9403" x2="82.2435" y2="103.342" gradientUnits="userSpaceOnUse">
<stop stop-color="#41A380"/>
<stop offset="1" stop-color="#63D5AC"/>
</linearGradient>
<linearGradient id="paint42_linear_289_7684" x1="57.7196" y1="30.7526" x2="58.2908" y2="32.6352" gradientUnits="userSpaceOnUse">
<stop stop-color="#41A380"/>
<stop offset="1" stop-color="#63D5AC"/>
</linearGradient>
<linearGradient id="paint43_linear_289_7684" x1="68.295" y1="59.4159" x2="68.8861" y2="61.3536" gradientUnits="userSpaceOnUse">
<stop stop-color="#41A380"/>
<stop offset="1" stop-color="#63D5AC"/>
</linearGradient>
<linearGradient id="paint44_linear_289_7684" x1="64.7117" y1="50.5561" x2="65.8593" y2="54.2724" gradientUnits="userSpaceOnUse">
<stop stop-color="#41A380"/>
<stop offset="1" stop-color="#63D5AC"/>
</linearGradient>
<linearGradient id="paint45_linear_289_7684" x1="55.4163" y1="65.3111" x2="58.2032" y2="74.4463" gradientUnits="userSpaceOnUse">
<stop stop-color="#41A380"/>
<stop offset="1" stop-color="#63D5AC"/>
</linearGradient>
<linearGradient id="paint46_linear_289_7684" x1="52.7083" y1="24.2516" x2="53.7083" y2="27.5167" gradientUnits="userSpaceOnUse">
<stop stop-color="#41A380"/>
<stop offset="1" stop-color="#63D5AC"/>
</linearGradient>
<linearGradient id="paint47_linear_289_7684" x1="47.7543" y1="25.3019" x2="48.8372" y2="28.8594" gradientUnits="userSpaceOnUse">
<stop stop-color="#41A380"/>
<stop offset="1" stop-color="#63D5AC"/>
</linearGradient>
<linearGradient id="paint48_linear_289_7684" x1="58.3831" y1="44.2945" x2="58.9896" y2="46.2564" gradientUnits="userSpaceOnUse">
<stop stop-color="#41A380"/>
<stop offset="1" stop-color="#63D5AC"/>
</linearGradient>
<linearGradient id="paint49_linear_289_7684" x1="39.7737" y1="23.3257" x2="41.4724" y2="28.9117" gradientUnits="userSpaceOnUse">
<stop stop-color="#41A380"/>
<stop offset="1" stop-color="#63D5AC"/>
</linearGradient>
<linearGradient id="paint50_linear_289_7684" x1="61.9216" y1="91.1952" x2="64.6472" y2="100.038" gradientUnits="userSpaceOnUse">
<stop stop-color="#41A380"/>
<stop offset="1" stop-color="#63D5AC"/>
</linearGradient>
<linearGradient id="paint51_linear_289_7684" x1="67.9857" y1="100.793" x2="69.0701" y2="104.32" gradientUnits="userSpaceOnUse">
<stop stop-color="#41A380"/>
<stop offset="1" stop-color="#63D5AC"/>
</linearGradient>
<linearGradient id="paint52_linear_289_7684" x1="48.1005" y1="51.0361" x2="52.588" y2="65.3633" gradientUnits="userSpaceOnUse">
<stop stop-color="#41A380"/>
<stop offset="1" stop-color="#63D5AC"/>
</linearGradient>
<linearGradient id="paint53_linear_289_7684" x1="41.7811" y1="46.0585" x2="48.2295" y2="66.7023" gradientUnits="userSpaceOnUse">
<stop stop-color="#41A380"/>
<stop offset="1" stop-color="#63D5AC"/>
</linearGradient>
<linearGradient id="paint54_linear_289_7684" x1="35.0656" y1="40.9989" x2="42.8771" y2="65.9736" gradientUnits="userSpaceOnUse">
<stop stop-color="#41A380"/>
<stop offset="1" stop-color="#63D5AC"/>
</linearGradient>
<linearGradient id="paint55_linear_289_7684" x1="35.6449" y1="38.3974" x2="37.1419" y2="43.3134" gradientUnits="userSpaceOnUse">
<stop stop-color="#41A380"/>
<stop offset="1" stop-color="#63D5AC"/>
</linearGradient>
<linearGradient id="paint56_linear_289_7684" x1="57.7989" y1="92.489" x2="60.2041" y2="100.174" gradientUnits="userSpaceOnUse">
<stop stop-color="#41A380"/>
<stop offset="1" stop-color="#63D5AC"/>
</linearGradient>
<linearGradient id="paint57_linear_289_7684" x1="50.7902" y1="87.1865" x2="51.7924" y2="90.4159" gradientUnits="userSpaceOnUse">
<stop stop-color="#41A380"/>
<stop offset="1" stop-color="#63D5AC"/>
</linearGradient>
<linearGradient id="paint58_linear_289_7684" x1="52.3448" y1="95.309" x2="53.8351" y2="100.067" gradientUnits="userSpaceOnUse">
<stop stop-color="#41A380"/>
<stop offset="1" stop-color="#63D5AC"/>
</linearGradient>
<linearGradient id="paint59_linear_289_7684" x1="51.6472" y1="96.9765" x2="52.7128" y2="100.362" gradientUnits="userSpaceOnUse">
<stop stop-color="#41A380"/>
<stop offset="1" stop-color="#63D5AC"/>
</linearGradient>
<linearGradient id="paint60_linear_289_7684" x1="43.8402" y1="74.3192" x2="44.8505" y2="77.575" gradientUnits="userSpaceOnUse">
<stop stop-color="#41A380"/>
<stop offset="1" stop-color="#63D5AC"/>
</linearGradient>
<linearGradient id="paint61_linear_289_7684" x1="33.1862" y1="75.7261" x2="40.448" y2="98.8102" gradientUnits="userSpaceOnUse">
<stop stop-color="#41A380"/>
<stop offset="1" stop-color="#63D5AC"/>
</linearGradient>
<linearGradient id="paint62_linear_289_7684" x1="32.0621" y1="65.7878" x2="33.2782" y2="69.6716" gradientUnits="userSpaceOnUse">
<stop stop-color="#41A380"/>
<stop offset="1" stop-color="#63D5AC"/>
</linearGradient>
<linearGradient id="paint63_linear_289_7684" x1="26.4755" y1="52.4105" x2="29.5958" y2="62.1936" gradientUnits="userSpaceOnUse">
<stop stop-color="#41A380"/>
<stop offset="1" stop-color="#63D5AC"/>
</linearGradient>
<linearGradient id="paint64_linear_289_7684" x1="29.4279" y1="60.1999" x2="31.3074" y2="66.0425" gradientUnits="userSpaceOnUse">
<stop stop-color="#41A380"/>
<stop offset="1" stop-color="#63D5AC"/>
</linearGradient>
</defs>
</svg>
