<svg width="153" height="156" viewBox="0 0 153 156" fill="none" xmlns="http://www.w3.org/2000/svg">
<path d="M61.213 0.206389C58.6417 0.788968 57.4342 2.08857 55.9808 5.85293C55.5336 6.99568 55.0641 8.0488 54.9076 8.16084C54.751 8.29528 53.5436 8.76582 52.1797 9.23637C45.7848 11.4098 38.719 15.0398 33.5763 18.7593L31.7204 20.1037L29.4397 19.8348C24.8112 19.2971 22.3516 20.0141 19.9591 22.6133C19.2213 23.3975 18.148 24.8764 17.5443 25.9295C15.7108 29.0441 14.8387 30.254 12.5804 32.6516C11.3282 33.996 10.1655 35.4973 9.78542 36.2367C9.45002 36.9537 8.22023 39.9786 7.07988 42.9812C5.15694 48.0899 5.02278 48.5381 5.02278 50.1066C5.00042 51.9215 5.40289 52.9522 6.69976 54.6103L7.32584 55.417L6.56561 58.0834C5.02278 63.3714 3.99422 70.0487 3.99422 74.6421V77.1293L2.4514 78.5185C-0.321223 81.0057 -0.567181 82.3501 0.841488 87.0107C2.71971 93.1278 3.21163 96.0407 3.43523 102.584C3.52467 104.757 3.70355 107.042 3.88243 107.647C4.8439 111.322 7.25876 113.473 12.8487 115.602C14.3245 116.162 15.6884 116.7 15.912 116.767C16.1133 116.857 16.9182 117.843 17.6784 118.985C19.8473 122.212 22.4187 125.282 25.3031 128.127L27.9863 130.749L27.8745 132.362C27.5391 136.978 28.7018 139.555 32.1229 141.84C34.6496 143.521 58.2168 155.173 60.3186 155.8C61.9286 156.248 63.6726 155.957 66.244 154.792C70.5818 152.797 73.4215 150.915 74.8749 149.078L75.6575 148.092L79.0115 147.935C88.5815 147.509 97.749 145.157 106.827 140.832C111.858 138.412 114.899 136.575 119.282 133.326L121.786 131.466L124.536 131.511C126.75 131.533 127.555 131.466 128.516 131.13C130.842 130.323 130.618 130.659 141.708 111.95C145.778 105.093 146.315 103.525 146.292 98.7295C146.292 95.7942 146.225 95.3013 145.666 93.7104L145.062 91.9402L145.532 89.9012C146.091 87.3692 146.561 84.2323 146.762 81.521L146.941 79.4596L148.64 78.0256C150.675 76.3226 152.061 74.8662 152.598 73.8355C153.336 72.4462 153.112 70.3848 151.48 63.2146C150.652 59.6295 149.736 55.5514 149.423 54.1398C148.551 50.2186 147.79 47.6194 147.298 46.8127C146.225 45.065 144.682 44.2135 140.121 42.8467C138.735 42.421 138.064 42.1073 137.863 41.7488C133.547 34.6906 130.774 31.0607 125.967 26.2432C119.885 20.1261 112.126 14.8829 104.054 11.4098C103.071 10.9841 102.109 10.4912 101.886 10.3119C101.684 10.1102 101.036 8.78823 100.455 7.35419C99.6496 5.40479 99.1353 4.50851 98.4422 3.8139C97.4583 2.80559 95.6919 2.02135 93.7019 1.70765C92.3603 1.48358 85.7194 1.08026 81.1357 0.92341C79.481 0.878596 77.0214 0.676934 75.6575 0.475272C72.3035 0.00472667 62.9124 -0.174529 61.213 0.206389ZM75.2103 1.48358C76.0823 1.59562 79.7941 1.84209 83.4834 2.04375C96.4074 2.71596 97.4583 3.02966 99.0682 6.61476C100.611 10.043 101.371 11.4098 102.489 12.6198C103.652 13.897 104.39 14.2331 103.473 13.0455C103.227 12.7318 103.048 12.3509 103.093 12.2165C103.205 11.9028 110.226 15.4431 113.334 17.3925C120.131 21.6498 125.967 26.9154 131.266 33.6375C134.017 37.133 134.509 38.3205 136.007 45.1322C137.013 49.6808 137.482 53.8261 137.482 58.2403C137.482 64.7158 136.856 68.3906 134.576 75.2023C132.697 80.8488 132.608 81.5882 133.145 87.2572C133.458 90.6855 133.48 91.7834 133.279 93.0158C132.988 94.7411 132.25 96.4216 131.177 97.6988C130.327 98.7295 127.331 100.993 125.811 101.777C123.642 102.875 120.109 105.115 118.655 106.281C116.598 107.961 115.57 109.574 114.474 112.913C113.423 116.05 112.998 116.61 110.762 117.731C108.504 118.851 107.99 119.814 107.967 123.041C107.945 126.985 107.118 129.875 105.262 132.676C101.617 138.143 94.8869 140.496 84.0424 140.115C76.5742 139.846 71.2079 138.524 63.695 135.096C59.1783 133.034 58.351 132.945 55.0864 134.132C51.7772 135.32 50.3014 135.701 47.8419 135.925C43.0345 136.373 34.2471 135.029 30.2447 133.236L28.8807 132.631L28.7466 130.973C28.59 129.091 28.277 127.948 27.6956 127.164C27.1143 126.402 26.9131 126.783 27.3379 127.858C27.5391 128.351 27.6062 128.755 27.472 128.755C26.8236 128.755 20.943 122.122 18.7741 118.918L17.835 117.551H18.6399C19.0648 117.551 19.4225 117.462 19.4225 117.327C19.4225 116.946 18.4834 116.498 15.5095 115.423C9.20407 113.16 6.38673 111.255 5.33581 108.477C4.93334 107.356 4.79918 106.437 4.64266 102.987C4.30726 95.7494 3.68119 92.0523 1.98184 86.9659C0.953288 83.9186 0.819129 82.2829 1.48992 81.0281C1.73588 80.6023 2.76443 79.5492 3.79299 78.6754C5.80537 76.9724 6.94572 75.3815 6.47617 74.911C6.27493 74.7093 6.16313 74.7317 6.00661 75.0006C5.89481 75.2023 5.60413 75.6056 5.35817 75.8969L4.91098 76.4347L4.88862 75.0902C4.86626 70.6761 6.07369 63.0577 7.59416 57.8593L8.04135 56.3357L9.36059 57.7025C10.6351 59.0469 11.1494 59.3606 11.1494 58.778C11.1494 58.4195 10.4786 57.5008 8.33203 54.924C5.35817 51.3389 5.35817 50.7788 7.99664 43.7206C10.5233 37.0657 11.1494 35.9006 13.7878 33.0325C15.9567 30.6574 16.4039 30.0076 18.5952 26.2432C19.2436 25.1229 20.3169 23.644 21.0101 22.9494C23.0895 20.8207 24.8336 20.3726 29.3726 20.7759C30.9825 20.9104 32.8384 20.9776 33.5092 20.9328C34.6496 20.8431 34.6943 20.8207 34.0235 20.6639C33.621 20.5519 33.2856 20.3726 33.2856 20.2606C33.2856 19.79 39.7476 15.8688 43.9065 13.8074C48.1549 11.7011 53.1859 9.6621 53.7001 9.84136C53.8343 9.88617 53.4095 10.3567 52.7834 10.9169C51.7325 11.8132 51.33 12.463 51.7996 12.463C51.889 12.463 52.448 12.1717 53.007 11.8132C54.4157 10.9169 55.8914 8.74342 56.7411 6.36829C57.6355 3.8139 57.9261 3.25373 58.8653 2.44708C59.5584 1.81969 60.1621 1.5508 61.5708 1.16989C62.2863 0.99063 73.4886 1.23711 75.2103 1.48358Z" fill="url(#paint0_linear_289_7618)"/>
<path d="M61.7936 3.25362C61.2346 4.19471 69.1723 6.92835 74.9859 7.80222C76.1933 7.98147 78.8541 8.09351 81.6938 8.09351C86.8142 8.0711 90.1906 7.64537 93.7682 6.52502C96.9656 5.51671 97.2786 4.64284 94.2154 5.27024C92.762 5.58393 92.2924 5.60634 91.7558 5.38227C90.8614 5.02376 86.3447 4.01545 84.2652 3.72416C78.9883 2.96233 73.2866 3.05195 68.1438 3.97064C65.5724 4.41877 65.5724 4.41877 64.5439 3.97064C63.1128 3.36565 61.9278 3.05195 61.7936 3.25362Z" fill="url(#paint1_linear_289_7618)"/>
<path d="M61.9062 9.07973C61.9062 9.39343 63.8292 10.1105 66.2664 10.7378C69.4415 11.5445 70.4924 11.7013 70.3583 11.3204C70.2465 10.9619 70.3583 11.0067 65.8639 9.77435C62.4205 8.83326 61.9062 8.74363 61.9062 9.07973Z" fill="url(#paint2_linear_289_7618)"/>
<path d="M60.1395 10.3791C60.8998 11.2754 63.9407 12.3061 66.6015 12.575C68.9046 12.799 68.6139 12.2837 66.132 11.7907C65.1034 11.5667 63.2699 11.0961 62.0625 10.7152C60.5196 10.2446 59.9606 10.1326 60.1395 10.3791Z" fill="url(#paint3_linear_289_7618)"/>
<path d="M86.9714 14.4572C86.3453 14.614 85.6074 15.8688 85.6074 16.7651C85.6074 17.5269 86.5465 18.6472 87.3291 18.8041C87.6869 18.8713 88.2682 18.7817 88.6484 18.6024C91.0185 17.4821 89.5204 13.7625 86.9714 14.4572Z" fill="url(#paint4_linear_289_7618)"/>
<path d="M71.6552 14.8829C71.4764 15.1742 71.5882 15.2415 72.9745 15.6C74.9198 16.1377 76.2166 17.7062 78.4079 22.1876C81.024 27.5204 81.1582 26.8258 78.6091 21.0897C77.0663 17.6166 76.0154 16.2946 74.0925 15.3087C73.1533 14.8381 71.8341 14.6141 71.6552 14.8829Z" fill="url(#paint5_linear_289_7618)"/>
<path d="M71.5203 17.3702C71.5203 17.4598 72.0345 17.9079 72.6383 18.3785C74.2258 19.5884 74.9413 20.5968 76.2382 23.3752C76.8419 24.6972 77.8257 26.7362 78.3847 27.879C79.2344 29.5819 79.4356 30.1645 79.4133 31.1056C79.3686 33.5928 76.1935 38.0965 71.9004 41.7265C69.4855 43.7879 69.1725 44.3257 71.0283 43.2501C74.2705 41.3904 78.1388 37.1106 79.7263 33.5928C80.1512 32.6741 80.33 31.9122 80.33 30.9263C80.3524 29.694 80.2406 29.3354 79.1673 27.274C78.5189 26.0192 77.6469 24.2043 77.2444 23.2408C75.9699 20.2158 74.2258 18.132 72.4817 17.527C71.9451 17.3478 71.5203 17.2805 71.5203 17.3702Z" fill="url(#paint6_linear_289_7618)"/>
<path d="M64.3427 20.6192C62.4645 21.381 61.6372 21.9636 60.1838 23.5097C58.6186 25.1902 57.5006 27.0276 55.3988 31.4193C53.4982 35.4077 53.2299 36.6177 53.6994 38.9704C54.0572 40.6958 55.7118 44.5273 56.6733 45.7821C57.836 47.3058 59.6248 47.6419 61.9279 46.768C65.2595 45.5132 71.319 40.5165 73.5102 37.2227C75.5226 34.1753 76.0593 31.9795 75.4556 29.201C74.4494 24.7196 72.6382 21.8291 70.0668 20.6192C68.524 19.8797 66.1091 19.8797 64.3427 20.6192ZM70.5587 25.8176C71.2072 26.1313 72.4146 27.0276 73.2866 27.8342C74.6506 29.089 74.8742 29.4251 75.0084 30.2766C75.3885 32.9654 73.622 36.3264 69.8656 40.046C66.7576 43.1381 62.2856 45.9614 60.1838 46.2303C59.0658 46.3423 57.9031 45.9838 57.5006 45.3564C57.1652 44.7962 57.0534 42.5779 57.2323 40.4941C57.4559 38.1414 57.7689 37.3347 59.3341 35.3405C59.8484 34.6459 60.9217 32.8533 61.6819 31.3297C64.4322 25.8848 67.2271 24.1371 70.5587 25.8176Z" fill="url(#paint7_linear_289_7618)"/>
<path d="M24.1178 23.1512C24.1178 23.2632 24.4532 23.4873 24.8334 23.6666C25.2135 23.8458 25.683 24.2267 25.8395 24.4732C26.1302 24.9214 26.0631 25.0334 24.6321 26.1537C20.8086 29.1563 20.0707 30.0301 18.1925 33.7497C17.1192 35.8783 15.8671 37.7381 14.6596 39.0153C12.9379 40.7854 10.9703 44.0793 10.2324 46.3872C9.80755 47.7316 9.56159 48.1125 8.3318 49.2552C7.45977 50.0843 6.96785 50.7117 7.05729 50.9134C7.12437 51.0926 7.25853 51.2271 7.37033 51.2271C7.75044 51.2271 11.7752 47.7092 14.928 44.617C20.1825 39.4634 22.6421 36.08 25.2358 30.3886C26.7116 27.1396 27.1141 25.8624 26.9128 24.8765C26.7116 23.7562 25.9066 22.9944 24.9004 22.9944C24.4756 22.9944 24.1178 23.0616 24.1178 23.1512Z" fill="url(#paint8_linear_289_7618)"/>
<path d="M106.603 23.5544C106.156 23.8457 105.731 24.249 105.642 24.4507C105.396 25.1229 105.507 26.3553 105.865 27.0947C106.469 28.2375 107.05 28.6184 108.056 28.5512C110.337 28.3719 110.695 24.7196 108.571 23.4424C107.654 22.8822 107.564 22.8822 106.603 23.5544Z" fill="url(#paint9_linear_289_7618)"/>
<path d="M32.9057 26.8707C32.6374 28.2599 32.1902 30.03 31.9219 30.8367C31.3629 32.562 29.753 35.8558 28.8138 37.2226C28.0313 38.3654 27.9642 38.7015 28.6126 38.0965C29.5294 37.2899 30.8933 35.2508 31.7206 33.4359C33.0399 30.635 34.0237 26.0416 33.5765 24.854C33.4423 24.4955 33.2858 24.9885 32.9057 26.8707Z" fill="url(#paint10_linear_289_7618)"/>
<path d="M30.3782 25.8397C29.5509 30.209 27.695 34.0854 23.5808 40.2025C20.0032 45.5354 20.0032 45.513 21.2107 44.3926C24.7659 41.0092 29.1261 33.7045 30.2664 29.1783C30.8925 26.6464 31.1608 24.5625 30.8478 24.5625C30.736 24.5625 30.5124 25.1451 30.3782 25.8397Z" fill="url(#paint11_linear_289_7618)"/>
<path d="M55.332 26.7361C55.1084 27.1842 54.1469 28.7751 53.1855 30.2764C52.224 31.7777 51.2178 33.6374 50.9495 34.4441C50.5023 35.7437 50.4576 36.1694 50.5694 38.903C50.7035 41.9504 50.8377 42.6674 51.665 44.9977C52.1345 46.3197 53.2525 47.8658 53.5432 47.5969C53.6327 47.4849 53.4538 46.8799 53.1184 46.2525C52.2016 44.3927 51.8439 43.0259 51.4637 40.2699C51.2178 38.2308 51.1954 37.4018 51.3967 36.259C51.7097 34.3993 51.9333 33.8615 53.6774 30.9038C54.4823 29.5818 55.1755 28.327 55.2426 28.1477C55.332 27.9685 55.5332 27.4307 55.7345 26.9826C56.204 25.907 55.8239 25.683 55.332 26.7361Z" fill="url(#paint12_linear_289_7618)"/>
<path d="M118.03 27.0721C118.455 27.3409 120.244 28.4837 122.01 29.6265C123.754 30.7916 125.185 31.6655 125.185 31.6207C125.185 31.3966 123.33 29.8281 122.077 28.9767C120.669 27.9907 117.963 26.5791 117.538 26.5791C117.382 26.5791 117.605 26.8032 118.03 27.0721Z" fill="url(#paint13_linear_289_7618)"/>
<path d="M115.346 27.8118C115.346 27.8791 116.218 28.372 117.313 28.9098C118.387 29.4475 120.153 30.411 121.249 31.0384C124.357 32.8534 124.021 32.0916 120.802 30.0525C118.901 28.8426 115.346 27.3861 115.346 27.8118Z" fill="url(#paint14_linear_289_7618)"/>
<path d="M49.587 31.6657C49.2292 32.2707 48.7597 33.2342 48.5585 33.8616C48.1113 35.3404 47.9324 39.9114 48.2454 42.0177C48.4914 43.5862 49.0727 45.3563 49.274 45.1546C49.3187 45.0874 49.274 44.1015 49.1398 42.9364C48.5585 37.3346 48.8715 34.3769 50.3025 31.7777C51.1746 30.2316 50.5708 30.142 49.587 31.6657Z" fill="url(#paint15_linear_289_7618)"/>
<path d="M95.7817 34.9819C95.4686 35.2732 95.2227 35.6989 95.2227 35.923C95.2227 36.3487 95.804 37.3122 96.2065 37.6035C96.6984 37.9396 98.0624 37.7827 98.6661 37.3122C99.9406 36.3039 99.0238 34.4217 97.235 34.4217C96.5642 34.4217 96.1841 34.5561 95.7817 34.9819Z" fill="url(#paint16_linear_289_7618)"/>
<path d="M111.812 35.8107C112.036 36.4829 114.495 37.1775 117.044 37.3119C118.699 37.4016 119.661 37.5584 119.907 37.7601C120.711 38.4323 123.126 42.8913 124.334 45.961C124.893 47.3726 124.937 49.0756 124.446 50.1063C124.222 50.532 123.417 51.6299 122.612 52.5262C121.025 54.3188 120.197 55.708 120.309 56.425C120.421 57.2765 120.823 57.0748 121.338 55.8649C121.606 55.2151 122.5 53.9379 123.283 53.0192C125.295 50.6889 125.698 49.7926 125.586 47.9104C125.519 46.6556 125.295 45.9386 124.222 43.6083C122.724 40.3145 121.114 37.6032 120.354 37.0431C119.929 36.7294 119.28 36.6173 117.29 36.5725C115.479 36.5053 114.406 36.3709 113.4 36.0123C111.768 35.4522 111.7 35.4522 111.812 35.8107Z" fill="url(#paint17_linear_289_7618)"/>
<path d="M34.1341 38.9704C33.3515 39.5978 32.8372 41.0542 32.6807 43.0485C32.5689 44.4377 32.6136 44.6842 33.0608 45.2667C33.5304 45.8269 33.6645 45.8717 34.4918 45.7597C35.6322 45.558 36.6831 44.9082 37.1079 44.1464C37.5328 43.3173 37.488 40.5613 36.9961 39.6202C36.3477 38.3654 35.185 38.0965 34.1341 38.9704Z" fill="url(#paint18_linear_289_7618)"/>
<path d="M117.045 39.0376C116.598 40.1803 117.492 43.5414 118.968 46.3646C119.907 48.1124 121.361 49.6584 122.099 49.6584C123.172 49.6584 123.463 48.9862 123.328 46.9248C123.06 42.7795 120.355 38.6791 117.873 38.6791C117.448 38.6791 117.135 38.8135 117.045 39.0376Z" fill="url(#paint19_linear_289_7618)"/>
<path d="M129.567 40.4718C129.389 40.9648 129.277 41.5249 129.344 41.749C129.925 43.564 131.356 44.1689 132.452 43.0486C133.212 42.3092 133.19 41.1664 132.43 40.2701C131.96 39.6876 131.692 39.5755 130.887 39.5755C129.97 39.5755 129.903 39.6203 129.567 40.4718Z" fill="url(#paint20_linear_289_7618)"/>
<path d="M87.9328 44.7286C86.8371 45.2888 86.1663 46.3867 85.585 48.6274C85.3614 49.5013 85.1602 50.3527 85.1602 50.4872C85.1602 50.9801 85.9875 51.6299 86.9266 51.8988C89.0955 52.4814 91.1973 50.1959 91.242 47.2158C91.2644 45.6697 90.9961 45.1319 89.9899 44.639C89.0284 44.1908 89.0284 44.1908 87.9328 44.7286Z" fill="url(#paint21_linear_289_7618)"/>
<path d="M101.663 46.4319C101.551 46.5215 101.484 47.5747 101.484 48.7622C101.484 51.0029 101.842 52.8851 102.602 54.4536C103.005 55.305 103.05 55.3274 102.96 54.7001C102.915 54.3191 102.714 53.266 102.513 52.3473C102.289 51.4286 102.066 49.6809 101.976 48.4709C101.887 47.2386 101.753 46.3423 101.663 46.4319Z" fill="url(#paint22_linear_289_7618)"/>
<path d="M103.293 48.8969C103.271 50.1517 104.009 52.9077 104.434 53.1542C104.613 53.2662 104.635 53.199 104.546 52.9301C104.456 52.7285 104.233 51.6753 104.031 50.5998C103.539 47.9558 103.316 47.4404 103.293 48.8969Z" fill="url(#paint23_linear_289_7618)"/>
<path d="M16.2243 50.4874C16.9398 51.07 17.9013 51.9438 18.3709 52.4368C19.1087 53.2434 19.1982 53.2882 19.064 52.7953C18.8404 51.9214 17.4765 50.3754 16.515 49.8824C15.0169 49.1206 14.8827 49.3894 16.2243 50.4874Z" fill="url(#paint24_linear_289_7618)"/>
<path d="M115.86 50.5328C114.943 51.093 114.004 52.5046 114.004 53.2889C114.004 54.2076 114.339 54.0507 115.122 52.7287C115.524 52.1013 116.15 51.2274 116.531 50.8241C117.313 49.9951 116.978 49.8606 115.86 50.5328Z" fill="url(#paint25_linear_289_7618)"/>
<path d="M13.429 50.9356C13.4737 51.0476 13.8762 51.8767 14.3458 52.8178C14.9048 53.8933 15.2849 55.0809 15.4414 56.1116C15.7321 57.9938 16.0675 58.0162 16.0675 56.1564C16.0675 54.5431 15.3967 52.6161 14.4576 51.5406C13.8539 50.8684 13.2278 50.4875 13.429 50.9356Z" fill="url(#paint26_linear_289_7618)"/>
<path d="M117.985 51.6078C116.934 52.7506 116.084 54.8792 116.353 55.7307C116.599 56.4925 116.845 56.2013 117.113 54.8568C117.247 54.1174 117.717 52.9747 118.119 52.28C118.946 50.8908 118.902 50.6443 117.985 51.6078Z" fill="url(#paint27_linear_289_7618)"/>
<path d="M44.0183 51.944C43.0121 52.3249 42.4531 53.0419 42.4531 53.9158C42.4531 55.4619 44.2643 56.3581 45.3599 55.3722C46.7015 54.1623 45.6059 51.3166 44.0183 51.944Z" fill="url(#paint28_linear_289_7618)"/>
<path d="M66.423 53.468C65.6404 54.2075 65.2155 55.2606 65.0814 56.7619C64.9919 57.927 65.059 58.2631 65.3721 58.6216C65.864 59.1818 66.9373 59.2042 67.4739 58.6664C68.9049 57.3444 69.531 54.3867 68.6142 53.468C68.0329 52.8855 67.0491 52.8855 66.423 53.468Z" fill="url(#paint29_linear_289_7618)"/>
<path d="M28.8125 54.4759C28.8125 54.5207 29.8858 55.3049 31.2274 56.1788C32.5466 57.0751 34.4472 58.4867 35.4534 59.3381C36.4596 60.1672 37.3987 60.8618 37.5328 60.8618C38.0471 60.8618 36.0571 58.778 34.2012 57.3663C32.0547 55.7755 28.8125 54.0053 28.8125 54.4759Z" fill="url(#paint30_linear_289_7618)"/>
<path d="M25.415 57.4788C25.0125 57.8373 24.7442 58.2182 24.8336 58.3079C24.9454 58.3975 25.1914 58.3079 25.415 58.1062C26.0411 57.5236 27.7181 57.6133 29.0149 58.2855C31.2733 59.4058 36.0806 63.8648 37.0198 65.6797C37.534 66.6656 37.4222 68.5254 36.6844 70.8781C35.9688 73.1412 36.0806 73.5894 36.9527 71.8864C37.8247 70.1611 38.2719 68.3462 38.1601 66.9121C38.0483 65.366 37.3551 64.3353 34.5825 61.6017C31.1838 58.2406 28.9702 56.829 27.092 56.829C26.3541 56.829 25.974 56.9859 25.415 57.4788Z" fill="url(#paint31_linear_289_7618)"/>
<path d="M54.4372 59.3379C53.6322 60.4807 54.4148 61.9819 55.8235 61.9819C57.2098 61.9819 57.9477 60.2566 56.9862 59.2931C56.3378 58.6433 54.8844 58.6881 54.4372 59.3379Z" fill="url(#paint32_linear_289_7618)"/>
<path d="M26.8687 61.4445C25.0129 62.3632 23.2912 66.7101 22.7769 71.7741C22.2626 76.7932 23.4253 80.2439 25.639 80.2439C26.7793 80.2439 28.814 78.9443 30.6923 77.0621C33.9345 73.8355 35.0972 68.9508 33.3978 65.8139C32.1233 63.4835 29.4625 61.086 28.1656 61.086C27.8302 61.086 27.2712 61.2653 26.8687 61.4445ZM32.2798 65.657C33.2413 66.0603 33.6214 67.2479 33.4425 69.4886C33.1742 73.1409 30.8935 76.5019 27.1371 78.765C25.4377 79.7958 25.3483 79.6613 25.3483 76.3675C25.3706 71.3932 27.2041 66.4412 29.373 65.545C30.0886 65.2537 31.4525 65.3209 32.2798 65.657Z" fill="url(#paint33_linear_289_7618)"/>
<path d="M114.296 62.7666C113.737 63.1699 113.312 64.4247 113.491 65.1642C113.558 65.4554 113.826 65.9036 114.072 66.1725C115.011 67.2256 116.912 66.5534 116.912 65.209C116.912 64.0662 115.794 62.4305 115.011 62.4305C114.877 62.4305 114.564 62.5874 114.296 62.7666Z" fill="url(#paint34_linear_289_7618)"/>
<path d="M85.1602 62.7665C85.1602 62.8113 85.585 62.9682 86.1216 63.1026C86.6359 63.237 88.4918 63.842 90.2582 64.4694C93.4109 65.5898 94.2159 65.7466 93.1203 65.0296C91.488 63.9765 85.1602 62.1615 85.1602 62.7665Z" fill="url(#paint35_linear_289_7618)"/>
<path d="M78.1161 64.1334C76.7298 64.5368 77.3559 64.7608 80.4639 65.0073C83.1247 65.209 85.316 65.8812 89.2289 67.6513C94.2376 69.9368 95.4226 70.2729 101.035 70.9675C105.306 71.4829 108.369 72.7825 110.717 75.068C112.215 76.5244 113.601 78.6083 114.25 80.4008C114.518 81.1179 114.831 81.7004 114.92 81.7004C115.189 81.7004 115.166 81.566 114.786 80.0423C113.981 76.9278 112.148 74.3734 109.398 72.536C107.206 71.0572 104.993 70.3625 100.252 69.6903C95.3555 68.9957 93.9022 68.57 89.6538 66.6878C87.7308 65.8364 85.3607 64.9401 84.3769 64.6712C82.6104 64.2231 78.9881 63.9094 78.1161 64.1334Z" fill="url(#paint36_linear_289_7618)"/>
<path d="M64.6333 68.2117C62.5091 70.8781 60.3402 76.6815 60.6085 78.8998C60.6756 79.4823 60.7427 79.3927 61.0781 78.2276C62.2184 74.3512 62.7998 72.8275 64.0743 70.2955C64.8345 68.7494 65.4382 67.4722 65.3935 67.4274C65.3488 67.3826 65.0134 67.7411 64.6333 68.2117Z" fill="url(#paint37_linear_289_7618)"/>
<path d="M77.11 67.7856C74.8292 68.5251 72.5709 70.7434 71.1399 73.6787C69.597 76.838 69.0381 80.1094 69.4852 83.2912C69.8877 86.0249 70.648 87.7726 73.1746 92.0075C74.0243 93.4191 75.2094 95.6374 75.8131 96.937C78.1609 101.956 78.4739 102.516 79.3236 103.39C80.9782 105.093 85.7185 106.818 87.865 106.482C88.9607 106.326 93.142 104.085 102.198 98.7968C107.296 95.8391 108.503 94.9428 109.509 93.4415C112.304 89.2066 111.432 81.4763 107.788 78.0704C106.178 76.5467 104.635 75.8745 98.799 74.1044C95.9146 73.2081 92.896 72.2446 92.091 71.9085C84.5334 68.8612 78.7199 67.2479 77.11 67.7856ZM84.4887 78.8995C87.1719 79.9302 87.3731 79.975 89.6315 79.9974C90.9283 79.9974 93.142 79.9302 94.5506 79.8181C96.6077 79.6837 97.4574 79.7061 98.799 79.9974C102.623 80.8041 106.021 83.4481 107.743 86.9659C108.548 88.5792 109.196 91.0888 108.995 91.8507C108.615 93.3967 106.558 95.01 100.811 98.2814C99.0226 99.3121 95.9146 101.127 93.8798 102.315C91.8451 103.525 89.6985 104.757 89.1172 105.026L88.0439 105.564L86.6129 104.824C84.7794 103.861 83.1695 102.292 82.4092 100.724C82.0291 99.9395 81.5819 98.3711 81.2689 96.5785C80.5757 92.8814 80.1732 91.8507 78.1385 88.6689C75.0081 83.8066 74.3597 81.6555 75.3659 79.6837C76.1485 78.1376 77.3559 77.5999 79.7931 77.7343C81.403 77.8015 82.1409 78.0032 84.4887 78.8995Z" fill="url(#paint38_linear_289_7618)"/>
<path d="M18.7967 69.4883C17.9023 72.6701 17.5893 75.4486 17.6787 79.4594C17.7458 82.9773 17.7682 83.2238 18.3719 84.4337C19.4675 86.6968 21.8153 88.1309 23.3805 87.5035C24.0066 87.257 23.9842 87.2346 22.8215 86.9657C20.742 86.4728 19.4228 85.106 18.8414 82.8204C18.5284 81.6329 18.4837 80.6694 18.5955 77.4428C18.6626 75.2917 18.8862 72.3788 19.0874 70.9672C19.5346 67.763 19.4452 67.1804 18.7967 69.4883Z" fill="url(#paint39_linear_289_7618)"/>
<path d="M11.0151 69.1073C10.3443 69.5779 10.0312 70.4293 10.0312 71.8634C10.0312 73.6335 10.5455 74.5298 11.5741 74.5298C12.7815 74.5298 13.6088 73.3646 13.6088 71.6169C13.6088 69.9364 13.0051 68.9281 11.9989 68.9281C11.5964 68.9281 11.1492 69.0177 11.0151 69.1073Z" fill="url(#paint40_linear_289_7618)"/>
<path d="M122.389 70.3626C120.914 72.6033 122.278 77.8914 124.335 77.8914C125.721 77.8914 126.369 77.0623 126.615 74.9336C126.951 71.9759 125.721 69.8249 123.731 69.8249C122.926 69.8249 122.658 69.9369 122.389 70.3626Z" fill="url(#paint41_linear_289_7618)"/>
<path d="M20.8989 71.1915C20.6977 71.8637 20.4517 73.4994 20.3175 74.8662C19.9151 79.258 20.6082 82.395 22.151 83.2464C23.0454 83.7618 23.1796 83.3585 22.4194 82.5294C22.0392 82.1485 21.6144 81.4987 21.4355 81.1402C21.0107 80.1767 20.8765 75.0007 21.2119 72.4015C21.3461 71.2139 21.4132 70.1832 21.3461 70.116C21.3014 70.0488 21.0778 70.5417 20.8989 71.1915Z" fill="url(#paint42_linear_289_7618)"/>
<path d="M64.9923 71.8862C63.9861 73.4323 63.2259 75.3817 62.6892 77.7344C62.4209 79.034 63.0246 78.0705 63.4942 76.502C63.7401 75.6057 64.2097 74.3285 64.5227 73.6339C65.2606 71.9982 65.4842 71.3932 65.3948 71.3932C65.35 71.3932 65.1712 71.6173 64.9923 71.8862Z" fill="url(#paint43_linear_289_7618)"/>
<path d="M51.7325 73.1634C50.1003 73.5668 49.3848 74.3734 49.3848 75.785C49.3848 78.5187 50.9723 79.9303 52.9176 78.922C54.1474 78.2722 54.617 77.5328 54.7064 76.0091C54.7958 74.7095 54.7511 74.5302 54.1698 73.9029C53.4543 73.1186 52.7387 72.917 51.7325 73.1634Z" fill="url(#paint44_linear_289_7618)"/>
<path d="M66.3345 75.7622C65.932 76.9498 65.4401 80.2884 65.3283 82.7083C65.0823 88.2652 66.245 91.4918 70.0686 95.9284C72.4164 98.6396 72.9977 99.6928 73.758 102.538C74.5853 105.72 75.4797 107.177 77.0448 107.826C78.4759 108.431 79.0349 108.051 77.6709 107.401C76.2623 106.729 75.3902 105.138 74.4287 101.463C73.8474 99.3342 72.9977 97.9226 70.6052 95.1442C67.9668 92.0968 67.1394 90.5731 66.4686 87.4586C66.0885 85.666 66.0662 81.3863 66.4016 78.8767C66.6475 76.9498 66.6028 74.9555 66.3345 75.7622Z" fill="url(#paint45_linear_289_7618)"/>
<path d="M9.53933 77.1293C9.47225 77.2413 9.96416 78.0928 10.635 79.0115C11.9095 80.7368 13.0051 82.7758 13.7206 84.7028C13.9666 85.3078 14.1902 85.6887 14.2125 85.5767C14.3914 85.0837 13.5417 82.4397 12.7591 80.9385C11.9095 79.3027 9.76292 76.7708 9.53933 77.1293Z" fill="url(#paint46_linear_289_7618)"/>
<path d="M9.2491 80.2661C11.8652 84.277 13.0279 87.8621 13.2962 92.9484C13.4527 95.5924 13.654 96.2198 13.9223 94.8978C14.4366 92.2538 13.4975 86.9434 11.8876 83.5599C11.2615 82.1931 9.76338 80.1541 9.20438 79.818C8.84662 79.6163 8.84662 79.6611 9.2491 80.2661Z" fill="url(#paint47_linear_289_7618)"/>
<path d="M39.2551 81.2521C38.1595 82.1036 38.2936 83.9409 39.434 83.9409C39.7247 83.9409 40.2613 83.6272 40.6414 83.2463C41.6029 82.3052 41.5582 81.6106 40.5073 81.0504C39.8812 80.7367 39.9259 80.7143 39.2551 81.2521Z" fill="url(#paint48_linear_289_7618)"/>
<path d="M3.54639 82.6418C3.07683 83.1571 2.96503 83.4932 3.27807 83.4932C3.36751 83.4932 3.54639 83.4036 3.68054 83.2916C3.79234 83.1795 4.12774 83.0451 4.41842 83.0003L4.95505 82.9331L4.91034 85.846C4.8209 92.2095 6.72148 101.755 8.93511 106.191C9.53882 107.357 9.58354 107.603 9.44938 108.97C9.31522 110.157 9.35994 110.426 9.6059 110.337C10.7463 109.956 11.5736 100.41 10.9028 95.4361C10.4109 91.7166 8.75623 86.2493 7.437 83.9862C6.4308 82.2609 4.53022 81.6111 3.54639 82.6418Z" fill="url(#paint49_linear_289_7618)"/>
<path d="M114.587 87.8848C114.52 88.3777 114.408 89.2516 114.319 89.879C113.805 94.0019 112.173 96.1977 106.94 99.738C104.101 101.643 102.379 102.987 102.379 103.234C102.379 103.368 103.162 103.054 104.101 102.539C108.64 100.097 112.486 96.8924 113.738 94.5172C114.654 92.8143 115.124 90.9321 115.124 89.0948C115.124 87.347 114.789 86.5852 114.587 87.8848Z" fill="url(#paint50_linear_289_7618)"/>
<path d="M119.616 88.7586C118.61 89.61 117.76 91.6042 117.626 93.3968C117.492 95.3462 117.738 95.6823 119.146 95.5478C120.398 95.4134 121.36 94.7412 122.031 93.5536C123.015 91.8283 122.836 88.6241 121.762 88.3328C120.846 88.0863 120.309 88.1984 119.616 88.7586Z" fill="url(#paint51_linear_289_7618)"/>
<path d="M43.3477 90.3942C43.3477 90.6855 45.919 92.1867 48.714 93.5535C50.8158 94.5843 52.0456 95.0324 53.7226 95.3685C54.93 95.615 56.3611 96.0183 56.9201 96.2648C59.2008 97.2731 60.9672 99.2897 62.9349 103.144C63.7622 104.779 64.1199 105.317 64.0081 104.779C63.6057 102.584 61.8616 99.4017 60.0505 97.6092C58.5523 96.1079 56.7859 95.2341 54.2145 94.6739C52.7164 94.3602 51.196 93.7776 48.4904 92.478C44.7116 90.6631 43.3477 90.1253 43.3477 90.3942Z" fill="url(#paint52_linear_289_7618)"/>
<path d="M36.125 92.0075C35.0964 92.2764 34.1797 92.8589 34.1797 93.2399C34.1797 93.4863 34.3809 93.4639 35.2306 93.2175C36.5498 92.8141 38.5175 92.8141 39.792 93.2175C40.3286 93.3743 42.2292 94.2258 44.018 95.0996C46.5 96.3096 48.0428 96.9146 50.6142 97.6092C54.6613 98.7071 56.0476 99.3569 57.5681 100.903C59.1109 102.494 60.2736 104.779 62.1742 110.09C63.0239 112.532 63.7841 114.571 63.8288 114.616C64.3431 115.154 63.404 111.367 61.8164 106.46C60.4525 102.203 58.4625 99.6034 55.5557 98.1694C54.6837 97.7436 52.47 96.9818 50.6142 96.4665C48.0875 95.7942 46.567 95.2117 44.4429 94.1361C40.4852 92.1419 38.0927 91.5369 36.125 92.0075Z" fill="url(#paint53_linear_289_7618)"/>
<path d="M35.0749 96.6457C33.2191 96.9594 30.2899 98.3038 29.1943 99.3569C27.4502 101.015 24.7 106.213 24.7447 107.827C24.7447 108.925 24.9683 109.35 26.3546 111.188C26.9359 111.95 28.0316 113.809 28.7694 115.333C30.9831 119.859 31.9669 120.621 36.1706 120.935C40.8438 121.293 43.1915 121.607 46.4784 122.257C50.9057 123.131 51.8001 123.22 53.2982 122.951C55.1541 122.615 56.4733 121.876 58.0161 120.352C59.5589 118.829 60.7887 116.588 60.7887 115.311C60.7887 114.347 59.8049 111.367 58.7316 109.037C56.8534 105.003 54.5056 102.942 48.379 99.9619C44.2648 97.9453 41.9618 97.0938 39.7481 96.7129C38.3395 96.4888 36.1706 96.4664 35.0749 96.6457ZM42.5878 98.6399C44.9356 99.4241 50.8162 102.27 52.7392 103.547C53.5889 104.107 54.7963 105.16 55.4447 105.855C57.3453 108.006 60.0956 114.28 59.7825 115.781C59.5589 116.745 57.636 119.59 56.6969 120.307C56.2273 120.666 55.3776 121.159 54.7963 121.428C53.3429 122.1 50.5703 122.055 47.1492 121.293L44.5779 120.733L42.8785 119.097C41.7158 117.977 40.9332 116.991 40.4636 116.05C39.7034 114.526 38.9655 113.899 36.2824 112.555C34.583 111.703 33.2861 110.426 32.7271 109.126C32.5259 108.656 32.3917 107.625 32.3917 106.684C32.3917 105.34 32.5035 104.847 33.0849 103.681C34.4712 100.925 37.7805 98.483 40.6872 98.0797C40.7767 98.0573 41.6264 98.3262 42.5878 98.6399Z" fill="url(#paint54_linear_289_7618)"/>
<path d="M25.7279 98.5953C22.6646 102.113 21.0323 106.572 21.636 109.731C22.0832 112.017 22.8211 113.182 25.4596 115.804C26.8011 117.103 27.9415 118.403 28.0309 118.649C28.1875 119.142 28.5899 119.299 28.5899 118.896C28.5899 118.246 27.5614 116.79 25.8173 114.975C24.6993 113.81 23.6261 112.443 23.2683 111.726C22.7317 110.605 22.6646 110.269 22.6646 108.141C22.6646 106.034 22.754 105.609 23.3577 104.085C23.7379 103.166 24.6322 101.419 25.3478 100.209C26.0409 99.021 26.5776 97.9903 26.5328 97.9231C26.4658 97.8782 26.108 98.1695 25.7279 98.5953Z" fill="url(#paint55_linear_289_7618)"/>
<path d="M112.194 99.1104C110.226 100.791 107.722 102.606 104.949 104.331C103.518 105.228 102.4 105.989 102.445 106.057C102.758 106.348 107.632 103.614 109.421 102.158C111.143 100.724 113.803 98.0573 113.513 98.0573C113.468 98.0573 112.864 98.5279 112.194 99.1104Z" fill="url(#paint56_linear_289_7618)"/>
<path d="M93.4116 108.387C92.6067 109.194 92.5172 109.396 92.5843 110.225C92.6514 111.054 92.7408 111.211 93.434 111.547C95.8936 112.757 98.4426 109.978 96.5867 108.118C95.6029 107.132 94.5743 107.222 93.4116 108.387Z" fill="url(#paint57_linear_289_7618)"/>
<path d="M109.063 109.328C108.37 109.843 106.939 110.896 105.843 111.681C104.77 112.465 103.943 113.137 104.01 113.204C104.39 113.585 110.874 109.126 110.874 108.476C110.874 108.163 110.181 108.476 109.063 109.328Z" fill="url(#paint58_linear_289_7618)"/>
<path d="M108.235 112.42C105.954 113.787 105.216 114.504 106.759 113.854C108.526 113.114 111.455 111.053 110.717 111.053C110.605 111.053 109.487 111.658 108.235 112.42Z" fill="url(#paint59_linear_289_7618)"/>
<path d="M73.3318 112.286C72.9517 112.734 72.6387 113.339 72.6387 113.653C72.6387 115.513 74.6734 116.611 76.0821 115.513C76.8647 114.885 77.3342 113.944 77.3342 112.958C77.3342 112.241 77.2448 112.107 76.5516 111.816C76.1268 111.659 75.3889 111.502 74.897 111.502C74.1815 111.502 73.9132 111.636 73.3318 112.286Z" fill="url(#paint60_linear_289_7618)"/>
<path d="M87.2847 116.341C83.3494 116.857 81.0239 117.619 78.1395 119.322C73.8688 121.853 70.8278 125.327 70.2912 128.351C69.7993 131.04 72.3483 134.132 76.0153 135.275C78.1619 135.947 84.1319 137.001 87.3518 137.269C93.2995 137.785 98.6211 136.53 101.282 133.998C102.847 132.497 103.54 130.099 103.563 125.954C103.585 123.086 103.384 122.257 102.288 120.823C101.506 119.814 97.1677 117.663 94.5069 116.991C92.4498 116.476 88.7604 116.14 87.2847 116.341ZM97.123 123.803C99.3143 124.251 101.506 125.237 102.355 126.133C102.869 126.693 102.869 126.738 102.601 128.553C102.042 132.519 100.075 134.491 95.5131 135.746C94.0373 136.149 93.1653 136.216 89.7443 136.194C86.3232 136.194 85.1158 136.082 81.6947 135.522C79.4811 135.141 77.0662 134.648 76.3284 134.424L74.9868 133.998L75.0315 133.079C75.1209 130.794 77.9383 127.007 80.6885 125.439C82.2537 124.565 85.0263 123.668 87.0611 123.4C89.3418 123.086 94.7529 123.288 97.123 123.803Z" fill="url(#paint61_linear_289_7618)"/>
<path d="M56.7189 124.184C56.3612 124.52 56.5624 125.237 57.2555 126.156C58.776 128.172 59.5139 128.441 61.0344 127.59C62.5772 126.716 62.5101 125.528 60.9002 124.744C59.7822 124.184 57.0543 123.825 56.7189 124.184Z" fill="url(#paint62_linear_289_7618)"/>
<path d="M36.5051 124.699C36.5946 124.811 37.7796 125.17 39.1659 125.483C43.459 126.492 46.0751 127.209 46.7012 127.522C47.0366 127.701 48.0204 128.62 48.8925 129.584C49.7645 130.547 50.5247 131.264 50.6142 131.175C50.8154 130.973 49.2502 128.553 48.4006 127.791C47.0366 126.536 45.6056 126.021 40.91 125.057C38.0703 124.475 36.2815 124.34 36.5051 124.699Z" fill="url(#paint63_linear_289_7618)"/>
<path d="M48.3333 125.775C47.7072 126.021 48.1097 126.245 49.4513 126.402C51.6202 126.626 52.9394 127.074 54.7059 128.217C56.4276 129.315 56.8524 129.36 56.2263 128.419C55.2425 126.917 52.2239 125.595 49.8538 125.64C49.1606 125.64 48.4675 125.707 48.3333 125.775Z" fill="url(#paint64_linear_289_7618)"/>
<defs>
<linearGradient id="paint0_linear_289_7618" x1="1.93919e-07" y1="93.6" x2="154.496" y2="92.4831" gradientUnits="userSpaceOnUse">
<stop stop-color="#41A380"/>
<stop offset="1" stop-color="#63D5AC"/>
</linearGradient>
<linearGradient id="paint1_linear_289_7618" x1="61.7656" y1="6.13316" x2="96.5938" y2="4.32164" gradientUnits="userSpaceOnUse">
<stop stop-color="#41A380"/>
<stop offset="1" stop-color="#63D5AC"/>
</linearGradient>
<linearGradient id="paint2_linear_289_7618" x1="61.9063" y1="10.4714" x2="70.4478" y2="10.2677" gradientUnits="userSpaceOnUse">
<stop stop-color="#41A380"/>
<stop offset="1" stop-color="#63D5AC"/>
</linearGradient>
<linearGradient id="paint3_linear_289_7618" x1="60.1074" y1="11.6781" x2="68.2466" y2="11.4746" gradientUnits="userSpaceOnUse">
<stop stop-color="#41A380"/>
<stop offset="1" stop-color="#63D5AC"/>
</linearGradient>
<linearGradient id="paint4_linear_289_7618" x1="85.6074" y1="17.0444" x2="89.8776" y2="17.0145" gradientUnits="userSpaceOnUse">
<stop stop-color="#41A380"/>
<stop offset="1" stop-color="#63D5AC"/>
</linearGradient>
<linearGradient id="paint5_linear_289_7618" x1="71.5898" y1="21.3969" x2="80.5342" y2="21.3441" gradientUnits="userSpaceOnUse">
<stop stop-color="#41A380"/>
<stop offset="1" stop-color="#63D5AC"/>
</linearGradient>
<linearGradient id="paint6_linear_289_7618" x1="69.832" y1="33.207" x2="80.4356" y2="33.176" gradientUnits="userSpaceOnUse">
<stop stop-color="#41A380"/>
<stop offset="1" stop-color="#63D5AC"/>
</linearGradient>
<linearGradient id="paint7_linear_289_7618" x1="53.498" y1="36.3713" x2="75.9067" y2="36.2364" gradientUnits="userSpaceOnUse">
<stop stop-color="#41A380"/>
<stop offset="1" stop-color="#63D5AC"/>
</linearGradient>
<linearGradient id="paint8_linear_289_7618" x1="7.04688" y1="39.934" x2="27.1563" y2="39.8294" gradientUnits="userSpaceOnUse">
<stop stop-color="#41A380"/>
<stop offset="1" stop-color="#63D5AC"/>
</linearGradient>
<linearGradient id="paint9_linear_289_7618" x1="105.51" y1="26.3493" x2="110.025" y2="26.3223" gradientUnits="userSpaceOnUse">
<stop stop-color="#41A380"/>
<stop offset="1" stop-color="#63D5AC"/>
</linearGradient>
<linearGradient id="paint10_linear_289_7618" x1="28.1719" y1="32.9338" x2="33.7401" y2="32.9173" gradientUnits="userSpaceOnUse">
<stop stop-color="#41A380"/>
<stop offset="1" stop-color="#63D5AC"/>
</linearGradient>
<linearGradient id="paint11_linear_289_7618" x1="20.4863" y1="36.8199" x2="31.0819" y2="36.7798" gradientUnits="userSpaceOnUse">
<stop stop-color="#41A380"/>
<stop offset="1" stop-color="#63D5AC"/>
</linearGradient>
<linearGradient id="paint12_linear_289_7618" x1="50.5176" y1="38.9972" x2="56.0018" y2="38.987" gradientUnits="userSpaceOnUse">
<stop stop-color="#41A380"/>
<stop offset="1" stop-color="#63D5AC"/>
</linearGradient>
<linearGradient id="paint13_linear_289_7618" x1="117.488" y1="29.605" x2="125.26" y2="29.5176" gradientUnits="userSpaceOnUse">
<stop stop-color="#41A380"/>
<stop offset="1" stop-color="#63D5AC"/>
</linearGradient>
<linearGradient id="paint14_linear_289_7618" x1="115.346" y1="30.3324" x2="123.485" y2="30.2206" gradientUnits="userSpaceOnUse">
<stop stop-color="#41A380"/>
<stop offset="1" stop-color="#63D5AC"/>
</linearGradient>
<linearGradient id="paint15_linear_289_7618" x1="48.0879" y1="39.33" x2="50.7492" y2="39.3264" gradientUnits="userSpaceOnUse">
<stop stop-color="#41A380"/>
<stop offset="1" stop-color="#63D5AC"/>
</linearGradient>
<linearGradient id="paint16_linear_289_7618" x1="95.2227" y1="36.4386" x2="99.2991" y2="36.4025" gradientUnits="userSpaceOnUse">
<stop stop-color="#41A380"/>
<stop offset="1" stop-color="#63D5AC"/>
</linearGradient>
<linearGradient id="paint17_linear_289_7618" x1="111.777" y1="48.3917" x2="125.738" y2="48.3252" gradientUnits="userSpaceOnUse">
<stop stop-color="#41A380"/>
<stop offset="1" stop-color="#63D5AC"/>
</linearGradient>
<linearGradient id="paint18_linear_289_7618" x1="32.6289" y1="42.8695" x2="37.4451" y2="42.8464" gradientUnits="userSpaceOnUse">
<stop stop-color="#41A380"/>
<stop offset="1" stop-color="#63D5AC"/>
</linearGradient>
<linearGradient id="paint19_linear_289_7618" x1="116.93" y1="45.2667" x2="123.422" y2="45.2387" gradientUnits="userSpaceOnUse">
<stop stop-color="#41A380"/>
<stop offset="1" stop-color="#63D5AC"/>
</linearGradient>
<linearGradient id="paint20_linear_289_7618" x1="129.324" y1="41.9982" x2="133.047" y2="41.9731" gradientUnits="userSpaceOnUse">
<stop stop-color="#41A380"/>
<stop offset="1" stop-color="#63D5AC"/>
</linearGradient>
<linearGradient id="paint21_linear_289_7618" x1="85.1602" y1="48.9193" x2="91.3029" y2="48.8834" gradientUnits="userSpaceOnUse">
<stop stop-color="#41A380"/>
<stop offset="1" stop-color="#63D5AC"/>
</linearGradient>
<linearGradient id="paint22_linear_289_7618" x1="101.484" y1="51.6519" x2="103.014" y2="51.6499" gradientUnits="userSpaceOnUse">
<stop stop-color="#41A380"/>
<stop offset="1" stop-color="#63D5AC"/>
</linearGradient>
<linearGradient id="paint23_linear_289_7618" x1="103.293" y1="51.1627" x2="104.61" y2="51.1603" gradientUnits="userSpaceOnUse">
<stop stop-color="#41A380"/>
<stop offset="1" stop-color="#63D5AC"/>
</linearGradient>
<linearGradient id="paint24_linear_289_7618" x1="15.2988" y1="51.6489" x2="19.1534" y2="51.6193" gradientUnits="userSpaceOnUse">
<stop stop-color="#41A380"/>
<stop offset="1" stop-color="#63D5AC"/>
</linearGradient>
<linearGradient id="paint25_linear_289_7618" x1="114.004" y1="52.3641" x2="116.986" y2="52.3468" gradientUnits="userSpaceOnUse">
<stop stop-color="#41A380"/>
<stop offset="1" stop-color="#63D5AC"/>
</linearGradient>
<linearGradient id="paint26_linear_289_7618" x1="13.3906" y1="54.8191" x2="16.0938" y2="54.8112" gradientUnits="userSpaceOnUse">
<stop stop-color="#41A380"/>
<stop offset="1" stop-color="#63D5AC"/>
</linearGradient>
<linearGradient id="paint27_linear_289_7618" x1="116.303" y1="54.0977" x2="118.731" y2="54.0892" gradientUnits="userSpaceOnUse">
<stop stop-color="#41A380"/>
<stop offset="1" stop-color="#63D5AC"/>
</linearGradient>
<linearGradient id="paint28_linear_289_7618" x1="42.4531" y1="54.213" x2="45.9974" y2="54.1897" gradientUnits="userSpaceOnUse">
<stop stop-color="#41A380"/>
<stop offset="1" stop-color="#63D5AC"/>
</linearGradient>
<linearGradient id="paint29_linear_289_7618" x1="65.0449" y1="56.6461" x2="69.0838" y2="56.6264" gradientUnits="userSpaceOnUse">
<stop stop-color="#41A380"/>
<stop offset="1" stop-color="#63D5AC"/>
</linearGradient>
<linearGradient id="paint30_linear_289_7618" x1="28.8125" y1="58.2766" x2="37.7008" y2="58.1873" gradientUnits="userSpaceOnUse">
<stop stop-color="#41A380"/>
<stop offset="1" stop-color="#63D5AC"/>
</linearGradient>
<linearGradient id="paint31_linear_289_7618" x1="24.8164" y1="66.4833" x2="38.3078" y2="66.4007" gradientUnits="userSpaceOnUse">
<stop stop-color="#41A380"/>
<stop offset="1" stop-color="#63D5AC"/>
</linearGradient>
<linearGradient id="paint32_linear_289_7618" x1="54.1133" y1="60.7202" x2="57.4541" y2="60.6944" gradientUnits="userSpaceOnUse">
<stop stop-color="#41A380"/>
<stop offset="1" stop-color="#63D5AC"/>
</linearGradient>
<linearGradient id="paint33_linear_289_7618" x1="22.6563" y1="72.5807" x2="34.2894" y2="72.5292" gradientUnits="userSpaceOnUse">
<stop stop-color="#41A380"/>
<stop offset="1" stop-color="#63D5AC"/>
</linearGradient>
<linearGradient id="paint34_linear_289_7618" x1="113.449" y1="64.986" x2="116.946" y2="64.9651" gradientUnits="userSpaceOnUse">
<stop stop-color="#41A380"/>
<stop offset="1" stop-color="#63D5AC"/>
</linearGradient>
<linearGradient id="paint35_linear_289_7618" x1="85.1602" y1="64.3373" x2="93.6624" y2="64.15" gradientUnits="userSpaceOnUse">
<stop stop-color="#41A380"/>
<stop offset="1" stop-color="#63D5AC"/>
</linearGradient>
<linearGradient id="paint36_linear_289_7618" x1="77.418" y1="74.644" x2="115.461" y2="74.045" gradientUnits="userSpaceOnUse">
<stop stop-color="#41A380"/>
<stop offset="1" stop-color="#63D5AC"/>
</linearGradient>
<linearGradient id="paint37_linear_289_7618" x1="60.5859" y1="74.5199" x2="65.4431" y2="74.5053" gradientUnits="userSpaceOnUse">
<stop stop-color="#41A380"/>
<stop offset="1" stop-color="#63D5AC"/>
</linearGradient>
<linearGradient id="paint38_linear_289_7618" x1="69.3359" y1="90.9881" x2="111.569" y2="90.6529" gradientUnits="userSpaceOnUse">
<stop stop-color="#41A380"/>
<stop offset="1" stop-color="#63D5AC"/>
</linearGradient>
<linearGradient id="paint39_linear_289_7618" x1="17.6641" y1="79.8263" x2="23.8499" y2="79.812" gradientUnits="userSpaceOnUse">
<stop stop-color="#41A380"/>
<stop offset="1" stop-color="#63D5AC"/>
</linearGradient>
<linearGradient id="paint40_linear_289_7618" x1="10.0313" y1="72.2891" x2="13.6439" y2="72.2721" gradientUnits="userSpaceOnUse">
<stop stop-color="#41A380"/>
<stop offset="1" stop-color="#63D5AC"/>
</linearGradient>
<linearGradient id="paint41_linear_289_7618" x1="121.77" y1="74.6648" x2="126.718" y2="74.6426" gradientUnits="userSpaceOnUse">
<stop stop-color="#41A380"/>
<stop offset="1" stop-color="#63D5AC"/>
</linearGradient>
<linearGradient id="paint42_linear_289_7618" x1="20.2051" y1="78.1293" x2="22.9415" y2="78.1252" gradientUnits="userSpaceOnUse">
<stop stop-color="#41A380"/>
<stop offset="1" stop-color="#63D5AC"/>
</linearGradient>
<linearGradient id="paint43_linear_289_7618" x1="62.623" y1="75.5621" x2="65.4408" y2="75.5537" gradientUnits="userSpaceOnUse">
<stop stop-color="#41A380"/>
<stop offset="1" stop-color="#63D5AC"/>
</linearGradient>
<linearGradient id="paint44_linear_289_7618" x1="49.3848" y1="76.7744" x2="54.7945" y2="76.7399" gradientUnits="userSpaceOnUse">
<stop stop-color="#41A380"/>
<stop offset="1" stop-color="#63D5AC"/>
</linearGradient>
<linearGradient id="paint45_linear_289_7618" x1="65.2969" y1="95.1094" x2="78.5811" y2="95.0698" gradientUnits="userSpaceOnUse">
<stop stop-color="#41A380"/>
<stop offset="1" stop-color="#63D5AC"/>
</linearGradient>
<linearGradient id="paint46_linear_289_7618" x1="9.5332" y1="82.1957" x2="14.2828" y2="82.1763" gradientUnits="userSpaceOnUse">
<stop stop-color="#41A380"/>
<stop offset="1" stop-color="#63D5AC"/>
</linearGradient>
<linearGradient id="paint47_linear_289_7618" x1="8.94141" y1="89.2246" x2="14.1138" y2="89.2123" gradientUnits="userSpaceOnUse">
<stop stop-color="#41A380"/>
<stop offset="1" stop-color="#63D5AC"/>
</linearGradient>
<linearGradient id="paint48_linear_289_7618" x1="38.502" y1="82.6959" x2="41.3581" y2="82.6768" gradientUnits="userSpaceOnUse">
<stop stop-color="#41A380"/>
<stop offset="1" stop-color="#63D5AC"/>
</linearGradient>
<linearGradient id="paint49_linear_289_7618" x1="3.10156" y1="99.0709" x2="11.2225" y2="99.0539" gradientUnits="userSpaceOnUse">
<stop stop-color="#41A380"/>
<stop offset="1" stop-color="#63D5AC"/>
</linearGradient>
<linearGradient id="paint50_linear_289_7618" x1="102.379" y1="96.8514" x2="115.249" y2="96.776" gradientUnits="userSpaceOnUse">
<stop stop-color="#41A380"/>
<stop offset="1" stop-color="#63D5AC"/>
</linearGradient>
<linearGradient id="paint51_linear_289_7618" x1="117.594" y1="92.628" x2="122.727" y2="92.6019" gradientUnits="userSpaceOnUse">
<stop stop-color="#41A380"/>
<stop offset="1" stop-color="#63D5AC"/>
</linearGradient>
<linearGradient id="paint52_linear_289_7618" x1="43.3477" y1="99.12" x2="64.2291" y2="98.9028" gradientUnits="userSpaceOnUse">
<stop stop-color="#41A380"/>
<stop offset="1" stop-color="#63D5AC"/>
</linearGradient>
<linearGradient id="paint53_linear_289_7618" x1="34.1797" y1="105.543" x2="64.2601" y2="105.253" gradientUnits="userSpaceOnUse">
<stop stop-color="#41A380"/>
<stop offset="1" stop-color="#63D5AC"/>
</linearGradient>
<linearGradient id="paint54_linear_289_7618" x1="24.7441" y1="112.462" x2="61.1393" y2="112.098" gradientUnits="userSpaceOnUse">
<stop stop-color="#41A380"/>
<stop offset="1" stop-color="#63D5AC"/>
</linearGradient>
<linearGradient id="paint55_linear_289_7618" x1="21.5117" y1="110.643" x2="28.6595" y2="110.625" gradientUnits="userSpaceOnUse">
<stop stop-color="#41A380"/>
<stop offset="1" stop-color="#63D5AC"/>
</linearGradient>
<linearGradient id="paint56_linear_289_7618" x1="102.443" y1="102.87" x2="113.643" y2="102.756" gradientUnits="userSpaceOnUse">
<stop stop-color="#41A380"/>
<stop offset="1" stop-color="#63D5AC"/>
</linearGradient>
<linearGradient id="paint57_linear_289_7618" x1="92.5664" y1="110.081" x2="97.2694" y2="110.045" gradientUnits="userSpaceOnUse">
<stop stop-color="#41A380"/>
<stop offset="1" stop-color="#63D5AC"/>
</linearGradient>
<linearGradient id="paint58_linear_289_7618" x1="104.006" y1="111.279" x2="110.941" y2="111.207" gradientUnits="userSpaceOnUse">
<stop stop-color="#41A380"/>
<stop offset="1" stop-color="#63D5AC"/>
</linearGradient>
<linearGradient id="paint59_linear_289_7618" x1="105.945" y1="112.879" x2="110.881" y2="112.82" gradientUnits="userSpaceOnUse">
<stop stop-color="#41A380"/>
<stop offset="1" stop-color="#63D5AC"/>
</linearGradient>
<linearGradient id="paint60_linear_289_7618" x1="72.6387" y1="114.171" x2="77.3801" y2="114.134" gradientUnits="userSpaceOnUse">
<stop stop-color="#41A380"/>
<stop offset="1" stop-color="#63D5AC"/>
</linearGradient>
<linearGradient id="paint61_linear_289_7618" x1="70.2305" y1="128.943" x2="103.887" y2="128.551" gradientUnits="userSpaceOnUse">
<stop stop-color="#41A380"/>
<stop offset="1" stop-color="#63D5AC"/>
</linearGradient>
<linearGradient id="paint62_linear_289_7618" x1="56.5449" y1="126.443" x2="62.2053" y2="126.385" gradientUnits="userSpaceOnUse">
<stop stop-color="#41A380"/>
<stop offset="1" stop-color="#63D5AC"/>
</linearGradient>
<linearGradient id="paint63_linear_289_7618" x1="36.4863" y1="128.51" x2="50.7674" y2="128.287" gradientUnits="userSpaceOnUse">
<stop stop-color="#41A380"/>
<stop offset="1" stop-color="#63D5AC"/>
</linearGradient>
<linearGradient id="paint64_linear_289_7618" x1="48.0449" y1="127.707" x2="56.5802" y2="127.552" gradientUnits="userSpaceOnUse">
<stop stop-color="#41A380"/>
<stop offset="1" stop-color="#63D5AC"/>
</linearGradient>
</defs>
</svg>
