<svg width="72" height="78" viewBox="0 0 72 78" fill="none" xmlns="http://www.w3.org/2000/svg">
<g opacity="0.4">
<path d="M25.905 67.8601C26.8632 68.0775 27.4775 67.835 28.5694 66.8043C28.9029 66.4924 29.2296 66.2141 29.3002 66.2016C29.3744 66.1816 29.8558 66.2176 30.39 66.2787C32.889 66.5761 35.847 66.4921 38.1726 66.0692L39.0122 65.9158L39.7362 66.3725C41.2067 67.2967 42.1488 67.451 43.3699 66.9625C43.7438 66.8176 44.3417 66.4934 44.7134 66.2367C45.8291 65.4853 46.3163 65.219 47.4599 64.7766C48.0965 64.5263 48.728 64.2089 48.9743 64.0216C49.202 63.8347 50.1003 63.0164 50.9649 62.1912C52.4301 60.7844 52.547 60.6555 52.7983 60.1287C53.0966 59.5228 53.1264 59.112 52.9559 58.3468L52.8745 57.9753L53.5574 57.2019C54.9235 55.6739 56.3392 53.5966 57.0752 52.054L57.4736 51.2187L58.2151 51C59.5461 50.6101 59.8442 50.1981 60.1171 48.4066C60.4655 46.0505 60.7667 44.9932 61.7397 42.76C62.0579 42.0157 62.3639 41.2194 62.4006 40.9875C62.666 39.5989 62.1984 38.4885 60.6594 36.8756C60.2528 36.4504 59.8802 36.0507 59.8158 35.9922C59.7624 35.9298 59.6497 35.4693 59.5771 34.9634C59.3645 33.5314 58.9915 32.0873 58.4773 30.6683L57.9949 29.3568L58.2909 28.8329C59.1433 27.3366 59.165 26.2845 58.3806 24.9673C57.8 23.997 51.7403 16.2979 51.1339 15.7495C50.6642 15.3404 50.031 15.158 48.9795 15.1362C47.201 15.1091 45.9444 15.285 45.1612 15.6685L44.74 15.8739L43.5869 15.3878C40.2999 13.9933 36.8397 13.3107 33.0936 13.3046C31.0138 13.3091 29.6966 13.4376 27.7021 13.8247L26.5619 14.047L25.644 13.5901C24.9031 13.2269 24.6216 13.1202 24.2444 13.0786C23.333 12.9759 23.4621 12.899 16.7345 17.4007C14.2673 19.0496 13.8355 19.4902 13.0748 21.1041C12.6045 22.0899 12.5481 22.2663 12.4812 22.8903L12.4007 23.5818L11.916 24.1912C11.3224 24.9517 10.6619 25.9298 10.1598 26.808L9.76938 27.4716L8.96809 27.6802C8.0109 27.9252 7.3113 28.1916 6.96568 28.4515C6.49493 28.7996 6.23987 29.5278 5.64009 32.198C5.34397 33.535 4.99895 35.0518 4.87807 35.5762C4.54313 37.0332 4.3824 38.0282 4.41861 38.3781C4.49958 39.1375 4.88207 39.6713 6.19724 40.8632C6.59529 41.2288 6.77065 41.442 6.78089 41.5947C7.10151 44.6584 7.45247 46.3229 8.29753 48.7131C9.36303 51.7445 11.1326 54.7518 13.291 57.215C13.5537 57.516 13.7981 57.836 13.8445 57.9321C13.8799 58.0322 13.8862 58.5804 13.852 59.1554C13.8104 59.9394 13.8398 60.323 13.9616 60.6676C14.131 61.1643 14.5994 61.7115 15.2185 62.1365C15.6338 62.4273 17.8027 63.6296 19.3193 64.4187C19.8686 64.6995 20.6635 65.1624 21.09 65.4492C22.1426 66.1461 25.2725 67.715 25.905 67.8601ZM21.4019 65.1825C21.1266 65.0047 19.9177 64.3257 18.7091 63.6652C14.4701 61.3632 14.1669 61.089 14.1998 59.6264C14.2301 58.2272 14.1934 57.646 14.0113 57.0601C13.8248 56.4444 13.6305 56.2129 13.7486 56.759C13.781 56.9039 13.7802 57.0606 13.7436 57.0985C13.6557 57.1859 11.8615 54.869 11.1285 53.715C9.52441 51.1933 8.40522 48.4873 7.69986 45.3785C7.33488 43.7627 7.35969 43.2849 7.94715 40.7566C8.33748 39.0673 8.84368 37.5997 9.55088 36.1173C10.5884 33.9425 11.3877 32.809 13.2461 30.8878C14.7824 29.2932 14.931 29.0592 15.6587 27.0692C16.1027 25.8675 16.2711 25.4952 16.5362 25.1137C16.9104 24.5809 17.4278 24.1351 17.9934 23.8786C18.4443 23.6689 19.8146 23.3902 20.4516 23.3711C21.357 23.3508 22.9042 23.1659 23.5797 23.0081C24.5408 22.7742 25.1452 22.3976 26.0486 21.4524C26.9046 20.5677 27.1373 20.4478 28.0688 20.4308C29.0079 20.4173 29.3352 20.1764 29.8597 19.0963C30.499 17.7755 31.2403 16.9377 32.3133 16.2952C34.415 15.0446 37.0556 15.3357 40.6419 17.2058C43.1106 18.4959 44.7037 19.802 46.6813 22.1603C47.8701 23.5782 48.134 23.7412 49.4223 23.8668C50.7255 23.9996 51.2829 24.1088 52.1461 24.4287C53.8347 25.0505 56.5748 26.9137 57.6338 28.1587L57.9956 28.581L57.7751 29.1594C57.5262 29.8166 57.4484 30.2507 57.5182 30.6075C57.5917 30.9567 57.7204 30.8611 57.7499 30.4317C57.7612 30.2338 57.8032 30.0876 57.8483 30.1091C58.0664 30.2133 58.9817 33.3855 59.1978 34.81L59.2947 35.4199L59.0239 35.2906C58.881 35.2223 58.7464 35.1949 58.7248 35.2401C58.6638 35.368 58.9079 35.6694 59.7357 36.5084C61.4939 38.2814 62.1363 39.3736 62.0446 40.4756C62.0005 40.9165 61.8985 41.2465 61.3983 42.4306C60.3515 44.915 59.9698 46.2573 59.7264 48.2385C59.5841 49.4271 59.3672 49.998 58.9406 50.3116C58.7896 50.4151 58.275 50.6035 57.789 50.7318C56.8394 50.9804 56.2009 51.3315 56.2835 51.5649C56.3189 51.665 56.36 51.6754 56.4558 51.6103C56.5257 51.5605 56.6881 51.4718 56.8175 51.4134L57.054 51.3047L56.8461 51.7598C56.1465 53.2458 54.5198 55.6104 53.1756 57.1119L52.781 57.5518L52.5563 56.8808C52.3431 56.2246 52.2204 56.0366 52.127 56.2323C52.0696 56.3527 52.148 56.769 52.4571 57.9792C52.883 59.661 52.7932 59.8491 50.775 61.7956C48.859 63.6247 48.4618 63.9154 47.1149 64.4547C46.0049 64.9039 45.7503 65.0503 44.4102 65.9625C44.0127 66.2346 43.4148 66.5588 43.0703 66.6807C42.0299 67.0616 41.3715 66.9319 39.9095 66.0672C39.3896 65.7634 38.7762 65.4427 38.5434 65.35C38.1455 65.1969 38.1268 65.1972 38.3273 65.3577C38.4447 65.46 38.5288 65.5741 38.5109 65.6117C38.4355 65.7697 35.6339 66.0485 33.9048 66.0726C32.1385 66.0975 30.1198 65.974 29.9755 65.8312C29.9376 65.7946 30.1558 65.7048 30.4562 65.6173C30.9532 65.4851 31.1927 65.3316 31.0348 65.2561C31.0047 65.2418 30.77 65.2498 30.5245 65.2804C29.9072 65.3551 29.0626 65.8479 28.3963 66.5091C27.6863 67.2233 27.4987 67.3647 27.0537 67.4847C26.72 67.5841 26.4739 67.5774 25.9391 67.479C25.6697 67.4243 21.9415 65.5418 21.4019 65.1825Z" fill="url(#paint0_linear_314_4081)"/>
<path d="M26.1975 66.7436C26.5363 66.5174 24.3046 64.324 22.4892 63.0965C22.1118 62.8423 21.2349 62.3772 20.2798 61.921C18.554 61.1059 17.3502 60.7065 15.9674 60.508C14.7304 60.333 14.4851 60.5762 15.6159 60.8576C16.155 60.9857 16.3165 61.0536 16.4611 61.2151C16.7045 61.4792 18.0621 62.5435 18.7148 62.9754C20.3676 64.0791 22.2997 64.965 24.1766 65.4826C25.1132 65.7452 25.1132 65.7452 25.3874 66.061C25.7718 66.4941 26.1201 66.7898 26.1975 66.7436Z" fill="url(#paint1_linear_314_4081)"/>
<path d="M27.0939 64.7682C27.1442 64.6629 26.6123 64.1133 25.8931 63.5112C24.9545 62.7304 24.6262 62.509 24.6104 62.6584C24.5906 62.7967 24.5601 62.7637 25.8742 63.8993C26.8815 64.7683 27.0401 64.881 27.0939 64.7682Z" fill="url(#paint2_linear_314_4081)"/>
<path d="M27.8955 64.6162C27.7834 64.1933 26.9258 63.3588 26.074 62.8412C25.3354 62.396 25.3506 62.6157 26.1064 63.1798C26.4164 63.4203 26.9576 63.8727 27.3027 64.1945C27.7462 64.6003 27.9162 64.7277 27.8955 64.6162Z" fill="url(#paint3_linear_314_4081)"/>
<path d="M19.5248 58.9364C19.7605 58.9843 20.2097 58.6814 20.3533 58.3803C20.4754 58.1245 20.339 57.5973 20.1009 57.4189C19.9914 57.3388 19.7815 57.2755 19.6249 57.2747C18.6482 57.2702 18.5561 58.7602 19.5248 58.9364Z" fill="url(#paint4_linear_314_4081)"/>
<path d="M24.7447 61.2541C24.8515 61.185 24.8247 61.1445 24.4158 60.8013C23.8477 60.3082 23.6629 59.573 23.6439 57.7158C23.6185 55.5044 23.462 55.7161 23.4003 58.0523C23.3627 59.4666 23.5044 60.0795 23.9931 60.7196C24.2336 61.0285 24.6414 61.3157 24.7447 61.2541Z" fill="url(#paint5_linear_314_4081)"/>
<path d="M25.187 60.4412C25.2014 60.4111 25.1002 60.178 24.9726 59.923C24.6325 59.2615 24.5534 58.8079 24.5624 57.6664C24.5712 57.1253 24.567 56.2824 24.5621 55.8088C24.5491 55.1003 24.5748 54.8723 24.7331 54.5599C25.1467 53.7317 26.9362 52.7291 28.9618 52.1996C30.1043 51.8952 30.2957 51.7649 29.4992 51.8279C28.1107 51.9317 26.124 52.7477 25.0263 53.6742C24.7363 53.9145 24.554 54.1416 24.3961 54.4728C24.1911 54.8831 24.1712 55.0215 24.2019 55.8863C24.219 56.4119 24.2214 57.1616 24.2024 57.5499C24.1464 58.7706 24.3991 59.7507 24.8888 60.2341C25.0406 60.3805 25.1727 60.4713 25.187 60.4412Z" fill="url(#paint6_linear_314_4081)"/>
<path d="M28.1219 60.5025C28.8756 60.5483 29.2472 60.4856 29.9838 60.1998C30.7795 59.8868 31.4499 59.4493 32.8605 58.3119C34.1388 57.2776 34.423 56.9144 34.642 56.0487C34.7981 55.4117 34.8555 53.859 34.7332 53.2831C34.5863 52.5845 34.0385 52.1843 33.1239 52.1078C31.8022 51.994 28.9636 52.6988 27.6988 53.453C26.5337 54.1532 26.0013 54.8046 25.7592 55.8347C25.3796 57.5016 25.5256 58.7634 26.1966 59.5829C26.597 60.0791 27.4093 60.467 28.1219 60.5025ZM26.8641 57.7578C26.6962 57.5483 26.4337 57.0533 26.2697 56.6423C26.012 56.0017 25.9906 55.8529 26.082 55.5453C26.3849 54.5812 27.5176 53.7361 29.377 53.0903C30.9178 52.551 32.8743 52.3212 33.6243 52.5686C34.0183 52.7106 34.3519 53.0178 34.3867 53.2932C34.4098 53.5352 34.092 54.2982 33.6979 54.9694C33.2457 55.7237 33.0112 55.9443 32.1652 56.3627C31.881 56.5133 31.2328 56.943 30.7329 57.3326C28.9355 58.7195 27.7154 58.8575 26.8641 57.7578Z" fill="url(#paint7_linear_314_4081)"/>
<path d="M42.0572 66.1137C42.0752 66.0761 41.9983 65.947 41.8992 65.8257C41.8 65.7044 41.7031 65.5011 41.69 65.3931C41.664 65.1959 41.7045 65.1691 42.3653 65.0227C44.1323 64.6286 44.5205 64.4537 45.7481 63.5063C46.4502 62.9638 47.1693 62.5404 47.78 62.3054C48.6426 61.9875 49.8321 61.1975 50.4501 60.5409C50.8083 60.1577 50.9521 60.0692 51.5488 59.883C51.9749 59.7447 52.2409 59.613 52.2431 59.5309C52.2493 59.4599 52.2257 59.3932 52.1881 59.3753C52.0602 59.3142 50.143 59.8491 48.5872 60.381C45.9942 61.2677 44.6249 62.0088 42.8407 63.5035C41.8239 64.3576 41.4839 64.7218 41.3936 65.0853C41.2818 65.4939 41.4305 65.879 41.7689 66.0407C41.9118 66.1089 42.0429 66.1438 42.0572 66.1137Z" fill="url(#paint8_linear_314_4081)"/>
<path d="M14.3793 52.7273C14.5764 52.7013 14.7839 52.6341 14.8463 52.5807C15.0367 52.3945 15.1966 51.9626 15.1947 51.6568C15.1748 51.1759 15.0403 50.9546 14.6911 50.8155C13.8953 50.5093 13.1898 51.6786 13.6996 52.4488C13.9181 52.7842 13.9482 52.7986 14.3793 52.7273Z" fill="url(#paint9_linear_314_4081)"/>
<path d="M39.6984 63.4532C40.0112 63.0297 40.4452 62.507 40.6647 62.2792C41.1292 61.7895 42.1984 60.9418 42.7333 60.6336C43.1796 60.3756 43.256 60.2734 42.941 60.3725C42.5034 60.4961 41.718 60.9618 41.1489 61.4385C40.2564 62.1673 39.1895 63.552 39.1496 64.0228C39.1373 64.1647 39.2689 64.0243 39.6984 63.4532Z" fill="url(#paint10_linear_314_4081)"/>
<path d="M40.3826 64.2061C41.361 62.8715 42.6063 61.8677 44.9702 60.4741C47.028 59.2577 47.0244 59.2652 46.4387 59.4476C44.7009 60.0128 42.0639 61.7657 40.9552 63.1027C40.3389 63.8526 39.9148 64.5094 40.0201 64.5597C40.0577 64.5776 40.2262 64.4179 40.3826 64.2061Z" fill="url(#paint11_linear_314_4081)"/>
<path d="M32.1329 59.8962C32.2799 59.7817 32.8582 59.4018 33.4221 59.052C33.9861 58.7023 34.6225 58.2393 34.842 58.0114C35.2006 57.6468 35.2839 57.511 35.6843 56.5749C36.1274 55.5298 36.1972 55.2674 36.2923 54.3518C36.3462 53.8324 36.2179 53.1335 36.077 53.1771C36.029 53.2003 35.9922 53.4323 36.0045 53.6969C36.0149 54.4688 35.9162 54.9854 35.6024 55.9721C35.3585 56.6965 35.2331 56.9785 34.9824 57.33C34.5791 57.9044 34.4177 58.0491 33.3572 58.7623C32.8746 59.077 32.4404 59.3871 32.3892 59.4365C32.3304 59.4823 32.1765 59.6306 32.037 59.7488C31.7068 60.0346 31.7987 60.1709 32.1329 59.8962Z" fill="url(#paint12_linear_314_4081)"/>
<path d="M11.1004 49.7103C11.0006 49.5517 10.582 48.8805 10.171 48.2129C9.77109 47.5414 9.42979 47.018 9.42261 47.033C9.38671 47.1083 9.7596 47.9332 10.0443 48.4204C10.3601 48.9778 11.0439 49.8866 11.1868 49.9549C11.2395 49.98 11.2002 49.8688 11.1004 49.7103Z" fill="url(#paint13_linear_314_4081)"/>
<path d="M12.121 49.8924C12.1317 49.8698 11.9174 49.5643 11.6351 49.2078C11.3603 48.8549 10.9205 48.2477 10.6525 47.8611C9.89794 46.7526 9.88874 47.0622 10.645 48.2639C11.0904 48.9753 12.0528 50.0353 12.121 49.8924Z" fill="url(#paint14_linear_314_4081)"/>
<path d="M34.8554 59.1632C35.0726 59.0174 35.385 58.7693 35.5532 58.5909C35.9405 58.166 36.7331 56.6595 36.9653 55.9018C37.1339 55.3354 37.222 54.6475 37.122 54.6829C37.0962 54.6983 36.9532 55.0366 36.8117 55.4495C36.1097 57.4244 35.5305 58.3675 34.6327 59.0106C34.0917 59.3898 34.2803 59.5169 34.8554 59.1632Z" fill="url(#paint15_linear_314_4081)"/>
<path d="M19.8507 50.6274C20.0027 50.5799 20.1535 50.4765 20.1894 50.4013C20.2576 50.2584 20.2164 49.8416 20.1277 49.6791C20.0161 49.4873 19.5323 49.3209 19.2539 49.3818C18.6638 49.5156 18.6707 50.2946 19.2723 50.5819C19.4979 50.6897 19.6472 50.7056 19.8507 50.6274Z" fill="url(#paint16_linear_314_4081)"/>
<path d="M14.5903 47.7742C14.6228 47.5125 13.9069 46.8841 13.0711 46.4294C12.5289 46.1335 12.2307 45.9263 12.1802 45.8191C12.0172 45.464 11.9195 43.5784 12.0052 42.3534C12.0434 41.7894 12.3012 41.2103 12.6318 40.9431C12.7752 40.8361 13.2219 40.5966 13.6362 40.4249C14.4574 40.0779 14.9583 39.7442 15.0355 39.4854C15.1344 39.1815 14.9667 39.1845 14.5998 39.5083C14.4055 39.6835 13.9 39.9687 13.4896 40.1516C12.4394 40.611 12.1604 40.8473 11.8964 41.4975C11.7179 41.9297 11.6782 42.2064 11.6658 43.1615C11.6419 44.5085 11.749 45.6778 11.915 45.9881C12.0076 46.1617 12.2077 46.3035 12.8699 46.6382C13.4683 46.9518 13.8077 47.1694 14.0887 47.4514C14.5479 47.9018 14.5705 47.9126 14.5903 47.7742Z" fill="url(#paint17_linear_314_4081)"/>
<path d="M41.2222 59.1923C41.586 59.1073 41.9923 58.7008 42.3645 58.0561C42.6247 57.6075 42.6491 57.5175 42.5921 57.25C42.5239 56.9864 42.4859 56.9498 42.1897 56.8545C41.7739 56.739 41.3163 56.7885 41.0513 56.9761C40.7756 57.1863 40.349 58.1191 40.3637 58.5143C40.3808 59.0399 40.7287 59.317 41.2222 59.1923Z" fill="url(#paint18_linear_314_4081)"/>
<path d="M13.3472 45.8499C13.6808 45.538 13.9185 44.2654 13.8745 43.0801C13.8387 42.3422 13.5976 41.5894 13.3494 41.4709C12.9884 41.2984 12.7829 41.4775 12.4977 42.1914C11.9238 43.6268 12.1768 45.4387 13.0115 45.8374C13.1544 45.9057 13.2813 45.9108 13.3472 45.8499Z" fill="url(#paint19_linear_314_4081)"/>
<path d="M9.36631 43.3562C9.50541 43.2195 9.6327 43.0494 9.64603 42.9634C9.74115 42.2608 9.35678 41.8279 8.80892 42.028C8.43486 42.154 8.25939 42.5412 8.37153 42.9642C8.43615 43.2352 8.50844 43.3159 8.77914 43.4452C9.08744 43.5924 9.11718 43.5882 9.36631 43.3562Z" fill="url(#paint20_linear_314_4081)"/>
<path d="M24.0505 48.6155C24.5087 48.6034 24.9103 48.3424 25.4648 47.6832C25.68 47.4256 25.8842 47.172 25.9057 47.1268C25.9847 46.9613 25.8105 46.6101 25.5378 46.3689C24.9016 45.8248 23.8285 46.2548 23.3359 47.2485C23.0807 47.7642 23.0848 47.9879 23.3442 48.3151C23.5958 48.6201 23.5958 48.6201 24.0505 48.6155Z" fill="url(#paint21_linear_314_4081)"/>
<path d="M19.7063 45.8381C19.7583 45.8259 19.9496 45.483 20.1399 45.0841C20.4989 44.3315 20.6801 43.6419 20.6758 42.9929C20.6768 42.6423 20.6654 42.6276 20.5949 42.8527C20.5489 42.9878 20.4479 43.3739 20.3684 43.7147C20.2964 44.0592 20.0915 44.6822 19.9278 45.1029C19.7604 45.5312 19.6619 45.8538 19.7063 45.8381Z" fill="url(#paint22_linear_314_4081)"/>
<path d="M19.5525 44.7475C19.7611 44.3297 19.9545 43.2855 19.8511 43.1344C19.8089 43.0681 19.7906 43.087 19.7776 43.1917C19.7754 43.2738 19.6819 43.6635 19.5772 44.057C19.319 45.0241 19.3117 45.2331 19.5525 44.7475Z" fill="url(#paint23_linear_314_4081)"/>
<path d="M49.0912 58.2007C48.9439 57.8902 48.7605 57.4424 48.6815 57.2015C48.5625 56.8123 48.5396 56.7828 48.5058 56.9699C48.4411 57.2991 48.6522 58.0372 48.8966 58.3571C49.2784 58.8534 49.3666 58.7847 49.0912 58.2007Z" fill="url(#paint24_linear_314_4081)"/>
<path d="M15.5875 42.1792C15.9855 42.1384 16.5274 41.8154 16.6529 41.5522C16.8001 41.2438 16.6621 41.2426 16.1873 41.5606C15.9515 41.7066 15.601 41.8993 15.4086 41.9737C15.0126 42.1262 15.1039 42.2253 15.5875 42.1792Z" fill="url(#paint25_linear_314_4081)"/>
<path d="M50.1031 58.5002C50.106 58.4554 50.1035 58.1123 50.0964 57.7208C50.0807 57.2697 50.1431 56.8098 50.2556 56.4385C50.4594 55.7596 50.3502 55.6982 50.0522 56.3228C49.7937 56.8647 49.7106 57.6197 49.8541 58.1318C49.9495 58.4546 50.099 58.6831 50.1031 58.5002Z" fill="url(#paint26_linear_314_4081)"/>
<path d="M15.0462 41.4774C15.5828 41.2625 16.2096 40.684 16.2558 40.3549C16.2952 40.0595 16.1658 40.1178 15.8601 40.5263C15.6965 40.7531 15.3555 41.0615 15.1088 41.2301C14.608 41.5638 14.5835 41.6538 15.0462 41.4774Z" fill="url(#paint27_linear_314_4081)"/>
<path d="M39.9777 53.2464C40.3771 53.2802 40.6799 53.1293 40.8198 52.836C41.0674 52.317 40.6018 51.7252 40.0755 51.8802C39.4306 52.0708 39.3433 53.202 39.9777 53.2464Z" fill="url(#paint28_linear_314_4081)"/>
<path d="M32.6861 49.136C33.0677 49.0133 33.3794 48.7279 33.665 48.2452C33.8818 47.8682 33.9131 47.7446 33.8653 47.5739C33.7896 47.3067 33.4322 47.1267 33.1655 47.2211C32.4724 47.4353 31.7879 48.3281 31.949 48.7839C32.0512 49.073 32.3821 49.231 32.6861 49.136Z" fill="url(#paint29_linear_314_4081)"/>
<path d="M45.4973 54.8392C45.5045 54.8241 45.2691 54.3883 44.9579 53.8793C44.6578 53.3663 44.2448 52.5868 44.0428 52.1392C43.8372 51.6991 43.6326 51.3149 43.5875 51.2934C43.4145 51.2108 43.75 52.2304 44.148 53.0026C44.6151 53.8818 45.4219 54.9972 45.4973 54.8392Z" fill="url(#paint30_linear_314_4081)"/>
<path d="M47.1205 54.377C47.3134 54.3212 47.4646 54.2364 47.4489 54.1919C47.4257 54.1439 47.3286 54.1345 47.2211 54.1663C46.9171 54.2614 46.3675 53.9618 46.039 53.5277C45.4589 52.7886 44.5565 50.5187 44.5314 49.7582C44.5164 49.3444 44.852 48.7377 45.4772 48.0661C46.0804 47.4209 46.1146 47.2524 45.5485 47.6843C44.9787 48.1237 44.5375 48.6615 44.3453 49.1611C44.1352 49.6983 44.2032 50.1559 44.6977 51.5194C45.3023 53.1943 45.8207 54.0241 46.4524 54.3258C46.7006 54.4444 46.8535 54.4528 47.1205 54.377Z" fill="url(#paint31_linear_314_4081)"/>
<path d="M37.6571 49.0894C38.1108 48.8351 38.088 48.2055 37.6143 47.9792C37.1481 47.7565 36.6237 48.2171 36.7927 48.695C36.9067 49.0172 37.4027 49.2357 37.6571 49.0894Z" fill="url(#paint32_linear_314_4081)"/>
<path d="M47.2673 52.8122C48.0387 52.8018 49.3142 51.6184 50.2986 50.0002C51.2758 48.397 51.4376 47.0512 50.6931 46.6956C50.3095 46.5124 49.4169 46.622 48.4836 46.9524C46.8762 47.5153 45.7024 48.9691 45.7714 50.2958C45.8266 51.2832 46.3374 52.5159 46.7736 52.7243C46.8864 52.7782 47.1032 52.8078 47.2673 52.8122ZM46.1223 50.528C45.8635 50.2381 45.9259 49.7782 46.3451 49.0543C47.0206 47.8707 48.3262 47.1083 49.9523 46.9516C50.689 46.8785 50.6975 46.938 50.1697 48.0443C49.3652 49.7114 47.9551 51.0801 47.082 51.0327C46.7946 51.0155 46.3467 50.7738 46.1223 50.528Z" fill="url(#paint33_linear_314_4081)"/>
<path d="M18.0754 38.3215C18.328 38.2759 18.6718 37.923 18.7301 37.646C18.7541 37.5375 18.7357 37.344 18.696 37.2142C18.5488 36.7099 17.802 36.6302 17.5868 37.0815C17.4038 37.4651 17.5178 38.1937 17.781 38.3194C17.8261 38.3409 17.9565 38.3386 18.0754 38.3215Z" fill="url(#paint34_linear_314_4081)"/>
<path d="M27.8736 43.0024C27.8808 42.9874 27.763 42.8665 27.6041 42.7352C27.4526 42.6074 26.9254 42.1062 26.4318 41.6119C25.551 40.7294 25.3054 40.5475 25.559 40.9641C25.9393 41.5798 27.7767 43.2055 27.8736 43.0024Z" fill="url(#paint35_linear_314_4081)"/>
<path d="M30.4622 43.6758C30.9931 43.763 30.8184 43.5872 29.8125 43.0051C28.9499 42.5099 28.3206 41.9321 27.2881 40.7089C25.9697 39.1366 25.625 38.8333 23.8487 37.6984C22.4948 36.8392 21.6727 35.9105 21.2493 34.7657C20.9788 34.0359 20.8464 33.1133 20.9155 32.407C20.9402 32.1231 20.9282 31.8771 20.8981 31.8627C20.8079 31.8196 20.7939 31.8684 20.6776 32.4412C20.4493 33.6166 20.6567 34.7691 21.2873 35.8281C21.7874 36.6768 22.4206 37.2658 23.9072 38.2531C25.4429 39.2731 25.8635 39.6496 26.9909 40.9643C27.5012 41.5592 28.1548 42.241 28.4426 42.4893C28.9649 42.9236 30.133 43.6109 30.4622 43.6758Z" fill="url(#paint36_linear_314_4081)"/>
<path d="M35.6492 44.4725C36.7909 43.9182 38.4503 42.3175 38.7155 41.5293C38.7862 41.3228 38.7493 41.3422 38.4498 41.6796C37.4452 42.7984 37.0055 43.2168 36.1711 43.8624C35.6677 44.2596 35.26 44.5915 35.2679 44.6138C35.2757 44.636 35.446 44.5695 35.6492 44.4725Z" fill="url(#paint37_linear_314_4081)"/>
<path d="M31.3849 42.6107C32.2705 42.7288 33.3854 42.3466 34.337 41.5907C35.3621 40.7776 36.0742 39.7687 36.4335 38.6283C36.7361 37.6456 36.7605 36.9365 36.5891 35.1083C36.5295 34.4978 36.4864 33.5624 36.4915 33.0289C36.506 30.9662 36.4905 30.7277 36.3447 30.2978C36.061 29.46 34.7431 28.1191 33.9673 27.8871C33.5737 27.7638 31.8084 27.8445 27.9155 28.1656C25.727 28.3399 25.1773 28.447 24.5983 28.7895C22.9798 29.7627 22.0346 32.499 22.7147 34.2283C23.0121 34.9987 23.4233 35.4723 25.1025 37.0043C25.929 37.7687 26.7899 38.5772 27.0068 38.8194C29.0605 41.057 30.7573 42.5327 31.3849 42.6107ZM30.6838 37.6929C29.9465 36.9157 29.886 36.8683 29.13 36.498C28.6938 36.2896 27.9385 35.9566 27.4468 35.7679C26.7334 35.4826 26.4512 35.3386 26.0467 35.0252C24.8899 34.14 24.1704 32.7061 24.155 31.248C24.1427 30.5769 24.3267 29.6299 24.5164 29.4064C24.892 28.9482 25.8423 28.7369 28.2992 28.5614C29.0659 28.5026 30.402 28.3924 31.2766 28.3205C32.1548 28.241 33.0742 28.172 33.3129 28.1751L33.76 28.1669L34.1228 28.6451C34.5851 29.2632 34.8753 30.0486 34.8797 30.6975C34.8819 31.022 34.781 31.6206 34.5991 32.2729C34.2399 33.6259 34.2101 34.0367 34.3847 35.4321C34.6586 37.568 34.532 38.3945 33.8777 38.8951C33.3668 39.2886 32.8746 39.2752 32.0764 38.8385C31.5457 38.5573 31.3298 38.3711 30.6838 37.6929Z" fill="url(#paint38_linear_314_4081)"/>
<path d="M51.2703 51.4077C52.081 50.4827 52.6314 49.5998 53.244 48.2383C53.7851 47.046 53.8171 46.9596 53.8079 46.4562C53.802 45.5201 53.2421 44.6613 52.6152 44.6206C52.3651 44.6028 52.369 44.6139 52.717 44.891C53.3374 45.3906 53.5621 46.0616 53.3915 46.9227C53.3065 47.3718 53.1671 47.7026 52.6125 48.7684C52.2453 49.4801 51.7034 50.4225 51.4095 50.8643C50.7457 51.8687 50.6824 52.0787 51.2703 51.4077Z" fill="url(#paint39_linear_314_4081)"/>
<path d="M53.8266 52.7848C54.1276 52.7345 54.3694 52.4988 54.5991 52.0172C54.8828 51.4226 54.8534 51.039 54.5075 50.8737C54.1013 50.6797 53.6364 50.9382 53.3564 51.5252C53.0871 52.0896 53.1286 52.5253 53.467 52.6869C53.6024 52.7516 53.7671 52.7933 53.8266 52.7848Z" fill="url(#paint40_linear_314_4081)"/>
<path d="M16.5696 34.4711C17.425 33.9556 17.8135 31.9604 17.1216 31.6299C16.6553 31.4072 16.3044 31.5815 15.8806 32.2569C15.2939 33.1964 15.3629 34.1165 16.0322 34.4362C16.3029 34.5655 16.4111 34.571 16.5696 34.4711Z" fill="url(#paint41_linear_314_4081)"/>
<path d="M50.8374 50.4978C51.0128 50.3044 51.3577 49.7945 51.6218 49.357C52.4608 47.9466 52.7303 46.7816 52.3478 46.2477C52.1296 45.931 52.0198 46.0449 52.1427 46.4455C52.2095 46.6345 52.2483 46.921 52.251 47.0701C52.2395 47.462 51.4553 49.222 50.926 50.0411C50.6906 50.4184 50.5029 50.7538 50.5147 50.7872C50.519 50.817 50.6732 50.6873 50.8374 50.4978Z" fill="url(#paint42_linear_314_4081)"/>
<path d="M36.119 43.181C36.7052 42.8234 37.2732 42.2908 37.8307 41.5868C38.1292 41.1934 37.7717 41.42 37.3625 41.8714C37.1362 42.1329 36.7736 42.4864 36.557 42.6694C36.0467 43.1003 35.8746 43.2676 35.9047 43.2819C35.9197 43.2891 36.0158 43.2426 36.119 43.181Z" fill="url(#paint43_linear_314_4081)"/>
<path d="M40.7823 44.8817C41.396 45.0085 41.7659 44.8525 41.992 44.3784C42.43 43.4602 42.1223 42.7311 41.3064 42.7572C40.7887 42.7779 40.5123 42.9508 40.2381 43.4482C39.9997 43.8703 39.9861 43.9377 40.0811 44.2418C40.1961 44.6202 40.4044 44.8028 40.7823 44.8817Z" fill="url(#paint44_linear_314_4081)"/>
<path d="M36.2885 41.6627C36.6141 41.3285 37.3145 40.2863 37.7398 39.4915C38.7128 37.6648 38.8387 36.3944 38.2635 34.2902C37.9082 33.0025 37.8814 32.5554 38.0816 31.4776C38.3132 30.2761 38.2457 29.6433 37.8234 29.1736C37.439 28.7406 37.1899 28.7787 37.5446 29.216C37.9107 29.6681 37.9491 30.3425 37.6837 31.731C37.5382 32.5393 37.5978 33.1499 37.9574 34.4674C38.3565 35.9147 38.3907 36.5593 38.1173 37.713C37.9579 38.3761 37.2798 39.817 36.7649 40.6059C36.3735 41.2136 36.069 41.8905 36.2885 41.6627Z" fill="url(#paint45_linear_314_4081)"/>
<path d="M55.6091 50.3282C55.6496 50.3013 55.6206 49.9363 55.5421 49.52C55.3899 48.7357 55.3481 47.8749 55.4162 47.1127C55.4304 46.87 55.4163 46.7061 55.3908 46.7401C55.2517 46.877 55.1138 47.9015 55.1365 48.5315C55.1602 49.2174 55.4764 50.4126 55.6091 50.3282Z" fill="url(#paint46_linear_314_4081)"/>
<path d="M56.2084 49.3223C55.9712 47.5549 56.1546 46.164 56.8793 44.4125C57.2503 43.4993 57.2831 43.2563 56.9811 43.6572C56.3845 44.4626 55.8494 46.3971 55.8488 47.7921C55.8404 48.3518 56.0175 49.2773 56.1517 49.48C56.2397 49.6052 56.2469 49.5902 56.2084 49.3223Z" fill="url(#paint47_linear_314_4081)"/>
<path d="M46.2761 44.1693C46.7809 44.0594 47.03 43.4212 46.6465 43.238C46.5488 43.1913 46.3181 43.2104 46.1292 43.2772C45.6552 43.4386 45.559 43.679 45.8227 44.0358C45.983 44.2417 45.9644 44.242 46.2761 44.1693Z" fill="url(#paint48_linear_314_4081)"/>
<path d="M58.5075 49.4395C58.7479 49.3418 58.8394 49.2469 58.7341 49.1966C58.704 49.1822 58.6295 49.1836 58.5664 49.1997C58.5109 49.2193 58.3765 49.2106 58.2716 49.179L58.0803 49.1153L58.5621 48.1443C59.6117 46.0215 60.5017 42.5105 60.468 40.6649C60.4516 40.1766 60.4761 40.0866 60.7402 39.6492C60.9756 39.2719 61.0036 39.1744 60.9065 39.165C60.462 39.1097 58.6544 42.1825 58.0831 43.9608C57.6526 45.289 57.3332 47.391 57.4143 48.3629C57.4763 49.104 58.0114 49.6276 58.5075 49.4395Z" fill="url(#paint49_linear_314_4081)"/>
<path d="M22.0008 29.8405C22.1023 29.6857 22.28 29.4102 22.4106 29.2138C23.2441 27.9117 24.145 27.4364 26.472 27.0879C27.7323 26.9044 28.5268 26.7295 28.5663 26.6467C28.5878 26.6015 28.2744 26.5812 27.8759 26.6034C25.9579 26.6945 24.151 27.1528 23.3493 27.7494C22.7681 28.1741 22.3086 28.7308 22.0142 29.3479C21.7341 29.9349 21.7249 30.2447 22.0008 29.8405Z" fill="url(#paint50_linear_314_4081)"/>
<path d="M20.4486 28.7387C20.9234 28.6143 21.5287 28.081 21.8611 27.5005C22.2185 26.8673 22.1897 26.7149 21.6943 26.5338C21.2516 26.3778 20.8206 26.4491 20.4047 26.7402C19.7973 27.1616 19.3441 28.2665 19.6584 28.5368C19.9272 28.7669 20.1257 28.8154 20.4486 28.7387Z" fill="url(#paint51_linear_314_4081)"/>
<path d="M46.363 40.4427C46.4097 40.3448 45.7854 39.4275 45.0643 38.5194C44.5225 37.8355 44.1807 37.4874 43.6705 37.1051C43.3039 36.8284 42.8872 36.463 42.7387 36.2904C42.1332 35.5853 41.8622 34.6242 41.8179 33.0137C41.8017 32.3314 41.7675 32.0933 41.719 32.2919C41.5025 33.0941 41.5793 34.4429 41.9012 35.336C42.1646 36.0809 42.6187 36.6582 43.3938 37.2594C43.8474 37.6054 44.2654 38.0454 44.9672 38.9165C45.9473 40.1332 46.3199 40.533 46.363 40.4427Z" fill="url(#paint52_linear_314_4081)"/>
<path d="M49.051 41.0608C49.44 41.1358 49.8417 41.0874 49.9027 40.9594C49.9422 40.8767 49.8709 40.8519 49.5456 40.7981C49.0373 40.7217 48.3755 40.4055 48.0115 40.0653C47.8561 39.9264 47.3533 39.3351 46.8917 38.7542C46.2508 37.9491 45.8288 37.498 45.0752 36.8516C43.8899 35.8327 43.5278 35.3917 43.2641 34.6282C43.0001 33.846 42.9752 32.8915 43.1869 30.8026C43.2924 29.8458 43.3634 29.0388 43.3556 29.0165C43.2688 28.7533 42.9779 30.176 42.7256 32.0792C42.5022 33.7283 42.755 34.921 43.5029 35.8696C43.728 36.1527 44.3505 36.7642 44.8921 37.2355C45.6342 37.8671 46.0523 38.3071 46.5944 39.0096C47.606 40.3152 48.3138 40.9028 49.051 41.0608Z" fill="url(#paint53_linear_314_4081)"/>
<path d="M50.1464 39.6723C50.8208 39.8651 52.0214 39.8841 52.5587 39.7064C53.4109 39.4297 55.1689 38.1256 55.4124 37.5765C55.5883 37.2078 55.5813 37.0289 55.4094 36.189C55.3359 35.8397 55.2654 35.0391 55.2614 34.4088C55.2421 32.5329 55.0332 32.119 53.6697 31.3383C52.1553 30.4671 51.4159 29.9846 50.4145 29.2383C49.0655 28.2335 48.779 28.0597 48.2321 27.9093C47.554 27.7241 46.9918 27.7605 46.2288 28.0244C45.4657 28.2883 44.6931 28.8433 44.4884 29.2723C44.334 29.5959 44.1874 30.7549 44.175 31.71C44.1605 33.3664 44.6199 34.4359 46.203 36.4211C47.2637 37.7594 47.9018 38.4154 48.5853 38.899C49.0232 39.2005 49.7491 39.5565 50.1464 39.6723ZM47.939 37.7955C47.275 37.155 45.7531 35.2544 45.3109 34.5165C45.1149 34.1919 44.8775 33.6442 44.7707 33.3067C44.4762 32.2789 44.5564 29.7298 44.9022 29.2759C45.1318 28.9882 46.2345 28.3413 46.6653 28.2514C46.8807 28.2064 47.2454 28.1773 47.484 28.1804C48.0806 28.1881 49.006 28.6486 50.0345 29.4541L50.8096 30.0554L51.1191 30.8778C51.3307 31.4408 51.4359 31.8977 51.443 32.2892C51.4546 32.9231 51.6023 33.2524 52.2893 34.135C52.7244 34.694 52.956 35.3313 52.9358 35.8576C52.9281 36.048 52.808 36.4157 52.6572 36.7318C52.4418 37.1834 52.3252 37.331 51.943 37.6289C51.0351 38.3319 49.5308 38.6205 48.4885 38.289C48.4548 38.2822 48.2121 38.0554 47.939 37.7955Z" fill="url(#paint54_linear_314_4081)"/>
<path d="M53.603 40.5194C55.1969 39.83 56.4604 38.5946 56.7636 37.4365C56.9793 36.597 56.9179 36.0871 56.4505 34.7827C56.2075 34.1307 56.0322 33.511 56.0416 33.4138C56.0679 33.2231 55.9577 33.1058 55.8931 33.2412C55.789 33.4595 55.9015 34.1139 56.1973 35.0037C56.3867 35.5746 56.5286 36.2061 56.5341 36.5044C56.5351 36.9669 56.5038 37.0906 56.1627 37.8056C55.8252 38.513 55.7269 38.6416 55.2797 39.0564C55.0047 39.3039 54.4238 39.7472 53.9893 40.0386C53.5659 40.3261 53.2202 40.5861 53.2245 40.6159C53.2399 40.6417 53.4069 40.6014 53.603 40.5194Z" fill="url(#paint55_linear_314_4081)"/>
<path d="M24.6042 26.4545C25.5353 26.2062 26.6684 25.9989 27.8774 25.8649C28.5023 25.7937 29.0004 25.7175 28.9961 25.6877C28.9375 25.5396 26.86 25.6746 26.025 25.8764C25.2162 26.0815 23.894 26.5496 23.9917 26.5963C24.0068 26.6034 24.2852 26.5424 24.6042 26.4545Z" fill="url(#paint56_linear_314_4081)"/>
<path d="M32.4083 26.3561C32.8082 26.2145 32.8706 26.1611 32.9809 25.8719C33.0912 25.5827 33.0862 25.5156 32.907 25.2914C32.2736 24.4898 30.971 25.0135 31.2973 25.9363C31.4702 26.4255 31.8305 26.5607 32.4083 26.3561Z" fill="url(#paint57_linear_314_4081)"/>
<path d="M27.2944 23.5256C27.6101 23.4638 28.2602 23.34 28.7543 23.2526C29.241 23.1617 29.6269 23.0688 29.6151 23.0354C29.5483 22.8464 26.6529 23.3023 26.5488 23.5206C26.4985 23.6259 26.7819 23.6319 27.2944 23.5256Z" fill="url(#paint58_linear_314_4081)"/>
<path d="M28.068 22.6202C29.0538 22.5278 29.4168 22.4056 28.7939 22.3759C28.0815 22.3404 26.7663 22.5618 27.0145 22.6803C27.0521 22.6983 27.5249 22.6748 28.068 22.6202Z" fill="url(#paint59_linear_314_4081)"/>
<path d="M39.7853 28.2726C39.9849 28.1832 40.1871 28.0302 40.2374 27.9249C40.5354 27.3002 40.0269 26.6046 39.3772 26.747C39.0135 26.832 38.7048 27.0727 38.5468 27.4038C38.4319 27.6446 38.4404 27.7042 38.6269 27.9134C38.7447 28.0343 38.9677 28.2055 39.1332 28.2846C39.3738 28.3995 39.4856 28.3975 39.7853 28.2726Z" fill="url(#paint60_linear_314_4081)"/>
<path d="M35.742 24.6699C37.1482 25.129 38.0524 25.2467 39.2954 25.1382C41.1375 24.9739 42.7168 24.2959 43.382 23.3661C43.9783 22.5421 43.6164 21.094 42.5661 20.121C41.9519 19.5504 40.1126 18.2376 39.0727 17.63C37.1549 16.5014 35.1639 16.0679 33.8633 16.4908C33.0963 16.7436 32.479 17.4375 31.8073 18.8262C31.3402 19.7859 31.2751 20.0967 31.4138 20.7543C31.5155 21.2187 32.6298 22.6381 33.417 23.2914C34.0263 23.7949 35.2134 24.5005 35.742 24.6699ZM33.6286 20.5832C32.9633 20.0807 32.3843 19.3975 32.2421 18.9599C32.1589 18.6892 32.1661 18.6741 32.5472 18.1076C33.3706 16.8654 34.3484 16.5192 36.0836 16.8306C36.6446 16.9322 36.9487 17.0497 38.0957 17.6069C39.2464 18.1565 39.6345 18.3881 40.6954 19.1258C41.3789 19.6094 42.1121 20.1629 42.3244 20.3567L42.7074 20.7153L42.5452 21.0166C42.1489 21.7699 40.5946 22.5891 39.4182 22.6741C38.7518 22.7162 37.6756 22.5718 36.9482 22.3352C36.1308 22.0741 34.3432 21.1371 33.6286 20.5832Z" fill="url(#paint61_linear_314_4081)"/>
<path d="M47.2792 26.9454C47.4534 26.8901 47.5005 26.6171 47.4145 26.1973C47.2261 25.2762 47.021 25.0674 46.3734 25.109C45.7146 25.1545 45.547 25.5639 45.9628 26.0857C46.2491 26.4533 47.109 27.0119 47.2792 26.9454Z" fill="url(#paint62_linear_314_4081)"/>
<path d="M54.16 30.0207C54.1478 29.9687 53.8067 29.6579 53.3907 29.3298C52.1083 28.3014 51.3433 27.6403 51.183 27.4344C51.0989 27.3203 50.9152 26.8537 50.7763 26.39C50.6373 25.9263 50.4965 25.5633 50.4521 25.579C50.3521 25.6144 50.4908 26.6787 50.6545 27.0711C50.9122 27.7116 51.3109 28.1146 52.7359 29.1926C53.5976 29.8445 54.1777 30.177 54.16 30.0207Z" fill="url(#paint63_linear_314_4081)"/>
<path d="M50.3553 27.7578C50.6053 27.7756 50.5059 27.6358 50.0798 27.3676C49.3863 26.944 49.0144 26.5817 48.6034 25.9144C48.2002 25.2693 48.0645 25.186 48.1243 25.6024C48.2148 26.2644 49.0182 27.193 49.8225 27.5587C50.0556 27.67 50.2994 27.7588 50.3553 27.7578Z" fill="url(#paint64_linear_314_4081)"/>
</g>
<defs>
<linearGradient id="paint0_linear_314_4081" x1="61.4558" y1="46.3289" x2="9.30235" y2="21.9109" gradientUnits="userSpaceOnUse">
<stop stop-color="#41A380"/>
<stop offset="1" stop-color="#63D5AC"/>
</linearGradient>
<linearGradient id="paint1_linear_314_4081" x1="26.6683" y1="65.781" x2="14.6607" y2="60.802" gradientUnits="userSpaceOnUse">
<stop stop-color="#41A380"/>
<stop offset="1" stop-color="#63D5AC"/>
</linearGradient>
<linearGradient id="paint2_linear_314_4081" x1="27.3168" y1="64.3011" x2="24.4109" y2="62.9991" gradientUnits="userSpaceOnUse">
<stop stop-color="#41A380"/>
<stop offset="1" stop-color="#63D5AC"/>
</linearGradient>
<linearGradient id="paint3_linear_314_4081" x1="28.1144" y1="64.1853" x2="25.3439" y2="62.9479" gradientUnits="userSpaceOnUse">
<stop stop-color="#41A380"/>
<stop offset="1" stop-color="#63D5AC"/>
</linearGradient>
<linearGradient id="paint4_linear_314_4081" x1="20.3981" y1="58.2865" x2="18.9567" y2="57.6113" gradientUnits="userSpaceOnUse">
<stop stop-color="#41A380"/>
<stop offset="1" stop-color="#63D5AC"/>
</linearGradient>
<linearGradient id="paint5_linear_314_4081" x1="25.8104" y1="59.0767" x2="22.7928" y2="57.6591" gradientUnits="userSpaceOnUse">
<stop stop-color="#41A380"/>
<stop offset="1" stop-color="#63D5AC"/>
</linearGradient>
<linearGradient id="paint6_linear_314_4081" x1="28.2924" y1="55.3933" x2="24.7202" y2="53.702" gradientUnits="userSpaceOnUse">
<stop stop-color="#41A380"/>
<stop offset="1" stop-color="#63D5AC"/>
</linearGradient>
<linearGradient id="paint7_linear_314_4081" x1="34.2933" y1="56.954" x2="26.7329" y2="53.4031" gradientUnits="userSpaceOnUse">
<stop stop-color="#41A380"/>
<stop offset="1" stop-color="#63D5AC"/>
</linearGradient>
<linearGradient id="paint8_linear_314_4081" x1="50.4876" y1="63.2199" x2="43.7057" y2="60.0278" gradientUnits="userSpaceOnUse">
<stop stop-color="#41A380"/>
<stop offset="1" stop-color="#63D5AC"/>
</linearGradient>
<linearGradient id="paint9_linear_314_4081" x1="15.1948" y1="51.9642" x2="13.6714" y2="51.2486" gradientUnits="userSpaceOnUse">
<stop stop-color="#41A380"/>
<stop offset="1" stop-color="#63D5AC"/>
</linearGradient>
<linearGradient id="paint10_linear_314_4081" x1="42.262" y1="62.1773" x2="40.3861" y2="61.2892" gradientUnits="userSpaceOnUse">
<stop stop-color="#41A380"/>
<stop offset="1" stop-color="#63D5AC"/>
</linearGradient>
<linearGradient id="paint11_linear_314_4081" x1="45.469" y1="62.1074" x2="41.898" y2="60.4204" gradientUnits="userSpaceOnUse">
<stop stop-color="#41A380"/>
<stop offset="1" stop-color="#63D5AC"/>
</linearGradient>
<linearGradient id="paint12_linear_314_4081" x1="35.7168" y1="56.5516" x2="33.8701" y2="55.6748" gradientUnits="userSpaceOnUse">
<stop stop-color="#41A380"/>
<stop offset="1" stop-color="#63D5AC"/>
</linearGradient>
<linearGradient id="paint13_linear_314_4081" x1="11.6885" y1="48.9466" x2="9.05989" y2="47.7288" gradientUnits="userSpaceOnUse">
<stop stop-color="#41A380"/>
<stop offset="1" stop-color="#63D5AC"/>
</linearGradient>
<linearGradient id="paint14_linear_314_4081" x1="12.5246" y1="49.0463" x2="9.76889" y2="47.7779" gradientUnits="userSpaceOnUse">
<stop stop-color="#41A380"/>
<stop offset="1" stop-color="#63D5AC"/>
</linearGradient>
<linearGradient id="paint15_linear_314_4081" x1="36.5876" y1="56.8298" x2="35.6918" y2="56.4039" gradientUnits="userSpaceOnUse">
<stop stop-color="#41A380"/>
<stop offset="1" stop-color="#63D5AC"/>
</linearGradient>
<linearGradient id="paint16_linear_314_4081" x1="20.272" y1="50.2282" x2="18.895" y2="49.5862" gradientUnits="userSpaceOnUse">
<stop stop-color="#41A380"/>
<stop offset="1" stop-color="#63D5AC"/>
</linearGradient>
<linearGradient id="paint17_linear_314_4081" x1="16.6179" y1="43.5542" x2="11.9104" y2="41.336" gradientUnits="userSpaceOnUse">
<stop stop-color="#41A380"/>
<stop offset="1" stop-color="#63D5AC"/>
</linearGradient>
<linearGradient id="paint18_linear_314_4081" x1="42.3532" y1="58.1245" x2="40.7293" y2="57.3594" gradientUnits="userSpaceOnUse">
<stop stop-color="#41A380"/>
<stop offset="1" stop-color="#63D5AC"/>
</linearGradient>
<linearGradient id="paint19_linear_314_4081" x1="14.3842" y1="43.7763" x2="12.1956" y2="42.7438" gradientUnits="userSpaceOnUse">
<stop stop-color="#41A380"/>
<stop offset="1" stop-color="#63D5AC"/>
</linearGradient>
<linearGradient id="paint20_linear_314_4081" x1="9.69254" y1="42.883" x2="8.43625" y2="42.294" gradientUnits="userSpaceOnUse">
<stop stop-color="#41A380"/>
<stop offset="1" stop-color="#63D5AC"/>
</linearGradient>
<linearGradient id="paint21_linear_314_4081" x1="25.6545" y1="47.6534" x2="23.5822" y2="46.6797" gradientUnits="userSpaceOnUse">
<stop stop-color="#41A380"/>
<stop offset="1" stop-color="#63D5AC"/>
</linearGradient>
<linearGradient id="paint22_linear_314_4081" x1="20.6029" y1="44.1136" x2="20.0881" y2="43.8688" gradientUnits="userSpaceOnUse">
<stop stop-color="#41A380"/>
<stop offset="1" stop-color="#63D5AC"/>
</linearGradient>
<linearGradient id="paint23_linear_314_4081" x1="19.9158" y1="43.9866" x2="19.4725" y2="43.7761" gradientUnits="userSpaceOnUse">
<stop stop-color="#41A380"/>
<stop offset="1" stop-color="#63D5AC"/>
</linearGradient>
<linearGradient id="paint24_linear_314_4081" x1="49.5884" y1="57.9595" x2="48.2871" y2="57.3509" gradientUnits="userSpaceOnUse">
<stop stop-color="#41A380"/>
<stop offset="1" stop-color="#63D5AC"/>
</linearGradient>
<linearGradient id="paint25_linear_314_4081" x1="16.5048" y1="41.8626" x2="15.499" y2="41.3899" gradientUnits="userSpaceOnUse">
<stop stop-color="#41A380"/>
<stop offset="1" stop-color="#63D5AC"/>
</linearGradient>
<linearGradient id="paint26_linear_314_4081" x1="50.7383" y1="57.2021" x2="49.8276" y2="56.7709" gradientUnits="userSpaceOnUse">
<stop stop-color="#41A380"/>
<stop offset="1" stop-color="#63D5AC"/>
</linearGradient>
<linearGradient id="paint27_linear_314_4081" x1="16.011" y1="40.9114" x2="15.1926" y2="40.5245" gradientUnits="userSpaceOnUse">
<stop stop-color="#41A380"/>
<stop offset="1" stop-color="#63D5AC"/>
</linearGradient>
<linearGradient id="paint28_linear_314_4081" x1="40.8674" y1="52.7362" x2="39.6715" y2="52.1753" gradientUnits="userSpaceOnUse">
<stop stop-color="#41A380"/>
<stop offset="1" stop-color="#63D5AC"/>
</linearGradient>
<linearGradient id="paint29_linear_314_4081" x1="33.6588" y1="48.2899" x2="32.2968" y2="47.6484" gradientUnits="userSpaceOnUse">
<stop stop-color="#41A380"/>
<stop offset="1" stop-color="#63D5AC"/>
</linearGradient>
<linearGradient id="paint30_linear_314_4081" x1="46.1063" y1="53.5626" x2="43.1018" y2="52.1662" gradientUnits="userSpaceOnUse">
<stop stop-color="#41A380"/>
<stop offset="1" stop-color="#63D5AC"/>
</linearGradient>
<linearGradient id="paint31_linear_314_4081" x1="48.7646" y1="51.4488" x2="44.2126" y2="49.3114" gradientUnits="userSpaceOnUse">
<stop stop-color="#41A380"/>
<stop offset="1" stop-color="#63D5AC"/>
</linearGradient>
<linearGradient id="paint32_linear_314_4081" x1="37.9874" y1="48.6774" x2="36.8595" y2="48.15" gradientUnits="userSpaceOnUse">
<stop stop-color="#41A380"/>
<stop offset="1" stop-color="#63D5AC"/>
</linearGradient>
<linearGradient id="paint33_linear_314_4081" x1="50.4684" y1="49.7486" x2="46.5465" y2="47.899" gradientUnits="userSpaceOnUse">
<stop stop-color="#41A380"/>
<stop offset="1" stop-color="#63D5AC"/>
</linearGradient>
<linearGradient id="paint34_linear_314_4081" x1="18.7155" y1="37.7125" x2="17.536" y2="37.1585" gradientUnits="userSpaceOnUse">
<stop stop-color="#41A380"/>
<stop offset="1" stop-color="#63D5AC"/>
</linearGradient>
<linearGradient id="paint35_linear_314_4081" x1="28.1251" y1="42.4752" x2="25.2351" y2="41.174" gradientUnits="userSpaceOnUse">
<stop stop-color="#41A380"/>
<stop offset="1" stop-color="#63D5AC"/>
</linearGradient>
<linearGradient id="paint36_linear_314_4081" x1="32.3811" y1="40.2578" x2="19.4865" y2="34.3541" gradientUnits="userSpaceOnUse">
<stop stop-color="#41A380"/>
<stop offset="1" stop-color="#63D5AC"/>
</linearGradient>
<linearGradient id="paint37_linear_314_4081" x1="38.0213" y1="43.004" x2="36.3849" y2="42.2294" gradientUnits="userSpaceOnUse">
<stop stop-color="#41A380"/>
<stop offset="1" stop-color="#63D5AC"/>
</linearGradient>
<linearGradient id="paint38_linear_314_4081" x1="37.7169" y1="36.0674" x2="23.4554" y2="29.4026" gradientUnits="userSpaceOnUse">
<stop stop-color="#41A380"/>
<stop offset="1" stop-color="#63D5AC"/>
</linearGradient>
<linearGradient id="paint39_linear_314_4081" x1="53.3077" y1="48.1175" x2="51.2244" y2="47.1295" gradientUnits="userSpaceOnUse">
<stop stop-color="#41A380"/>
<stop offset="1" stop-color="#63D5AC"/>
</linearGradient>
<linearGradient id="paint40_linear_314_4081" x1="54.6673" y1="51.8742" x2="53.4492" y2="51.3001" gradientUnits="userSpaceOnUse">
<stop stop-color="#41A380"/>
<stop offset="1" stop-color="#63D5AC"/>
</linearGradient>
<linearGradient id="paint41_linear_314_4081" x1="17.4674" y1="33.1257" x2="15.7989" y2="32.3389" gradientUnits="userSpaceOnUse">
<stop stop-color="#41A380"/>
<stop offset="1" stop-color="#63D5AC"/>
</linearGradient>
<linearGradient id="paint42_linear_314_4081" x1="52.1824" y1="48.2791" x2="51.2612" y2="47.8413" gradientUnits="userSpaceOnUse">
<stop stop-color="#41A380"/>
<stop offset="1" stop-color="#63D5AC"/>
</linearGradient>
<linearGradient id="paint43_linear_314_4081" x1="37.5049" y1="42.327" x2="36.5556" y2="41.8776" gradientUnits="userSpaceOnUse">
<stop stop-color="#41A380"/>
<stop offset="1" stop-color="#63D5AC"/>
</linearGradient>
<linearGradient id="paint44_linear_314_4081" x1="42.1506" y1="44.0461" x2="40.3251" y2="43.1895" gradientUnits="userSpaceOnUse">
<stop stop-color="#41A380"/>
<stop offset="1" stop-color="#63D5AC"/>
</linearGradient>
<linearGradient id="paint45_linear_314_4081" x1="39.7372" y1="35.3318" x2="35.2618" y2="33.2133" gradientUnits="userSpaceOnUse">
<stop stop-color="#41A380"/>
<stop offset="1" stop-color="#63D5AC"/>
</linearGradient>
<linearGradient id="paint46_linear_314_4081" x1="56.4229" y1="48.6275" x2="54.822" y2="47.8717" gradientUnits="userSpaceOnUse">
<stop stop-color="#41A380"/>
<stop offset="1" stop-color="#63D5AC"/>
</linearGradient>
<linearGradient id="paint47_linear_314_4081" x1="57.7473" y1="46.3629" x2="56.0053" y2="45.5369" gradientUnits="userSpaceOnUse">
<stop stop-color="#41A380"/>
<stop offset="1" stop-color="#63D5AC"/>
</linearGradient>
<linearGradient id="paint48_linear_314_4081" x1="46.7606" y1="43.8056" x2="45.7968" y2="43.3537" gradientUnits="userSpaceOnUse">
<stop stop-color="#41A380"/>
<stop offset="1" stop-color="#63D5AC"/>
</linearGradient>
<linearGradient id="paint49_linear_314_4081" x1="61.2892" y1="43.9934" x2="58.5545" y2="42.6958" gradientUnits="userSpaceOnUse">
<stop stop-color="#41A380"/>
<stop offset="1" stop-color="#63D5AC"/>
</linearGradient>
<linearGradient id="paint50_linear_314_4081" x1="27.5437" y1="28.7902" x2="23.2019" y2="26.7502" gradientUnits="userSpaceOnUse">
<stop stop-color="#41A380"/>
<stop offset="1" stop-color="#63D5AC"/>
</linearGradient>
<linearGradient id="paint51_linear_314_4081" x1="21.7487" y1="27.7639" x2="20.0176" y2="26.9489" gradientUnits="userSpaceOnUse">
<stop stop-color="#41A380"/>
<stop offset="1" stop-color="#63D5AC"/>
</linearGradient>
<linearGradient id="paint52_linear_314_4081" x1="47.7611" y1="37.5119" x2="40.7013" y2="34.2339" gradientUnits="userSpaceOnUse">
<stop stop-color="#41A380"/>
<stop offset="1" stop-color="#63D5AC"/>
</linearGradient>
<linearGradient id="paint53_linear_314_4081" x1="51.874" y1="36.8273" x2="41.7078" y2="32.0973" gradientUnits="userSpaceOnUse">
<stop stop-color="#41A380"/>
<stop offset="1" stop-color="#63D5AC"/>
</linearGradient>
<linearGradient id="paint54_linear_314_4081" x1="56.1552" y1="36.0199" x2="43.8527" y2="30.3015" gradientUnits="userSpaceOnUse">
<stop stop-color="#41A380"/>
<stop offset="1" stop-color="#63D5AC"/>
</linearGradient>
<linearGradient id="paint55_linear_314_4081" x1="56.9514" y1="37.1504" x2="54.5439" y2="36.0092" gradientUnits="userSpaceOnUse">
<stop stop-color="#41A380"/>
<stop offset="1" stop-color="#63D5AC"/>
</linearGradient>
<linearGradient id="paint56_linear_314_4081" x1="28.4859" y1="26.7582" x2="24.7" y2="24.9994" gradientUnits="userSpaceOnUse">
<stop stop-color="#41A380"/>
<stop offset="1" stop-color="#63D5AC"/>
</linearGradient>
<linearGradient id="paint57_linear_314_4081" x1="32.964" y1="25.9229" x2="31.3759" y2="25.1805" gradientUnits="userSpaceOnUse">
<stop stop-color="#41A380"/>
<stop offset="1" stop-color="#63D5AC"/>
</linearGradient>
<linearGradient id="paint58_linear_314_4081" x1="29.308" y1="23.6826" x2="26.9633" y2="22.5939" gradientUnits="userSpaceOnUse">
<stop stop-color="#41A380"/>
<stop offset="1" stop-color="#63D5AC"/>
</linearGradient>
<linearGradient id="paint59_linear_314_4081" x1="28.9115" y1="22.8339" x2="27.2419" y2="22.0616" gradientUnits="userSpaceOnUse">
<stop stop-color="#41A380"/>
<stop offset="1" stop-color="#63D5AC"/>
</linearGradient>
<linearGradient id="paint60_linear_314_4081" x1="40.3204" y1="27.7509" x2="38.7193" y2="27.0024" gradientUnits="userSpaceOnUse">
<stop stop-color="#41A380"/>
<stop offset="1" stop-color="#63D5AC"/>
</linearGradient>
<linearGradient id="paint61_linear_314_4081" x1="43.4972" y1="23.1772" x2="32.1115" y2="17.9077" gradientUnits="userSpaceOnUse">
<stop stop-color="#41A380"/>
<stop offset="1" stop-color="#63D5AC"/>
</linearGradient>
<linearGradient id="paint62_linear_314_4081" x1="47.6995" y1="26.215" x2="45.7862" y2="25.3264" gradientUnits="userSpaceOnUse">
<stop stop-color="#41A380"/>
<stop offset="1" stop-color="#63D5AC"/>
</linearGradient>
<linearGradient id="paint63_linear_314_4081" x1="54.7769" y1="28.7438" x2="49.9367" y2="26.5269" gradientUnits="userSpaceOnUse">
<stop stop-color="#41A380"/>
<stop offset="1" stop-color="#63D5AC"/>
</linearGradient>
<linearGradient id="paint64_linear_314_4081" x1="50.7617" y1="27.1556" x2="47.8659" y2="25.838" gradientUnits="userSpaceOnUse">
<stop stop-color="#41A380"/>
<stop offset="1" stop-color="#63D5AC"/>
</linearGradient>
</defs>
</svg>
