<svg width="1630" height="879" viewBox="0 0 1630 879" fill="none" xmlns="http://www.w3.org/2000/svg">
<path d="M1240.63 38.0158C1133.83 54.4158 961.8 26.1825 889.134 10.0158C882.634 8.59499 735.134 -6.98413 643.134 26.5159C551.134 60.0159 500.634 3.51579 285.134 1.01579C69.6337 -1.48421 128.634 293.516 97.6337 442.016C66.6337 590.516 198.134 697.516 285.134 700.016C372.134 702.516 417.134 752.516 581.634 838.516C746.134 924.516 1015.13 851.016 1099.63 804.016C1184.13 757.016 1412.63 791.016 1546.13 774.516C1679.63 758.016 1619.13 620.516 1579.13 494.516C1539.13 368.516 1635.63 207.516 1579.13 121.516C1522.63 35.5158 1374.13 17.5158 1240.63 38.0158Z" fill="#232424" stroke="#2C4B40"/>
<circle cx="167.955" cy="142.593" r="111" transform="rotate(-10.6165 167.955 142.593)" fill="url(#paint0_linear_443_3415)"/>
<path fill-rule="evenodd" clip-rule="evenodd" d="M59.6943 167.521L61.0657 174.838L61.5095 174.555C60.2055 176.068 58.9461 177.568 57.7324 179.051C48.2556 190.636 41.7909 201.001 38.5576 209.494C35.2485 218.185 35.8116 223.504 37.8581 226.504C39.9047 229.503 44.6511 231.968 53.951 232.057C63.0377 232.145 75.0468 229.907 89.2903 225.309C117.699 216.139 153.661 198.024 190.291 173.034C226.921 148.045 256.906 121.17 275.808 98.0638C285.284 86.479 291.749 76.1139 294.982 67.6215C298.291 58.9298 297.728 53.6114 295.682 50.6116C293.635 47.6118 288.889 45.1474 279.589 45.0578C270.502 44.9702 258.493 47.2083 244.25 51.8059C241.238 52.778 238.141 53.8507 234.968 55.0214L234.918 54.7526L229.531 50.6572C265.019 37.0375 292.15 34.7885 300.638 47.2302C315.496 69.0085 267.605 127.552 193.672 177.991C119.739 228.429 47.7592 251.663 32.9017 229.885C24.6761 217.828 35.6832 194.502 59.6943 167.521Z" fill="#318265"/>
<circle cx="117.796" cy="170.817" r="15.5" transform="rotate(-10.6165 117.796 170.817)" fill="#99ECC4"/>
<circle cx="100.845" cy="112.95" r="6.5" transform="rotate(-10.6165 100.845 112.95)" fill="#99ECC4"/>
<circle cx="134.262" cy="122.964" r="4.5" transform="rotate(-10.6165 134.262 122.964)" fill="#99ECC4"/>
<g filter="url(#filter0_d_443_3415)">
<path d="M1475.33 849.455C1474.58 851.109 1474.15 855.912 1474.8 855.355C1475.43 854.821 1476.44 848.768 1475.92 848.722C1475.8 848.711 1475.54 849.056 1475.33 849.455Z" fill="url(#paint1_linear_443_3415)"/>
<path d="M1477.8 844.045C1476.42 844.316 1474.13 845.759 1473.14 846.998C1472.58 847.661 1472.19 848.291 1472.26 848.395C1472.38 848.503 1477.08 845.628 1479.22 844.123C1479.52 843.903 1478.72 843.857 1477.8 844.045Z" fill="url(#paint2_linear_443_3415)"/>
<path d="M1528.06 624.779C1525.7 625.331 1524.54 625.916 1522.46 627.599C1519.35 630.124 1517.59 633.285 1516.55 638.181C1515.98 640.931 1515.5 642.879 1514.65 645.752C1513.57 649.391 1513.42 650.484 1513.57 653.618C1513.65 655.247 1513.61 656.84 1513.51 657.175C1513.4 657.509 1513.05 659.493 1512.74 661.554C1512.29 664.611 1512.25 665.417 1512.48 665.856C1512.63 666.14 1512.91 668.106 1513.07 670.233C1513.26 672.339 1513.54 674.87 1513.73 675.845C1514.28 678.719 1514.17 679.152 1512.54 680.26C1511.76 680.781 1510.78 681.309 1510.4 681.446C1510.01 681.559 1509.61 681.843 1509.52 682.031C1509.4 682.218 1509.13 682.366 1508.88 682.344C1508.66 682.324 1508.17 682.477 1507.82 682.717C1507.48 682.932 1506.62 683.297 1505.94 683.508C1504.78 683.896 1504.48 683.894 1502.43 683.491C1497.49 682.536 1493.52 682.577 1490.84 683.617C1489.15 684.253 1487.14 686.015 1486.13 687.696C1485.48 688.793 1485.16 689.059 1484.31 689.327C1483.71 689.496 1482.79 690.003 1482.22 690.42C1481.15 691.234 1479.79 693.251 1479.7 694.201C1479.66 694.738 1479.58 694.756 1478.5 694.512C1477.83 694.355 1476.91 693.929 1476.45 693.544C1475.82 693.021 1475.04 692.731 1473.53 692.449C1472.42 692.228 1470.88 691.747 1470.15 691.437C1469.43 691.102 1467.94 690.651 1466.86 690.407C1465.77 690.188 1463.24 689.57 1461.2 689.045C1458.55 688.343 1456.1 687.88 1452.43 687.43C1448.43 686.928 1447.17 686.693 1446.57 686.321C1445.72 685.778 1444.43 685.59 1444.15 685.934C1443.89 686.279 1440.11 685.624 1439.03 685.061C1438.21 684.62 1438.03 684.629 1437 684.906C1436.34 685.068 1435.18 685.137 1434.05 685.037C1433.03 684.947 1431.23 684.909 1430.05 684.927C1428.86 684.97 1427.1 685.01 1426.14 685.048C1424.51 685.099 1422.63 685.596 1421.64 686.269C1421.43 686.398 1420.37 686.746 1419.31 687.021C1415.92 687.899 1411.93 690.125 1409.43 692.508C1408.64 693.273 1407.89 693.772 1407.43 693.805C1406.55 693.898 1405.93 694.654 1405.3 696.392C1405.03 697.13 1404.47 698.087 1404.05 698.517C1401.82 700.776 1398.27 705.081 1396.85 707.264C1395.95 708.61 1394.5 711.331 1393.63 713.269C1392.72 715.228 1391.09 718.302 1389.98 720.095L1387.96 723.38L1384.24 726.466L1380.5 729.549L1376.14 729.162C1370.86 728.693 1368.21 727.991 1367.85 726.952C1367.58 726.24 1367.27 726.163 1366.32 726.571C1365.96 726.735 1365 726.821 1364.17 726.748C1360.53 726.45 1356.8 727.47 1354.76 729.303C1351.43 732.3 1351.03 732.805 1350.72 734.572C1350.44 736.07 1350.47 736.294 1350.99 737.249C1351.72 738.592 1355.03 742.572 1356.96 744.414C1364.2 751.347 1376 757.039 1386.94 758.87C1388.03 759.041 1389.16 759.264 1389.46 759.364C1389.87 759.475 1390.46 759.109 1392.17 757.688C1393.34 756.662 1394.87 755.299 1395.5 754.642C1396.3 753.853 1396.86 753.485 1397.26 753.521C1397.56 753.547 1398.21 753.286 1398.69 752.935C1399.47 752.366 1399.59 752.155 1399.66 751.105C1399.71 749.954 1399.77 749.861 1400.63 749.52C1401.12 749.318 1401.9 748.797 1402.36 748.371C1403.02 747.742 1403.18 747.412 1403.16 746.698C1403.14 745.885 1403.31 745.654 1405.58 743.57C1410.71 738.891 1416.25 732.822 1418.02 729.907C1418.34 729.395 1418.89 728.83 1419.25 728.69C1419.62 728.55 1420 728.216 1420.1 727.954C1420.2 727.693 1421.38 726.544 1422.71 725.385C1424.05 724.226 1425.53 722.736 1426.05 722.069C1426.87 720.987 1427.11 720.812 1427.94 720.788C1428.47 720.761 1429.33 720.468 1429.86 720.147C1431 719.437 1432.27 719.526 1433.8 720.399C1434.88 721.035 1435.86 720.975 1437.74 720.232L1438.7 719.875L1441.52 721.428C1444.78 723.241 1448.04 724.734 1450.23 725.445C1451.36 725.791 1452.17 726.28 1453.28 727.288C1454.14 728.053 1455.18 728.857 1455.58 729.114C1456.01 729.374 1456.37 729.626 1456.41 729.655C1456.64 729.897 1454.67 732.08 1453.8 732.543C1452.45 733.259 1448.67 736.487 1447.49 737.93C1446.98 738.548 1445.92 740.051 1445.13 741.284C1444.35 742.516 1443.07 744.172 1442.29 744.987C1438.86 748.59 1436.46 751.914 1434.71 755.47C1433.02 758.932 1429.99 764.216 1429.39 764.728C1428.55 765.464 1427.31 768.13 1426.1 771.832C1425.21 774.48 1424.75 775.422 1422.17 779.592C1420.58 782.203 1418.83 785.217 1418.29 786.275C1417.76 787.334 1417.04 788.4 1416.69 788.664C1416.23 789.016 1415.93 789.653 1415.6 790.827C1415.19 792.241 1415.04 792.523 1414.42 792.762C1414 792.946 1413.56 793.399 1413.34 793.871C1413.15 794.321 1412.64 795.012 1412.17 795.438C1411.16 796.355 1408.83 798.876 1407.12 800.862C1405.33 802.963 1402.45 805.681 1398.59 808.926C1396.77 810.46 1394.81 812.227 1394.25 812.865C1392.07 815.35 1390.24 819.34 1389.98 822.168C1389.83 823.899 1390.32 826.915 1391.07 828.899C1392.31 832.13 1394.9 834.645 1398.65 836.256C1400.08 836.849 1400.85 837.015 1403.46 837.223C1406.23 837.469 1406.79 837.444 1408.48 836.981C1411.88 836.054 1414.06 834.699 1418.06 830.927C1422.28 827.001 1430.07 818.748 1435.36 812.657C1436.25 811.631 1436.9 811.099 1437.39 811.019C1438.17 810.917 1439.27 810.154 1439.31 809.691C1439.33 809.52 1440.59 808.354 1442.08 807.086C1446.2 803.668 1449.13 800.341 1450.46 797.559C1450.89 796.64 1451.31 796.161 1451.84 795.912C1452.73 795.524 1453.74 794.288 1453.81 793.507C1453.83 793.215 1454.48 792.118 1455.28 791.058C1456.91 788.868 1458.62 785.752 1459.21 783.888C1459.58 782.766 1459.81 782.516 1461.25 781.587C1464.47 779.49 1467.41 776.606 1468.65 774.332C1468.89 773.862 1469.68 772.827 1470.41 772.031C1471.77 770.53 1473.07 768.631 1473.7 767.188C1473.98 766.574 1474.47 766.15 1475.71 765.523C1476.6 765.062 1477.64 764.638 1478.03 764.574C1478.41 764.485 1478.97 764.166 1479.27 763.825C1479.91 763.193 1485.29 761.091 1486.11 761.164C1487.46 761.284 1492 758.541 1493.68 756.577C1494.41 755.708 1496.42 755.642 1497.68 756.442C1498.44 756.951 1498.57 756.962 1499.72 756.696C1500.52 756.497 1501.5 756.485 1502.67 756.638C1503.88 756.82 1504.79 756.802 1505.68 756.587C1506.94 756.256 1506.99 756.261 1508.66 756.998C1510.96 757.989 1513.65 758.276 1515.16 757.649C1516.25 757.206 1518.01 755.74 1518.6 754.761C1518.87 754.293 1519.08 754.262 1520.64 754.401C1521.62 754.487 1522.75 754.711 1523.16 754.895C1523.77 755.17 1524.09 755.199 1524.82 754.944C1525.31 754.791 1526.52 754.653 1527.53 754.668C1529.56 754.701 1531.8 754.065 1533.09 753.098C1533.52 752.768 1534.41 751.815 1535.09 750.941C1535.77 750.093 1536.51 749.421 1536.71 749.439C1537.85 749.54 1539.18 748.405 1539.29 747.26C1539.32 746.869 1540.5 746.016 1542.5 744.965C1542.85 744.75 1544.92 743.165 1547.09 741.416C1549.25 739.667 1551.49 737.998 1552.06 737.73C1552.64 737.437 1553.73 736.772 1554.46 736.222L1555.8 735.236L1559.58 735.399C1561.65 735.51 1565.29 735.538 1567.66 735.478C1572.04 735.375 1573.48 735.528 1576.78 736.533C1578.86 737.16 1585.72 737.917 1588.84 737.875C1607.02 737.621 1617.78 731.327 1621.82 718.614C1622.37 716.918 1622.4 716.602 1622.18 714.862C1621.47 708.705 1615.87 701.106 1607.63 695.092C1606.08 693.971 1604.94 692.887 1604.09 691.755C1603.01 690.332 1601.08 688.54 1600.23 688.194C1600.11 688.134 1600.53 686.82 1601.17 685.255C1604.7 676.649 1604.72 668.271 1601.19 659.579C1598.49 652.95 1594.81 648.643 1588.72 645.055C1584.66 642.656 1579.57 640.95 1575.38 640.578C1570.42 640.138 1566.17 641.038 1561.1 643.561C1558.66 644.794 1557.75 645.131 1557.31 644.969C1556.5 644.701 1553.76 641.951 1553.25 640.899C1553.02 640.411 1552.46 639.846 1552.01 639.609C1551.53 639.345 1549.88 637.552 1547.96 635.195C1544.47 630.904 1542.99 629.495 1540.27 627.829C1537.49 626.083 1535.06 625.179 1532.08 624.792C1529.99 624.533 1529.19 624.511 1528.06 624.779ZM1535.71 627.743C1539.88 629.416 1541.89 631.093 1546.54 636.764C1549.82 640.766 1550.68 642.071 1549.48 641.178C1549.15 640.952 1548.67 640.984 1547.36 641.383C1545.34 641.966 1543.64 641.889 1543.1 641.202C1542.88 640.911 1542.62 639.537 1542.47 637.902C1542.11 634.258 1541.86 633.695 1541.62 636.155C1541.43 638.203 1541.23 638.775 1540.76 638.733C1540.59 638.718 1539.59 637.793 1538.53 636.668C1535.11 633.047 1533.12 631.42 1531.97 631.319C1531.5 631.277 1531.65 631.56 1532.88 633.045C1534.44 634.953 1535.41 636.489 1536.13 638.273C1536.67 639.574 1536.57 639.762 1535.64 639.286C1533.28 638.094 1528.53 637.352 1526.12 637.827C1523.98 638.25 1521.28 639.436 1519.53 640.78L1517.92 641.988L1518.29 639.76C1519.1 634.869 1520.77 631.675 1523.75 629.212C1525.7 627.616 1527.12 626.882 1528.83 626.616C1530.3 626.403 1533.79 626.959 1535.71 627.743ZM1581.26 643.902C1590.38 646.997 1596.16 652.301 1599.35 660.497C1602.22 667.828 1602.52 674.661 1600.35 681.569C1597.97 689.074 1592.66 696.269 1587.19 699.395C1586.2 699.972 1586.27 699.781 1587.42 698.752C1587.94 698.258 1589.29 696.904 1590.42 695.727C1599.02 686.636 1602.51 676.43 1600.41 666.685C1599.93 664.504 1599.77 664.342 1599.6 665.9C1599.43 667.556 1598.31 669.373 1596.23 671.399C1593.84 673.718 1593.83 673.742 1594.34 669.709C1595.12 663.241 1593.95 657.659 1590.57 651.706C1588.96 648.909 1587.66 647.075 1587.21 647.035C1586.64 646.984 1586.76 647.314 1588.25 649.535C1591.15 653.871 1592.62 657.442 1593.13 661.296C1593.54 664.354 1593.38 668.346 1592.76 671.116C1592.18 673.743 1591.57 675.163 1592.06 672.774C1592.64 669.951 1592.93 665.013 1592.64 662.874C1591.98 657.827 1589.92 653.271 1586.7 649.668C1581.61 643.981 1575.35 642.025 1567.84 643.766C1564.89 644.463 1563.19 645.197 1560.31 647.079C1554.53 650.841 1549.41 656.112 1546.94 660.782C1546.36 661.935 1546.17 662.606 1546.01 664.459L1545.81 666.726L1546.75 667.719C1547.28 668.258 1548.12 669.02 1548.64 669.361C1550.72 670.824 1553.88 674.815 1557.47 680.539C1560.17 684.858 1562.29 687.553 1564.03 688.936C1567.83 691.976 1570.16 692.552 1575.35 691.808C1575.81 691.751 1575.75 691.795 1575.16 692.012C1571.81 693.19 1566.47 692.297 1563.7 690.11C1562.27 689 1561.71 688.213 1557.46 681.226C1555.29 677.643 1550.49 672.032 1547.86 669.98C1545.74 668.342 1545.14 667.502 1544.77 665.7C1544.56 664.723 1544.63 664.484 1545.69 662.121C1547.06 659.147 1548.94 656.046 1550.8 653.778C1554.41 649.332 1562.57 644.233 1568.01 643.02C1572.26 642.095 1576.8 642.375 1581.26 643.902ZM1553.33 644.272C1554.34 645.32 1555.19 646.255 1555.23 646.357C1555.24 646.457 1554.48 646.905 1553.51 647.359C1552.56 647.791 1551 648.758 1550.05 649.461C1548.25 650.848 1547.94 650.871 1549.1 649.474L1549.83 648.63L1549.17 647.515C1548.3 646.061 1548.17 645.19 1548.79 644.459C1549.04 644.137 1549.23 643.761 1549.19 643.634C1549.12 643.333 1546.31 644.951 1545.3 645.869C1544.92 646.179 1544.52 646.439 1544.4 646.427C1543.32 646.332 1550.16 642.295 1551.24 642.366C1551.39 642.379 1552.31 643.248 1553.33 644.272ZM1535.85 642.229C1538.75 643.591 1540.15 647.55 1540.11 654.205C1540.11 655.138 1539.99 655.865 1539.89 655.856C1539.77 655.845 1539.09 655.515 1538.4 655.134C1535.45 653.545 1531.15 652.746 1528.2 653.221C1527.36 653.367 1525.27 653.993 1523.5 654.647C1521.73 655.301 1520.18 655.826 1520.06 655.815C1519.28 655.747 1518.98 650.142 1519.64 648.579C1521.06 645.339 1525.53 641.976 1529.33 641.257C1530.95 640.933 1534.14 641.414 1535.85 642.229ZM1577.4 646.09C1581.16 647.333 1584.37 649.608 1584.25 650.974C1584.22 651.29 1583.78 651.178 1581.18 650.185C1580.26 649.833 1578.37 649.37 1577 649.151C1574.72 648.825 1574.37 648.843 1572.6 649.275C1571.52 649.548 1570.45 649.699 1570.14 649.573C1569.57 649.4 1568.42 647.652 1568.21 646.65C1567.91 645.271 1570.27 644.719 1574.08 645.304C1575.05 645.463 1576.52 645.815 1577.4 646.09ZM1517.64 644.592C1517.32 645.572 1516.45 650.9 1516.26 653.07C1516.15 654.264 1515.97 655.206 1515.84 655.195C1515.52 655.167 1515.56 651.239 1515.93 649.085C1516.26 647.026 1517.26 644.018 1517.61 644.049C1517.71 644.058 1517.74 644.306 1517.64 644.592ZM1564.19 648.947C1565.22 650.389 1564.81 651.311 1562.01 653.692C1558.91 656.365 1556.8 658.857 1554.4 662.747C1553.17 664.702 1552.01 666.466 1551.79 666.644C1550.79 667.464 1549.52 666.515 1549.44 664.886C1549.36 663.184 1552.91 656.595 1555.66 653.325C1557.21 651.496 1559.74 649.289 1561.08 648.597C1562.63 647.825 1563.45 647.923 1564.19 648.947ZM1544.19 646.753C1544.19 646.802 1543.97 646.979 1543.73 647.13C1543.3 647.412 1543.28 647.385 1543.64 647.024C1544 646.662 1544.21 646.558 1544.19 646.753ZM1554.81 649.367C1552.81 650.959 1552.2 651.076 1552.51 649.826C1552.68 649.03 1555.13 647.676 1556.28 647.753C1556.66 647.762 1556.27 648.194 1554.81 649.367ZM1538.58 656.772C1540.02 657.539 1540.36 658.183 1540.71 660.819C1540.88 661.989 1541.05 663.159 1541.11 663.409C1541.19 663.835 1541.09 663.85 1539.71 663.556C1538.9 663.41 1537.82 663.315 1537.32 663.344C1536.56 663.423 1536.4 663.532 1536.43 663.978C1536.47 664.472 1536.61 664.534 1538.08 664.689C1540.44 664.923 1541.43 665.404 1541.55 666.373C1541.58 666.794 1541.6 667.164 1541.57 667.186C1539.92 667.997 1539.61 668.044 1538.06 667.71C1536.41 667.366 1533.39 667.393 1532.53 667.735C1532.27 667.859 1531.67 667.903 1531.22 667.864C1530.05 667.76 1528.08 668.15 1526.49 668.771C1524.9 669.367 1524.92 669.221 1526.5 667.248C1527.57 665.918 1529.64 664.358 1530.54 664.216C1530.87 664.147 1531.08 663.994 1531.05 663.819C1530.98 663.493 1530.63 663.438 1529.34 663.544C1528.66 663.582 1528.39 663.509 1528.31 663.281C1528.12 662.625 1527.34 662.851 1526.04 663.89C1525.34 664.467 1524.7 664.853 1524.61 664.771C1524.38 664.48 1525.97 662.164 1527 661.297C1527.54 660.854 1528.31 660.382 1528.73 660.246C1529.68 659.963 1529.48 659.723 1528.27 659.715C1527.09 659.708 1524.38 660.622 1523.02 661.508C1520.99 662.803 1521.66 661.83 1524.12 659.862C1527.41 657.23 1530.53 656.033 1534.39 655.884C1536.26 655.804 1537.04 655.972 1538.58 656.772ZM1515.43 661.842C1515.24 662.219 1514.99 662.492 1514.84 662.478C1514.62 662.458 1514.89 660.517 1515.54 657.749C1515.79 656.616 1515.81 656.667 1515.79 658.877C1515.76 660.324 1515.64 661.443 1515.43 661.842ZM1544.36 666.942C1544.5 667.299 1544.58 667.797 1544.56 668.065C1544.53 668.382 1544.97 668.814 1545.9 669.413C1549.3 671.582 1552.44 674.908 1555.86 679.905C1557.77 682.729 1560.64 687.823 1560.59 688.36C1560.55 688.75 1560.17 688.225 1559.02 686.181C1558.64 685.459 1557.73 684.052 1557.07 683.035C1556.38 682.015 1555.24 680.194 1554.51 679.023C1552.64 676.007 1548.97 672.094 1548.89 673.045C1548.88 673.167 1549.72 674.126 1550.73 675.223C1552.54 677.153 1553.43 678.461 1553.38 679.095C1553.31 679.85 1552.39 679.155 1550.33 676.859C1547.8 674.029 1545.57 672.21 1542.35 670.375C1541.1 669.651 1540.03 669.039 1540.01 668.988C1539.73 668.742 1540.42 667.993 1541.14 667.811C1541.6 667.705 1542.39 667.308 1542.9 666.96C1543.41 666.587 1543.91 666.312 1543.99 666.295C1544.06 666.301 1544.24 666.587 1544.36 666.942ZM1539.29 669.735C1539.85 670.178 1540.32 670.588 1540.31 670.661C1540.3 670.734 1539.63 670.921 1538.84 671.072C1537.13 671.387 1535.56 672.083 1535.76 672.444C1535.95 672.83 1536.4 672.796 1537.72 672.373C1538.39 672.162 1539.57 671.947 1540.37 671.92L1541.84 671.878L1543.94 673.613C1547.01 676.146 1548.73 677.994 1550.29 680.467C1552.73 684.345 1552.64 684.558 1549.88 681.413C1548.44 679.762 1546.87 678.001 1546.36 677.489C1544.58 675.709 1541.09 672.671 1540.74 672.64C1539.87 672.563 1540.51 673.48 1542.65 675.391C1545.1 677.549 1546.74 679.685 1548.16 682.44L1548.97 684.06L1546.85 681.635C1544.38 678.837 1541.45 675.898 1541.1 675.867C1540.51 675.814 1540.84 676.827 1541.66 677.538C1542.82 678.575 1548.32 684.862 1548.59 685.5C1548.71 685.758 1548.11 685.261 1547.23 684.373C1546.36 683.484 1545.18 682.323 1544.59 681.829C1544.01 681.31 1542.65 679.961 1541.54 678.83C1538.9 676.065 1537.73 675.15 1537.29 675.504C1537.05 675.728 1537.08 675.903 1537.55 676.313C1539.64 678.243 1542.86 681.822 1544.04 683.5C1546.48 686.935 1550.29 693.736 1549.96 694.026C1549.64 694.268 1546.17 692.043 1545.57 691.204C1544.32 689.471 1538.59 683.556 1538.25 683.649C1537.53 683.831 1537.89 684.403 1540.14 686.741C1541.4 688.057 1542.43 689.229 1542.42 689.351C1542.41 689.449 1542.26 689.435 1542.12 689.3C1539.29 686.739 1537.06 684.895 1536.93 685.006C1536.84 685.097 1536.01 684.286 1535.1 683.246C1533.3 681.219 1532.67 680.869 1531.06 680.971C1529.57 681.084 1528.75 681.479 1526.17 683.363C1522.22 686.256 1520.13 688.085 1519.54 689.113L1518.97 690.119L1518.27 689.492C1517.66 688.972 1517.25 688.861 1515.4 688.697C1513.66 688.542 1513.23 688.578 1513.2 688.87C1513.18 689.09 1513.46 689.311 1513.91 689.424C1514.57 689.582 1514.68 689.788 1515.05 691.246C1515.57 693.307 1515.54 694.238 1514.98 692.935C1514.77 692.425 1514.21 691.638 1513.75 691.155C1512.55 689.943 1509.36 687.767 1507.43 686.859C1506.51 686.433 1505.75 685.997 1505.76 685.851C1505.77 685.729 1506.37 685.487 1507.09 685.281L1508.38 684.953L1510.58 685.837C1512.31 686.506 1512.85 686.652 1513.12 686.43C1513.52 686.098 1513.22 685.85 1511.35 685.094C1509.85 684.494 1509.69 684.283 1510.47 683.959C1511.28 683.638 1516.93 684.238 1518.59 684.803C1519.56 685.159 1520.11 685.232 1520.3 685.077C1520.46 684.944 1520.47 684.773 1520.36 684.616C1519.88 684.082 1517.14 683.322 1514.92 683.125C1513.55 683.004 1512.61 682.822 1512.62 682.676C1512.64 682.53 1512.72 682.439 1512.84 682.45C1512.94 682.459 1513.69 681.911 1514.51 681.246C1515.94 680.071 1516.04 680.056 1517.39 680.151C1518.64 680.261 1521 680.791 1522.12 681.209C1522.46 681.362 1522.55 681.223 1522.62 680.345C1522.7 679.467 1522.88 679.188 1523.77 678.505C1524.85 677.667 1527.37 676.958 1530.54 676.6C1532.01 676.436 1532.04 676.438 1531.96 675.669C1531.77 674.031 1531.56 673.841 1529.61 673.495C1528.62 673.309 1527.63 673.197 1527.4 673.274C1525.93 673.66 1529.38 670.674 1531.53 669.71C1533.36 668.865 1534.44 668.665 1536.43 668.818C1538.03 668.96 1538.42 669.092 1539.29 669.735ZM1544.67 672.252C1546.91 673.876 1549.41 676.212 1551.07 678.226C1552.54 680.052 1552.09 679.718 1548.7 676.542C1547.17 675.128 1545.2 673.331 1544.28 672.611C1542.34 671.013 1542.11 670.796 1542.46 670.827C1542.61 670.84 1543.6 671.494 1544.67 672.252ZM1532.72 681.511C1533.44 681.576 1541.88 691.466 1543.91 694.619L1544.37 695.373L1542.99 696.822C1539.8 700.127 1535.64 702.952 1531.95 704.271C1528.63 705.499 1529.15 705.792 1526.31 701.043C1524.93 698.758 1523.55 696.473 1523.27 695.981L1522.72 695.097L1525.61 692.871C1527.19 691.661 1528.63 690.486 1528.78 690.229C1529.21 689.604 1528.73 688.283 1527.22 685.987L1525.98 684.083L1526.91 683.305C1528.7 681.793 1530.93 680.935 1532.03 681.352C1532.22 681.418 1532.52 681.494 1532.72 681.511ZM1580.63 690.065C1579.99 690.476 1578.27 691.207 1577.99 691.183C1577.89 691.174 1578.51 690.786 1579.37 690.347C1580.9 689.573 1581.69 689.398 1580.63 690.065ZM1526.56 686.984C1527.96 689.223 1528.17 690.273 1527.29 690.907C1527.02 691.104 1525.89 691.619 1524.79 692.111C1522.6 693.022 1521.68 693.776 1521.6 694.678C1521.56 695.214 1523.72 699.068 1526.63 703.651C1527.34 704.77 1527.9 705.827 1527.88 706.022C1527.86 706.217 1528.02 706.404 1528.24 706.423C1529.12 706.501 1533.29 705.004 1535.61 703.76C1538.12 702.435 1542.4 699.203 1543.69 697.622C1544.09 697.166 1544.47 696.807 1544.54 696.813C1544.74 696.831 1545.02 699.657 1544.93 700.705C1544.87 701.339 1544.37 701.884 1541.82 703.992C1540.14 705.367 1538.04 706.949 1537.17 707.486C1534.61 709.078 1531.71 710.417 1530.99 710.353C1530.14 710.277 1529.39 709.327 1526.62 704.682C1525.44 702.685 1523.25 699.051 1521.76 696.584C1518.87 691.757 1518.81 691.58 1519.66 689.641C1520.03 688.863 1520.78 688.069 1522.49 686.648C1523.79 685.609 1524.94 684.777 1525.04 684.81C1525.14 684.868 1525.83 685.839 1526.56 686.984ZM1577.4 691.376C1577.19 691.48 1576.9 691.578 1576.75 691.564C1576.63 691.553 1576.69 691.436 1576.9 691.332C1577.11 691.227 1577.42 691.132 1577.55 691.143C1577.7 691.156 1577.61 691.272 1577.4 691.376ZM1585.35 692.303C1585.31 692.742 1584.65 693.986 1584.45 693.968C1584.35 693.959 1584.22 693.775 1584.14 693.571C1583.97 692.942 1582.93 693.046 1581.27 693.906C1579.4 694.871 1578.25 696.194 1578.62 696.914C1578.77 697.173 1578.87 697.453 1578.86 697.526C1578.84 697.745 1576.14 697.407 1576.01 697.15C1575.6 696.352 1578.64 693.525 1580.72 692.752C1582.45 692.144 1585.39 691.84 1585.35 692.303ZM1497.61 684.906C1497.6 684.954 1497.29 685.393 1496.9 685.85C1496.5 686.307 1496.18 686.843 1496.16 687.014C1496.15 687.184 1495.6 687.382 1494.92 687.468C1492.86 687.703 1491.3 688.351 1489.92 689.506C1487.72 691.35 1486.54 690.73 1488.02 688.478C1488.84 687.223 1490.38 685.935 1491.66 685.434C1492.99 684.889 1497.65 684.467 1497.61 684.906ZM1504.9 686.192C1507.29 687.018 1507.9 687.442 1508.31 688.534C1508.76 689.656 1509.14 692.147 1508.93 692.348C1508.85 692.391 1508.46 692.185 1508.09 691.857C1507.27 691.145 1504.5 690.162 1501.22 689.429L1498.88 688.926L1499.02 687.931C1499.1 687.372 1499.44 686.568 1499.81 686.084L1500.47 685.233L1502.2 685.534C1503.16 685.718 1504.37 685.997 1504.9 686.192ZM1606.04 696.4C1608.39 698.157 1611.92 701.1 1611.93 701.322C1611.92 701.395 1610.8 701.344 1609.43 701.222C1607.83 701.081 1606.85 701.092 1606.71 701.252C1606.6 701.413 1605.19 701.436 1602.96 701.312L1599.42 701.095L1599.25 699.901C1599.05 698.188 1599.34 695.167 1599.77 694.885C1600.22 694.581 1600.91 694.495 1602.43 694.606C1603.65 694.69 1603.94 694.838 1606.04 696.4ZM1510.33 689.795C1510.63 693.213 1510.51 694.897 1509.98 694.653C1509.78 694.562 1509.76 694.019 1509.9 692.951C1510.1 691.568 1510 690.159 1509.63 688.898C1509.58 688.647 1509.66 688.605 1509.9 688.725C1510.09 688.815 1510.3 689.301 1510.33 689.795ZM1583.26 696.098C1582.4 696.71 1580.59 697.557 1580.24 697.526C1579.85 697.49 1580.62 696.945 1582.07 696.189C1583.94 695.225 1584.57 695.182 1583.26 696.098ZM1512.86 692.452C1512.92 694.349 1512.53 696.428 1512.13 696.393C1511.96 696.377 1511.97 696.009 1512.18 695.34C1512.54 694.07 1512.64 692.064 1512.37 691.156C1512.22 690.626 1512.26 690.482 1512.47 690.575C1512.67 690.666 1512.82 691.441 1512.86 692.452ZM1519.43 693.969C1520.65 695.454 1526.91 705.641 1526.87 706.056C1526.86 706.202 1526.68 706.284 1526.48 706.266C1526.25 706.246 1525.48 706.719 1524.75 707.317C1523.8 708.093 1523.36 708.299 1523.2 708.113C1522.79 707.634 1522.84 708.45 1523.27 709.299C1523.51 709.713 1524.02 710.471 1524.45 710.952C1525.09 711.672 1525.15 711.874 1524.83 712.018C1524.62 712.122 1524.31 712.217 1524.17 712.204C1523.72 712.164 1521.23 714.45 1520.86 715.228C1520.67 715.605 1520.42 716.245 1520.28 716.651C1520.07 717.271 1520.02 717.316 1519.8 716.952C1519.05 715.804 1514.9 710.153 1514.78 710.142C1514.71 710.136 1514.69 710.355 1514.74 710.63C1514.85 711.352 1514.56 711.228 1513.77 710.224C1512.57 708.718 1512.37 708.183 1512.49 706.745C1512.59 705.648 1512.72 705.34 1513.17 705.134C1513.69 704.861 1515.11 702.751 1515.17 702.117C1515.19 701.898 1514.98 701.929 1514.5 702.23C1513.86 702.64 1511.84 702.756 1511.88 702.39C1511.88 702.317 1512.59 701.667 1513.46 700.934L1515.04 699.624L1515.57 700.949C1515.86 701.687 1516.62 702.959 1517.25 703.777C1518.4 705.255 1520.58 707.07 1520.88 706.826C1520.96 706.759 1520.79 706.327 1520.51 705.884C1520.22 705.441 1519.81 704.716 1519.59 704.304C1519.23 703.608 1519.3 703.639 1520.31 704.663C1521.42 705.793 1522.06 706.17 1521.74 705.527C1521.66 705.372 1521.18 704.567 1520.67 703.785C1518.37 700.215 1517.77 698.834 1517.56 696.605C1517.28 693.852 1517.41 692.438 1517.9 692.482C1518.1 692.5 1518.8 693.176 1519.43 693.969ZM1514.08 693.666C1513.99 693.855 1513.92 693.775 1513.95 693.507C1513.95 693.236 1514.03 693.097 1514.1 693.201C1514.17 693.281 1514.17 693.502 1514.08 693.666ZM1547.35 696.89C1547.55 697.744 1547.5 697.788 1546.38 697.861C1545.63 697.917 1545.51 697.857 1545.28 697.272C1545 696.509 1544.99 696.042 1545.28 696.215C1545.37 696.297 1545.67 696.274 1545.96 696.177C1546.78 695.931 1547.17 696.137 1547.35 696.89ZM1487.75 691.23C1487.74 691.352 1487.5 691.798 1487.24 692.241C1486.97 692.66 1486.69 693.593 1486.63 694.3C1486.54 695.005 1486.44 695.586 1486.36 695.579C1486.01 695.548 1485.67 694.879 1485.72 694.342C1485.76 693.855 1485.67 693.773 1485.24 693.833C1484.85 693.897 1484.66 693.782 1484.62 693.434C1484.57 693.183 1484.44 692.951 1484.31 692.94C1484.01 692.913 1482.57 694.702 1482 695.806L1481.51 696.745L1481.6 695.746C1481.74 693.596 1482.91 692.053 1484.83 691.364C1486.12 690.914 1487.79 690.84 1487.75 691.23ZM1490.93 691.684C1492.84 692.174 1497.84 694.141 1498.79 694.741C1499.29 695.056 1499.27 696.455 1498.75 696.876C1498.27 697.275 1496.81 697.047 1495.98 696.457C1494.89 695.649 1493.35 695.192 1490.45 694.763L1487.85 694.36L1487.84 693.646C1487.81 693.127 1488.64 691.113 1488.87 691.133C1488.89 691.135 1489.8 691.387 1490.93 691.684ZM1611.97 702.849C1612.41 703.01 1612.97 703.11 1613.26 703.037C1614.21 702.826 1617.85 708.187 1619.36 712.056C1620.16 714.117 1620.19 714.341 1620.01 716.414C1619.87 717.998 1619.6 719.055 1619.09 720.263C1618.14 722.464 1616 725.935 1614.96 726.9L1614.13 727.687L1615.11 725.439C1615.78 723.901 1616.17 722.511 1616.4 721.082C1616.67 719.213 1616.65 718.843 1616.18 717.622C1615.51 715.867 1614.47 714.57 1612.75 713.312C1610.46 711.683 1608.41 710.961 1605.07 710.689C1601.31 710.355 1599.8 710.639 1597.84 712.111C1595.47 713.891 1594.2 716.604 1593.39 721.717C1592.94 724.527 1592.84 724.543 1592.17 721.633C1591.61 719.175 1591.67 715.323 1592.29 712.921C1592.62 711.77 1592.68 711.039 1592.56 710.757C1592.37 710.347 1592.29 710.389 1591.75 711.103C1590.61 712.575 1590.37 713.586 1589.99 718.171C1589.72 721.465 1589.69 723.28 1589.9 725.412C1590.04 726.972 1590.12 728.282 1590.07 728.326C1589.93 728.437 1589.01 727.815 1588.12 727.024C1586.51 725.628 1586 722.412 1586.42 716.773L1586.56 714.918L1586.1 716.106C1585.87 716.749 1585.4 718.354 1585.06 719.675C1584.45 722.004 1583.82 723.398 1583.35 723.356C1582.35 723.268 1582.89 717.787 1584.35 713.174C1585.33 710.14 1585.74 709.488 1587.82 707.83C1589.06 706.811 1589.3 706.709 1589.54 707.05C1589.7 707.26 1590.4 707.617 1591.13 707.854C1592.23 708.198 1592.71 708.215 1594.29 707.962C1595.33 707.809 1596.82 707.745 1597.61 707.84C1598.66 707.957 1599.11 707.899 1599.23 707.665C1599.45 707.241 1601.07 707.385 1602.75 707.976C1603.46 708.211 1604.1 708.342 1604.16 708.224C1604.24 708.134 1603.76 707.6 1603.05 707.07C1602.37 706.543 1601.58 705.809 1601.29 705.439L1600.77 704.803L1601.91 704.118C1605.22 702.152 1609.03 701.679 1611.97 702.849ZM1436.13 688.22C1436.9 690.622 1436.71 692.989 1435.49 696.837C1434.67 699.368 1432.24 702.077 1430.56 702.345C1430.1 702.403 1429.82 702.206 1429.17 701.313C1428.18 699.972 1425.67 697.488 1425.45 697.665C1425.37 697.732 1425.52 698.04 1425.79 698.383C1426.42 699.152 1427.47 702.095 1427.56 703.332C1427.66 704.693 1427.18 705.313 1426.11 705.218C1424.99 705.119 1423.73 703.435 1422.48 700.301C1421.94 699 1421.48 697.976 1421.42 698.02C1421.35 698.063 1421.55 699.211 1421.88 700.543C1422.61 703.678 1422.7 705.161 1422.15 705.113C1421.33 705.04 1418.77 700.782 1417.87 697.926C1417.73 697.471 1417.48 697.154 1417.33 697.239C1416.88 697.445 1417.04 700.703 1417.62 703.212C1418.3 706.073 1418.27 706.39 1417.46 706.514C1416.18 706.72 1412.3 705.491 1409.71 704.082C1408.51 703.435 1408.26 703.167 1407.88 702.101C1407.61 701.438 1407.33 700.873 1407.24 700.84C1406.86 700.806 1406.88 702.921 1407.24 703.96C1407.6 704.951 1409.11 706.584 1410.72 707.71C1411.55 708.299 1411.54 708.667 1410.78 709.288C1410.29 709.687 1409.99 709.733 1408.93 709.516C1406.26 709.009 1402.93 706.895 1402.36 705.395C1402.2 704.938 1401.98 704.551 1401.88 704.542C1401.56 704.513 1401.82 706.06 1402.33 707.456C1403.53 710.634 1406.91 712.433 1411.39 712.266C1414.12 712.164 1415.01 711.998 1417.74 710.986C1420.07 710.113 1421.8 709.922 1421.75 710.531C1421.71 710.897 1418.97 711.784 1415.02 712.76C1412.71 713.317 1412 713.377 1410.08 713.231C1407.94 713.04 1407.74 712.974 1405.78 711.817C1403.7 710.625 1402.19 709.016 1401.27 707.166C1400.72 706.036 1400.45 706.233 1400.93 707.405C1401.16 707.942 1401.97 709.194 1402.74 710.147C1404.98 712.974 1409.54 715.394 1414.37 716.339L1415.93 716.649L1415.49 717.323C1414.74 718.46 1413.33 719.613 1412.24 719.983C1409.68 720.861 1407.64 719.771 1403.76 715.421L1402.09 713.529L1402.11 714.956C1402.14 716.629 1402.68 718.79 1403.6 721.133C1404.81 724.189 1404.9 726.015 1403.89 728.063C1403.06 729.734 1401.57 731.297 1399.74 732.363C1397.49 733.687 1396.28 733.997 1394.04 733.798C1391.69 733.615 1390.33 733.101 1388.33 731.596C1387.48 730.956 1386.7 730.493 1386.61 730.584C1386.53 730.65 1387.02 731.381 1387.72 732.23C1390.94 736.104 1393.97 740.525 1393.62 740.813C1393.37 741.012 1390.29 739.191 1387.72 737.317C1386.38 736.337 1384.87 734.95 1383.94 733.835C1383.1 732.827 1382.34 732.047 1382.26 732.089C1382.01 732.313 1384.72 736.313 1386.14 737.84C1386.92 738.695 1388.49 740.038 1389.59 740.849C1391.62 742.331 1392.79 743.836 1392.54 744.674C1392.33 745.416 1387.88 741.237 1386.29 738.786C1385.95 738.29 1385.63 737.942 1385.58 737.986C1385.5 738.053 1385.59 738.946 1385.75 739.968C1386.18 742.512 1385.99 743.232 1385.39 741.286C1384.65 738.837 1381.57 731.635 1381.46 732.043C1381.36 732.329 1382.47 736.187 1383.76 740.085C1383.98 740.695 1383.89 740.859 1383.01 741.739C1382.46 742.28 1381.6 742.892 1381.1 743.118C1379.15 743.927 1378.49 742.615 1378.35 737.712C1378.26 735.321 1378.26 735.297 1377.98 736.451C1377.56 738.38 1376.44 739.878 1374.75 740.809C1373.62 741.421 1372.04 741.428 1370.98 740.843C1369.79 740.172 1368.64 737.293 1368.48 734.576C1368.46 733.935 1368.28 733.109 1368.14 732.752C1367.72 731.805 1367.05 729.412 1367.16 729.299C1367.24 729.257 1367.53 729.356 1367.85 729.507C1369.26 730.247 1372.49 730.951 1375.85 731.25C1381.06 731.737 1381.44 731.673 1382.69 730.334C1383.25 729.72 1383.77 729.225 1383.82 729.23C1383.89 729.236 1384.35 729.498 1384.87 729.815C1385.4 730.132 1385.93 730.4 1386.08 730.413C1386.52 730.453 1386.41 729.803 1385.81 729.161C1385.12 728.412 1385.13 728.093 1385.83 727.565C1386.36 727.17 1386.41 727.175 1387.05 727.625C1387.43 727.879 1387.94 728.121 1388.19 728.143C1388.56 728.176 1388.52 728.05 1388 727.414L1387.34 726.618L1388.52 725.543C1390.08 724.085 1393.61 718.304 1395.45 714.168C1396.27 712.348 1397.57 709.859 1398.35 708.651C1400.74 705.005 1405.66 699.324 1406.24 699.596C1406.38 699.683 1407.09 698.836 1407.81 697.721C1410.38 693.747 1413.3 691.377 1417.82 689.641C1420.42 688.643 1421.09 688.53 1420.75 689.189C1420.63 689.423 1420.45 689.776 1420.36 689.964C1420.26 690.153 1420.74 689.9 1421.43 689.421C1422.59 688.59 1423.31 688.359 1425.6 688.095C1425.98 688.055 1426.37 687.82 1426.47 687.583C1426.67 686.987 1429.83 686.751 1433.9 687.039L1435.83 687.16L1436.13 688.22ZM1437.55 688.1C1439.72 690.872 1439.91 695.484 1438.09 700.139C1436.96 702.987 1434.69 705.833 1432.66 706.955C1431.87 707.4 1430.83 708.046 1430.37 708.398C1429.3 709.212 1427.67 710.025 1427.19 709.983C1426.45 709.917 1426.9 709.318 1427.91 708.966C1428.69 708.715 1429.31 708.205 1430.32 706.993C1431.78 705.231 1432.3 704.761 1433.63 703.945C1435.22 702.981 1436.94 699.545 1437.5 696.254C1437.99 693.372 1437.7 691.209 1436.42 687.508C1436.23 686.901 1436.9 687.256 1437.55 688.1ZM1442.39 687.891C1443.97 688.179 1444.09 688.263 1445.21 689.541C1445.85 690.262 1446.6 691.434 1446.89 692.099C1447.61 693.859 1447.24 698.027 1446.03 701.483C1445.25 703.821 1443.79 707.181 1443.02 708.489C1442.49 709.376 1442.17 709.274 1442.49 708.319C1442.83 707.268 1443.7 697.148 1443.61 695.395C1443.55 694.628 1443.41 693.977 1443.28 693.966C1443.13 693.952 1443.1 694.048 1443.16 694.201C1443.33 694.535 1442.44 698.977 1441.75 701.078C1441.47 701.987 1440.58 703.8 1439.78 705.081C1438.32 707.408 1435.79 710.5 1435.31 710.458C1435.19 710.447 1435.49 709.59 1435.98 708.577C1438.05 704.263 1439.95 697.896 1440.28 694.092C1440.47 691.971 1440.1 689.604 1439.39 688.288C1439.22 687.978 1439.1 687.648 1439.1 687.574C1439.12 687.404 1440.36 687.539 1442.39 687.891ZM1514.09 695.805C1513.93 696.479 1513.68 697.095 1513.55 697.157C1513.28 697.306 1513.6 695.442 1513.99 694.666C1514.33 694.008 1514.37 694.626 1514.09 695.805ZM1452.87 689.534C1456.7 689.947 1461.18 690.911 1464.72 692.061C1465.6 692.335 1466.76 692.61 1467.28 692.656C1467.83 692.705 1468.86 693.017 1469.58 693.352C1470.71 693.895 1471.09 694.247 1472.17 695.916C1472.85 696.984 1473.48 697.875 1473.55 697.881C1473.6 697.886 1473.65 697.325 1473.61 696.658C1473.57 695.967 1473.62 695.43 1473.72 695.439C1474.19 695.481 1475.46 696.7 1476.24 697.874C1477.17 699.235 1477.5 699.264 1477.14 697.905C1477.03 697.478 1476.96 697.079 1477.01 697.059C1477.18 696.901 1481.19 699.469 1481.96 700.201C1483.79 701.96 1486.12 704.845 1486.96 706.419C1491.07 714.131 1493.11 717.506 1496.55 722.26C1499.53 726.357 1500.33 729.156 1499.34 731.893C1498.8 733.418 1498.42 733.999 1497.95 733.957C1497.52 733.919 1487.67 726.066 1485.59 724.088C1481.35 720.099 1477.54 714.896 1477.07 712.495C1476.99 711.997 1477.05 709.962 1477.22 708.012C1477.57 704.038 1477.6 701.436 1477.28 701.407C1477.16 701.396 1477.03 701.68 1476.97 702.043C1476.94 702.433 1476.79 702.936 1476.64 703.194C1476.46 703.522 1476.41 703.247 1476.5 702.223C1476.66 700.148 1476.26 700.776 1475.51 703.781C1475.16 705.224 1474.68 706.656 1474.48 706.957C1474.1 707.538 1474.08 707.463 1473.91 705.727C1473.66 702.83 1472 697.498 1471.35 697.441C1471.2 697.427 1471.14 697.594 1471.19 697.82C1471.28 698.048 1471.39 698.746 1471.51 699.347C1471.92 701.864 1469.96 710.586 1469.01 710.502C1468.91 710.493 1468.7 709.835 1468.49 709.03C1468.05 707.173 1466.32 702.645 1464.69 698.987C1463.26 695.837 1463.28 695.864 1463.12 695.997C1463.06 696.041 1463.36 697.001 1463.81 698.122C1465.49 702.424 1465.97 705.784 1465.44 710.037C1465.13 712.663 1464.94 713.432 1464.4 714.392C1463.51 715.911 1462.99 716.356 1462.15 716.281C1460.95 716.175 1460.65 715.583 1459.28 710.67C1458.99 709.637 1458.64 708.868 1458.46 708.901C1458.3 708.937 1458.05 709.48 1457.9 710.08C1457.42 712.102 1455.81 713.261 1453.74 713.077C1451.82 712.907 1450.07 711.13 1450.22 709.472C1450.32 708.351 1449.88 703.716 1449.3 700.028C1449.03 698.236 1448.71 695.922 1448.61 694.831C1448.35 692.622 1447.85 690.931 1447.05 689.705C1446.76 689.262 1446.53 688.799 1446.54 688.726C1446.54 688.628 1447.07 688.675 1447.73 688.808C1448.37 688.963 1450.68 689.29 1452.87 689.534ZM1558.89 699.021C1557.47 699.779 1555.32 701.628 1554.08 703.139C1552.02 705.66 1549.7 710.319 1548.76 713.823C1548.12 716.247 1547.74 716.509 1548.09 714.279C1548.37 712.608 1549.19 709.488 1549.71 708.231C1549.81 707.945 1549.77 707.843 1549.58 707.925C1549.43 708.009 1549.3 707.998 1549.31 707.925C1549.36 707.389 1550.47 704.711 1551.07 703.61C1551.49 702.885 1551.83 702.105 1551.85 701.885C1551.93 701.081 1555.55 699.265 1557.9 698.835C1559.46 698.555 1559.66 698.597 1558.89 699.021ZM1568.33 700.178C1572.22 701.064 1575.73 701.966 1575.89 702.176C1575.96 702.256 1575.4 702.821 1574.64 703.466C1572.74 705.14 1571.12 707.503 1569.65 710.763C1568.96 712.299 1567.88 714.562 1567.27 715.786L1566.12 718.018L1564.46 718.288C1562.4 718.621 1559.78 718.413 1558.15 717.826C1557.44 717.567 1556.47 717.259 1555.95 717.115C1555.17 716.922 1554.96 716.732 1554.72 716.023C1554.15 714.252 1555 710.249 1556.92 705.947C1557.36 704.93 1557.69 704.05 1557.65 703.972C1557.26 703.544 1554.13 707.641 1552.33 710.945C1551.64 712.211 1550.87 713.543 1550.66 713.942C1550.22 714.616 1550.22 714.616 1550.48 713.435C1551.17 710.13 1553.09 706.098 1555.06 703.718C1556.07 702.529 1558.15 700.798 1559.48 700.056C1560.11 699.719 1560.62 699.273 1560.64 699.054C1560.68 698.615 1562.49 698.874 1568.33 700.178ZM1501.09 697.403C1501.22 698.815 1500.93 699.772 1500.2 700.419C1499.57 700.978 1498.94 701.02 1498.55 700.568C1498.37 700.355 1498.48 699.948 1499.01 699.061C1499.45 698.338 1499.76 697.432 1499.83 696.676C1499.93 695.506 1499.93 695.506 1500.45 695.896C1500.8 696.173 1501.03 696.709 1501.09 697.403ZM1503.26 697.276C1504.31 698.475 1504.68 699.122 1504.89 700.148C1505.05 700.9 1505.09 701.567 1505.01 701.682C1504.75 702.052 1504.14 701.851 1504.18 701.387C1504.28 700.217 1503.77 698.918 1502.62 697.513C1501.93 696.691 1501.4 695.931 1501.41 695.858C1501.45 695.419 1502.03 695.865 1503.26 697.276ZM1581.49 703.877C1583.88 704.679 1586.29 705.508 1586.88 705.707L1587.92 706.095L1586.53 707.347C1583.83 709.761 1582.1 713.343 1580.53 719.764C1580.21 721.063 1579.91 722.191 1579.83 722.233C1579.78 722.278 1579.09 722.167 1578.3 721.95C1577.49 721.73 1576.03 721.551 1574.92 721.527C1572.64 721.521 1571.94 721.14 1571.45 719.646C1570.94 718.077 1571.68 713.597 1573.12 709.548C1573.79 707.715 1574.33 706.166 1574.33 706.117C1574.34 706.068 1574.15 706.15 1573.94 706.303C1573.67 706.476 1573.55 706.489 1573.56 706.319C1573.59 706.051 1576.13 703.451 1576.57 703.22C1576.73 703.16 1576.8 702.945 1576.72 702.741C1576.59 702.214 1576.64 702.243 1581.49 703.877ZM1548.14 702.367C1547.67 703.136 1546.91 703.559 1546.59 703.187C1546.52 703.107 1546.91 702.651 1547.48 702.185C1548.03 701.717 1548.51 701.391 1548.55 701.445C1548.6 701.498 1548.41 701.899 1548.14 702.367ZM1502.79 700.109C1502.62 701.937 1502.14 702.877 1501.39 702.811C1500.67 702.746 1500.66 702.795 1501.4 701.558C1501.73 700.949 1502.05 699.969 1502.12 699.189C1502.25 697.948 1502.28 697.901 1502.57 698.345C1502.77 698.657 1502.85 699.402 1502.79 700.109ZM1484.69 697.421C1485.55 697.62 1486.38 697.915 1486.52 698.05C1486.66 698.185 1488.62 699.612 1490.88 701.239C1494.94 704.155 1494.99 704.208 1496.28 706.338C1499.72 712.048 1501.62 716.665 1502.53 721.439C1502.85 723.212 1503.1 724.856 1503.08 725.051C1503.06 725.27 1502.47 723.792 1501.79 721.767C1500.44 717.789 1499.07 714.498 1497.8 712.149C1496.72 710.185 1493.03 705.877 1491.16 704.384C1489.56 703.112 1488.99 703.036 1489.92 704.2C1493.46 708.741 1494.42 710.301 1494.87 712.306C1495.16 713.561 1495.3 716.03 1495.07 716.01C1494.97 716.001 1494.66 715.507 1494.37 714.891C1492.8 711.655 1483.84 699.901 1481.77 698.366C1481.04 697.834 1480.46 697.315 1480.44 697.216C1480.46 697.045 1481.32 696.949 1482.47 697.002C1482.82 697.009 1483.81 697.195 1484.69 697.421ZM1543.96 703.125C1543.95 703.247 1544.69 703.706 1545.62 704.158C1546.54 704.608 1547.35 705.049 1547.42 705.177C1547.48 705.281 1546.73 706.664 1545.74 708.223C1543.22 712.323 1542.95 713.11 1542.49 718.5C1542.19 721.938 1542.16 723.409 1542.38 724.633C1542.52 725.53 1542.68 726.528 1542.75 726.878C1542.83 727.376 1542.62 727.21 1541.7 726.047C1538.89 722.554 1536.93 718.915 1536.28 716.008L1535.98 714.654L1535.54 715.917C1535.1 717.229 1534.74 722.382 1535 723.364C1535.31 724.399 1534.65 723.333 1533.8 721.365L1532.94 719.397L1533.56 718.444C1534.08 717.63 1534.13 717.364 1533.97 716.638C1533.86 716.185 1533.6 715.647 1533.42 715.483C1533.14 715.188 1533.08 715.354 1532.97 716.525C1532.83 718.109 1532.49 718.276 1532.16 716.895C1532.06 716.394 1531.62 715.372 1531.21 714.623C1530.26 712.893 1528.45 711.725 1526.79 711.749C1525.76 711.781 1525.71 711.727 1524.73 710.338L1523.76 708.9L1525.29 707.734C1526.15 707.073 1526.95 706.554 1527.08 706.565C1527.18 706.574 1527.65 707.157 1528.07 707.857C1529.06 709.444 1530.34 710.787 1530.92 710.838C1531.14 710.858 1531.86 710.676 1532.51 710.463C1533.16 710.226 1534.15 710.068 1534.7 710.093C1536.23 710.154 1539.3 708.658 1542.07 706.545C1543.82 705.202 1544.37 704.661 1544.28 704.333C1544.11 703.728 1543.76 703.894 1540.86 706.02C1539.57 706.962 1538.03 707.956 1537.41 708.195L1536.31 708.663L1537.78 707.614C1538.59 707.047 1540.23 705.743 1541.43 704.768C1543.57 702.968 1544 702.686 1543.96 703.125ZM1548.73 706.006C1547.99 708.029 1547.95 708.812 1548.62 708.625C1549.13 708.499 1549.1 708.594 1548.08 710.716C1547.59 711.704 1546.76 713.768 1546.25 715.27C1544.97 718.941 1544.72 718.551 1545.16 713.626C1545.5 710.118 1545.59 709.683 1546.29 708.222C1547.02 706.788 1549.17 703.785 1549.36 703.973C1549.38 704.024 1549.1 704.933 1548.73 706.006ZM1509.25 703.656C1510.56 705.05 1511.61 706.838 1512.09 708.478C1512.49 709.914 1513.53 711.26 1514.72 711.931C1515.25 712.223 1516.32 714.53 1516.26 715.237C1516.25 715.359 1515.67 714.595 1514.95 713.549C1514.24 712.503 1512.78 710.555 1511.74 709.258C1509.66 706.69 1507.34 702.601 1507.96 702.657C1508.16 702.674 1508.75 703.12 1509.25 703.656ZM1508.17 704.813C1508.55 705.633 1509.45 707.408 1510.18 708.751C1511.69 711.563 1512.09 712.705 1512.18 714.507C1512.27 716.628 1511.91 716.743 1510.74 714.87C1510.17 713.984 1509.57 712.849 1509.36 712.364C1508.92 711.342 1507.16 708.532 1505.51 706.247C1504.43 704.752 1504.24 704.071 1504.86 703.929C1505.65 703.754 1507.21 706.3 1507.88 708.891C1507.94 709.142 1508.07 709.326 1508.13 709.257C1508.21 709.19 1508.06 708.317 1507.83 707.289C1507.37 705.356 1507.12 703.319 1507.35 703.339C1507.42 703.346 1507.79 704.018 1508.17 704.813ZM1505.06 707.068C1505.25 707.478 1505.27 707.823 1505.14 707.812C1505.02 707.801 1504.82 707.44 1504.71 707.037C1504.62 706.611 1504.57 706.288 1504.62 706.292C1504.7 706.299 1504.87 706.633 1505.06 707.068ZM1504.22 707.484C1505.21 708.482 1507.72 712.98 1508.56 715.168C1509.06 716.564 1509.12 716.987 1508.88 718.047C1508.74 718.747 1508.42 720.365 1508.15 721.693C1507.68 724.182 1507.46 724.727 1507.29 723.778C1506.96 721.832 1504.59 717.15 1500.99 711.35C1500.24 710.129 1499.95 709.391 1500 708.855C1500.21 706.539 1502.56 705.765 1504.22 707.484ZM1528.72 713.199C1529.08 713.427 1529.5 713.784 1529.66 714.019C1529.9 714.36 1529.8 714.351 1528.78 713.941C1525.53 712.669 1522.71 713.942 1521.72 717.123C1521.34 718.342 1521.3 718.413 1521.19 717.763C1520.9 716.19 1522.64 713.838 1524.72 712.991C1525.84 712.525 1527.79 712.625 1528.72 713.199ZM1433.08 708.22C1432.9 708.278 1432.72 708.508 1432.7 708.728C1432.6 709.922 1430.59 711.022 1428.82 710.865L1427.88 710.781L1429.05 710.247C1429.71 709.961 1430.51 709.417 1430.84 709.03C1431.41 708.367 1433 707.722 1433.27 708.016C1433.34 708.096 1433.23 708.185 1433.08 708.22ZM1527.01 716.929C1527.36 717.525 1527.37 718.804 1527.01 719.755C1526.78 720.373 1526.13 720.389 1524.92 719.864C1524.22 719.556 1524.17 719.454 1524.27 718.381C1524.4 716.943 1524.99 716.209 1525.96 716.295C1526.41 716.335 1526.79 716.566 1527.01 716.929ZM1529.19 720.637C1528.9 720.807 1528.51 720.92 1528.32 720.903C1528.12 720.885 1528.26 720.725 1528.68 720.517C1529.07 720.331 1529.39 720.065 1529.43 719.921C1529.44 719.799 1529.52 719.83 1529.58 720.007C1529.64 720.184 1529.46 720.488 1529.19 720.637ZM1529.35 722.002C1528.45 722.806 1524.59 723.25 1524.65 722.543C1524.7 722.007 1525.61 721.694 1526.86 721.781C1527.56 721.818 1528.47 721.751 1528.88 721.616C1529.84 721.308 1530 721.421 1529.35 722.002ZM1530.47 723.551C1530.57 724.69 1530 725.721 1529 726.246L1528.31 726.579L1528.62 725.967C1529.05 725.12 1528.93 725.06 1527.85 725.555C1527.36 725.781 1526.43 725.994 1525.8 726.012C1524.84 726.049 1524.58 725.976 1524.17 725.498C1523.69 724.939 1523.59 724.292 1523.99 723.835C1524.1 723.698 1524.99 723.605 1525.99 723.62C1527.32 723.64 1528.08 723.511 1528.92 723.119C1529.55 722.806 1530.13 722.587 1530.23 722.571C1530.3 722.578 1530.41 723.03 1530.47 723.551ZM1516.35 722.469C1516.81 723.174 1516.87 725.071 1516.42 725.031C1516.07 725 1513.9 722.055 1514.07 721.825C1514.15 721.734 1514.58 721.674 1515.06 721.716C1515.66 721.769 1516.01 721.973 1516.35 722.469ZM1520.47 724.949C1520.35 725.797 1520.13 726.589 1519.99 726.724C1519.85 726.859 1519.62 728.043 1519.48 729.381C1519.2 731.593 1519.23 731.915 1519.75 733.313C1520.28 734.712 1520.29 734.909 1519.92 736.006C1519.21 738.08 1519.48 741.177 1520.49 742.593C1520.65 742.803 1520.82 743.335 1520.86 743.756C1520.97 744.479 1520.86 744.592 1519.7 745.201C1519.02 745.583 1518.18 745.902 1517.88 745.949C1517.55 746.017 1517.28 746.142 1517.27 746.263C1517.22 746.824 1519.59 746.445 1520.48 745.762C1520.97 745.387 1521.15 745.354 1521.2 745.629C1521.86 748.047 1522.8 751.595 1522.9 751.923C1523.02 752.278 1522.74 752.326 1521.06 752.324C1519.98 752.302 1518.73 752.192 1518.31 752.081C1517.63 751.873 1517.54 751.766 1517.6 751.035C1517.65 750.474 1517.43 749.841 1516.9 749.007C1515.89 747.467 1515.48 746.153 1515.72 745.364C1515.97 744.575 1515.67 740.814 1515.26 739.548C1514.98 738.762 1514.98 738.148 1515.25 736.796C1515.45 735.707 1515.51 734.46 1515.39 733.491C1515.24 732.101 1515.27 731.809 1515.7 731.184C1515.96 730.765 1516.21 729.952 1516.26 729.366C1516.33 728.611 1516.52 728.185 1516.87 727.921C1517.38 727.549 1517.4 727.551 1517.5 728.493C1517.63 729.832 1516.95 737.757 1516.56 739.049C1516.11 740.681 1516.73 739.998 1517.39 738.141C1518.13 736.093 1518.4 733.045 1518.11 729.776C1517.9 727.276 1517.92 727.057 1518.37 726.285C1518.63 725.842 1518.98 725.062 1519.1 724.532C1519.33 723.668 1519.57 723.468 1520.43 723.446C1520.58 723.435 1520.6 724.051 1520.47 724.949ZM1514.66 726.153C1514.82 726.364 1514.69 726.377 1514.28 726.217C1513.94 726.113 1513.52 726.002 1513.37 725.989C1513.2 725.974 1513.06 725.839 1513.07 725.692C1513.1 725.375 1514.33 725.73 1514.66 726.153ZM1529.48 729.016C1529.54 730.57 1529.22 731.893 1528.57 732.793C1528.19 733.325 1528.01 733.358 1527.25 733.192C1525.7 732.833 1524.93 732.151 1524.95 731.145C1524.94 730.382 1525.12 730.079 1525.96 729.318C1526.92 728.445 1528.44 727.671 1529.15 727.66C1529.32 727.651 1529.45 728.203 1529.48 729.016ZM1514.68 727.653C1515.78 728.538 1515.96 729.389 1515.33 730.783C1514.4 732.764 1514.08 743.817 1514.87 745.608C1515.02 745.916 1515.12 746.49 1515.08 746.904C1515.07 747.297 1515.41 748.604 1515.81 749.77C1516.55 751.826 1516.58 752.369 1516 753.546C1515.6 754.347 1516.33 754.018 1516.89 753.134C1517.21 752.671 1517.45 752.447 1517.46 752.644C1517.44 752.864 1517.12 753.4 1516.73 753.857C1516.13 754.566 1515.9 754.692 1515.33 754.544C1514.96 754.462 1514.18 754.269 1513.59 754.143C1512.11 753.815 1510.76 752.885 1510.46 751.974C1510.13 750.912 1510.82 749.327 1512.43 747.627L1513.76 746.197L1513.08 745.646C1512.17 744.877 1511.19 742.947 1510.71 740.987C1510.3 739.157 1510.32 734.686 1510.79 732.787L1511.09 731.634L1512.17 731.854C1512.77 731.956 1513.27 731.975 1513.28 731.854C1513.31 731.561 1512.47 731.069 1511.87 731.016C1511.25 730.961 1511.25 730.666 1511.85 729.27C1512.94 726.663 1513.23 726.492 1514.68 727.653ZM1479.5 724.456C1479.94 724.618 1480.42 724.931 1480.57 725.141C1480.7 725.374 1481.8 726.061 1482.97 726.681C1485.06 727.776 1487.43 729.411 1488.42 730.408C1492.03 734.12 1492.26 734.632 1492.09 738.032C1491.94 741.09 1491.45 742.373 1489.59 744.641C1486.78 748.052 1483.22 749.039 1480.14 747.267C1479.5 746.89 1477.64 745.399 1476.06 743.956C1474.49 742.489 1472.24 740.594 1471.09 739.73C1469.91 738.864 1468.48 737.729 1467.89 737.26C1464.97 734.862 1463.37 734.204 1459.68 733.901L1456.89 733.678L1457.38 732.959C1458.24 731.709 1461.61 729.133 1463.68 728.114C1467.15 726.431 1472.36 725.173 1476.51 725.051C1477.4 725.006 1477.76 724.891 1477.89 724.534C1478.11 724.013 1478.34 724.009 1479.5 724.456ZM1554.31 733.678C1554.3 733.751 1553.89 734.108 1553.43 734.46C1552.57 735.072 1549.38 735.968 1548.82 735.722C1548.65 735.658 1549.36 735.106 1550.37 734.483C1551.9 733.563 1552.37 733.408 1553.27 733.463C1553.84 733.514 1554.31 733.605 1554.31 733.678ZM1529.27 735.656C1529.28 736.321 1529.58 737.797 1529.93 738.934C1530.28 740.071 1530.53 741.248 1530.5 741.516C1530.48 741.784 1530.67 742.711 1530.95 743.546C1531.53 745.268 1531.73 747.276 1531.3 747.239C1530.9 747.203 1529.71 745.377 1529.16 743.977C1528.4 741.969 1527.58 737.645 1527.7 736.28C1527.81 735.036 1528.42 734.107 1528.98 734.329C1529.13 734.391 1529.25 734.992 1529.27 735.656ZM1546.19 739.641C1544.21 741.284 1541.82 743.037 1540.87 743.567C1539.92 744.072 1538.62 744.866 1537.95 745.298C1537.29 745.731 1538.05 745.012 1539.63 743.654C1541.23 742.321 1543.04 740.663 1543.7 739.985C1544.34 739.304 1545.46 738.225 1546.17 737.6C1547.39 736.553 1547.58 736.471 1548.65 736.567L1549.8 736.668L1546.19 739.641ZM1385.43 729.249C1386.04 730.016 1385.88 730.052 1384.88 729.447C1384.5 729.192 1384.25 728.9 1384.34 728.784C1384.62 728.441 1384.86 728.536 1385.43 729.249ZM1463.25 735.815C1465.21 736.407 1466.1 737.052 1467.75 739.115C1469.22 740.941 1470.87 743.593 1470.66 743.771C1470.6 743.815 1470.2 743.558 1469.78 743.177C1467.4 741.074 1461.69 738.626 1457.32 737.82C1454.95 737.388 1454.96 737.782 1457.31 738.531C1462.87 740.328 1467.63 744.166 1468.63 747.67C1468.86 748.476 1469.02 749.179 1468.97 749.223C1468.94 749.27 1468.42 748.536 1467.83 747.599C1465.96 744.583 1462.08 741.412 1459.52 740.743C1458.44 740.475 1454.99 740.635 1454.96 740.952C1454.95 741.049 1455.59 741.156 1456.4 741.153C1458.18 741.164 1460.24 741.986 1462.38 743.601C1468.41 748.093 1468.15 755.318 1461.73 762.316C1458.64 765.654 1454.23 768.383 1451.6 768.543C1450.39 768.632 1447.99 767.657 1446.34 766.43C1442.93 763.866 1441.06 758.565 1442.17 754.609C1443.16 751.084 1446.59 745.787 1449.42 743.36C1451.62 741.491 1450.29 741.79 1447.29 743.834C1445.61 744.987 1442.96 747.7 1441.91 749.351C1441.03 750.772 1439.92 753.328 1440.1 753.565C1440.17 753.62 1440.56 753.188 1440.99 752.563C1442.03 751.107 1444.28 748.358 1444.43 748.371C1444.5 748.378 1444.36 748.635 1444.1 748.957C1442.38 751.089 1439.82 755.039 1438.49 757.599C1437.7 759.126 1437.62 759.39 1437.3 763.342C1436.9 767.827 1436.99 768.572 1438.37 771.619C1439.23 773.539 1441.93 776.53 1443.7 777.547C1448.53 780.261 1453.79 779.598 1459.3 775.517C1460.89 774.331 1462.46 773.586 1462.71 773.878C1462.78 773.958 1462.61 774.386 1462.37 774.856C1461.77 776.006 1459.45 777.447 1456.52 778.538C1453.5 779.671 1451.84 779.99 1449.24 779.931C1445.6 779.854 1442.92 778.706 1440.24 776.085C1438.41 774.301 1437.05 772.14 1435.86 769.135C1434.73 766.259 1434.45 766.283 1434.46 769.257C1434.44 771.516 1435.1 774.228 1436.14 776.385C1437.27 778.672 1440.09 782.018 1442.48 783.95C1444.73 785.772 1444.67 785.546 1443.71 788.212L1443.37 789.116L1441.97 788.82C1438.96 788.184 1433.84 785.567 1430.26 782.891C1429.56 782.337 1428.94 781.987 1428.85 782.102C1428.6 782.423 1429.83 785.26 1430.89 786.853C1432.33 788.996 1434.6 791.458 1437.01 793.466L1439.05 795.145L1438.49 796.373C1437.08 799.468 1436.35 799.771 1435.4 797.697C1434.78 796.265 1434.49 796.092 1434.41 797.043C1434.24 798.896 1431.91 800.827 1430.07 800.663C1428.3 800.506 1425.63 797.763 1423.35 793.727C1422.33 791.917 1422.21 791.808 1421.95 792.251C1421.77 792.579 1421.66 793.798 1421.65 795.616L1421.65 798.442L1422.69 800.279C1423.26 801.263 1424.27 802.63 1424.91 803.301L1426.09 804.487L1425.23 804.263C1423.66 803.829 1422.35 803 1421.93 802.127C1421.52 801.329 1420.83 797.46 1420.65 794.962C1420.5 792.959 1420.24 793.918 1420.02 797.314C1419.87 799.783 1419.71 800.727 1419.52 800.709C1419.37 800.696 1419.22 800.929 1419.22 801.223C1419.21 802.403 1419.16 802.471 1418.12 802.232C1417.46 802.099 1416.84 801.7 1416.24 801.082C1414.5 799.256 1413.58 799.077 1415.21 800.867C1416.12 801.858 1418.35 805.397 1418.31 805.787C1418.3 805.909 1417.75 805.614 1417.09 805.162C1413.68 802.771 1413.01 802.736 1415.69 805.087C1418.34 807.46 1420.54 809.867 1420.95 810.813C1421.14 811.296 1421.23 811.673 1421.13 811.664C1420.73 811.629 1414.42 806.891 1413.29 805.783C1412.67 805.163 1412.05 804.691 1411.97 804.782C1411.89 804.848 1412.21 805.467 1412.73 806.176C1413.24 806.86 1414.05 808.234 1414.57 809.214C1415.19 810.424 1415.84 811.293 1416.63 811.953C1417.76 812.839 1419.23 814.96 1419.2 815.596C1419.13 816.696 1416.71 815.007 1411.49 810.243C1411.18 809.97 1410.92 809.824 1410.91 809.946C1410.89 810.214 1413.53 814.994 1414.29 816.02C1414.89 816.909 1414.9 817.574 1414.3 818.724C1413.13 820.905 1410.02 822.178 1407.52 821.489C1405.29 820.873 1403.45 819.333 1401.66 816.57C1400.51 814.797 1399.82 813.188 1399.89 812.383C1399.94 811.92 1400.05 811.807 1400.33 811.956C1400.98 812.259 1405.38 808.324 1407.76 805.243C1410.08 802.28 1410.38 801.717 1409.77 801.515C1409.43 801.436 1409.5 801.245 1410.23 800.376C1411.41 798.933 1414.49 795.963 1414.54 796.237C1414.55 796.362 1414.64 797.106 1414.74 797.878C1414.94 799.615 1415.33 799.772 1415.47 798.188C1415.53 797.554 1415.85 796.403 1416.17 795.621L1416.78 794.2L1416.83 795.605C1416.86 796.394 1416.98 797.044 1417.08 797.053C1417.18 797.062 1417.4 796.246 1417.56 795.253C1417.75 794.262 1418.18 792.802 1418.53 792.021C1418.87 791.241 1419.13 790.33 1419.06 790.004C1418.95 789.233 1420.74 785.804 1424.05 780.471L1426.57 776.395L1426.5 778.06C1426.42 779.797 1426.86 780.205 1427.01 778.547C1427.22 776.182 1428.9 771.687 1430.8 768.391C1431.45 767.245 1431.71 766.605 1431.58 766.323C1431.43 766.04 1432.05 764.719 1433.62 761.835C1434.84 759.585 1436.2 757.052 1436.63 756.205C1438.04 753.308 1440.31 750.119 1443.09 747.097C1444.61 745.439 1446.34 743.258 1446.95 742.281C1448.23 740.108 1449.88 738.167 1451.89 736.478C1453.22 735.343 1453.43 735.263 1454.24 735.433C1455.06 735.604 1455.15 735.71 1455.19 736.402L1455.19 737.164L1455.49 736.379C1455.63 735.949 1455.86 735.553 1456.02 735.468C1457.02 734.992 1461.15 735.186 1463.25 735.815ZM1366.76 730.418C1366.92 731.17 1367.01 731.865 1366.95 731.934C1366.9 732.027 1365.96 732.043 1364.89 732.021C1362.13 731.924 1359.69 732.813 1357.39 734.746L1355.68 736.167L1355.08 735.5C1354.76 735.152 1354.29 734.545 1354.07 734.157L1353.66 733.481L1354.72 732.224C1357.06 729.385 1360.22 728.338 1364.86 728.874L1366.46 729.04L1366.76 730.418ZM1533.58 749.579C1531.72 751.846 1530.71 752.445 1528.36 752.654C1527.57 752.731 1526.38 752.649 1525.71 752.517C1524.45 752.233 1524.23 751.943 1523.69 750.077L1523.5 749.372L1524.26 750.201C1525.24 751.295 1527.54 752.015 1528.95 751.698C1530.3 751.401 1531.46 750.521 1532.23 749.189C1532.94 747.999 1533.69 747.475 1534.67 747.537C1535.16 747.582 1535.07 747.77 1533.58 749.579ZM1365.87 733.951C1365.89 734.543 1365.95 734.523 1363.46 734.794C1362.77 734.88 1361.1 735.346 1359.78 735.843C1357.57 736.679 1356.63 736.792 1356.68 736.182C1356.71 735.914 1358.85 734.63 1360.13 734.129C1361.69 733.506 1363.81 733.129 1364.85 733.271C1365.67 733.393 1365.86 733.508 1365.87 733.951ZM1353.87 736.695C1353.85 736.987 1353.53 736.885 1353.09 736.478C1352.85 736.285 1352.69 735.853 1352.72 735.536C1352.77 734.951 1352.77 734.951 1353.33 735.737C1353.62 736.156 1353.86 736.595 1353.87 736.695ZM1407.69 803.763C1405.4 806.926 1401.32 810.79 1400.37 810.706C1399.95 810.668 1400.2 810.347 1401.87 808.848C1402.98 807.866 1404.85 806.115 1406.03 804.967C1407.18 803.841 1408.17 802.896 1408.22 802.901C1408.27 802.905 1408.03 803.302 1407.69 803.763ZM1399.54 814.662C1400.27 816.397 1402.12 819.313 1403.51 820.911C1404.08 821.552 1404.54 822.232 1404.53 822.427C1404.48 822.963 1401.86 825.925 1400.42 827.075C1398.86 828.312 1397.25 829.201 1396.62 829.146C1395.97 829.088 1394.3 826.163 1393.82 824.228C1393.15 821.589 1393.79 818.918 1395.64 816.429C1396.19 815.666 1396.62 815.017 1396.55 814.961C1396.39 814.751 1394.72 816.666 1394 817.905C1391.93 821.505 1392.26 825.687 1394.93 829.536C1395.96 831.003 1396.15 831.635 1395.68 831.863C1395.31 832.052 1393.47 829.554 1392.92 828.08C1392.4 826.658 1391.88 823.417 1391.99 822.174C1392.27 819.348 1394.43 815.387 1397.15 812.754L1398.88 811.089L1398.91 812.173C1398.93 812.765 1399.21 813.895 1399.54 814.662ZM1406.88 824.822C1407.36 825.357 1407.73 825.906 1407.73 826.004C1407.72 826.101 1406.82 827.176 1405.76 828.36C1404.12 830.131 1403.63 830.53 1402.81 830.703C1401.61 830.94 1400.63 830.657 1400.34 829.992C1400.17 829.584 1400.43 829.238 1401.78 827.908C1402.69 827.031 1403.93 825.74 1404.57 825.06C1405.21 824.379 1405.79 823.816 1405.86 823.823C1405.96 823.832 1406.4 824.288 1406.88 824.822ZM1410.36 828.253L1411.01 828.875L1410.27 829.62C1408.62 831.218 1406.31 832.046 1405.88 831.197C1405.76 830.94 1409.22 827.561 1409.54 827.59C1409.64 827.623 1410.02 827.903 1410.36 828.253Z" fill="url(#paint3_linear_443_3415)"/>
<path d="M1494.43 619.948C1493.94 620.322 1494.31 620.748 1495.52 621.248C1496.56 621.66 1496.96 621.72 1497.2 621.521C1497.61 621.188 1497.15 620.681 1496.01 620.187C1495.07 619.783 1494.67 619.724 1494.43 619.948Z" fill="url(#paint4_linear_443_3415)"/>
<path d="M1493.49 610.76C1492.71 611.354 1492.54 611.634 1492.62 612.108C1492.85 613.431 1496.82 619.705 1497.64 620.024C1498.3 620.303 1499.25 619.749 1499.73 618.858C1500.06 618.224 1500.08 618.004 1499.78 617.215C1499.04 615.283 1495.43 610.122 1494.78 610.064C1494.61 610.049 1494.03 610.366 1493.49 610.76ZM1496.36 613.546C1497.94 615.873 1499.07 617.792 1499.05 618.036C1499.04 618.109 1498.84 618.386 1498.62 618.612C1498.07 619.201 1497.84 618.96 1495.49 615.188C1493.64 612.247 1493.58 612.07 1493.99 611.664C1494.26 611.443 1494.55 611.272 1494.65 611.281C1494.75 611.29 1495.51 612.316 1496.36 613.546Z" fill="url(#paint5_linear_443_3415)"/>
</g>
<defs>
<filter id="filter0_d_443_3415" x="1334.08" y="607.766" width="301.897" height="271.041" filterUnits="userSpaceOnUse" color-interpolation-filters="sRGB">
<feFlood flood-opacity="0" result="BackgroundImageFix"/>
<feColorMatrix in="SourceAlpha" type="matrix" values="0 0 0 0 0 0 0 0 0 0 0 0 0 0 0 0 0 0 127 0" result="hardAlpha"/>
<feOffset dy="4.5959"/>
<feGaussianBlur stdDeviation="3.44693"/>
<feComposite in2="hardAlpha" operator="out"/>
<feColorMatrix type="matrix" values="0 0 0 0 0.146788 0 0 0 0 0.370833 0 0 0 0 0.290515 0 0 0 0.69 0"/>
<feBlend mode="normal" in2="BackgroundImageFix" result="effect1_dropShadow_443_3415"/>
<feBlend mode="normal" in="SourceGraphic" in2="effect1_dropShadow_443_3415" result="shape"/>
</filter>
<linearGradient id="paint0_linear_443_3415" x1="56.9552" y1="120.393" x2="281.125" y2="122.045" gradientUnits="userSpaceOnUse">
<stop stop-color="#41A380"/>
<stop offset="1" stop-color="#63D5AC"/>
</linearGradient>
<linearGradient id="paint1_linear_443_3415" x1="1474.59" y1="852.675" x2="1475.8" y2="852.781" gradientUnits="userSpaceOnUse">
<stop stop-color="#41A380"/>
<stop offset="1" stop-color="#63D5AC"/>
</linearGradient>
<linearGradient id="paint2_linear_443_3415" x1="1472.43" y1="846.387" x2="1479.09" y2="846.914" gradientUnits="userSpaceOnUse">
<stop stop-color="#41A380"/>
<stop offset="1" stop-color="#63D5AC"/>
</linearGradient>
<linearGradient id="paint3_linear_443_3415" x1="1349.91" y1="742.918" x2="1620.68" y2="764.535" gradientUnits="userSpaceOnUse">
<stop stop-color="#41A380"/>
<stop offset="1" stop-color="#63D5AC"/>
</linearGradient>
<linearGradient id="paint4_linear_443_3415" x1="1494.18" y1="620.742" x2="1497.4" y2="620.982" gradientUnits="userSpaceOnUse">
<stop stop-color="#41A380"/>
<stop offset="1" stop-color="#63D5AC"/>
</linearGradient>
<linearGradient id="paint5_linear_443_3415" x1="1492.26" y1="615.69" x2="1500.23" y2="616.349" gradientUnits="userSpaceOnUse">
<stop stop-color="#41A380"/>
<stop offset="1" stop-color="#63D5AC"/>
</linearGradient>
</defs>
</svg>
