<svg width="1629" height="879" viewBox="0 0 1629 879" fill="none" xmlns="http://www.w3.org/2000/svg">
<path d="M1240.63 38.0158C1133.83 54.4158 961.8 26.1825 889.134 10.0158C882.634 8.59499 735.134 -6.98413 643.134 26.5159C551.134 60.0159 500.634 3.51579 285.134 1.01579C69.6337 -1.48421 128.634 293.516 97.6337 442.016C66.6337 590.516 198.134 697.516 285.134 700.016C372.134 702.516 417.134 752.516 581.634 838.516C746.134 924.516 1015.13 851.016 1099.63 804.016C1184.13 757.016 1412.63 791.016 1546.13 774.516C1679.63 758.016 1619.13 620.516 1579.13 494.516C1539.13 368.516 1635.63 207.516 1579.13 121.516C1522.63 35.5158 1374.13 17.5158 1240.63 38.0158Z" fill="#232424" stroke="#2C4B40"/>
<circle cx="167.955" cy="142.593" r="111" transform="rotate(-10.6165 167.955 142.593)" fill="url(#paint0_linear_455_4302)"/>
<path fill-rule="evenodd" clip-rule="evenodd" d="M59.6943 167.521L61.0657 174.838L61.5095 174.555C60.2055 176.068 58.9461 177.568 57.7324 179.051C48.2556 190.636 41.7909 201.001 38.5576 209.494C35.2485 218.185 35.8116 223.504 37.8581 226.504C39.9047 229.503 44.6511 231.968 53.951 232.057C63.0377 232.145 75.0468 229.907 89.2903 225.309C117.699 216.139 153.661 198.024 190.291 173.034C226.921 148.045 256.906 121.17 275.808 98.0638C285.284 86.479 291.749 76.1139 294.982 67.6215C298.291 58.9298 297.728 53.6114 295.682 50.6116C293.635 47.6118 288.889 45.1474 279.589 45.0578C270.502 44.9702 258.493 47.2083 244.25 51.8059C241.238 52.778 238.141 53.8507 234.968 55.0214L234.918 54.7526L229.531 50.6572C265.019 37.0375 292.15 34.7885 300.638 47.2302C315.496 69.0085 267.605 127.552 193.672 177.991C119.739 228.429 47.7592 251.663 32.9017 229.885C24.6761 217.828 35.6832 194.502 59.6943 167.521Z" fill="#318265"/>
<circle cx="117.796" cy="170.817" r="15.5" transform="rotate(-10.6165 117.796 170.817)" fill="#99ECC4"/>
<circle cx="100.845" cy="112.95" r="6.5" transform="rotate(-10.6165 100.845 112.95)" fill="#99ECC4"/>
<circle cx="134.262" cy="122.964" r="4.5" transform="rotate(-10.6165 134.262 122.964)" fill="#99ECC4"/>
<defs>
<linearGradient id="paint0_linear_455_4302" x1="56.9552" y1="120.393" x2="281.125" y2="122.045" gradientUnits="userSpaceOnUse">
<stop stop-color="#41A380"/>
<stop offset="1" stop-color="#63D5AC"/>
</linearGradient>
</defs>
</svg>
