<svg width="210" height="94" viewBox="0 0 210 94" fill="none" xmlns="http://www.w3.org/2000/svg">
<path d="M208.482 43.6519L208.982 43.6582L208.482 43.6519ZM0.850422 89.0102C0.641923 89.1912 0.619656 89.507 0.800712 89.7155L3.75109 93.1134C3.93215 93.3219 4.24794 93.3441 4.45646 93.1631C4.66497 92.982 4.68722 92.6662 4.50617 92.4577L1.88361 89.4374L4.9039 86.8149C5.1124 86.6338 5.13467 86.318 4.95361 86.1095C4.77256 85.901 4.45676 85.8788 4.24825 86.0598L0.850422 89.0102ZM195.504 4.30176C195.922 4.57585 195.922 4.57604 195.922 4.57614C195.922 4.57607 195.922 4.5761 195.922 4.57596C195.922 4.57569 195.922 4.5751 195.923 4.57421C195.924 4.57243 195.926 4.56943 195.929 4.56525C195.935 4.55691 195.943 4.54389 195.955 4.52657C195.979 4.49194 196.015 4.44019 196.063 4.37441C196.158 4.24273 196.299 4.05545 196.478 3.83706C196.839 3.39824 197.348 2.84349 197.95 2.3616C198.555 1.87679 199.226 1.48865 199.911 1.34369C200.578 1.20273 201.276 1.28626 201.99 1.7782C202.721 2.28199 203.501 3.23791 204.248 4.90892C204.994 6.57633 205.691 8.92139 206.278 12.1561C207.451 18.6256 208.169 28.5851 207.982 43.6457L208.982 43.6582C209.169 28.5716 208.452 18.5389 207.262 11.9776C206.667 8.69694 205.951 6.26702 205.161 4.5007C204.373 2.73799 203.496 1.60143 202.558 0.954831C201.602 0.296389 200.62 0.171639 199.704 0.365335C198.807 0.555035 197.994 1.04451 197.324 1.5811C196.651 2.12063 196.093 2.73108 195.706 3.20211C195.512 3.43864 195.358 3.64246 195.253 3.78814C195.2 3.86104 195.159 3.91953 195.131 3.96047C195.117 3.98095 195.106 3.99705 195.098 4.00837C195.095 4.01404 195.092 4.01851 195.09 4.02175C195.088 4.02336 195.088 4.02467 195.087 4.02566C195.087 4.02615 195.086 4.02666 195.086 4.02691C195.086 4.02733 195.086 4.02768 195.504 4.30176ZM207.982 43.6457C207.799 58.374 195.051 68.6591 175.603 75.7652C156.199 82.8552 130.364 86.684 104.511 88.6316C78.6672 90.5785 52.842 90.6431 33.4749 90.2205C23.7922 90.0092 15.7254 89.6763 10.0799 89.3961C7.25713 89.2561 5.03977 89.1292 3.52845 89.0374C2.77279 88.9915 2.19365 88.9544 1.80361 88.9287C1.60859 88.9159 1.46086 88.906 1.36197 88.8992C1.31252 88.8958 1.27528 88.8933 1.25045 88.8916C1.23804 88.8907 1.22874 88.89 1.22256 88.8896C1.21946 88.8894 1.21718 88.8892 1.21562 88.8891C1.21413 88.889 1.2134 88.889 1.17825 89.3877C1.1431 89.8865 1.14396 89.8865 1.14559 89.8867C1.1472 89.8868 1.14963 89.8869 1.15281 89.8872C1.15919 89.8876 1.16868 89.8883 1.18128 89.8892C1.2065 89.8909 1.24413 89.8935 1.29396 89.8969C1.39362 89.9037 1.54217 89.9137 1.73799 89.9266C2.12963 89.9523 2.71044 89.9896 3.46781 90.0356C4.98255 90.1276 7.20362 90.2547 10.0303 90.3949C15.6836 90.6754 23.7597 91.0088 33.4531 91.2203C52.8384 91.6432 78.6985 91.579 104.586 89.6288C130.466 87.6792 156.41 83.8425 175.946 76.7044C195.437 69.5825 208.79 59.0771 208.982 43.6582L207.982 43.6457Z" fill="url(#paint0_linear_36_35317)"/>
<defs>
<linearGradient id="paint0_linear_36_35317" x1="28.6781" y1="122.618" x2="212.146" y2="22.4209" gradientUnits="userSpaceOnUse">
<stop stop-color="#4EB691"/>
<stop offset="1" stop-color="#5ECCA5" stop-opacity="0"/>
</linearGradient>
</defs>
</svg>
