<svg width="375" height="4621" viewBox="0 0 375 4621" fill="none" xmlns="http://www.w3.org/2000/svg">
<g filter="url(#filter0_f_314_7501)">
<circle cx="283" cy="3541" r="71" fill="#0BC8A4"/>
</g>
<g filter="url(#filter1_f_314_7501)">
<circle cx="358" cy="297" r="129" fill="#0BC8A4"/>
</g>
<g filter="url(#filter2_f_314_7501)">
<circle cx="395.5" cy="4286.5" r="151.5" fill="#0BC8A4"/>
</g>
<g filter="url(#filter3_f_314_7501)">
<circle cy="2923" r="83" fill="#0BC8A4"/>
</g>
<circle cx="362.732" cy="625.677" r="16.2946" transform="rotate(28.3952 362.732 625.677)" fill="#99ECC4"/>
<path fill-rule="evenodd" clip-rule="evenodd" d="M377.913 630.25C378.165 630.261 378.412 630.269 378.654 630.275C380.84 630.331 382.579 630.214 383.777 629.947C384.379 629.813 384.787 629.654 385.037 629.501C385.217 629.39 385.266 629.315 385.276 629.294C385.276 629.27 385.264 629.182 385.15 629.005C384.991 628.758 384.691 628.439 384.206 628.058C383.239 627.301 381.721 626.445 379.725 625.553C375.749 623.775 370.07 621.938 363.636 620.479C357.203 619.02 351.287 618.228 346.933 618.116C344.747 618.06 343.008 618.178 341.81 618.444C341.208 618.578 340.8 618.737 340.55 618.891C340.37 619.001 340.322 619.076 340.311 619.097C340.311 619.121 340.323 619.21 340.437 619.387C340.597 619.633 340.896 619.953 341.382 620.333C342.348 621.091 343.866 621.947 345.862 622.839C346.058 622.927 346.259 623.015 346.464 623.103L346.344 624.139C341.75 622.194 339.021 620.264 339.335 618.876C339.923 616.285 350.902 616.566 363.858 619.504C376.813 622.442 386.839 626.924 386.252 629.515C385.936 630.908 382.62 631.471 377.609 631.238L377.913 630.25ZM385.278 629.288C385.279 629.288 385.278 629.289 385.277 629.291C385.278 629.289 385.278 629.288 385.278 629.288ZM340.312 619.091C340.312 619.091 340.312 619.092 340.311 619.095C340.311 619.092 340.311 619.091 340.312 619.091ZM340.309 619.104C340.309 619.104 340.309 619.102 340.31 619.1C340.309 619.102 340.309 619.104 340.309 619.104ZM385.276 629.3C385.276 629.299 385.276 629.298 385.276 629.297C385.276 629.299 385.276 629.301 385.276 629.301C385.276 629.301 385.276 629.3 385.276 629.3Z" fill="#318265"/>
<path d="M389.128 1471.32C379.139 1467.87 351.859 1490.77 322.648 1609.98C286.134 1759 284.623 1774.92 261.204 1817.85C237.784 1860.79 227.46 1909.28 244.332 1938.08C261.204 1966.87 293.94 2014.86 293.94 2063.35C293.94 2111.85 282.356 2139.13 279.586 2174.49C276.816 2209.85 293.94 2239.9 293.94 2247.73C293.94 2253.6 399.005 2399.2 406 2449.6L406 2458.5C406.498 2456.02 406.476 2453.03 406 2449.6L406 2372V1477.89L389.128 1471.32Z" fill="#232424"/>
<circle cx="360" cy="1846" r="17" fill="#A6E4D5"/>
<ellipse cx="333.5" cy="1941" rx="5.5" ry="6" fill="#A6E4D5"/>
<circle cx="378" cy="1909" r="12" fill="#A6E4D5"/>
<path d="M67.3523 347.985C38.1412 228.77 10.8608 205.87 0.87191 209.322L-16 215.889V1110H119.479C111.673 1071.19 96.0597 991.997 96.0597 985.734C96.0597 977.904 113.183 947.848 110.413 912.487C107.643 877.127 96.0597 849.849 96.0597 801.355C96.0597 752.861 128.796 704.872 145.668 676.078C162.54 647.285 152.215 598.79 128.796 555.853C105.377 512.915 103.866 497.003 67.3523 347.985Z" fill="#232424"/>
<circle opacity="0.4" r="5.8148" transform="matrix(1 0 0 -1 363.815 781.815)" fill="#318265"/>
<ellipse rx="14.8601" ry="14.214" transform="matrix(1 0 0 -1 49.8601 815.414)" fill="url(#paint0_linear_314_7501)"/>
<circle r="5.8148" transform="matrix(1 0 0 -1 13.225 631.079)" fill="#318265"/>
<ellipse rx="40.5" ry="40" transform="matrix(1 0 0 -1 51.5 1145)" fill="#318265"/>
<ellipse opacity="0.43" rx="22.5" ry="22" transform="matrix(1 0 0 -1 354.5 1441)" fill="#318265"/>
<ellipse opacity="0.43" rx="62.5" ry="61" transform="matrix(1 0 0 -1 -4.5 2397)" fill="#318265"/>
<circle r="9" transform="matrix(1 0 0 -1 -2 354)" fill="#318265"/>
<g opacity="0.4">
<path d="M-0.475974 3570.07C0.997517 3570.41 1.94222 3570.03 3.62138 3568.45C4.13423 3567.97 4.63655 3567.54 4.74511 3567.52C4.85919 3567.49 5.59962 3567.55 6.42101 3567.64C10.2641 3568.1 14.8129 3567.97 18.3892 3567.32L19.6803 3567.08L20.7937 3567.79C23.0551 3569.21 24.5039 3569.44 26.3818 3568.69C26.9566 3568.47 27.8761 3567.97 28.4478 3567.58C30.1635 3566.42 30.9126 3566.01 32.6714 3565.33C33.6502 3564.95 34.6215 3564.46 35.0003 3564.17C35.3504 3563.89 36.7317 3562.63 38.0613 3561.36C40.3146 3559.2 40.4944 3559 40.8808 3558.19C41.3395 3557.26 41.3853 3556.63 41.1231 3555.45L40.998 3554.88L42.0481 3553.69C44.149 3551.34 46.3261 3548.15 47.4578 3545.78L48.0706 3544.5L49.2108 3544.16C51.2576 3543.56 51.7161 3542.93 52.1358 3540.17C52.6714 3536.55 53.1347 3534.93 54.631 3531.5C55.1202 3530.35 55.5908 3529.13 55.6474 3528.77C56.0554 3526.64 55.3364 3524.93 52.9696 3522.45C52.3444 3521.8 51.7714 3521.19 51.6723 3521.1C51.5903 3521 51.4169 3520.29 51.3052 3519.51C50.9784 3517.31 50.4047 3515.09 49.614 3512.91L48.8721 3510.9L49.3274 3510.09C50.6381 3507.79 50.6716 3506.18 49.4653 3504.15C48.5725 3502.66 39.2538 3490.83 38.3213 3489.99C37.599 3489.36 36.6252 3489.08 35.0082 3489.04C32.2732 3489 30.3408 3489.27 29.1364 3489.86L28.4887 3490.18L26.7153 3489.43C21.6607 3487.29 16.3394 3486.24 10.5786 3486.23C7.3803 3486.24 5.35479 3486.43 2.2876 3487.03L0.534131 3487.37L-0.87731 3486.67C-2.01671 3486.11 -2.44961 3485.94 -3.02971 3485.88C-4.4312 3485.72 -4.23274 3485.6 -14.5786 3492.52C-18.3727 3495.06 -19.0367 3495.73 -20.2065 3498.22C-20.9297 3499.73 -21.0164 3500 -21.1193 3500.96L-21.2431 3502.02L-21.9884 3502.96C-22.9013 3504.13 -23.917 3505.63 -24.6891 3506.98L-25.2895 3508L-26.5218 3508.32C-27.9937 3508.7 -29.0696 3509.11 -29.6011 3509.51C-30.325 3510.04 -30.7173 3511.16 -31.6396 3515.26C-32.095 3517.32 -32.6256 3519.65 -32.8114 3520.46C-33.3265 3522.7 -33.5737 3524.22 -33.518 3524.76C-33.3935 3525.93 -32.8053 3526.75 -30.7828 3528.58C-30.1707 3529.14 -29.901 3529.47 -29.8853 3529.71C-29.3922 3534.41 -28.8525 3536.97 -27.553 3540.65C-25.9144 3545.3 -23.1932 3549.93 -19.874 3553.71C-19.47 3554.17 -19.0942 3554.67 -19.0227 3554.81C-18.9683 3554.97 -18.9586 3555.81 -19.0113 3556.69C-19.0752 3557.9 -19.0301 3558.49 -18.8427 3559.02C-18.5822 3559.78 -17.8618 3560.62 -16.9099 3561.28C-16.2712 3561.72 -12.9358 3563.57 -10.6036 3564.78C-9.75886 3565.21 -8.53641 3565.93 -7.88064 3566.37C-6.26184 3567.44 -1.44875 3569.85 -0.475974 3570.07ZM-7.40092 3565.96C-7.82434 3565.68 -9.68338 3564.64 -11.5419 3563.62C-18.0608 3560.09 -18.527 3559.67 -18.4764 3557.42C-18.4298 3555.27 -18.4862 3554.37 -18.7663 3553.47C-19.053 3552.53 -19.3519 3552.17 -19.1703 3553.01C-19.1204 3553.23 -19.1217 3553.47 -19.178 3553.53C-19.3131 3553.67 -22.0722 3550.11 -23.1994 3548.33C-25.6662 3544.46 -27.3874 3540.3 -28.4721 3535.52C-29.0333 3533.04 -28.9952 3532.3 -28.0918 3528.42C-27.4915 3525.82 -26.7131 3523.57 -25.6255 3521.29C-24.0301 3517.95 -22.8009 3516.2 -19.9431 3513.25C-17.5804 3510.8 -17.352 3510.44 -16.2329 3507.38C-15.5501 3505.54 -15.2912 3504.96 -14.8835 3504.38C-14.308 3503.56 -13.5124 3502.87 -12.6426 3502.48C-11.9492 3502.16 -9.8419 3501.73 -8.86227 3501.7C-7.46997 3501.67 -5.09067 3501.38 -4.05188 3501.14C-2.57387 3500.78 -1.64441 3500.2 -0.255166 3498.75C1.06126 3497.39 1.41901 3497.21 2.85152 3497.18C4.29559 3497.16 4.79897 3496.79 5.60549 3495.13C6.58867 3493.1 7.72873 3491.81 9.37868 3490.82C12.6108 3488.9 16.6714 3489.35 22.1866 3492.22C25.983 3494.21 28.4328 3496.21 31.474 3499.84C33.3022 3502.02 33.708 3502.27 35.6891 3502.46C37.6933 3502.66 38.5504 3502.83 39.8777 3503.32C42.4746 3504.28 46.6884 3507.14 48.3168 3509.06L48.8732 3509.71L48.5341 3510.59C48.1513 3511.6 48.0317 3512.27 48.1392 3512.82C48.2522 3513.36 48.4501 3513.21 48.4953 3512.55C48.5127 3512.25 48.5774 3512.02 48.6468 3512.05C48.9822 3512.21 50.3896 3517.09 50.722 3519.28L50.871 3520.22L50.4546 3520.02C50.2349 3519.91 50.0278 3519.87 49.9946 3519.94C49.9008 3520.14 50.2761 3520.6 51.5493 3521.89C54.253 3524.61 55.2409 3526.29 55.0999 3527.99C55.032 3528.66 54.8751 3529.17 54.1059 3530.99C52.4962 3534.81 51.9091 3536.87 51.5349 3539.92C51.3161 3541.74 50.9825 3542.62 50.3264 3543.1C50.0943 3543.26 49.3028 3543.55 48.5556 3543.75C47.0952 3544.13 46.1134 3544.67 46.2403 3545.03C46.2947 3545.18 46.3581 3545.2 46.5053 3545.1C46.6128 3545.02 46.8625 3544.89 47.0615 3544.8L47.4253 3544.63L47.1056 3545.33C46.0296 3547.61 43.5281 3551.25 41.4609 3553.55L40.8542 3554.23L40.5087 3553.2C40.1807 3552.19 39.992 3551.9 39.8485 3552.2C39.7601 3552.39 39.8807 3553.03 40.3561 3554.89C41.011 3557.47 40.8729 3557.76 37.7693 3560.75C34.8229 3563.56 34.212 3564.01 32.1407 3564.84C30.4337 3565.53 30.0424 3565.75 27.9815 3567.16C27.3701 3567.57 26.4507 3568.07 25.921 3568.26C24.321 3568.84 23.3086 3568.64 21.0603 3567.32C20.2607 3566.85 19.3174 3566.36 18.9594 3566.21C18.3475 3565.98 18.3189 3565.98 18.6272 3566.23C18.8077 3566.38 18.937 3566.56 18.9094 3566.62C18.7935 3566.86 14.4852 3567.29 11.8262 3567.32C9.10995 3567.36 6.00548 3567.17 5.78366 3566.95C5.72531 3566.9 6.06097 3566.76 6.5228 3566.62C7.28717 3566.42 7.65543 3566.19 7.41257 3566.07C7.36631 3566.05 7.00543 3566.06 6.62798 3566.11C5.67856 3566.22 4.37979 3566.98 3.35515 3568C2.26321 3569.09 1.97485 3569.31 1.29039 3569.49C0.777307 3569.65 0.398805 3569.64 -0.42363 3569.49C-0.837871 3569.4 -6.57114 3566.51 -7.40092 3565.96Z" fill="url(#paint1_linear_314_7501)"/>
<path d="M-0.0252639 3568.35C0.495721 3568.01 -2.9363 3564.64 -5.72787 3562.75C-6.30821 3562.36 -7.65682 3561.64 -9.12556 3560.94C-11.7794 3559.69 -13.6306 3559.08 -15.757 3558.77C-17.6592 3558.5 -18.0364 3558.88 -16.2975 3559.31C-15.4685 3559.51 -15.2201 3559.61 -14.9977 3559.86C-14.6235 3560.26 -12.5358 3561.9 -11.532 3562.56C-8.99042 3564.26 -6.01929 3565.62 -3.13303 3566.42C-1.69266 3566.82 -1.69266 3566.82 -1.27109 3567.31C-0.679989 3567.97 -0.144338 3568.43 -0.0252639 3568.35Z" fill="url(#paint2_linear_314_7501)"/>
<path d="M1.35042 3565.32C1.42771 3565.16 0.609789 3564.31 -0.496207 3563.39C-1.93968 3562.19 -2.44458 3561.85 -2.46904 3562.08C-2.49955 3562.29 -2.54633 3562.24 -0.525422 3563.98C1.02371 3565.32 1.26762 3565.49 1.35042 3565.32Z" fill="url(#paint3_linear_314_7501)"/>
<path d="M2.58534 3565.09C2.41296 3564.44 1.09408 3563.15 -0.21589 3562.36C-1.35187 3561.67 -1.3285 3562.01 -0.166247 3562.88C0.310532 3563.25 1.14292 3563.94 1.67357 3564.44C2.35562 3565.06 2.61714 3565.26 2.58534 3565.09Z" fill="url(#paint4_linear_314_7501)"/>
<path d="M-2.26084 3559.92C-2.09655 3559.81 -2.13782 3559.75 -2.76651 3559.22C-3.64016 3558.46 -3.92448 3557.33 -3.95373 3554.48C-3.99293 3551.08 -4.23346 3551.41 -4.32832 3555C-4.38603 3557.17 -4.1682 3558.11 -3.41652 3559.1C-3.04673 3559.57 -2.4196 3560.01 -2.26084 3559.92Z" fill="url(#paint5_linear_314_7501)"/>
<path d="M-1.57804 3558.67C-1.55596 3558.62 -1.71154 3558.26 -1.90786 3557.87C-2.43086 3556.85 -2.55251 3556.16 -2.53872 3554.4C-2.52526 3553.57 -2.53175 3552.28 -2.53932 3551.55C-2.55923 3550.46 -2.51978 3550.11 -2.27635 3549.63C-1.64044 3548.36 1.1114 3546.82 4.22619 3546C5.98308 3545.54 6.27748 3545.33 5.05261 3545.43C2.9175 3545.59 -0.137645 3546.84 -1.82548 3548.27C-2.27155 3548.64 -2.55177 3548.99 -2.79467 3549.5C-3.10987 3550.13 -3.14037 3550.34 -3.09315 3551.67C-3.06692 3552.48 -3.06305 3553.63 -3.09227 3554.22C-3.17834 3556.1 -2.78969 3557.61 -2.03669 3558.35C-1.80329 3558.57 -1.60012 3558.71 -1.57804 3558.67Z" fill="url(#paint6_linear_314_7501)"/>
<path d="M2.93317 3558.76C4.09231 3558.83 4.66375 3558.74 5.79638 3558.3C7.01996 3557.82 8.05089 3557.14 10.22 3555.4C12.1857 3553.81 12.6226 3553.25 12.9594 3551.92C13.1994 3550.94 13.2876 3548.55 13.0995 3547.67C12.8735 3546.6 12.0311 3545.98 10.6246 3545.86C8.59233 3545.69 4.22717 3546.77 2.28229 3547.93C0.490659 3549.01 -0.327911 3550.01 -0.700206 3551.59C-1.2839 3554.15 -1.05929 3556.09 -0.0274404 3557.35C0.588358 3558.11 1.83736 3558.71 2.93317 3558.76ZM0.998899 3554.55C0.740805 3554.22 0.337123 3553.46 0.0848339 3552.83C-0.311473 3551.85 -0.344314 3551.62 -0.203923 3551.15C0.26194 3549.66 2.00365 3548.36 4.86295 3547.37C7.23231 3546.54 10.2409 3546.19 11.3942 3546.57C12.0001 3546.79 12.5131 3547.26 12.5667 3547.68C12.6022 3548.06 12.1134 3549.23 11.5075 3550.26C10.8122 3551.42 10.4516 3551.76 9.15069 3552.4C8.71357 3552.63 7.71681 3553.29 6.94821 3553.89C4.18424 3556.02 2.30802 3556.23 0.998899 3554.55Z" fill="url(#paint7_linear_314_7501)"/>
<path d="M24.3628 3567.39C24.3904 3567.33 24.2721 3567.13 24.1196 3566.95C23.9672 3566.76 23.8182 3566.45 23.798 3566.28C23.758 3565.98 23.8203 3565.94 24.8365 3565.71C27.5539 3565.11 28.1508 3564.84 30.0387 3563.38C31.1182 3562.55 32.2241 3561.9 33.1632 3561.54C34.4899 3561.05 36.3191 3559.83 37.2693 3558.82C37.8203 3558.23 38.0414 3558.1 38.959 3557.81C39.6143 3557.6 40.0233 3557.4 40.0267 3557.27C40.0362 3557.16 39.9999 3557.06 39.9421 3557.03C39.7455 3556.94 36.7971 3557.76 34.4046 3558.58C30.4171 3559.94 28.3114 3561.08 25.5676 3563.38C24.0039 3564.69 23.481 3565.25 23.3422 3565.81C23.1703 3566.44 23.3989 3567.03 23.9193 3567.28C24.1391 3567.38 24.3407 3567.43 24.3628 3567.39Z" fill="url(#paint8_linear_314_7501)"/>
<path d="M20.7343 3563.3C21.2153 3562.65 21.8828 3561.84 22.2203 3561.49C22.9345 3560.74 24.5787 3559.44 25.4011 3558.97C26.0875 3558.57 26.205 3558.41 25.7205 3558.56C25.0476 3558.75 23.8398 3559.47 22.9647 3560.2C21.5923 3561.32 19.9518 3563.45 19.8905 3564.17C19.8715 3564.39 20.0739 3564.18 20.7343 3563.3Z" fill="url(#paint9_linear_314_7501)"/>
<path d="M21.7883 3564.45C23.2927 3562.4 25.2076 3560.86 28.8426 3558.72C32.0069 3556.85 32.0014 3556.86 31.1009 3557.14C28.4284 3558.01 24.3736 3560.7 22.6686 3562.76C21.721 3563.91 21.0688 3564.92 21.2307 3565C21.2886 3565.03 21.5477 3564.78 21.7883 3564.45Z" fill="url(#paint10_linear_314_7501)"/>
<path d="M9.10098 3557.83C9.32704 3557.66 10.2163 3557.07 11.0835 3556.53C11.9506 3556 12.9292 3555.29 13.2668 3554.94C13.8183 3554.37 13.9463 3554.17 14.562 3552.73C15.2434 3551.12 15.3506 3550.72 15.4969 3549.31C15.5797 3548.51 15.3824 3547.44 15.1658 3547.51C15.0919 3547.54 15.0354 3547.9 15.0543 3548.3C15.0702 3549.49 14.9185 3550.28 14.4361 3551.8C14.061 3552.91 13.8683 3553.35 13.4826 3553.89C12.8625 3554.77 12.6144 3554.99 10.9836 3556.09C10.2416 3556.57 9.57389 3557.05 9.49503 3557.12C9.40461 3557.2 9.16803 3557.42 8.95354 3557.6C8.44569 3558.04 8.58709 3558.25 9.10098 3557.83Z" fill="url(#paint11_linear_314_7501)"/>
<path d="M13.288 3556.71C13.6221 3556.48 14.1023 3556.1 14.361 3555.83C14.9567 3555.17 16.1754 3552.86 16.5324 3551.69C16.7916 3550.82 16.927 3549.77 16.7733 3549.82C16.7336 3549.84 16.5138 3550.36 16.2961 3551C15.2167 3554.03 14.3261 3555.48 12.9455 3556.47C12.1136 3557.05 12.4038 3557.25 13.288 3556.71Z" fill="url(#paint12_linear_314_7501)"/>
<path d="M23.0796 3556.75C23.6389 3556.62 24.2638 3555.99 24.836 3555C25.2361 3554.31 25.2737 3554.18 25.186 3553.77C25.0811 3553.36 25.0228 3553.3 24.5673 3553.16C23.9278 3552.98 23.2241 3553.06 22.8167 3553.34C22.3927 3553.67 21.7368 3555.1 21.7594 3555.71C21.7856 3556.52 22.3207 3556.94 23.0796 3556.75Z" fill="url(#paint13_linear_314_7501)"/>
<path d="M-3.3266 3540.49C-2.6219 3540.48 -2.00445 3540.08 -1.15171 3539.06C-0.82076 3538.67 -0.506896 3538.28 -0.473772 3538.21C-0.35232 3537.95 -0.620125 3537.41 -1.0396 3537.04C-2.01786 3536.21 -3.66806 3536.87 -4.42542 3538.39C-4.8179 3539.19 -4.81161 3539.53 -4.41265 3540.03C-4.02577 3540.5 -4.02577 3540.5 -3.3266 3540.49Z" fill="url(#paint14_linear_314_7501)"/>
<path d="M35.1805 3555.23C34.954 3554.75 34.672 3554.06 34.5506 3553.69C34.3677 3553.09 34.3325 3553.05 34.2804 3553.33C34.1807 3553.84 34.5053 3554.98 34.8811 3555.47C35.4683 3556.23 35.6039 3556.12 35.1805 3555.23Z" fill="url(#paint15_linear_314_7501)"/>
<path d="M36.7364 3555.69C36.7409 3555.62 36.737 3555.09 36.726 3554.49C36.7019 3553.8 36.7978 3553.09 36.9708 3552.52C37.2842 3551.47 37.1163 3551.38 36.6581 3552.34C36.2606 3553.17 36.1328 3554.33 36.3535 3555.12C36.5001 3555.62 36.7301 3555.97 36.7364 3555.69Z" fill="url(#paint16_linear_314_7501)"/>
<path d="M21.164 3547.61C21.7783 3547.67 22.2441 3547.43 22.4594 3546.98C22.8403 3546.18 22.1243 3545.27 21.3148 3545.51C20.3228 3545.81 20.1883 3547.55 21.164 3547.61Z" fill="url(#paint17_linear_314_7501)"/>
<path d="M9.95148 3541.29C10.5384 3541.11 11.0176 3540.67 11.4569 3539.93C11.7902 3539.35 11.8383 3539.16 11.7648 3538.89C11.6483 3538.48 11.0987 3538.21 10.6887 3538.35C9.62284 3538.68 8.57031 3540.05 8.81813 3540.75C8.97528 3541.2 9.48413 3541.44 9.95148 3541.29Z" fill="url(#paint18_linear_314_7501)"/>
<path d="M29.6532 3550.06C29.6642 3550.04 29.3024 3549.37 28.8238 3548.59C28.3623 3547.8 27.727 3546.6 27.4164 3545.91C27.1002 3545.23 26.7857 3544.64 26.7163 3544.61C26.4503 3544.48 26.9661 3546.05 27.5782 3547.24C28.2965 3548.59 29.5373 3550.3 29.6532 3550.06Z" fill="url(#paint19_linear_314_7501)"/>
<path d="M32.1499 3549.35C32.4464 3549.26 32.679 3549.13 32.6548 3549.07C32.6191 3548.99 32.4698 3548.98 32.3044 3549.03C31.8371 3549.17 30.9918 3548.71 30.4867 3548.04C29.5946 3546.91 28.2068 3543.42 28.1682 3542.25C28.1451 3541.62 28.6611 3540.68 29.6224 3539.65C30.5501 3538.66 30.6027 3538.4 29.7321 3539.06C28.856 3539.74 28.1775 3540.57 27.882 3541.33C27.5589 3542.16 27.6635 3542.86 28.424 3544.96C29.3538 3547.53 30.1509 3548.81 31.1224 3549.27C31.504 3549.45 31.7393 3549.47 32.1499 3549.35Z" fill="url(#paint20_linear_314_7501)"/>
<path d="M17.5971 3541.22C18.2949 3540.83 18.26 3539.87 17.5315 3539.52C16.8144 3539.18 16.0077 3539.88 16.2676 3540.62C16.4429 3541.11 17.2057 3541.45 17.5971 3541.22Z" fill="url(#paint21_linear_314_7501)"/>
<path d="M32.375 3546.94C33.5613 3546.93 35.5227 3545.11 37.0364 3542.62C38.539 3540.16 38.7878 3538.09 37.6428 3537.54C37.053 3537.26 35.6804 3537.43 34.2453 3537.94C31.7734 3538.8 29.9685 3541.04 30.0746 3543.08C30.1597 3544.59 30.9452 3546.49 31.616 3546.81C31.7894 3546.89 32.1227 3546.94 32.375 3546.94ZM30.6142 3543.43C30.2163 3542.99 30.3123 3542.28 30.9568 3541.17C31.9955 3539.35 34.0032 3538.18 36.5036 3537.94C37.6365 3537.83 37.6497 3537.92 36.8381 3539.62C35.601 3542.18 33.4326 3544.28 32.09 3544.21C31.6482 3544.18 30.9593 3543.81 30.6142 3543.43Z" fill="url(#paint22_linear_314_7501)"/>
<path d="M2.55199 3531.87C2.56303 3531.85 2.38194 3531.66 2.13751 3531.46C1.90464 3531.26 1.09381 3530.49 0.334758 3529.73C-1.01986 3528.38 -1.39755 3528.1 -1.00753 3528.74C-0.422762 3529.68 2.40293 3532.18 2.55199 3531.87Z" fill="url(#paint23_linear_314_7501)"/>
<path d="M6.53151 3532.9C7.3479 3533.04 7.07929 3532.77 5.5325 3531.87C4.20596 3531.11 3.23822 3530.22 1.65049 3528.34C-0.376945 3525.93 -0.907075 3525.46 -3.63872 3523.72C-5.72064 3522.4 -6.98483 3520.97 -7.63605 3519.21C-8.05206 3518.09 -8.25567 3516.67 -8.14941 3515.59C-8.11153 3515.15 -8.12991 3514.77 -8.17617 3514.75C-8.31495 3514.68 -8.3365 3514.76 -8.5153 3515.64C-8.86632 3517.44 -8.54734 3519.22 -7.57755 3520.84C-6.80854 3522.15 -5.83476 3523.05 -3.54862 3524.57C-1.18705 3526.14 -0.540225 3526.72 1.19337 3528.74C1.97817 3529.65 2.98323 3530.7 3.42584 3531.08C4.22905 3531.75 6.02527 3532.8 6.53151 3532.9Z" fill="url(#paint24_linear_314_7501)"/>
<path d="M14.5091 3534.13C16.2647 3533.28 18.8164 3530.82 19.2241 3529.61C19.333 3529.29 19.2762 3529.32 18.8156 3529.84C17.2708 3531.56 16.5947 3532.2 15.3117 3533.19C14.5375 3533.8 13.9106 3534.31 13.9227 3534.35C13.9348 3534.38 14.1966 3534.28 14.5091 3534.13Z" fill="url(#paint25_linear_314_7501)"/>
<path d="M7.95038 3531.27C9.31217 3531.45 11.0268 3530.86 12.4901 3529.7C14.0665 3528.45 15.1616 3526.9 15.7142 3525.15C16.1796 3523.64 16.2169 3522.55 15.9535 3519.74C15.8618 3518.8 15.7954 3517.36 15.8034 3516.54C15.8257 3513.37 15.8018 3513 15.5776 3512.34C15.1414 3511.06 13.1147 3509 11.9217 3508.64C11.3163 3508.45 8.60164 3508.57 2.61502 3509.07C-0.75048 3509.33 -1.5958 3509.5 -2.4861 3510.03C-4.97509 3511.52 -6.42865 3515.73 -5.38269 3518.38C-4.92542 3519.57 -4.29306 3520.3 -1.71075 3522.65C-0.439706 3523.83 0.884168 3525.07 1.2177 3525.44C4.37583 3528.88 6.98522 3531.15 7.95038 3531.27ZM6.87216 3523.71C5.73832 3522.51 5.64528 3522.44 4.48275 3521.87C3.81198 3521.55 2.6505 3521.04 1.89431 3520.75C0.797218 3520.31 0.363274 3520.09 -0.258852 3519.61C-2.03771 3518.25 -3.14414 3516.04 -3.16791 3513.8C-3.18677 3512.77 -2.90385 3511.32 -2.61207 3510.97C-2.03455 3510.27 -0.573099 3509.95 3.20507 3509.68C4.38421 3509.58 6.43889 3509.42 7.78388 3509.31C9.13439 3509.18 10.5483 3509.08 10.9152 3509.08L11.6028 3509.07L12.1608 3509.8C12.8717 3510.75 13.3179 3511.96 13.3247 3512.96C13.3281 3513.46 13.1729 3514.38 12.8932 3515.38C12.3408 3517.46 12.2951 3518.09 12.5635 3520.23C12.9847 3523.52 12.7901 3524.79 11.7838 3525.56C10.9982 3526.16 10.2412 3526.14 9.01372 3525.47C8.19761 3525.04 7.86565 3524.75 6.87216 3523.71Z" fill="url(#paint26_linear_314_7501)"/>
<path d="M38.533 3544.79C39.7795 3543.36 40.6259 3542.01 41.5679 3539.91C42.3999 3538.08 42.449 3537.95 42.4349 3537.18C42.4258 3535.74 41.5648 3534.42 40.6007 3534.36C40.2161 3534.33 40.2222 3534.35 40.7573 3534.77C41.7114 3535.54 42.057 3536.57 41.7946 3537.89C41.6639 3538.58 41.4496 3539.09 40.5968 3540.73C40.0322 3541.82 39.1989 3543.27 38.747 3543.95C37.7262 3545.49 37.629 3545.82 38.533 3544.79Z" fill="url(#paint27_linear_314_7501)"/>
<path d="M42.4618 3546.9C42.9247 3546.83 43.2964 3546.46 43.6497 3545.72C44.0858 3544.81 44.0406 3544.22 43.5087 3543.97C42.8842 3543.67 42.1692 3544.07 41.7386 3544.97C41.3246 3545.83 41.3884 3546.5 41.9088 3546.75C42.117 3546.85 42.3703 3546.92 42.4618 3546.9Z" fill="url(#paint28_linear_314_7501)"/>
<path d="M37.8646 3543.39C38.1343 3543.09 38.6646 3542.31 39.0707 3541.63C40.3609 3539.47 40.7753 3537.68 40.1871 3536.86C39.8514 3536.37 39.6827 3536.54 39.8716 3537.16C39.9744 3537.45 40.034 3537.89 40.0382 3538.12C40.0205 3538.72 38.8147 3541.43 38.0008 3542.69C37.6389 3543.27 37.3502 3543.78 37.3684 3543.83C37.3749 3543.88 37.612 3543.68 37.8646 3543.39Z" fill="url(#paint29_linear_314_7501)"/>
<path d="M15.2311 3532.14C16.1324 3531.59 17.0059 3530.77 17.8631 3529.69C18.3221 3529.09 17.7724 3529.44 17.1431 3530.13C16.7951 3530.53 16.2376 3531.08 15.9045 3531.36C15.1199 3532.02 14.8552 3532.28 14.9015 3532.3C14.9246 3532.31 15.0723 3532.24 15.2311 3532.14Z" fill="url(#paint30_linear_314_7501)"/>
<path d="M22.4019 3534.76C23.3455 3534.95 23.9143 3534.71 24.2621 3533.98C24.9356 3532.57 24.4623 3531.45 23.2077 3531.49C22.4116 3531.52 21.9865 3531.79 21.5649 3532.55C21.1984 3533.2 21.1774 3533.31 21.3235 3533.77C21.5003 3534.35 21.8207 3534.64 22.4019 3534.76Z" fill="url(#paint31_linear_314_7501)"/>
<path d="M15.4906 3529.81C15.9913 3529.3 17.0683 3527.69 17.7224 3526.47C19.2187 3523.67 19.4123 3521.71 18.5277 3518.48C17.9814 3516.5 17.9402 3515.81 18.2481 3514.16C18.6041 3512.31 18.5003 3511.34 17.8509 3510.62C17.2598 3509.95 16.8768 3510.01 17.4222 3510.68C17.9852 3511.38 18.0442 3512.41 17.6361 3514.55C17.4124 3515.79 17.5041 3516.73 18.0569 3518.75C18.6708 3520.98 18.7233 3521.97 18.3029 3523.74C18.0579 3524.76 17.015 3526.97 16.2232 3528.19C15.6212 3529.12 15.1531 3530.16 15.4906 3529.81Z" fill="url(#paint32_linear_314_7501)"/>
<path d="M45.2038 3543.13C45.266 3543.09 45.2214 3542.53 45.1008 3541.89C44.8667 3540.68 44.8024 3539.36 44.9071 3538.19C44.9289 3537.81 44.9071 3537.56 44.8679 3537.61C44.654 3537.82 44.442 3539.4 44.4769 3540.37C44.5134 3541.42 44.9998 3543.26 45.2038 3543.13Z" fill="url(#paint33_linear_314_7501)"/>
<path d="M46.1256 3541.58C45.7607 3538.86 46.0426 3536.73 47.157 3534.04C47.7275 3532.63 47.778 3532.26 47.3135 3532.87C46.396 3534.11 45.5734 3537.09 45.5725 3539.23C45.5595 3540.09 45.832 3541.51 46.0383 3541.82C46.1737 3542.02 46.1847 3541.99 46.1256 3541.58Z" fill="url(#paint34_linear_314_7501)"/>
<path d="M30.8503 3533.66C31.6268 3533.49 32.0101 3532.51 31.4203 3532.23C31.2699 3532.16 30.9151 3532.19 30.6246 3532.29C29.8955 3532.54 29.7475 3532.91 30.153 3533.46C30.3995 3533.77 30.3709 3533.77 30.8503 3533.66Z" fill="url(#paint35_linear_314_7501)"/>
<path d="M49.6594 3541.76C50.0293 3541.61 50.1699 3541.47 50.008 3541.39C49.9617 3541.37 49.8471 3541.37 49.7501 3541.39C49.6647 3541.42 49.4581 3541.41 49.2967 3541.36L49.0026 3541.26L49.7434 3539.77C51.3575 3536.51 52.7262 3531.11 52.6744 3528.28C52.6492 3527.53 52.6868 3527.39 53.0929 3526.72C53.4549 3526.14 53.498 3525.99 53.3487 3525.97C52.6651 3525.89 49.8854 3530.61 49.0068 3533.34C48.3448 3535.38 47.8536 3538.61 47.9784 3540.11C48.0737 3541.25 48.8966 3542.05 49.6594 3541.76Z" fill="url(#paint36_linear_314_7501)"/>
<path d="M-6.47866 3511.64C-6.32252 3511.4 -6.04939 3510.98 -5.84856 3510.68C-4.56678 3508.68 -3.18154 3507.95 0.39689 3507.41C2.33487 3507.13 3.5566 3506.86 3.61733 3506.73C3.65045 3506.66 3.16839 3506.63 2.5557 3506.67C-0.393712 3506.81 -3.17231 3507.51 -4.40512 3508.43C-5.29884 3509.08 -6.00543 3509.94 -6.45811 3510.88C-6.88871 3511.79 -6.90294 3512.26 -6.47866 3511.64Z" fill="url(#paint37_linear_314_7501)"/>
<path d="M30.9843 3527.93C31.0561 3527.78 30.096 3526.37 28.9872 3524.98C28.154 3523.93 27.6284 3523.39 26.8438 3522.8C26.28 3522.38 25.6392 3521.82 25.4108 3521.55C24.4797 3520.47 24.0629 3518.99 23.9947 3516.52C23.9698 3515.47 23.9173 3515.1 23.8426 3515.41C23.5097 3516.64 23.6279 3518.71 24.123 3520.09C24.528 3521.23 25.2263 3522.12 26.4182 3523.04C27.1158 3523.57 27.7587 3524.25 28.8378 3525.59C30.3451 3527.46 30.9181 3528.07 30.9843 3527.93Z" fill="url(#paint38_linear_314_7501)"/>
<path d="M35.1181 3528.88C35.7163 3529 36.334 3528.92 36.4279 3528.73C36.4886 3528.6 36.379 3528.56 35.8788 3528.48C35.0971 3528.36 34.0794 3527.88 33.5196 3527.35C33.2807 3527.14 32.5074 3526.23 31.7975 3525.34C30.812 3524.1 30.163 3523.41 29.0042 3522.42C27.1815 3520.85 26.6245 3520.17 26.2191 3519C25.813 3517.8 25.7748 3516.33 26.1001 3513.12C26.2624 3511.65 26.3715 3510.41 26.3595 3510.38C26.226 3509.97 25.7787 3512.16 25.3908 3515.08C25.0474 3517.62 25.4363 3519.45 26.5864 3520.91C26.9325 3521.34 27.8897 3522.28 28.7227 3523.01C29.8639 3523.98 30.5068 3524.65 31.3404 3525.73C32.8961 3527.74 33.9845 3528.64 35.1181 3528.88Z" fill="url(#paint39_linear_314_7501)"/>
<path d="M36.8028 3526.75C37.8399 3527.05 39.6862 3527.08 40.5123 3526.8C41.8229 3526.38 44.5261 3524.37 44.9005 3523.53C45.171 3522.96 45.1602 3522.69 44.8959 3521.4C44.7829 3520.86 44.6744 3519.63 44.6682 3518.66C44.6384 3515.78 44.3173 3515.14 42.2203 3513.94C39.8916 3512.6 38.7546 3511.86 37.2147 3510.72C35.1401 3509.17 34.6996 3508.9 33.8585 3508.67C32.8158 3508.39 31.9513 3508.44 30.7779 3508.85C29.6046 3509.26 28.4164 3510.11 28.1018 3510.77C27.8644 3511.26 27.639 3513.05 27.62 3514.51C27.5977 3517.06 28.3042 3518.7 30.7387 3521.75C32.3698 3523.81 33.3512 3524.82 34.4023 3525.56C35.0756 3526.02 36.1919 3526.57 36.8028 3526.75ZM33.4083 3523.87C32.3872 3522.88 30.0467 3519.96 29.3668 3518.83C29.0654 3518.33 28.7003 3517.49 28.5361 3516.97C28.0831 3515.39 28.2063 3511.47 28.7381 3510.77C29.0911 3510.33 30.7868 3509.34 31.4492 3509.2C31.7804 3509.13 32.3413 3509.08 32.7083 3509.09C33.6256 3509.1 35.0486 3509.81 36.6303 3511.05L37.8223 3511.97L38.2982 3513.23C38.6235 3514.1 38.7854 3514.8 38.7964 3515.4C38.8142 3516.38 39.0413 3516.88 40.0978 3518.24C40.767 3519.1 41.1231 3520.08 41.092 3520.89C41.0802 3521.18 40.8956 3521.75 40.6637 3522.23C40.3325 3522.92 40.1532 3523.15 39.5655 3523.61C38.1694 3524.69 35.8561 3525.13 34.2533 3524.62C34.2015 3524.61 33.8283 3524.26 33.4083 3523.87Z" fill="url(#paint40_linear_314_7501)"/>
<path d="M42.1186 3528.05C44.5697 3526.99 46.5125 3525.09 46.9787 3523.31C47.3105 3522.02 47.2159 3521.24 46.4971 3519.24C46.1234 3518.23 45.8538 3517.28 45.8683 3517.13C45.9088 3516.84 45.7393 3516.66 45.6399 3516.87C45.4798 3517.2 45.6529 3518.21 46.1078 3519.58C46.399 3520.45 46.6174 3521.42 46.6258 3521.88C46.6273 3522.59 46.5792 3522.78 46.0547 3523.88C45.5358 3524.97 45.3846 3525.17 44.697 3525.8C44.274 3526.18 43.3808 3526.86 42.7127 3527.31C42.0616 3527.75 41.5301 3528.15 41.5366 3528.2C41.5603 3528.24 41.8171 3528.18 42.1186 3528.05Z" fill="url(#paint41_linear_314_7501)"/>
<path d="M-2.47643 3506.44C-1.04468 3506.06 0.697751 3505.74 2.55688 3505.53C3.51785 3505.42 4.28379 3505.31 4.27722 3505.26C4.18708 3505.03 0.992435 3505.24 -0.29159 3505.55C-1.5354 3505.86 -3.56856 3506.58 -3.41822 3506.66C-3.39509 3506.67 -2.96691 3506.57 -2.47643 3506.44Z" fill="url(#paint42_linear_314_7501)"/>
<path d="M9.52416 3506.29C10.1392 3506.07 10.2352 3505.99 10.4047 3505.54C10.5743 3505.1 10.5667 3504.99 10.291 3504.65C9.31696 3503.42 7.31402 3504.22 7.8157 3505.64C8.08165 3506.39 8.63572 3506.6 9.52416 3506.29Z" fill="url(#paint43_linear_314_7501)"/>
<path d="M1.65997 3501.94C2.14545 3501.84 3.14507 3501.65 3.90497 3501.52C4.6533 3501.38 5.24681 3501.23 5.22868 3501.18C5.12593 3500.89 0.673527 3501.59 0.513432 3501.93C0.436144 3502.09 0.871943 3502.1 1.65997 3501.94Z" fill="url(#paint44_linear_314_7501)"/>
<path d="M2.84997 3500.55C4.36634 3500.4 4.92464 3500.21 3.96657 3500.17C2.87076 3500.11 0.847877 3500.46 1.22952 3500.64C1.28734 3500.67 2.01464 3500.63 2.84997 3500.55Z" fill="url(#paint45_linear_314_7501)"/>
<path d="M20.8696 3509.23C21.1766 3509.09 21.4876 3508.86 21.5649 3508.7C22.0231 3507.74 21.2412 3506.67 20.2421 3506.89C19.6828 3507.02 19.208 3507.39 18.9651 3507.9C18.7885 3508.27 18.8016 3508.36 19.0883 3508.68C19.2694 3508.86 19.6124 3509.13 19.8669 3509.25C20.2369 3509.43 20.4088 3509.42 20.8696 3509.23Z" fill="url(#paint46_linear_314_7501)"/>
<path d="M14.6532 3503.69C16.8156 3504.4 18.206 3504.58 20.1175 3504.41C22.9502 3504.16 25.3787 3503.12 26.4015 3501.69C27.3184 3500.42 26.7618 3498.2 25.1467 3496.7C24.2021 3495.83 21.3738 3493.81 19.7747 3492.88C16.8254 3491.14 13.7638 3490.47 11.7638 3491.12C10.5843 3491.51 9.63514 3492.58 8.60227 3494.71C7.88408 3496.19 7.7839 3496.67 7.99727 3497.68C8.15361 3498.39 9.86723 3500.57 11.0778 3501.57C12.0148 3502.35 13.8402 3503.43 14.6532 3503.69ZM11.403 3497.41C10.38 3496.64 9.48958 3495.59 9.27094 3494.92C9.14296 3494.5 9.154 3494.48 9.73994 3493.61C11.0062 3491.7 12.5097 3491.17 15.1781 3491.65C16.0408 3491.8 16.5083 3491.98 18.2723 3492.84C20.0417 3493.68 20.6386 3494.04 22.27 3495.17C23.3211 3495.92 24.4486 3496.77 24.7751 3497.07L25.3641 3497.62L25.1146 3498.08C24.5052 3499.24 22.1151 3500.5 20.3062 3500.63C19.2813 3500.69 17.6265 3500.47 16.5078 3500.11C15.2509 3499.7 12.5019 3498.26 11.403 3497.41Z" fill="url(#paint47_linear_314_7501)"/>
<path d="M32.3942 3507.19C32.6621 3507.11 32.7346 3506.69 32.6025 3506.04C32.3129 3504.63 31.9975 3504.31 31.0013 3504.37C29.988 3504.44 29.7302 3505.07 30.3696 3505.87C30.8098 3506.44 32.1324 3507.29 32.3942 3507.19Z" fill="url(#paint48_linear_314_7501)"/>
<path d="M42.975 3511.92C42.9563 3511.84 42.4317 3511.36 41.792 3510.86C39.82 3509.28 38.6435 3508.26 38.397 3507.94C38.2677 3507.77 37.9852 3507.05 37.7715 3506.34C37.5579 3505.63 37.3413 3505.07 37.273 3505.09C37.1192 3505.15 37.3326 3506.78 37.5843 3507.38C37.9806 3508.37 38.5938 3508.99 40.7851 3510.65C42.1103 3511.65 43.0023 3512.16 42.975 3511.92Z" fill="url(#paint49_linear_314_7501)"/>
<path d="M37.1231 3508.44C37.5076 3508.47 37.3547 3508.25 36.6994 3507.84C35.6328 3507.19 35.0609 3506.63 34.4288 3505.61C33.8088 3504.62 33.6001 3504.49 33.6921 3505.13C33.8311 3506.15 35.0666 3507.57 36.3035 3508.14C36.662 3508.31 37.0371 3508.44 37.1231 3508.44Z" fill="url(#paint50_linear_314_7501)"/>
</g>
<g opacity="0.4">
<path d="M430.094 3641.5C429.732 3640.04 428.975 3639.36 426.806 3638.57C426.147 3638.33 425.54 3638.07 425.474 3637.98C425.395 3637.89 425.112 3637.21 424.828 3636.43C423.512 3632.79 421.356 3628.78 419.171 3625.88L418.381 3624.83L418.509 3623.52C418.764 3620.86 418.326 3619.46 416.813 3618.12C416.356 3617.71 415.498 3617.11 414.889 3616.77C413.087 3615.76 412.385 3615.27 410.989 3614C410.206 3613.3 409.334 3612.65 408.907 3612.44C408.493 3612.26 406.75 3611.59 405.02 3610.97C402.077 3609.93 401.819 3609.85 400.922 3609.87C399.884 3609.88 399.299 3610.12 398.366 3610.88L397.912 3611.25L396.378 3610.85C393.337 3610.02 389.507 3609.51 386.881 3609.56L385.459 3609.59L384.647 3608.72C383.193 3607.16 382.422 3607.03 379.773 3607.89C376.296 3609.04 374.636 3609.36 370.897 3609.56C369.656 3609.63 368.351 3609.76 368.007 3609.87C365.917 3610.46 364.714 3611.87 363.56 3615.1C363.257 3615.95 362.965 3616.74 362.929 3616.87C362.88 3616.98 362.325 3617.46 361.681 3617.91C359.86 3619.18 358.134 3620.69 356.54 3622.38L355.071 3623.94L354.147 3623.9C351.504 3623.76 350.044 3624.45 348.776 3626.44C347.844 3627.91 341.449 3641.54 341.114 3642.76C340.876 3643.68 341.063 3644.68 341.758 3646.14C342.948 3648.6 344.056 3650.21 345.123 3651.02L345.696 3651.46L345.824 3653.38C346.176 3658.86 347.626 3664.08 350.201 3669.24C351.642 3672.09 352.728 3673.81 354.635 3676.29L355.727 3677.7L355.733 3679.28C355.745 3680.55 355.793 3681.01 355.996 3681.55C356.483 3682.88 356.289 3682.75 367.113 3688.9C371.08 3691.15 371.983 3691.44 374.724 3691.37C376.403 3691.34 376.684 3691.3 377.587 3690.96L378.593 3690.59L379.764 3690.84C381.218 3691.13 383.017 3691.36 384.57 3691.45L385.751 3691.53L386.59 3692.48C387.587 3693.63 388.435 3694.41 389.031 3694.7C389.833 3695.11 391.01 3694.96 395.091 3693.94C397.132 3693.43 399.453 3692.86 400.257 3692.66C402.489 3692.12 403.967 3691.65 404.422 3691.36C405.409 3690.73 405.879 3689.83 406.609 3687.2C406.836 3686.4 407.008 3686.02 407.211 3685.9C411.198 3683.34 413.242 3681.71 415.942 3678.9C419.37 3675.35 422.28 3670.84 424.175 3666.18C424.407 3665.61 424.678 3665.05 424.778 3664.92C424.891 3664.81 425.639 3664.42 426.453 3664.07C427.558 3663.59 428.065 3663.28 428.454 3662.88C429.02 3662.3 429.448 3661.28 429.605 3660.14C429.718 3659.37 429.873 3655.56 429.91 3652.93C429.917 3651.98 430.004 3650.57 430.104 3649.78C430.335 3647.86 430.331 3642.47 430.094 3641.5ZM429.523 3649.54C429.468 3650.04 429.37 3652.17 429.296 3654.29C429.059 3661.7 428.891 3662.3 426.86 3663.27C424.917 3664.19 424.144 3664.64 423.465 3665.3C422.748 3665.98 422.564 3666.4 423.233 3665.86C423.409 3665.72 423.625 3665.61 423.702 3665.64C423.883 3665.7 421.938 3669.76 420.859 3671.56C418.502 3675.51 415.557 3678.91 411.774 3682.02C409.806 3683.64 409.133 3683.94 405.255 3684.87C402.665 3685.5 400.3 3685.82 397.776 3685.87C394.074 3685.94 391.965 3685.62 388.044 3684.39C384.794 3683.38 384.37 3683.34 381.135 3683.71C379.178 3683.93 378.551 3683.95 377.844 3683.85C376.854 3683.7 375.885 3683.3 375.142 3682.7C374.543 3682.22 373.215 3680.53 372.749 3679.67C372.097 3678.44 370.775 3676.44 370.093 3675.62C369.108 3674.46 368.174 3673.89 366.253 3673.3C364.447 3672.73 364.122 3672.5 363.456 3671.23C362.79 3669.95 362.233 3669.66 360.387 3669.69C358.132 3669.72 356.47 3669.28 354.847 3668.25C351.68 3666.22 350.258 3662.39 350.353 3656.17C350.421 3651.89 351.116 3648.8 352.991 3644.46C354.119 3641.84 354.161 3641.37 353.444 3639.51C352.728 3637.63 352.493 3636.79 352.337 3635.38C352.026 3632.63 352.695 3627.58 353.675 3625.27L354.005 3624.48L354.952 3624.38C356.026 3624.27 356.676 3624.08 357.118 3623.74C357.547 3623.4 357.327 3623.28 356.717 3623.54C356.437 3623.66 356.207 3623.7 356.206 3623.63C356.198 3623.26 359.924 3619.81 361.731 3618.53L362.502 3617.98L362.511 3618.44C362.516 3618.68 362.572 3618.89 362.649 3618.89C362.866 3618.88 363.112 3618.34 363.693 3616.62C364.915 3612.98 365.973 3611.35 367.549 3610.71C368.185 3610.47 368.709 3610.38 370.681 3610.25C374.815 3609.98 376.922 3609.58 379.811 3608.55C381.542 3607.92 382.476 3607.83 383.201 3608.2C383.447 3608.33 384.061 3608.91 384.572 3609.49C385.569 3610.63 386.492 3611.26 386.755 3610.99C386.868 3610.87 386.854 3610.8 386.699 3610.72C386.582 3610.66 386.348 3610.49 386.179 3610.36L385.866 3610.11L386.635 3610.08C389.159 3610.02 393.529 3610.62 396.518 3611.43L397.395 3611.67L396.628 3612.44C395.874 3613.19 395.7 3613.49 396.033 3613.48C396.238 3613.48 396.756 3613.08 398.205 3611.82C400.221 3610.08 400.542 3610.07 404.607 3611.5C408.441 3612.88 409.115 3613.22 410.785 3614.7C412.168 3615.92 412.544 3616.17 414.722 3617.38C415.37 3617.74 416.227 3618.34 416.632 3618.73C417.873 3619.89 418.149 3620.89 417.97 3623.49C417.912 3624.42 417.894 3625.48 417.928 3625.86C417.992 3626.52 418.005 3626.54 418.087 3626.16C418.147 3625.92 418.245 3625.73 418.309 3625.73C418.578 3625.72 420.894 3629.38 422.12 3631.74C423.373 3634.15 424.596 3637.01 424.499 3637.31C424.475 3637.39 424.201 3637.15 423.874 3636.8C423.349 3636.2 422.973 3635.98 422.979 3636.25C422.98 3636.3 423.152 3636.62 423.364 3636.93C423.892 3637.73 425.152 3638.55 426.52 3639.01C427.99 3639.49 428.314 3639.66 428.786 3640.18C429.153 3640.57 429.313 3640.92 429.547 3641.72C429.658 3642.13 429.644 3648.55 429.523 3649.54Z" fill="url(#paint51_linear_314_7501)"/>
<path d="M391.632 3651.38C391.183 3650.08 389.889 3648.81 388.195 3648.03C386.371 3647.18 384.494 3646.89 382.679 3647.19C381.121 3647.45 380.13 3647.9 377.737 3649.4C376.94 3649.9 375.685 3650.61 374.948 3650.97C372.105 3652.37 371.788 3652.56 371.298 3653.05C370.343 3654.02 369.411 3656.76 369.627 3657.98C369.729 3658.61 371.058 3660.98 374.185 3666.11C375.934 3668.99 376.46 3669.68 377.33 3670.24C379.783 3671.79 384.194 3671.2 386.1 3669.08C386.953 3668.14 387.32 3667.24 388.266 3663.88C388.745 3662.22 389.262 3660.48 389.445 3660.01C391.102 3655.65 391.958 3652.3 391.632 3651.38ZM385.361 3655.73C384.802 3657.28 384.779 3657.4 384.792 3658.69C384.806 3659.44 384.87 3660.7 384.95 3661.51C385.05 3662.69 385.047 3663.17 384.896 3663.95C384.478 3666.15 383.005 3668.12 381.013 3669.15C380.099 3669.63 378.672 3670.03 378.234 3669.92C377.346 3669.72 376.4 3668.56 374.464 3665.31C373.854 3664.29 372.781 3662.53 372.079 3661.38C371.364 3660.23 370.635 3659.01 370.474 3658.68L370.155 3658.07L370.561 3657.25C371.091 3656.18 371.97 3655.24 372.858 3654.79C373.302 3654.56 374.194 3654.29 375.215 3654.09C377.322 3653.65 377.906 3653.41 379.703 3652.21C382.447 3650.36 383.67 3649.96 384.809 3650.52C385.702 3650.95 386.023 3651.63 385.974 3653.03C385.954 3653.95 385.847 3654.38 385.361 3655.73Z" fill="url(#paint52_linear_314_7501)"/>
<path d="M386.948 3645.29C386.264 3645.08 384.349 3644.83 382.964 3644.8C379.784 3644.72 377.952 3645.42 375.459 3647.66C373.935 3649.04 373.34 3649.38 371.721 3649.85C369.911 3650.36 369.089 3650.89 368.735 3651.8C368.405 3652.62 368.629 3652.94 368.985 3652.15C369.354 3651.33 370.254 3650.82 372.344 3650.22C373.554 3649.87 374.352 3649.36 375.914 3647.96C377.626 3646.41 378.488 3645.92 380.261 3645.5C381.282 3645.27 383.729 3645.2 385.168 3645.37C386.272 3645.49 387.412 3645.44 386.948 3645.29Z" fill="url(#paint53_linear_314_7501)"/>
<path d="M383.726 3612.64C381.462 3614.18 379.425 3614.89 376.52 3615.1C375.01 3615.22 374.653 3615.34 375.412 3615.48C376.93 3615.74 379.956 3615.15 381.872 3614.18C382.647 3613.81 383.796 3612.93 383.981 3612.6C384.093 3612.4 384.067 3612.4 383.726 3612.64Z" fill="url(#paint54_linear_314_7501)"/>
<path d="M382.301 3609.4C382.001 3609.13 381.808 3609.07 381.812 3609.25C381.813 3609.3 381.866 3609.4 381.931 3609.48C381.997 3609.54 382.077 3609.73 382.106 3609.9L382.151 3610.21L380.485 3610.21C376.845 3610.23 371.409 3611.43 368.897 3612.75C368.237 3613.11 368.097 3613.14 367.314 3613.08C366.633 3613.01 366.48 3613.04 366.534 3613.18C366.765 3613.83 372.232 3614.2 375.069 3613.76C377.19 3613.43 380.298 3612.42 381.577 3611.64C382.552 3611.04 382.902 3609.95 382.301 3609.4Z" fill="url(#paint55_linear_314_7501)"/>
<path d="M380.566 3673.08C380.283 3673.05 379.782 3672.99 379.422 3672.95C377.059 3672.7 375.785 3671.79 373.701 3668.83C372.58 3667.23 371.792 3666.26 371.651 3666.26C371.574 3666.26 371.762 3666.71 372.067 3667.24C373.515 3669.81 375.391 3671.98 376.764 3672.67C377.748 3673.18 378.829 3673.42 379.88 3673.4C380.879 3673.38 381.311 3673.18 380.566 3673.08Z" fill="url(#paint56_linear_314_7501)"/>
<path d="M378.321 3632.29C378.155 3632.29 377.325 3633.78 376.576 3635.4C376.01 3636.62 375.768 3637.33 375.595 3638.29C375.467 3638.99 375.253 3639.81 375.119 3640.13C374.568 3641.45 373.435 3642.49 371.253 3643.66C370.328 3644.15 370.024 3644.36 370.33 3644.29C371.581 3644.04 373.381 3643 374.385 3641.94C375.227 3641.07 375.706 3640.04 375.997 3638.56C376.16 3637.7 376.476 3636.82 377.188 3635.26C378.183 3633.07 378.475 3632.29 378.321 3632.29Z" fill="url(#paint57_linear_314_7501)"/>
<path d="M377.317 3628.17C377.151 3627.58 376.808 3627.06 376.59 3627.07C376.449 3627.07 376.464 3627.19 376.615 3627.67C376.86 3628.42 376.883 3629.55 376.667 3630.28C376.583 3630.59 376.118 3631.69 375.638 3632.73C374.975 3634.16 374.646 3635.05 374.278 3636.54C373.697 3638.87 373.341 3639.67 372.474 3640.56C371.582 3641.46 370.288 3642.15 367.273 3643.3C365.886 3643.82 364.729 3644.27 364.704 3644.3C364.402 3644.6 366.557 3644.02 369.345 3643.05C371.764 3642.22 373.227 3641.05 374.014 3639.37C374.248 3638.87 374.658 3637.59 374.932 3636.52C375.287 3635.07 375.603 3634.19 376.194 3632.96C377.29 3630.67 377.608 3629.29 377.317 3628.17Z" fill="url(#paint58_linear_314_7501)"/>
<path d="M374.652 3627.62C374.451 3626.56 373.649 3624.9 373.035 3624.28C372.067 3623.3 369.063 3621.78 368.141 3621.83C367.513 3621.84 367.272 3621.97 366.237 3622.79C365.808 3623.13 364.757 3623.78 363.895 3624.22C361.332 3625.54 360.907 3626.11 360.776 3628.52C360.624 3631.2 360.471 3632.55 360.137 3634.44C359.687 3636.99 359.646 3637.5 359.817 3638.36C360.03 3639.42 360.468 3640.17 361.357 3641.03C362.246 3641.9 363.541 3642.58 364.271 3642.57C364.822 3642.55 366.515 3641.96 367.835 3641.32C370.12 3640.19 371.272 3638.83 372.907 3635.28C374.013 3632.9 374.474 3631.57 374.667 3630.3C374.779 3629.49 374.767 3628.25 374.652 3627.62ZM373.597 3631.95C373.175 3633.3 371.615 3636.7 370.906 3637.82C370.596 3638.31 370.007 3639.02 369.617 3639.4C368.409 3640.51 364.853 3642.16 363.991 3641.99C363.437 3641.88 361.788 3640.81 361.368 3640.28C361.157 3640.01 360.866 3639.53 360.705 3639.2C360.305 3638.38 360.299 3636.79 360.695 3634.82L360.986 3633.34L361.902 3632.35C362.53 3631.67 363.085 3631.21 363.618 3630.93C364.48 3630.47 364.83 3630.04 365.569 3628.49C366.036 3627.51 366.752 3626.75 367.489 3626.42C367.755 3626.3 368.343 3626.21 368.881 3626.2C369.65 3626.18 369.933 3626.24 370.606 3626.56C372.198 3627.32 373.632 3629.19 373.896 3630.85C373.909 3630.9 373.765 3631.39 373.597 3631.95Z" fill="url(#paint59_linear_314_7501)"/>
<path d="M373.432 3622.29C371.385 3620.57 368.817 3619.69 367.017 3620.07C365.716 3620.35 365.058 3620.79 363.589 3622.33C362.861 3623.11 362.131 3623.78 361.991 3623.83C361.711 3623.93 361.626 3624.16 361.856 3624.16C362.228 3624.15 363.049 3623.54 364.067 3622.52C364.72 3621.87 365.49 3621.24 365.896 3621.03C366.53 3620.7 366.722 3620.66 367.939 3620.64C369.143 3620.61 369.388 3620.66 370.266 3620.99C370.795 3621.2 371.805 3621.69 372.505 3622.09C373.192 3622.47 373.787 3622.77 373.825 3622.74C373.85 3622.7 373.68 3622.5 373.432 3622.29Z" fill="url(#paint60_linear_314_7501)"/>
<path d="M374.118 3671.84C373.135 3670.73 372.069 3669.31 371.051 3667.75C370.522 3666.94 370.074 3666.3 370.036 3666.33C369.873 3666.51 371.491 3669.27 372.344 3670.28C373.184 3671.25 374.739 3672.75 374.736 3672.58C374.735 3672.56 374.459 3672.22 374.118 3671.84Z" fill="url(#paint61_linear_314_7501)"/>
<path d="M368.6 3661.18C368.13 3660.73 368.014 3660.68 367.54 3660.73C367.067 3660.78 366.978 3660.83 366.794 3661.23C366.13 3662.65 367.748 3664.08 368.79 3663C369.343 3662.42 369.28 3661.83 368.6 3661.18Z" fill="url(#paint62_linear_314_7501)"/>
<path d="M368.24 3670.16C367.938 3669.77 367.319 3668.96 366.858 3668.34C366.398 3667.74 366.004 3667.27 365.966 3667.31C365.753 3667.53 368.376 3671.2 368.748 3671.19C368.927 3671.18 368.74 3670.79 368.24 3670.16Z" fill="url(#paint63_linear_314_7501)"/>
<path d="M366.463 3669.72C365.656 3668.43 365.237 3668.01 365.626 3668.89C366.069 3669.9 367.281 3671.55 367.273 3671.13C367.272 3671.06 366.913 3670.43 366.463 3669.72Z" fill="url(#paint64_linear_314_7501)"/>
<path d="M366.144 3649.72C365.883 3649.51 365.534 3649.33 365.355 3649.34C364.291 3649.36 363.686 3650.54 364.33 3651.33C364.698 3651.77 365.241 3652.03 365.805 3652.02C366.215 3652.01 366.291 3651.96 366.45 3651.56C366.535 3651.31 366.616 3650.89 366.61 3650.61C366.602 3650.2 366.522 3650.05 366.144 3649.72Z" fill="url(#paint65_linear_314_7501)"/>
<path d="M363.984 3657.76C363.644 3655.51 363.182 3654.19 362.176 3652.55C360.679 3650.14 358.659 3648.43 356.923 3648.16C355.38 3647.91 353.641 3649.4 353.029 3651.52C352.669 3652.76 352.135 3656.19 352.018 3658.04C351.791 3661.45 352.568 3664.49 354.047 3665.98C354.923 3666.86 356.302 3667.23 358.672 3667.2C360.312 3667.18 360.784 3667.05 361.592 3666.41C362.159 3665.95 363.34 3663.44 363.694 3661.91C363.965 3660.72 364.116 3658.6 363.984 3657.76ZM359.829 3663.48C359.598 3664.74 359.059 3666.01 358.556 3666.51C358.241 3666.81 358.216 3666.81 357.175 3666.68C354.901 3666.4 353.751 3665.29 352.982 3662.7C352.734 3661.85 352.686 3661.36 352.66 3659.39C352.621 3657.43 352.671 3656.74 352.953 3654.77C353.145 3653.5 353.4 3652.11 353.52 3651.69L353.748 3650.91L354.274 3650.93C355.581 3650.95 357.779 3652.53 358.707 3654.08C359.224 3654.97 359.768 3656.55 359.945 3657.71C360.15 3659.02 360.097 3662.12 359.829 3663.48Z" fill="url(#paint66_linear_314_7501)"/>
<path d="M359.151 3640.33C358.955 3640.13 358.547 3640.26 358.03 3640.66C356.894 3641.56 356.749 3641.98 357.253 3642.85C357.77 3643.72 358.448 3643.67 358.879 3642.74C359.186 3642.09 359.36 3640.52 359.151 3640.33Z" fill="url(#paint67_linear_314_7501)"/>
<path d="M358.627 3628.76C358.564 3628.81 358.373 3629.49 358.209 3630.29C357.681 3632.76 357.301 3634.27 357.129 3634.63C357.03 3634.83 356.516 3635.4 355.975 3635.91C355.434 3636.42 355.033 3636.87 355.085 3636.92C355.202 3637.03 356.568 3636.1 356.994 3635.61C357.696 3634.81 357.975 3633.99 358.472 3631.29C358.773 3629.65 358.83 3628.63 358.627 3628.76Z" fill="url(#paint68_linear_314_7501)"/>
<path d="M358.146 3635.55C357.998 3635.19 357.875 3635.42 357.8 3636.19C357.697 3637.44 357.456 3638.2 356.822 3639.23C356.214 3640.23 356.193 3640.47 356.724 3640.1C357.571 3639.52 358.293 3637.77 358.24 3636.42C358.233 3636.02 358.186 3635.62 358.146 3635.55Z" fill="url(#paint69_linear_314_7501)"/>
</g>
<defs>
<filter id="filter0_f_314_7501" x="29" y="3287" width="508" height="508" filterUnits="userSpaceOnUse" color-interpolation-filters="sRGB">
<feFlood flood-opacity="0" result="BackgroundImageFix"/>
<feBlend mode="normal" in="SourceGraphic" in2="BackgroundImageFix" result="shape"/>
<feGaussianBlur stdDeviation="91.5" result="effect1_foregroundBlur_314_7501"/>
</filter>
<filter id="filter1_f_314_7501" x="46" y="-15" width="624" height="624" filterUnits="userSpaceOnUse" color-interpolation-filters="sRGB">
<feFlood flood-opacity="0" result="BackgroundImageFix"/>
<feBlend mode="normal" in="SourceGraphic" in2="BackgroundImageFix" result="shape"/>
<feGaussianBlur stdDeviation="91.5" result="effect1_foregroundBlur_314_7501"/>
</filter>
<filter id="filter2_f_314_7501" x="61" y="3952" width="669" height="669" filterUnits="userSpaceOnUse" color-interpolation-filters="sRGB">
<feFlood flood-opacity="0" result="BackgroundImageFix"/>
<feBlend mode="normal" in="SourceGraphic" in2="BackgroundImageFix" result="shape"/>
<feGaussianBlur stdDeviation="91.5" result="effect1_foregroundBlur_314_7501"/>
</filter>
<filter id="filter3_f_314_7501" x="-266" y="2657" width="532" height="532" filterUnits="userSpaceOnUse" color-interpolation-filters="sRGB">
<feFlood flood-opacity="0" result="BackgroundImageFix"/>
<feBlend mode="normal" in="SourceGraphic" in2="BackgroundImageFix" result="shape"/>
<feGaussianBlur stdDeviation="91.5" result="effect1_foregroundBlur_314_7501"/>
</filter>
<linearGradient id="paint0_linear_314_7501" x1="3.76686e-08" y1="11.3712" x2="30.0104" y2="11.6024" gradientUnits="userSpaceOnUse">
<stop stop-color="#41A380"/>
<stop offset="1" stop-color="#63D5AC"/>
</linearGradient>
<linearGradient id="paint1_linear_314_7501" x1="54.1944" y1="3536.98" x2="-25.9895" y2="3499.42" gradientUnits="userSpaceOnUse">
<stop stop-color="#41A380"/>
<stop offset="1" stop-color="#63D5AC"/>
</linearGradient>
<linearGradient id="paint2_linear_314_7501" x1="0.698656" y1="3566.88" x2="-17.7631" y2="3559.22" gradientUnits="userSpaceOnUse">
<stop stop-color="#41A380"/>
<stop offset="1" stop-color="#63D5AC"/>
</linearGradient>
<linearGradient id="paint3_linear_314_7501" x1="1.69329" y1="3564.6" x2="-2.77492" y2="3562.6" gradientUnits="userSpaceOnUse">
<stop stop-color="#41A380"/>
<stop offset="1" stop-color="#63D5AC"/>
</linearGradient>
<linearGradient id="paint4_linear_314_7501" x1="2.922" y1="3564.42" x2="-1.33806" y2="3562.52" gradientUnits="userSpaceOnUse">
<stop stop-color="#41A380"/>
<stop offset="1" stop-color="#63D5AC"/>
</linearGradient>
<linearGradient id="paint5_linear_314_7501" x1="-0.62212" y1="3556.57" x2="-5.26138" y2="3554.39" gradientUnits="userSpaceOnUse">
<stop stop-color="#41A380"/>
<stop offset="1" stop-color="#63D5AC"/>
</linearGradient>
<linearGradient id="paint6_linear_314_7501" x1="3.19697" y1="3550.91" x2="-2.29503" y2="3548.31" gradientUnits="userSpaceOnUse">
<stop stop-color="#41A380"/>
<stop offset="1" stop-color="#63D5AC"/>
</linearGradient>
<linearGradient id="paint7_linear_314_7501" x1="12.4232" y1="3553.31" x2="0.799696" y2="3547.85" gradientUnits="userSpaceOnUse">
<stop stop-color="#41A380"/>
<stop offset="1" stop-color="#63D5AC"/>
</linearGradient>
<linearGradient id="paint8_linear_314_7501" x1="37.327" y1="3562.94" x2="26.9002" y2="3558.03" gradientUnits="userSpaceOnUse">
<stop stop-color="#41A380"/>
<stop offset="1" stop-color="#63D5AC"/>
</linearGradient>
<linearGradient id="paint9_linear_314_7501" x1="24.6765" y1="3561.34" x2="21.7925" y2="3559.97" gradientUnits="userSpaceOnUse">
<stop stop-color="#41A380"/>
<stop offset="1" stop-color="#63D5AC"/>
</linearGradient>
<linearGradient id="paint10_linear_314_7501" x1="29.6098" y1="3561.23" x2="24.1196" y2="3558.63" gradientUnits="userSpaceOnUse">
<stop stop-color="#41A380"/>
<stop offset="1" stop-color="#63D5AC"/>
</linearGradient>
<linearGradient id="paint11_linear_314_7501" x1="14.6119" y1="3552.69" x2="11.7729" y2="3551.34" gradientUnits="userSpaceOnUse">
<stop stop-color="#41A380"/>
<stop offset="1" stop-color="#63D5AC"/>
</linearGradient>
<linearGradient id="paint12_linear_314_7501" x1="15.9517" y1="3553.12" x2="14.5743" y2="3552.46" gradientUnits="userSpaceOnUse">
<stop stop-color="#41A380"/>
<stop offset="1" stop-color="#63D5AC"/>
</linearGradient>
<linearGradient id="paint13_linear_314_7501" x1="24.8187" y1="3555.11" x2="22.322" y2="3553.93" gradientUnits="userSpaceOnUse">
<stop stop-color="#41A380"/>
<stop offset="1" stop-color="#63D5AC"/>
</linearGradient>
<linearGradient id="paint14_linear_314_7501" x1="-0.860058" y1="3539.02" x2="-4.04605" y2="3537.52" gradientUnits="userSpaceOnUse">
<stop stop-color="#41A380"/>
<stop offset="1" stop-color="#63D5AC"/>
</linearGradient>
<linearGradient id="paint15_linear_314_7501" x1="35.9454" y1="3554.86" x2="33.9444" y2="3553.92" gradientUnits="userSpaceOnUse">
<stop stop-color="#41A380"/>
<stop offset="1" stop-color="#63D5AC"/>
</linearGradient>
<linearGradient id="paint16_linear_314_7501" x1="37.7131" y1="3553.69" x2="36.313" y2="3553.03" gradientUnits="userSpaceOnUse">
<stop stop-color="#41A380"/>
<stop offset="1" stop-color="#63D5AC"/>
</linearGradient>
<linearGradient id="paint17_linear_314_7501" x1="22.5326" y1="3546.83" x2="20.6937" y2="3545.97" gradientUnits="userSpaceOnUse">
<stop stop-color="#41A380"/>
<stop offset="1" stop-color="#63D5AC"/>
</linearGradient>
<linearGradient id="paint18_linear_314_7501" x1="11.4472" y1="3539.99" x2="9.35339" y2="3539.01" gradientUnits="userSpaceOnUse">
<stop stop-color="#41A380"/>
<stop offset="1" stop-color="#63D5AC"/>
</linearGradient>
<linearGradient id="paint19_linear_314_7501" x1="30.5896" y1="3548.1" x2="25.9704" y2="3545.95" gradientUnits="userSpaceOnUse">
<stop stop-color="#41A380"/>
<stop offset="1" stop-color="#63D5AC"/>
</linearGradient>
<linearGradient id="paint20_linear_314_7501" x1="34.6779" y1="3544.85" x2="27.6795" y2="3541.56" gradientUnits="userSpaceOnUse">
<stop stop-color="#41A380"/>
<stop offset="1" stop-color="#63D5AC"/>
</linearGradient>
<linearGradient id="paint21_linear_314_7501" x1="18.1052" y1="3540.59" x2="16.3708" y2="3539.78" gradientUnits="userSpaceOnUse">
<stop stop-color="#41A380"/>
<stop offset="1" stop-color="#63D5AC"/>
</linearGradient>
<linearGradient id="paint22_linear_314_7501" x1="37.2975" y1="3542.24" x2="31.2679" y2="3539.39" gradientUnits="userSpaceOnUse">
<stop stop-color="#41A380"/>
<stop offset="1" stop-color="#63D5AC"/>
</linearGradient>
<linearGradient id="paint23_linear_314_7501" x1="2.93899" y1="3531.06" x2="-1.50485" y2="3529.06" gradientUnits="userSpaceOnUse">
<stop stop-color="#41A380"/>
<stop offset="1" stop-color="#63D5AC"/>
</linearGradient>
<linearGradient id="paint24_linear_314_7501" x1="9.48215" y1="3527.65" x2="-10.3425" y2="3518.57" gradientUnits="userSpaceOnUse">
<stop stop-color="#41A380"/>
<stop offset="1" stop-color="#63D5AC"/>
</linearGradient>
<linearGradient id="paint25_linear_314_7501" x1="18.1567" y1="3531.87" x2="15.6409" y2="3530.68" gradientUnits="userSpaceOnUse">
<stop stop-color="#41A380"/>
<stop offset="1" stop-color="#63D5AC"/>
</linearGradient>
<linearGradient id="paint26_linear_314_7501" x1="17.6878" y1="3521.21" x2="-4.23867" y2="3510.96" gradientUnits="userSpaceOnUse">
<stop stop-color="#41A380"/>
<stop offset="1" stop-color="#63D5AC"/>
</linearGradient>
<linearGradient id="paint27_linear_314_7501" x1="41.6658" y1="3539.73" x2="38.4629" y2="3538.21" gradientUnits="userSpaceOnUse">
<stop stop-color="#41A380"/>
<stop offset="1" stop-color="#63D5AC"/>
</linearGradient>
<linearGradient id="paint28_linear_314_7501" x1="43.7546" y1="3545.5" x2="41.8819" y2="3544.62" gradientUnits="userSpaceOnUse">
<stop stop-color="#41A380"/>
<stop offset="1" stop-color="#63D5AC"/>
</linearGradient>
<linearGradient id="paint29_linear_314_7501" x1="39.9328" y1="3539.98" x2="38.5165" y2="3539.3" gradientUnits="userSpaceOnUse">
<stop stop-color="#41A380"/>
<stop offset="1" stop-color="#63D5AC"/>
</linearGradient>
<linearGradient id="paint30_linear_314_7501" x1="17.3621" y1="3530.83" x2="15.9027" y2="3530.14" gradientUnits="userSpaceOnUse">
<stop stop-color="#41A380"/>
<stop offset="1" stop-color="#63D5AC"/>
</linearGradient>
<linearGradient id="paint31_linear_314_7501" x1="24.5059" y1="3533.47" x2="21.6993" y2="3532.15" gradientUnits="userSpaceOnUse">
<stop stop-color="#41A380"/>
<stop offset="1" stop-color="#63D5AC"/>
</linearGradient>
<linearGradient id="paint32_linear_314_7501" x1="20.7939" y1="3520.08" x2="13.9133" y2="3516.82" gradientUnits="userSpaceOnUse">
<stop stop-color="#41A380"/>
<stop offset="1" stop-color="#63D5AC"/>
</linearGradient>
<linearGradient id="paint33_linear_314_7501" x1="46.4552" y1="3540.51" x2="43.9938" y2="3539.35" gradientUnits="userSpaceOnUse">
<stop stop-color="#41A380"/>
<stop offset="1" stop-color="#63D5AC"/>
</linearGradient>
<linearGradient id="paint34_linear_314_7501" x1="48.4919" y1="3537.03" x2="45.8136" y2="3535.76" gradientUnits="userSpaceOnUse">
<stop stop-color="#41A380"/>
<stop offset="1" stop-color="#63D5AC"/>
</linearGradient>
<linearGradient id="paint35_linear_314_7501" x1="31.5956" y1="3533.1" x2="30.1136" y2="3532.41" gradientUnits="userSpaceOnUse">
<stop stop-color="#41A380"/>
<stop offset="1" stop-color="#63D5AC"/>
</linearGradient>
<linearGradient id="paint36_linear_314_7501" x1="53.9373" y1="3533.39" x2="49.7328" y2="3531.4" gradientUnits="userSpaceOnUse">
<stop stop-color="#41A380"/>
<stop offset="1" stop-color="#63D5AC"/>
</linearGradient>
<linearGradient id="paint37_linear_314_7501" x1="2.04493" y1="3510.03" x2="-4.63026" y2="3506.89" gradientUnits="userSpaceOnUse">
<stop stop-color="#41A380"/>
<stop offset="1" stop-color="#63D5AC"/>
</linearGradient>
<linearGradient id="paint38_linear_314_7501" x1="33.1342" y1="3523.43" x2="22.2802" y2="3518.39" gradientUnits="userSpaceOnUse">
<stop stop-color="#41A380"/>
<stop offset="1" stop-color="#63D5AC"/>
</linearGradient>
<linearGradient id="paint39_linear_314_7501" x1="39.459" y1="3522.38" x2="23.8293" y2="3515.1" gradientUnits="userSpaceOnUse">
<stop stop-color="#41A380"/>
<stop offset="1" stop-color="#63D5AC"/>
</linearGradient>
<linearGradient id="paint40_linear_314_7501" x1="46.0427" y1="3521.14" x2="27.1285" y2="3512.34" gradientUnits="userSpaceOnUse">
<stop stop-color="#41A380"/>
<stop offset="1" stop-color="#63D5AC"/>
</linearGradient>
<linearGradient id="paint41_linear_314_7501" x1="47.2675" y1="3522.87" x2="43.5662" y2="3521.12" gradientUnits="userSpaceOnUse">
<stop stop-color="#41A380"/>
<stop offset="1" stop-color="#63D5AC"/>
</linearGradient>
<linearGradient id="paint42_linear_314_7501" x1="3.49275" y1="3506.9" x2="-2.32791" y2="3504.2" gradientUnits="userSpaceOnUse">
<stop stop-color="#41A380"/>
<stop offset="1" stop-color="#63D5AC"/>
</linearGradient>
<linearGradient id="paint43_linear_314_7501" x1="10.3787" y1="3505.62" x2="7.93719" y2="3504.48" gradientUnits="userSpaceOnUse">
<stop stop-color="#41A380"/>
<stop offset="1" stop-color="#63D5AC"/>
</linearGradient>
<linearGradient id="paint44_linear_314_7501" x1="4.75639" y1="3502.18" x2="1.15164" y2="3500.5" gradientUnits="userSpaceOnUse">
<stop stop-color="#41A380"/>
<stop offset="1" stop-color="#63D5AC"/>
</linearGradient>
<linearGradient id="paint45_linear_314_7501" x1="4.14735" y1="3500.87" x2="1.58" y2="3499.69" gradientUnits="userSpaceOnUse">
<stop stop-color="#41A380"/>
<stop offset="1" stop-color="#63D5AC"/>
</linearGradient>
<linearGradient id="paint46_linear_314_7501" x1="21.6925" y1="3508.43" x2="19.231" y2="3507.28" gradientUnits="userSpaceOnUse">
<stop stop-color="#41A380"/>
<stop offset="1" stop-color="#63D5AC"/>
</linearGradient>
<linearGradient id="paint47_linear_314_7501" x1="26.5786" y1="3501.4" x2="9.07383" y2="3493.29" gradientUnits="userSpaceOnUse">
<stop stop-color="#41A380"/>
<stop offset="1" stop-color="#63D5AC"/>
</linearGradient>
<linearGradient id="paint48_linear_314_7501" x1="33.0408" y1="3506.07" x2="30.0988" y2="3504.7" gradientUnits="userSpaceOnUse">
<stop stop-color="#41A380"/>
<stop offset="1" stop-color="#63D5AC"/>
</linearGradient>
<linearGradient id="paint49_linear_314_7501" x1="43.9236" y1="3509.96" x2="36.4821" y2="3506.55" gradientUnits="userSpaceOnUse">
<stop stop-color="#41A380"/>
<stop offset="1" stop-color="#63D5AC"/>
</linearGradient>
<linearGradient id="paint50_linear_314_7501" x1="37.7483" y1="3507.52" x2="33.2955" y2="3505.49" gradientUnits="userSpaceOnUse">
<stop stop-color="#41A380"/>
<stop offset="1" stop-color="#63D5AC"/>
</linearGradient>
<linearGradient id="paint51_linear_314_7501" x1="375.995" y1="3607.49" x2="378.392" y2="3696" gradientUnits="userSpaceOnUse">
<stop stop-color="#41A380"/>
<stop offset="1" stop-color="#63D5AC"/>
</linearGradient>
<linearGradient id="paint52_linear_314_7501" x1="378.276" y1="3647.19" x2="378.949" y2="3671.38" gradientUnits="userSpaceOnUse">
<stop stop-color="#41A380"/>
<stop offset="1" stop-color="#63D5AC"/>
</linearGradient>
<linearGradient id="paint53_linear_314_7501" x1="375.873" y1="3644.92" x2="376.047" y2="3652.53" gradientUnits="userSpaceOnUse">
<stop stop-color="#41A380"/>
<stop offset="1" stop-color="#63D5AC"/>
</linearGradient>
<linearGradient id="paint54_linear_314_7501" x1="378.6" y1="3612.56" x2="378.665" y2="3615.52" gradientUnits="userSpaceOnUse">
<stop stop-color="#41A380"/>
<stop offset="1" stop-color="#63D5AC"/>
</linearGradient>
<linearGradient id="paint55_linear_314_7501" x1="372.902" y1="3609.33" x2="373.004" y2="3613.98" gradientUnits="userSpaceOnUse">
<stop stop-color="#41A380"/>
<stop offset="1" stop-color="#63D5AC"/>
</linearGradient>
<linearGradient id="paint56_linear_314_7501" x1="375.3" y1="3666.19" x2="375.489" y2="3673.56" gradientUnits="userSpaceOnUse">
<stop stop-color="#41A380"/>
<stop offset="1" stop-color="#63D5AC"/>
</linearGradient>
<linearGradient id="paint57_linear_314_7501" x1="373.332" y1="3632.39" x2="373.694" y2="3644.35" gradientUnits="userSpaceOnUse">
<stop stop-color="#41A380"/>
<stop offset="1" stop-color="#63D5AC"/>
</linearGradient>
<linearGradient id="paint58_linear_314_7501" x1="369.555" y1="3627.21" x2="370.063" y2="3644.44" gradientUnits="userSpaceOnUse">
<stop stop-color="#41A380"/>
<stop offset="1" stop-color="#63D5AC"/>
</linearGradient>
<linearGradient id="paint59_linear_314_7501" x1="365.491" y1="3621.88" x2="366.113" y2="3642.73" gradientUnits="userSpaceOnUse">
<stop stop-color="#41A380"/>
<stop offset="1" stop-color="#63D5AC"/>
</linearGradient>
<linearGradient id="paint60_linear_314_7501" x1="366.495" y1="3620.01" x2="366.586" y2="3624.1" gradientUnits="userSpaceOnUse">
<stop stop-color="#41A380"/>
<stop offset="1" stop-color="#63D5AC"/>
</linearGradient>
<linearGradient id="paint61_linear_314_7501" x1="371.858" y1="3666.29" x2="372.051" y2="3672.71" gradientUnits="userSpaceOnUse">
<stop stop-color="#41A380"/>
<stop offset="1" stop-color="#63D5AC"/>
</linearGradient>
<linearGradient id="paint62_linear_314_7501" x1="367.622" y1="3660.72" x2="367.696" y2="3663.41" gradientUnits="userSpaceOnUse">
<stop stop-color="#41A380"/>
<stop offset="1" stop-color="#63D5AC"/>
</linearGradient>
<linearGradient id="paint63_linear_314_7501" x1="367.067" y1="3667.28" x2="367.187" y2="3671.26" gradientUnits="userSpaceOnUse">
<stop stop-color="#41A380"/>
<stop offset="1" stop-color="#63D5AC"/>
</linearGradient>
<linearGradient id="paint64_linear_314_7501" x1="366.175" y1="3668.41" x2="366.264" y2="3671.24" gradientUnits="userSpaceOnUse">
<stop stop-color="#41A380"/>
<stop offset="1" stop-color="#63D5AC"/>
</linearGradient>
<linearGradient id="paint65_linear_314_7501" x1="365.058" y1="3649.34" x2="365.133" y2="3652.06" gradientUnits="userSpaceOnUse">
<stop stop-color="#41A380"/>
<stop offset="1" stop-color="#63D5AC"/>
</linearGradient>
<linearGradient id="paint66_linear_314_7501" x1="356.584" y1="3648.13" x2="357.192" y2="3667.41" gradientUnits="userSpaceOnUse">
<stop stop-color="#41A380"/>
<stop offset="1" stop-color="#63D5AC"/>
</linearGradient>
<linearGradient id="paint67_linear_314_7501" x1="357.857" y1="3640.26" x2="357.955" y2="3643.5" gradientUnits="userSpaceOnUse">
<stop stop-color="#41A380"/>
<stop offset="1" stop-color="#63D5AC"/>
</linearGradient>
<linearGradient id="paint68_linear_314_7501" x1="356.448" y1="3628.79" x2="356.738" y2="3636.97" gradientUnits="userSpaceOnUse">
<stop stop-color="#41A380"/>
<stop offset="1" stop-color="#63D5AC"/>
</linearGradient>
<linearGradient id="paint69_linear_314_7501" x1="357.038" y1="3635.4" x2="357.224" y2="3640.29" gradientUnits="userSpaceOnUse">
<stop stop-color="#41A380"/>
<stop offset="1" stop-color="#63D5AC"/>
</linearGradient>
</defs>
</svg>
