<svg width="375" height="1034" viewBox="0 0 375 1034" fill="none" xmlns="http://www.w3.org/2000/svg">
<path d="M167.622 17.6682C104.42 53.2842 64.182 37.4358 24.7377 43.9364C-29.3887 71.7892 -7.28678 135.586 -17.601 179.351C-27.9153 223.116 -35.5189 291.426 -31.4597 331.124C-27.4005 370.823 -51.5314 420.826 -59.1242 479.049C-66.7171 537.272 -21.07 617.34 -31.5258 669.028C-41.9816 720.716 -170.512 805.49 -160.498 912.3C-150.485 1019.11 23.4779 1030.3 150.277 1020.37C258.873 1011.87 304.388 1056.07 442.035 1008.37C543.093 973.349 471.52 781.722 431.553 750.748C391.585 719.774 410.501 672.597 436.021 644.954C461.542 617.311 421.651 495.004 416.611 476.902C411.571 458.8 369.682 390.161 399.311 299.189C428.939 208.217 371.545 110.648 353.707 75.0263C335.87 39.4044 230.825 -17.9478 167.622 17.6682Z" fill="#232424" stroke="#2C4B40"/>
<g opacity="0.4">
<path d="M25.905 968.86C26.8632 969.078 27.4775 968.835 28.5694 967.804C28.9029 967.492 29.2296 967.214 29.3002 967.202C29.3744 967.182 29.8558 967.218 30.39 967.279C32.889 967.576 35.847 967.492 38.1726 967.069L39.0122 966.916L39.7362 967.373C41.2067 968.297 42.1488 968.451 43.3699 967.962C43.7438 967.818 44.3417 967.493 44.7134 967.237C45.8291 966.485 46.3163 966.219 47.4599 965.777C48.0965 965.526 48.728 965.209 48.9743 965.022C49.202 964.835 50.1003 964.016 50.9649 963.191C52.4301 961.784 52.547 961.655 52.7983 961.129C53.0966 960.523 53.1264 960.112 52.9559 959.347L52.8745 958.975L53.5574 958.202C54.9235 956.674 56.3392 954.597 57.0752 953.054L57.4736 952.219L58.2151 952C59.5461 951.61 59.8442 951.198 60.1171 949.407C60.4655 947.051 60.7667 945.993 61.7397 943.76C62.0579 943.016 62.3639 942.219 62.4006 941.987C62.666 940.599 62.1984 939.489 60.6594 937.876C60.2528 937.45 59.8802 937.051 59.8158 936.992C59.7624 936.93 59.6497 936.469 59.5771 935.963C59.3645 934.531 58.9915 933.087 58.4773 931.668L57.9949 930.357L58.2909 929.833C59.1433 928.337 59.165 927.284 58.3806 925.967C57.8 924.997 51.7403 917.298 51.1339 916.749C50.6642 916.34 50.031 916.158 48.9795 916.136C47.201 916.109 45.9444 916.285 45.1612 916.669L44.74 916.874L43.5869 916.388C40.2999 914.993 36.8397 914.311 33.0936 914.305C31.0138 914.309 29.6966 914.438 27.7021 914.825L26.5619 915.047L25.644 914.59C24.9031 914.227 24.6216 914.12 24.2444 914.079C23.333 913.976 23.4621 913.899 16.7345 918.401C14.2673 920.05 13.8355 920.49 13.0748 922.104C12.6045 923.09 12.5481 923.266 12.4812 923.89L12.4007 924.582L11.916 925.191C11.3224 925.952 10.6619 926.93 10.1598 927.808L9.76938 928.472L8.96809 928.68C8.0109 928.925 7.3113 929.192 6.96568 929.452C6.49493 929.8 6.23987 930.528 5.6401 933.198C5.34397 934.535 4.99895 936.052 4.87807 936.576C4.54314 938.033 4.3824 939.028 4.41861 939.378C4.49958 940.138 4.88207 940.671 6.19724 941.863C6.59529 942.229 6.77064 942.442 6.78089 942.595C7.10151 945.658 7.45247 947.323 8.29752 949.713C9.36303 952.744 11.1326 955.752 13.291 958.215C13.5537 958.516 13.7981 958.836 13.8445 958.932C13.8799 959.032 13.8862 959.58 13.852 960.155C13.8104 960.939 13.8398 961.323 13.9616 961.668C14.131 962.164 14.5994 962.711 15.2185 963.137C15.6338 963.427 17.8027 964.63 19.3193 965.419C19.8686 965.7 20.6635 966.162 21.09 966.449C22.1426 967.146 25.2725 968.715 25.905 968.86ZM21.4019 966.182C21.1266 966.005 19.9177 965.326 18.7091 964.665C14.4701 962.363 14.1669 962.089 14.1998 960.626C14.2301 959.227 14.1934 958.646 14.0113 958.06C13.8248 957.444 13.6305 957.213 13.7486 957.759C13.781 957.904 13.7802 958.061 13.7436 958.099C13.6557 958.186 11.8615 955.869 11.1285 954.715C9.52441 952.193 8.40522 949.487 7.69986 946.378C7.33488 944.763 7.35969 944.285 7.94715 941.757C8.33748 940.067 8.84368 938.6 9.55088 937.117C10.5884 934.943 11.3877 933.809 13.2461 931.888C14.7824 930.293 14.931 930.059 15.6587 928.069C16.1027 926.868 16.2711 926.495 16.5362 926.114C16.9104 925.581 17.4278 925.135 17.9934 924.879C18.4443 924.669 19.8146 924.39 20.4516 924.371C21.357 924.351 22.9042 924.166 23.5797 924.008C24.5408 923.774 25.1452 923.398 26.0486 922.452C26.9047 921.568 27.1373 921.448 28.0688 921.431C29.0079 921.417 29.3352 921.176 29.8597 920.096C30.499 918.776 31.2403 917.938 32.3133 917.295C34.415 916.045 37.0556 916.336 40.6419 918.206C43.1106 919.496 44.7037 920.802 46.6813 923.16C47.8701 924.578 48.134 924.741 49.4223 924.867C50.7255 925 51.2829 925.109 52.1461 925.429C53.8347 926.05 56.5748 927.914 57.6338 929.159L57.9956 929.581L57.7751 930.159C57.5262 930.817 57.4484 931.251 57.5182 931.607C57.5917 931.957 57.7204 931.861 57.7499 931.432C57.7612 931.234 57.8032 931.088 57.8483 931.109C58.0664 931.213 58.9817 934.385 59.1978 935.81L59.2947 936.42L59.0239 936.291C58.881 936.222 58.7464 936.195 58.7248 936.24C58.6638 936.368 58.9079 936.669 59.7357 937.508C61.4939 939.281 62.1363 940.374 62.0446 941.476C62.0005 941.916 61.8985 942.247 61.3983 943.431C60.3515 945.915 59.9698 947.257 59.7264 949.238C59.5841 950.427 59.3672 950.998 58.9406 951.312C58.7896 951.415 58.275 951.604 57.789 951.732C56.8394 951.98 56.2009 952.331 56.2835 952.565C56.3189 952.665 56.36 952.675 56.4558 952.61C56.5257 952.561 56.6881 952.472 56.8175 952.413L57.054 952.305L56.8461 952.76C56.1465 954.246 54.5198 956.61 53.1756 958.112L52.7811 958.552L52.5563 957.881C52.3431 957.225 52.2204 957.037 52.127 957.232C52.0696 957.353 52.148 957.769 52.4571 958.979C52.883 960.661 52.7932 960.849 50.775 962.796C48.859 964.625 48.4618 964.915 47.1149 965.455C46.0049 965.904 45.7503 966.05 44.4102 966.963C44.0127 967.235 43.4148 967.559 43.0703 967.681C42.0299 968.062 41.3715 967.932 39.9095 967.067C39.3896 966.763 38.7762 966.443 38.5434 966.35C38.1455 966.197 38.1268 966.197 38.3273 966.358C38.4447 966.46 38.5288 966.574 38.5109 966.612C38.4355 966.77 35.6339 967.048 33.9048 967.073C32.1385 967.097 30.1198 966.974 29.9755 966.831C29.9376 966.795 30.1558 966.705 30.4562 966.617C30.9532 966.485 31.1927 966.332 31.0348 966.256C31.0047 966.242 30.77 966.25 30.5245 966.28C29.9072 966.355 29.0626 966.848 28.3963 967.509C27.6863 968.223 27.4987 968.365 27.0537 968.485C26.72 968.584 26.4739 968.577 25.9391 968.479C25.6697 968.424 21.9415 966.542 21.4019 966.182Z" fill="url(#paint0_linear_314_4079)"/>
<path d="M26.1975 967.744C26.5363 967.517 24.3046 965.324 22.4892 964.096C22.1118 963.842 21.2349 963.377 20.2798 962.921C18.554 962.106 17.3502 961.706 15.9674 961.508C14.7304 961.333 14.4851 961.576 15.6159 961.858C16.155 961.986 16.3165 962.054 16.4611 962.215C16.7045 962.479 18.0621 963.544 18.7148 963.975C20.3676 965.079 22.2997 965.965 24.1766 966.483C25.1132 966.745 25.1132 966.745 25.3874 967.061C25.7718 967.494 26.1201 967.79 26.1975 967.744Z" fill="url(#paint1_linear_314_4079)"/>
<path d="M27.0939 965.768C27.1442 965.663 26.6123 965.113 25.8931 964.511C24.9545 963.73 24.6262 963.509 24.6104 963.658C24.5906 963.797 24.5601 963.764 25.8742 964.899C26.8815 965.768 27.0401 965.881 27.0939 965.768Z" fill="url(#paint2_linear_314_4079)"/>
<path d="M27.8955 965.616C27.7834 965.193 26.9258 964.359 26.074 963.841C25.3354 963.396 25.3506 963.616 26.1064 964.18C26.4164 964.42 26.9576 964.873 27.3027 965.195C27.7462 965.6 27.9162 965.728 27.8955 965.616Z" fill="url(#paint3_linear_314_4079)"/>
<path d="M19.5248 959.936C19.7605 959.984 20.2097 959.681 20.3533 959.38C20.4754 959.124 20.339 958.597 20.1009 958.419C19.9914 958.339 19.7815 958.276 19.6249 958.275C18.6482 958.27 18.5561 959.76 19.5248 959.936Z" fill="url(#paint4_linear_314_4079)"/>
<path d="M24.7447 962.254C24.8515 962.185 24.8247 962.144 24.4158 961.801C23.8477 961.308 23.6629 960.573 23.6439 958.716C23.6185 956.504 23.462 956.716 23.4003 959.052C23.3627 960.467 23.5044 961.079 23.9931 961.72C24.2336 962.028 24.6414 962.316 24.7447 962.254Z" fill="url(#paint5_linear_314_4079)"/>
<path d="M25.187 961.441C25.2014 961.411 25.1002 961.178 24.9726 960.923C24.6325 960.262 24.5534 959.808 24.5624 958.666C24.5712 958.125 24.567 957.282 24.5621 956.809C24.5491 956.1 24.5748 955.872 24.7331 955.56C25.1467 954.732 26.9362 953.729 28.9618 953.2C30.1043 952.895 30.2957 952.765 29.4992 952.828C28.1107 952.932 26.124 953.748 25.0263 954.674C24.7363 954.915 24.554 955.142 24.3961 955.473C24.1911 955.883 24.1712 956.021 24.2019 956.886C24.219 957.412 24.2214 958.162 24.2024 958.55C24.1464 959.771 24.3991 960.751 24.8888 961.234C25.0406 961.381 25.1727 961.471 25.187 961.441Z" fill="url(#paint6_linear_314_4079)"/>
<path d="M28.1219 961.502C28.8756 961.548 29.2472 961.486 29.9838 961.2C30.7795 960.887 31.4499 960.449 32.8605 959.312C34.1388 958.278 34.423 957.914 34.642 957.049C34.7981 956.412 34.8555 954.859 34.7332 954.283C34.5863 953.585 34.0385 953.184 33.1239 953.108C31.8022 952.994 28.9636 953.699 27.6988 954.453C26.5337 955.153 26.0013 955.805 25.7592 956.835C25.3796 958.502 25.5256 959.763 26.1966 960.583C26.597 961.079 27.4093 961.467 28.1219 961.502ZM26.8641 958.758C26.6962 958.548 26.4337 958.053 26.2697 957.642C26.012 957.002 25.9906 956.853 26.082 956.545C26.3849 955.581 27.5176 954.736 29.377 954.09C30.9178 953.551 32.8743 953.321 33.6243 953.569C34.0183 953.711 34.3519 954.018 34.3867 954.293C34.4098 954.535 34.092 955.298 33.6979 955.969C33.2457 956.724 33.0112 956.944 32.1652 957.363C31.881 957.513 31.2328 957.943 30.7329 958.333C28.9355 959.72 27.7154 959.858 26.8641 958.758Z" fill="url(#paint7_linear_314_4079)"/>
<path d="M42.0572 967.114C42.0752 967.076 41.9983 966.947 41.8992 966.826C41.8 966.704 41.7031 966.501 41.69 966.393C41.664 966.196 41.7045 966.169 42.3653 966.023C44.1323 965.629 44.5205 965.454 45.7481 964.506C46.4502 963.964 47.1693 963.54 47.78 963.305C48.6426 962.988 49.8321 962.197 50.4501 961.541C50.8083 961.158 50.9521 961.069 51.5488 960.883C51.9749 960.745 52.2409 960.613 52.2431 960.531C52.2493 960.46 52.2257 960.393 52.1881 960.375C52.0602 960.314 50.143 960.849 48.5872 961.381C45.9942 962.268 44.6249 963.009 42.8407 964.504C41.8239 965.358 41.4839 965.722 41.3936 966.085C41.2818 966.494 41.4305 966.879 41.7689 967.041C41.9118 967.109 42.0429 967.144 42.0572 967.114Z" fill="url(#paint8_linear_314_4079)"/>
<path d="M14.3793 953.727C14.5764 953.701 14.7839 953.634 14.8463 953.581C15.0367 953.394 15.1966 952.963 15.1947 952.657C15.1748 952.176 15.0403 951.955 14.6911 951.816C13.8953 951.509 13.1898 952.679 13.6996 953.449C13.9181 953.784 13.9482 953.799 14.3793 953.727Z" fill="url(#paint9_linear_314_4079)"/>
<path d="M39.6984 964.453C40.0112 964.03 40.4452 963.507 40.6647 963.279C41.1292 962.79 42.1984 961.942 42.7333 961.634C43.1796 961.376 43.256 961.273 42.941 961.372C42.5034 961.496 41.718 961.962 41.1489 962.439C40.2564 963.167 39.1895 964.552 39.1496 965.023C39.1373 965.165 39.2689 965.024 39.6984 964.453Z" fill="url(#paint10_linear_314_4079)"/>
<path d="M40.3826 965.206C41.361 963.872 42.6063 962.868 44.9702 961.474C47.028 960.258 47.0244 960.265 46.4387 960.448C44.7009 961.013 42.0639 962.766 40.9552 964.103C40.3389 964.853 39.9148 965.509 40.0201 965.56C40.0577 965.578 40.2262 965.418 40.3826 965.206Z" fill="url(#paint11_linear_314_4079)"/>
<path d="M32.1329 960.896C32.2799 960.782 32.8582 960.402 33.4221 960.052C33.9861 959.702 34.6225 959.239 34.842 959.011C35.2006 958.647 35.2839 958.511 35.6843 957.575C36.1274 956.53 36.1972 956.267 36.2923 955.352C36.3462 954.832 36.2179 954.133 36.077 954.177C36.029 954.2 35.9922 954.432 36.0045 954.697C36.0149 955.469 35.9162 955.985 35.6024 956.972C35.3585 957.696 35.2331 957.979 34.9824 958.33C34.5791 958.904 34.4177 959.049 33.3572 959.762C32.8746 960.077 32.4404 960.387 32.3892 960.436C32.3304 960.482 32.1765 960.631 32.037 960.749C31.7068 961.035 31.7987 961.171 32.1329 960.896Z" fill="url(#paint12_linear_314_4079)"/>
<path d="M11.1004 950.71C11.0006 950.552 10.582 949.881 10.171 949.213C9.77109 948.541 9.42979 948.018 9.42261 948.033C9.38671 948.108 9.7596 948.933 10.0443 949.42C10.3601 949.978 11.0439 950.887 11.1868 950.955C11.2395 950.98 11.2002 950.869 11.1004 950.71Z" fill="url(#paint13_linear_314_4079)"/>
<path d="M12.121 950.892C12.1317 950.87 11.9174 950.564 11.6351 950.208C11.3603 949.855 10.9205 949.248 10.6525 948.861C9.89794 947.753 9.88874 948.062 10.645 949.264C11.0904 949.975 12.0528 951.035 12.121 950.892Z" fill="url(#paint14_linear_314_4079)"/>
<path d="M34.8554 960.163C35.0726 960.017 35.385 959.769 35.5532 959.591C35.9405 959.166 36.7331 957.659 36.9653 956.902C37.1339 956.335 37.222 955.648 37.122 955.683C37.0962 955.698 36.9532 956.037 36.8117 956.45C36.1097 958.424 35.5305 959.367 34.6327 960.011C34.0917 960.39 34.2803 960.517 34.8554 960.163Z" fill="url(#paint15_linear_314_4079)"/>
<path d="M19.8507 951.627C20.0027 951.58 20.1535 951.476 20.1894 951.401C20.2576 951.258 20.2164 950.842 20.1277 950.679C20.0161 950.487 19.5323 950.321 19.2539 950.382C18.6638 950.516 18.6707 951.295 19.2723 951.582C19.4979 951.69 19.6472 951.706 19.8507 951.627Z" fill="url(#paint16_linear_314_4079)"/>
<path d="M14.5903 948.774C14.6228 948.513 13.9069 947.884 13.0711 947.429C12.5289 947.133 12.2307 946.926 12.1802 946.819C12.0172 946.464 11.9195 944.578 12.0052 943.353C12.0434 942.789 12.3012 942.21 12.6318 941.943C12.7752 941.836 13.2219 941.597 13.6362 941.425C14.4574 941.078 14.9583 940.744 15.0355 940.485C15.1344 940.181 14.9667 940.185 14.5998 940.508C14.4055 940.683 13.9 940.969 13.4896 941.152C12.4394 941.611 12.1604 941.847 11.8964 942.497C11.7179 942.93 11.6782 943.206 11.6658 944.162C11.6419 945.509 11.749 946.678 11.915 946.988C12.0076 947.162 12.2077 947.303 12.8699 947.638C13.4683 947.952 13.8077 948.169 14.0887 948.451C14.5479 948.902 14.5705 948.913 14.5903 948.774Z" fill="url(#paint17_linear_314_4079)"/>
<path d="M41.2222 960.192C41.586 960.107 41.9923 959.701 42.3645 959.056C42.6247 958.607 42.6491 958.517 42.5921 958.25C42.5239 957.986 42.4859 957.95 42.1897 957.855C41.7739 957.739 41.3163 957.788 41.0513 957.976C40.7756 958.186 40.349 959.119 40.3637 959.514C40.3808 960.04 40.7287 960.317 41.2222 960.192Z" fill="url(#paint18_linear_314_4079)"/>
<path d="M13.3472 946.85C13.6808 946.538 13.9185 945.265 13.8745 944.08C13.8387 943.342 13.5976 942.589 13.3494 942.471C12.9884 942.298 12.7829 942.478 12.4977 943.191C11.9238 944.627 12.1768 946.439 13.0115 946.837C13.1544 946.906 13.2813 946.911 13.3472 946.85Z" fill="url(#paint19_linear_314_4079)"/>
<path d="M9.36631 944.356C9.50541 944.219 9.6327 944.049 9.64603 943.963C9.74115 943.261 9.35678 942.828 8.80892 943.028C8.43486 943.154 8.25939 943.541 8.37153 943.964C8.43615 944.235 8.50844 944.316 8.77914 944.445C9.08744 944.592 9.11718 944.588 9.36631 944.356Z" fill="url(#paint20_linear_314_4079)"/>
<path d="M24.0505 949.616C24.5087 949.603 24.9103 949.342 25.4648 948.683C25.68 948.426 25.8842 948.172 25.9057 948.127C25.9847 947.961 25.8105 947.61 25.5378 947.369C24.9016 946.825 23.8285 947.255 23.3359 948.249C23.0807 948.764 23.0848 948.988 23.3442 949.315C23.5958 949.62 23.5958 949.62 24.0505 949.616Z" fill="url(#paint21_linear_314_4079)"/>
<path d="M19.7063 946.838C19.7583 946.826 19.9496 946.483 20.1399 946.084C20.4989 945.332 20.6801 944.642 20.6758 943.993C20.6768 943.642 20.6654 943.628 20.5949 943.853C20.5489 943.988 20.4479 944.374 20.3684 944.715C20.2964 945.059 20.0915 945.682 19.9278 946.103C19.7604 946.531 19.6619 946.854 19.7063 946.838Z" fill="url(#paint22_linear_314_4079)"/>
<path d="M19.5525 945.748C19.7611 945.33 19.9545 944.285 19.8511 944.134C19.8089 944.068 19.7906 944.087 19.7776 944.192C19.7754 944.274 19.6819 944.663 19.5772 945.057C19.319 946.024 19.3117 946.233 19.5525 945.748Z" fill="url(#paint23_linear_314_4079)"/>
<path d="M49.0912 959.201C48.9439 958.89 48.7605 958.442 48.6815 958.202C48.5625 957.812 48.5396 957.783 48.5058 957.97C48.4411 958.299 48.6522 959.037 48.8966 959.357C49.2784 959.853 49.3666 959.785 49.0912 959.201Z" fill="url(#paint24_linear_314_4079)"/>
<path d="M15.5875 943.179C15.9855 943.138 16.5274 942.815 16.6529 942.552C16.8001 942.244 16.6621 942.243 16.1873 942.561C15.9515 942.707 15.601 942.899 15.4086 942.974C15.0126 943.126 15.1039 943.225 15.5875 943.179Z" fill="url(#paint25_linear_314_4079)"/>
<path d="M50.1031 959.5C50.106 959.455 50.1035 959.112 50.0964 958.721C50.0807 958.27 50.1431 957.81 50.2556 957.438C50.4594 956.76 50.3502 956.698 50.0522 957.323C49.7937 957.865 49.7106 958.62 49.8541 959.132C49.9495 959.455 50.099 959.683 50.1031 959.5Z" fill="url(#paint26_linear_314_4079)"/>
<path d="M15.0462 942.477C15.5828 942.262 16.2096 941.684 16.2558 941.355C16.2952 941.06 16.1658 941.118 15.8601 941.526C15.6965 941.753 15.3555 942.061 15.1088 942.23C14.608 942.564 14.5835 942.654 15.0462 942.477Z" fill="url(#paint27_linear_314_4079)"/>
<path d="M39.9777 954.246C40.3771 954.28 40.6799 954.129 40.8198 953.836C41.0674 953.317 40.6018 952.725 40.0755 952.88C39.4306 953.071 39.3433 954.202 39.9777 954.246Z" fill="url(#paint28_linear_314_4079)"/>
<path d="M32.6861 950.136C33.0677 950.013 33.3794 949.728 33.665 949.245C33.8818 948.868 33.9131 948.745 33.8653 948.574C33.7896 948.307 33.4322 948.127 33.1655 948.221C32.4724 948.435 31.7879 949.328 31.949 949.784C32.0512 950.073 32.3821 950.231 32.6861 950.136Z" fill="url(#paint29_linear_314_4079)"/>
<path d="M45.4973 955.839C45.5045 955.824 45.2691 955.388 44.9579 954.879C44.6578 954.366 44.2448 953.587 44.0428 953.139C43.8372 952.699 43.6326 952.315 43.5875 952.293C43.4145 952.211 43.75 953.23 44.148 954.003C44.6151 954.882 45.4219 955.997 45.4973 955.839Z" fill="url(#paint30_linear_314_4079)"/>
<path d="M47.1205 955.377C47.3134 955.321 47.4646 955.236 47.4489 955.192C47.4257 955.144 47.3286 955.134 47.2211 955.166C46.9171 955.261 46.3675 954.962 46.039 954.528C45.4589 953.789 44.5565 951.519 44.5314 950.758C44.5164 950.344 44.852 949.738 45.4772 949.066C46.0804 948.421 46.1146 948.252 45.5485 948.684C44.9787 949.124 44.5375 949.661 44.3453 950.161C44.1352 950.698 44.2032 951.156 44.6977 952.519C45.3023 954.194 45.8207 955.024 46.4524 955.326C46.7006 955.444 46.8535 955.453 47.1205 955.377Z" fill="url(#paint31_linear_314_4079)"/>
<path d="M37.6571 950.089C38.1108 949.835 38.088 949.205 37.6143 948.979C37.1481 948.757 36.6237 949.217 36.7927 949.695C36.9067 950.017 37.4027 950.236 37.6571 950.089Z" fill="url(#paint32_linear_314_4079)"/>
<path d="M47.2673 953.812C48.0387 953.802 49.3142 952.618 50.2986 951C51.2758 949.397 51.4376 948.051 50.6931 947.696C50.3095 947.512 49.4169 947.622 48.4836 947.952C46.8762 948.515 45.7024 949.969 45.7714 951.296C45.8266 952.283 46.3374 953.516 46.7736 953.724C46.8864 953.778 47.1032 953.808 47.2673 953.812ZM46.1223 951.528C45.8635 951.238 45.9259 950.778 46.3451 950.054C47.0206 948.871 48.3262 948.108 49.9523 947.952C50.689 947.878 50.6975 947.938 50.1697 949.044C49.3652 950.711 47.9551 952.08 47.082 952.033C46.7946 952.016 46.3467 951.774 46.1223 951.528Z" fill="url(#paint33_linear_314_4079)"/>
<path d="M18.0754 939.322C18.328 939.276 18.6718 938.923 18.7301 938.646C18.7541 938.537 18.7357 938.344 18.696 938.214C18.5488 937.71 17.802 937.63 17.5868 938.081C17.4038 938.465 17.5178 939.194 17.781 939.319C17.8261 939.341 17.9565 939.339 18.0754 939.322Z" fill="url(#paint34_linear_314_4079)"/>
<path d="M27.8736 944.002C27.8808 943.987 27.763 943.866 27.6041 943.735C27.4526 943.607 26.9254 943.106 26.4318 942.612C25.551 941.729 25.3054 941.547 25.559 941.964C25.9393 942.58 27.7767 944.205 27.8736 944.002Z" fill="url(#paint35_linear_314_4079)"/>
<path d="M30.4622 944.676C30.9931 944.763 30.8184 944.587 29.8125 944.005C28.9499 943.51 28.3206 942.932 27.2881 941.709C25.9697 940.137 25.625 939.833 23.8487 938.698C22.4948 937.839 21.6727 936.911 21.2493 935.766C20.9788 935.036 20.8464 934.113 20.9155 933.407C20.9402 933.123 20.9282 932.877 20.8981 932.863C20.8079 932.82 20.7939 932.868 20.6776 933.441C20.4493 934.617 20.6567 935.769 21.2873 936.828C21.7874 937.677 22.4206 938.266 23.9072 939.253C25.4429 940.273 25.8635 940.65 26.9909 941.964C27.5012 942.559 28.1548 943.241 28.4426 943.489C28.9649 943.924 30.133 944.611 30.4622 944.676Z" fill="url(#paint36_linear_314_4079)"/>
<path d="M35.6492 945.473C36.7909 944.918 38.4503 943.317 38.7155 942.529C38.7862 942.323 38.7493 942.342 38.4498 942.68C37.4452 943.798 37.0055 944.217 36.1711 944.862C35.6677 945.26 35.26 945.592 35.2679 945.614C35.2757 945.636 35.446 945.569 35.6492 945.473Z" fill="url(#paint37_linear_314_4079)"/>
<path d="M31.3849 943.611C32.2705 943.729 33.3854 943.347 34.337 942.591C35.3621 941.778 36.0742 940.769 36.4335 939.628C36.7361 938.646 36.7605 937.936 36.5891 936.108C36.5295 935.498 36.4864 934.562 36.4915 934.029C36.506 931.966 36.4905 931.728 36.3447 931.298C36.061 930.46 34.7431 929.119 33.9673 928.887C33.5737 928.764 31.8084 928.845 27.9155 929.166C25.727 929.34 25.1773 929.447 24.5983 929.79C22.9798 930.763 22.0346 933.499 22.7147 935.228C23.0121 935.999 23.4233 936.472 25.1025 938.004C25.929 938.769 26.7899 939.577 27.0068 939.819C29.0605 942.057 30.7573 943.533 31.3849 943.611ZM30.6838 938.693C29.9465 937.916 29.886 937.868 29.13 937.498C28.6938 937.29 27.9385 936.957 27.4468 936.768C26.7334 936.483 26.4512 936.339 26.0467 936.025C24.8899 935.14 24.1704 933.706 24.155 932.248C24.1427 931.577 24.3267 930.63 24.5164 930.406C24.892 929.948 25.8423 929.737 28.2992 929.561C29.0659 929.503 30.402 929.392 31.2766 929.32C32.1548 929.241 33.0742 929.172 33.3129 929.175L33.76 929.167L34.1228 929.645C34.5851 930.263 34.8753 931.049 34.8797 931.698C34.8819 932.022 34.781 932.621 34.5991 933.273C34.2399 934.626 34.2101 935.037 34.3847 936.432C34.6586 938.568 34.532 939.395 33.8777 939.895C33.3668 940.289 32.8746 940.275 32.0764 939.839C31.5457 939.557 31.3298 939.371 30.6838 938.693Z" fill="url(#paint38_linear_314_4079)"/>
<path d="M51.2703 952.408C52.081 951.483 52.6314 950.6 53.244 949.238C53.7851 948.046 53.8171 947.96 53.8079 947.456C53.802 946.52 53.2421 945.661 52.6152 945.621C52.3651 945.603 52.369 945.614 52.717 945.891C53.3374 946.391 53.5621 947.062 53.3915 947.923C53.3065 948.372 53.1671 948.703 52.6125 949.768C52.2453 950.48 51.7034 951.423 51.4095 951.864C50.7457 952.869 50.6824 953.079 51.2703 952.408Z" fill="url(#paint39_linear_314_4079)"/>
<path d="M53.8266 953.785C54.1276 953.734 54.3694 953.499 54.5991 953.017C54.8828 952.423 54.8534 952.039 54.5075 951.874C54.1013 951.68 53.6364 951.938 53.3564 952.525C53.0871 953.09 53.1286 953.525 53.467 953.687C53.6024 953.752 53.7671 953.793 53.8266 953.785Z" fill="url(#paint40_linear_314_4079)"/>
<path d="M16.5696 935.471C17.425 934.956 17.8135 932.96 17.1216 932.63C16.6553 932.407 16.3044 932.581 15.8806 933.257C15.2939 934.196 15.3629 935.116 16.0322 935.436C16.3029 935.565 16.4111 935.571 16.5696 935.471Z" fill="url(#paint41_linear_314_4079)"/>
<path d="M50.8374 951.498C51.0128 951.304 51.3577 950.794 51.6218 950.357C52.4608 948.947 52.7303 947.782 52.3478 947.248C52.1296 946.931 52.0198 947.045 52.1427 947.445C52.2095 947.634 52.2483 947.921 52.251 948.07C52.2395 948.462 51.4553 950.222 50.926 951.041C50.6906 951.418 50.5029 951.754 50.5147 951.787C50.519 951.817 50.6732 951.687 50.8374 951.498Z" fill="url(#paint42_linear_314_4079)"/>
<path d="M36.119 944.181C36.7052 943.823 37.2732 943.291 37.8307 942.587C38.1292 942.193 37.7717 942.42 37.3625 942.871C37.1362 943.133 36.7736 943.486 36.557 943.669C36.0467 944.1 35.8746 944.268 35.9047 944.282C35.9197 944.289 36.0158 944.243 36.119 944.181Z" fill="url(#paint43_linear_314_4079)"/>
<path d="M40.7823 945.882C41.396 946.008 41.7659 945.853 41.992 945.378C42.43 944.46 42.1223 943.731 41.3064 943.757C40.7887 943.778 40.5123 943.951 40.2381 944.448C39.9997 944.87 39.9861 944.938 40.0811 945.242C40.1961 945.62 40.4044 945.803 40.7823 945.882Z" fill="url(#paint44_linear_314_4079)"/>
<path d="M36.2885 942.663C36.6141 942.329 37.3145 941.286 37.7398 940.492C38.7128 938.665 38.8387 937.394 38.2635 935.29C37.9082 934.003 37.8814 933.555 38.0816 932.478C38.3132 931.276 38.2457 930.643 37.8234 930.174C37.439 929.741 37.1899 929.779 37.5446 930.216C37.9107 930.668 37.9491 931.342 37.6837 932.731C37.5382 933.539 37.5978 934.15 37.9574 935.467C38.3565 936.915 38.3907 937.559 38.1173 938.713C37.9579 939.376 37.2798 940.817 36.7649 941.606C36.3735 942.214 36.069 942.89 36.2885 942.663Z" fill="url(#paint45_linear_314_4079)"/>
<path d="M55.6091 951.328C55.6496 951.301 55.6206 950.936 55.5421 950.52C55.3899 949.736 55.3481 948.875 55.4162 948.113C55.4304 947.87 55.4163 947.706 55.3908 947.74C55.2517 947.877 55.1138 948.902 55.1365 949.531C55.1602 950.217 55.4764 951.413 55.6091 951.328Z" fill="url(#paint46_linear_314_4079)"/>
<path d="M56.2084 950.322C55.9712 948.555 56.1546 947.164 56.8793 945.413C57.2503 944.499 57.2831 944.256 56.9811 944.657C56.3845 945.463 55.8494 947.397 55.8488 948.792C55.8404 949.352 56.0175 950.277 56.1517 950.48C56.2397 950.605 56.2469 950.59 56.2084 950.322Z" fill="url(#paint47_linear_314_4079)"/>
<path d="M46.2761 945.169C46.7809 945.059 47.03 944.421 46.6465 944.238C46.5488 944.191 46.3181 944.21 46.1292 944.277C45.6552 944.439 45.559 944.679 45.8227 945.036C45.983 945.242 45.9644 945.242 46.2761 945.169Z" fill="url(#paint48_linear_314_4079)"/>
<path d="M58.5075 950.439C58.7479 950.342 58.8394 950.247 58.7341 950.197C58.704 950.182 58.6295 950.184 58.5664 950.2C58.5109 950.219 58.3765 950.211 58.2716 950.179L58.0803 950.115L58.5621 949.144C59.6117 947.021 60.5017 943.51 60.468 941.665C60.4516 941.177 60.4761 941.087 60.7402 940.649C60.9756 940.272 61.0036 940.174 60.9065 940.165C60.462 940.11 58.6544 943.182 58.0831 944.961C57.6526 946.289 57.3332 948.391 57.4143 949.363C57.4763 950.104 58.0114 950.628 58.5075 950.439Z" fill="url(#paint49_linear_314_4079)"/>
<path d="M22.0008 930.841C22.1023 930.686 22.28 930.41 22.4106 930.214C23.2441 928.912 24.145 928.436 26.472 928.088C27.7323 927.904 28.5268 927.729 28.5663 927.647C28.5878 927.602 28.2744 927.581 27.8759 927.603C25.9579 927.694 24.151 928.153 23.3493 928.749C22.7681 929.174 22.3086 929.731 22.0142 930.348C21.7341 930.935 21.7249 931.245 22.0008 930.841Z" fill="url(#paint50_linear_314_4079)"/>
<path d="M20.4486 929.739C20.9234 929.614 21.5287 929.081 21.8611 928.501C22.2185 927.867 22.1897 927.715 21.6943 927.534C21.2516 927.378 20.8206 927.449 20.4047 927.74C19.7973 928.162 19.3441 929.267 19.6584 929.537C19.9272 929.767 20.1257 929.815 20.4486 929.739Z" fill="url(#paint51_linear_314_4079)"/>
<path d="M46.363 941.443C46.4097 941.345 45.7854 940.427 45.0643 939.519C44.5225 938.836 44.1807 938.487 43.6705 938.105C43.3039 937.828 42.8872 937.463 42.7387 937.29C42.1332 936.585 41.8622 935.624 41.8179 934.014C41.8017 933.331 41.7675 933.093 41.719 933.292C41.5025 934.094 41.5793 935.443 41.9012 936.336C42.1646 937.081 42.6187 937.658 43.3938 938.259C43.8474 938.605 44.2654 939.045 44.9672 939.917C45.9473 941.133 46.3199 941.533 46.363 941.443Z" fill="url(#paint52_linear_314_4079)"/>
<path d="M49.051 942.061C49.44 942.136 49.8417 942.087 49.9027 941.959C49.9422 941.877 49.8709 941.852 49.5456 941.798C49.0373 941.722 48.3755 941.406 48.0115 941.065C47.8561 940.926 47.3533 940.335 46.8917 939.754C46.2508 938.949 45.8288 938.498 45.0752 937.852C43.8899 936.833 43.5278 936.392 43.2641 935.628C43.0001 934.846 42.9752 933.892 43.1869 931.803C43.2924 930.846 43.3634 930.039 43.3556 930.017C43.2688 929.753 42.9779 931.176 42.7256 933.079C42.5022 934.728 42.755 935.921 43.5029 936.87C43.728 937.153 44.3505 937.764 44.8921 938.235C45.6342 938.867 46.0523 939.307 46.5944 940.01C47.606 941.315 48.3138 941.903 49.051 942.061Z" fill="url(#paint53_linear_314_4079)"/>
<path d="M50.1464 940.672C50.8208 940.865 52.0214 940.884 52.5587 940.706C53.4109 940.43 55.1689 939.126 55.4124 938.577C55.5883 938.208 55.5813 938.029 55.4094 937.189C55.3359 936.84 55.2654 936.039 55.2614 935.409C55.2421 933.533 55.0332 933.119 53.6697 932.338C52.1553 931.467 51.4159 930.985 50.4145 930.238C49.0655 929.234 48.779 929.06 48.2321 928.909C47.554 928.724 46.9918 928.76 46.2288 929.024C45.4657 929.288 44.6931 929.843 44.4884 930.272C44.334 930.596 44.1874 931.755 44.175 932.71C44.1605 934.366 44.6199 935.436 46.203 937.421C47.2637 938.759 47.9018 939.415 48.5853 939.899C49.0232 940.201 49.7491 940.557 50.1464 940.672ZM47.939 938.796C47.275 938.155 45.7531 936.254 45.3109 935.517C45.1149 935.192 44.8775 934.644 44.7707 934.307C44.4762 933.279 44.5564 930.73 44.9022 930.276C45.1318 929.988 46.2345 929.341 46.6653 929.251C46.8807 929.206 47.2454 929.177 47.484 929.18C48.0806 929.188 49.006 929.649 50.0345 930.454L50.8096 931.055L51.1191 931.878C51.3307 932.441 51.4359 932.898 51.443 933.289C51.4546 933.923 51.6023 934.252 52.2893 935.135C52.7244 935.694 52.956 936.331 52.9358 936.858C52.9281 937.048 52.808 937.416 52.6572 937.732C52.4418 938.183 52.3252 938.331 51.943 938.629C51.0351 939.332 49.5308 939.621 48.4885 939.289C48.4548 939.282 48.2121 939.055 47.939 938.796Z" fill="url(#paint54_linear_314_4079)"/>
<path d="M53.603 941.519C55.1969 940.83 56.4604 939.595 56.7636 938.436C56.9793 937.597 56.9179 937.087 56.4505 935.783C56.2075 935.131 56.0322 934.511 56.0416 934.414C56.0679 934.223 55.9577 934.106 55.8931 934.241C55.789 934.459 55.9015 935.114 56.1973 936.004C56.3867 936.575 56.5286 937.206 56.5341 937.504C56.5351 937.967 56.5038 938.091 56.1627 938.806C55.8252 939.513 55.7269 939.642 55.2797 940.056C55.0047 940.304 54.4238 940.747 53.9893 941.039C53.5659 941.326 53.2202 941.586 53.2245 941.616C53.2399 941.642 53.4069 941.601 53.603 941.519Z" fill="url(#paint55_linear_314_4079)"/>
<path d="M24.6042 927.454C25.5353 927.206 26.6684 926.999 27.8774 926.865C28.5023 926.794 29.0004 926.717 28.9961 926.688C28.9375 926.54 26.86 926.675 26.025 926.876C25.2162 927.081 23.894 927.55 23.9917 927.596C24.0068 927.603 24.2852 927.542 24.6042 927.454Z" fill="url(#paint56_linear_314_4079)"/>
<path d="M32.4083 927.356C32.8082 927.215 32.8706 927.161 32.9809 926.872C33.0912 926.583 33.0862 926.516 32.907 926.291C32.2736 925.49 30.971 926.014 31.2973 926.936C31.4702 927.426 31.8305 927.561 32.4083 927.356Z" fill="url(#paint57_linear_314_4079)"/>
<path d="M27.2944 924.526C27.6101 924.464 28.2602 924.34 28.7543 924.253C29.241 924.162 29.6269 924.069 29.6151 924.035C29.5483 923.846 26.6529 924.302 26.5488 924.521C26.4985 924.626 26.7819 924.632 27.2944 924.526Z" fill="url(#paint58_linear_314_4079)"/>
<path d="M28.068 923.62C29.0538 923.528 29.4168 923.406 28.7939 923.376C28.0815 923.34 26.7663 923.562 27.0145 923.68C27.0521 923.698 27.5249 923.675 28.068 923.62Z" fill="url(#paint59_linear_314_4079)"/>
<path d="M39.7853 929.273C39.9849 929.183 40.1871 929.03 40.2374 928.925C40.5354 928.3 40.0269 927.605 39.3772 927.747C39.0135 927.832 38.7048 928.073 38.5468 928.404C38.4319 928.645 38.4404 928.704 38.6269 928.913C38.7447 929.034 38.9677 929.206 39.1332 929.285C39.3738 929.4 39.4856 929.397 39.7853 929.273Z" fill="url(#paint60_linear_314_4079)"/>
<path d="M35.742 925.67C37.1482 926.129 38.0524 926.247 39.2954 926.138C41.1375 925.974 42.7168 925.296 43.382 924.366C43.9783 923.542 43.6164 922.094 42.5661 921.121C41.9519 920.55 40.1126 919.238 39.0727 918.63C37.1549 917.501 35.1639 917.068 33.8633 917.491C33.0963 917.744 32.479 918.437 31.8073 919.826C31.3402 920.786 31.2751 921.097 31.4138 921.754C31.5155 922.219 32.6298 923.638 33.417 924.291C34.0263 924.795 35.2134 925.501 35.742 925.67ZM33.6286 921.583C32.9633 921.081 32.3843 920.397 32.2421 919.96C32.1589 919.689 32.1661 919.674 32.5472 919.108C33.3706 917.865 34.3484 917.519 36.0836 917.831C36.6446 917.932 36.9487 918.05 38.0957 918.607C39.2464 919.156 39.6345 919.388 40.6954 920.126C41.3789 920.609 42.1121 921.163 42.3244 921.357L42.7074 921.715L42.5452 922.017C42.1489 922.77 40.5946 923.589 39.4182 923.674C38.7518 923.716 37.6756 923.572 36.9482 923.335C36.1308 923.074 34.3432 922.137 33.6286 921.583Z" fill="url(#paint61_linear_314_4079)"/>
<path d="M47.2792 927.945C47.4534 927.89 47.5005 927.617 47.4145 927.197C47.2261 926.276 47.021 926.067 46.3734 926.109C45.7146 926.154 45.547 926.564 45.9628 927.086C46.2491 927.453 47.109 928.012 47.2792 927.945Z" fill="url(#paint62_linear_314_4079)"/>
<path d="M54.16 931.021C54.1478 930.969 53.8067 930.658 53.3907 930.33C52.1083 929.301 51.3433 928.64 51.183 928.434C51.0989 928.32 50.9152 927.854 50.7763 927.39C50.6373 926.926 50.4965 926.563 50.4521 926.579C50.3521 926.614 50.4908 927.679 50.6545 928.071C50.9122 928.712 51.3109 929.115 52.7359 930.193C53.5976 930.844 54.1777 931.177 54.16 931.021Z" fill="url(#paint63_linear_314_4079)"/>
<path d="M50.3553 928.758C50.6053 928.776 50.5059 928.636 50.0798 928.368C49.3863 927.944 49.0144 927.582 48.6034 926.914C48.2002 926.269 48.0645 926.186 48.1243 926.602C48.2148 927.264 49.0182 928.193 49.8225 928.559C50.0556 928.67 50.2994 928.759 50.3553 928.758Z" fill="url(#paint64_linear_314_4079)"/>
</g>
<g opacity="0.2">
<path d="M310.889 488.953C305.642 490.139 303.179 492.787 300.214 500.456C299.301 502.784 298.343 504.929 298.024 505.158C297.705 505.431 295.241 506.39 292.458 507.349C279.411 511.776 264.996 519.171 254.503 526.749L250.717 529.488L246.064 528.94C236.621 527.845 231.602 529.305 226.721 534.6C225.216 536.198 223.026 539.211 221.794 541.356C218.054 547.701 216.274 550.166 211.667 555.051C209.112 557.79 206.74 560.848 205.964 562.354C205.28 563.815 202.771 569.978 200.445 576.094C196.521 586.502 196.248 587.415 196.248 590.61C196.202 594.308 197.023 596.408 199.669 599.786L200.946 601.429L199.395 606.861C196.248 617.634 194.149 631.237 194.149 640.595V645.662L191.001 648.492C185.345 653.559 184.843 656.298 187.717 665.793C191.549 678.254 192.552 684.189 193.009 697.518C193.191 701.946 193.556 706.602 193.921 707.834C195.883 715.321 200.81 719.703 212.214 724.039C215.225 725.181 218.008 726.276 218.464 726.413C218.875 726.596 220.517 728.604 222.068 730.932C226.493 737.505 231.739 743.759 237.624 749.557L243.098 754.897L242.87 758.184C242.186 767.587 244.558 772.837 251.538 777.493C256.693 780.917 304.776 804.654 309.064 805.932C312.348 806.845 315.907 806.251 321.153 803.878C330.003 799.815 335.797 795.98 338.762 792.237L340.359 790.229L347.201 789.909C366.726 789.042 385.43 784.249 403.952 775.439C414.216 770.509 420.42 766.766 429.361 760.147L434.471 756.358L440.082 756.449C444.598 756.495 446.241 756.358 448.202 755.673C452.947 754.03 452.49 754.715 475.117 716.599C483.42 702.63 484.515 699.435 484.469 689.666C484.469 683.687 484.333 682.682 483.192 679.441L481.96 675.835L482.918 671.681C484.059 666.523 485.017 660.132 485.427 654.609L485.792 650.409L489.259 647.488C493.411 644.019 496.239 641.051 497.334 638.952C498.839 636.121 498.383 631.922 495.053 617.314C493.365 610.011 491.495 601.703 490.856 598.827C489.077 590.839 487.526 585.544 486.522 583.9C484.333 580.34 481.185 578.605 471.879 575.821C469.05 574.953 467.682 574.314 467.271 573.584C458.466 559.205 452.81 551.81 443.002 541.995C430.593 529.534 414.763 518.852 398.295 511.776C396.288 510.909 394.326 509.905 393.87 509.54C393.459 509.129 392.136 506.436 390.95 503.514C389.308 499.543 388.259 497.717 386.844 496.302C384.837 494.248 381.233 492.65 377.173 492.011C374.436 491.554 360.887 490.733 351.535 490.413C348.159 490.322 343.141 489.911 340.359 489.5C333.516 488.542 314.356 488.176 310.889 488.953ZM339.446 491.554C341.225 491.783 348.798 492.285 356.325 492.696C382.693 494.065 384.837 494.704 388.122 502.008C391.269 508.992 392.821 511.776 395.101 514.241C397.474 516.843 398.979 517.528 397.109 515.109C396.607 514.47 396.242 513.694 396.333 513.42C396.561 512.781 410.886 519.993 417.227 523.964C431.095 532.638 443.002 543.365 453.813 557.059C459.424 564.18 460.428 566.6 463.485 580.477C465.537 589.743 466.495 598.188 466.495 607.181C466.495 620.373 465.218 627.859 460.565 641.736C456.733 653.239 456.55 654.746 457.645 666.295C458.284 673.279 458.33 675.516 457.919 678.026C457.326 681.541 455.821 684.965 453.631 687.567C451.897 689.666 445.784 694.277 442.682 695.875C438.257 698.111 431.049 702.676 428.084 705.05C423.887 708.473 421.789 711.76 419.553 718.562C417.409 724.952 416.542 726.093 411.981 728.376C407.373 730.658 406.324 732.621 406.278 739.194C406.233 747.228 404.545 753.117 400.758 758.823C393.322 769.961 379.591 774.754 357.466 773.978C342.229 773.43 331.28 770.737 315.952 763.753C306.737 759.553 305.049 759.371 298.389 761.79C291.637 764.209 288.626 764.986 283.608 765.442C273.8 766.355 255.872 763.616 247.706 759.964L244.923 758.732L244.65 755.354C244.33 751.519 243.692 749.191 242.505 747.594C241.319 746.042 240.909 746.818 241.776 749.009C242.186 750.013 242.323 750.835 242.049 750.835C240.726 750.835 228.728 737.323 224.303 730.795L222.387 728.011H224.03C224.896 728.011 225.626 727.828 225.626 727.554C225.626 726.778 223.71 725.865 217.643 723.674C204.778 719.064 199.03 715.184 196.886 709.523C196.065 707.241 195.791 705.369 195.472 698.34C194.788 683.595 193.51 676.063 190.043 665.701C187.945 659.493 187.671 656.161 189.04 653.605C189.542 652.737 191.64 650.592 193.739 648.812C197.844 645.342 200.171 642.101 199.213 641.143C198.802 640.732 198.574 640.778 198.255 641.325C198.027 641.736 197.434 642.558 196.932 643.151L196.02 644.247L195.974 641.508C195.928 632.515 198.392 616.995 201.494 606.405L202.406 603.301L205.098 606.085C207.698 608.824 208.747 609.463 208.747 608.276C208.747 607.546 207.379 605.674 202.999 600.425C196.932 593.121 196.932 591.98 202.315 577.601C207.47 564.043 208.747 561.67 214.13 555.827C218.555 550.988 219.468 549.664 223.938 541.995C225.261 539.713 227.451 536.7 228.865 535.285C233.108 530.949 236.666 530.036 245.927 530.857C249.211 531.131 252.998 531.268 254.366 531.177C256.693 530.994 256.784 530.949 255.416 530.629C254.594 530.401 253.91 530.036 253.91 529.807C253.91 528.849 267.094 520.86 275.579 516.661C284.247 512.37 294.511 508.216 295.561 508.581C295.834 508.672 294.967 509.631 293.69 510.772C291.546 512.598 290.725 513.922 291.683 513.922C291.865 513.922 293.006 513.328 294.146 512.598C297.02 510.772 300.031 506.344 301.765 501.506C303.589 496.302 304.183 495.161 306.099 493.517C307.513 492.239 308.744 491.691 311.618 490.915C313.078 490.55 335.933 491.052 339.446 491.554Z" fill="url(#paint65_linear_314_4079)"/>
<path d="M312.077 495.16C310.936 497.077 327.131 502.646 338.992 504.427C341.455 504.792 346.884 505.02 352.678 505.02C363.124 504.974 370.013 504.107 377.312 501.825C383.836 499.771 384.474 497.99 378.224 499.268C375.259 499.907 374.301 499.953 373.206 499.497C371.381 498.766 362.166 496.712 357.924 496.119C347.158 494.567 335.525 494.749 325.032 496.621C319.786 497.534 319.786 497.534 317.688 496.621C314.768 495.388 312.35 494.749 312.077 495.16Z" fill="url(#paint66_linear_314_4079)"/>
<path d="M312.305 507.029C312.305 507.668 316.228 509.129 321.2 510.407C327.678 512.051 329.822 512.37 329.549 511.594C329.321 510.864 329.549 510.955 320.379 508.444C313.354 506.527 312.305 506.344 312.305 507.029Z" fill="url(#paint67_linear_314_4079)"/>
<path d="M308.7 509.675C310.251 511.501 316.456 513.602 321.884 514.149C326.583 514.606 325.99 513.556 320.926 512.551C318.828 512.095 315.087 511.136 312.623 510.36C309.476 509.401 308.335 509.173 308.7 509.675Z" fill="url(#paint68_linear_314_4079)"/>
<path d="M363.441 517.986C362.164 518.305 360.658 520.861 360.658 522.687C360.658 524.239 362.574 526.522 364.171 526.841C364.901 526.978 366.087 526.796 366.862 526.43C371.698 524.148 368.642 516.57 363.441 517.986Z" fill="url(#paint69_linear_314_4079)"/>
<path d="M332.194 518.853C331.829 519.446 332.057 519.583 334.885 520.313C338.854 521.409 341.5 524.604 345.971 533.734C351.308 544.598 351.582 543.183 346.382 531.497C343.234 524.422 341.09 521.728 337.166 519.72C335.25 518.761 332.559 518.305 332.194 518.853Z" fill="url(#paint70_linear_314_4079)"/>
<path d="M331.92 523.919C331.92 524.101 332.969 525.014 334.201 525.973C337.44 528.438 338.9 530.492 341.546 536.153C342.777 538.846 344.785 543 345.925 545.328C347.659 548.797 348.069 549.984 348.024 551.901C347.932 556.968 341.454 566.143 332.695 573.538C327.769 577.738 327.13 578.833 330.916 576.642C337.531 572.853 345.423 564.135 348.662 556.968C349.529 555.096 349.894 553.544 349.894 551.536C349.94 549.025 349.711 548.295 347.522 544.095C346.199 541.539 344.42 537.841 343.598 535.879C340.998 529.716 337.44 525.471 333.882 524.238C332.787 523.873 331.92 523.736 331.92 523.919Z" fill="url(#paint71_linear_314_4079)"/>
<path d="M317.278 530.538C313.446 532.09 311.758 533.277 308.793 536.427C305.599 539.85 303.318 543.594 299.03 552.541C295.153 560.666 294.605 563.131 295.563 567.924C296.293 571.439 299.669 579.245 301.631 581.801C304.003 584.905 307.652 585.59 312.351 583.809C319.148 581.253 331.511 571.074 335.982 564.363C340.088 558.155 341.182 553.682 339.951 548.021C337.898 538.892 334.203 533.003 328.956 530.538C325.809 529.032 320.882 529.032 317.278 530.538ZM329.96 541.129C331.283 541.768 333.746 543.594 335.526 545.237C338.308 547.793 338.765 548.478 339.038 550.213C339.814 555.69 336.21 562.537 328.546 570.115C322.205 576.414 313.081 582.166 308.793 582.714C306.512 582.942 304.14 582.212 303.318 580.934C302.634 579.792 302.406 575.273 302.771 571.028C303.227 566.235 303.866 564.592 307.059 560.529C308.108 559.114 310.298 555.462 311.849 552.358C317.46 541.266 323.163 537.705 329.96 541.129Z" fill="url(#paint72_linear_314_4079)"/>
<path d="M235.206 535.696C235.206 535.924 235.89 536.381 236.665 536.746C237.441 537.111 238.399 537.887 238.718 538.389C239.311 539.302 239.174 539.531 236.255 541.813C228.454 547.93 226.949 549.71 223.117 557.288C220.927 561.624 218.372 565.413 215.909 568.015C212.396 571.621 208.382 578.331 206.876 583.033C206.009 585.772 205.508 586.548 202.998 588.876C201.219 590.565 200.216 591.843 200.398 592.254C200.535 592.619 200.809 592.893 201.037 592.893C201.812 592.893 210.024 585.726 216.456 579.427C227.177 568.928 232.195 562.035 237.487 550.441C240.497 543.822 241.319 541.22 240.908 539.211C240.497 536.929 238.855 535.377 236.802 535.377C235.936 535.377 235.206 535.514 235.206 535.696Z" fill="url(#paint73_linear_314_4079)"/>
<path d="M253.135 543.274C252.587 546.104 251.675 549.711 251.127 551.354C249.987 554.869 246.702 561.579 244.786 564.364C243.19 566.692 243.053 567.376 244.376 566.144C246.246 564.501 249.029 560.347 250.717 556.649C253.408 550.943 255.416 541.585 254.503 539.166C254.229 538.436 253.91 539.44 253.135 543.274Z" fill="url(#paint74_linear_314_4079)"/>
<path d="M247.977 541.174C246.289 550.076 242.502 557.973 234.108 570.435C226.809 581.299 226.809 581.253 229.273 578.971C236.526 572.078 245.422 557.197 247.748 547.976C249.026 542.818 249.573 538.573 248.935 538.573C248.706 538.573 248.25 539.759 247.977 541.174Z" fill="url(#paint75_linear_314_4079)"/>
<path d="M298.892 542.998C298.436 543.911 296.474 547.152 294.512 550.21C292.551 553.268 290.498 557.057 289.95 558.701C289.038 561.348 288.947 562.215 289.175 567.785C289.449 573.993 289.722 575.453 291.41 580.201C292.368 582.894 294.649 586.044 295.242 585.496C295.425 585.268 295.06 584.035 294.376 582.757C292.505 578.968 291.775 576.184 291 570.569C290.498 566.415 290.452 564.726 290.863 562.398C291.502 558.609 291.958 557.514 295.516 551.488C297.158 548.795 298.573 546.239 298.709 545.874C298.892 545.508 299.302 544.413 299.713 543.5C300.671 541.309 299.895 540.852 298.892 542.998Z" fill="url(#paint76_linear_314_4079)"/>
<path d="M287.168 553.041C286.438 554.273 285.48 556.236 285.069 557.514C284.157 560.527 283.792 569.839 284.431 574.13C284.933 577.325 286.119 580.931 286.529 580.521C286.62 580.384 286.529 578.375 286.256 576.001C285.069 564.589 285.708 558.564 288.628 553.269C290.407 550.119 289.175 549.936 287.168 553.041Z" fill="url(#paint77_linear_314_4079)"/>
<path d="M255.643 567.924C254.046 569.202 252.997 572.169 252.678 576.231C252.45 579.062 252.541 579.564 253.453 580.751C254.411 581.892 254.685 581.983 256.373 581.755C258.7 581.344 260.844 580.02 261.71 578.468C262.577 576.779 262.486 571.165 261.482 569.247C260.159 566.691 257.787 566.143 255.643 567.924Z" fill="url(#paint78_linear_314_4079)"/>
<path d="M365.404 579.655C363.169 580.796 361.8 583.033 360.614 587.598C360.158 589.378 359.747 591.113 359.747 591.387C359.747 592.391 361.435 593.715 363.351 594.263C367.776 595.449 372.064 590.793 372.155 584.722C372.201 581.572 371.654 580.477 369.601 579.473C367.639 578.56 367.639 578.56 365.404 579.655Z" fill="url(#paint79_linear_314_4079)"/>
<path d="M219.103 591.386C220.563 592.573 222.525 594.354 223.483 595.358C224.988 597.001 225.17 597.093 224.897 596.088C224.441 594.308 221.658 591.158 219.696 590.153C216.64 588.601 216.366 589.149 219.103 591.386Z" fill="url(#paint80_linear_314_4079)"/>
<path d="M213.398 592.298C213.489 592.526 214.31 594.215 215.268 596.132C216.409 598.323 217.184 600.743 217.503 602.842C218.096 606.677 218.781 606.723 218.781 602.934C218.781 599.647 217.412 595.721 215.496 593.53C214.264 592.161 212.987 591.385 213.398 592.298Z" fill="url(#paint81_linear_314_4079)"/>
<path d="M275.807 594.352C273.754 595.129 272.613 596.589 272.613 598.37C272.613 601.52 276.308 603.346 278.544 601.337C281.281 598.872 279.046 593.074 275.807 594.352Z" fill="url(#paint82_linear_314_4079)"/>
<path d="M321.517 597.459C319.92 598.965 319.053 601.111 318.779 604.169C318.597 606.543 318.734 607.228 319.373 607.958C320.376 609.099 322.566 609.145 323.661 608.049C326.58 605.356 327.858 599.331 325.987 597.459C324.801 596.272 322.794 596.272 321.517 597.459Z" fill="url(#paint83_linear_314_4079)"/>
<path d="M244.787 599.513C244.787 599.605 246.977 601.202 249.714 602.983C252.406 604.808 256.283 607.684 258.336 609.419C260.389 611.108 262.305 612.523 262.579 612.523C263.628 612.523 259.568 608.278 255.781 605.402C251.402 602.161 244.787 598.555 244.787 599.513Z" fill="url(#paint84_linear_314_4079)"/>
<path d="M237.854 605.629C237.033 606.36 236.485 607.136 236.668 607.318C236.896 607.501 237.398 607.318 237.854 606.908C239.131 605.721 242.553 605.903 245.199 607.273C249.806 609.555 259.614 618.639 261.53 622.337C262.58 624.345 262.352 628.134 260.846 632.927C259.386 637.537 259.614 638.45 261.394 634.981C263.173 631.466 264.085 627.769 263.857 624.847C263.629 621.697 262.215 619.598 256.558 614.029C249.624 607.181 245.108 604.306 241.276 604.306C239.77 604.306 238.995 604.625 237.854 605.629Z" fill="url(#paint85_linear_314_4079)"/>
<path d="M297.066 609.417C295.424 611.745 297.021 614.804 299.895 614.804C302.723 614.804 304.228 611.288 302.267 609.325C300.944 608.001 297.979 608.093 297.066 609.417Z" fill="url(#paint86_linear_314_4079)"/>
<path d="M240.819 613.709C237.033 615.58 233.52 624.436 232.471 634.752C231.422 644.978 233.794 652.007 238.31 652.007C240.637 652.007 244.788 649.36 248.62 645.525C255.235 638.952 257.607 629.001 254.14 622.61C251.54 617.863 246.111 612.978 243.465 612.978C242.781 612.978 241.64 613.344 240.819 613.709ZM251.859 622.291C253.821 623.112 254.596 625.532 254.231 630.096C253.684 637.537 249.031 644.384 241.366 648.995C237.899 651.094 237.717 650.82 237.717 644.11C237.763 633.976 241.503 623.888 245.928 622.062C247.388 621.469 250.171 621.606 251.859 622.291Z" fill="url(#paint87_linear_314_4079)"/>
<path d="M359.747 616.402C359.747 616.493 360.614 616.813 361.709 617.086C362.758 617.36 366.544 618.593 370.148 619.871C376.581 622.154 378.223 622.474 375.987 621.013C372.657 618.867 359.747 615.169 359.747 616.402Z" fill="url(#paint88_linear_314_4079)"/>
<path d="M345.377 619.187C342.549 620.009 343.826 620.465 350.168 620.967C355.596 621.378 360.067 622.748 368.05 626.354C378.269 631.01 380.687 631.695 392.137 633.11C400.85 634.16 407.1 636.807 411.89 641.463C414.947 644.43 417.775 648.676 419.098 652.328C419.645 653.788 420.284 654.975 420.467 654.975C421.014 654.975 420.968 654.701 420.193 651.597C418.551 645.252 414.81 640.048 409.199 636.305C404.728 633.292 400.212 631.877 390.54 630.508C380.55 629.093 377.585 628.225 368.917 624.391C364.994 622.656 360.158 620.83 358.151 620.283C354.547 619.37 347.157 618.731 345.377 619.187Z" fill="url(#paint89_linear_314_4079)"/>
<path d="M317.868 627.494C313.534 632.926 309.109 644.749 309.656 649.268C309.793 650.455 309.93 650.272 310.614 647.898C312.941 640.001 314.127 636.897 316.727 631.739C318.278 628.589 319.51 625.987 319.419 625.896C319.328 625.805 318.643 626.535 317.868 627.494Z" fill="url(#paint90_linear_314_4079)"/>
<path d="M343.326 626.627C338.672 628.134 334.065 632.653 331.145 638.633C327.998 645.069 326.857 651.734 327.769 658.216C328.591 663.785 330.142 667.345 335.297 675.973C337.03 678.848 339.448 683.368 340.68 686.015C345.47 696.24 346.108 697.381 347.842 699.162C351.218 702.631 360.889 706.146 365.268 705.461C367.504 705.142 376.035 700.577 394.51 689.804C404.911 683.778 407.375 681.953 409.428 678.894C415.13 670.267 413.351 654.518 405.915 647.58C402.631 644.476 399.483 643.106 387.576 639.5C381.691 637.674 375.533 635.711 373.89 635.026C358.471 628.818 346.61 625.532 343.326 626.627ZM358.38 649.269C363.854 651.368 364.265 651.46 368.872 651.505C371.518 651.505 376.035 651.368 378.909 651.14C383.106 650.866 384.839 650.912 387.576 651.505C395.377 653.149 402.311 658.535 405.824 665.702C407.466 668.988 408.789 674.101 408.379 675.653C407.603 678.803 403.406 682.089 391.682 688.754C388.032 690.854 381.691 694.551 377.54 696.971C373.389 699.436 369.009 701.946 367.823 702.494L365.633 703.59L362.714 702.083C358.973 700.12 355.688 696.925 354.137 693.73C353.362 692.132 352.449 688.937 351.811 685.285C350.397 677.753 349.575 675.653 345.424 669.171C339.037 659.265 337.714 654.883 339.767 650.866C341.364 647.717 343.827 646.621 348.8 646.895C352.084 647.032 353.59 647.443 358.38 649.269Z" fill="url(#paint91_linear_314_4079)"/>
<path d="M224.348 630.096C222.523 636.578 221.885 642.239 222.067 650.41C222.204 657.576 222.25 658.079 223.481 660.544C225.717 665.154 230.507 668.076 233.7 666.797C234.977 666.295 234.932 666.25 232.559 665.702C228.317 664.698 225.625 661.913 224.439 657.257C223.801 654.838 223.709 652.875 223.937 646.301C224.074 641.919 224.53 635.985 224.941 633.109C225.853 626.582 225.671 625.395 224.348 630.096Z" fill="url(#paint92_linear_314_4079)"/>
<path d="M208.476 629.32C207.107 630.279 206.469 632.013 206.469 634.935C206.469 638.541 207.518 640.367 209.616 640.367C212.08 640.367 213.768 637.993 213.768 634.432C213.768 631.009 212.536 628.955 210.483 628.955C209.662 628.955 208.75 629.137 208.476 629.32Z" fill="url(#paint93_linear_314_4079)"/>
<path d="M228.635 633.566C228.225 634.935 227.723 638.268 227.449 641.052C226.628 649.999 228.042 656.39 231.19 658.124C233.015 659.174 233.288 658.353 231.737 656.664C230.962 655.888 230.095 654.564 229.73 653.834C228.863 651.871 228.59 641.326 229.274 636.031C229.548 633.612 229.685 631.512 229.548 631.375C229.456 631.238 229 632.242 228.635 633.566Z" fill="url(#paint94_linear_314_4079)"/>
<path d="M318.596 634.98C316.543 638.13 314.992 642.101 313.897 646.894C313.349 649.542 314.581 647.579 315.539 644.384C316.041 642.558 316.999 639.956 317.638 638.541C319.143 635.209 319.599 633.976 319.417 633.976C319.325 633.976 318.96 634.433 318.596 634.98Z" fill="url(#paint95_linear_314_4079)"/>
<path d="M291.547 637.584C288.217 638.405 286.757 640.049 286.757 642.925C286.757 648.494 289.996 651.369 293.965 649.315C296.474 647.991 297.432 646.485 297.614 643.381C297.797 640.733 297.705 640.368 296.519 639.09C295.06 637.492 293.6 637.082 291.547 637.584Z" fill="url(#paint96_linear_314_4079)"/>
<path d="M321.334 642.878C320.513 645.297 319.509 652.099 319.281 657.029C318.779 668.35 321.151 674.923 328.952 683.961C333.742 689.485 334.928 691.63 336.479 697.427C338.167 703.909 339.992 706.876 343.185 708.2C346.105 709.433 347.245 708.657 344.463 707.333C341.589 705.963 339.81 702.722 337.848 695.236C336.662 690.9 334.928 688.024 330.047 682.363C324.664 676.155 322.976 673.051 321.607 666.706C320.832 663.054 320.786 654.336 321.471 649.223C321.972 645.297 321.881 641.235 321.334 642.878Z" fill="url(#paint97_linear_314_4079)"/>
<path d="M205.463 645.663C205.326 645.891 206.329 647.625 207.698 649.497C210.298 653.012 212.534 657.166 213.993 661.092C214.495 662.324 214.951 663.1 214.997 662.872C215.362 661.868 213.629 656.481 212.032 653.423C210.298 650.09 205.919 644.932 205.463 645.663Z" fill="url(#paint98_linear_314_4079)"/>
<path d="M204.869 652.051C210.206 660.222 212.579 667.526 213.126 677.888C213.445 683.275 213.856 684.553 214.403 681.86C215.453 676.473 213.537 665.655 210.252 658.762C208.975 655.977 205.918 651.823 204.778 651.139C204.048 650.728 204.048 650.819 204.869 652.051Z" fill="url(#paint99_linear_314_4079)"/>
<path d="M266.089 654.062C263.854 655.796 264.128 659.54 266.454 659.54C267.047 659.54 268.142 658.901 268.918 658.125C270.879 656.207 270.788 654.792 268.644 653.651C267.367 653.012 267.458 652.966 266.089 654.062Z" fill="url(#paint100_linear_314_4079)"/>
<path d="M193.236 656.892C192.278 657.942 192.05 658.627 192.688 658.627C192.871 658.627 193.236 658.444 193.509 658.216C193.737 657.988 194.422 657.714 195.015 657.622L196.11 657.486L196.018 663.42C195.836 676.384 199.714 695.83 204.23 704.868C205.462 707.242 205.553 707.744 205.279 710.528C205.005 712.948 205.097 713.496 205.598 713.313C207.925 712.537 209.613 693.091 208.244 682.957C207.241 675.38 203.865 664.241 201.173 659.631C199.121 656.116 195.243 654.792 193.236 656.892Z" fill="url(#paint101_linear_314_4079)"/>
<path d="M274.438 672.686C274.438 673.279 279.684 676.338 285.386 679.122C289.674 681.222 292.183 682.135 295.605 682.82C298.068 683.322 300.988 684.143 302.128 684.646C306.781 686.7 310.385 690.808 314.4 698.659C316.088 701.992 316.818 703.087 316.59 701.992C315.768 697.518 312.21 691.036 308.515 687.384C305.459 684.326 301.855 682.546 296.608 681.405C293.552 680.765 290.45 679.579 284.93 676.931C277.22 673.234 274.438 672.138 274.438 672.686Z" fill="url(#paint102_linear_314_4079)"/>
<path d="M259.703 675.972C257.605 676.52 255.734 677.707 255.734 678.483C255.734 678.985 256.145 678.939 257.878 678.437C260.57 677.616 264.584 677.616 267.185 678.437C268.28 678.757 272.157 680.491 275.807 682.272C280.871 684.737 284.018 685.969 289.264 687.384C297.522 689.621 300.35 690.945 303.452 694.094C306.6 697.335 308.972 701.992 312.85 712.81C314.583 717.786 316.134 721.94 316.225 722.031C317.275 723.127 315.359 715.412 312.12 705.415C309.337 696.742 305.277 691.447 299.346 688.525C297.567 687.658 293.051 686.106 289.264 685.056C284.109 683.687 281.007 682.5 276.674 680.309C268.599 676.246 263.718 675.014 259.703 675.972Z" fill="url(#paint103_linear_314_4079)"/>
<path d="M257.56 685.423C253.773 686.062 247.797 688.801 245.562 690.946C242.003 694.324 236.392 704.914 236.484 708.201C236.484 710.438 236.94 711.305 239.768 715.048C240.954 716.6 243.19 720.389 244.695 723.493C249.211 732.714 251.219 734.266 259.795 734.905C269.329 735.636 274.119 736.275 280.825 737.598C289.858 739.379 291.683 739.561 294.739 739.013C298.526 738.329 301.217 736.822 304.365 733.718C307.513 730.614 310.022 726.049 310.022 723.448C310.022 721.485 308.014 715.414 305.825 710.666C301.993 702.45 297.203 698.25 284.703 692.179C276.309 688.07 271.61 686.336 267.094 685.56C264.22 685.103 259.795 685.058 257.56 685.423ZM272.888 689.486C277.678 691.083 289.675 696.88 293.599 699.482C295.332 700.624 297.796 702.769 299.119 704.184C302.996 708.566 308.607 721.348 307.969 724.406C307.513 726.369 303.589 732.166 301.673 733.627C300.715 734.357 298.982 735.362 297.796 735.909C294.83 737.279 289.174 737.188 282.194 735.636L276.948 734.494L273.481 731.162C271.108 728.88 269.512 726.871 268.554 724.954C267.003 721.85 265.497 720.572 260.023 717.833C256.556 716.098 253.91 713.496 252.77 710.849C252.359 709.89 252.085 707.79 252.085 705.873C252.085 703.134 252.313 702.13 253.499 699.756C256.328 694.142 263.079 689.166 269.01 688.344C269.192 688.299 270.926 688.846 272.888 689.486Z" fill="url(#paint104_linear_314_4079)"/>
<path d="M238.49 689.392C232.24 696.559 228.91 705.643 230.141 712.079C231.054 716.735 232.559 719.109 237.942 724.45C240.679 727.097 243.006 729.745 243.188 730.247C243.508 731.251 244.329 731.571 244.329 730.749C244.329 729.425 242.23 726.458 238.672 722.761C236.391 720.387 234.201 717.602 233.472 716.142C232.377 713.859 232.24 713.175 232.24 708.838C232.24 704.547 232.422 703.68 233.654 700.576C234.43 698.704 236.254 695.144 237.714 692.679C239.128 690.259 240.223 688.16 240.132 688.023C239.995 687.931 239.265 688.525 238.49 689.392Z" fill="url(#paint105_linear_314_4079)"/>
<path d="M376.581 709.342C374.939 710.986 374.756 711.396 374.893 713.085C375.03 714.774 375.212 715.094 376.627 715.779C381.645 718.244 386.845 712.583 383.059 708.794C381.052 706.786 378.953 706.969 376.581 709.342Z" fill="url(#paint106_linear_314_4079)"/>
<path d="M335.615 717.284C334.84 718.197 334.201 719.43 334.201 720.069C334.201 723.857 338.353 726.094 341.227 723.857C342.823 722.579 343.781 720.662 343.781 718.654C343.781 717.193 343.599 716.919 342.185 716.325C341.318 716.006 339.812 715.686 338.809 715.686C337.349 715.686 336.801 715.96 335.615 717.284Z" fill="url(#paint107_linear_314_4079)"/>
<path d="M364.08 725.546C356.051 726.596 351.306 728.148 345.421 731.617C336.708 736.775 330.504 743.851 329.409 750.013C328.405 755.491 333.606 761.79 341.088 764.118C345.467 765.488 357.647 767.633 364.216 768.181C376.351 769.231 387.209 766.675 392.637 761.517C395.831 758.458 397.245 753.574 397.29 745.129C397.336 739.286 396.925 737.597 394.69 734.676C393.093 732.621 384.243 728.239 378.815 726.87C374.618 725.82 367.09 725.135 364.08 725.546ZM384.152 740.747C388.623 741.66 393.093 743.668 394.827 745.494C395.876 746.635 395.876 746.727 395.329 750.424C394.188 758.504 390.174 762.521 380.867 765.077C377.857 765.899 376.077 766.036 369.098 765.99C362.118 765.99 359.655 765.762 352.675 764.621C348.159 763.845 343.232 762.84 341.726 762.384L338.989 761.517L339.08 759.645C339.263 754.989 345.011 747.274 350.622 744.079C353.815 742.299 359.472 740.473 363.623 739.925C368.277 739.286 379.316 739.697 384.152 740.747Z" fill="url(#paint108_linear_314_4079)"/>
<path d="M301.719 741.521C300.989 742.206 301.4 743.667 302.814 745.539C305.916 749.648 307.422 750.196 310.524 748.461C313.671 746.68 313.535 744.261 310.25 742.663C307.969 741.521 302.404 740.791 301.719 741.521Z" fill="url(#paint109_linear_314_4079)"/>
<path d="M260.48 742.572C260.662 742.8 263.08 743.53 265.908 744.169C274.667 746.223 280.005 747.684 281.282 748.323C281.966 748.688 283.974 750.56 285.753 752.523C287.532 754.486 289.083 755.946 289.265 755.764C289.676 755.353 286.483 750.423 284.749 748.871C281.966 746.315 279.047 745.265 269.467 743.302C263.673 742.115 260.024 741.841 260.48 742.572Z" fill="url(#paint110_linear_314_4079)"/>
<path d="M284.61 744.764C283.333 745.266 284.154 745.722 286.891 746.042C291.316 746.498 294.007 747.411 297.611 749.74C301.124 751.977 301.991 752.068 300.713 750.151C298.706 747.092 292.548 744.398 287.712 744.49C286.298 744.49 284.884 744.627 284.61 744.764Z" fill="url(#paint111_linear_314_4079)"/>
</g>
<defs>
<linearGradient id="paint0_linear_314_4079" x1="61.4558" y1="947.329" x2="9.30235" y2="922.911" gradientUnits="userSpaceOnUse">
<stop stop-color="#41A380"/>
<stop offset="1" stop-color="#63D5AC"/>
</linearGradient>
<linearGradient id="paint1_linear_314_4079" x1="26.6683" y1="966.781" x2="14.6607" y2="961.802" gradientUnits="userSpaceOnUse">
<stop stop-color="#41A380"/>
<stop offset="1" stop-color="#63D5AC"/>
</linearGradient>
<linearGradient id="paint2_linear_314_4079" x1="27.3168" y1="965.301" x2="24.4109" y2="963.999" gradientUnits="userSpaceOnUse">
<stop stop-color="#41A380"/>
<stop offset="1" stop-color="#63D5AC"/>
</linearGradient>
<linearGradient id="paint3_linear_314_4079" x1="28.1144" y1="965.185" x2="25.3439" y2="963.948" gradientUnits="userSpaceOnUse">
<stop stop-color="#41A380"/>
<stop offset="1" stop-color="#63D5AC"/>
</linearGradient>
<linearGradient id="paint4_linear_314_4079" x1="20.3981" y1="959.287" x2="18.9567" y2="958.611" gradientUnits="userSpaceOnUse">
<stop stop-color="#41A380"/>
<stop offset="1" stop-color="#63D5AC"/>
</linearGradient>
<linearGradient id="paint5_linear_314_4079" x1="25.8104" y1="960.077" x2="22.7928" y2="958.659" gradientUnits="userSpaceOnUse">
<stop stop-color="#41A380"/>
<stop offset="1" stop-color="#63D5AC"/>
</linearGradient>
<linearGradient id="paint6_linear_314_4079" x1="28.2924" y1="956.393" x2="24.7202" y2="954.702" gradientUnits="userSpaceOnUse">
<stop stop-color="#41A380"/>
<stop offset="1" stop-color="#63D5AC"/>
</linearGradient>
<linearGradient id="paint7_linear_314_4079" x1="34.2933" y1="957.954" x2="26.7329" y2="954.403" gradientUnits="userSpaceOnUse">
<stop stop-color="#41A380"/>
<stop offset="1" stop-color="#63D5AC"/>
</linearGradient>
<linearGradient id="paint8_linear_314_4079" x1="50.4876" y1="964.22" x2="43.7057" y2="961.028" gradientUnits="userSpaceOnUse">
<stop stop-color="#41A380"/>
<stop offset="1" stop-color="#63D5AC"/>
</linearGradient>
<linearGradient id="paint9_linear_314_4079" x1="15.1948" y1="952.964" x2="13.6714" y2="952.249" gradientUnits="userSpaceOnUse">
<stop stop-color="#41A380"/>
<stop offset="1" stop-color="#63D5AC"/>
</linearGradient>
<linearGradient id="paint10_linear_314_4079" x1="42.262" y1="963.177" x2="40.3861" y2="962.289" gradientUnits="userSpaceOnUse">
<stop stop-color="#41A380"/>
<stop offset="1" stop-color="#63D5AC"/>
</linearGradient>
<linearGradient id="paint11_linear_314_4079" x1="45.469" y1="963.107" x2="41.898" y2="961.42" gradientUnits="userSpaceOnUse">
<stop stop-color="#41A380"/>
<stop offset="1" stop-color="#63D5AC"/>
</linearGradient>
<linearGradient id="paint12_linear_314_4079" x1="35.7168" y1="957.552" x2="33.8701" y2="956.675" gradientUnits="userSpaceOnUse">
<stop stop-color="#41A380"/>
<stop offset="1" stop-color="#63D5AC"/>
</linearGradient>
<linearGradient id="paint13_linear_314_4079" x1="11.6885" y1="949.947" x2="9.05989" y2="948.729" gradientUnits="userSpaceOnUse">
<stop stop-color="#41A380"/>
<stop offset="1" stop-color="#63D5AC"/>
</linearGradient>
<linearGradient id="paint14_linear_314_4079" x1="12.5246" y1="950.046" x2="9.76889" y2="948.778" gradientUnits="userSpaceOnUse">
<stop stop-color="#41A380"/>
<stop offset="1" stop-color="#63D5AC"/>
</linearGradient>
<linearGradient id="paint15_linear_314_4079" x1="36.5876" y1="957.83" x2="35.6918" y2="957.404" gradientUnits="userSpaceOnUse">
<stop stop-color="#41A380"/>
<stop offset="1" stop-color="#63D5AC"/>
</linearGradient>
<linearGradient id="paint16_linear_314_4079" x1="20.272" y1="951.228" x2="18.895" y2="950.586" gradientUnits="userSpaceOnUse">
<stop stop-color="#41A380"/>
<stop offset="1" stop-color="#63D5AC"/>
</linearGradient>
<linearGradient id="paint17_linear_314_4079" x1="16.6179" y1="944.554" x2="11.9104" y2="942.336" gradientUnits="userSpaceOnUse">
<stop stop-color="#41A380"/>
<stop offset="1" stop-color="#63D5AC"/>
</linearGradient>
<linearGradient id="paint18_linear_314_4079" x1="42.3532" y1="959.125" x2="40.7293" y2="958.359" gradientUnits="userSpaceOnUse">
<stop stop-color="#41A380"/>
<stop offset="1" stop-color="#63D5AC"/>
</linearGradient>
<linearGradient id="paint19_linear_314_4079" x1="14.3842" y1="944.776" x2="12.1956" y2="943.744" gradientUnits="userSpaceOnUse">
<stop stop-color="#41A380"/>
<stop offset="1" stop-color="#63D5AC"/>
</linearGradient>
<linearGradient id="paint20_linear_314_4079" x1="9.69254" y1="943.883" x2="8.43625" y2="943.294" gradientUnits="userSpaceOnUse">
<stop stop-color="#41A380"/>
<stop offset="1" stop-color="#63D5AC"/>
</linearGradient>
<linearGradient id="paint21_linear_314_4079" x1="25.6545" y1="948.653" x2="23.5822" y2="947.68" gradientUnits="userSpaceOnUse">
<stop stop-color="#41A380"/>
<stop offset="1" stop-color="#63D5AC"/>
</linearGradient>
<linearGradient id="paint22_linear_314_4079" x1="20.6029" y1="945.114" x2="20.0881" y2="944.869" gradientUnits="userSpaceOnUse">
<stop stop-color="#41A380"/>
<stop offset="1" stop-color="#63D5AC"/>
</linearGradient>
<linearGradient id="paint23_linear_314_4079" x1="19.9158" y1="944.987" x2="19.4725" y2="944.776" gradientUnits="userSpaceOnUse">
<stop stop-color="#41A380"/>
<stop offset="1" stop-color="#63D5AC"/>
</linearGradient>
<linearGradient id="paint24_linear_314_4079" x1="49.5884" y1="958.959" x2="48.2871" y2="958.351" gradientUnits="userSpaceOnUse">
<stop stop-color="#41A380"/>
<stop offset="1" stop-color="#63D5AC"/>
</linearGradient>
<linearGradient id="paint25_linear_314_4079" x1="16.5048" y1="942.863" x2="15.499" y2="942.39" gradientUnits="userSpaceOnUse">
<stop stop-color="#41A380"/>
<stop offset="1" stop-color="#63D5AC"/>
</linearGradient>
<linearGradient id="paint26_linear_314_4079" x1="50.7383" y1="958.202" x2="49.8276" y2="957.771" gradientUnits="userSpaceOnUse">
<stop stop-color="#41A380"/>
<stop offset="1" stop-color="#63D5AC"/>
</linearGradient>
<linearGradient id="paint27_linear_314_4079" x1="16.011" y1="941.911" x2="15.1926" y2="941.524" gradientUnits="userSpaceOnUse">
<stop stop-color="#41A380"/>
<stop offset="1" stop-color="#63D5AC"/>
</linearGradient>
<linearGradient id="paint28_linear_314_4079" x1="40.8674" y1="953.736" x2="39.6715" y2="953.175" gradientUnits="userSpaceOnUse">
<stop stop-color="#41A380"/>
<stop offset="1" stop-color="#63D5AC"/>
</linearGradient>
<linearGradient id="paint29_linear_314_4079" x1="33.6588" y1="949.29" x2="32.2968" y2="948.648" gradientUnits="userSpaceOnUse">
<stop stop-color="#41A380"/>
<stop offset="1" stop-color="#63D5AC"/>
</linearGradient>
<linearGradient id="paint30_linear_314_4079" x1="46.1063" y1="954.563" x2="43.1018" y2="953.166" gradientUnits="userSpaceOnUse">
<stop stop-color="#41A380"/>
<stop offset="1" stop-color="#63D5AC"/>
</linearGradient>
<linearGradient id="paint31_linear_314_4079" x1="48.7646" y1="952.449" x2="44.2126" y2="950.311" gradientUnits="userSpaceOnUse">
<stop stop-color="#41A380"/>
<stop offset="1" stop-color="#63D5AC"/>
</linearGradient>
<linearGradient id="paint32_linear_314_4079" x1="37.9874" y1="949.677" x2="36.8595" y2="949.15" gradientUnits="userSpaceOnUse">
<stop stop-color="#41A380"/>
<stop offset="1" stop-color="#63D5AC"/>
</linearGradient>
<linearGradient id="paint33_linear_314_4079" x1="50.4684" y1="950.749" x2="46.5465" y2="948.899" gradientUnits="userSpaceOnUse">
<stop stop-color="#41A380"/>
<stop offset="1" stop-color="#63D5AC"/>
</linearGradient>
<linearGradient id="paint34_linear_314_4079" x1="18.7155" y1="938.712" x2="17.536" y2="938.158" gradientUnits="userSpaceOnUse">
<stop stop-color="#41A380"/>
<stop offset="1" stop-color="#63D5AC"/>
</linearGradient>
<linearGradient id="paint35_linear_314_4079" x1="28.1251" y1="943.475" x2="25.2351" y2="942.174" gradientUnits="userSpaceOnUse">
<stop stop-color="#41A380"/>
<stop offset="1" stop-color="#63D5AC"/>
</linearGradient>
<linearGradient id="paint36_linear_314_4079" x1="32.3811" y1="941.258" x2="19.4865" y2="935.354" gradientUnits="userSpaceOnUse">
<stop stop-color="#41A380"/>
<stop offset="1" stop-color="#63D5AC"/>
</linearGradient>
<linearGradient id="paint37_linear_314_4079" x1="38.0213" y1="944.004" x2="36.3849" y2="943.229" gradientUnits="userSpaceOnUse">
<stop stop-color="#41A380"/>
<stop offset="1" stop-color="#63D5AC"/>
</linearGradient>
<linearGradient id="paint38_linear_314_4079" x1="37.7169" y1="937.067" x2="23.4554" y2="930.403" gradientUnits="userSpaceOnUse">
<stop stop-color="#41A380"/>
<stop offset="1" stop-color="#63D5AC"/>
</linearGradient>
<linearGradient id="paint39_linear_314_4079" x1="53.3077" y1="949.117" x2="51.2244" y2="948.13" gradientUnits="userSpaceOnUse">
<stop stop-color="#41A380"/>
<stop offset="1" stop-color="#63D5AC"/>
</linearGradient>
<linearGradient id="paint40_linear_314_4079" x1="54.6673" y1="952.874" x2="53.4492" y2="952.3" gradientUnits="userSpaceOnUse">
<stop stop-color="#41A380"/>
<stop offset="1" stop-color="#63D5AC"/>
</linearGradient>
<linearGradient id="paint41_linear_314_4079" x1="17.4674" y1="934.126" x2="15.7989" y2="933.339" gradientUnits="userSpaceOnUse">
<stop stop-color="#41A380"/>
<stop offset="1" stop-color="#63D5AC"/>
</linearGradient>
<linearGradient id="paint42_linear_314_4079" x1="52.1824" y1="949.279" x2="51.2612" y2="948.841" gradientUnits="userSpaceOnUse">
<stop stop-color="#41A380"/>
<stop offset="1" stop-color="#63D5AC"/>
</linearGradient>
<linearGradient id="paint43_linear_314_4079" x1="37.5049" y1="943.327" x2="36.5556" y2="942.878" gradientUnits="userSpaceOnUse">
<stop stop-color="#41A380"/>
<stop offset="1" stop-color="#63D5AC"/>
</linearGradient>
<linearGradient id="paint44_linear_314_4079" x1="42.1506" y1="945.046" x2="40.3251" y2="944.19" gradientUnits="userSpaceOnUse">
<stop stop-color="#41A380"/>
<stop offset="1" stop-color="#63D5AC"/>
</linearGradient>
<linearGradient id="paint45_linear_314_4079" x1="39.7372" y1="936.332" x2="35.2618" y2="934.213" gradientUnits="userSpaceOnUse">
<stop stop-color="#41A380"/>
<stop offset="1" stop-color="#63D5AC"/>
</linearGradient>
<linearGradient id="paint46_linear_314_4079" x1="56.4229" y1="949.627" x2="54.822" y2="948.872" gradientUnits="userSpaceOnUse">
<stop stop-color="#41A380"/>
<stop offset="1" stop-color="#63D5AC"/>
</linearGradient>
<linearGradient id="paint47_linear_314_4079" x1="57.7473" y1="947.363" x2="56.0053" y2="946.537" gradientUnits="userSpaceOnUse">
<stop stop-color="#41A380"/>
<stop offset="1" stop-color="#63D5AC"/>
</linearGradient>
<linearGradient id="paint48_linear_314_4079" x1="46.7606" y1="944.806" x2="45.7968" y2="944.354" gradientUnits="userSpaceOnUse">
<stop stop-color="#41A380"/>
<stop offset="1" stop-color="#63D5AC"/>
</linearGradient>
<linearGradient id="paint49_linear_314_4079" x1="61.2892" y1="944.993" x2="58.5545" y2="943.696" gradientUnits="userSpaceOnUse">
<stop stop-color="#41A380"/>
<stop offset="1" stop-color="#63D5AC"/>
</linearGradient>
<linearGradient id="paint50_linear_314_4079" x1="27.5437" y1="929.79" x2="23.2019" y2="927.75" gradientUnits="userSpaceOnUse">
<stop stop-color="#41A380"/>
<stop offset="1" stop-color="#63D5AC"/>
</linearGradient>
<linearGradient id="paint51_linear_314_4079" x1="21.7487" y1="928.764" x2="20.0176" y2="927.949" gradientUnits="userSpaceOnUse">
<stop stop-color="#41A380"/>
<stop offset="1" stop-color="#63D5AC"/>
</linearGradient>
<linearGradient id="paint52_linear_314_4079" x1="47.7611" y1="938.512" x2="40.7013" y2="935.234" gradientUnits="userSpaceOnUse">
<stop stop-color="#41A380"/>
<stop offset="1" stop-color="#63D5AC"/>
</linearGradient>
<linearGradient id="paint53_linear_314_4079" x1="51.874" y1="937.827" x2="41.7078" y2="933.097" gradientUnits="userSpaceOnUse">
<stop stop-color="#41A380"/>
<stop offset="1" stop-color="#63D5AC"/>
</linearGradient>
<linearGradient id="paint54_linear_314_4079" x1="56.1552" y1="937.02" x2="43.8527" y2="931.302" gradientUnits="userSpaceOnUse">
<stop stop-color="#41A380"/>
<stop offset="1" stop-color="#63D5AC"/>
</linearGradient>
<linearGradient id="paint55_linear_314_4079" x1="56.9514" y1="938.15" x2="54.5439" y2="937.009" gradientUnits="userSpaceOnUse">
<stop stop-color="#41A380"/>
<stop offset="1" stop-color="#63D5AC"/>
</linearGradient>
<linearGradient id="paint56_linear_314_4079" x1="28.4859" y1="927.758" x2="24.7" y2="925.999" gradientUnits="userSpaceOnUse">
<stop stop-color="#41A380"/>
<stop offset="1" stop-color="#63D5AC"/>
</linearGradient>
<linearGradient id="paint57_linear_314_4079" x1="32.964" y1="926.923" x2="31.3759" y2="926.18" gradientUnits="userSpaceOnUse">
<stop stop-color="#41A380"/>
<stop offset="1" stop-color="#63D5AC"/>
</linearGradient>
<linearGradient id="paint58_linear_314_4079" x1="29.308" y1="924.683" x2="26.9633" y2="923.594" gradientUnits="userSpaceOnUse">
<stop stop-color="#41A380"/>
<stop offset="1" stop-color="#63D5AC"/>
</linearGradient>
<linearGradient id="paint59_linear_314_4079" x1="28.9115" y1="923.834" x2="27.2419" y2="923.062" gradientUnits="userSpaceOnUse">
<stop stop-color="#41A380"/>
<stop offset="1" stop-color="#63D5AC"/>
</linearGradient>
<linearGradient id="paint60_linear_314_4079" x1="40.3204" y1="928.751" x2="38.7193" y2="928.002" gradientUnits="userSpaceOnUse">
<stop stop-color="#41A380"/>
<stop offset="1" stop-color="#63D5AC"/>
</linearGradient>
<linearGradient id="paint61_linear_314_4079" x1="43.4972" y1="924.177" x2="32.1115" y2="918.908" gradientUnits="userSpaceOnUse">
<stop stop-color="#41A380"/>
<stop offset="1" stop-color="#63D5AC"/>
</linearGradient>
<linearGradient id="paint62_linear_314_4079" x1="47.6995" y1="927.215" x2="45.7862" y2="926.326" gradientUnits="userSpaceOnUse">
<stop stop-color="#41A380"/>
<stop offset="1" stop-color="#63D5AC"/>
</linearGradient>
<linearGradient id="paint63_linear_314_4079" x1="54.7769" y1="929.744" x2="49.9367" y2="927.527" gradientUnits="userSpaceOnUse">
<stop stop-color="#41A380"/>
<stop offset="1" stop-color="#63D5AC"/>
</linearGradient>
<linearGradient id="paint64_linear_314_4079" x1="50.7617" y1="928.156" x2="47.8659" y2="926.838" gradientUnits="userSpaceOnUse">
<stop stop-color="#41A380"/>
<stop offset="1" stop-color="#63D5AC"/>
</linearGradient>
<linearGradient id="paint65_linear_314_4079" x1="186" y1="679.216" x2="501.206" y2="676.934" gradientUnits="userSpaceOnUse">
<stop stop-color="#41A380"/>
<stop offset="1" stop-color="#63D5AC"/>
</linearGradient>
<linearGradient id="paint66_linear_314_4079" x1="312.02" y1="501.026" x2="383.076" y2="497.325" gradientUnits="userSpaceOnUse">
<stop stop-color="#41A380"/>
<stop offset="1" stop-color="#63D5AC"/>
</linearGradient>
<linearGradient id="paint67_linear_314_4079" x1="312.305" y1="509.864" x2="329.731" y2="509.448" gradientUnits="userSpaceOnUse">
<stop stop-color="#41A380"/>
<stop offset="1" stop-color="#63D5AC"/>
</linearGradient>
<linearGradient id="paint68_linear_314_4079" x1="308.635" y1="512.322" x2="325.24" y2="511.906" gradientUnits="userSpaceOnUse">
<stop stop-color="#41A380"/>
<stop offset="1" stop-color="#63D5AC"/>
</linearGradient>
<linearGradient id="paint69_linear_314_4079" x1="360.658" y1="523.256" x2="369.37" y2="523.195" gradientUnits="userSpaceOnUse">
<stop stop-color="#41A380"/>
<stop offset="1" stop-color="#63D5AC"/>
</linearGradient>
<linearGradient id="paint70_linear_314_4079" x1="332.061" y1="532.123" x2="350.309" y2="532.015" gradientUnits="userSpaceOnUse">
<stop stop-color="#41A380"/>
<stop offset="1" stop-color="#63D5AC"/>
</linearGradient>
<linearGradient id="paint71_linear_314_4079" x1="328.476" y1="556.182" x2="350.109" y2="556.119" gradientUnits="userSpaceOnUse">
<stop stop-color="#41A380"/>
<stop offset="1" stop-color="#63D5AC"/>
</linearGradient>
<linearGradient id="paint72_linear_314_4079" x1="295.152" y1="562.629" x2="340.871" y2="562.353" gradientUnits="userSpaceOnUse">
<stop stop-color="#41A380"/>
<stop offset="1" stop-color="#63D5AC"/>
</linearGradient>
<linearGradient id="paint73_linear_314_4079" x1="200.377" y1="569.887" x2="241.405" y2="569.673" gradientUnits="userSpaceOnUse">
<stop stop-color="#41A380"/>
<stop offset="1" stop-color="#63D5AC"/>
</linearGradient>
<linearGradient id="paint74_linear_314_4079" x1="243.477" y1="555.626" x2="254.837" y2="555.593" gradientUnits="userSpaceOnUse">
<stop stop-color="#41A380"/>
<stop offset="1" stop-color="#63D5AC"/>
</linearGradient>
<linearGradient id="paint75_linear_314_4079" x1="227.795" y1="563.544" x2="249.412" y2="563.462" gradientUnits="userSpaceOnUse">
<stop stop-color="#41A380"/>
<stop offset="1" stop-color="#63D5AC"/>
</linearGradient>
<linearGradient id="paint76_linear_314_4079" x1="289.069" y1="567.976" x2="300.258" y2="567.956" gradientUnits="userSpaceOnUse">
<stop stop-color="#41A380"/>
<stop offset="1" stop-color="#63D5AC"/>
</linearGradient>
<linearGradient id="paint77_linear_314_4079" x1="284.109" y1="568.654" x2="289.539" y2="568.647" gradientUnits="userSpaceOnUse">
<stop stop-color="#41A380"/>
<stop offset="1" stop-color="#63D5AC"/>
</linearGradient>
<linearGradient id="paint78_linear_314_4079" x1="252.572" y1="575.867" x2="262.398" y2="575.82" gradientUnits="userSpaceOnUse">
<stop stop-color="#41A380"/>
<stop offset="1" stop-color="#63D5AC"/>
</linearGradient>
<linearGradient id="paint79_linear_314_4079" x1="359.747" y1="588.193" x2="372.28" y2="588.119" gradientUnits="userSpaceOnUse">
<stop stop-color="#41A380"/>
<stop offset="1" stop-color="#63D5AC"/>
</linearGradient>
<linearGradient id="paint80_linear_314_4079" x1="217.215" y1="593.753" x2="225.079" y2="593.692" gradientUnits="userSpaceOnUse">
<stop stop-color="#41A380"/>
<stop offset="1" stop-color="#63D5AC"/>
</linearGradient>
<linearGradient id="paint81_linear_314_4079" x1="213.319" y1="600.209" x2="218.834" y2="600.193" gradientUnits="userSpaceOnUse">
<stop stop-color="#41A380"/>
<stop offset="1" stop-color="#63D5AC"/>
</linearGradient>
<linearGradient id="paint82_linear_314_4079" x1="272.613" y1="598.975" x2="279.844" y2="598.928" gradientUnits="userSpaceOnUse">
<stop stop-color="#41A380"/>
<stop offset="1" stop-color="#63D5AC"/>
</linearGradient>
<linearGradient id="paint83_linear_314_4079" x1="318.705" y1="603.934" x2="326.945" y2="603.893" gradientUnits="userSpaceOnUse">
<stop stop-color="#41A380"/>
<stop offset="1" stop-color="#63D5AC"/>
</linearGradient>
<linearGradient id="paint84_linear_314_4079" x1="244.787" y1="607.256" x2="262.921" y2="607.074" gradientUnits="userSpaceOnUse">
<stop stop-color="#41A380"/>
<stop offset="1" stop-color="#63D5AC"/>
</linearGradient>
<linearGradient id="paint85_linear_314_4079" x1="236.633" y1="623.974" x2="264.158" y2="623.805" gradientUnits="userSpaceOnUse">
<stop stop-color="#41A380"/>
<stop offset="1" stop-color="#63D5AC"/>
</linearGradient>
<linearGradient id="paint86_linear_314_4079" x1="296.405" y1="612.233" x2="303.221" y2="612.18" gradientUnits="userSpaceOnUse">
<stop stop-color="#41A380"/>
<stop offset="1" stop-color="#63D5AC"/>
</linearGradient>
<linearGradient id="paint87_linear_314_4079" x1="232.225" y1="636.396" x2="255.959" y2="636.29" gradientUnits="userSpaceOnUse">
<stop stop-color="#41A380"/>
<stop offset="1" stop-color="#63D5AC"/>
</linearGradient>
<linearGradient id="paint88_linear_314_4079" x1="359.747" y1="619.602" x2="377.094" y2="619.219" gradientUnits="userSpaceOnUse">
<stop stop-color="#41A380"/>
<stop offset="1" stop-color="#63D5AC"/>
</linearGradient>
<linearGradient id="paint89_linear_314_4079" x1="343.953" y1="640.599" x2="421.569" y2="639.376" gradientUnits="userSpaceOnUse">
<stop stop-color="#41A380"/>
<stop offset="1" stop-color="#63D5AC"/>
</linearGradient>
<linearGradient id="paint90_linear_314_4079" x1="309.61" y1="640.345" x2="319.52" y2="640.315" gradientUnits="userSpaceOnUse">
<stop stop-color="#41A380"/>
<stop offset="1" stop-color="#63D5AC"/>
</linearGradient>
<linearGradient id="paint91_linear_314_4079" x1="327.465" y1="673.896" x2="413.629" y2="673.211" gradientUnits="userSpaceOnUse">
<stop stop-color="#41A380"/>
<stop offset="1" stop-color="#63D5AC"/>
</linearGradient>
<linearGradient id="paint92_linear_314_4079" x1="222.037" y1="651.157" x2="234.658" y2="651.128" gradientUnits="userSpaceOnUse">
<stop stop-color="#41A380"/>
<stop offset="1" stop-color="#63D5AC"/>
</linearGradient>
<linearGradient id="paint93_linear_314_4079" x1="206.469" y1="635.802" x2="213.839" y2="635.767" gradientUnits="userSpaceOnUse">
<stop stop-color="#41A380"/>
<stop offset="1" stop-color="#63D5AC"/>
</linearGradient>
<linearGradient id="paint94_linear_314_4079" x1="227.22" y1="647.7" x2="232.803" y2="647.691" gradientUnits="userSpaceOnUse">
<stop stop-color="#41A380"/>
<stop offset="1" stop-color="#63D5AC"/>
</linearGradient>
<linearGradient id="paint95_linear_314_4079" x1="313.762" y1="642.469" x2="319.511" y2="642.452" gradientUnits="userSpaceOnUse">
<stop stop-color="#41A380"/>
<stop offset="1" stop-color="#63D5AC"/>
</linearGradient>
<linearGradient id="paint96_linear_314_4079" x1="286.757" y1="644.94" x2="297.794" y2="644.87" gradientUnits="userSpaceOnUse">
<stop stop-color="#41A380"/>
<stop offset="1" stop-color="#63D5AC"/>
</linearGradient>
<linearGradient id="paint97_linear_314_4079" x1="319.217" y1="682.293" x2="346.32" y2="682.212" gradientUnits="userSpaceOnUse">
<stop stop-color="#41A380"/>
<stop offset="1" stop-color="#63D5AC"/>
</linearGradient>
<linearGradient id="paint98_linear_314_4079" x1="205.45" y1="655.984" x2="215.14" y2="655.944" gradientUnits="userSpaceOnUse">
<stop stop-color="#41A380"/>
<stop offset="1" stop-color="#63D5AC"/>
</linearGradient>
<linearGradient id="paint99_linear_314_4079" x1="204.241" y1="670.302" x2="214.794" y2="670.277" gradientUnits="userSpaceOnUse">
<stop stop-color="#41A380"/>
<stop offset="1" stop-color="#63D5AC"/>
</linearGradient>
<linearGradient id="paint100_linear_314_4079" x1="264.553" y1="657.003" x2="270.38" y2="656.964" gradientUnits="userSpaceOnUse">
<stop stop-color="#41A380"/>
<stop offset="1" stop-color="#63D5AC"/>
</linearGradient>
<linearGradient id="paint101_linear_314_4079" x1="192.328" y1="690.362" x2="208.897" y2="690.327" gradientUnits="userSpaceOnUse">
<stop stop-color="#41A380"/>
<stop offset="1" stop-color="#63D5AC"/>
</linearGradient>
<linearGradient id="paint102_linear_314_4079" x1="274.438" y1="690.462" x2="317.04" y2="690.018" gradientUnits="userSpaceOnUse">
<stop stop-color="#41A380"/>
<stop offset="1" stop-color="#63D5AC"/>
</linearGradient>
<linearGradient id="paint103_linear_314_4079" x1="255.734" y1="703.546" x2="317.105" y2="702.955" gradientUnits="userSpaceOnUse">
<stop stop-color="#41A380"/>
<stop offset="1" stop-color="#63D5AC"/>
</linearGradient>
<linearGradient id="paint104_linear_314_4079" x1="236.482" y1="717.644" x2="310.737" y2="716.9" gradientUnits="userSpaceOnUse">
<stop stop-color="#41A380"/>
<stop offset="1" stop-color="#63D5AC"/>
</linearGradient>
<linearGradient id="paint105_linear_314_4079" x1="229.888" y1="713.935" x2="244.471" y2="713.9" gradientUnits="userSpaceOnUse">
<stop stop-color="#41A380"/>
<stop offset="1" stop-color="#63D5AC"/>
</linearGradient>
<linearGradient id="paint106_linear_314_4079" x1="374.856" y1="712.794" x2="384.452" y2="712.719" gradientUnits="userSpaceOnUse">
<stop stop-color="#41A380"/>
<stop offset="1" stop-color="#63D5AC"/>
</linearGradient>
<linearGradient id="paint107_linear_314_4079" x1="334.201" y1="721.124" x2="343.875" y2="721.048" gradientUnits="userSpaceOnUse">
<stop stop-color="#41A380"/>
<stop offset="1" stop-color="#63D5AC"/>
</linearGradient>
<linearGradient id="paint108_linear_314_4079" x1="329.285" y1="751.218" x2="397.953" y2="750.417" gradientUnits="userSpaceOnUse">
<stop stop-color="#41A380"/>
<stop offset="1" stop-color="#63D5AC"/>
</linearGradient>
<linearGradient id="paint109_linear_314_4079" x1="301.364" y1="746.125" x2="312.913" y2="746.005" gradientUnits="userSpaceOnUse">
<stop stop-color="#41A380"/>
<stop offset="1" stop-color="#63D5AC"/>
</linearGradient>
<linearGradient id="paint110_linear_314_4079" x1="260.441" y1="750.335" x2="289.578" y2="749.88" gradientUnits="userSpaceOnUse">
<stop stop-color="#41A380"/>
<stop offset="1" stop-color="#63D5AC"/>
</linearGradient>
<linearGradient id="paint111_linear_314_4079" x1="284.021" y1="748.7" x2="301.435" y2="748.385" gradientUnits="userSpaceOnUse">
<stop stop-color="#41A380"/>
<stop offset="1" stop-color="#63D5AC"/>
</linearGradient>
</defs>
</svg>
