<svg id="Layer_1" data-name="Layer 1" xmlns="http://www.w3.org/2000/svg" width="695.57" height="204.23" viewBox="0 0 695.57 204.23"><title>NV logo</title><path d="M291.43,81.61v-2c0-17.78,0-35.92,0-53.7,0-2,.08-2.15,2.07-2.23,5.37,0,10.55-.05,16-.05,10.59,0,20.49.09,31.68.09,21,0,42.05-.07,63.08-.1,2.44,0,2.86.42,2.86,2.82,0,6.11,0,11.15,0,17.27,0,1-.32,1.48-1.23,1.48H373.05c-20.1,0-34.52-.09-53.44-.09-3,0-5.1.07-7.65,0-1.19-.06-1.56.33-1.57,1.56-.11,21.24-.27,42.35-.42,63.6,0,1.76,0,4.18,0,5.93,0,1-.45,1.54-1.51,1.54l-15.17,0a3.27,3.27,0,0,1-2.87-1.55c-7.66-11.35-15.32-23.36-23-34.71-5.16-7.63-10.33-15.19-15.5-22.81-.36-.51-.59-.69-.59-.12,0,.07,0,.42,0,.78-.15,18.65-.29,37.17-.42,55.82,0,2-.2,2.44-2.19,2.45-4.39,0-9.68,0-14.59,0-1.85,0-2-.65-2-2.52q.15-27.18.29-54.36c0-11.22,0-23.31,0-34.53,0-2.29,0-2.31,2.37-2.4,5.12,0,9.62,0,15.15,0,1.35-.06,2.15.8,2.91,1.91,7,10.17,14,20.29,21,30.44,5.56,8.09,11.08,16.21,16.63,24.31C290.63,80.73,290.94,81,291.43,81.61Z" fill="#41a380"/><path d="M511,117.77c-2.17,0-15.63,0-24.09,0a2.54,2.54,0,0,1-2.36-1.26c-7.69-11.34-10-14.86-17.73-26.18-.16-.25-.37-.47-.69-.88-.95,1.34-1.84,2.57-2.7,3.82-7.59,11-46.41,68.33-52.46,77.22-1.38,2-2.59,3.86-4,5.9-.59.74-4,.56-5.4.56-4.23,0-14.34-.05-18.56-.05-1.63,0-2.15-1.18-1.23-2.53,5.28-7.76,22.67-33.74,27.95-41.5,7.51-11,35.47-52.11,42-61.59a2.19,2.19,0,0,0,.11-3c-8.06-11.71-16-23.49-24-35.26-1.59-2.35-3.55-5.29-5.07-7.7-.76-1.21-.52-1.61.91-1.65,6.82,0,13.18-.06,20.83-.06,2.53-.16,3.77.73,5.06,2.64,5.2,7.71,10.54,15.32,15.84,23a12.15,12.15,0,0,0,.79.95c1.11-1.59,2.16-3.07,3.19-4.56,4.77-6.89,9.78-14.22,14.59-21.07a2.39,2.39,0,0,1,1.72-.89h6.32l16.48,0c1.66,0,1.9.47,1,1.92-2.15,3.26-5.09,7.59-7.28,10.82q-8.55,12.65-17.13,25.27c-1.63,2.4-3.23,4.82-4.91,7.17a1.37,1.37,0,0,0,0,1.87c11.8,17,19.26,27.82,31,44.83C512.08,116.79,513,117.77,511,117.77Z" fill="#41a380"/><path d="M608.8,55.86c0,8.71-.14,17.42,0,26.13.2,9.7-3,18-9.15,25.41-6.61,8-14.68,13.44-24.77,15.65-15.39,3.38-28.79-.38-39.77-11.85a34.49,34.49,0,0,1-8.59-15.5,46.17,46.17,0,0,1-1-10.85c-.12-11.35,0-22.7,0-34,0-8.27,0-16.54,0-24.8,0-1.32.47-1.8,1.78-1.79q9.57.08,19.13,0c1.2,0,1.62.49,1.62,1.66q0,24.62,0,49.22a41.2,41.2,0,0,0,.72,8c1.06,5.25,4.3,9.12,8.79,11.81,8.21,4.92,17.19,4.24,23.73-2.27a14.55,14.55,0,0,0,4.69-10c.1-2.73.34-5.45.35-8.17q0-24.48,0-49c0-1.35.5-1.72,1.8-1.71q9.63.08,19.27,0c1.29,0,1.41.7,1.41,1.68q0,15.18,0,30.35Z" fill="#41a380"/><path d="M623.48,117.68c-1.14,0-1.53-.29-1.54-1.44-.06-6.28-.2-10.9-.3-17.17,0-1.52.21-1.73,1.74-1.71,12.18.23,42.81.38,46.51,0a7.75,7.75,0,0,0,5.64-4.21c1.71-3.79-.81-10.19-7-11a184.73,184.73,0,0,0-21.4-1.33c-11.77-.22-21.78-7.66-25-18.54-2.81-9.62-1-18.4,4.8-26.5A27.11,27.11,0,0,1,641.38,25a28.39,28.39,0,0,1,8-1.1c12.88,0,25.77.22,38.65.37,2.11,0,2.55.49,2.54,2.51,0,5.28-.22,11.43-.22,16.71,0,1.15-.42,1.66-1.61,1.65-5.92,0-30.14-.1-37.8-.1a5.87,5.87,0,0,0-5.34,3.86,6.91,6.91,0,0,0,1.08,7.22,9.75,9.75,0,0,0,6.91,3.6c4.54.52,9.08.91,13.62,1.36,6.78.68,13.35,2,19,6A20.88,20.88,0,0,1,694.87,81,36.59,36.59,0,0,1,695,94.48c-2.3,12.45-10.37,23-23.76,23.18C663.37,117.77,631.52,117.63,623.48,117.68Z" fill="#41a380"/><path d="M338.14,117.72c-1.19,0-1.37-.46-1.37-1.43q0-15.12,0-30.22c0-8.14,0-16.27,0-24.41,0-1.29.31-1.74,1.69-1.74q32.85,0,65.72,0c2.37,0,2.77.4,2.79,2.73,0,5.28-.17,11.25-.14,16.53,0,.44,0,.88,0,1.31.05,1.16-.41,1.81-1.63,1.81-3.9,0-33.07-.09-45.08-.09-1,0-1.19.22-1.2,1.27-.05,4,.08,7.85,0,11.89,0,1,.56.93,1.2.93h8.18l35.9-.07c2.44,0,2.83.4,2.85,2.82q0,7.85.1,15.7c0,.22,0,.44,0,.66-.08,2.29-.08,2.3-2.4,2.33Z" fill="#41a380"/><path d="M626.24,166.86c-.54.65-1,1.24-1.5,1.77-1.15,1.19-1.44,2.75-1.9,4.24a19.12,19.12,0,0,1-.72,2,1.16,1.16,0,0,1-1.19.71h-.43c-1.23,0-1.83-.47-1.77-1.72.07-1.75.28-3.49.43-5.12-1.28.8-2.63,1.72-4,2.54a24.15,24.15,0,0,1-7.47,2.91,4.35,4.35,0,0,0-1.34.6,20.81,20.81,0,0,1-8.14,2.61c-1.9.25-3.82.44-5.73.53a44.69,44.69,0,0,1-4.48-.13,1.06,1.06,0,0,1-.72-.37,3.4,3.4,0,0,1-1-2.72c.14-1.06,0-2.16.1-3.23a21.46,21.46,0,0,1,.51-3.94c.91-3.24,2-6.45,3-9.65a26.26,26.26,0,0,1,1.07-2.51c1.09-2.48,2.15-5,3.29-7.43.78-1.69,1.64-3.36,2.52-5a10.77,10.77,0,0,0,1-5.3,17.87,17.87,0,0,1,.29-3.34,2.78,2.78,0,0,1,1.89-2.2c1.92-.63,3.84-1.28,5.81-1.76a32,32,0,0,1,3.28-.3c1.41-.2,2.79-.55,4.2-.74s3-.25,4.53-.44c2.15-.27,4.3-.6,6.45-.9.95-.14,1.88-.52,2.84.15.64.45.8.64.2,1.1a28.36,28.36,0,0,1-4.12,2.9,47.73,47.73,0,0,1-10.4,3.71c-1.51.38-3,.79-4.54,1.15a1.31,1.31,0,0,0-1.16,1.27c-.13,1.4-.32,2.79-.54,4.18a8.2,8.2,0,0,1-.55,1.72c-.56,1.35-1.17,2.69-1.85,4.26,1.1-.16,2-.3,2.91-.41,2.16-.26,4.31-.54,6.47-.75a18,18,0,0,1,2.94,0c.84.05,1.1.48.84,1.29a4.82,4.82,0,0,1-2.07,2.83c-.79.49-1.65.86-2.48,1.3a21.18,21.18,0,0,0-2.69,1.48c-2.07,1.51-4.52,2-6.87,2.73-.84.27-1.66.6-2.49.92a.55.55,0,0,0-.24.31c-.29.82-.54,1.65-.84,2.46s-.56,1.43-.88,2.13c-.75,1.63-1.53,3.25-2.29,4.88a5,5,0,0,0-.11.53l2.78.41c2.52.4,4.91-.26,7.32-.88s5-1.46,7.63-1.4l5,.15h.57a23.39,23.39,0,0,0,.34-3.08,5.59,5.59,0,0,0-.66-1.73c-.12-.28-.27-.54-.4-.81-.29-.58-.13-.86.49-1a10.53,10.53,0,0,0,1.56-.41,1.63,1.63,0,0,0,1-1.21c.51-1.79,1.07-3.57,1.66-5.34.68-2.06,1.46-4.09,2.13-6.16.4-1.23.63-2.52,1-3.77a5.09,5.09,0,0,1,3-3.74,3.8,3.8,0,0,1,1.36-.28c1,0,2,.14,3,.18a1.5,1.5,0,0,1,1.4,1c.44,1.21.72,2.46-.14,3.62a30.94,30.94,0,0,0-3.25,6.51,24.12,24.12,0,0,0-1.89,5.41l-.09.55.19.15a5,5,0,0,1,.58-.77c.64-.58,1.29-1.15,2-1.67.91-.69,1.92-1.26,2.77-2,2.72-2.41,5.47-4.8,7.29-8,1.1-1.95,2.49-3.77,3-6a16.22,16.22,0,0,0,.23-3.12,1.44,1.44,0,0,0-.43-.89,4.46,4.46,0,0,0-3.6-1,18.67,18.67,0,0,0-6.8,1.78,18.92,18.92,0,0,1-2.44.61,18.83,18.83,0,0,0-3.24,1,35.29,35.29,0,0,0-4.24,2.48c-.95.63-1.78,1.44-2.67,2.16-.49.39-1,.93-1.67.49-1.21-.73-1.61-1.44-1.4-2.4a9.21,9.21,0,0,1,2.39-4.08,23.59,23.59,0,0,1,3.57-3.28,21.2,21.2,0,0,1,3.87-2.22,38.7,38.7,0,0,1,5.62-2.15,19.06,19.06,0,0,1,17.8,3.83,20.41,20.41,0,0,1,4,4.4,7.21,7.21,0,0,1,.94,6.22,7.32,7.32,0,0,1-3.27,4.28c-1.63,1.11-3.16,2.36-4.83,3.4a39.18,39.18,0,0,1-4.71,2.49,22.09,22.09,0,0,0-9.14,7.69c-1,1.49-2.3,2.84-3.48,4.27,2.89,1.56,5.68,3.18,8.58,4.59a46.5,46.5,0,0,0,6.12,2.4,12.68,12.68,0,0,0,3.68.51c3,0,6-.16,9-.21,4.08-.07,7.89-1.42,11.74-2.55a10.7,10.7,0,0,0,2.87-1.67,1.37,1.37,0,0,0,.44-1.58,4.42,4.42,0,0,0-1.82-2.5c-2.81-2.07-5.63-4.12-8.41-6.25a17.66,17.66,0,0,1-4.22-4.4c-1.44-2.24-1.46-4.67-.94-7.22,1.06-5.08,4.12-8.79,8.09-11.84a30,30,0,0,1,6.21-3.54,16.3,16.3,0,0,1,4.66-1.65c1.89-.2,3.75-.33,5.47.87,1.2.84,2.57,1.42,3.85,2.15a6,6,0,0,1,2.45,2.9c.25.55.43,1.13.64,1.7.47,1.27-.65,3.79-2.72,3.69-1.48-.08-3-.28-4.44-.4a3.38,3.38,0,0,0-1.1.06,31.5,31.5,0,0,0-11.23,4.93,23.47,23.47,0,0,0-4.17,3.72,3.85,3.85,0,0,0,.55,5.72c2.14,1.8,4.45,3.41,6.74,5,1.28.91,2.68,1.63,4,2.49a4.52,4.52,0,0,1,1.13,1,18.54,18.54,0,0,1,3.22,5.56,5.54,5.54,0,0,1-.26,4,2,2,0,0,1-.52.74c-1.55,1.18-2.93,2.63-4.9,3.2a41.86,41.86,0,0,1-7.7,1.72,124.17,124.17,0,0,1-12.49.72,43.17,43.17,0,0,1-9.5-.83c-3.07-.73-6.08-1.67-9.1-2.56-.34-.1-.56-.57-.89-.78a16.38,16.38,0,0,0-1.49-.8,64,64,0,0,1-9-5.38A8.87,8.87,0,0,0,626.24,166.86Z" fill="#fff"/><path d="M528.15,140.52A17.47,17.47,0,0,0,526.9,142c-2.66,3.93-5.28,7.9-8,11.83-1.1,1.6-2.31,3.12-3.43,4.7a18.79,18.79,0,0,0-1.57,2.57c-1.77,3.65-4.77,5.19-8.7,5.3a6.3,6.3,0,0,1-4.84-1.65,5.7,5.7,0,0,1-1.81-4.95,24.68,24.68,0,0,1,.71-4.21q1.45-4.56,3.22-9c.83-2.13,1.89-4.18,2.79-6.28.59-1.37,1.15-2.77,1.62-4.18.25-.77.27-1.61.45-2.41a3.6,3.6,0,0,1,4.21-2.9,2.69,2.69,0,0,1,.7.3c1,.54,1.86,1.17,2.85,1.64,2,.93,2.42,4.25,1.65,5.85-1,2-1.86,4-3,5.93a93.63,93.63,0,0,0-5.35,10.34c-.25.53-.46,1.07-.68,1.61a1.18,1.18,0,0,0,0,.27,2,2,0,0,0,2.21-.65q2.44-2.53,4.83-5.13,4.18-4.58,8.33-9.17c1.13-1.25,2.22-2.55,3.34-3.82.51-.58,1-1.15,1.55-1.73,1.71-1.89,3.39-3.81,5.14-5.67a6.57,6.57,0,0,1,4.51-2.29,2.88,2.88,0,0,1,2.91,3.69c-.62,1.79-1.41,3.51-2.19,5.24-1.28,2.86-2.69,5.67-3.9,8.56-1.51,3.62-3.23,7.15-4.4,10.92-.72,2.34-1.81,4.56-2.65,6.87-1.31,3.62-2.54,7.27-3.83,10.9-.38,1.07-.65,2.25-1.73,2.89a4,4,0,0,1-1.3.44c-.87.16-1.76.25-2.63.37a9.62,9.62,0,0,1-1.39.18c-2.51,0-5,.08-7.53-.16a62.71,62.71,0,0,1-6.45-1.25c-2.6-.54-5.19-1.11-7.79-1.67-.3-.06-.72,0-.86-.23a22.32,22.32,0,0,1-1.81-2.63c-.22-.38.49-.94,1.2-1l2.1-.14,12.84-.74c2.14-.13,4.29-.23,6.42-.43a1.42,1.42,0,0,0,.92-.81c1.64-4.58,4.1-8.76,6.16-13.14.95-2,1.61-4.19,2.5-6.24.8-1.87,1.73-3.68,2.62-5.51.44-.9.92-1.79,1.34-2.7a5.19,5.19,0,0,0,.25-1Z" fill="#fff"/><path d="M439.58,171.1c0-2.07,0-3.83,0-5.59a72.67,72.67,0,0,1,3.15-19.9c.8-2.77,1.46-5.6,2.08-8.43a11,11,0,0,0,0-2.5c0-1.13.44-1.63,1.56-1.6a12.94,12.94,0,0,1,7.42,2.54,3,3,0,0,1,1,3.35c-.72,3.21-1.46,6.42-2.29,9.6-.43,1.64-1.14,3.21-1.61,4.85-1,3.42-1.93,6.87-2.82,10.32-.33,1.31-.46,2.67-.68,4a1,1,0,0,0,0,.49,1.2,1.2,0,0,0,.4.59c.09.06.42-.14.54-.3.78-1.05,1.51-2.15,2.3-3.19a45.45,45.45,0,0,0,3.36-6.07,95.4,95.4,0,0,1,6-10,72.59,72.59,0,0,0,6-10.54c.65-1.32,1.45-2.57,2.08-3.9,1-2,1.81-4,2.72-6a11.66,11.66,0,0,1,.81-1.47,1.38,1.38,0,0,1,2.48,0,4.4,4.4,0,0,1,.33,4.14c-1.91,5.57-4.16,11-6.61,16.36-1.73,3.8-3.92,7.4-5.94,11.06-1.86,3.37-3.78,6.7-5.67,10.05-.37.65-.75,1.3-1.13,1.95-.77,1.34-1.62,2.64-2.28,4a5,5,0,0,1-5.55,3c-1.2-.12-2.41-.26-3.6-.49a4.39,4.39,0,0,1-3.25-2.62A6.49,6.49,0,0,1,439.58,171.1Z" fill="#fff"/><path d="M592.82,135.77a19.7,19.7,0,0,0-9-7.24c-1.37-.51-2.84-1-4.31-.49a24.74,24.74,0,0,0-3.15,1.63,20.73,20.73,0,0,0-5.38,4.39,38.43,38.43,0,0,0-5.85,8.91c-1.81,3.71-3.24,7.6-4.85,11.41a2.51,2.51,0,0,1-.66.86,4.54,4.54,0,0,1-3.39.8,1.06,1.06,0,0,1-1.15-1,4.71,4.71,0,0,1,0-.84c.18-1.7.39-3.4.53-5.1q.39-4.44.71-8.9c.24-3.48.46-7,.62-10.45a2.06,2.06,0,0,0-.62-1.54,11.36,11.36,0,0,0-2.81-1.51,2,2,0,0,0-2.41,1.12,14.36,14.36,0,0,0-.75,1.81,38.14,38.14,0,0,1-2.92,7c-2.57,4.44-5,9-7.41,13.49-2.19,4.17-4.19,8.43-6.32,12.63-.68,1.34-1.2,2.86-2.8,3.44-.74.27-1.52.4-2.26.67a2,2,0,0,0-1,.66c-.12.18.07.65.24.92a9.23,9.23,0,0,0,1,1.27c.76.86.78,1,.23,2-.43.83-.86,1.66-1.26,2.51-.54,1.16-.39,2.39.41,2.88a25.05,25.05,0,0,0,3,1.62c1.49.66,2.42.24,2.93-1.29.58-1.75,1-3.54,1.64-5.29a5.21,5.21,0,0,1,3.7-3.55c2.6-.63,4.69-2.14,6.88-3.52a5.45,5.45,0,0,1,.9-.53c.56-.23.83,0,.8.55a28.89,28.89,0,0,1-.26,3.36c-.3,1.72-.68,3.44-1.11,5.13a2.66,2.66,0,0,0,.9,2.91c1.18,1,2.39,2,3.66,2.85a5.55,5.55,0,0,0,1.76.65.73.73,0,0,0,1-.6c.19-1,.35-2.08.44-3.12a59.62,59.62,0,0,0,0-8,14.53,14.53,0,0,1,.94-6.89c.74-1.68,2.17-2.66,3.69-3.77a3.5,3.5,0,0,1-.07.46c-1.08,3.9-2.3,7.77-2.36,11.88a4.63,4.63,0,0,0,.41,2.51,7.3,7.3,0,0,0,3.62,3.1,34.65,34.65,0,0,0,4.6,1.67,5.26,5.26,0,0,0,2.81,0,5,5,0,0,0,2-1.7,16.39,16.39,0,0,0,2.79-5.39,9.75,9.75,0,0,1,2.12-3.68,3.54,3.54,0,0,1,.78-.52l.23.16c-.12.66-.27,1.31-.35,2-.2,1.6-.42,3.2-.54,4.81a20.82,20.82,0,0,0,0,3.35c.21,2.48,2.58,3.9,4.57,4.33a3.21,3.21,0,0,0,3.23-1.06c.53-.56.35-1.14-.4-1.24A1.68,1.68,0,0,1,581,176.6a17.77,17.77,0,0,1-.26-3.77,31,31,0,0,1,2.19-8.73c1-2.58,2.26-5.08,3.34-7.64.71-1.68,1.34-3.39,2-5.1a1.68,1.68,0,0,0,0-1.28,1.47,1.47,0,0,0-1.73-.76c-2,.66-4,1.24-5.9,2a18.1,18.1,0,0,0-2.69,1.48c-1,.57-1.91,1.17-2.86,1.75a13.39,13.39,0,0,0-1.79,1.1,1.75,1.75,0,0,0,.3,3,8.76,8.76,0,0,0,1.4.62c.68.25.84.53.4,1.13-1,1.3-1.89,2.62-3,3.83-1.48,1.7-3,3.33-4.61,4.94a13.38,13.38,0,0,1-2.36,2c-.68.43-1,.17-.94-.64.19-1.62.43-3.24.76-4.83.26-1.23.72-2.42,1.06-3.64.86-3.15,1.59-6.34,3.21-9.24,1.23-2.21,2.32-4.49,3.49-6.73,1-2,2.05-4,3.17-5.94a16.27,16.27,0,0,1,4.74-5.31c1.49-1,2.35-.91,3.65.19,1.62,1.38,3.13,2.9,4.7,4.34a5.48,5.48,0,0,0,1.07.79,1.17,1.17,0,0,0,.8.1A2.89,2.89,0,0,0,592.82,135.77Zm-43.77,12.66c-.13,2.26-.24,4.54-.39,6.8-.07,1-.16,2-.31,2.93a1.34,1.34,0,0,1-1.29,1.16c-.93.14-1.82.52-2.75.71s-1.71.22-2.72.34c2.53-5.4,5-10.65,7.44-15.89l.24.06C549.2,145.84,549.12,147.13,549.05,148.43Z" fill="#fff"/><path d="M498.1,140.13a5.78,5.78,0,0,0-.76-1.56,20.92,20.92,0,0,0-5-4.9,15.5,15.5,0,0,0-7.3-3.48,4.12,4.12,0,0,0-2.92.42,17,17,0,0,0-1.94,1.27c-1.24,1.05-2.56,2.05-3.12,3.71a21.61,21.61,0,0,1-3.16,6.08,52.74,52.74,0,0,0-6.93,13,21,21,0,0,0-1.31,8.88c.05.79.22,1.57.26,2.36a17.29,17.29,0,0,0,2.12,6.85,9.81,9.81,0,0,0,5.27,4.49,9.41,9.41,0,0,0,10.39-1.29,25.61,25.61,0,0,0,5.89-6.48c1.15-1.87,2.11-3.85,3.25-5.73a44.5,44.5,0,0,0,4.24-8.55c1-2.78,2.14-5.52,2-7.95A24.33,24.33,0,0,0,498.1,140.13Zm-4.88,7.57a23.29,23.29,0,0,1-.63,3.94c-.64,2-1.5,3.92-2.32,5.86a20,20,0,0,1-3.52,5.8c-1.63,1.8-3.45,3.43-5.22,5.1a26,26,0,0,1-4.95,3.42c-1.05.6-1.68.27-2-.93a19.8,19.8,0,0,1,.51-10.66,62.82,62.82,0,0,1,5.2-12.92c.9-1.69,1.79-3.39,2.73-5.07a15.38,15.38,0,0,1,3.36-4.37,4.47,4.47,0,0,1,4.14-1.2,3.49,3.49,0,0,1,2.12,2c.61,1.17,1.32,2.35,1.05,3.79h.22C493.69,144.23,493.47,146,493.22,147.7Z" fill="#fff"/><path d="M209.9,25.24H185.85a.63.63,0,0,0-.5.26L171,45.77l-.37.52h0L132.3,100.17a.6.6,0,0,1-1.05-.12l-28.58-69.3a.61.61,0,0,0-1.06-.11L89.25,48.29a.6.6,0,0,0-.06.59L129.89,144a.61.61,0,0,0,1.06.1l52.54-78A85,85,0,0,1,44.76,160.71l-9.9,14.19A102.06,102.06,0,0,0,194.27,50.15l16.14-24A.61.61,0,0,0,209.9,25.24Z" fill="#fff"/><path d="M39.58,154.77h0l0,0L79.73,98.25a.61.61,0,0,1,1.06.12L111.72,171a.61.61,0,0,0,1.07.1l11.85-17.59a.63.63,0,0,0,0-.58L83.89,57.56a.61.61,0,0,0-1.06-.11L28.15,135.51a85,85,0,0,1,137-94.93l10-13.92A102.06,102.06,0,0,0,17,151.41L.11,175.54a.6.6,0,0,0,.47,1l22.32,1.22a.61.61,0,0,0,.53-.25l5.95-8.38,0,0Z" fill="#fff"/></svg>