<svg width="160" height="47" viewBox="0 0 160 47" fill="none" xmlns="http://www.w3.org/2000/svg">
    <g clip-path="url(#clip0_2_1540)">
        <path d="M67.0368 18.7809V18.3207C67.0368 14.2289 67.0368 10.0543 67.0368 5.96255C67.0368 5.50229 67.0553 5.46777 67.513 5.44935C68.7483 5.44935 69.9398 5.43785 71.1934 5.43785C73.6294 5.43785 75.9067 5.45856 78.4807 5.45856C83.3113 5.45856 88.1533 5.44245 92.9908 5.43555C93.5521 5.43555 93.6487 5.5322 93.6487 6.08452C93.6487 7.49063 93.6487 8.6505 93.6487 10.0589C93.6487 10.289 93.5751 10.3995 93.3658 10.3995H85.8117C81.1881 10.3995 77.8711 10.3788 73.519 10.3788C72.8289 10.3788 72.3459 10.3949 71.7593 10.3788C71.4856 10.365 71.4005 10.4547 71.3982 10.7378C71.3729 15.6258 71.3361 20.4839 71.3016 25.3742C71.3016 25.7793 71.3016 26.3362 71.3016 26.7389C71.3016 26.9691 71.198 27.0933 70.9542 27.0933H67.4647C67.3331 27.0969 67.2028 27.0658 67.087 27.0032C66.9711 26.9406 66.8737 26.8487 66.8045 26.7366C65.0425 24.1246 63.2805 21.3607 61.5139 18.7487C60.327 16.9928 59.1377 15.253 57.9485 13.4994C57.8657 13.382 57.8128 13.3406 57.8128 13.4718C57.8128 13.4879 57.8128 13.5684 57.8128 13.6513C57.7783 17.9433 57.7461 22.2053 57.7162 26.4973C57.7162 26.9576 57.6701 27.0588 57.2124 27.0611C56.2026 27.0611 54.9857 27.0611 53.8563 27.0611C53.4307 27.0611 53.3962 26.9115 53.3962 26.4812C53.4192 22.3112 53.4415 18.1412 53.4629 13.9712C53.4629 11.3891 53.4629 8.60677 53.4629 6.02469C53.4629 5.49768 53.4629 5.49308 54.0081 5.47237C55.1858 5.47237 56.221 5.47237 57.493 5.47237C57.8036 5.45856 57.9876 5.65647 58.1624 5.91192C59.7726 8.25237 61.3828 10.5813 62.993 12.9172C64.2719 14.7789 65.5417 16.6476 66.8183 18.5117C66.8528 18.5784 66.9241 18.6406 67.0368 18.7809Z" fill="#41A380"/>
        <path d="M117.544 27.1027C117.045 27.1027 113.949 27.1027 112.003 27.1027C111.894 27.1097 111.786 27.0862 111.69 27.035C111.594 26.9838 111.514 26.9068 111.46 26.8127C109.691 24.203 109.159 23.393 107.381 20.7879C107.345 20.7303 107.296 20.6797 107.223 20.5853C107.004 20.8937 106.799 21.1768 106.602 21.4645C104.856 23.9959 95.926 37.1894 94.5343 39.2353C94.2169 39.6956 93.9386 40.1236 93.6142 40.5931C93.4785 40.7634 92.6941 40.722 92.3721 40.722C91.3991 40.722 89.0735 40.7104 88.1028 40.7104C87.7278 40.7104 87.6082 40.4389 87.8198 40.1282C89.0344 38.3424 93.0346 32.3635 94.2491 30.5777C95.9766 28.0462 102.408 18.5855 103.91 16.4038C104.002 16.3136 104.055 16.192 104.06 16.0637C104.064 15.9354 104.02 15.8101 103.936 15.7134C102.082 13.0186 100.255 10.3076 98.4149 7.59896C98.0492 7.05815 97.5983 6.38156 97.2487 5.82694C97.0738 5.54848 97.129 5.45642 97.458 5.44722C99.0268 5.44722 100.49 5.43341 102.249 5.43341C102.831 5.39659 103.117 5.60141 103.413 6.04096C104.61 7.81528 105.838 9.56659 107.057 11.334C107.114 11.4099 107.174 11.4829 107.239 11.5526C107.494 11.1867 107.736 10.8461 107.973 10.5032C109.07 8.91762 110.222 7.23075 111.329 5.65434C111.377 5.59447 111.437 5.54532 111.505 5.51004C111.573 5.47477 111.648 5.45415 111.724 5.44952H113.178H116.969C117.351 5.44952 117.406 5.55768 117.199 5.89137C116.704 6.64161 116.028 7.63808 115.524 8.38141C114.213 10.3222 112.9 12.2607 111.584 14.1969C111.209 14.7492 110.841 15.3061 110.455 15.8469C110.4 15.9053 110.37 15.9822 110.37 16.0621C110.37 16.142 110.4 16.2189 110.455 16.2773C113.169 20.1895 114.885 22.6796 117.585 26.5941C117.792 26.8772 118.004 27.1027 117.544 27.1027Z" fill="#41A380"/>
        <path d="M140.041 12.8552C140.041 14.8596 140.008 16.8641 140.041 18.8685C140.087 21.1008 139.35 23.0109 137.936 24.7162C136.415 26.5573 134.559 27.8092 132.238 28.3178C128.698 29.0956 125.616 28.2303 123.09 25.5907C122.132 24.5941 121.451 23.3645 121.114 22.0236C120.939 21.2033 120.862 20.3652 120.884 19.5267C120.856 16.9147 120.884 14.3027 120.884 11.7022C120.884 9.79899 120.884 7.89579 120.884 5.99489C120.884 5.69112 120.992 5.58066 121.293 5.58296C122.761 5.59523 124.228 5.59523 125.694 5.58296C125.97 5.58296 126.066 5.69572 126.066 5.96498C126.066 9.74222 126.066 13.5179 126.066 17.2921C126.061 17.9097 126.117 18.5263 126.232 19.1332C126.476 20.3414 127.221 21.232 128.254 21.851C130.142 22.9833 132.208 22.8268 133.712 21.3286C134.36 20.7332 134.748 19.9065 134.791 19.0273C134.814 18.399 134.87 17.7731 134.872 17.1471C134.872 13.3914 134.872 9.63253 134.872 5.87062C134.872 5.55994 134.987 5.47479 135.286 5.4771C136.763 5.48937 138.24 5.48937 139.718 5.4771C140.015 5.4771 140.043 5.63819 140.043 5.86372C140.043 8.19266 140.043 10.5208 140.043 12.8482L140.041 12.8552Z" fill="#41A380"/>
        <path d="M143.417 27.082C143.155 27.082 143.066 27.0152 143.063 26.7506C143.049 25.3053 143.017 24.2421 142.994 22.7992C142.994 22.4494 143.043 22.4011 143.394 22.4057C146.196 22.4586 153.242 22.4931 154.093 22.4057C154.37 22.3581 154.632 22.2455 154.858 22.0771C155.083 21.9087 155.266 21.6893 155.39 21.4368C155.784 20.5646 155.204 19.0918 153.78 18.9053C152.147 18.7081 150.503 18.6059 148.858 18.5993C146.15 18.5486 143.848 16.8365 143.107 14.3326C142.461 12.1187 142.877 10.0982 144.211 8.2341C145.004 7.05201 146.177 6.17664 147.535 5.75327C148.133 5.58159 148.753 5.49635 149.375 5.50012C152.338 5.50012 155.303 5.55075 158.266 5.58527C158.751 5.58527 158.852 5.69803 158.85 6.1629C158.85 7.378 158.799 8.79332 158.799 10.0084C158.799 10.2731 158.703 10.3904 158.429 10.3881C157.067 10.3881 151.496 10.3651 149.734 10.3651C149.464 10.3732 149.202 10.4622 148.984 10.6206C148.765 10.779 148.598 10.9994 148.506 11.2534C148.388 11.526 148.349 11.8261 148.393 12.1197C148.437 12.4134 148.562 12.6889 148.754 12.915C148.948 13.155 149.189 13.3524 149.463 13.495C149.736 13.6375 150.036 13.7221 150.344 13.7435C151.388 13.8631 152.432 13.9529 153.477 14.0565C155.036 14.2129 156.547 14.5167 157.847 15.4372C158.378 15.8091 158.828 16.2847 159.17 16.8352C159.513 17.3857 159.74 17.9999 159.839 18.6407C160.041 19.664 160.051 20.7159 159.869 21.7429C159.34 24.608 157.484 27.0359 154.404 27.0774C152.593 27.1027 145.267 27.0705 143.417 27.082Z" fill="#41A380"/>
        <path d="M77.7815 27.0912C77.5077 27.0912 77.4663 26.9854 77.4663 26.7621C77.4663 24.4424 77.4663 22.1242 77.4663 19.8075C77.4663 17.9342 77.4663 16.0633 77.4663 14.19C77.4663 13.8931 77.5376 13.7896 77.8551 13.7896C82.8927 13.7896 87.9318 13.7896 92.9724 13.7896C93.5176 13.7896 93.6096 13.8816 93.6142 14.4178C93.6142 15.6329 93.5751 17.0068 93.582 18.2219C93.582 18.3232 93.582 18.4244 93.582 18.5234C93.5935 18.7903 93.4877 18.9399 93.2071 18.9399C92.31 18.9399 85.6001 18.9192 82.8374 18.9192C82.6074 18.9192 82.5637 18.9698 82.5614 19.2115C82.5499 20.132 82.5798 21.018 82.5614 21.9478C82.5614 22.1779 82.6902 22.1618 82.8374 22.1618H84.7191L92.977 22.1457C93.5383 22.1457 93.628 22.2377 93.6326 22.7946C93.6326 23.999 93.6403 25.2034 93.6556 26.4077C93.6556 26.4584 93.6556 26.509 93.6556 26.5596C93.6372 27.0866 93.6372 27.0889 93.1036 27.0958L77.7815 27.0912Z" fill="#41A380"/>
        <path d="M144.052 38.3998C143.928 38.5494 143.822 38.6851 143.707 38.8071C143.443 39.081 143.376 39.44 143.27 39.7829C143.224 39.9393 143.168 40.0929 143.105 40.2431C143.083 40.2962 143.044 40.3408 142.995 40.3702C142.945 40.3997 142.888 40.4124 142.831 40.4065H142.732C142.449 40.4065 142.311 40.2984 142.325 40.0107C142.341 39.608 142.389 39.2075 142.424 38.8324C142.129 39.0165 141.819 39.2283 141.504 39.417C140.972 39.7344 140.391 39.9608 139.785 40.0867C139.675 40.1149 139.571 40.1616 139.477 40.2247C138.901 40.5524 138.264 40.757 137.605 40.8254C137.168 40.8829 136.726 40.9266 136.287 40.9473C135.943 40.9546 135.599 40.9446 135.256 40.9174C135.192 40.9121 135.132 40.8815 135.09 40.8323C135.008 40.7513 134.945 40.6533 134.905 40.5451C134.866 40.4368 134.85 40.3212 134.86 40.2063C134.893 39.9624 134.86 39.7092 134.883 39.463C134.894 39.1578 134.934 38.8542 135.001 38.5563C135.21 37.8106 135.461 37.0719 135.691 36.3355C135.763 36.1388 135.845 35.946 135.937 35.7579C136.188 35.1871 136.432 34.6072 136.694 34.048C136.873 33.659 137.071 33.2747 137.273 32.8973C137.452 32.5168 137.531 32.0971 137.503 31.6776C137.502 31.4199 137.524 31.1625 137.57 30.909C137.589 30.7927 137.64 30.6839 137.716 30.5946C137.793 30.5053 137.893 30.4389 138.005 30.4027C138.447 30.2577 138.888 30.1081 139.341 29.9976C139.592 29.9617 139.843 29.9386 140.096 29.9286C140.42 29.8826 140.738 29.802 141.062 29.7583C141.386 29.7146 141.752 29.7008 142.104 29.657C142.599 29.5949 143.093 29.519 143.588 29.4499C143.806 29.4177 144.02 29.3302 144.241 29.4844C144.388 29.588 144.425 29.6317 144.287 29.7376C143.991 29.9877 143.674 30.2111 143.339 30.405C142.578 30.7812 141.775 31.0677 140.947 31.2588C140.6 31.3462 140.257 31.4406 139.903 31.5234C139.83 31.5317 139.764 31.5659 139.715 31.6196C139.666 31.6733 139.638 31.743 139.636 31.8157C139.606 32.1379 139.562 32.4578 139.512 32.7776C139.484 32.9138 139.442 33.0466 139.385 33.1735C139.256 33.4841 139.116 33.7925 138.96 34.1538C139.213 34.117 139.42 34.0848 139.629 34.0595C140.126 33.9996 140.62 33.9352 141.117 33.8869C141.342 33.8684 141.568 33.8684 141.793 33.8869C141.987 33.8984 142.046 33.9973 141.987 34.1837C141.915 34.4529 141.745 34.6854 141.511 34.835C141.329 34.9478 141.131 35.0329 140.94 35.1342C140.726 35.2326 140.519 35.3464 140.321 35.4748C139.845 35.8223 139.282 35.9351 138.741 36.1031C138.548 36.1652 138.359 36.2411 138.168 36.3148C138.142 36.331 138.122 36.3564 138.113 36.3861C138.046 36.5748 137.989 36.7658 137.92 36.9522C137.851 37.1387 137.791 37.2813 137.717 37.4424C137.545 37.8175 137.365 38.1904 137.191 38.5655C137.18 38.6056 137.172 38.6464 137.165 38.6874L137.805 38.7818C138.384 38.8739 138.934 38.722 139.489 38.5793C140.043 38.4366 140.639 38.2433 141.244 38.2571L142.394 38.2916H142.525C142.567 38.0573 142.593 37.8205 142.603 37.5828C142.575 37.4426 142.524 37.308 142.451 37.1847C142.424 37.1202 142.389 37.0604 142.359 36.9983C142.293 36.8648 142.329 36.8004 142.472 36.7681C142.594 36.7459 142.714 36.7144 142.831 36.6738C142.89 36.6505 142.941 36.6128 142.982 36.5641C143.022 36.5154 143.049 36.4574 143.061 36.3953C143.178 35.9834 143.307 35.5738 143.443 35.1664C143.599 34.6923 143.779 34.2252 143.933 33.7488C144.025 33.4657 144.078 33.1689 144.163 32.8812C144.198 32.6921 144.28 32.5146 144.4 32.3645C144.521 32.2144 144.676 32.0962 144.853 32.0205C144.952 31.98 145.058 31.9581 145.166 31.9561C145.396 31.9561 145.626 31.9883 145.856 31.9975C145.927 31.9982 145.995 32.0206 146.053 32.0618C146.111 32.1029 146.154 32.1608 146.178 32.2276C146.279 32.5061 146.343 32.7937 146.146 33.0607C145.838 33.5289 145.587 34.0318 145.398 34.5589C145.204 34.9551 145.058 35.3731 144.963 35.8039L144.943 35.9305L144.986 35.965C145.025 35.9017 145.07 35.8424 145.12 35.7878C145.267 35.6543 145.416 35.5231 145.58 35.4035C145.789 35.2447 146.021 35.1135 146.217 34.9432C146.843 34.3886 147.475 33.8385 147.894 33.1021C148.147 32.6534 148.467 32.2345 148.584 31.7213C148.625 31.4843 148.642 31.2438 148.637 31.0033C148.629 30.9255 148.594 30.853 148.538 30.7985C148.425 30.7025 148.292 30.6322 148.149 30.5925C148.006 30.5528 147.856 30.5445 147.71 30.5684C147.167 30.6046 146.636 30.7436 146.146 30.978C145.962 31.0372 145.774 31.0841 145.584 31.1184C145.329 31.1725 145.08 31.2495 144.839 31.3485C144.501 31.5159 144.175 31.7066 143.864 31.9192C143.645 32.0642 143.454 32.2506 143.25 32.4163C143.137 32.5061 143.02 32.6304 142.865 32.5291C142.587 32.3611 142.495 32.1977 142.543 31.9768C142.642 31.6213 142.831 31.2976 143.093 31.0378C143.34 30.7587 143.615 30.5057 143.914 30.283C144.192 30.0819 144.491 29.9106 144.805 29.7721C145.222 29.5739 145.654 29.4084 146.097 29.2773C146.799 29.0708 147.541 29.0433 148.257 29.1973C148.972 29.3512 149.637 29.6817 150.192 30.1587C150.546 30.4495 150.856 30.7907 151.112 31.1713C151.254 31.3781 151.347 31.6143 151.384 31.8622C151.422 32.1101 151.402 32.3633 151.328 32.6027C151.212 33.0148 150.943 33.367 150.576 33.5877C150.201 33.8432 149.849 34.1308 149.465 34.3702C149.117 34.5855 148.755 34.777 148.381 34.9432C147.531 35.3287 146.804 35.941 146.279 36.7129C146.049 37.0558 145.75 37.3665 145.478 37.6956C146.143 38.0546 146.785 38.4274 147.452 38.7519C147.908 38.969 148.378 39.1536 148.86 39.3042C149.135 39.3847 149.42 39.4242 149.706 39.4216C150.396 39.4216 151.087 39.3847 151.777 39.3732C152.715 39.3571 153.592 39.0465 154.477 38.7864C154.716 38.6934 154.939 38.5638 155.137 38.4021C155.191 38.3605 155.23 38.3026 155.248 38.2371C155.267 38.1716 155.263 38.1019 155.239 38.0385C155.173 37.8025 155.024 37.5982 154.82 37.4631C154.174 36.9868 153.525 36.515 152.885 36.0248C152.506 35.7461 152.177 35.4035 151.915 35.0122C151.583 34.4967 151.579 33.9375 151.698 33.3507C151.942 32.1816 152.646 31.3278 153.559 30.6259C154.001 30.2984 154.481 30.0249 154.988 29.8112C155.324 29.6309 155.685 29.5028 156.06 29.4315C156.494 29.3855 156.922 29.3556 157.318 29.6317C157.594 29.825 157.909 29.9585 158.204 30.1265C158.459 30.2821 158.656 30.5163 158.767 30.7939C158.825 30.9205 158.866 31.0539 158.914 31.1851C159.022 31.4774 158.765 32.0573 158.289 32.0343C157.948 32.0159 157.599 31.9699 157.267 31.9423C157.183 31.933 157.097 31.9376 157.014 31.9561C156.087 32.1613 155.21 32.5468 154.431 33.0906C154.078 33.3367 153.756 33.6241 153.472 33.9467C153.387 34.0384 153.323 34.1469 153.283 34.2652C153.243 34.3835 153.228 34.509 153.24 34.6332C153.252 34.7575 153.29 34.8779 153.352 34.9864C153.414 35.095 153.498 35.1893 153.598 35.2631C154.091 35.6773 154.622 36.0478 155.149 36.4137C155.443 36.6232 155.765 36.7889 156.069 36.9868C156.168 37.0484 156.256 37.1262 156.329 37.2169C156.648 37.597 156.899 38.03 157.07 38.4964C157.165 38.8 157.144 39.1283 157.01 39.417C156.983 39.4821 156.942 39.5404 156.89 39.5873C156.534 39.8588 156.216 40.1925 155.763 40.3237C155.186 40.5111 154.593 40.6437 153.992 40.7195C153.038 40.823 152.079 40.8783 151.119 40.8852C150.386 40.9025 149.653 40.8384 148.934 40.6942C148.227 40.5262 147.535 40.3099 146.84 40.1051C146.762 40.0821 146.711 39.9739 146.636 39.9256C146.525 39.8583 146.41 39.7969 146.293 39.7415C145.57 39.3861 144.878 38.972 144.223 38.5033C144.168 38.4661 144.111 38.4315 144.052 38.3998V38.3998Z" fill="#202020"/>
        <path d="M121.489 32.3385C121.387 32.4466 121.291 32.5603 121.201 32.6791C120.589 33.5835 119.987 34.4971 119.361 35.4015C119.108 35.7698 118.83 36.1196 118.572 36.4832C118.436 36.6703 118.315 36.8681 118.211 37.0746C117.804 37.9146 117.114 38.269 116.21 38.2943C116.008 38.3124 115.805 38.2879 115.613 38.2225C115.421 38.1571 115.245 38.0522 115.096 37.9146C114.94 37.7723 114.821 37.5944 114.749 37.3961C114.676 37.1977 114.653 36.9848 114.68 36.7754C114.706 36.4484 114.761 36.1242 114.843 35.8066C115.066 35.107 115.313 34.4166 115.584 33.7354C115.775 33.2452 116.019 32.7734 116.226 32.2902C116.362 31.9749 116.49 31.6527 116.598 31.3282C116.656 31.151 116.661 30.9577 116.702 30.7736C116.721 30.6659 116.762 30.5632 116.821 30.4713C116.88 30.3794 116.957 30.3001 117.047 30.2381C117.137 30.176 117.239 30.1324 117.346 30.1098C117.453 30.0872 117.563 30.0859 117.67 30.1062C117.727 30.1215 117.781 30.1447 117.831 30.1752C118.061 30.2995 118.259 30.4445 118.487 30.5526C118.947 30.7667 119.044 31.5307 118.867 31.8989C118.636 32.3592 118.439 32.8195 118.176 33.2636C117.717 34.0305 117.306 34.8252 116.946 35.6432C116.888 35.7652 116.84 35.8894 116.789 36.0137C116.787 36.0343 116.787 36.0552 116.789 36.0758C116.879 36.1064 116.976 36.1084 117.067 36.0816C117.158 36.0548 117.239 36.0006 117.298 35.9262C117.672 35.5381 118.042 35.1446 118.409 34.7457C119.05 34.043 119.688 33.3396 120.325 32.6354C120.585 32.3477 120.836 32.0485 121.093 31.7562C121.21 31.6228 121.323 31.4916 121.45 31.3581C121.843 30.9232 122.23 30.4813 122.632 30.0533C122.762 29.9012 122.92 29.7763 123.098 29.6859C123.276 29.5954 123.47 29.5412 123.669 29.5263C123.775 29.5208 123.881 29.5408 123.977 29.5846C124.073 29.6284 124.158 29.6946 124.224 29.7778C124.289 29.8609 124.334 29.9586 124.354 30.0626C124.374 30.1666 124.369 30.2739 124.339 30.3754C124.196 30.7874 124.015 31.1832 123.835 31.5813C123.541 32.2395 123.216 32.8862 122.938 33.5513C122.591 34.3844 122.195 35.1967 121.926 36.0643C121.76 36.6028 121.51 37.1137 121.316 37.6453C121.015 38.4784 120.732 39.3184 120.435 40.1538C120.348 40.4 120.286 40.6716 120.037 40.8189C119.944 40.8696 119.843 40.9039 119.738 40.9201C119.538 40.9569 119.333 40.9777 119.133 41.0053C119.028 41.0268 118.921 41.0407 118.814 41.0467C118.236 41.0467 117.663 41.0651 117.082 41.0099C116.582 40.94 116.087 40.844 115.598 40.7222C115 40.5979 114.404 40.4668 113.806 40.3379C113.737 40.3241 113.64 40.3379 113.608 40.285C113.455 40.0934 113.316 39.8911 113.192 39.6797C113.141 39.5923 113.304 39.4634 113.468 39.4496L113.951 39.4174L116.904 39.2471C117.397 39.2171 117.891 39.1941 118.381 39.1481C118.428 39.1348 118.471 39.1112 118.508 39.0789C118.545 39.0467 118.574 39.0066 118.593 38.9617C118.97 37.9077 119.536 36.9457 120.01 35.9378C120.228 35.4775 120.38 34.9735 120.585 34.5017C120.769 34.0714 120.983 33.6548 121.187 33.2337C121.289 33.0266 121.399 32.8218 121.496 32.6123C121.522 32.5377 121.542 32.4606 121.553 32.3822L121.489 32.3385Z" fill="#202020"/>
        <path d="M101.115 39.3759C101.115 38.8995 101.115 38.4945 101.115 38.0895C101.143 36.5367 101.387 34.9953 101.84 33.5098C102.024 32.8724 102.176 32.2211 102.318 31.5698C102.34 31.3786 102.34 31.1856 102.318 30.9945C102.318 30.7344 102.42 30.6194 102.677 30.6263C103.293 30.6398 103.889 30.844 104.384 31.2108C104.498 31.2991 104.582 31.421 104.623 31.5593C104.664 31.6976 104.661 31.8453 104.614 31.9817C104.448 32.7205 104.278 33.4592 104.087 34.191C103.988 34.5684 103.825 34.9297 103.717 35.3072C103.487 36.0942 103.273 36.8882 103.068 37.6821C102.992 37.9836 102.962 38.2966 102.912 38.6027C102.902 38.6397 102.902 38.6784 102.912 38.7154C102.928 38.769 102.96 38.8163 103.004 38.8512C103.024 38.865 103.1 38.819 103.128 38.7822C103.307 38.5405 103.475 38.2874 103.657 38.048C103.95 37.6028 104.208 37.1358 104.43 36.6511C104.843 35.8566 105.304 35.088 105.81 34.3498C106.337 33.5812 106.799 32.7698 107.19 31.9242C107.34 31.6204 107.524 31.3328 107.669 31.0267C107.899 30.5664 108.085 30.1062 108.294 29.6459C108.348 29.5288 108.411 29.4157 108.481 29.3076C108.507 29.2542 108.547 29.2091 108.598 29.1776C108.648 29.1461 108.706 29.1294 108.766 29.1294C108.825 29.1294 108.884 29.1461 108.934 29.1776C108.985 29.2091 109.025 29.2542 109.051 29.3076C109.141 29.4479 109.195 29.6082 109.209 29.7745C109.222 29.9407 109.194 30.1076 109.127 30.2604C108.688 31.5422 108.17 32.7918 107.607 34.0253C107.209 34.8998 106.705 35.7283 106.24 36.5706C105.812 37.3461 105.371 38.1125 104.936 38.8834C104.851 39.033 104.763 39.1826 104.676 39.3322C104.499 39.6406 104.303 39.9397 104.152 40.2527C104.051 40.497 103.868 40.699 103.636 40.8248C103.403 40.9505 103.135 40.9923 102.875 40.9431C102.599 40.9155 102.321 40.8833 102.047 40.8303C101.882 40.7998 101.727 40.7287 101.597 40.6235C101.466 40.5182 101.364 40.3821 101.299 40.2274C101.155 39.9682 101.091 39.6717 101.115 39.3759V39.3759Z" fill="#202020"/>
        <path d="M136.365 31.2449C135.857 30.4951 135.136 29.9147 134.295 29.5788C133.979 29.4614 133.641 29.3486 133.303 29.466C133.053 29.5735 132.811 29.6989 132.579 29.8411C132.112 30.1059 131.694 30.4474 131.341 30.8514C130.799 31.469 130.346 32.1592 129.995 32.9019C129.579 33.7557 129.25 34.6509 128.88 35.5277C128.844 35.6039 128.792 35.6715 128.728 35.7256C128.616 35.8061 128.49 35.8639 128.356 35.8954C128.223 35.927 128.084 35.9319 127.948 35.9097C127.915 35.9125 127.883 35.9088 127.852 35.8986C127.82 35.8885 127.792 35.8722 127.767 35.8508C127.742 35.8293 127.722 35.8031 127.708 35.7737C127.694 35.7443 127.685 35.7123 127.684 35.6796C127.678 35.6153 127.678 35.5506 127.684 35.4863C127.725 35.095 127.773 34.7038 127.805 34.3126C127.865 33.6314 127.92 32.9487 127.969 32.2644C128.024 31.4635 128.075 30.6535 128.111 29.8595C128.114 29.7938 128.102 29.7283 128.077 29.6673C128.053 29.6063 128.016 29.5511 127.969 29.5051C127.771 29.3594 127.553 29.2425 127.322 29.1576C127.214 29.1252 127.098 29.1335 126.996 29.1811C126.894 29.2286 126.813 29.3119 126.768 29.4154C126.701 29.5501 126.643 29.6893 126.596 29.8319C126.426 30.3899 126.201 30.9295 125.924 31.4428C125.333 32.4646 124.774 33.514 124.219 34.5473C123.716 35.507 123.256 36.4873 122.766 37.4539C122.609 37.7623 122.49 38.1121 122.121 38.2456C121.951 38.3077 121.772 38.3376 121.602 38.3997C121.511 38.4257 121.431 38.4787 121.372 38.5516C121.344 38.5931 121.388 38.7012 121.427 38.7634C121.495 38.8673 121.572 38.9651 121.657 39.0556C121.832 39.2535 121.836 39.2858 121.71 39.5159C121.611 39.7069 121.512 39.8979 121.42 40.0935C121.296 40.3605 121.33 40.6435 121.514 40.7563C121.736 40.8961 121.966 41.0207 122.204 41.1291C122.547 41.281 122.761 41.1844 122.878 40.8322C123.012 40.4295 123.108 40.0176 123.256 39.6148C123.315 39.4168 123.425 39.2375 123.574 39.0944C123.723 38.9512 123.906 38.8491 124.107 38.7979C124.705 38.6529 125.185 38.3054 125.689 37.9878C125.754 37.9406 125.823 37.8998 125.896 37.8658C126.025 37.8129 126.087 37.8658 126.08 37.9924C126.075 38.2511 126.055 38.5093 126.02 38.7657C125.951 39.1615 125.864 39.5573 125.765 39.9462C125.727 40.0656 125.726 40.1939 125.763 40.3137C125.8 40.4334 125.873 40.5389 125.972 40.6159C126.244 40.8461 126.522 41.0762 126.814 41.2718C126.94 41.3443 127.076 41.3949 127.219 41.4214C127.243 41.4312 127.269 41.4352 127.295 41.4332C127.321 41.4311 127.346 41.4231 127.368 41.4097C127.391 41.3963 127.41 41.378 127.424 41.356C127.437 41.3341 127.446 41.3092 127.449 41.2833C127.493 41.0532 127.529 40.8046 127.55 40.5653C127.591 39.9523 127.591 39.3372 127.55 38.7242C127.493 38.186 127.567 37.6419 127.766 37.1386C127.937 36.752 128.266 36.5265 128.615 36.271C128.612 36.3066 128.607 36.342 128.599 36.3769C128.351 37.2744 128.07 38.165 128.056 39.1109C128.033 39.3084 128.066 39.5085 128.15 39.6885C128.34 40.0128 128.634 40.264 128.983 40.4019C129.326 40.5548 129.68 40.6832 130.041 40.7862C130.253 40.8449 130.476 40.8449 130.688 40.7862C130.873 40.6991 131.032 40.5641 131.148 40.395C131.437 40.0251 131.655 39.6044 131.79 39.1546C131.888 38.8399 132.054 38.5507 132.277 38.3077C132.331 38.26 132.392 38.2198 132.457 38.188L132.51 38.2248C132.482 38.3767 132.447 38.5263 132.429 38.6851C132.383 39.0533 132.332 39.4215 132.305 39.7921C132.284 40.0486 132.284 40.3064 132.305 40.563C132.353 41.1337 132.898 41.4605 133.356 41.5595C133.49 41.5925 133.631 41.5871 133.762 41.544C133.894 41.5008 134.01 41.4217 134.099 41.3155C134.221 41.1867 134.18 41.0532 134.007 41.0302C133.909 41.0237 133.816 40.9798 133.749 40.9075C133.682 40.8352 133.645 40.7399 133.646 40.6412C133.595 40.355 133.575 40.0641 133.586 39.7736C133.655 39.083 133.825 38.4062 134.09 37.7646C134.32 37.1708 134.61 36.5955 134.858 36.0064C135.021 35.6197 135.166 35.2262 135.318 34.8327C135.357 34.7383 135.357 34.6325 135.318 34.5381C135.283 34.4668 135.224 34.4102 135.151 34.3782C135.078 34.3462 134.996 34.3409 134.92 34.3632C134.46 34.5151 134 34.6486 133.563 34.8235C133.348 34.9193 133.141 35.0332 132.944 35.1641C132.714 35.2953 132.505 35.4333 132.286 35.5668C132.143 35.6403 132.005 35.7249 131.875 35.82C131.818 35.8614 131.773 35.9168 131.745 35.9808C131.716 36.0448 131.705 36.1152 131.712 36.1849C131.719 36.2546 131.744 36.3213 131.785 36.3784C131.825 36.4355 131.88 36.481 131.944 36.5104C132.047 36.5672 132.154 36.615 132.266 36.653C132.422 36.7106 132.459 36.775 132.358 36.9131C132.128 37.2123 131.923 37.516 131.668 37.7945C131.327 38.1857 130.978 38.5608 130.607 38.9314C130.445 39.1053 130.262 39.2597 130.064 39.3916C129.908 39.4906 129.834 39.4307 129.848 39.2443C129.892 38.8715 129.947 38.4987 130.023 38.1328C130.083 37.8497 130.189 37.5759 130.267 37.2951C130.465 36.5702 130.632 35.8361 131.005 35.1687C131.288 34.6601 131.539 34.1354 131.808 33.6199C132.038 33.1596 132.279 32.6994 132.537 32.2529C132.806 31.77 133.178 31.3527 133.627 31.0309C133.97 30.8008 134.168 30.8215 134.467 31.0746C134.84 31.3922 135.187 31.742 135.548 32.0734C135.623 32.1438 135.705 32.2048 135.794 32.2552C135.851 32.2844 135.916 32.2926 135.978 32.2782C136.084 32.2529 136.182 32.2019 136.264 32.1297C136.346 32.0576 136.408 31.9665 136.446 31.8644C136.485 31.7624 136.497 31.6525 136.483 31.5445C136.469 31.4365 136.428 31.3336 136.365 31.2449V31.2449ZM126.296 34.1584C126.267 34.6785 126.241 35.2032 126.207 35.7233C126.191 35.9534 126.17 36.1836 126.135 36.3976C126.126 36.4701 126.09 36.5367 126.036 36.5856C125.982 36.6345 125.912 36.6625 125.839 36.6645C125.625 36.6968 125.42 36.7842 125.206 36.8279C124.992 36.8717 124.813 36.8786 124.58 36.9062C125.162 35.6635 125.731 34.4553 126.292 33.2494L126.347 33.2632C126.331 33.5624 126.313 33.8592 126.296 34.1584V34.1584Z" fill="#202020"/>
        <path d="M114.577 32.2486C114.537 32.1208 114.478 31.9997 114.402 31.8896C114.084 31.4517 113.696 31.0705 113.252 30.7619C112.773 30.351 112.193 30.0746 111.572 29.961C111.344 29.9092 111.105 29.9436 110.901 30.0577C110.746 30.1448 110.596 30.2425 110.454 30.35C110.169 30.5916 109.866 30.8217 109.737 31.2038C109.57 31.7059 109.325 32.1782 109.01 32.603C108.341 33.5207 107.805 34.5277 107.416 35.5947C107.169 36.2462 107.067 36.9433 107.114 37.6383C107.126 37.8201 107.165 37.9996 107.174 38.1814C107.225 38.7352 107.391 39.2722 107.662 39.7578C107.927 40.2382 108.358 40.6055 108.874 40.7911C109.257 40.984 109.689 41.0587 110.114 41.0059C110.54 40.953 110.94 40.775 111.264 40.4942C111.798 40.0786 112.256 39.5742 112.619 39.003C112.884 38.5726 113.104 38.1169 113.367 37.6843C113.761 37.0653 114.088 36.4056 114.342 35.7167C114.572 35.0769 114.834 34.4463 114.802 33.8871C114.808 33.3328 114.732 32.7806 114.577 32.2486ZM113.454 33.9907C113.432 34.2965 113.383 34.5998 113.309 34.8974C113.162 35.3577 112.964 35.7995 112.775 36.246C112.584 36.7338 112.31 37.1852 111.966 37.5807C111.591 37.995 111.172 38.3701 110.765 38.7544C110.417 39.06 110.035 39.3241 109.626 39.5415C109.385 39.6795 109.24 39.6036 109.166 39.3274C108.98 38.5144 109.021 37.6658 109.284 36.8742C109.571 35.8418 109.972 34.8446 110.48 33.9009C110.687 33.512 110.892 33.1208 111.108 32.7341C111.303 32.3551 111.565 32.0144 111.881 31.7285C112.003 31.6058 112.155 31.5162 112.321 31.468C112.488 31.4197 112.664 31.4143 112.833 31.4523C112.943 31.4893 113.043 31.5496 113.127 31.6291C113.211 31.7085 113.277 31.8052 113.321 31.9126C113.461 32.1818 113.624 32.4534 113.562 32.7848H113.613C113.562 33.1921 113.512 33.5994 113.454 33.9907Z" fill="#202020"/>
        <path d="M48.2828 5.80859H42.7506C42.7281 5.80895 42.706 5.81454 42.686 5.82493C42.6661 5.83531 42.6488 5.85021 42.6356 5.86843L39.3347 10.5332L39.2496 10.6529L30.4326 23.0524C30.4184 23.0729 30.3989 23.0892 30.3762 23.0995C30.3535 23.1097 30.3284 23.1137 30.3036 23.1108C30.2789 23.108 30.2553 23.0985 30.2355 23.0834C30.2157 23.0682 30.2004 23.048 30.1911 23.0248L23.6169 7.07663C23.6071 7.05364 23.5913 7.03371 23.5712 7.01889C23.551 7.00407 23.5273 6.99489 23.5025 6.99231C23.4776 6.98973 23.4525 6.99384 23.4298 7.00421C23.407 7.01458 23.3875 7.03084 23.3731 7.05131L20.53 11.1132C20.5161 11.1326 20.5076 11.1554 20.5051 11.1792C20.5027 11.203 20.5065 11.227 20.5162 11.2489L29.8783 33.1392C29.8884 33.162 29.9044 33.1817 29.9246 33.1963C29.9448 33.2109 29.9686 33.2198 29.9935 33.2222C30.0183 33.2245 30.0433 33.2202 30.0659 33.2097C30.0885 33.1991 30.1079 33.1827 30.1221 33.1622L42.2077 15.2118C44.1995 19.4234 44.6232 24.208 43.4027 28.7044C42.1822 33.2007 39.3976 37.1136 35.5501 39.7387C31.7025 42.3638 27.0448 43.5288 22.4151 43.0239C17.7854 42.519 13.4879 40.3775 10.2961 36.9847L8.0188 40.2503C12.0824 44.2532 17.4635 46.6394 23.157 46.9634C28.8506 47.2873 34.4674 45.5268 38.9584 42.0106C43.4495 38.4945 46.5077 33.463 47.562 27.856C48.6162 22.2489 47.5944 16.4497 44.6874 11.5412L48.4001 6.01801C48.4119 5.99701 48.4182 5.9733 48.4183 5.94917C48.4183 5.92504 48.4121 5.90131 48.4003 5.88026C48.3886 5.85921 48.3715 5.84156 48.3509 5.82901C48.3303 5.81645 48.3069 5.80942 48.2828 5.80859V5.80859Z" fill="#202020"/>
        <path d="M9.10416 35.6174L18.3397 22.6103C18.3543 22.5899 18.374 22.5738 18.3969 22.5636C18.4197 22.5534 18.4449 22.5495 18.4698 22.5523C18.4947 22.5551 18.5183 22.5646 18.5383 22.5796C18.5584 22.5947 18.574 22.6148 18.5836 22.6379L25.6983 39.3525C25.7082 39.3758 25.7242 39.3961 25.7447 39.4111C25.7651 39.4261 25.7893 39.4352 25.8145 39.4376C25.8398 39.4399 25.8652 39.4354 25.888 39.4245C25.9109 39.4135 25.9304 39.3966 25.9444 39.3755L28.6703 35.3274C28.681 35.3068 28.6865 35.2839 28.6865 35.2607C28.6865 35.2375 28.681 35.2146 28.6703 35.194L19.2967 13.2462C19.2868 13.2232 19.271 13.2033 19.2509 13.1885C19.2308 13.1737 19.207 13.1645 19.1822 13.1619C19.1573 13.1593 19.1322 13.1634 19.1095 13.1738C19.0867 13.1842 19.0672 13.2004 19.0528 13.2209L6.47495 31.1851C4.683 27.0361 4.38244 22.3943 5.62435 18.0487C6.86627 13.703 9.57401 9.92176 13.2873 7.34753C17.0007 4.77331 21.4905 3.56499 25.9936 3.92796C30.4966 4.29093 34.7352 6.20278 37.9887 9.33857L40.2889 6.13512C36.1787 2.37749 30.8674 0.20367 25.3032 0.00177147C19.739 -0.200127 14.2842 1.58304 9.91273 5.0329C5.54122 8.48277 2.53756 13.3747 1.43804 18.8354C0.338511 24.2961 1.21469 29.97 3.91014 34.8442L0.0249835 40.3973C0.0068907 40.4175 -0.00485638 40.4425 -0.00879177 40.4694C-0.0127272 40.4962 -0.00867659 40.5236 0.00285447 40.5482C0.0143855 40.5727 0.0328864 40.5933 0.0560484 40.6074C0.0792104 40.6215 0.106008 40.6285 0.133096 40.6274L5.2673 40.9082C5.29082 40.9096 5.31431 40.9051 5.33562 40.895C5.35692 40.8849 5.37536 40.8697 5.38922 40.8506L6.75788 38.9221L9.10416 35.6174Z" fill="#202020"/>
    </g>
    <defs>
        <clipPath id="clip0_2_1540">
            <rect width="160" height="47" fill="white"/>
        </clipPath>
    </defs>
</svg>
