<svg width="116" height="105" viewBox="0 0 116 105" fill="none" xmlns="http://www.w3.org/2000/svg">
<circle r="33.5002" transform="matrix(0.879688 -0.475551 -0.475551 -0.879688 59.0689 51.5192)" fill="#99ECC4"/>
<path fill-rule="evenodd" clip-rule="evenodd" d="M89.9603 41.0736C90.5796 41.0464 91.1857 41.0251 91.7782 41.01C96.3064 40.894 99.9802 41.1338 102.567 41.7086C103.862 41.9967 104.828 42.3567 105.481 42.7578C106.132 43.1577 106.379 43.5374 106.45 43.8487C106.52 44.1599 106.461 44.6092 106.046 45.2508C105.63 45.8943 104.914 46.6355 103.869 47.4544C101.784 49.0886 98.5731 50.8896 94.4378 52.7383C86.1824 56.4288 74.4367 60.2244 61.1631 63.2344C47.8895 66.2444 35.6554 67.8867 26.6157 68.1182C22.0874 68.2341 18.4137 67.9943 15.8273 67.4195C14.5314 67.1315 13.566 66.7715 12.9131 66.3703C12.2622 65.9704 12.0148 65.5907 11.9442 65.2795C11.8736 64.9682 11.9331 64.5189 12.3478 63.8774C12.7638 63.2338 13.4795 62.4926 14.5244 61.6738C16.6098 60.0395 19.8207 58.2385 23.9561 56.3898C24.4571 56.1659 24.9709 55.9415 25.4972 55.717L25.3774 54.6813C15.9338 58.6796 10.322 62.6476 10.969 65.5006C12.177 70.8277 34.7487 70.2497 61.3842 64.2097C88.0198 58.1696 108.633 48.9546 107.425 43.6275C106.776 40.7651 99.9584 39.6076 89.6568 40.0864L89.9603 41.0736Z" fill="#318265"/>
</svg>
