<svg width="96" height="67" viewBox="0 0 96 67" fill="none" xmlns="http://www.w3.org/2000/svg">
<circle cx="46.2293" cy="33.4011" r="33.4006" transform="rotate(180 46.2293 33.4011)" fill="#99ECC4"/>
<path fill-rule="evenodd" clip-rule="evenodd" d="M14.1834 38.8895C13.6276 39.1591 13.0861 39.4277 12.5596 39.6952C8.53304 41.7405 5.42486 43.6925 3.42927 45.4227C2.42935 46.2897 1.75358 47.0629 1.37138 47.7239C0.990334 48.3829 0.953705 48.8324 1.03908 49.1378C1.12445 49.4432 1.38886 49.8085 2.0564 50.1744C2.72598 50.5413 3.70476 50.852 5.0093 51.0747C7.61284 51.5192 11.2827 51.5765 15.7861 51.2372C24.7763 50.5599 36.8775 48.3198 49.9465 44.6664C63.0154 41.0129 74.524 36.6527 82.5621 32.5698C86.5886 30.5245 89.6967 28.5725 91.6923 26.8423C92.6923 25.9753 93.368 25.2021 93.7502 24.5411C94.1313 23.8821 94.1679 23.4326 94.0825 23.1272C93.9972 22.8218 93.7327 22.4565 93.0652 22.0906C92.3956 21.7237 91.4169 21.413 90.1123 21.1903C87.5088 20.7457 83.8389 20.6885 79.3355 21.0278C78.7901 21.0689 78.2334 21.1157 77.6656 21.1683L77.2784 20.2003C87.457 19.2294 94.2603 20.049 95.0456 22.858C96.5119 28.103 76.4408 38.2981 50.2157 45.6295C23.9906 52.9608 1.54227 54.652 0.076004 49.407C-0.711861 46.5887 4.71859 42.3412 13.9808 37.8767L14.1834 38.8895Z" fill="#318265"/>
</svg>
