<svg width="134" height="117" viewBox="0 0 134 117" fill="none" xmlns="http://www.w3.org/2000/svg">
<ellipse rx="47.19" ry="47.3083" transform="matrix(0.982793 -0.184713 0.183757 0.982972 62.3974 58.2217)" fill="url(#paint0_linear_314_4218)"/>
<path fill-rule="evenodd" clip-rule="evenodd" d="M16.3761 68.847L16.959 71.9651L29.6623 63.8522C25.1691 68.0512 21.3121 72.1321 18.206 75.9393C14.2938 80.7346 11.7981 84.8234 10.6089 87.9553C10.0202 89.5059 9.83753 90.6004 9.8317 91.2917C9.82892 91.6212 9.86653 91.8195 9.89358 91.9188C9.91767 92.0072 9.93803 92.0361 9.9405 92.0397L9.94069 92.0399L9.94087 92.0402C9.94323 92.0438 9.96271 92.0734 10.036 92.1281C10.1183 92.1896 10.2888 92.297 10.5957 92.4146C11.2398 92.6614 12.3228 92.8901 13.9774 92.9061C17.3195 92.9384 22.0267 92.1001 27.9067 90.197C39.5892 86.4159 54.5784 78.8692 69.9556 68.3504C85.3328 57.8316 97.8086 46.5908 105.581 37.0634C109.494 32.2681 111.989 28.1793 113.178 25.0474C113.767 23.4968 113.95 22.4023 113.956 21.711C113.958 21.3815 113.921 21.1832 113.894 21.084C113.869 20.9926 113.848 20.9647 113.847 20.9628C113.845 20.9608 113.827 20.9312 113.751 20.8746C113.669 20.8131 113.499 20.7057 113.192 20.5881C112.548 20.3413 111.465 20.1126 109.81 20.0966C106.468 20.0643 101.761 20.9027 95.8806 22.8058C94.4755 23.2605 93.0226 23.7697 91.527 24.332L90.863 20.7801L88.5734 19.0346C103.659 13.2295 115.192 12.2708 118.801 17.574C125.117 26.8568 104.758 51.8103 73.3296 73.3093C41.9007 94.8083 11.3026 104.711 4.9867 95.4287C1.49005 90.2895 6.16908 80.3472 16.3761 68.847Z" fill="#318265"/>
<ellipse rx="6.5896" ry="6.60612" transform="matrix(0.982793 -0.184713 0.183757 0.982972 41.0749 70.2515)" fill="#99ECC4"/>
<ellipse rx="2.76338" ry="2.77038" transform="matrix(0.982793 -0.184713 0.183757 0.982972 33.8685 45.5863)" fill="#99ECC4"/>
<ellipse rx="1.91311" ry="1.91796" transform="matrix(0.982793 -0.184713 0.183757 0.982972 48.0754 49.8547)" fill="#99ECC4"/>
<defs>
<linearGradient id="paint0_linear_314_4218" x1="1.19622e-07" y1="37.8467" x2="95.3025" y2="38.5474" gradientUnits="userSpaceOnUse">
<stop stop-color="#41A380"/>
<stop offset="1" stop-color="#63D5AC"/>
</linearGradient>
</defs>
</svg>
