<svg width="290" height="261" viewBox="0 0 290 261" fill="none" xmlns="http://www.w3.org/2000/svg">
<g filter="url(#filter0_d_289_11446)">
<path d="M135.329 242.455C134.579 244.109 134.153 248.912 134.805 248.355C135.43 247.821 136.444 241.768 135.921 241.722C135.797 241.711 135.54 242.056 135.329 242.455Z" fill="url(#paint0_linear_289_11446)"/>
<path d="M137.796 237.045C136.415 237.316 134.127 238.759 133.138 239.998C132.577 240.661 132.195 241.291 132.261 241.395C132.377 241.503 137.077 238.628 139.22 237.123C139.516 236.903 138.716 236.857 137.796 237.045Z" fill="url(#paint1_linear_289_11446)"/>
<path d="M188.06 17.7789C185.7 18.3311 184.543 18.9164 182.46 20.5989C179.348 23.1238 177.585 26.2845 176.548 31.1805C175.977 33.931 175.503 35.8793 174.645 38.7517C173.569 42.3911 173.421 43.4838 173.57 46.6176C173.651 48.2466 173.61 49.8401 173.505 50.1748C173.4 50.5095 173.048 52.4931 172.74 54.5544C172.293 57.6107 172.246 58.4175 172.483 58.8563C172.634 59.1399 172.912 61.1058 173.074 63.2334C173.264 65.3389 173.542 67.8699 173.731 68.845C174.28 71.7195 174.166 72.1517 172.536 73.2601C171.761 73.7811 170.785 74.3087 170.396 74.4462C170.009 74.5593 169.607 74.843 169.515 75.0314C169.398 75.2176 169.134 75.3661 168.885 75.344C168.66 75.3241 168.17 75.4771 167.822 75.7165C167.476 75.9316 166.615 76.2974 165.943 76.508C164.779 76.8961 164.478 76.8939 162.429 76.4908C157.491 75.5364 153.519 75.5769 150.84 76.6168C149.151 77.2531 147.136 79.0154 146.133 80.6955C145.483 81.7927 145.158 82.0587 144.305 82.327C143.713 82.4956 142.789 83.0033 142.224 83.42C141.147 84.2336 139.788 86.2506 139.703 87.2014C139.656 87.7378 139.579 87.7555 138.496 87.5119C137.831 87.3546 136.915 86.9293 136.447 86.5437C135.815 86.0207 135.037 85.7305 133.53 85.4493C132.42 85.2278 130.88 84.7471 130.154 84.437C129.43 84.1024 127.939 83.6505 126.855 83.4069C125.77 83.1876 123.238 82.5697 121.2 82.0447C118.55 81.3426 116.104 80.8798 112.427 80.4304C108.428 79.928 107.168 79.6932 106.574 79.321C105.718 78.7781 104.428 78.5899 104.147 78.9335C103.89 79.2793 100.106 78.6239 99.0255 78.0611C98.2108 77.6202 98.0342 77.629 97.005 77.9063C96.3376 78.0681 95.1762 78.137 94.0549 78.0375C93.0333 77.9468 91.2283 77.9094 90.0464 77.9273C88.8622 77.9696 87.1006 78.0098 86.1429 78.0476C84.5059 78.0988 82.6284 78.5956 81.6393 79.2695C81.427 79.3981 80.3664 79.7462 79.3123 80.0212C75.9192 80.8994 71.9292 83.1252 69.4322 85.5081C68.636 86.2728 67.8885 86.7716 67.4335 86.805C66.5462 86.8982 65.9265 87.654 65.2951 89.3917C65.0286 90.1298 64.4664 91.0873 64.0515 91.5174C61.8167 93.7762 58.27 98.0808 56.8456 100.264C55.9475 101.61 54.5004 104.331 53.6252 106.269C52.7229 108.228 51.0937 111.302 49.9802 113.095L47.9556 116.38L44.2409 119.466L40.5013 122.549L36.1406 122.162C30.8579 121.693 28.2079 120.991 27.8481 119.952C27.5848 119.24 27.2652 119.163 26.3248 119.571C25.9587 119.735 24.9966 119.821 24.1743 119.748C20.5341 119.45 16.8019 120.47 14.7555 122.303C11.4254 125.3 11.0289 125.805 10.7214 127.572C10.4377 129.07 10.4681 129.294 10.986 130.249C11.7207 131.592 15.034 135.572 16.9551 137.414C24.2003 144.347 36.0012 150.039 46.9393 151.87C48.0292 152.041 49.1646 152.264 49.4572 152.364C49.8743 152.475 50.4593 152.109 52.1677 150.688C53.3387 149.662 54.8662 148.299 55.5021 147.642C56.3005 146.853 56.8606 146.485 57.2592 146.521C57.5583 146.547 58.2094 146.286 58.6925 145.935C59.4714 145.366 59.5906 145.155 59.6587 144.105C59.7106 142.954 59.7691 142.861 60.6282 142.52C61.1233 142.318 61.8979 141.797 62.3627 141.371C63.0213 140.742 63.1762 140.412 63.1642 139.698C63.136 138.885 63.3071 138.654 65.5767 136.57C70.7137 131.891 76.2504 125.822 78.016 122.907C78.3378 122.395 78.8902 121.83 79.2543 121.69C79.6183 121.55 79.9996 121.216 80.0982 120.954C80.1967 120.693 81.3786 119.544 82.7122 118.385C84.0457 117.226 85.5342 115.736 86.0455 115.069C86.8698 113.987 87.1114 113.812 87.9424 113.788C88.4721 113.761 89.3269 113.468 89.8578 113.147C91.0007 112.437 92.2737 112.526 93.8035 113.399C94.8772 114.035 95.862 113.975 97.7362 113.232L98.6972 112.875L101.523 114.428C104.777 116.241 108.035 117.734 110.233 118.445C111.357 118.791 112.168 119.28 113.284 120.288C114.145 121.053 115.179 121.857 115.583 122.114C116.012 122.374 116.366 122.626 116.414 122.655C116.643 122.897 114.666 125.08 113.796 125.543C112.452 126.259 108.675 129.487 107.492 130.93C106.985 131.548 105.922 133.051 105.134 134.284C104.347 135.516 103.07 137.172 102.294 137.987C98.8601 141.59 96.4552 144.914 94.708 148.47C93.0193 151.932 89.9885 157.216 89.3905 157.728C88.5466 158.464 87.3053 161.13 86.0976 164.832C85.2095 167.48 84.7491 168.422 82.1688 172.592C80.5808 175.203 78.8314 178.217 78.2855 179.275C77.7644 180.334 77.0419 181.4 76.692 181.664C76.2338 182.016 75.9261 182.653 75.5958 183.827C75.194 185.241 75.0434 185.523 74.4194 185.762C74.0012 185.946 73.5593 186.399 73.3415 186.871C73.1509 187.321 72.6374 188.012 72.1727 188.438C71.162 189.355 68.8286 191.876 67.1202 193.862C65.3263 195.963 62.448 198.681 58.5936 201.926C56.7747 203.46 54.8095 205.227 54.2506 205.865C52.071 208.35 50.235 212.34 49.9839 215.168C49.8302 216.899 50.3159 219.915 51.069 221.899C52.3141 225.13 54.9037 227.645 58.6534 229.256C60.0825 229.849 60.8463 230.015 63.4649 230.223C66.2308 230.469 66.7855 230.444 68.4842 229.981C71.8817 229.054 74.0613 227.699 78.063 223.927C82.2793 220.001 90.0692 211.748 95.3567 205.657C96.2515 204.631 96.9015 204.099 97.3858 204.019C98.1734 203.917 99.2708 203.154 99.3119 202.691C99.3271 202.52 100.586 201.354 102.08 200.086C106.201 196.668 109.133 193.341 110.46 190.559C110.893 189.64 111.313 189.161 111.837 188.912C112.725 188.524 113.739 187.288 113.808 186.507C113.834 186.215 114.484 185.118 115.282 184.058C116.908 181.868 118.616 178.752 119.208 176.888C119.584 175.766 119.807 175.516 121.246 174.587C124.471 172.49 127.414 169.606 128.646 167.332C128.889 166.862 129.684 165.827 130.407 165.031C131.771 163.53 133.07 161.631 133.7 160.188C133.981 159.574 134.471 159.15 135.707 158.523C136.602 158.062 137.644 157.638 138.026 157.574C138.411 157.485 138.967 157.166 139.273 156.825C139.907 156.193 145.292 154.091 146.115 154.164C147.46 154.284 151.998 151.541 153.679 149.577C154.41 148.708 156.425 148.642 157.685 149.442C158.443 149.951 158.568 149.962 159.722 149.696C160.518 149.497 161.498 149.485 162.665 149.638C163.88 149.82 164.785 149.802 165.683 149.587C166.943 149.256 166.993 149.261 168.661 149.998C170.959 150.989 173.646 151.276 175.158 150.649C176.252 150.206 178.015 148.74 178.604 147.761C178.871 147.293 179.075 147.262 180.645 147.401C181.617 147.487 182.752 147.711 183.163 147.895C183.766 148.17 184.09 148.199 184.816 147.944C185.307 147.791 186.525 147.653 187.528 147.668C189.559 147.701 191.801 147.065 193.092 146.098C193.523 145.768 194.411 144.815 195.092 143.941C195.77 143.093 196.508 142.421 196.707 142.439C197.853 142.54 199.185 141.405 199.286 140.26C199.321 139.869 200.502 139.016 202.504 137.965C202.849 137.75 204.924 136.165 207.088 134.416C209.253 132.667 211.486 130.998 212.062 130.73C212.64 130.437 213.729 129.772 214.456 129.222L215.799 128.236L219.577 128.399C221.652 128.51 225.291 128.538 227.657 128.478C232.036 128.375 233.479 128.528 236.781 129.533C238.86 130.16 245.724 130.917 248.842 130.875C267.023 130.621 277.778 124.327 281.82 111.614C282.372 109.918 282.4 109.602 282.178 107.862C281.469 101.705 275.865 94.1061 267.634 88.0923C266.076 86.9711 264.942 85.8875 264.088 84.7551C263.009 83.3324 261.083 81.5397 260.235 81.1941C260.115 81.1342 260.533 79.8199 261.174 78.2551C264.701 69.6486 264.716 61.2709 261.193 52.5791C258.492 45.9505 254.806 41.6425 248.72 38.0553C244.664 35.6557 239.566 33.9499 235.38 33.5782C230.421 33.1379 226.172 34.0384 221.101 36.5614C218.656 37.794 217.747 38.1311 217.309 37.9693C216.504 37.7013 213.76 34.9513 213.25 33.8986C213.017 33.4111 212.465 32.846 212.009 32.6089C211.53 32.3452 209.881 30.5525 207.955 28.1946C204.469 23.9044 202.986 22.4951 200.271 20.8288C197.488 19.0828 195.057 18.1789 192.077 17.7915C189.991 17.5325 189.189 17.5105 188.06 17.7789ZM195.708 20.7431C199.879 22.4158 201.89 24.0932 206.535 29.764C209.821 33.7662 210.685 35.0714 209.483 34.1784C209.152 33.9524 208.672 33.9835 207.356 34.3827C205.345 34.9659 203.644 34.8886 203.102 34.2016C202.877 33.9113 202.622 32.5372 202.466 30.9016C202.111 27.2581 201.86 26.6951 201.616 29.1553C201.435 31.2032 201.233 31.775 200.76 31.733C200.585 31.7175 199.587 30.7935 198.532 29.6678C195.111 26.0468 193.121 24.4204 191.975 24.3186C191.501 24.2766 191.652 24.5602 192.876 26.045C194.44 27.953 195.409 29.4887 196.129 31.2727C196.667 32.5736 196.575 32.762 195.637 32.2857C193.282 31.0937 188.526 30.3519 186.123 30.8266C183.976 31.2503 181.284 32.4364 179.532 33.7798L177.918 34.9879L178.291 32.7605C179.102 27.8689 180.767 24.675 183.748 22.2122C185.698 20.6161 187.12 19.8823 188.826 19.6161C190.302 19.4031 193.794 19.9588 195.708 20.7431ZM241.263 36.9017C250.381 39.9965 256.164 45.3015 259.354 53.4969C262.219 60.828 262.516 67.6609 260.346 74.5695C257.972 82.0743 252.662 89.2693 247.185 92.3951C246.205 92.9715 246.272 92.7809 247.418 91.7524C247.939 91.258 249.29 89.9037 250.424 88.7266C259.017 79.6362 262.51 69.4295 260.412 59.6847C259.927 57.5039 259.766 57.3421 259.602 58.9002C259.43 60.5559 258.315 62.3734 256.226 64.3994C253.835 66.7181 253.833 66.7425 254.342 62.7087C255.117 56.2414 253.955 50.6586 250.566 44.7062C248.955 41.9094 247.662 40.0745 247.213 40.0347C246.64 39.9838 246.761 40.314 248.247 42.5345C251.152 46.8714 252.618 50.4417 253.13 54.2957C253.536 57.3542 253.383 61.3458 252.76 64.1163C252.175 66.7427 251.572 68.1635 252.06 65.7742C252.638 62.9505 252.925 58.0125 252.638 55.8738C251.981 50.8274 249.924 46.271 246.703 42.6678C241.607 36.9815 235.352 35.0255 227.839 36.7664C224.889 37.4628 223.191 38.1967 220.311 40.0788C214.527 43.8408 209.413 49.112 206.939 53.7822C206.36 54.9347 206.174 55.6063 206.01 57.4592L205.809 59.7265L206.75 60.7193C207.28 61.2577 208.117 62.02 208.639 62.3613C210.719 63.8237 213.881 67.8148 217.466 73.539C220.172 77.8581 222.293 80.5528 224.029 81.9355C227.828 84.9757 230.162 85.5516 235.352 84.8083C235.809 84.7506 235.755 84.795 235.158 85.0123C231.814 86.1896 226.468 85.2973 223.699 83.1102C222.265 82.0001 221.707 81.2134 217.455 74.226C215.287 70.6426 210.486 65.0316 207.855 62.9797C205.741 61.3422 205.137 60.5023 204.77 58.7005C204.555 57.7231 204.626 57.4838 205.69 55.121C207.059 52.1465 208.942 49.0456 210.801 46.778C214.41 42.3315 222.573 37.2327 228.005 36.0195C232.256 35.0947 236.802 35.3754 241.263 36.9017ZM213.328 37.2718C214.34 38.32 215.186 39.2551 215.227 39.3571C215.243 39.4568 214.475 39.9046 213.506 40.3591C212.563 40.7915 210.995 41.758 210.054 42.4607C208.248 43.8484 207.945 43.8706 209.098 42.4742L209.826 41.6296L209.172 40.5149C208.296 39.0612 208.173 38.1902 208.79 37.4587C209.045 37.1373 209.229 36.7605 209.19 36.6342C209.116 36.3328 206.31 37.9511 205.3 38.8688C204.921 39.1792 204.521 39.4385 204.396 39.4275C203.325 39.3324 210.163 35.2954 211.236 35.3661C211.386 35.3794 212.313 36.248 213.328 37.2718ZM195.853 35.2289C198.746 36.5915 200.153 40.5496 200.114 47.2052C200.107 48.1383 199.992 48.8652 199.892 48.8564C199.768 48.8453 199.094 48.5152 198.399 48.1341C195.451 46.5455 191.152 45.7461 188.197 46.2208C187.355 46.3672 185.265 46.9926 183.499 47.6467C181.734 48.3007 180.18 48.8262 180.055 48.8152C179.283 48.7466 178.977 43.1416 179.643 41.579C181.061 38.3385 185.529 34.9756 189.334 34.257C190.945 33.9331 194.143 34.4136 195.853 35.2289ZM237.402 39.0899C241.159 40.3326 244.373 42.6083 244.252 43.9735C244.223 44.2905 243.781 44.1775 241.182 43.185C240.259 42.8328 238.366 42.3698 237.005 42.1506C234.723 41.8252 234.37 41.843 232.598 42.2755C231.519 42.5482 230.451 42.6991 230.136 42.5728C229.574 42.4 228.423 40.6516 228.21 39.6498C227.906 38.2713 230.265 37.7191 234.081 38.3036C235.047 38.463 236.522 38.8152 237.402 39.0899ZM177.636 37.5921C177.323 38.5718 176.448 43.9 176.256 46.0698C176.15 47.2644 175.966 48.2063 175.841 48.1953C175.517 48.1665 175.564 44.2392 175.931 42.0849C176.265 40.0259 177.26 37.0182 177.609 37.0491C177.709 37.058 177.737 37.3062 177.636 37.5921ZM224.189 41.9465C225.216 43.3892 224.808 44.3113 222.01 46.692C218.909 49.3654 216.804 51.8569 214.4 55.7469C213.171 57.7019 212.01 59.4662 211.793 59.6436C210.791 60.4637 209.519 59.5154 209.438 57.8864C209.363 56.1843 212.912 49.5946 215.663 46.3251C217.207 44.4964 219.738 42.2886 221.081 41.5969C222.631 40.8253 223.451 40.9227 224.189 41.9465ZM204.192 39.7533C204.187 39.8021 203.971 39.9794 203.731 40.1302C203.304 40.4117 203.282 40.3851 203.64 40.0238C203.999 39.6625 204.209 39.5583 204.192 39.7533ZM214.809 42.3669C212.809 43.9585 212.196 44.0761 212.508 42.8261C212.679 42.0304 215.135 40.6758 216.283 40.7532C216.659 40.762 216.269 41.1942 214.809 42.3669ZM198.58 49.7719C200.019 50.5386 200.364 51.1835 200.708 53.8186C200.88 54.9888 201.052 56.159 201.105 56.4094C201.193 56.8349 201.091 56.8505 199.711 56.5559C198.895 56.4098 197.824 56.3146 197.319 56.3435C196.558 56.4234 196.398 56.532 196.434 56.9775C196.465 57.4718 196.61 57.5338 198.078 57.6887C200.444 57.9233 201.431 58.404 201.545 59.3726C201.583 59.7937 201.601 60.1638 201.574 60.1859C199.919 60.9974 199.614 61.044 198.061 60.7095C196.409 60.3663 193.393 60.3933 192.534 60.7348C192.272 60.8589 191.665 60.9034 191.217 60.8635C190.045 60.7596 188.077 61.1499 186.49 61.7707C184.905 62.3672 184.918 62.2209 186.499 60.2481C187.572 58.9182 189.644 57.3576 190.536 57.2156C190.868 57.1468 191.083 56.9939 191.048 56.8188C190.977 56.493 190.63 56.4377 189.34 56.5442C188.658 56.582 188.388 56.5089 188.308 56.2807C188.115 55.6247 187.342 55.8508 186.044 56.8905C185.34 57.4668 184.703 57.8526 184.61 57.7706C184.384 57.4803 185.971 55.164 187.003 54.2973C187.544 53.8539 188.315 53.3817 188.728 53.2465C189.683 52.9626 189.478 52.7233 188.273 52.7146C187.093 52.7081 184.375 53.6217 183.016 54.5084C180.992 55.8031 181.656 54.83 184.116 52.8615C187.414 50.2303 190.534 49.033 194.39 48.8839C196.255 48.8038 197.044 48.9721 198.58 49.7719ZM175.427 54.8421C175.242 55.2189 174.992 55.4915 174.843 55.4783C174.618 55.4583 174.891 53.5168 175.539 50.7485C175.79 49.6159 175.811 49.6669 175.79 51.8766C175.762 53.3238 175.638 54.4431 175.427 54.8421ZM204.358 59.9417C204.502 60.2985 204.583 60.7972 204.56 61.0653C204.532 61.3823 204.97 61.8144 205.897 62.4127C209.295 64.5819 212.441 67.9081 215.865 72.9053C217.774 75.7286 220.637 80.8235 220.589 81.3598C220.555 81.7499 220.174 81.2247 219.025 79.1814C218.637 78.459 217.732 77.0518 217.069 76.0346C216.381 75.0152 215.237 73.1936 214.512 72.0235C212.645 69.0074 208.974 65.0939 208.889 66.0447C208.879 66.1666 209.723 67.1262 210.73 68.2231C212.543 70.1532 213.431 71.4607 213.375 72.0946C213.308 72.8503 212.39 72.1546 210.334 69.8588C207.797 67.0289 205.573 65.2097 202.345 63.3751C201.104 62.6505 200.028 62.039 200.007 61.988C199.728 61.7421 200.422 60.9929 201.142 60.811C201.603 60.7045 202.392 60.3077 202.9 59.9597C203.41 59.5872 203.912 59.3123 203.989 59.2946C204.063 59.3012 204.239 59.5871 204.358 59.9417ZM199.288 62.7351C199.851 63.1782 200.317 63.5882 200.311 63.6613C200.304 63.7345 199.635 63.9207 198.843 64.0716C197.132 64.3866 195.563 65.0827 195.757 65.444C195.949 65.8296 196.404 65.7962 197.723 65.3727C198.394 65.1621 199.569 64.9469 200.375 64.9202L201.835 64.8778L203.942 66.6129C207.007 69.1456 208.726 70.9938 210.29 73.467C212.733 77.3451 212.639 77.5579 209.879 74.4134C208.444 72.7625 206.867 71.0007 206.36 70.4888C204.584 68.7094 201.087 65.6714 200.738 65.6404C199.866 65.563 200.513 66.4804 202.654 68.3906C205.099 70.5489 206.743 72.6851 208.156 75.4398L208.966 77.0598L206.846 74.6355C204.382 71.8367 201.453 68.8983 201.104 68.8673C200.506 68.8142 200.843 69.827 201.659 70.5383C202.823 71.5754 208.317 77.8622 208.587 78.5005C208.715 78.7575 208.106 78.2612 207.231 77.3726C206.355 76.484 205.177 75.3228 204.593 74.8287C204.012 74.3101 202.65 72.9606 201.544 71.8305C198.902 69.0649 197.727 68.1498 197.294 68.5044C197.048 68.7283 197.083 68.9034 197.549 69.3134C199.638 71.2434 202.861 74.8223 204.043 76.4998C206.476 79.9347 210.292 86.736 209.965 87.0264C209.642 87.268 206.173 85.0434 205.569 84.2035C204.317 82.4706 198.588 76.5561 198.254 76.6492C197.534 76.8311 197.885 77.4029 200.139 79.7407C201.403 81.057 202.429 82.2293 202.419 82.3512C202.41 82.4487 202.26 82.4354 202.122 82.3002C199.285 79.7386 197.063 77.895 196.928 78.0058C196.844 78.0967 196.012 77.2857 195.1 76.2464C193.296 74.2187 192.674 73.8686 191.057 73.9708C189.566 74.0841 188.752 74.4787 186.174 76.363C182.225 79.2559 180.129 81.0847 179.535 82.1132L178.969 83.1195L178.271 82.4924C177.664 81.9716 177.247 81.8609 175.403 81.6972C173.659 81.5423 173.229 81.5778 173.203 81.8704C173.183 82.0898 173.465 82.3114 173.907 82.4243C174.571 82.5816 174.678 82.7877 175.051 84.246C175.571 86.3071 175.539 87.2379 174.977 85.9348C174.771 85.4251 174.213 84.6384 173.753 84.1553C172.555 82.9432 169.358 80.7672 167.429 79.8589C166.512 79.4335 165.748 78.997 165.761 78.8507C165.771 78.7288 166.37 78.4871 167.092 78.2809L168.377 77.9527L170.584 78.8367C172.308 79.5057 172.847 79.6519 173.118 79.4302C173.524 79.0977 173.22 78.8495 171.353 78.0941C169.849 77.4937 169.692 77.2831 170.474 76.9595C171.281 76.638 176.929 77.2377 178.587 77.8026C179.56 78.1593 180.106 78.2323 180.295 78.0771C180.458 77.9441 180.473 77.7735 180.361 77.6161C179.881 77.0821 177.136 76.3223 174.918 76.1254C173.548 76.0037 172.609 75.8221 172.622 75.6759C172.635 75.5296 172.719 75.4387 172.843 75.4498C172.943 75.4586 173.695 74.9111 174.507 74.246C175.943 73.0712 176.045 73.0556 177.392 73.1507C178.638 73.2614 181.002 73.7907 182.12 74.2094C182.459 74.3623 182.546 74.2226 182.624 73.3449C182.702 72.4673 182.878 72.188 183.767 71.5052C184.846 70.6673 187.37 69.9577 190.541 69.6004C192.013 69.4361 192.037 69.4383 191.955 68.6693C191.774 67.0315 191.565 66.8409 189.611 66.4954C188.623 66.3094 187.629 66.1966 187.396 66.2742C185.93 66.66 189.385 63.6741 191.53 62.7097C193.363 61.865 194.435 61.6653 196.431 61.818C198.026 61.9596 198.416 62.0925 199.288 62.7351ZM204.665 65.2519C206.907 66.8761 209.412 69.2118 211.066 71.2261C212.537 73.0521 212.089 72.7175 208.704 69.5421C207.172 68.1283 205.197 66.3312 204.282 65.6111C202.339 64.0134 202.107 63.7962 202.456 63.8272C202.605 63.8405 203.602 64.4941 204.665 65.2519ZM192.717 74.5114C193.44 74.5755 201.879 84.4656 203.91 87.6191L204.37 88.3726L202.986 89.8223C199.804 93.1273 195.636 95.9515 191.952 97.2708C188.628 98.4992 189.155 98.7916 186.312 94.0425C184.932 91.7577 183.553 89.4729 183.27 88.9809L182.721 88.0967L185.606 85.8711C187.195 84.6607 188.63 83.4859 188.779 83.2287C189.211 82.6037 188.725 81.2828 187.222 78.987L185.984 77.0833L186.907 76.3053C188.699 74.7935 190.935 73.9354 192.028 74.3519C192.223 74.4184 192.518 74.4937 192.717 74.5114ZM240.63 83.0655C239.991 83.4756 238.268 84.2073 237.994 84.1829C237.895 84.1741 238.507 83.7861 239.374 83.3471C240.9 82.5734 241.694 82.3982 240.63 83.0655ZM186.555 79.9844C187.964 82.2227 188.172 83.2732 187.287 83.9072C187.018 84.1045 185.893 84.6188 184.794 85.111C182.604 86.0223 181.683 86.776 181.603 87.678C181.555 88.2144 183.724 92.0682 186.633 96.6511C187.337 97.7702 187.896 98.8273 187.879 99.0223C187.861 99.2174 188.021 99.4035 188.245 99.4234C189.117 99.5009 193.293 98.0042 195.614 96.7605C198.118 95.4347 202.398 92.2027 203.693 90.6222C204.086 90.1656 204.469 89.8065 204.544 89.8132C204.743 89.8309 205.02 92.6566 204.927 93.705C204.87 94.3388 204.37 94.8841 201.822 96.9922C200.143 98.3666 198.043 99.9494 197.167 100.486C194.615 102.078 191.708 103.417 190.985 103.353C190.138 103.277 189.394 102.327 186.617 97.6817C185.438 95.685 183.249 92.0505 181.76 89.584C178.873 84.7573 178.814 84.58 179.664 82.6406C180.035 81.8626 180.783 81.0691 182.491 79.6482C183.789 78.6085 184.943 77.7772 185.041 77.8104C185.136 77.8681 185.828 78.8387 186.555 79.9844ZM237.399 84.3758C237.189 84.48 236.904 84.5776 236.755 84.5643C236.63 84.5533 236.691 84.4358 236.901 84.3316C237.111 84.2274 237.421 84.132 237.546 84.1431C237.695 84.1564 237.61 84.2716 237.399 84.3758ZM245.354 85.3032C245.315 85.742 244.652 86.9855 244.453 86.9678C244.353 86.959 244.219 86.775 244.136 86.5711C243.966 85.9417 242.927 86.0461 241.268 86.9063C239.4 87.8706 238.252 89.194 238.615 89.9142C238.768 90.1735 238.869 90.4527 238.863 90.5259C238.843 90.7453 236.136 90.4066 236.008 90.1495C235.601 89.3517 238.64 86.5255 240.718 85.7516C242.455 85.1441 245.395 84.84 245.354 85.3032ZM157.607 77.9056C157.603 77.9544 157.287 78.3933 156.895 78.8499C156.503 79.3065 156.179 79.8429 156.164 80.0136C156.149 80.1842 155.604 80.3816 154.918 80.4681C152.863 80.7033 151.299 81.3508 149.915 82.5057C147.717 84.35 146.542 83.7296 148.022 81.4776C148.837 80.223 150.383 78.9351 151.658 78.434C152.987 77.8886 157.646 77.4668 157.607 77.9056ZM164.901 79.1921C167.289 80.0185 167.905 80.4417 168.31 81.5343C168.763 82.6556 169.145 85.1467 168.926 85.3484C168.847 85.3906 168.463 85.1845 168.09 84.8566C167.275 84.1452 164.499 83.1616 161.224 82.4285L158.882 81.9258L159.021 80.9307C159.096 80.3721 159.443 79.5676 159.813 79.0844L160.466 78.2332L162.197 78.5343C163.16 78.7181 164.366 78.9972 164.901 79.1921ZM266.036 89.4001C268.392 91.1573 271.923 94.1 271.928 94.3217C271.922 94.3948 270.796 94.344 269.425 94.2223C267.831 94.0807 266.85 94.092 266.71 94.2516C266.596 94.4134 265.187 94.4357 262.963 94.312L259.416 94.0953L259.246 92.9008C259.046 91.1876 259.34 88.1667 259.766 87.8852C260.22 87.5815 260.906 87.4949 262.428 87.6055C263.651 87.6895 263.94 87.838 266.036 89.4001ZM170.333 82.795C170.632 86.2125 170.508 87.897 169.977 87.6532C169.784 87.5624 169.757 87.0194 169.902 85.9511C170.1 84.5681 169.999 83.1586 169.634 81.8975C169.581 81.6471 169.66 81.605 169.9 81.7246C170.093 81.8155 170.301 82.3008 170.333 82.795ZM243.259 89.0979C242.401 89.7097 240.593 90.5566 240.244 90.5257C239.845 90.4903 240.622 89.9449 242.07 89.1889C243.939 88.2245 244.571 88.1823 243.259 89.0979ZM172.86 85.452C172.917 87.3491 172.532 89.4281 172.133 89.3927C171.959 89.3772 171.966 89.0093 172.176 88.34C172.54 87.07 172.643 85.0642 172.372 84.1555C172.218 83.6258 172.256 83.4818 172.474 83.5748C172.667 83.6657 172.824 84.4414 172.86 85.452ZM179.43 86.9691C180.655 88.4539 186.908 98.6413 186.871 99.0557C186.858 99.202 186.675 99.2841 186.476 99.2664C186.252 99.2465 185.481 99.7186 184.75 100.317C183.802 101.093 183.357 101.299 183.198 101.113C182.788 100.634 182.841 101.45 183.268 102.299C183.508 102.713 184.018 103.471 184.452 103.952C185.092 104.672 185.149 104.874 184.835 105.018C184.625 105.122 184.315 105.217 184.165 105.204C183.717 105.164 181.229 107.45 180.858 108.228C180.674 108.605 180.416 109.245 180.28 109.651C180.074 110.271 180.02 110.316 179.801 109.952C179.049 108.804 174.904 103.153 174.78 103.142C174.705 103.136 174.686 103.355 174.737 103.63C174.848 104.352 174.558 104.228 173.768 103.224C172.571 101.718 172.367 101.183 172.495 99.7451C172.592 98.648 172.72 98.3399 173.165 98.1337C173.692 97.861 175.11 95.7509 175.166 95.117C175.185 94.8976 174.982 94.9286 174.503 95.2301C173.864 95.6402 171.844 95.7558 171.877 95.3901C171.883 95.317 172.594 94.6675 173.463 93.9337L175.036 92.6236L175.571 93.9489C175.857 94.6869 176.623 95.959 177.254 96.7767C178.403 98.2548 180.578 100.07 180.876 99.8257C180.957 99.7592 180.794 99.3271 180.507 98.8839C180.22 98.4407 179.807 97.716 179.593 97.3038C179.228 96.6079 179.3 96.6389 180.314 97.6627C181.42 98.7929 182.064 99.1695 181.745 98.5269C181.658 98.3717 181.177 97.5673 180.669 96.785C178.374 93.2149 177.768 91.8342 177.564 89.6046C177.281 86.852 177.407 85.438 177.905 85.4822C178.104 85.4999 178.798 86.1758 179.43 86.9691ZM174.083 86.6663C173.991 86.8547 173.922 86.775 173.946 86.5068C173.945 86.2364 174.033 86.0968 174.099 86.2009C174.167 86.2807 174.173 86.5023 174.083 86.6663ZM207.35 89.8903C207.55 90.7435 207.496 90.7879 206.385 90.8612C205.626 90.9167 205.506 90.8569 205.282 90.2718C204.998 89.5095 204.989 89.0418 205.275 89.2146C205.368 89.2966 205.672 89.2744 205.956 89.1769C206.782 88.9307 207.166 89.1368 207.35 89.8903ZM147.753 84.2303C147.742 84.3522 147.502 84.7977 147.236 85.241C146.973 85.6599 146.689 86.5931 146.626 87.3001C146.539 88.0049 146.437 88.5856 146.362 88.5789C146.013 88.548 145.671 87.8787 145.719 87.3423C145.762 86.8547 145.669 86.7727 145.236 86.8326C144.854 86.897 144.663 86.7818 144.619 86.4338C144.566 86.1834 144.436 85.9507 144.311 85.9396C144.012 85.9131 142.572 87.7019 141.997 88.8057L141.512 89.7455L141.601 88.7459C141.741 86.5961 142.908 85.0533 144.828 84.3637C146.123 83.9136 147.787 83.8402 147.753 84.2303ZM150.927 84.6842C152.843 85.1737 157.842 87.141 158.793 87.7414C159.292 88.0561 159.269 89.4546 158.754 89.8757C158.267 90.2748 156.805 90.0467 155.978 89.4573C154.895 88.6485 153.353 88.1922 150.453 87.7627L147.852 87.3597L147.84 86.6461C147.81 86.1275 148.642 84.1127 148.867 84.1326C148.891 84.1348 149.798 84.3873 150.927 84.6842ZM271.968 95.8487C272.406 96.0104 272.975 96.1101 273.258 96.0369C274.206 95.8262 277.848 101.187 279.363 105.056C280.16 107.117 280.19 107.341 280.006 109.414C279.865 110.998 279.596 112.055 279.087 113.263C278.138 115.464 275.996 118.935 274.956 119.9L274.133 120.687L275.111 118.439C275.775 116.901 276.175 115.511 276.402 114.082C276.668 112.213 276.651 111.843 276.182 110.622C275.509 108.867 274.469 107.57 272.747 106.312C270.456 104.683 268.41 103.961 265.069 103.689C261.306 103.355 259.799 103.639 257.835 105.111C255.467 106.891 254.196 109.604 253.391 114.717C252.94 117.527 252.839 117.543 252.168 114.633C251.607 112.175 251.673 108.323 252.288 105.921C252.616 104.77 252.681 104.039 252.556 103.757C252.366 103.347 252.287 103.389 251.746 104.103C250.611 105.575 250.371 106.586 249.989 111.171C249.721 114.465 249.686 116.28 249.898 118.412C250.036 119.972 250.121 121.282 250.067 121.326C249.931 121.437 249.007 120.815 248.123 120.024C246.514 118.628 245.996 115.412 246.421 109.773L246.561 107.918L246.103 109.106C245.871 109.749 245.402 111.354 245.058 112.675C244.45 115.004 243.824 116.398 243.35 116.356C242.353 116.268 242.89 110.787 244.355 106.174C245.327 103.14 245.737 102.488 247.818 100.83C249.064 99.8106 249.299 99.7086 249.545 100.05C249.702 100.26 250.398 100.617 251.131 100.854C252.23 101.198 252.706 101.215 254.286 100.962C255.329 100.809 256.816 100.745 257.612 100.84C258.656 100.957 259.113 100.899 259.235 100.665C259.448 100.241 261.068 100.385 262.748 100.976C263.455 101.211 264.097 101.342 264.158 101.224C264.241 101.134 263.761 100.6 263.055 100.07C262.373 99.5426 261.584 98.8091 261.291 98.439L260.769 97.803L261.91 97.118C265.224 95.1516 269.033 94.6789 271.968 95.8487ZM96.1332 81.2198C96.8993 83.6221 96.7143 85.9892 95.4936 89.8369C94.6662 92.3681 92.2407 95.0768 90.5593 95.3452C90.1021 95.4029 89.8182 95.2057 89.1692 94.3126C88.1832 92.9719 85.6662 90.4878 85.4496 90.6652C85.3683 90.7317 85.5168 91.0397 85.7877 91.3832C86.4226 92.1522 87.4672 95.0953 87.5584 96.332C87.6636 97.6928 87.1815 98.3134 86.11 98.2183C84.9887 98.1187 83.7318 96.4345 82.4781 93.3008C81.9406 91.9999 81.479 90.9761 81.4248 91.0204C81.3457 91.0625 81.5452 92.2106 81.879 93.5425C82.6051 96.6785 82.6995 98.1612 82.1513 98.1125C81.329 98.0395 78.7686 93.7824 77.8669 90.9257C77.7314 90.4713 77.4833 90.1544 77.3252 90.2387C76.8799 90.4449 77.0427 93.7028 77.6236 96.2116C78.2988 99.0728 78.2707 99.3897 77.456 99.514C76.1819 99.7203 72.2979 98.4908 69.7106 97.0817C68.5123 96.4347 68.2598 96.1665 67.8773 95.1006C67.6097 94.4379 67.3333 93.8728 67.2358 93.8396C66.8621 93.8064 66.8752 95.9207 67.235 96.9601C67.5991 97.9508 69.1117 99.584 70.7196 100.71C71.5462 101.299 71.5387 101.667 70.7804 102.288C70.2929 102.687 69.9874 102.733 68.9267 102.516C66.2593 102.009 62.931 99.8952 62.361 98.3949C62.2006 97.9383 61.9839 97.5505 61.8842 97.5417C61.5602 97.5129 61.8247 99.0598 62.3286 100.456C63.5282 103.634 66.9097 105.433 71.3949 105.266C74.1164 105.164 75.0102 104.998 77.737 103.986C80.0749 103.113 81.7996 102.922 81.7455 103.531C81.713 103.897 78.9721 104.784 75.0178 105.76C72.7081 106.317 71.9996 106.377 70.0787 106.231C67.9357 106.04 67.7407 105.974 65.784 104.817C63.7048 103.625 62.1901 102.016 61.2745 100.166C60.7218 99.0356 60.4532 99.2329 60.9267 100.405C61.1554 100.942 61.9734 102.194 62.7427 103.147C64.978 105.974 69.535 108.394 74.3735 109.339L75.9282 109.649L75.4917 110.323C74.7378 111.46 73.3294 112.613 72.2417 112.983C69.6774 113.861 67.6395 112.771 63.7562 108.421L62.0908 106.529L62.1148 107.956C62.142 109.629 62.6785 111.79 63.6007 114.133C64.8111 117.189 64.9001 119.015 63.8895 121.063C63.063 122.734 61.5681 124.297 59.7405 125.363C57.4882 126.687 56.2803 126.997 54.0376 126.798C51.6931 126.615 50.3324 126.101 48.3312 124.596C47.4839 123.956 46.6962 123.493 46.6128 123.584C46.5316 123.65 47.0192 124.381 47.7224 125.23C50.9447 129.104 53.9678 133.525 53.6157 133.813C53.372 134.012 50.2939 132.191 47.7228 130.317C46.3782 129.337 44.869 127.95 43.9382 126.835C43.0985 125.827 42.339 125.047 42.2599 125.089C42.014 125.313 44.7228 129.313 46.1444 130.84C46.9223 131.695 48.4858 133.038 49.5942 133.849C51.6224 135.331 52.7948 136.836 52.5446 137.674C52.328 138.416 47.877 134.237 46.2864 131.786C45.9537 131.29 45.633 130.942 45.5789 130.986C45.4976 131.053 45.5941 131.946 45.7545 132.968C46.1816 135.512 45.9921 136.232 45.3863 134.286C44.6494 131.837 41.5719 124.635 41.4603 125.043C41.3596 125.329 42.4737 129.187 43.76 133.085C43.9822 133.695 43.8923 133.859 43.0105 134.739C42.4601 135.28 41.6022 135.892 41.1049 136.118C39.1494 136.927 38.4874 135.615 38.345 130.712C38.2559 128.321 38.2581 128.297 37.9798 129.451C37.5574 131.38 36.4449 132.878 34.7549 133.809C33.6207 134.421 32.0378 134.428 30.9847 133.843C29.7886 133.172 28.6378 130.293 28.4772 127.576C28.4587 126.935 28.2809 126.109 28.1368 125.752C27.7185 124.805 27.052 122.412 27.1625 122.299C27.2416 122.257 27.5341 122.356 27.8473 122.507C29.2633 123.247 32.4908 123.951 35.8548 124.25C41.0605 124.737 41.443 124.673 42.692 123.334C43.2488 122.72 43.7699 122.225 43.8197 122.23C43.8945 122.236 44.3484 122.498 44.8728 122.815C45.3972 123.132 45.9259 123.4 46.0755 123.413C46.524 123.453 46.4058 122.803 45.8099 122.161C45.123 121.412 45.1262 121.093 45.826 120.565C46.3633 120.17 46.4132 120.175 47.0513 120.625C47.4306 120.879 47.9365 121.121 48.1857 121.143C48.5595 121.176 48.5205 121.05 47.9993 120.414L47.3416 119.618L48.517 118.543C50.078 117.085 53.605 111.304 55.454 107.168C56.2686 105.348 57.5695 102.859 58.3549 101.651C60.738 98.0051 65.6626 92.3239 66.2412 92.5964C66.3842 92.6828 67.0872 91.8361 67.8141 90.7211C70.377 86.7469 73.2998 84.3772 77.8239 82.6411C80.424 81.6433 81.087 81.5302 80.7523 82.1885C80.631 82.4235 80.449 82.7759 80.3569 82.9643C80.2648 83.1527 80.7394 82.8999 81.4348 82.4211C82.5886 81.5898 83.3123 81.3592 85.5961 81.0951C85.9763 81.0552 86.3739 80.8202 86.4703 80.583C86.6739 79.9868 89.8342 79.7514 93.9023 80.0388L95.8254 80.1604L96.1332 81.2198ZM97.5502 81.0999C99.7151 83.8721 99.9084 88.4843 98.0887 93.1388C96.9568 95.987 94.6949 98.8331 92.6615 99.9548C91.8685 100.4 90.8317 101.046 90.3735 101.398C89.2967 102.212 87.6673 103.025 87.1939 102.983C86.4463 102.917 86.9013 102.318 87.9121 101.966C88.6877 101.715 89.3107 101.205 90.3224 99.9929C91.7849 98.2307 92.3038 97.7607 93.6319 96.9449C95.2244 95.9806 96.9359 92.545 97.5044 89.2537C97.9862 86.3724 97.7011 84.2093 96.4224 80.5083C96.2251 79.9011 96.8969 80.2556 97.5502 81.0999ZM102.391 80.8908C103.973 81.1787 104.091 81.2629 105.208 82.5415C105.847 83.2617 106.597 84.434 106.889 85.0989C107.612 86.8585 107.242 91.0275 106.031 94.4829C105.246 96.8212 103.792 100.181 103.023 101.489C102.492 102.376 102.175 102.274 102.486 101.319C102.83 100.268 103.704 90.1481 103.608 88.395C103.551 87.6282 103.408 86.9766 103.283 86.9656C103.133 86.9523 103.1 87.0476 103.162 87.2005C103.333 87.5352 102.436 91.9768 101.747 94.078C101.466 94.9867 100.576 96.7998 99.7846 98.0809C98.3223 100.408 95.7874 103.5 95.3139 103.458C95.1894 103.447 95.4915 102.59 95.9833 101.577C98.049 97.2634 99.9454 90.8956 100.283 87.0924C100.471 84.9713 100.104 82.6044 99.392 81.288C99.2186 80.9777 99.0973 80.6475 99.1038 80.5744C99.1189 80.4037 100.363 80.5387 102.391 80.8908ZM174.094 88.8051C173.934 89.4789 173.678 90.095 173.547 90.1571C173.282 90.3057 173.599 88.4417 173.994 87.6659C174.329 87.0076 174.374 87.626 174.094 88.8051ZM112.868 82.5336C116.699 82.9475 121.185 83.9109 124.724 85.0606C125.604 85.3353 126.76 85.6099 127.283 85.6564C127.832 85.7051 128.859 86.0174 129.582 86.352C130.715 86.8948 131.085 87.2471 132.168 88.9158C132.851 89.984 133.475 90.8748 133.55 90.8815C133.6 90.8859 133.65 90.3252 133.609 89.6581C133.569 88.9666 133.617 88.4302 133.717 88.4391C134.19 88.4811 135.463 89.6999 136.238 90.8744C137.172 92.2351 137.496 92.2638 137.139 90.9053C137.027 90.4776 136.962 90.0786 137.014 90.0587C137.178 89.9013 141.195 92.4694 141.959 93.2006C143.786 94.9601 146.117 97.8454 146.957 99.4188C151.069 107.131 153.105 110.506 156.551 115.26C159.527 119.357 160.333 122.156 159.337 124.893C158.8 126.418 158.422 126.999 157.948 126.957C157.525 126.919 147.674 119.066 145.589 117.088C141.347 113.099 137.54 107.896 137.075 105.495C136.993 104.997 137.048 102.962 137.222 101.012C137.574 97.0378 137.605 94.4358 137.281 94.4071C137.156 94.396 137.03 94.6797 136.973 95.0432C136.938 95.4332 136.793 95.9364 136.645 96.1935C136.465 96.5215 136.414 96.2467 136.505 95.2228C136.664 93.1483 136.257 93.7756 135.513 96.781C135.159 98.2239 134.68 99.6557 134.477 99.9571C134.099 100.538 134.081 100.463 133.908 98.7272C133.663 95.8305 132.002 90.4983 131.354 90.4408C131.205 90.4275 131.14 90.5937 131.195 90.8198C131.275 91.0481 131.389 91.7462 131.511 92.3468C131.916 94.8644 129.961 103.586 129.014 103.502C128.914 103.493 128.697 102.835 128.492 102.03C128.054 100.173 126.321 95.6455 124.687 91.9866C123.259 88.8374 123.282 88.864 123.119 88.997C123.065 89.0414 123.356 90.001 123.809 91.1224C125.487 95.424 125.967 98.7838 125.439 103.037C125.13 105.663 124.936 106.432 124.399 107.392C123.511 108.911 122.994 109.356 122.147 109.281C120.951 109.175 120.652 108.583 119.28 103.67C118.995 102.637 118.636 101.868 118.457 101.901C118.303 101.937 118.054 102.48 117.901 103.08C117.42 105.102 115.81 106.261 113.742 106.077C111.823 105.907 110.072 104.13 110.219 102.472C110.319 101.351 109.876 96.7163 109.3 93.0285C109.032 91.2355 108.71 88.9217 108.606 87.8313C108.35 85.6217 107.847 83.9307 107.052 82.7052C106.765 82.262 106.529 81.7988 106.536 81.7257C106.545 81.6282 107.068 81.6746 107.734 81.8075C108.373 81.9625 110.68 82.2902 112.868 82.5336ZM218.889 92.0206C217.466 92.7788 215.318 94.6275 214.078 96.1393C212.021 98.6595 209.699 103.319 208.76 106.823C208.118 109.247 207.743 109.509 208.091 107.279C208.365 105.608 209.195 102.488 209.708 101.231C209.809 100.945 209.768 100.843 209.585 100.925C209.427 101.009 209.302 100.998 209.308 100.925C209.356 100.389 210.473 97.7112 211.073 96.6096C211.489 95.8848 211.834 95.1046 211.854 94.8852C211.925 94.0806 215.552 92.2649 217.901 91.8346C219.458 91.5551 219.655 91.5971 218.889 92.0206ZM228.33 93.1782C232.22 94.0642 235.731 94.9656 235.888 95.1762C235.956 95.2559 235.404 95.8212 234.643 96.4663C232.737 98.1399 231.12 100.503 229.651 103.763C228.962 105.299 227.882 107.562 227.271 108.786L226.118 111.018L224.462 111.288C222.398 111.621 219.779 111.413 218.149 110.826C217.443 110.567 216.466 110.259 215.952 110.115C215.165 109.922 214.956 109.732 214.718 109.023C214.146 107.252 215.004 103.249 216.918 98.9469C217.36 97.9295 217.689 97.0496 217.646 96.972C217.257 96.5443 214.131 100.641 212.33 103.945C211.64 105.211 210.869 106.543 210.658 106.942C210.221 107.616 210.221 107.616 210.477 106.435C211.172 103.13 213.087 99.0982 215.057 96.7175C216.066 95.5294 218.154 93.7982 219.475 93.0555C220.108 92.7185 220.625 92.273 220.644 92.0535C220.683 91.6147 222.494 91.8737 228.33 93.1782ZM161.093 90.4029C161.219 91.8146 160.933 92.7721 160.198 93.4194C159.57 93.978 158.939 94.0202 158.552 93.5682C158.37 93.3554 158.481 92.9476 159.012 92.061C159.453 91.3384 159.76 90.4319 159.827 89.6761C159.931 88.5059 159.931 88.5059 160.448 88.8959C160.801 89.1729 161.029 89.7092 161.093 90.4029ZM163.264 90.2762C164.313 91.4751 164.683 92.1222 164.893 93.1483C165.052 93.8996 165.094 94.5667 165.008 94.682C164.749 95.0521 164.139 94.8505 164.18 94.3873C164.284 93.2171 163.772 91.9184 162.615 90.5134C161.935 89.6913 161.4 88.9312 161.406 88.858C161.445 88.4192 162.033 88.8646 163.264 90.2762ZM241.488 96.8774C243.878 97.6793 246.291 98.5079 246.876 98.7072L247.922 99.0949L246.53 100.347C243.829 102.761 242.104 106.343 240.53 112.764C240.214 114.063 239.912 115.191 239.833 115.233C239.779 115.278 239.086 115.167 238.301 114.95C237.492 114.73 236.026 114.551 234.923 114.527C232.638 114.521 231.944 114.14 231.449 112.646C230.935 111.077 231.684 106.597 233.124 102.548C233.789 100.715 234.328 99.1658 234.333 99.117C234.337 99.0682 234.154 99.1503 233.939 99.3032C233.673 99.4762 233.546 99.4895 233.561 99.3188C233.585 99.0506 236.126 96.4505 236.574 96.2199C236.73 96.1601 236.799 95.9451 236.717 95.7412C236.588 95.2137 236.636 95.2425 241.488 96.8774ZM208.144 95.3667C207.674 96.1358 206.908 96.5592 206.59 96.187C206.522 96.1072 206.914 95.6506 207.482 95.185C208.026 94.7173 208.507 94.3915 208.553 94.4446C208.598 94.4978 208.412 94.899 208.144 95.3667ZM162.787 93.1087C162.624 94.9372 162.139 95.877 161.392 95.8106C160.669 95.7465 160.665 95.7952 161.402 94.5584C161.733 93.9489 162.046 92.9692 162.115 92.1891C162.25 90.9479 162.28 90.9014 162.567 91.3446C162.765 91.657 162.85 92.4017 162.787 93.1087ZM144.692 90.4209C145.553 90.6203 146.381 90.9149 146.519 91.0501C146.658 91.1853 148.616 92.6123 150.883 94.2387C154.943 97.1547 154.989 97.2079 156.282 99.3376C159.718 105.048 161.618 109.665 162.525 114.439C162.845 116.212 163.101 117.856 163.084 118.051C163.064 118.27 162.467 116.792 161.793 114.767C160.439 110.789 159.073 107.498 157.8 105.149C156.719 103.185 153.032 98.8771 151.156 97.3836C149.561 96.1117 148.99 96.0364 149.916 97.1998C153.456 101.741 154.423 103.301 154.873 105.306C155.163 106.561 155.295 109.03 155.071 109.01C154.972 109.001 154.664 108.507 154.367 107.891C152.796 104.655 143.844 92.9011 141.77 91.3656C141.039 90.8338 140.457 90.3152 140.44 90.2155C140.456 90.0448 141.318 89.9494 142.469 90.0024C142.82 90.009 143.808 90.195 144.692 90.4209ZM203.958 96.1253C203.947 96.2472 204.685 96.7059 205.625 97.1579C206.539 97.6076 207.354 98.0486 207.418 98.1771C207.484 98.2812 206.733 99.6643 205.741 101.223C203.217 105.323 202.946 106.11 202.493 111.5C202.188 114.938 202.157 116.409 202.375 117.633C202.522 118.53 202.684 119.528 202.753 119.878C202.835 120.376 202.624 120.21 201.697 119.047C198.893 115.554 196.931 111.915 196.285 109.008L195.978 107.654L195.539 108.917C195.096 110.229 194.739 115.382 195.004 116.364C195.314 117.399 194.655 116.333 193.8 114.365L192.945 112.397L193.557 111.444C194.081 110.63 194.13 110.364 193.968 109.638C193.858 109.185 193.604 108.647 193.418 108.483C193.143 108.188 193.078 108.354 192.974 109.525C192.833 111.109 192.492 111.276 192.162 109.895C192.056 109.394 191.619 108.372 191.209 107.623C190.257 105.893 188.452 104.725 186.793 104.749C185.76 104.781 185.715 104.727 184.733 103.338L183.756 101.9L185.291 100.734C186.153 100.073 186.953 99.5544 187.077 99.5655C187.177 99.5743 187.652 100.157 188.067 100.857C189.057 102.444 190.344 103.787 190.917 103.838C191.141 103.858 191.861 103.676 192.507 103.463C193.156 103.226 194.15 103.068 194.7 103.093C196.227 103.154 199.298 101.658 202.072 99.5454C203.824 98.202 204.374 97.6612 204.278 97.3332C204.106 96.7281 203.764 96.8944 200.863 99.0203C199.574 99.9624 198.029 100.956 197.405 101.195L196.309 101.663L197.783 100.614C198.587 100.047 200.235 98.7434 201.427 97.768C203.57 95.968 203.997 95.6865 203.958 96.1253ZM208.725 99.0058C207.993 101.029 207.949 101.812 208.618 101.625C209.132 101.499 209.098 101.594 208.081 103.716C207.592 104.704 206.755 106.768 206.245 108.27C204.965 111.941 204.723 111.551 205.161 106.626C205.497 103.118 205.586 102.683 206.293 101.222C207.024 99.7884 209.174 96.785 209.358 96.9733C209.379 97.0243 209.097 97.933 208.725 99.0058ZM169.253 96.656C170.561 98.0499 171.607 99.8383 172.09 101.478C172.49 102.914 173.525 104.26 174.721 104.931C175.248 105.223 176.324 107.53 176.261 108.237C176.25 108.359 175.665 107.595 174.955 106.549C174.244 105.503 172.784 103.555 171.744 102.258C169.662 99.6901 167.337 95.6014 167.96 95.6567C168.16 95.6744 168.748 96.1198 169.253 96.656ZM168.171 97.8131C168.55 98.6331 169.447 100.408 170.182 101.751C171.69 104.563 172.091 105.705 172.182 107.507C172.27 109.628 171.908 109.743 170.744 107.87C170.169 106.984 169.567 105.849 169.359 105.364C168.922 104.342 167.162 101.532 165.507 99.2475C164.434 97.7516 164.243 97.0713 164.859 96.9293C165.653 96.7541 167.21 99.3004 167.884 101.891C167.937 102.142 168.071 102.326 168.128 102.257C168.209 102.19 168.06 101.317 167.825 100.289C167.369 98.3562 167.123 96.3195 167.347 96.3394C167.422 96.346 167.789 97.0175 168.171 97.8131ZM165.057 100.068C165.247 100.478 165.266 100.823 165.142 100.812C165.017 100.801 164.823 100.44 164.708 100.037C164.621 99.6111 164.574 99.2875 164.624 99.292C164.698 99.2986 164.87 99.6332 165.057 100.068ZM164.216 100.484C165.208 101.482 167.722 105.98 168.557 108.168C169.061 109.564 169.124 109.987 168.879 111.047C168.742 111.747 168.422 113.365 168.154 114.693C167.682 117.182 167.457 117.727 167.29 116.778C166.961 114.832 164.589 110.15 160.985 104.35C160.24 103.129 159.954 102.391 160.001 101.855C160.207 99.5387 162.561 98.7648 164.216 100.484ZM188.723 106.199C189.08 106.427 189.5 106.784 189.655 107.019C189.901 107.36 189.801 107.351 188.783 106.941C185.531 105.669 182.705 106.942 181.72 110.123C181.335 111.342 181.304 111.413 181.186 110.763C180.898 109.19 182.639 106.838 184.723 105.991C185.845 105.525 187.795 105.625 188.723 106.199ZM93.0765 101.22C92.8956 101.278 92.7245 101.508 92.705 101.728C92.5989 102.922 90.5926 104.022 88.8234 103.865L87.8765 103.781L89.0541 103.247C89.7073 102.961 90.509 102.417 90.8448 102.03C91.406 101.367 92.9952 100.722 93.2704 101.016C93.3387 101.096 93.2304 101.185 93.0765 101.22ZM187.011 109.929C187.36 110.525 187.372 111.804 187.011 112.755C186.78 113.373 186.126 113.389 184.917 112.864C184.216 112.556 184.175 112.454 184.27 111.381C184.398 109.943 184.99 109.209 185.962 109.295C186.411 109.335 186.792 109.566 187.011 109.929ZM189.193 113.637C188.902 113.807 188.515 113.92 188.316 113.903C188.116 113.885 188.256 113.725 188.676 113.517C189.07 113.331 189.395 113.065 189.433 112.921C189.443 112.799 189.516 112.83 189.576 113.007C189.635 113.184 189.457 113.488 189.193 113.637ZM189.348 115.002C188.448 115.806 184.591 116.25 184.654 115.543C184.702 115.007 185.608 114.694 186.856 114.781C187.556 114.818 188.466 114.751 188.88 114.616C189.837 114.308 190.003 114.421 189.348 115.002ZM190.466 116.551C190.566 117.69 189.998 118.721 188.996 119.246L188.314 119.579L188.619 118.967C189.046 118.12 188.926 118.06 187.852 118.555C187.355 118.781 186.432 118.994 185.803 119.012C184.845 119.049 184.575 118.976 184.166 118.498C183.688 117.939 183.595 117.292 183.987 116.835C184.099 116.698 184.987 116.605 185.99 116.62C187.319 116.64 188.084 116.511 188.923 116.119C189.553 115.806 190.125 115.587 190.227 115.571C190.302 115.578 190.412 116.03 190.466 116.551ZM176.348 115.469C176.812 116.174 176.87 118.071 176.421 118.031C176.073 118 173.898 115.055 174.069 114.825C174.152 114.734 174.585 114.674 175.058 114.716C175.656 114.769 176.015 114.973 176.348 115.469ZM180.472 117.949C180.347 118.797 180.126 119.589 179.988 119.724C179.851 119.859 179.62 121.043 179.476 122.381C179.204 124.593 179.226 124.915 179.755 126.313C180.284 127.712 180.291 127.909 179.917 129.006C179.206 131.08 179.483 134.177 180.488 135.593C180.645 135.803 180.824 136.335 180.862 136.756C180.973 137.479 180.863 137.592 179.704 138.201C179.017 138.583 178.185 138.902 177.879 138.949C177.547 139.017 177.285 139.142 177.274 139.263C177.224 139.824 179.593 139.445 180.483 138.762C180.968 138.387 181.147 138.354 181.198 138.629C181.862 141.047 182.803 144.595 182.899 144.923C183.018 145.278 182.738 145.326 181.055 145.324C179.977 145.302 178.731 145.192 178.314 145.081C177.63 144.873 177.539 144.766 177.604 144.035C177.653 143.474 177.433 142.841 176.905 142.007C175.886 140.467 175.475 139.153 175.721 138.364C175.967 137.575 175.673 133.814 175.258 132.548C174.976 131.762 174.981 131.148 175.251 129.796C175.448 128.707 175.509 127.46 175.394 126.491C175.241 125.101 175.267 124.809 175.699 124.184C175.963 123.765 176.211 122.952 176.263 122.366C176.33 121.611 176.518 121.185 176.868 120.921C177.378 120.549 177.403 120.551 177.495 121.493C177.628 122.832 176.949 130.757 176.558 132.049C176.112 133.681 176.725 132.998 177.392 131.141C178.127 129.093 178.397 126.045 178.11 122.776C177.905 120.276 177.924 120.057 178.369 119.285C178.635 118.842 178.98 118.062 179.103 117.532C179.33 116.668 179.574 116.468 180.43 116.446C180.582 116.435 180.602 117.051 180.472 117.949ZM174.664 119.153C174.821 119.364 174.695 119.377 174.282 119.217C173.939 119.113 173.522 119.002 173.373 118.989C173.198 118.974 173.06 118.839 173.073 118.692C173.101 118.375 174.325 118.73 174.664 119.153ZM189.479 122.016C189.542 123.57 189.223 124.893 188.566 125.793C188.192 126.325 188.013 126.358 187.25 126.192C185.699 125.833 184.931 125.151 184.945 124.145C184.937 123.382 185.115 123.079 185.961 122.318C186.918 121.445 188.443 120.671 189.147 120.66C189.324 120.651 189.451 121.203 189.479 122.016ZM174.682 120.653C175.784 121.538 175.959 122.389 175.333 123.783C174.404 125.764 174.075 136.817 174.871 138.608C175.019 138.916 175.119 139.49 175.082 139.904C175.072 140.297 175.408 141.604 175.807 142.77C176.554 144.826 176.581 145.369 175.999 146.546C175.602 147.347 176.334 147.018 176.89 146.134C177.207 145.671 177.453 145.447 177.461 145.644C177.441 145.864 177.117 146.4 176.725 146.857C176.135 147.566 175.898 147.692 175.333 147.544C174.964 147.462 174.177 147.269 173.586 147.143C172.108 146.815 170.759 145.885 170.463 144.974C170.13 143.912 170.824 142.327 172.431 140.627L173.764 139.197L173.084 138.646C172.173 137.877 171.189 135.947 170.71 133.987C170.295 132.157 170.315 127.686 170.785 125.787L171.088 124.634L172.174 124.854C172.768 124.956 173.268 124.975 173.279 124.854C173.305 124.561 172.47 124.069 171.872 124.016C171.249 123.961 171.25 123.666 171.851 122.27C172.936 119.663 173.228 119.492 174.682 120.653ZM139.504 117.456C139.941 117.618 140.416 117.931 140.573 118.141C140.703 118.374 141.797 119.061 142.973 119.681C145.061 120.776 147.427 122.411 148.418 123.408C152.032 127.12 152.263 127.632 152.086 131.032C151.94 134.09 151.45 135.373 149.591 137.641C146.776 141.052 143.223 142.039 140.141 140.267C139.496 139.89 137.644 138.399 136.065 136.956C134.487 135.489 132.244 133.594 131.09 132.73C129.911 131.864 128.48 130.729 127.894 130.26C124.968 127.862 123.368 127.204 119.678 126.901L116.885 126.678L117.376 125.959C118.24 124.709 121.609 122.133 123.683 121.114C127.148 119.431 132.358 118.173 136.512 118.051C137.395 118.006 137.757 117.891 137.889 117.534C138.111 117.013 138.338 117.009 139.504 117.456ZM214.305 126.678C214.299 126.751 213.89 127.108 213.432 127.46C212.574 128.072 209.38 128.968 208.825 128.722C208.654 128.658 209.356 128.106 210.366 127.483C211.904 126.563 212.37 126.408 213.27 126.463C213.843 126.514 214.312 126.605 214.305 126.678ZM189.266 128.656C189.282 129.321 189.578 130.797 189.929 131.934C190.28 133.071 190.528 134.248 190.504 134.516C190.48 134.784 190.674 135.711 190.951 136.546C191.527 138.268 191.725 140.276 191.302 140.239C190.903 140.203 189.709 138.377 189.155 136.977C188.404 134.969 187.583 130.645 187.704 129.28C187.814 128.036 188.424 127.107 188.982 127.329C189.127 127.391 189.25 127.992 189.266 128.656ZM206.191 132.641C204.212 134.284 201.821 136.037 200.87 136.567C199.921 137.072 198.62 137.866 197.954 138.298C197.287 138.731 198.054 138.012 199.632 136.654C201.232 135.321 203.036 133.663 203.699 132.985C204.337 132.304 205.463 131.225 206.171 130.6C207.395 129.553 207.578 129.471 208.649 129.567L209.795 129.668L206.191 132.641ZM45.4253 122.249C46.0353 123.016 45.8815 123.052 44.8804 122.447C44.5012 122.192 44.2509 121.9 44.3365 121.784C44.6181 121.441 44.8608 121.536 45.4253 122.249ZM123.25 128.815C125.207 129.407 126.104 130.052 127.754 132.115C129.225 133.941 130.873 136.593 130.656 136.771C130.602 136.815 130.198 136.558 129.78 136.177C127.405 134.074 121.695 131.626 117.321 130.82C114.949 130.388 114.964 130.782 117.308 131.531C122.875 133.328 127.632 137.166 128.627 140.67C128.857 141.476 129.021 142.179 128.967 142.223C128.937 142.27 128.425 141.536 127.83 140.599C125.963 137.583 122.075 134.412 119.523 133.743C118.442 133.475 114.987 133.635 114.959 133.952C114.95 134.049 115.594 134.156 116.397 134.153C118.18 134.164 120.241 134.986 122.383 136.601C128.414 141.093 128.149 148.318 121.726 155.316C118.642 158.654 114.231 161.383 111.605 161.543C110.391 161.632 107.992 160.657 106.343 159.43C102.929 156.866 101.064 151.565 102.168 147.609C103.159 144.084 106.593 138.787 109.421 136.36C111.621 134.491 110.288 134.79 107.294 136.834C105.609 137.987 102.957 140.7 101.907 142.351C101.027 143.772 99.9211 146.328 100.101 146.565C100.171 146.62 100.561 146.188 100.994 145.563C102.027 144.107 104.28 141.358 104.43 141.371C104.505 141.378 104.356 141.635 104.102 141.957C102.38 144.089 99.8195 148.039 98.4871 150.599C97.6985 152.126 97.6249 152.39 97.2991 156.342C96.9009 160.827 96.9854 161.572 98.3724 164.619C99.2318 166.539 101.93 169.53 103.698 170.547C108.53 173.261 113.788 172.598 119.299 168.517C120.886 167.331 122.459 166.586 122.709 166.878C122.777 166.958 122.614 167.386 122.371 167.856C121.767 169.006 119.454 170.447 116.519 171.538C113.505 172.671 111.844 172.99 109.237 172.931C105.603 172.854 102.917 171.706 100.236 169.085C98.4106 167.301 97.0453 165.14 95.8555 162.135C94.7296 159.259 94.4512 159.283 94.4633 162.257C94.4386 164.516 95.1019 167.228 96.1411 169.385C97.2691 171.672 100.086 175.018 102.476 176.95C104.726 178.772 104.67 178.546 103.705 181.212L103.374 182.116L101.969 181.82C98.9611 181.184 93.844 178.567 90.2643 175.891C89.56 175.337 88.9381 174.987 88.8525 175.102C88.5979 175.423 89.8279 178.26 90.8919 179.853C92.3341 181.996 94.6019 184.458 97.0104 186.466L99.0463 188.145L98.4852 189.373C97.0803 192.468 96.3501 192.771 95.4041 190.697C94.7778 189.265 94.4918 189.092 94.4073 190.043C94.2428 191.896 91.9115 193.827 90.0676 193.663C88.2984 193.506 85.6287 190.763 83.3499 186.727C82.3303 184.917 82.2143 184.808 81.949 185.251C81.7691 185.579 81.6609 186.798 81.6502 188.616L81.6505 191.442L82.6929 193.279C83.2585 194.263 84.2673 195.63 84.9109 196.301L86.0865 197.487L85.2273 197.263C83.6585 196.829 82.3508 196 81.926 195.127C81.5197 194.329 80.8335 190.46 80.6535 187.962C80.5049 185.959 80.2438 186.918 80.0177 190.314C79.8738 192.783 79.7147 193.727 79.5153 193.709C79.3658 193.696 79.2196 193.929 79.2185 194.223C79.2143 195.403 79.158 195.471 78.1244 195.232C77.4581 195.099 76.8405 194.7 76.2424 194.082C74.4958 192.256 73.5825 192.077 75.2067 193.867C76.1233 194.858 78.3457 198.397 78.311 198.787C78.3002 198.909 77.7488 198.614 77.0857 198.162C73.6814 195.771 73.0065 195.736 75.6859 198.087C78.3383 200.46 80.5356 202.867 80.9539 203.813C81.137 204.296 81.2292 204.673 81.1295 204.664C80.7308 204.629 74.4207 199.891 73.2884 198.783C72.6654 198.163 72.0543 197.691 71.9709 197.782C71.8897 197.848 72.2115 198.467 72.7262 199.176C73.243 199.86 74.0503 201.234 74.5661 202.214C75.187 203.424 75.8382 204.293 76.6334 204.953C77.7602 205.839 79.2295 207.96 79.1982 208.596C79.1257 209.696 76.7139 208.007 71.4861 203.243C71.1838 202.97 70.9205 202.824 70.9097 202.946C70.8859 203.214 73.5254 207.994 74.2882 209.02C74.8874 209.909 74.9037 210.574 74.2993 211.724C73.1262 213.905 70.0246 215.178 67.524 214.489C65.2933 213.873 63.4459 212.333 61.657 209.57C60.5084 207.797 59.8225 206.188 59.8939 205.383C59.9351 204.92 60.0456 204.807 60.3338 204.956C60.9849 205.259 65.3777 201.324 67.7609 198.243C70.0834 195.28 70.3846 194.717 69.7746 194.515C69.4301 194.436 69.4972 194.245 70.2274 193.376C71.4103 191.933 74.4869 188.963 74.5378 189.237C74.5519 189.362 74.6365 190.106 74.7438 190.878C74.9411 192.615 75.329 192.772 75.4697 191.188C75.526 190.554 75.8541 189.403 76.1748 188.621L76.7781 187.2L76.8291 188.605C76.8595 189.394 76.9777 190.044 77.0774 190.053C77.177 190.062 77.4001 189.246 77.5636 188.253C77.7521 187.262 78.1831 185.802 78.5287 185.021C78.8742 184.241 79.1309 183.33 79.0593 183.004C78.952 182.233 80.7382 178.804 84.0497 173.471L86.5715 169.395L86.499 171.06C86.4201 172.797 86.8611 173.205 87.0083 171.547C87.2182 169.182 88.8982 164.687 90.7981 161.391C91.4524 160.245 91.7102 159.605 91.5845 159.323C91.4339 159.04 92.0535 157.719 93.6155 154.835C94.8449 152.585 96.2 150.052 96.6268 149.205C98.0393 146.308 100.307 143.119 103.086 140.097C104.615 138.439 106.34 136.258 106.955 135.281C108.227 133.108 109.882 131.167 111.89 129.478C113.221 128.343 113.429 128.263 114.243 128.433C115.057 128.604 115.148 128.71 115.187 129.402L115.194 130.164L115.49 129.379C115.629 128.949 115.865 128.553 116.023 128.468C117.02 127.992 121.146 128.186 123.25 128.815ZM26.7618 123.418C26.9211 124.17 27.01 124.865 26.9537 124.934C26.8952 125.027 25.9645 125.043 24.8866 125.021C22.1326 124.924 19.6928 125.813 17.3865 127.746L15.6781 129.167L15.0843 128.5C14.7636 128.152 14.2901 127.545 14.0734 127.157L13.6562 126.481L14.7222 125.224C17.0588 122.385 20.2157 121.338 24.8646 121.874L26.4572 122.04L26.7618 123.418ZM193.58 142.579C191.721 144.846 190.714 145.445 188.36 145.654C187.574 145.731 186.376 145.649 185.71 145.517C184.454 145.233 184.229 144.943 183.691 143.077L183.503 142.372L184.258 143.201C185.24 144.295 187.537 145.015 188.947 144.698C190.304 144.401 191.462 143.521 192.234 142.189C192.942 140.999 193.692 140.475 194.666 140.537C195.164 140.582 195.072 140.77 193.58 142.579ZM25.8705 126.951C25.8933 127.543 25.9453 127.523 23.46 127.794C22.7742 127.88 21.1004 128.346 19.7755 128.843C17.5665 129.679 16.6272 129.792 16.6813 129.182C16.7051 128.914 18.8534 127.63 20.1285 127.129C21.6907 126.506 23.8087 126.129 24.8509 126.271C25.6689 126.393 25.8596 126.508 25.8705 126.951ZM13.8732 129.695C13.8472 129.987 13.5298 129.885 13.0888 129.478C12.8548 129.285 12.6922 128.853 12.7204 128.536C12.7723 127.951 12.7723 127.951 13.3303 128.737C13.6196 129.156 13.8569 129.595 13.8732 129.695ZM67.6914 196.763C65.4014 199.926 61.3163 203.79 60.3694 203.706C59.9458 203.668 60.2004 203.347 61.8654 201.848C62.9823 200.866 64.8456 199.115 66.0274 197.967C67.1822 196.841 68.1702 195.896 68.2201 195.901C68.2699 195.905 68.0337 196.302 67.6914 196.763ZM59.541 207.662C60.2659 209.397 62.1166 212.313 63.5067 213.911C64.0777 214.552 64.5448 215.232 64.5274 215.427C64.4798 215.963 61.8561 218.925 60.4229 220.075C58.8564 221.312 57.2455 222.201 56.6225 222.146C55.9746 222.088 54.3005 219.163 53.8193 217.228C53.1495 214.589 53.7885 211.918 55.642 209.429C56.1869 208.666 56.6212 208.017 56.5508 207.961C56.3937 207.751 54.7168 209.666 54.004 210.905C51.9264 214.505 52.2583 218.687 54.9303 222.536C55.9553 224.003 56.1504 224.635 55.678 224.863C55.3097 225.052 53.472 222.554 52.9248 221.08C52.3981 219.658 51.8821 216.417 51.9925 215.174C52.2685 212.348 54.4285 208.387 57.1486 205.754L58.8787 204.089L58.908 205.173C58.9308 205.765 59.2072 206.895 59.541 207.662ZM66.8764 217.822C67.3564 218.357 67.7346 218.906 67.7259 219.004C67.7173 219.101 66.8182 220.176 65.7587 221.36C64.1197 223.131 63.6322 223.53 62.8132 223.703C61.6117 223.94 60.6323 223.657 60.3397 222.992C60.175 222.584 60.4317 222.238 61.7804 220.908C62.6872 220.031 63.9319 218.74 64.5699 218.06C65.208 217.379 65.7854 216.816 65.8601 216.823C65.9598 216.832 66.3965 217.288 66.8764 217.822ZM70.3642 221.253L71.0121 221.875L70.2679 222.62C68.6191 224.218 66.3105 225.046 65.8835 224.197C65.7557 223.94 69.2201 220.561 69.544 220.59C69.6415 220.623 70.0186 220.903 70.3642 221.253Z" fill="url(#paint2_linear_289_11446)"/>
<path d="M154.429 12.9476C153.944 13.3222 154.308 13.7477 155.519 14.2484C156.562 14.6605 156.959 14.7202 157.202 14.5207C157.609 14.1882 157.151 13.6807 156.015 13.1867C155.071 12.7835 154.675 12.7237 154.429 12.9476Z" fill="url(#paint3_linear_289_11446)"/>
<path d="M153.492 3.76025C152.711 4.35434 152.536 4.63363 152.619 5.10791C152.853 6.43101 156.817 12.7048 157.643 13.0238C158.296 13.3029 159.249 12.7487 159.73 11.8577C160.063 11.2238 160.082 11.0043 159.776 10.2154C159.043 8.28288 155.433 3.12165 154.785 3.06412C154.61 3.04864 154.03 3.36566 153.492 3.76025ZM156.359 6.54571C157.936 8.87259 159.071 10.7917 159.05 11.0355C159.043 11.1087 158.843 11.3857 158.622 11.6118C158.067 12.2015 157.838 11.9599 155.485 8.18813C153.637 5.24737 153.577 5.07008 153.99 4.66443C154.261 4.44275 154.552 4.27205 154.652 4.2809C154.751 4.28975 155.514 5.31578 156.359 6.54571Z" fill="url(#paint4_linear_289_11446)"/>
</g>
<defs>
<filter id="filter0_d_289_11446" x="-5.91729" y="0.765647" width="301.897" height="271.041" filterUnits="userSpaceOnUse" color-interpolation-filters="sRGB">
<feFlood flood-opacity="0" result="BackgroundImageFix"/>
<feColorMatrix in="SourceAlpha" type="matrix" values="0 0 0 0 0 0 0 0 0 0 0 0 0 0 0 0 0 0 127 0" result="hardAlpha"/>
<feOffset dy="4.5959"/>
<feGaussianBlur stdDeviation="3.44693"/>
<feComposite in2="hardAlpha" operator="out"/>
<feColorMatrix type="matrix" values="0 0 0 0 0.146788 0 0 0 0 0.370833 0 0 0 0 0.290515 0 0 0 0.69 0"/>
<feBlend mode="normal" in2="BackgroundImageFix" result="effect1_dropShadow_289_11446"/>
<feBlend mode="normal" in="SourceGraphic" in2="effect1_dropShadow_289_11446" result="shape"/>
</filter>
<linearGradient id="paint0_linear_289_11446" x1="134.591" y1="245.675" x2="135.801" y2="245.781" gradientUnits="userSpaceOnUse">
<stop stop-color="#41A380"/>
<stop offset="1" stop-color="#63D5AC"/>
</linearGradient>
<linearGradient id="paint1_linear_289_11446" x1="132.428" y1="239.387" x2="139.092" y2="239.914" gradientUnits="userSpaceOnUse">
<stop stop-color="#41A380"/>
<stop offset="1" stop-color="#63D5AC"/>
</linearGradient>
<linearGradient id="paint2_linear_289_11446" x1="9.90848" y1="135.918" x2="280.68" y2="157.535" gradientUnits="userSpaceOnUse">
<stop stop-color="#41A380"/>
<stop offset="1" stop-color="#63D5AC"/>
</linearGradient>
<linearGradient id="paint3_linear_289_11446" x1="154.179" y1="13.7424" x2="157.404" y2="13.9818" gradientUnits="userSpaceOnUse">
<stop stop-color="#41A380"/>
<stop offset="1" stop-color="#63D5AC"/>
</linearGradient>
<linearGradient id="paint4_linear_289_11446" x1="152.262" y1="8.69" x2="160.227" y2="9.34902" gradientUnits="userSpaceOnUse">
<stop stop-color="#41A380"/>
<stop offset="1" stop-color="#63D5AC"/>
</linearGradient>
</defs>
</svg>
