<svg width="31" height="31" viewBox="0 0 31 31" fill="none" xmlns="http://www.w3.org/2000/svg">
<path fill-rule="evenodd" clip-rule="evenodd" d="M15.5414 30.4879C23.8637 30.4879 30.6102 23.7414 30.6102 15.4192C30.6102 7.09692 23.8637 0.350403 15.5414 0.350403C7.21917 0.350403 0.472656 7.09692 0.472656 15.4192C0.472656 23.7414 7.21917 30.4879 15.5414 30.4879ZM22.2999 11.4613C22.9936 11.3751 23.659 11.1975 24.2834 10.9297C23.8153 11.6111 23.2413 12.2032 22.5581 12.6773C22.5654 12.8199 22.5707 12.9636 22.5707 13.1124C22.5707 17.5598 19.1074 22.6907 12.7727 22.6907C10.8238 22.6907 9.0166 22.1417 7.4917 21.1802C7.76247 21.2141 8.03323 21.2264 8.31554 21.2264C9.92545 21.2264 11.4126 20.6866 12.5838 19.7907C11.0788 19.7589 9.81315 18.7789 9.36712 17.4459C9.57597 17.4911 9.79846 17.5034 10.0189 17.5034C10.3358 17.5034 10.6412 17.4675 10.9214 17.3926C9.35663 17.0796 8.16337 15.7209 8.16337 14.0852V14.0482C8.62304 14.2956 9.16562 14.4526 9.7187 14.4628C8.80355 13.8646 8.1896 12.8312 8.1896 11.6655C8.1896 11.0446 8.36382 10.4679 8.66082 9.96406C10.362 12.0072 12.8944 13.3484 15.7564 13.4849C15.6997 13.2406 15.6766 12.9841 15.6766 12.7173C15.6766 10.863 17.2109 9.3504 19.1168 9.3504C20.0991 9.3504 20.9996 9.7578 21.6314 10.4156C22.4143 10.2627 23.1489 9.98869 23.8143 9.60079C23.5582 10.3899 23.0135 11.0446 22.2999 11.4613Z" fill="#2C4B40"/>
</svg>
