<svg width="31" height="32" viewBox="0 0 31 32" fill="none" xmlns="http://www.w3.org/2000/svg">
<path fill-rule="evenodd" clip-rule="evenodd" d="M15.3774 31.0057C23.6996 31.0057 30.4461 24.2592 30.4461 15.9369C30.4461 7.61468 23.6996 0.868164 15.3774 0.868164C7.05511 0.868164 0.308594 7.61468 0.308594 15.9369C0.308594 24.2592 7.05511 31.0057 15.3774 31.0057ZM22.1357 11.979C22.8294 11.8928 23.4948 11.7153 24.1192 11.4475C23.6512 12.1288 23.0771 12.7209 22.3939 13.195C22.4012 13.3377 22.4065 13.4813 22.4065 13.6301C22.4065 18.0776 18.9432 23.2085 12.6085 23.2085C10.6596 23.2085 8.85241 22.6595 7.32751 21.698C7.59828 21.7318 7.86905 21.7441 8.15136 21.7441C9.76126 21.7441 11.2484 21.2044 12.4196 20.3085C10.9146 20.2767 9.64897 19.2967 9.20294 17.9637C9.41179 18.0088 9.63428 18.0212 9.85467 18.0212C10.1716 18.0212 10.477 17.9852 10.7572 17.9103C9.19244 17.5973 7.99918 16.2387 7.99918 14.603V14.566C8.45886 14.8133 9.00144 14.9703 9.55451 14.9806C8.63937 14.3823 8.02542 13.349 8.02542 12.1832C8.02542 11.5624 8.19963 10.9857 8.49664 10.4818C10.1978 12.5249 12.7302 13.8662 15.5922 14.0026C15.5355 13.7584 15.5124 13.5019 15.5124 13.2351C15.5124 11.3808 17.0468 9.86816 18.9526 9.86816C19.9349 9.86816 20.8354 10.2756 21.4672 10.9333C22.2501 10.7804 22.9847 10.5064 23.6501 10.1186C23.394 10.9077 22.8493 11.5624 22.1357 11.979Z" fill="white"/>
</svg>
