<svg width="21" height="22" viewBox="0 0 21 22" fill="none" xmlns="http://www.w3.org/2000/svg">
<path d="M15.0231 0.000327789C14.6398 0.00607606 14.2164 0.0903893 13.6894 0.230273C12.1775 0.628845 3.47984 3.0356 3.47984 3.0356C3.46451 3.03944 3.44918 3.04519 3.43385 3.05093C2.05609 3.57023 1.18805 4.05886 0.659176 4.76786C0.134135 5.47302 0.0172463 6.31999 0.0153297 7.32791C0.0153297 7.33366 0.0153297 7.33749 0.0153297 7.34324V7.64984C0.00958142 7.71115 0 7.77247 0 7.83379V18.3193C0 19.835 1.24362 21.0786 2.75934 21.0786H17.8437C19.3595 21.0786 20.6031 19.835 20.6031 18.3193V7.75714C20.6031 6.19352 19.2043 4.89049 17.6598 4.89049H2.9433C2.39335 4.89049 1.89896 5.04762 1.48698 5.3044C1.84339 4.86558 2.51598 4.45168 3.74044 3.98604C3.75385 3.9803 3.75769 3.97646 3.7711 3.97071C3.82667 3.95538 12.4726 1.56587 13.9347 1.18071C14.4214 1.05233 14.7855 0.98526 15.0384 0.981427C15.2914 0.977596 15.4102 1.01592 15.4676 1.05808C15.5251 1.10023 15.573 1.18263 15.6209 1.38C15.6688 1.57737 15.6976 1.87821 15.6976 2.26912V3.9094H16.6787V2.26912C16.6787 1.84372 16.6519 1.48347 16.5714 1.15005C16.4909 0.816634 16.3338 0.488961 16.0502 0.276262C15.7666 0.0635631 15.4063 -0.00542048 15.0231 0.000327789ZM2.9433 5.87159H17.6598C18.616 5.87159 19.622 6.82203 19.622 7.75714V18.3193C19.622 19.3042 18.8287 20.0975 17.8437 20.0975H2.75934C1.77249 20.0975 0.981099 19.3061 0.981099 18.3193V8.55429L0.996429 7.74181C1.02517 7.40839 1.19571 6.93317 1.51764 6.56143C1.8683 6.15519 2.34736 5.87159 2.9433 5.87159ZM16.924 11.7582C16.2456 11.7582 15.6976 12.3062 15.6976 12.9846C15.6976 13.6629 16.2456 14.2109 16.924 14.2109C17.6004 14.2109 18.1503 13.6629 18.1503 12.9846C18.1503 12.3062 17.6004 11.7582 16.924 11.7582Z" fill="#ffffff"/>
</svg>
